<svg xmlns="http://www.w3.org/2000/svg" width="900" height="980" viewBox="0 0 900 980">

<style>
  text { font-family: Inter, Arial, sans-serif; fill: #172033; dominant-baseline: middle; }
  .canvas { fill: none; }
  .zone { fill: #cfd5e2; stroke: #30384d; stroke-width: 1.4; rx: 22; }
  .group { fill: #dfe4ee; stroke: #30384d; stroke-width: 1.2; rx: 18; }
  .box { fill: #f8fafc; stroke: #30384d; stroke-width: 1.1; rx: 16; }
  .muted { fill: #e6eaf2; stroke: #667085; stroke-dasharray: 5 4; rx: 16; }
  .label { font-size: 15px; font-weight: 700; }
  .small { font-size: 12px; font-weight: 600; }
  .tiny { font-size: 10px; font-weight: 600; }
  .line { fill: none; stroke: #30384d; stroke-width: 1.35; marker-end: url(#arrow); }
  .dash { fill: none; stroke: #697386; stroke-width: 1.25; stroke-dasharray: 5 4; marker-end: url(#arrow); }
</style>
<defs>
  <marker id="arrow" viewBox="0 0 10 10" refX="8" refY="5" markerWidth="7" markerHeight="7" orient="auto-start-reverse">
    <path d="M 0 0 L 10 5 L 0 10 z" fill="#30384d"/>
  </marker>
</defs>
<rect class="canvas" x="28" y="28" width="844" height="924" rx="24"/>
<text class="label" x="450" y="70" text-anchor="middle">Analysis and design process</text>
<rect class="box" x="295" y="118" width="310" height="78" rx="18"/><text class="small" x="450" y="150" text-anchor="middle">Survey existing tools</text><text class="tiny" x="450" y="172" text-anchor="middle">Jira, Trello, Asana</text>
<rect class="box" x="295" y="242" width="310" height="78" rx="18"/><text class="small" x="450" y="274" text-anchor="middle">Define requirements</text><text class="tiny" x="450" y="296" text-anchor="middle">scope and core workflows</text>
<rect class="box" x="295" y="366" width="310" height="78" rx="18"/><text class="small" x="450" y="398" text-anchor="middle">Model use cases</text><text class="tiny" x="450" y="420" text-anchor="middle">actors and functional boundaries</text>
<rect class="box" x="295" y="490" width="310" height="78" rx="18"/><text class="small" x="450" y="522" text-anchor="middle">Design system architecture</text><text class="tiny" x="450" y="544" text-anchor="middle">frontend, backend, services</text>
<rect class="box" x="295" y="614" width="310" height="78" rx="18"/><text class="small" x="450" y="646" text-anchor="middle">Design data model</text><text class="tiny" x="450" y="668" text-anchor="middle">ERD and migration strategy</text>
<rect class="box" x="295" y="738" width="310" height="78" rx="18"/><text class="small" x="450" y="770" text-anchor="middle">Detail behavior diagrams</text><text class="tiny" x="450" y="792" text-anchor="middle">sequence and activity flows</text>
<rect class="box" x="295" y="862" width="310" height="58" rx="18"/><text class="small" x="450" y="896" text-anchor="middle">Design AI copilot and assignment</text>
<path class="line" d="M450 196 L450 242"/><path class="line" d="M450 320 L450 366"/><path class="line" d="M450 444 L450 490"/><path class="line" d="M450 568 L450 614"/><path class="line" d="M450 692 L450 738"/><path class="line" d="M450 816 L450 862"/>
</svg>
