<?plantuml 1.2026.1?><svg xmlns="http://www.w3.org/2000/svg" xmlns:xlink="http://www.w3.org/1999/xlink" contentStyleType="text/css" data-diagram-type="SEQUENCE" height="472px" preserveAspectRatio="none" style="width:1158px;height:472px;background:#FFFFFF;" version="1.1" viewBox="0 0 1158 472" width="1158px" zoomAndPan="magnify"><defs/><g><g><title>User</title><rect fill="#FFFFFF" height="253.7969" style="stroke:#181818;stroke-width:1;" width="10" x="18.9551" y="112.4297"/></g><g><title>KanbanView</title><rect fill="#FFFFFF" height="253.7969" style="stroke:#181818;stroke-width:1;" width="10" x="252.0859" y="112.4297"/></g><g><title>KanbanView</title><rect fill="#FFFFFF" height="28" style="stroke:#181818;stroke-width:1;" width="10" x="257.0859" y="338.2266"/></g><g><title>TaskController</title><rect fill="#FFFFFF" height="224.6641" style="stroke:#181818;stroke-width:1;" width="10" x="634.5054" y="141.5625"/></g><g><title>TASKS</title><rect fill="#FFFFFF" height="101.2656" style="stroke:#181818;stroke-width:1;" width="10" x="883.4209" y="170.6953"/></g><g><title>TASKS</title><rect fill="#FFFFFF" height="28" style="stroke:#181818;stroke-width:1;" width="10" x="888.4209" y="207.8281"/></g><g class="participant-lifeline" data-entity-uid="part1" data-qualified-name="U" id="part1-lifeline"><g><title>User</title><rect fill="#000000" fill-opacity="0.00000" height="309.9297" width="8" x="19.9551" y="81.2969"/><line style="stroke:#181818;stroke-width:0.5;stroke-dasharray:5,5;" x1="23" x2="23" y1="81.2969" y2="391.2266"/></g></g><g class="participant-lifeline" data-entity-uid="part2" data-qualified-name="KV" id="part2-lifeline"><g><title>KanbanView</title><rect fill="#000000" fill-opacity="0.00000" height="309.9297" width="8" x="253.0859" y="81.2969"/><line style="stroke:#181818;stroke-width:0.5;stroke-dasharray:5,5;" x1="256.835" x2="256.835" y1="81.2969" y2="391.2266"/></g></g><g class="participant-lifeline" data-entity-uid="part3" data-qualified-name="TC" id="part3-lifeline"><g><title>TaskController</title><rect fill="#000000" fill-opacity="0.00000" height="309.9297" width="8" x="635.5054" y="81.2969"/><line style="stroke:#181818;stroke-width:0.5;stroke-dasharray:5,5;" x1="638.6528" x2="638.6528" y1="81.2969" y2="391.2266"/></g></g><g class="participant-lifeline" data-entity-uid="part4" data-qualified-name="PM" id="part4-lifeline"><g><title>PROJECT_MEMBERS</title><rect fill="#000000" fill-opacity="0.00000" height="309.9297" width="8" x="771.1377" y="81.2969"/><line style="stroke:#181818;stroke-width:0.5;stroke-dasharray:5,5;" x1="774.3579" x2="774.3579" y1="81.2969" y2="391.2266"/></g></g><g class="participant-lifeline" data-entity-uid="part5" data-qualified-name="T" id="part5-lifeline"><g><title>TASKS</title><rect fill="#000000" fill-opacity="0.00000" height="309.9297" width="8" x="884.4209" y="81.2969"/><line style="stroke:#181818;stroke-width:0.5;stroke-dasharray:5,5;" x1="887.8794" x2="887.8794" y1="81.2969" y2="391.2266"/></g></g><g class="participant participant-head" data-entity-uid="part1" data-qualified-name="U" id="part1-head"><text fill="#000000" font-family="sans-serif" font-size="14" lengthAdjust="spacing" textLength="31.9102" x="5" y="77.9951">User</text><ellipse cx="23.9551" cy="13.5" fill="#E2E2F0" rx="8" ry="8" style="stroke:#181818;stroke-width:0.5;"/><path d="M23.9551,21.5 L23.9551,48.5 M10.9551,29.5 L36.9551,29.5 M23.9551,48.5 L10.9551,63.5 M23.9551,48.5 L36.9551,63.5" fill="none" style="stroke:#181818;stroke-width:0.5;"/></g><g class="participant participant-tail" data-entity-uid="part1" data-qualified-name="U" id="part1-tail"><text fill="#000000" font-family="sans-serif" font-size="14" lengthAdjust="spacing" textLength="31.9102" x="5" y="403.2217">User</text><ellipse cx="23.9551" cy="415.0234" fill="#E2E2F0" rx="8" ry="8" style="stroke:#181818;stroke-width:0.5;"/><path d="M23.9551,423.0234 L23.9551,450.0234 M10.9551,431.0234 L36.9551,431.0234 M23.9551,450.0234 L10.9551,465.0234 M23.9551,450.0234 L36.9551,465.0234" fill="none" style="stroke:#181818;stroke-width:0.5;"/></g><g class="participant participant-head" data-entity-uid="part2" data-qualified-name="KV" id="part2-head"><text fill="#000000" font-family="sans-serif" font-size="14" lengthAdjust="spacing" textLength="86.502" x="210.835" y="77.9951">KanbanView</text><path d="M236.5859,37 L236.5859,61 M236.5859,49 L253.5859,49" fill="none" style="stroke:#181818;stroke-width:0.5;"/><ellipse cx="265.5859" cy="49" fill="#E2E2F0" rx="12" ry="12" style="stroke:#181818;stroke-width:0.5;"/></g><g class="participant participant-tail" data-entity-uid="part2" data-qualified-name="KV" id="part2-tail"><text fill="#000000" font-family="sans-serif" font-size="14" lengthAdjust="spacing" textLength="86.502" x="210.835" y="403.2217">KanbanView</text><path d="M236.5859,410.5234 L236.5859,434.5234 M236.5859,422.5234 L253.5859,422.5234" fill="none" style="stroke:#181818;stroke-width:0.5;"/><ellipse cx="265.5859" cy="422.5234" fill="#E2E2F0" rx="12" ry="12" style="stroke:#181818;stroke-width:0.5;"/></g><g class="participant participant-head" data-entity-uid="part3" data-qualified-name="TC" id="part3-head"><text fill="#000000" font-family="sans-serif" font-size="14" lengthAdjust="spacing" textLength="101.7051" x="585.6528" y="77.9951">TaskController</text><ellipse cx="639.5054" cy="49" fill="#E2E2F0" rx="12" ry="12" style="stroke:#181818;stroke-width:0.5;"/><polygon fill="#181818" points="635.5054,37,641.5054,32,639.5054,37,641.5054,42,635.5054,37" style="stroke:#181818;stroke-width:1;"/></g><g class="participant participant-tail" data-entity-uid="part3" data-qualified-name="TC" id="part3-tail"><text fill="#000000" font-family="sans-serif" font-size="14" lengthAdjust="spacing" textLength="101.7051" x="585.6528" y="403.2217">TaskController</text><ellipse cx="639.5054" cy="422.5234" fill="#E2E2F0" rx="12" ry="12" style="stroke:#181818;stroke-width:0.5;"/><polygon fill="#181818" points="635.5054,410.5234,641.5054,405.5234,639.5054,410.5234,641.5054,415.5234,635.5054,410.5234" style="stroke:#181818;stroke-width:1;"/></g><g class="participant participant-head" data-entity-uid="part4" data-qualified-name="PM" id="part4-head"><text fill="#000000" font-family="sans-serif" font-size="14" lengthAdjust="spacing" textLength="137.5596" x="703.3579" y="77.9951">PROJECT_MEMBERS</text><ellipse cx="775.1377" cy="49" fill="#E2E2F0" rx="12" ry="12" style="stroke:#181818;stroke-width:0.5;"/><line style="stroke:#181818;stroke-width:0.5;" x1="763.1377" x2="787.1377" y1="63" y2="63"/></g><g class="participant participant-tail" data-entity-uid="part4" data-qualified-name="PM" id="part4-tail"><text fill="#000000" font-family="sans-serif" font-size="14" lengthAdjust="spacing" textLength="137.5596" x="703.3579" y="403.2217">PROJECT_MEMBERS</text><ellipse cx="775.1377" cy="422.5234" fill="#E2E2F0" rx="12" ry="12" style="stroke:#181818;stroke-width:0.5;"/><line style="stroke:#181818;stroke-width:0.5;" x1="763.1377" x2="787.1377" y1="436.5234" y2="436.5234"/></g><g class="participant participant-head" data-entity-uid="part5" data-qualified-name="T" id="part5-head"><text fill="#000000" font-family="sans-serif" font-size="14" lengthAdjust="spacing" textLength="45.083" x="862.8794" y="77.9951">TASKS</text><ellipse cx="888.4209" cy="49" fill="#E2E2F0" rx="12" ry="12" style="stroke:#181818;stroke-width:0.5;"/><line style="stroke:#181818;stroke-width:0.5;" x1="876.4209" x2="900.4209" y1="63" y2="63"/></g><g class="participant participant-tail" data-entity-uid="part5" data-qualified-name="T" id="part5-tail"><text fill="#000000" font-family="sans-serif" font-size="14" lengthAdjust="spacing" textLength="45.083" x="862.8794" y="403.2217">TASKS</text><ellipse cx="888.4209" cy="422.5234" fill="#E2E2F0" rx="12" ry="12" style="stroke:#181818;stroke-width:0.5;"/><line style="stroke:#181818;stroke-width:0.5;" x1="876.4209" x2="900.4209" y1="436.5234" y2="436.5234"/></g><g><title>User</title><rect fill="#FFFFFF" height="253.7969" style="stroke:#181818;stroke-width:1;" width="10" x="18.9551" y="112.4297"/></g><g><title>KanbanView</title><rect fill="#FFFFFF" height="253.7969" style="stroke:#181818;stroke-width:1;" width="10" x="252.0859" y="112.4297"/></g><g><title>KanbanView</title><rect fill="#FFFFFF" height="28" style="stroke:#181818;stroke-width:1;" width="10" x="257.0859" y="338.2266"/></g><g><title>TaskController</title><rect fill="#FFFFFF" height="224.6641" style="stroke:#181818;stroke-width:1;" width="10" x="634.5054" y="141.5625"/></g><g><title>TASKS</title><rect fill="#FFFFFF" height="101.2656" style="stroke:#181818;stroke-width:1;" width="10" x="883.4209" y="170.6953"/></g><g><title>TASKS</title><rect fill="#FFFFFF" height="28" style="stroke:#181818;stroke-width:1;" width="10" x="888.4209" y="207.8281"/></g><g class="message" data-entity-1="part1" data-entity-2="part2" id="msg1"><polygon fill="#181818" points="240.0859,108.4297,250.0859,112.4297,240.0859,116.4297,244.0859,112.4297" style="stroke:#181818;stroke-width:1;"/><line style="stroke:#181818;stroke-width:1;" x1="28.9551" x2="246.0859" y1="112.4297" y2="112.4297"/><text fill="#000000" font-family="sans-serif" font-size="13" font-weight="bold" lengthAdjust="spacing" textLength="9.0454" x="35.9551" y="107.3638">1</text><text fill="#000000" font-family="sans-serif" font-size="13" lengthAdjust="spacing" textLength="196.0854" x="49.0005" y="107.3638">Drag task card to new column</text></g><g class="message" data-entity-1="part2" data-entity-2="part3" id="msg2"><polygon fill="#181818" points="622.5054,137.5625,632.5054,141.5625,622.5054,145.5625,626.5054,141.5625" style="stroke:#181818;stroke-width:1;"/><line style="stroke:#181818;stroke-width:1;" x1="262.0859" x2="628.5054" y1="141.5625" y2="141.5625"/><text fill="#000000" font-family="sans-serif" font-size="13" font-weight="bold" lengthAdjust="spacing" textLength="9.0454" x="269.0859" y="136.4966">2</text><text fill="#000000" font-family="sans-serif" font-size="13" lengthAdjust="spacing" textLength="340.374" x="282.1313" y="136.4966">Send status update (project_id, task_id, new_status)</text></g><g class="message" data-entity-1="part3" data-entity-2="part5" id="msg3"><polygon fill="#181818" points="871.4209,166.6953,881.4209,170.6953,871.4209,174.6953,875.4209,170.6953" style="stroke:#181818;stroke-width:1;"/><line style="stroke:#181818;stroke-width:1;" x1="644.5054" x2="877.4209" y1="170.6953" y2="170.6953"/><text fill="#000000" font-family="sans-serif" font-size="13" font-weight="bold" lengthAdjust="spacing" textLength="9.0454" x="651.5054" y="165.6294">3</text><text fill="#000000" font-family="sans-serif" font-size="13" lengthAdjust="spacing" textLength="206.8701" x="664.5508" y="165.6294">Update task status and position</text></g><g class="message" data-entity-1="part5" data-entity-2="part5" id="msg4"><line style="stroke:#181818;stroke-width:1;" x1="898.4209" x2="940.4209" y1="199.8281" y2="199.8281"/><line style="stroke:#181818;stroke-width:1;" x1="940.4209" x2="940.4209" y1="199.8281" y2="212.8281"/><line style="stroke:#181818;stroke-width:1;" x1="899.4209" x2="940.4209" y1="212.8281" y2="212.8281"/><polygon fill="#181818" points="909.4209,208.8281,899.4209,212.8281,909.4209,216.8281,905.4209,212.8281" style="stroke:#181818;stroke-width:1;"/><text fill="#000000" font-family="sans-serif" font-size="13" font-weight="bold" lengthAdjust="spacing" textLength="9.0454" x="905.4209" y="194.7622">4</text><text fill="#000000" font-family="sans-serif" font-size="13" lengthAdjust="spacing" textLength="232.8003" x="918.4663" y="194.7622">Update status, position, updated_at</text></g><g class="message" data-entity-1="part5" data-entity-2="part3" id="msg5"><polygon fill="#181818" points="655.5054,267.9609,645.5054,271.9609,655.5054,275.9609,651.5054,271.9609" style="stroke:#181818;stroke-width:1;"/><line style="stroke:#181818;stroke-width:1;stroke-dasharray:2,2;" x1="649.5054" x2="887.4209" y1="271.9609" y2="271.9609"/><text fill="#000000" font-family="sans-serif" font-size="13" font-weight="bold" lengthAdjust="spacing" textLength="9.0454" x="661.5054" y="266.895">5</text><text fill="#000000" font-family="sans-serif" font-size="13" lengthAdjust="spacing" textLength="118.4917" x="674.5508" y="266.895">Update successful</text></g><g class="message" data-entity-1="part3" data-entity-2="part2" id="msg6"><polygon fill="#181818" points="273.0859,297.0938,263.0859,301.0938,273.0859,305.0938,269.0859,301.0938" style="stroke:#181818;stroke-width:1;"/><line style="stroke:#181818;stroke-width:1;stroke-dasharray:2,2;" x1="267.0859" x2="633.5054" y1="301.0938" y2="301.0938"/><text fill="#000000" font-family="sans-serif" font-size="13" font-weight="bold" lengthAdjust="spacing" textLength="9.0454" x="279.0859" y="296.0278">6</text><text fill="#000000" font-family="sans-serif" font-size="13" lengthAdjust="spacing" textLength="129.5684" x="292.1313" y="296.0278">Success notification</text></g><g class="message" data-entity-1="part2" data-entity-2="part2" id="msg7"><line style="stroke:#181818;stroke-width:1;" x1="267.0859" x2="309.0859" y1="330.2266" y2="330.2266"/><line style="stroke:#181818;stroke-width:1;" x1="309.0859" x2="309.0859" y1="330.2266" y2="343.2266"/><line style="stroke:#181818;stroke-width:1;" x1="268.0859" x2="309.0859" y1="343.2266" y2="343.2266"/><polygon fill="#181818" points="278.0859,339.2266,268.0859,343.2266,278.0859,347.2266,274.0859,343.2266" style="stroke:#181818;stroke-width:1;"/><text fill="#000000" font-family="sans-serif" font-size="13" font-weight="bold" lengthAdjust="spacing" textLength="9.0454" x="274.0859" y="325.1606">7</text><text fill="#000000" font-family="sans-serif" font-size="13" lengthAdjust="spacing" textLength="183.2822" x="287.1313" y="325.1606">Confirm card in new column</text></g><?plantuml-src RP7TJW8n48Nl-nHpgGcy034cMhbnGoJGvNOpsnPINLhIJZMylVr1BCQxwSuvNq_FOYHdut7KdZ6Kv3pqGNl003qRNRGA_Hawj2FQdT5VUT7jc7IMl9j0OFZWTPwgIt2cBHawmthpzhhaObWjLy_BpJOlrwkVfNZQTkMJOAo7-ME2Bk35um4e8K6YLq0ERBfHkYaURGvdFf5qodKTKnBMxR9Ty0LijLKG22a6Y2UL1NSdxzwrfC6eMI6N8L67ghl_PQNWJF32Ma1VxINBXOW9VdB1a75D6C74hQMgPrVfx1953KYjJUcMmU5XFcyfKKeTmZvEjyBysgBCpwqQi8xCtaWimIvrv3RJVzaRVwnT6ljlbwd0Xf_hRA_ZVvRDgMVV?></g></svg>