<?plantuml 1.2026.1?><svg xmlns="http://www.w3.org/2000/svg" xmlns:xlink="http://www.w3.org/1999/xlink" contentStyleType="text/css" data-diagram-type="SEQUENCE" height="1290px" preserveAspectRatio="none" style="width:1117px;height:1290px;background:#FFFFFF;" version="1.1" viewBox="0 0 1117 1290" width="1117px" zoomAndPan="magnify"><defs/><g><g><title>User</title><rect fill="#FFFFFF" height="145.5313" style="stroke:#181818;stroke-width:1;" width="10" x="18.9551" y="112.4297"/></g><g><title>JoinProjectView</title><rect fill="#FFFFFF" height="1088.4531" style="stroke:#181818;stroke-width:1;" width="10" x="214.4189" y="112.4297"/></g><g><title>JoinProjectView</title><rect fill="#FFFFFF" height="28" style="stroke:#181818;stroke-width:1;" width="10" x="219.4189" y="164.6953"/></g><g><title>JoinProjectView</title><rect fill="#FFFFFF" height="28" style="stroke:#181818;stroke-width:1;" width="10" x="219.4189" y="295.0938"/></g><g><title>JoinProjectView</title><rect fill="#FFFFFF" height="28" style="stroke:#181818;stroke-width:1;" width="10" x="219.4189" y="391.3594"/></g><g><title>JoinProjectView</title><rect fill="#FFFFFF" height="28" style="stroke:#181818;stroke-width:1;" width="10" x="219.4189" y="683.2891"/></g><g><title>JoinProjectView</title><rect fill="#FFFFFF" height="28" style="stroke:#181818;stroke-width:1;" width="10" x="219.4189" y="873.9531"/></g><g><title>JoinProjectView</title><rect fill="#FFFFFF" height="28" style="stroke:#181818;stroke-width:1;" width="10" x="219.4189" y="1156.8828"/></g><g><title>ProjectController</title><rect fill="#FFFFFF" height="642.125" style="stroke:#181818;stroke-width:1;" width="10" x="498.8667" y="462.4922"/></g><g><title>PROJECT_MEMBERS</title><rect fill="#FFFFFF" height="101.2656" style="stroke:#181818;stroke-width:1;" width="10" x="685.7656" y="974.2188"/></g><g><title>PROJECT_MEMBERS</title><rect fill="#FFFFFF" height="28" style="stroke:#181818;stroke-width:1;" width="10" x="690.7656" y="1011.3516"/></g><g><title>PROJECTS</title><rect fill="#FFFFFF" height="262.7969" style="stroke:#181818;stroke-width:1;" width="10" x="940.4683" y="491.625"/></g><g><title>PROJECTS</title><rect fill="#FFFFFF" height="28" style="stroke:#181818;stroke-width:1;" width="10" x="945.4683" y="528.7578"/></g><rect fill="none" height="89.2656" style="stroke:#000000;stroke-width:1.5;" width="280.0405" x="152.6987" y="345.0938"/><rect fill="none" height="147.5313" style="stroke:#000000;stroke-width:1.5;" width="840.4585" x="152.6987" y="578.7578"/><rect fill="none" height="147.5313" style="stroke:#000000;stroke-width:1.5;" width="619.8467" x="152.6987" y="769.4219"/><g class="participant-lifeline" data-entity-uid="part1" data-qualified-name="U" id="part1-lifeline"><g><title>User</title><rect fill="#000000" fill-opacity="0.00000" height="1128.5859" width="8" x="19.9551" y="81.2969"/><line style="stroke:#181818;stroke-width:0.5;stroke-dasharray:5,5;" x1="23" x2="23" y1="81.2969" y2="1209.8828"/></g></g><g class="participant-lifeline" data-entity-uid="part2" data-qualified-name="JPV" id="part2-lifeline"><g><title>JoinProjectView</title><rect fill="#000000" fill-opacity="0.00000" height="1128.5859" width="8" x="215.4189" y="81.2969"/><line style="stroke:#181818;stroke-width:0.5;stroke-dasharray:5,5;" x1="218.6987" x2="218.6987" y1="81.2969" y2="1209.8828"/></g></g><g class="participant-lifeline" data-entity-uid="part3" data-qualified-name="PC" id="part3-lifeline"><g><title>ProjectController</title><rect fill="#000000" fill-opacity="0.00000" height="1128.5859" width="8" x="499.8667" y="81.2969"/><line style="stroke:#181818;stroke-width:0.5;stroke-dasharray:5,5;" x1="503.0537" x2="503.0537" y1="81.2969" y2="1209.8828"/></g></g><g class="participant-lifeline" data-entity-uid="part4" data-qualified-name="PM" id="part4-lifeline"><g><title>PROJECT_MEMBERS</title><rect fill="#000000" fill-opacity="0.00000" height="1128.5859" width="8" x="686.7656" y="81.2969"/><line style="stroke:#181818;stroke-width:0.5;stroke-dasharray:5,5;" x1="689.9858" x2="689.9858" y1="81.2969" y2="1209.8828"/></g></g><g class="participant-lifeline" data-entity-uid="part5" data-qualified-name="P" id="part5-lifeline"><g><title>PROJECTS</title><rect fill="#000000" fill-opacity="0.00000" height="1128.5859" width="8" x="941.4683" y="81.2969"/><line style="stroke:#181818;stroke-width:0.5;stroke-dasharray:5,5;" x1="944.7793" x2="944.7793" y1="81.2969" y2="1209.8828"/></g></g><g class="participant participant-head" data-entity-uid="part1" data-qualified-name="U" id="part1-head"><text fill="#000000" font-family="sans-serif" font-size="14" lengthAdjust="spacing" textLength="31.9102" x="5" y="77.9951">User</text><ellipse cx="23.9551" cy="13.5" fill="#E2E2F0" rx="8" ry="8" style="stroke:#181818;stroke-width:0.5;"/><path d="M23.9551,21.5 L23.9551,48.5 M10.9551,29.5 L36.9551,29.5 M23.9551,48.5 L10.9551,63.5 M23.9551,48.5 L36.9551,63.5" fill="none" style="stroke:#181818;stroke-width:0.5;"/></g><g class="participant participant-tail" data-entity-uid="part1" data-qualified-name="U" id="part1-tail"><text fill="#000000" font-family="sans-serif" font-size="14" lengthAdjust="spacing" textLength="31.9102" x="5" y="1221.8779">User</text><ellipse cx="23.9551" cy="1233.6797" fill="#E2E2F0" rx="8" ry="8" style="stroke:#181818;stroke-width:0.5;"/><path d="M23.9551,1241.6797 L23.9551,1268.6797 M10.9551,1249.6797 L36.9551,1249.6797 M23.9551,1268.6797 L10.9551,1283.6797 M23.9551,1268.6797 L36.9551,1283.6797" fill="none" style="stroke:#181818;stroke-width:0.5;"/></g><g class="participant participant-head" data-entity-uid="part2" data-qualified-name="JPV" id="part2-head"><text fill="#000000" font-family="sans-serif" font-size="14" lengthAdjust="spacing" textLength="107.4404" x="162.6987" y="77.9951">JoinProjectView</text><path d="M198.9189,37 L198.9189,61 M198.9189,49 L215.9189,49" fill="none" style="stroke:#181818;stroke-width:0.5;"/><ellipse cx="227.9189" cy="49" fill="#E2E2F0" rx="12" ry="12" style="stroke:#181818;stroke-width:0.5;"/></g><g class="participant participant-tail" data-entity-uid="part2" data-qualified-name="JPV" id="part2-tail"><text fill="#000000" font-family="sans-serif" font-size="14" lengthAdjust="spacing" textLength="107.4404" x="162.6987" y="1221.8779">JoinProjectView</text><path d="M198.9189,1229.1797 L198.9189,1253.1797 M198.9189,1241.1797 L215.9189,1241.1797" fill="none" style="stroke:#181818;stroke-width:0.5;"/><ellipse cx="227.9189" cy="1241.1797" fill="#E2E2F0" rx="12" ry="12" style="stroke:#181818;stroke-width:0.5;"/></g><g class="participant participant-head" data-entity-uid="part3" data-qualified-name="PC" id="part3-head"><text fill="#000000" font-family="sans-serif" font-size="14" lengthAdjust="spacing" textLength="117.626" x="442.0537" y="77.9951">ProjectController</text><ellipse cx="503.8667" cy="49" fill="#E2E2F0" rx="12" ry="12" style="stroke:#181818;stroke-width:0.5;"/><polygon fill="#181818" points="499.8667,37,505.8667,32,503.8667,37,505.8667,42,499.8667,37" style="stroke:#181818;stroke-width:1;"/></g><g class="participant participant-tail" data-entity-uid="part3" data-qualified-name="PC" id="part3-tail"><text fill="#000000" font-family="sans-serif" font-size="14" lengthAdjust="spacing" textLength="117.626" x="442.0537" y="1221.8779">ProjectController</text><ellipse cx="503.8667" cy="1241.1797" fill="#E2E2F0" rx="12" ry="12" style="stroke:#181818;stroke-width:0.5;"/><polygon fill="#181818" points="499.8667,1229.1797,505.8667,1224.1797,503.8667,1229.1797,505.8667,1234.1797,499.8667,1229.1797" style="stroke:#181818;stroke-width:1;"/></g><g class="participant participant-head" data-entity-uid="part4" data-qualified-name="PM" id="part4-head"><text fill="#000000" font-family="sans-serif" font-size="14" lengthAdjust="spacing" textLength="137.5596" x="618.9858" y="77.9951">PROJECT_MEMBERS</text><ellipse cx="690.7656" cy="49" fill="#E2E2F0" rx="12" ry="12" style="stroke:#181818;stroke-width:0.5;"/><line style="stroke:#181818;stroke-width:0.5;" x1="678.7656" x2="702.7656" y1="63" y2="63"/></g><g class="participant participant-tail" data-entity-uid="part4" data-qualified-name="PM" id="part4-tail"><text fill="#000000" font-family="sans-serif" font-size="14" lengthAdjust="spacing" textLength="137.5596" x="618.9858" y="1221.8779">PROJECT_MEMBERS</text><ellipse cx="690.7656" cy="1241.1797" fill="#E2E2F0" rx="12" ry="12" style="stroke:#181818;stroke-width:0.5;"/><line style="stroke:#181818;stroke-width:0.5;" x1="678.7656" x2="702.7656" y1="1255.1797" y2="1255.1797"/></g><g class="participant participant-head" data-entity-uid="part5" data-qualified-name="P" id="part5-head"><text fill="#000000" font-family="sans-serif" font-size="14" lengthAdjust="spacing" textLength="69.3779" x="907.7793" y="77.9951">PROJECTS</text><ellipse cx="945.4683" cy="49" fill="#E2E2F0" rx="12" ry="12" style="stroke:#181818;stroke-width:0.5;"/><line style="stroke:#181818;stroke-width:0.5;" x1="933.4683" x2="957.4683" y1="63" y2="63"/></g><g class="participant participant-tail" data-entity-uid="part5" data-qualified-name="P" id="part5-tail"><text fill="#000000" font-family="sans-serif" font-size="14" lengthAdjust="spacing" textLength="69.3779" x="907.7793" y="1221.8779">PROJECTS</text><ellipse cx="945.4683" cy="1241.1797" fill="#E2E2F0" rx="12" ry="12" style="stroke:#181818;stroke-width:0.5;"/><line style="stroke:#181818;stroke-width:0.5;" x1="933.4683" x2="957.4683" y1="1255.1797" y2="1255.1797"/></g><g><title>User</title><rect fill="#FFFFFF" height="145.5313" style="stroke:#181818;stroke-width:1;" width="10" x="18.9551" y="112.4297"/></g><g><title>JoinProjectView</title><rect fill="#FFFFFF" height="1088.4531" style="stroke:#181818;stroke-width:1;" width="10" x="214.4189" y="112.4297"/></g><g><title>JoinProjectView</title><rect fill="#FFFFFF" height="28" style="stroke:#181818;stroke-width:1;" width="10" x="219.4189" y="164.6953"/></g><g><title>JoinProjectView</title><rect fill="#FFFFFF" height="28" style="stroke:#181818;stroke-width:1;" width="10" x="219.4189" y="295.0938"/></g><g><title>JoinProjectView</title><rect fill="#FFFFFF" height="28" style="stroke:#181818;stroke-width:1;" width="10" x="219.4189" y="391.3594"/></g><g><title>JoinProjectView</title><rect fill="#FFFFFF" height="28" style="stroke:#181818;stroke-width:1;" width="10" x="219.4189" y="683.2891"/></g><g><title>JoinProjectView</title><rect fill="#FFFFFF" height="28" style="stroke:#181818;stroke-width:1;" width="10" x="219.4189" y="873.9531"/></g><g><title>JoinProjectView</title><rect fill="#FFFFFF" height="28" style="stroke:#181818;stroke-width:1;" width="10" x="219.4189" y="1156.8828"/></g><g><title>ProjectController</title><rect fill="#FFFFFF" height="642.125" style="stroke:#181818;stroke-width:1;" width="10" x="498.8667" y="462.4922"/></g><g><title>PROJECT_MEMBERS</title><rect fill="#FFFFFF" height="101.2656" style="stroke:#181818;stroke-width:1;" width="10" x="685.7656" y="974.2188"/></g><g><title>PROJECT_MEMBERS</title><rect fill="#FFFFFF" height="28" style="stroke:#181818;stroke-width:1;" width="10" x="690.7656" y="1011.3516"/></g><g><title>PROJECTS</title><rect fill="#FFFFFF" height="262.7969" style="stroke:#181818;stroke-width:1;" width="10" x="940.4683" y="491.625"/></g><g><title>PROJECTS</title><rect fill="#FFFFFF" height="28" style="stroke:#181818;stroke-width:1;" width="10" x="945.4683" y="528.7578"/></g><g class="message" data-entity-1="part1" data-entity-2="part2" id="msg1"><polygon fill="#181818" points="202.4189,108.4297,212.4189,112.4297,202.4189,116.4297,206.4189,112.4297" style="stroke:#181818;stroke-width:1;"/><line style="stroke:#181818;stroke-width:1;" x1="28.9551" x2="208.4189" y1="112.4297" y2="112.4297"/><text fill="#000000" font-family="sans-serif" font-size="13" font-weight="bold" lengthAdjust="spacing" textLength="9.0454" x="35.9551" y="107.3638">1</text><text fill="#000000" font-family="sans-serif" font-size="13" lengthAdjust="spacing" textLength="158.4185" x="49.0005" y="107.3638">Access join project page</text></g><g class="message" data-entity-1="part2" data-entity-2="part2" id="msg2"><line style="stroke:#181818;stroke-width:1;" x1="229.4189" x2="271.4189" y1="156.6953" y2="156.6953"/><line style="stroke:#181818;stroke-width:1;" x1="271.4189" x2="271.4189" y1="156.6953" y2="169.6953"/><line style="stroke:#181818;stroke-width:1;" x1="230.4189" x2="271.4189" y1="169.6953" y2="169.6953"/><polygon fill="#181818" points="240.4189,165.6953,230.4189,169.6953,240.4189,173.6953,236.4189,169.6953" style="stroke:#181818;stroke-width:1;"/><text fill="#000000" font-family="sans-serif" font-size="13" font-weight="bold" lengthAdjust="spacing" textLength="9.0454" x="236.4189" y="144.063">2</text><text fill="#000000" font-family="sans-serif" font-size="13" lengthAdjust="spacing" textLength="82.5894" x="249.4644" y="136.4966">Display form</text><text fill="#000000" font-family="sans-serif" font-size="13" lengthAdjust="spacing" textLength="214.7793" x="249.4644" y="151.6294">(enter invite link or project code)</text></g><g class="message" data-entity-1="part1" data-entity-2="part2" id="msg3"><polygon fill="#181818" points="202.4189,224.8281,212.4189,228.8281,202.4189,232.8281,206.4189,228.8281" style="stroke:#181818;stroke-width:1;"/><line style="stroke:#181818;stroke-width:1;" x1="28.9551" x2="208.4189" y1="228.8281" y2="228.8281"/><text fill="#000000" font-family="sans-serif" font-size="13" font-weight="bold" lengthAdjust="spacing" textLength="9.0454" x="35.9551" y="223.7622">3</text><text fill="#000000" font-family="sans-serif" font-size="13" lengthAdjust="spacing" textLength="138.1313" x="49.0005" y="223.7622">Enter invite link/code</text></g><g class="message" data-entity-1="part1" data-entity-2="part2" id="msg4"><polygon fill="#181818" points="202.4189,253.9609,212.4189,257.9609,202.4189,261.9609,206.4189,257.9609" style="stroke:#181818;stroke-width:1;"/><line style="stroke:#181818;stroke-width:1;" x1="23.9551" x2="208.4189" y1="257.9609" y2="257.9609"/><text fill="#000000" font-family="sans-serif" font-size="13" font-weight="bold" lengthAdjust="spacing" textLength="9.0454" x="30.9551" y="252.895">4</text><text fill="#000000" font-family="sans-serif" font-size="13" lengthAdjust="spacing" textLength="70.7065" x="44.0005" y="252.895">Click "Join"</text></g><g class="message" data-entity-1="part2" data-entity-2="part2" id="msg5"><line style="stroke:#181818;stroke-width:1;" x1="229.4189" x2="271.4189" y1="287.0938" y2="287.0938"/><line style="stroke:#181818;stroke-width:1;" x1="271.4189" x2="271.4189" y1="287.0938" y2="300.0938"/><line style="stroke:#181818;stroke-width:1;" x1="230.4189" x2="271.4189" y1="300.0938" y2="300.0938"/><polygon fill="#181818" points="240.4189,296.0938,230.4189,300.0938,240.4189,304.0938,236.4189,300.0938" style="stroke:#181818;stroke-width:1;"/><text fill="#000000" font-family="sans-serif" font-size="13" font-weight="bold" lengthAdjust="spacing" textLength="9.0454" x="236.4189" y="282.0278">5</text><text fill="#000000" font-family="sans-serif" font-size="13" lengthAdjust="spacing" textLength="90.9683" x="249.4644" y="282.0278">Validate input</text></g><path d="M152.6987,345.0938 L239.6504,345.0938 L239.6504,352.2266 L229.6504,362.2266 L152.6987,362.2266 L152.6987,345.0938" fill="#EEEEEE" style="stroke:#000000;stroke-width:1.5;"/><rect fill="none" height="89.2656" style="stroke:#000000;stroke-width:1.5;" width="280.0405" x="152.6987" y="345.0938"/><text fill="#000000" font-family="sans-serif" font-size="13" font-weight="bold" lengthAdjust="spacing" textLength="41.9517" x="167.6987" y="358.1606">break</text><text fill="#000000" font-family="sans-serif" font-size="11" font-weight="bold" lengthAdjust="spacing" textLength="88.3813" x="254.6504" y="357.3042">[Invalid input]</text><g class="message" data-entity-1="part2" data-entity-2="part2" id="msg6"><line style="stroke:#181818;stroke-width:1;" x1="229.4189" x2="271.4189" y1="383.3594" y2="383.3594"/><line style="stroke:#181818;stroke-width:1;" x1="271.4189" x2="271.4189" y1="383.3594" y2="396.3594"/><line style="stroke:#181818;stroke-width:1;" x1="230.4189" x2="271.4189" y1="396.3594" y2="396.3594"/><polygon fill="#181818" points="240.4189,392.3594,230.4189,396.3594,240.4189,400.3594,236.4189,396.3594" style="stroke:#181818;stroke-width:1;"/><text fill="#000000" font-family="sans-serif" font-size="13" font-weight="bold" lengthAdjust="spacing" textLength="9.0454" x="236.4189" y="378.2935">6</text><text fill="#000000" font-family="sans-serif" font-size="13" lengthAdjust="spacing" textLength="161.2749" x="249.4644" y="378.2935">Display error notification</text></g><g class="message" data-entity-1="part2" data-entity-2="part3" id="msg7"><polygon fill="#181818" points="486.8667,458.4922,496.8667,462.4922,486.8667,466.4922,490.8667,462.4922" style="stroke:#181818;stroke-width:1;"/><line style="stroke:#181818;stroke-width:1;" x1="224.4189" x2="492.8667" y1="462.4922" y2="462.4922"/><text fill="#000000" font-family="sans-serif" font-size="13" font-weight="bold" lengthAdjust="spacing" textLength="9.0454" x="231.4189" y="457.4263">7</text><text fill="#000000" font-family="sans-serif" font-size="13" lengthAdjust="spacing" textLength="114.1245" x="244.4644" y="457.4263">Send join request</text></g><g class="message" data-entity-1="part3" data-entity-2="part5" id="msg8"><polygon fill="#181818" points="928.4683,487.625,938.4683,491.625,928.4683,495.625,932.4683,491.625" style="stroke:#181818;stroke-width:1;"/><line style="stroke:#181818;stroke-width:1;" x1="508.8667" x2="934.4683" y1="491.625" y2="491.625"/><text fill="#000000" font-family="sans-serif" font-size="13" font-weight="bold" lengthAdjust="spacing" textLength="9.0454" x="515.8667" y="486.5591">8</text><text fill="#000000" font-family="sans-serif" font-size="13" lengthAdjust="spacing" textLength="165.7881" x="528.9121" y="486.5591">Validate project code/link</text></g><g class="message" data-entity-1="part5" data-entity-2="part5" id="msg9"><line style="stroke:#181818;stroke-width:1;" x1="955.4683" x2="997.4683" y1="520.7578" y2="520.7578"/><line style="stroke:#181818;stroke-width:1;" x1="997.4683" x2="997.4683" y1="520.7578" y2="533.7578"/><line style="stroke:#181818;stroke-width:1;" x1="956.4683" x2="997.4683" y1="533.7578" y2="533.7578"/><polygon fill="#181818" points="966.4683,529.7578,956.4683,533.7578,966.4683,537.7578,962.4683,533.7578" style="stroke:#181818;stroke-width:1;"/><text fill="#000000" font-family="sans-serif" font-size="13" font-weight="bold" lengthAdjust="spacing" textLength="9.0454" x="962.4683" y="515.6919">9</text><text fill="#000000" font-family="sans-serif" font-size="13" lengthAdjust="spacing" textLength="135.4526" x="975.5137" y="515.6919">Query by invite code</text></g><path d="M152.6987,578.7578 L239.6504,578.7578 L239.6504,585.8906 L229.6504,595.8906 L152.6987,595.8906 L152.6987,578.7578" fill="#EEEEEE" style="stroke:#000000;stroke-width:1.5;"/><rect fill="none" height="147.5313" style="stroke:#000000;stroke-width:1.5;" width="840.4585" x="152.6987" y="578.7578"/><text fill="#000000" font-family="sans-serif" font-size="13" font-weight="bold" lengthAdjust="spacing" textLength="41.9517" x="167.6987" y="591.8247">break</text><text fill="#000000" font-family="sans-serif" font-size="11" font-weight="bold" lengthAdjust="spacing" textLength="85.2285" x="254.6504" y="590.9683">[Invalid code]</text><g class="message" data-entity-1="part5" data-entity-2="part3" id="msg10"><polygon fill="#181818" points="519.8667,613.0234,509.8667,617.0234,519.8667,621.0234,515.8667,617.0234" style="stroke:#181818;stroke-width:1;"/><line style="stroke:#181818;stroke-width:1;stroke-dasharray:2,2;" x1="513.8667" x2="939.4683" y1="617.0234" y2="617.0234"/><text fill="#000000" font-family="sans-serif" font-size="13" font-weight="bold" lengthAdjust="spacing" textLength="18.0908" x="525.8667" y="611.9575">10</text><text fill="#000000" font-family="sans-serif" font-size="13" lengthAdjust="spacing" textLength="64.1685" x="547.9575" y="611.9575">Not found</text></g><g class="message" data-entity-1="part3" data-entity-2="part2" id="msg11"><polygon fill="#181818" points="235.4189,642.1563,225.4189,646.1563,235.4189,650.1563,231.4189,646.1563" style="stroke:#181818;stroke-width:1;"/><line style="stroke:#181818;stroke-width:1;stroke-dasharray:2,2;" x1="229.4189" x2="497.8667" y1="646.1563" y2="646.1563"/><text fill="#000000" font-family="sans-serif" font-size="13" font-weight="bold" lengthAdjust="spacing" textLength="18.0908" x="241.4189" y="641.0903">11</text><text fill="#000000" font-family="sans-serif" font-size="13" lengthAdjust="spacing" textLength="109.4399" x="263.5098" y="641.0903">Error notification</text></g><g class="message" data-entity-1="part2" data-entity-2="part2" id="msg12"><line style="stroke:#181818;stroke-width:1;" x1="229.4189" x2="271.4189" y1="675.2891" y2="675.2891"/><line style="stroke:#181818;stroke-width:1;" x1="271.4189" x2="271.4189" y1="675.2891" y2="688.2891"/><line style="stroke:#181818;stroke-width:1;" x1="230.4189" x2="271.4189" y1="688.2891" y2="688.2891"/><polygon fill="#181818" points="240.4189,684.2891,230.4189,688.2891,240.4189,692.2891,236.4189,688.2891" style="stroke:#181818;stroke-width:1;"/><text fill="#000000" font-family="sans-serif" font-size="13" font-weight="bold" lengthAdjust="spacing" textLength="18.0908" x="236.4189" y="670.2231">12</text><text fill="#000000" font-family="sans-serif" font-size="13" lengthAdjust="spacing" textLength="228.3569" x="258.5098" y="670.2231">Display "Invalid project code" error</text></g><g class="message" data-entity-1="part5" data-entity-2="part3" id="msg13"><polygon fill="#181818" points="519.8667,750.4219,509.8667,754.4219,519.8667,758.4219,515.8667,754.4219" style="stroke:#181818;stroke-width:1;"/><line style="stroke:#181818;stroke-width:1;stroke-dasharray:2,2;" x1="513.8667" x2="944.4683" y1="754.4219" y2="754.4219"/><text fill="#000000" font-family="sans-serif" font-size="13" font-weight="bold" lengthAdjust="spacing" textLength="18.0908" x="525.8667" y="749.356">13</text><text fill="#000000" font-family="sans-serif" font-size="13" lengthAdjust="spacing" textLength="86.3853" x="547.9575" y="749.356">Project found</text></g><path d="M152.6987,769.4219 L239.6504,769.4219 L239.6504,776.5547 L229.6504,786.5547 L152.6987,786.5547 L152.6987,769.4219" fill="#EEEEEE" style="stroke:#000000;stroke-width:1.5;"/><rect fill="none" height="147.5313" style="stroke:#000000;stroke-width:1.5;" width="619.8467" x="152.6987" y="769.4219"/><text fill="#000000" font-family="sans-serif" font-size="13" font-weight="bold" lengthAdjust="spacing" textLength="41.9517" x="167.6987" y="782.4888">break</text><text fill="#000000" font-family="sans-serif" font-size="11" font-weight="bold" lengthAdjust="spacing" textLength="123.9165" x="254.6504" y="781.6323">[Already a member]</text><g class="message" data-entity-1="part4" data-entity-2="part3" id="msg14"><polygon fill="#181818" points="519.8667,803.6875,509.8667,807.6875,519.8667,811.6875,515.8667,807.6875" style="stroke:#181818;stroke-width:1;"/><line style="stroke:#181818;stroke-width:1;stroke-dasharray:2,2;" x1="513.8667" x2="689.7656" y1="807.6875" y2="807.6875"/><text fill="#000000" font-family="sans-serif" font-size="13" font-weight="bold" lengthAdjust="spacing" textLength="18.0908" x="525.8667" y="802.6216">14</text><text fill="#000000" font-family="sans-serif" font-size="13" lengthAdjust="spacing" textLength="91.8379" x="547.9575" y="802.6216">Already exists</text></g><g class="message" data-entity-1="part3" data-entity-2="part2" id="msg15"><polygon fill="#181818" points="235.4189,832.8203,225.4189,836.8203,235.4189,840.8203,231.4189,836.8203" style="stroke:#181818;stroke-width:1;"/><line style="stroke:#181818;stroke-width:1;stroke-dasharray:2,2;" x1="229.4189" x2="497.8667" y1="836.8203" y2="836.8203"/><text fill="#000000" font-family="sans-serif" font-size="13" font-weight="bold" lengthAdjust="spacing" textLength="18.0908" x="241.4189" y="831.7544">15</text><text fill="#000000" font-family="sans-serif" font-size="13" lengthAdjust="spacing" textLength="109.4399" x="263.5098" y="831.7544">Error notification</text></g><g class="message" data-entity-1="part2" data-entity-2="part2" id="msg16"><line style="stroke:#181818;stroke-width:1;" x1="229.4189" x2="271.4189" y1="865.9531" y2="865.9531"/><line style="stroke:#181818;stroke-width:1;" x1="271.4189" x2="271.4189" y1="865.9531" y2="878.9531"/><line style="stroke:#181818;stroke-width:1;" x1="230.4189" x2="271.4189" y1="878.9531" y2="878.9531"/><polygon fill="#181818" points="240.4189,874.9531,230.4189,878.9531,240.4189,882.9531,236.4189,878.9531" style="stroke:#181818;stroke-width:1;"/><text fill="#000000" font-family="sans-serif" font-size="13" font-weight="bold" lengthAdjust="spacing" textLength="18.0908" x="236.4189" y="860.8872">16</text><text fill="#000000" font-family="sans-serif" font-size="13" lengthAdjust="spacing" textLength="221.0381" x="258.5098" y="860.8872">Display "Already a member" error</text></g><g class="message" data-entity-1="part4" data-entity-2="part3" id="msg17"><polygon fill="#181818" points="519.8667,941.0859,509.8667,945.0859,519.8667,949.0859,515.8667,945.0859" style="stroke:#181818;stroke-width:1;"/><line style="stroke:#181818;stroke-width:1;stroke-dasharray:2,2;" x1="513.8667" x2="689.7656" y1="945.0859" y2="945.0859"/><text fill="#000000" font-family="sans-serif" font-size="13" font-weight="bold" lengthAdjust="spacing" textLength="18.0908" x="525.8667" y="940.02">17</text><text fill="#000000" font-family="sans-serif" font-size="13" lengthAdjust="spacing" textLength="93.9263" x="547.9575" y="940.02">Not a member</text></g><g class="message" data-entity-1="part3" data-entity-2="part4" id="msg18"><polygon fill="#181818" points="673.7656,970.2188,683.7656,974.2188,673.7656,978.2188,677.7656,974.2188" style="stroke:#181818;stroke-width:1;"/><line style="stroke:#181818;stroke-width:1;" x1="508.8667" x2="679.7656" y1="974.2188" y2="974.2188"/><text fill="#000000" font-family="sans-serif" font-size="13" font-weight="bold" lengthAdjust="spacing" textLength="18.0908" x="515.8667" y="969.1528">18</text><text fill="#000000" font-family="sans-serif" font-size="13" lengthAdjust="spacing" textLength="135.8081" x="537.9575" y="969.1528">Add user as member</text></g><g class="message" data-entity-1="part4" data-entity-2="part4" id="msg19"><line style="stroke:#181818;stroke-width:1;" x1="700.7656" x2="742.7656" y1="1003.3516" y2="1003.3516"/><line style="stroke:#181818;stroke-width:1;" x1="742.7656" x2="742.7656" y1="1003.3516" y2="1016.3516"/><line style="stroke:#181818;stroke-width:1;" x1="701.7656" x2="742.7656" y1="1016.3516" y2="1016.3516"/><polygon fill="#181818" points="711.7656,1012.3516,701.7656,1016.3516,711.7656,1020.3516,707.7656,1016.3516" style="stroke:#181818;stroke-width:1;"/><text fill="#000000" font-family="sans-serif" font-size="13" font-weight="bold" lengthAdjust="spacing" textLength="18.0908" x="707.7656" y="998.2856">19</text><text fill="#000000" font-family="sans-serif" font-size="13" lengthAdjust="spacing" textLength="198.6118" x="729.8564" y="998.2856">Insert record (role = MEMBER)</text></g><g class="message" data-entity-1="part4" data-entity-2="part3" id="msg20"><polygon fill="#181818" points="519.8667,1071.4844,509.8667,1075.4844,519.8667,1079.4844,515.8667,1075.4844" style="stroke:#181818;stroke-width:1;"/><line style="stroke:#181818;stroke-width:1;stroke-dasharray:2,2;" x1="513.8667" x2="689.7656" y1="1075.4844" y2="1075.4844"/><text fill="#000000" font-family="sans-serif" font-size="13" font-weight="bold" lengthAdjust="spacing" textLength="18.0908" x="525.8667" y="1070.4185">20</text><text fill="#000000" font-family="sans-serif" font-size="13" lengthAdjust="spacing" textLength="52.3301" x="547.9575" y="1070.4185">Success</text></g><g class="message" data-entity-1="part3" data-entity-2="part2" id="msg21"><polygon fill="#181818" points="235.4189,1100.6172,225.4189,1104.6172,235.4189,1108.6172,231.4189,1104.6172" style="stroke:#181818;stroke-width:1;"/><line style="stroke:#181818;stroke-width:1;stroke-dasharray:2,2;" x1="229.4189" x2="502.8667" y1="1104.6172" y2="1104.6172"/><text fill="#000000" font-family="sans-serif" font-size="13" font-weight="bold" lengthAdjust="spacing" textLength="18.0908" x="241.4189" y="1099.5513">21</text><text fill="#000000" font-family="sans-serif" font-size="13" lengthAdjust="spacing" textLength="129.5684" x="263.5098" y="1099.5513">Success notification</text></g><g class="message" data-entity-1="part2" data-entity-2="part2" id="msg22"><line style="stroke:#181818;stroke-width:1;" x1="229.4189" x2="271.4189" y1="1148.8828" y2="1148.8828"/><line style="stroke:#181818;stroke-width:1;" x1="271.4189" x2="271.4189" y1="1148.8828" y2="1161.8828"/><line style="stroke:#181818;stroke-width:1;" x1="230.4189" x2="271.4189" y1="1161.8828" y2="1161.8828"/><polygon fill="#181818" points="240.4189,1157.8828,230.4189,1161.8828,240.4189,1165.8828,236.4189,1161.8828" style="stroke:#181818;stroke-width:1;"/><text fill="#000000" font-family="sans-serif" font-size="13" font-weight="bold" lengthAdjust="spacing" textLength="18.0908" x="236.4189" y="1136.2505">22</text><text fill="#000000" font-family="sans-serif" font-size="13" lengthAdjust="spacing" textLength="131.4917" x="258.5098" y="1128.6841">Display success and</text><text fill="#000000" font-family="sans-serif" font-size="13" lengthAdjust="spacing" textLength="154.1147" x="258.5098" y="1143.8169">redirect to project page</text></g><?plantuml-src dLJ1Rjim3BthAuYSsaFGUx0Dw5mV6i2RsYmv5IWKYHtKE58goTdyzwDiEPKDRnXwC6oBZ-HxJn954wnfZdjqZ0aPh8EjHmV2mvRjRMEKS2sihJRSsLUKOQVnLuok-Ov9QuApDQHGqV_MVJel69gWGmlyyVkwB7uyLsNrjNpSTC5g4knN6Tl2yakilO9RAT5xUANMSEeRm4dynCXIdqL08dZvZ6pekIJVQN-gHGilrXsVp1Nr8bBQd3LXQsqEG3g7ej8gl1wNKZZwpLYLqqetCJq35BMM1rX4nnPvdUs8tqxKMiLbRKvD-7VplKDnW7jpZZaf0M1EBJf7kemD-aLB4RGr11mL0vXKHwFOm8mNAzZGGk-vmxS6VSQDDfGN7IxZdvju4_t8y8mdz4E3T8ZsxU1RPrc6opZngTuE2zGSFYsNiTWt6sXRwM0c4xfbObxEYPzpQJ6KphalUlF-pwztCkda9q9pEcvhUgaM11onksNlMghL9Og_jG_-mugcJJwafkgzlH3DrLHisFj8MYbeqf18s1p9gm5uRmWLw2H9wnHSqMn0-0pz6BWUvOnxPOmsJJS6fcHocn9aR5IEBsP7WqzfmgWdur1f5pSosByCcvcR-GS0?></g></svg>