<?plantuml 1.2026.1?><svg xmlns="http://www.w3.org/2000/svg" xmlns:xlink="http://www.w3.org/1999/xlink" contentStyleType="text/css" data-diagram-type="SEQUENCE" height="487px" preserveAspectRatio="none" style="width:888px;height:487px;background:#FFFFFF;" version="1.1" viewBox="0 0 888 487" width="888px" zoomAndPan="magnify"><defs/><g><g><title>User</title><rect fill="#FFFFFF" height="268.9297" style="stroke:#181818;stroke-width:1;" width="10" x="18.9551" y="112.4297"/></g><g><title>ChatView</title><rect fill="#FFFFFF" height="268.9297" style="stroke:#181818;stroke-width:1;" width="10" x="165.9355" y="112.4297"/></g><g><title>ChatView</title><rect fill="#FFFFFF" height="28" style="stroke:#181818;stroke-width:1;" width="10" x="170.9355" y="353.3594"/></g><g><title>AIChatController</title><rect fill="#FFFFFF" height="159.5313" style="stroke:#181818;stroke-width:1;" width="10" x="392.772" y="141.5625"/></g><g><title>CHAT_SESSIONS</title><rect fill="#FFFFFF" height="101.2656" style="stroke:#181818;stroke-width:1;" width="10" x="591.063" y="170.6953"/></g><g><title>CHAT_SESSIONS</title><rect fill="#FFFFFF" height="28" style="stroke:#181818;stroke-width:1;" width="10" x="596.063" y="207.8281"/></g><g class="participant-lifeline" data-entity-uid="part1" data-qualified-name="U" id="part1-lifeline"><g><title>User</title><rect fill="#000000" fill-opacity="0.00000" height="325.0625" width="8" x="19.9551" y="81.2969"/><line style="stroke:#181818;stroke-width:0.5;stroke-dasharray:5,5;" x1="23" x2="23" y1="81.2969" y2="406.3594"/></g></g><g class="participant-lifeline" data-entity-uid="part2" data-qualified-name="CV" id="part2-lifeline"><g><title>ChatView</title><rect fill="#000000" fill-opacity="0.00000" height="325.0625" width="8" x="166.9355" y="81.2969"/><line style="stroke:#181818;stroke-width:0.5;stroke-dasharray:5,5;" x1="170.812" x2="170.812" y1="81.2969" y2="406.3594"/></g></g><g class="participant-lifeline" data-entity-uid="part3" data-qualified-name="ACC" id="part3-lifeline"><g><title>AIChatController</title><rect fill="#000000" fill-opacity="0.00000" height="325.0625" width="8" x="393.772" y="81.2969"/><line style="stroke:#181818;stroke-width:0.5;stroke-dasharray:5,5;" x1="396.9741" x2="396.9741" y1="81.2969" y2="406.3594"/></g></g><g class="participant-lifeline" data-entity-uid="part4" data-qualified-name="CS" id="part4-lifeline"><g><title>CHAT_SESSIONS</title><rect fill="#000000" fill-opacity="0.00000" height="325.0625" width="8" x="592.063" y="81.2969"/><line style="stroke:#181818;stroke-width:0.5;stroke-dasharray:5,5;" x1="595.3403" x2="595.3403" y1="81.2969" y2="406.3594"/></g></g><g class="participant participant-head" data-entity-uid="part1" data-qualified-name="U" id="part1-head"><text fill="#000000" font-family="sans-serif" font-size="16" lengthAdjust="spacing" textLength="31.9102" x="5" y="77.9951">User</text><ellipse cx="23.9551" cy="13.5" fill="#E2E2F0" rx="8" ry="8" style="stroke:#181818;stroke-width:0.5;"/><path d="M23.9551,21.5 L23.9551,48.5 M10.9551,29.5 L36.9551,29.5 M23.9551,48.5 L10.9551,63.5 M23.9551,48.5 L36.9551,63.5" fill="none" style="stroke:#181818;stroke-width:0.5;"/></g><g class="participant participant-tail" data-entity-uid="part1" data-qualified-name="U" id="part1-tail"><text fill="#000000" font-family="sans-serif" font-size="16" lengthAdjust="spacing" textLength="31.9102" x="5" y="418.3545">User</text><ellipse cx="23.9551" cy="430.1563" fill="#E2E2F0" rx="8" ry="8" style="stroke:#181818;stroke-width:0.5;"/><path d="M23.9551,438.1563 L23.9551,465.1563 M10.9551,446.1563 L36.9551,446.1563 M23.9551,465.1563 L10.9551,480.1563 M23.9551,465.1563 L36.9551,480.1563" fill="none" style="stroke:#181818;stroke-width:0.5;"/></g><g class="participant participant-head" data-entity-uid="part2" data-qualified-name="CV" id="part2-head"><text fill="#000000" font-family="sans-serif" font-size="16" lengthAdjust="spacing" textLength="66.2471" x="134.812" y="77.9951">ChatView</text><path d="M150.4355,37 L150.4355,61 M150.4355,49 L167.4355,49" fill="none" style="stroke:#181818;stroke-width:0.5;"/><ellipse cx="179.4355" cy="49" fill="#E2E2F0" rx="12" ry="12" style="stroke:#181818;stroke-width:0.5;"/></g><g class="participant participant-tail" data-entity-uid="part2" data-qualified-name="CV" id="part2-tail"><text fill="#000000" font-family="sans-serif" font-size="16" lengthAdjust="spacing" textLength="66.2471" x="134.812" y="418.3545">ChatView</text><path d="M150.4355,425.6563 L150.4355,449.6563 M150.4355,437.6563 L167.4355,437.6563" fill="none" style="stroke:#181818;stroke-width:0.5;"/><ellipse cx="179.4355" cy="437.6563" fill="#E2E2F0" rx="12" ry="12" style="stroke:#181818;stroke-width:0.5;"/></g><g class="participant participant-head" data-entity-uid="part3" data-qualified-name="ACC" id="part3-head"><text fill="#000000" font-family="sans-serif" font-size="16" lengthAdjust="spacing" textLength="115.5957" x="336.9741" y="77.9951">AIChatController</text><ellipse cx="397.772" cy="49" fill="#E2E2F0" rx="12" ry="12" style="stroke:#181818;stroke-width:0.5;"/><polygon fill="#181818" points="393.772,37,399.772,32,397.772,37,399.772,42,393.772,37" style="stroke:#181818;stroke-width:1;"/></g><g class="participant participant-tail" data-entity-uid="part3" data-qualified-name="ACC" id="part3-tail"><text fill="#000000" font-family="sans-serif" font-size="16" lengthAdjust="spacing" textLength="115.5957" x="336.9741" y="418.3545">AIChatController</text><ellipse cx="397.772" cy="437.6563" fill="#E2E2F0" rx="12" ry="12" style="stroke:#181818;stroke-width:0.5;"/><polygon fill="#181818" points="393.772,425.6563,399.772,420.6563,397.772,425.6563,399.772,430.6563,393.772,425.6563" style="stroke:#181818;stroke-width:1;"/></g><g class="participant participant-head" data-entity-uid="part4" data-qualified-name="CS" id="part4-head"><text fill="#000000" font-family="sans-serif" font-size="16" lengthAdjust="spacing" textLength="115.4453" x="535.3403" y="77.9951">CHAT_SESSIONS</text><ellipse cx="596.063" cy="49" fill="#E2E2F0" rx="12" ry="12" style="stroke:#181818;stroke-width:0.5;"/><line style="stroke:#181818;stroke-width:0.5;" x1="584.063" x2="608.063" y1="63" y2="63"/></g><g class="participant participant-tail" data-entity-uid="part4" data-qualified-name="CS" id="part4-tail"><text fill="#000000" font-family="sans-serif" font-size="16" lengthAdjust="spacing" textLength="115.4453" x="535.3403" y="418.3545">CHAT_SESSIONS</text><ellipse cx="596.063" cy="437.6563" fill="#E2E2F0" rx="12" ry="12" style="stroke:#181818;stroke-width:0.5;"/><line style="stroke:#181818;stroke-width:0.5;" x1="584.063" x2="608.063" y1="451.6563" y2="451.6563"/></g><g><title>User</title><rect fill="#FFFFFF" height="268.9297" style="stroke:#181818;stroke-width:1;" width="10" x="18.9551" y="112.4297"/></g><g><title>ChatView</title><rect fill="#FFFFFF" height="268.9297" style="stroke:#181818;stroke-width:1;" width="10" x="165.9355" y="112.4297"/></g><g><title>ChatView</title><rect fill="#FFFFFF" height="28" style="stroke:#181818;stroke-width:1;" width="10" x="170.9355" y="353.3594"/></g><g><title>AIChatController</title><rect fill="#FFFFFF" height="159.5313" style="stroke:#181818;stroke-width:1;" width="10" x="392.772" y="141.5625"/></g><g><title>CHAT_SESSIONS</title><rect fill="#FFFFFF" height="101.2656" style="stroke:#181818;stroke-width:1;" width="10" x="591.063" y="170.6953"/></g><g><title>CHAT_SESSIONS</title><rect fill="#FFFFFF" height="28" style="stroke:#181818;stroke-width:1;" width="10" x="596.063" y="207.8281"/></g><g class="message" data-entity-1="part1" data-entity-2="part2" id="msg1"><polygon fill="#181818" points="153.9355,108.4297,163.9355,112.4297,153.9355,116.4297,157.9355,112.4297" style="stroke:#181818;stroke-width:1;"/><line style="stroke:#181818;stroke-width:1;" x1="28.9551" x2="159.9355" y1="112.4297" y2="112.4297"/><text fill="#000000" font-family="sans-serif" font-size="15" font-weight="bold" lengthAdjust="spacing" textLength="9.0454" x="35.9551" y="107.3638">1</text><text fill="#000000" font-family="sans-serif" font-size="15" lengthAdjust="spacing" textLength="109.9351" x="49.0005" y="107.3638">Click "New Chat"</text></g><g class="message" data-entity-1="part2" data-entity-2="part3" id="msg2"><polygon fill="#181818" points="380.772,137.5625,390.772,141.5625,380.772,145.5625,384.772,141.5625" style="stroke:#181818;stroke-width:1;"/><line style="stroke:#181818;stroke-width:1;" x1="175.9355" x2="386.772" y1="141.5625" y2="141.5625"/><text fill="#000000" font-family="sans-serif" font-size="15" font-weight="bold" lengthAdjust="spacing" textLength="9.0454" x="182.9355" y="136.4966">2</text><text fill="#000000" font-family="sans-serif" font-size="15" lengthAdjust="spacing" textLength="184.5137" x="195.981" y="136.4966">Send create session request</text></g><g class="message" data-entity-1="part3" data-entity-2="part4" id="msg3"><polygon fill="#181818" points="579.063,166.6953,589.063,170.6953,579.063,174.6953,583.063,170.6953" style="stroke:#181818;stroke-width:1;"/><line style="stroke:#181818;stroke-width:1;" x1="402.772" x2="585.063" y1="170.6953" y2="170.6953"/><text fill="#000000" font-family="sans-serif" font-size="15" font-weight="bold" lengthAdjust="spacing" textLength="9.0454" x="409.772" y="165.6294">3</text><text fill="#000000" font-family="sans-serif" font-size="15" lengthAdjust="spacing" textLength="153.1245" x="422.8174" y="165.6294">Insert new chat session</text></g><g class="message" data-entity-1="part4" data-entity-2="part4" id="msg4"><line style="stroke:#181818;stroke-width:1;" x1="606.063" x2="648.063" y1="199.8281" y2="199.8281"/><line style="stroke:#181818;stroke-width:1;" x1="648.063" x2="648.063" y1="199.8281" y2="212.8281"/><line style="stroke:#181818;stroke-width:1;" x1="607.063" x2="648.063" y1="212.8281" y2="212.8281"/><polygon fill="#181818" points="617.063,208.8281,607.063,212.8281,617.063,216.8281,613.063,212.8281" style="stroke:#181818;stroke-width:1;"/><text fill="#000000" font-family="sans-serif" font-size="15" font-weight="bold" lengthAdjust="spacing" textLength="9.0454" x="613.063" y="194.7622">4</text><text fill="#000000" font-family="sans-serif" font-size="15" lengthAdjust="spacing" textLength="255.7661" x="626.1084" y="194.7622">Insert record (user_id, title, created_at)</text></g><g class="message" data-entity-1="part4" data-entity-2="part3" id="msg5"><polygon fill="#181818" points="413.772,267.9609,403.772,271.9609,413.772,275.9609,409.772,271.9609" style="stroke:#181818;stroke-width:1;"/><line style="stroke:#181818;stroke-width:1;stroke-dasharray:2,2;" x1="407.772" x2="595.063" y1="271.9609" y2="271.9609"/><text fill="#000000" font-family="sans-serif" font-size="15" font-weight="bold" lengthAdjust="spacing" textLength="9.0454" x="419.772" y="266.895">5</text><text fill="#000000" font-family="sans-serif" font-size="15" lengthAdjust="spacing" textLength="151.2456" x="432.8174" y="266.895">Session created with id</text></g><g class="message" data-entity-1="part3" data-entity-2="part2" id="msg6"><polygon fill="#181818" points="186.9355,297.0938,176.9355,301.0938,186.9355,305.0938,182.9355,301.0938" style="stroke:#181818;stroke-width:1;"/><line style="stroke:#181818;stroke-width:1;stroke-dasharray:2,2;" x1="180.9355" x2="396.772" y1="301.0938" y2="301.0938"/><text fill="#000000" font-family="sans-serif" font-size="15" font-weight="bold" lengthAdjust="spacing" textLength="9.0454" x="192.9355" y="296.0278">6</text><text fill="#000000" font-family="sans-serif" font-size="15" lengthAdjust="spacing" textLength="114.0229" x="205.981" y="296.0278">New session data</text></g><g class="message" data-entity-1="part2" data-entity-2="part2" id="msg7"><line style="stroke:#181818;stroke-width:1;" x1="180.9355" x2="222.9355" y1="345.3594" y2="345.3594"/><line style="stroke:#181818;stroke-width:1;" x1="222.9355" x2="222.9355" y1="345.3594" y2="358.3594"/><line style="stroke:#181818;stroke-width:1;" x1="181.9355" x2="222.9355" y1="358.3594" y2="358.3594"/><polygon fill="#181818" points="191.9355,354.3594,181.9355,358.3594,191.9355,362.3594,187.9355,358.3594" style="stroke:#181818;stroke-width:1;"/><text fill="#000000" font-family="sans-serif" font-size="15" font-weight="bold" lengthAdjust="spacing" textLength="9.0454" x="187.9355" y="332.7271">7</text><text fill="#000000" font-family="sans-serif" font-size="15" lengthAdjust="spacing" textLength="179.791" x="200.981" y="325.1606">Display empty chat window</text><text fill="#000000" font-family="sans-serif" font-size="15" lengthAdjust="spacing" textLength="109.3828" x="200.981" y="340.2935">with session title</text></g><?plantuml-src NP31QiCm44Jl-eebfnQI7p2bODH2VKaFgdqg6CLQYAWZfP9Sax_lhcotTYx6AsdcxOmUadV3vOH12Dqb7w2E6417gCN93yxeS0DvrgcnEFAnR4JdNGg-XxBY2pbD_QGgfHJeaasaUYi_MlMgLFL-L5cgXAZXy4mU1SZUTb-mEv8hk-oORdzqGWB__H9Co8Obv5k0GcUW2yXN4MEqta70xm5Z-jVm1e8-6QGAg1m5Ik08r15e4QuWIaXrzpfWvuE1Xu6crfezKA8UzpFSj3ezRWmChYUcFnqEsL3DUyvA66qwWpLt2ax9YXoJErdY6Ptq-crEDrN2BRxOUEtr3V1ofSPplj4wuyTFbq6BJLv_q-kQJorlnzLKYry0?></g></svg>