<?plantuml 1.2026.1?><svg xmlns="http://www.w3.org/2000/svg" xmlns:xlink="http://www.w3.org/1999/xlink" contentStyleType="text/css" data-diagram-type="SEQUENCE" height="2058px" preserveAspectRatio="none" style="width:1364px;height:2058px;background:#FFFFFF;" version="1.1" viewBox="0 0 1364 2058" width="1364px" zoomAndPan="magnify"><defs/><g><g><title>User</title><rect fill="#FFFFFF" height="1432.3828" style="stroke:#181818;stroke-width:1;" width="10" x="18.9551" y="91.2969"/></g><g><title>ForgotPasswordView</title><rect fill="#FFFFFF" height="894.5234" style="stroke:#181818;stroke-width:1;" width="10" x="251.7222" y="112.4297"/></g><g><title>ForgotPasswordView</title><rect fill="#FFFFFF" height="28" style="stroke:#181818;stroke-width:1;" width="10" x="256.7222" y="149.5625"/></g><g><title>ForgotPasswordView</title><rect fill="#FFFFFF" height="28" style="stroke:#181818;stroke-width:1;" width="10" x="256.7222" y="279.9609"/></g><g><title>ForgotPasswordView</title><rect fill="#FFFFFF" height="28" style="stroke:#181818;stroke-width:1;" width="10" x="256.7222" y="376.2266"/></g><g><title>ForgotPasswordView</title><rect fill="#FFFFFF" height="28" style="stroke:#181818;stroke-width:1;" width="10" x="256.7222" y="978.9531"/></g><g><title>ResetPasswordView</title><rect fill="#FFFFFF" height="925.7891" style="stroke:#181818;stroke-width:1;" width="10" x="525.9946" y="1043.0859"/></g><g><title>ResetPasswordView</title><rect fill="#FFFFFF" height="28" style="stroke:#181818;stroke-width:1;" width="10" x="530.9946" y="1293.0156"/></g><g><title>ResetPasswordView</title><rect fill="#FFFFFF" height="28" style="stroke:#181818;stroke-width:1;" width="10" x="530.9946" y="1430.4141"/></g><g><title>ResetPasswordView</title><rect fill="#FFFFFF" height="28" style="stroke:#181818;stroke-width:1;" width="10" x="530.9946" y="1560.8125"/></g><g><title>ResetPasswordView</title><rect fill="#FFFFFF" height="28" style="stroke:#181818;stroke-width:1;" width="10" x="530.9946" y="1657.0781"/></g><g><title>AuthController</title><rect fill="#FFFFFF" height="494.4609" style="stroke:#181818;stroke-width:1;" width="10" x="768.0972" y="447.3594"/></g><g><title>AuthController</title><rect fill="#FFFFFF" height="28" style="stroke:#181818;stroke-width:1;" width="10" x="773.0972" y="639.0234"/></g><g><title>AuthController</title><rect fill="#FFFFFF" height="28" style="stroke:#181818;stroke-width:1;" width="10" x="773.0972" y="747.2891"/></g><g><title>AuthController</title><rect fill="#FFFFFF" height="321.0625" style="stroke:#181818;stroke-width:1;" width="10" x="768.0972" y="1072.2188"/></g><g><title>AuthController</title><rect fill="#FFFFFF" height="231.6641" style="stroke:#181818;stroke-width:1;" width="10" x="768.0972" y="1728.2109"/></g><g><title>AuthController</title><rect fill="#FFFFFF" height="28" style="stroke:#181818;stroke-width:1;" width="10" x="773.0972" y="1765.3438"/></g><g><title>USER</title><rect fill="#FFFFFF" height="233.6641" style="stroke:#181818;stroke-width:1;" width="10" x="1038.0869" y="476.4922"/></g><g><title>USER</title><rect fill="#FFFFFF" height="28" style="stroke:#181818;stroke-width:1;" width="10" x="1043.0869" y="513.625"/></g><g><title>USER</title><rect fill="#FFFFFF" height="101.2656" style="stroke:#181818;stroke-width:1;" width="10" x="1038.0869" y="811.4219"/></g><g><title>USER</title><rect fill="#FFFFFF" height="28" style="stroke:#181818;stroke-width:1;" width="10" x="1043.0869" y="848.5547"/></g><g><title>USER</title><rect fill="#FFFFFF" height="262.7969" style="stroke:#181818;stroke-width:1;" width="10" x="1038.0869" y="1101.3516"/></g><g><title>USER</title><rect fill="#FFFFFF" height="28" style="stroke:#181818;stroke-width:1;" width="10" x="1043.0869" y="1138.4844"/></g><g><title>USER</title><rect fill="#FFFFFF" height="101.2656" style="stroke:#181818;stroke-width:1;" width="10" x="1038.0869" y="1829.4766"/></g><g><title>USER</title><rect fill="#FFFFFF" height="28" style="stroke:#181818;stroke-width:1;" width="10" x="1043.0869" y="1866.6094"/></g><rect fill="none" height="89.2656" style="stroke:#000000;stroke-width:1.5;" width="298.877" x="171.1655" y="329.9609"/><rect fill="none" height="118.3984" style="stroke:#000000;stroke-width:1.5;" width="365.8359" x="709.1045" y="563.625"/><rect fill="none" height="147.5313" style="stroke:#000000;stroke-width:1.5;" width="626.7134" x="448.2271" y="1188.4844"/><rect fill="none" height="89.2656" style="stroke:#000000;stroke-width:1.5;" width="296.0308" x="448.2271" y="1610.8125"/><g class="participant-lifeline" data-entity-uid="part1" data-qualified-name="U" id="part1-lifeline"><g><title>User</title><rect fill="#000000" fill-opacity="0.00000" height="1896.5781" width="8" x="19.9551" y="81.2969"/><line style="stroke:#181818;stroke-width:0.5;stroke-dasharray:5,5;" x1="23" x2="23" y1="81.2969" y2="1977.875"/></g></g><g class="participant-lifeline" data-entity-uid="part2" data-qualified-name="FPV" id="part2-lifeline"><g><title>ForgotPasswordView</title><rect fill="#000000" fill-opacity="0.00000" height="1896.5781" width="8" x="252.7222" y="81.2969"/><line style="stroke:#181818;stroke-width:0.5;stroke-dasharray:5,5;" x1="256.1655" x2="256.1655" y1="81.2969" y2="1977.875"/></g></g><g class="participant-lifeline" data-entity-uid="part3" data-qualified-name="RPV" id="part3-lifeline"><g><title>ResetPasswordView</title><rect fill="#000000" fill-opacity="0.00000" height="1896.5781" width="8" x="526.9946" y="81.2969"/><line style="stroke:#181818;stroke-width:0.5;stroke-dasharray:5,5;" x1="530.2271" x2="530.2271" y1="81.2969" y2="1977.875"/></g></g><g class="participant-lifeline" data-entity-uid="part4" data-qualified-name="AC" id="part4-lifeline"><g><title>AuthController</title><rect fill="#000000" fill-opacity="0.00000" height="1896.5781" width="8" x="769.0972" y="81.2969"/><line style="stroke:#181818;stroke-width:0.5;stroke-dasharray:5,5;" x1="772.1045" x2="772.1045" y1="81.2969" y2="1977.875"/></g></g><g class="participant-lifeline" data-entity-uid="part5" data-qualified-name="US" id="part5-lifeline"><g><title>USER</title><rect fill="#000000" fill-opacity="0.00000" height="1896.5781" width="8" x="1039.0869" y="81.2969"/><line style="stroke:#181818;stroke-width:0.5;stroke-dasharray:5,5;" x1="1042.2334" x2="1042.2334" y1="81.2969" y2="1977.875"/></g></g><g class="participant participant-head" data-entity-uid="part1" data-qualified-name="U" id="part1-head"><text fill="#000000" font-family="sans-serif" font-size="14" lengthAdjust="spacing" textLength="31.9102" x="5" y="77.9951">User</text><ellipse cx="23.9551" cy="13.5" fill="#E2E2F0" rx="8" ry="8" style="stroke:#181818;stroke-width:0.5;"/><path d="M23.9551,21.5 L23.9551,48.5 M10.9551,29.5 L36.9551,29.5 M23.9551,48.5 L10.9551,63.5 M23.9551,48.5 L36.9551,63.5" fill="none" style="stroke:#181818;stroke-width:0.5;"/></g><g class="participant participant-tail" data-entity-uid="part1" data-qualified-name="U" id="part1-tail"><text fill="#000000" font-family="sans-serif" font-size="14" lengthAdjust="spacing" textLength="31.9102" x="5" y="1989.8701">User</text><ellipse cx="23.9551" cy="2001.6719" fill="#E2E2F0" rx="8" ry="8" style="stroke:#181818;stroke-width:0.5;"/><path d="M23.9551,2009.6719 L23.9551,2036.6719 M10.9551,2017.6719 L36.9551,2017.6719 M23.9551,2036.6719 L10.9551,2051.6719 M23.9551,2036.6719 L36.9551,2051.6719" fill="none" style="stroke:#181818;stroke-width:0.5;"/></g><g class="participant participant-head" data-entity-uid="part2" data-qualified-name="FPV" id="part2-head"><text fill="#000000" font-family="sans-serif" font-size="14" lengthAdjust="spacing" textLength="145.1133" x="181.1655" y="77.9951">ForgotPasswordView</text><path d="M236.2222,37 L236.2222,61 M236.2222,49 L253.2222,49" fill="none" style="stroke:#181818;stroke-width:0.5;"/><ellipse cx="265.2222" cy="49" fill="#E2E2F0" rx="12" ry="12" style="stroke:#181818;stroke-width:0.5;"/></g><g class="participant participant-tail" data-entity-uid="part2" data-qualified-name="FPV" id="part2-tail"><text fill="#000000" font-family="sans-serif" font-size="14" lengthAdjust="spacing" textLength="145.1133" x="181.1655" y="1989.8701">ForgotPasswordView</text><path d="M236.2222,1997.1719 L236.2222,2021.1719 M236.2222,2009.1719 L253.2222,2009.1719" fill="none" style="stroke:#181818;stroke-width:0.5;"/><ellipse cx="265.2222" cy="2009.1719" fill="#E2E2F0" rx="12" ry="12" style="stroke:#181818;stroke-width:0.5;"/></g><g class="participant participant-head" data-entity-uid="part3" data-qualified-name="RPV" id="part3-head"><text fill="#000000" font-family="sans-serif" font-size="14" lengthAdjust="spacing" textLength="139.5352" x="458.2271" y="77.9951">ResetPasswordView</text><path d="M510.4946,37 L510.4946,61 M510.4946,49 L527.4946,49" fill="none" style="stroke:#181818;stroke-width:0.5;"/><ellipse cx="539.4946" cy="49" fill="#E2E2F0" rx="12" ry="12" style="stroke:#181818;stroke-width:0.5;"/></g><g class="participant participant-tail" data-entity-uid="part3" data-qualified-name="RPV" id="part3-tail"><text fill="#000000" font-family="sans-serif" font-size="14" lengthAdjust="spacing" textLength="139.5352" x="458.2271" y="1989.8701">ResetPasswordView</text><path d="M510.4946,1997.1719 L510.4946,2021.1719 M510.4946,2009.1719 L527.4946,2009.1719" fill="none" style="stroke:#181818;stroke-width:0.5;"/><ellipse cx="539.4946" cy="2009.1719" fill="#E2E2F0" rx="12" ry="12" style="stroke:#181818;stroke-width:0.5;"/></g><g class="participant participant-head" data-entity-uid="part4" data-qualified-name="AC" id="part4-head"><text fill="#000000" font-family="sans-serif" font-size="14" lengthAdjust="spacing" textLength="101.9854" x="719.1045" y="77.9951">AuthController</text><ellipse cx="773.0972" cy="49" fill="#E2E2F0" rx="12" ry="12" style="stroke:#181818;stroke-width:0.5;"/><polygon fill="#181818" points="769.0972,37,775.0972,32,773.0972,37,775.0972,42,769.0972,37" style="stroke:#181818;stroke-width:1;"/></g><g class="participant participant-tail" data-entity-uid="part4" data-qualified-name="AC" id="part4-tail"><text fill="#000000" font-family="sans-serif" font-size="14" lengthAdjust="spacing" textLength="101.9854" x="719.1045" y="1989.8701">AuthController</text><ellipse cx="773.0972" cy="2009.1719" fill="#E2E2F0" rx="12" ry="12" style="stroke:#181818;stroke-width:0.5;"/><polygon fill="#181818" points="769.0972,1997.1719,775.0972,1992.1719,773.0972,1997.1719,775.0972,2002.1719,769.0972,1997.1719" style="stroke:#181818;stroke-width:1;"/></g><g class="participant participant-head" data-entity-uid="part5" data-qualified-name="US" id="part5-head"><text fill="#000000" font-family="sans-serif" font-size="14" lengthAdjust="spacing" textLength="37.707" x="1021.2334" y="77.9951">USER</text><ellipse cx="1043.0869" cy="49" fill="#E2E2F0" rx="12" ry="12" style="stroke:#181818;stroke-width:0.5;"/><line style="stroke:#181818;stroke-width:0.5;" x1="1031.0869" x2="1055.0869" y1="63" y2="63"/></g><g class="participant participant-tail" data-entity-uid="part5" data-qualified-name="US" id="part5-tail"><text fill="#000000" font-family="sans-serif" font-size="14" lengthAdjust="spacing" textLength="37.707" x="1021.2334" y="1989.8701">USER</text><ellipse cx="1043.0869" cy="2009.1719" fill="#E2E2F0" rx="12" ry="12" style="stroke:#181818;stroke-width:0.5;"/><line style="stroke:#181818;stroke-width:0.5;" x1="1031.0869" x2="1055.0869" y1="2023.1719" y2="2023.1719"/></g><g><title>User</title><rect fill="#FFFFFF" height="1432.3828" style="stroke:#181818;stroke-width:1;" width="10" x="18.9551" y="91.2969"/></g><g><title>ForgotPasswordView</title><rect fill="#FFFFFF" height="894.5234" style="stroke:#181818;stroke-width:1;" width="10" x="251.7222" y="112.4297"/></g><g><title>ForgotPasswordView</title><rect fill="#FFFFFF" height="28" style="stroke:#181818;stroke-width:1;" width="10" x="256.7222" y="149.5625"/></g><g><title>ForgotPasswordView</title><rect fill="#FFFFFF" height="28" style="stroke:#181818;stroke-width:1;" width="10" x="256.7222" y="279.9609"/></g><g><title>ForgotPasswordView</title><rect fill="#FFFFFF" height="28" style="stroke:#181818;stroke-width:1;" width="10" x="256.7222" y="376.2266"/></g><g><title>ForgotPasswordView</title><rect fill="#FFFFFF" height="28" style="stroke:#181818;stroke-width:1;" width="10" x="256.7222" y="978.9531"/></g><g><title>ResetPasswordView</title><rect fill="#FFFFFF" height="925.7891" style="stroke:#181818;stroke-width:1;" width="10" x="525.9946" y="1043.0859"/></g><g><title>ResetPasswordView</title><rect fill="#FFFFFF" height="28" style="stroke:#181818;stroke-width:1;" width="10" x="530.9946" y="1293.0156"/></g><g><title>ResetPasswordView</title><rect fill="#FFFFFF" height="28" style="stroke:#181818;stroke-width:1;" width="10" x="530.9946" y="1430.4141"/></g><g><title>ResetPasswordView</title><rect fill="#FFFFFF" height="28" style="stroke:#181818;stroke-width:1;" width="10" x="530.9946" y="1560.8125"/></g><g><title>ResetPasswordView</title><rect fill="#FFFFFF" height="28" style="stroke:#181818;stroke-width:1;" width="10" x="530.9946" y="1657.0781"/></g><g><title>AuthController</title><rect fill="#FFFFFF" height="494.4609" style="stroke:#181818;stroke-width:1;" width="10" x="768.0972" y="447.3594"/></g><g><title>AuthController</title><rect fill="#FFFFFF" height="28" style="stroke:#181818;stroke-width:1;" width="10" x="773.0972" y="639.0234"/></g><g><title>AuthController</title><rect fill="#FFFFFF" height="28" style="stroke:#181818;stroke-width:1;" width="10" x="773.0972" y="747.2891"/></g><g><title>AuthController</title><rect fill="#FFFFFF" height="321.0625" style="stroke:#181818;stroke-width:1;" width="10" x="768.0972" y="1072.2188"/></g><g><title>AuthController</title><rect fill="#FFFFFF" height="231.6641" style="stroke:#181818;stroke-width:1;" width="10" x="768.0972" y="1728.2109"/></g><g><title>AuthController</title><rect fill="#FFFFFF" height="28" style="stroke:#181818;stroke-width:1;" width="10" x="773.0972" y="1765.3438"/></g><g><title>USER</title><rect fill="#FFFFFF" height="233.6641" style="stroke:#181818;stroke-width:1;" width="10" x="1038.0869" y="476.4922"/></g><g><title>USER</title><rect fill="#FFFFFF" height="28" style="stroke:#181818;stroke-width:1;" width="10" x="1043.0869" y="513.625"/></g><g><title>USER</title><rect fill="#FFFFFF" height="101.2656" style="stroke:#181818;stroke-width:1;" width="10" x="1038.0869" y="811.4219"/></g><g><title>USER</title><rect fill="#FFFFFF" height="28" style="stroke:#181818;stroke-width:1;" width="10" x="1043.0869" y="848.5547"/></g><g><title>USER</title><rect fill="#FFFFFF" height="262.7969" style="stroke:#181818;stroke-width:1;" width="10" x="1038.0869" y="1101.3516"/></g><g><title>USER</title><rect fill="#FFFFFF" height="28" style="stroke:#181818;stroke-width:1;" width="10" x="1043.0869" y="1138.4844"/></g><g><title>USER</title><rect fill="#FFFFFF" height="101.2656" style="stroke:#181818;stroke-width:1;" width="10" x="1038.0869" y="1829.4766"/></g><g><title>USER</title><rect fill="#FFFFFF" height="28" style="stroke:#181818;stroke-width:1;" width="10" x="1043.0869" y="1866.6094"/></g><g class="message" data-entity-1="part1" data-entity-2="part2" id="msg1"><polygon fill="#181818" points="239.7222,108.4297,249.7222,112.4297,239.7222,116.4297,243.7222,112.4297" style="stroke:#181818;stroke-width:1;"/><line style="stroke:#181818;stroke-width:1;" x1="28.9551" x2="245.7222" y1="112.4297" y2="112.4297"/><text fill="#000000" font-family="sans-serif" font-size="13" font-weight="bold" lengthAdjust="spacing" textLength="9.0454" x="35.9551" y="107.3638">1</text><text fill="#000000" font-family="sans-serif" font-size="13" lengthAdjust="spacing" textLength="190.7217" x="49.0005" y="107.3638">Access forgot password page</text></g><g class="message" data-entity-1="part2" data-entity-2="part2" id="msg2"><line style="stroke:#181818;stroke-width:1;" x1="266.7222" x2="308.7222" y1="141.5625" y2="141.5625"/><line style="stroke:#181818;stroke-width:1;" x1="308.7222" x2="308.7222" y1="141.5625" y2="154.5625"/><line style="stroke:#181818;stroke-width:1;" x1="267.7222" x2="308.7222" y1="154.5625" y2="154.5625"/><polygon fill="#181818" points="277.7222,150.5625,267.7222,154.5625,277.7222,158.5625,273.7222,154.5625" style="stroke:#181818;stroke-width:1;"/><text fill="#000000" font-family="sans-serif" font-size="13" font-weight="bold" lengthAdjust="spacing" textLength="9.0454" x="273.7222" y="136.4966">2</text><text fill="#000000" font-family="sans-serif" font-size="13" lengthAdjust="spacing" textLength="160.145" x="286.7676" y="136.4966">Display email input form</text></g><g class="message" data-entity-1="part1" data-entity-2="part2" id="msg3"><polygon fill="#181818" points="239.7222,209.6953,249.7222,213.6953,239.7222,217.6953,243.7222,213.6953" style="stroke:#181818;stroke-width:1;"/><line style="stroke:#181818;stroke-width:1;" x1="28.9551" x2="245.7222" y1="213.6953" y2="213.6953"/><text fill="#000000" font-family="sans-serif" font-size="13" font-weight="bold" lengthAdjust="spacing" textLength="9.0454" x="35.9551" y="208.6294">3</text><text fill="#000000" font-family="sans-serif" font-size="13" lengthAdjust="spacing" textLength="74.877" x="49.0005" y="208.6294">Enter email</text></g><g class="message" data-entity-1="part1" data-entity-2="part2" id="msg4"><polygon fill="#181818" points="239.7222,238.8281,249.7222,242.8281,239.7222,246.8281,243.7222,242.8281" style="stroke:#181818;stroke-width:1;"/><line style="stroke:#181818;stroke-width:1;" x1="28.9551" x2="245.7222" y1="242.8281" y2="242.8281"/><text fill="#000000" font-family="sans-serif" font-size="13" font-weight="bold" lengthAdjust="spacing" textLength="9.0454" x="35.9551" y="237.7622">4</text><text fill="#000000" font-family="sans-serif" font-size="13" lengthAdjust="spacing" textLength="151.5947" x="49.0005" y="237.7622">Click "Send Reset Link"</text></g><g class="message" data-entity-1="part2" data-entity-2="part2" id="msg5"><line style="stroke:#181818;stroke-width:1;" x1="266.7222" x2="308.7222" y1="271.9609" y2="271.9609"/><line style="stroke:#181818;stroke-width:1;" x1="308.7222" x2="308.7222" y1="271.9609" y2="284.9609"/><line style="stroke:#181818;stroke-width:1;" x1="267.7222" x2="308.7222" y1="284.9609" y2="284.9609"/><polygon fill="#181818" points="277.7222,280.9609,267.7222,284.9609,277.7222,288.9609,273.7222,284.9609" style="stroke:#181818;stroke-width:1;"/><text fill="#000000" font-family="sans-serif" font-size="13" font-weight="bold" lengthAdjust="spacing" textLength="9.0454" x="273.7222" y="266.895">5</text><text fill="#000000" font-family="sans-serif" font-size="13" lengthAdjust="spacing" textLength="141.1147" x="286.7676" y="266.895">Validate email format</text></g><path d="M171.1655,329.9609 L258.1172,329.9609 L258.1172,337.0938 L248.1172,347.0938 L171.1655,347.0938 L171.1655,329.9609" fill="#EEEEEE" style="stroke:#000000;stroke-width:1.5;"/><rect fill="none" height="89.2656" style="stroke:#000000;stroke-width:1.5;" width="298.877" x="171.1655" y="329.9609"/><text fill="#000000" font-family="sans-serif" font-size="13" font-weight="bold" lengthAdjust="spacing" textLength="41.9517" x="186.1655" y="343.0278">break</text><text fill="#000000" font-family="sans-serif" font-size="11" font-weight="bold" lengthAdjust="spacing" textLength="135.4429" x="273.1172" y="342.1714">[Invalid email format]</text><g class="message" data-entity-1="part2" data-entity-2="part2" id="msg6"><line style="stroke:#181818;stroke-width:1;" x1="266.7222" x2="308.7222" y1="368.2266" y2="368.2266"/><line style="stroke:#181818;stroke-width:1;" x1="308.7222" x2="308.7222" y1="368.2266" y2="381.2266"/><line style="stroke:#181818;stroke-width:1;" x1="267.7222" x2="308.7222" y1="381.2266" y2="381.2266"/><polygon fill="#181818" points="277.7222,377.2266,267.7222,381.2266,277.7222,385.2266,273.7222,381.2266" style="stroke:#181818;stroke-width:1;"/><text fill="#000000" font-family="sans-serif" font-size="13" font-weight="bold" lengthAdjust="spacing" textLength="9.0454" x="273.7222" y="363.1606">6</text><text fill="#000000" font-family="sans-serif" font-size="13" lengthAdjust="spacing" textLength="161.2749" x="286.7676" y="363.1606">Display error notification</text></g><g class="message" data-entity-1="part2" data-entity-2="part4" id="msg7"><polygon fill="#181818" points="756.0972,443.3594,766.0972,447.3594,756.0972,451.3594,760.0972,447.3594" style="stroke:#181818;stroke-width:1;"/><line style="stroke:#181818;stroke-width:1;" x1="261.7222" x2="762.0972" y1="447.3594" y2="447.3594"/><text fill="#000000" font-family="sans-serif" font-size="13" font-weight="bold" lengthAdjust="spacing" textLength="9.0454" x="268.7222" y="442.2935">7</text><text fill="#000000" font-family="sans-serif" font-size="13" lengthAdjust="spacing" textLength="189.998" x="281.7676" y="442.2935">Send password reset request</text></g><g class="message" data-entity-1="part4" data-entity-2="part5" id="msg8"><polygon fill="#181818" points="1026.0869,472.4922,1036.0869,476.4922,1026.0869,480.4922,1030.0869,476.4922" style="stroke:#181818;stroke-width:1;"/><line style="stroke:#181818;stroke-width:1;" x1="778.0972" x2="1032.0869" y1="476.4922" y2="476.4922"/><text fill="#000000" font-family="sans-serif" font-size="13" font-weight="bold" lengthAdjust="spacing" textLength="9.0454" x="785.0972" y="471.4263">8</text><text fill="#000000" font-family="sans-serif" font-size="13" lengthAdjust="spacing" textLength="174.6177" x="798.1426" y="471.4263">Check user exists by email</text></g><g class="message" data-entity-1="part5" data-entity-2="part5" id="msg9"><line style="stroke:#181818;stroke-width:1;" x1="1053.0869" x2="1095.0869" y1="505.625" y2="505.625"/><line style="stroke:#181818;stroke-width:1;" x1="1095.0869" x2="1095.0869" y1="505.625" y2="518.625"/><line style="stroke:#181818;stroke-width:1;" x1="1054.0869" x2="1095.0869" y1="518.625" y2="518.625"/><polygon fill="#181818" points="1064.0869,514.625,1054.0869,518.625,1064.0869,522.625,1060.0869,518.625" style="stroke:#181818;stroke-width:1;"/><text fill="#000000" font-family="sans-serif" font-size="13" font-weight="bold" lengthAdjust="spacing" textLength="9.0454" x="1060.0869" y="500.5591">9</text><text fill="#000000" font-family="sans-serif" font-size="13" lengthAdjust="spacing" textLength="190.0361" x="1073.1323" y="500.5591">Query user and check is_lock</text></g><path d="M709.1045,563.625 L796.0562,563.625 L796.0562,570.7578 L786.0562,580.7578 L709.1045,580.7578 L709.1045,563.625" fill="#EEEEEE" style="stroke:#000000;stroke-width:1.5;"/><rect fill="none" height="118.3984" style="stroke:#000000;stroke-width:1.5;" width="365.8359" x="709.1045" y="563.625"/><text fill="#000000" font-family="sans-serif" font-size="13" font-weight="bold" lengthAdjust="spacing" textLength="41.9517" x="724.1045" y="576.6919">break</text><text fill="#000000" font-family="sans-serif" font-size="11" font-weight="bold" lengthAdjust="spacing" textLength="163.7432" x="811.0562" y="575.8354">[User not found or locked]</text><g class="message" data-entity-1="part5" data-entity-2="part4" id="msg10"><polygon fill="#181818" points="789.0972,597.8906,779.0972,601.8906,789.0972,605.8906,785.0972,601.8906" style="stroke:#181818;stroke-width:1;"/><line style="stroke:#181818;stroke-width:1;stroke-dasharray:2,2;" x1="783.0972" x2="1037.0869" y1="601.8906" y2="601.8906"/><text fill="#000000" font-family="sans-serif" font-size="13" font-weight="bold" lengthAdjust="spacing" textLength="18.0908" x="795.0972" y="596.8247">10</text><text fill="#000000" font-family="sans-serif" font-size="13" lengthAdjust="spacing" textLength="111.0396" x="817.188" y="596.8247">Not found/locked</text></g><g class="message" data-entity-1="part4" data-entity-2="part4" id="msg11"><line style="stroke:#181818;stroke-width:1;" x1="783.0972" x2="825.0972" y1="631.0234" y2="631.0234"/><line style="stroke:#181818;stroke-width:1;" x1="825.0972" x2="825.0972" y1="631.0234" y2="644.0234"/><line style="stroke:#181818;stroke-width:1;" x1="784.0972" x2="825.0972" y1="644.0234" y2="644.0234"/><polygon fill="#181818" points="794.0972,640.0234,784.0972,644.0234,794.0972,648.0234,790.0972,644.0234" style="stroke:#181818;stroke-width:1;"/><text fill="#000000" font-family="sans-serif" font-size="13" font-weight="bold" lengthAdjust="spacing" textLength="18.0908" x="790.0972" y="625.9575">11</text><text fill="#000000" font-family="sans-serif" font-size="13" lengthAdjust="spacing" textLength="79.8662" x="812.188" y="625.9575">Log warning</text></g><g class="message" data-entity-1="part5" data-entity-2="part4" id="msg12"><polygon fill="#181818" points="789.0972,706.1563,779.0972,710.1563,789.0972,714.1563,785.0972,710.1563" style="stroke:#181818;stroke-width:1;"/><line style="stroke:#181818;stroke-width:1;stroke-dasharray:2,2;" x1="783.0972" x2="1042.0869" y1="710.1563" y2="710.1563"/><text fill="#000000" font-family="sans-serif" font-size="13" font-weight="bold" lengthAdjust="spacing" textLength="18.0908" x="795.0972" y="705.0903">12</text><text fill="#000000" font-family="sans-serif" font-size="13" lengthAdjust="spacing" textLength="71.0239" x="817.188" y="705.0903">User found</text></g><g class="message" data-entity-1="part4" data-entity-2="part4" id="msg13"><line style="stroke:#181818;stroke-width:1;" x1="783.0972" x2="825.0972" y1="739.2891" y2="739.2891"/><line style="stroke:#181818;stroke-width:1;" x1="825.0972" x2="825.0972" y1="739.2891" y2="752.2891"/><line style="stroke:#181818;stroke-width:1;" x1="784.0972" x2="825.0972" y1="752.2891" y2="752.2891"/><polygon fill="#181818" points="794.0972,748.2891,784.0972,752.2891,794.0972,756.2891,790.0972,752.2891" style="stroke:#181818;stroke-width:1;"/><text fill="#000000" font-family="sans-serif" font-size="13" font-weight="bold" lengthAdjust="spacing" textLength="18.0908" x="790.0972" y="734.2231">13</text><text fill="#000000" font-family="sans-serif" font-size="13" lengthAdjust="spacing" textLength="139.0073" x="812.188" y="734.2231">Generate reset token</text></g><g class="message" data-entity-1="part4" data-entity-2="part5" id="msg14"><polygon fill="#181818" points="1026.0869,807.4219,1036.0869,811.4219,1026.0869,815.4219,1030.0869,811.4219" style="stroke:#181818;stroke-width:1;"/><line style="stroke:#181818;stroke-width:1;" x1="778.0972" x2="1032.0869" y1="811.4219" y2="811.4219"/><text fill="#000000" font-family="sans-serif" font-size="13" font-weight="bold" lengthAdjust="spacing" textLength="18.0908" x="785.0972" y="806.356">14</text><text fill="#000000" font-family="sans-serif" font-size="13" lengthAdjust="spacing" textLength="215.5537" x="807.188" y="806.356">Save reset token with 24h expiry</text></g><g class="message" data-entity-1="part5" data-entity-2="part5" id="msg15"><line style="stroke:#181818;stroke-width:1;" x1="1053.0869" x2="1095.0869" y1="840.5547" y2="840.5547"/><line style="stroke:#181818;stroke-width:1;" x1="1095.0869" x2="1095.0869" y1="840.5547" y2="853.5547"/><line style="stroke:#181818;stroke-width:1;" x1="1054.0869" x2="1095.0869" y1="853.5547" y2="853.5547"/><polygon fill="#181818" points="1064.0869,849.5547,1054.0869,853.5547,1064.0869,857.5547,1060.0869,853.5547" style="stroke:#181818;stroke-width:1;"/><text fill="#000000" font-family="sans-serif" font-size="13" font-weight="bold" lengthAdjust="spacing" textLength="18.0908" x="1060.0869" y="835.4888">15</text><text fill="#000000" font-family="sans-serif" font-size="13" lengthAdjust="spacing" textLength="201.0557" x="1082.1777" y="835.4888">Update reset_token and expiry</text></g><g class="message" data-entity-1="part5" data-entity-2="part4" id="msg16"><polygon fill="#181818" points="789.0972,908.6875,779.0972,912.6875,789.0972,916.6875,785.0972,912.6875" style="stroke:#181818;stroke-width:1;"/><line style="stroke:#181818;stroke-width:1;stroke-dasharray:2,2;" x1="783.0972" x2="1042.0869" y1="912.6875" y2="912.6875"/><text fill="#000000" font-family="sans-serif" font-size="13" font-weight="bold" lengthAdjust="spacing" textLength="18.0908" x="795.0972" y="907.6216">16</text><text fill="#000000" font-family="sans-serif" font-size="13" lengthAdjust="spacing" textLength="82.4751" x="817.188" y="907.6216">Token saved</text></g><g class="message" data-entity-1="part4" data-entity-2="part2" id="msg17"><polygon fill="#181818" points="272.7222,937.8203,262.7222,941.8203,272.7222,945.8203,268.7222,941.8203" style="stroke:#181818;stroke-width:1;"/><line style="stroke:#181818;stroke-width:1;stroke-dasharray:2,2;" x1="266.7222" x2="772.0972" y1="941.8203" y2="941.8203"/><text fill="#000000" font-family="sans-serif" font-size="13" font-weight="bold" lengthAdjust="spacing" textLength="18.0908" x="278.7222" y="936.7544">17</text><text fill="#000000" font-family="sans-serif" font-size="13" lengthAdjust="spacing" textLength="129.5684" x="300.813" y="936.7544">Success notification</text></g><g class="message" data-entity-1="part2" data-entity-2="part2" id="msg18"><line style="stroke:#181818;stroke-width:1;" x1="266.7222" x2="308.7222" y1="970.9531" y2="970.9531"/><line style="stroke:#181818;stroke-width:1;" x1="308.7222" x2="308.7222" y1="970.9531" y2="983.9531"/><line style="stroke:#181818;stroke-width:1;" x1="267.7222" x2="308.7222" y1="983.9531" y2="983.9531"/><polygon fill="#181818" points="277.7222,979.9531,267.7222,983.9531,277.7222,987.9531,273.7222,983.9531" style="stroke:#181818;stroke-width:1;"/><text fill="#000000" font-family="sans-serif" font-size="13" font-weight="bold" lengthAdjust="spacing" textLength="18.0908" x="273.7222" y="965.8872">18</text><text fill="#000000" font-family="sans-serif" font-size="13" lengthAdjust="spacing" textLength="218.1816" x="295.813" y="965.8872">Display generic success message</text></g><g class="message" data-entity-1="part1" data-entity-2="part3" id="msg19"><polygon fill="#181818" points="513.9946,1039.0859,523.9946,1043.0859,513.9946,1047.0859,517.9946,1043.0859" style="stroke:#181818;stroke-width:1;"/><line style="stroke:#181818;stroke-width:1;" x1="28.9551" x2="519.9946" y1="1043.0859" y2="1043.0859"/><text fill="#000000" font-family="sans-serif" font-size="13" font-weight="bold" lengthAdjust="spacing" textLength="18.0908" x="35.9551" y="1038.02">19</text><text fill="#000000" font-family="sans-serif" font-size="13" lengthAdjust="spacing" textLength="170.0981" x="58.0459" y="1038.02">Click reset link from email</text></g><g class="message" data-entity-1="part3" data-entity-2="part4" id="msg20"><polygon fill="#181818" points="756.0972,1068.2188,766.0972,1072.2188,756.0972,1076.2188,760.0972,1072.2188" style="stroke:#181818;stroke-width:1;"/><line style="stroke:#181818;stroke-width:1;" x1="535.9946" x2="762.0972" y1="1072.2188" y2="1072.2188"/><text fill="#000000" font-family="sans-serif" font-size="13" font-weight="bold" lengthAdjust="spacing" textLength="18.0908" x="542.9946" y="1067.1528">20</text><text fill="#000000" font-family="sans-serif" font-size="13" lengthAdjust="spacing" textLength="131.6885" x="565.0854" y="1067.1528">Validate reset token</text></g><g class="message" data-entity-1="part4" data-entity-2="part5" id="msg21"><polygon fill="#181818" points="1026.0869,1097.3516,1036.0869,1101.3516,1026.0869,1105.3516,1030.0869,1101.3516" style="stroke:#181818;stroke-width:1;"/><line style="stroke:#181818;stroke-width:1;" x1="778.0972" x2="1032.0869" y1="1101.3516" y2="1101.3516"/><text fill="#000000" font-family="sans-serif" font-size="13" font-weight="bold" lengthAdjust="spacing" textLength="18.0908" x="785.0972" y="1096.2856">21</text><text fill="#000000" font-family="sans-serif" font-size="13" lengthAdjust="spacing" textLength="205.9243" x="807.188" y="1096.2856">Check token validity and expiry</text></g><g class="message" data-entity-1="part5" data-entity-2="part5" id="msg22"><line style="stroke:#181818;stroke-width:1;" x1="1053.0869" x2="1095.0869" y1="1130.4844" y2="1130.4844"/><line style="stroke:#181818;stroke-width:1;" x1="1095.0869" x2="1095.0869" y1="1130.4844" y2="1143.4844"/><line style="stroke:#181818;stroke-width:1;" x1="1054.0869" x2="1095.0869" y1="1143.4844" y2="1143.4844"/><polygon fill="#181818" points="1064.0869,1139.4844,1054.0869,1143.4844,1064.0869,1147.4844,1060.0869,1143.4844" style="stroke:#181818;stroke-width:1;"/><text fill="#000000" font-family="sans-serif" font-size="13" font-weight="bold" lengthAdjust="spacing" textLength="18.0908" x="1060.0869" y="1125.4185">22</text><text fill="#000000" font-family="sans-serif" font-size="13" lengthAdjust="spacing" textLength="100.5342" x="1082.1777" y="1125.4185">Query by token</text></g><path d="M448.2271,1188.4844 L535.1787,1188.4844 L535.1787,1195.6172 L525.1787,1205.6172 L448.2271,1205.6172 L448.2271,1188.4844" fill="#EEEEEE" style="stroke:#000000;stroke-width:1.5;"/><rect fill="none" height="147.5313" style="stroke:#000000;stroke-width:1.5;" width="626.7134" x="448.2271" y="1188.4844"/><text fill="#000000" font-family="sans-serif" font-size="13" font-weight="bold" lengthAdjust="spacing" textLength="41.9517" x="463.2271" y="1201.5513">break</text><text fill="#000000" font-family="sans-serif" font-size="11" font-weight="bold" lengthAdjust="spacing" textLength="160.7622" x="550.1787" y="1200.6948">[Token invalid or expired]</text><g class="message" data-entity-1="part5" data-entity-2="part4" id="msg23"><polygon fill="#181818" points="789.0972,1222.75,779.0972,1226.75,789.0972,1230.75,785.0972,1226.75" style="stroke:#181818;stroke-width:1;"/><line style="stroke:#181818;stroke-width:1;stroke-dasharray:2,2;" x1="783.0972" x2="1037.0869" y1="1226.75" y2="1226.75"/><text fill="#000000" font-family="sans-serif" font-size="13" font-weight="bold" lengthAdjust="spacing" textLength="18.0908" x="795.0972" y="1221.6841">23</text><text fill="#000000" font-family="sans-serif" font-size="13" lengthAdjust="spacing" textLength="86.7788" x="817.188" y="1221.6841">Token invalid</text></g><g class="message" data-entity-1="part4" data-entity-2="part3" id="msg24"><polygon fill="#181818" points="546.9946,1251.8828,536.9946,1255.8828,546.9946,1259.8828,542.9946,1255.8828" style="stroke:#181818;stroke-width:1;"/><line style="stroke:#181818;stroke-width:1;stroke-dasharray:2,2;" x1="540.9946" x2="767.0972" y1="1255.8828" y2="1255.8828"/><text fill="#000000" font-family="sans-serif" font-size="13" font-weight="bold" lengthAdjust="spacing" textLength="18.0908" x="552.9946" y="1250.8169">24</text><text fill="#000000" font-family="sans-serif" font-size="13" lengthAdjust="spacing" textLength="109.4399" x="575.0854" y="1250.8169">Error notification</text></g><g class="message" data-entity-1="part3" data-entity-2="part3" id="msg25"><line style="stroke:#181818;stroke-width:1;" x1="540.9946" x2="582.9946" y1="1285.0156" y2="1285.0156"/><line style="stroke:#181818;stroke-width:1;" x1="582.9946" x2="582.9946" y1="1285.0156" y2="1298.0156"/><line style="stroke:#181818;stroke-width:1;" x1="541.9946" x2="582.9946" y1="1298.0156" y2="1298.0156"/><polygon fill="#181818" points="551.9946,1294.0156,541.9946,1298.0156,551.9946,1302.0156,547.9946,1298.0156" style="stroke:#181818;stroke-width:1;"/><text fill="#000000" font-family="sans-serif" font-size="13" font-weight="bold" lengthAdjust="spacing" textLength="18.0908" x="547.9946" y="1279.9497">25</text><text fill="#000000" font-family="sans-serif" font-size="13" lengthAdjust="spacing" textLength="146.5928" x="570.0854" y="1279.9497">Display error message</text></g><g class="message" data-entity-1="part5" data-entity-2="part4" id="msg26"><polygon fill="#181818" points="789.0972,1360.1484,779.0972,1364.1484,789.0972,1368.1484,785.0972,1364.1484" style="stroke:#181818;stroke-width:1;"/><line style="stroke:#181818;stroke-width:1;stroke-dasharray:2,2;" x1="783.0972" x2="1042.0869" y1="1364.1484" y2="1364.1484"/><text fill="#000000" font-family="sans-serif" font-size="13" font-weight="bold" lengthAdjust="spacing" textLength="18.0908" x="795.0972" y="1359.0825">26</text><text fill="#000000" font-family="sans-serif" font-size="13" lengthAdjust="spacing" textLength="74.9277" x="817.188" y="1359.0825">Token valid</text></g><g class="message" data-entity-1="part4" data-entity-2="part3" id="msg27"><polygon fill="#181818" points="546.9946,1389.2813,536.9946,1393.2813,546.9946,1397.2813,542.9946,1393.2813" style="stroke:#181818;stroke-width:1;"/><line style="stroke:#181818;stroke-width:1;stroke-dasharray:2,2;" x1="540.9946" x2="772.0972" y1="1393.2813" y2="1393.2813"/><text fill="#000000" font-family="sans-serif" font-size="13" font-weight="bold" lengthAdjust="spacing" textLength="18.0908" x="552.9946" y="1388.2153">27</text><text fill="#000000" font-family="sans-serif" font-size="13" lengthAdjust="spacing" textLength="107.0913" x="575.0854" y="1388.2153">Show reset form</text></g><g class="message" data-entity-1="part3" data-entity-2="part3" id="msg28"><line style="stroke:#181818;stroke-width:1;" x1="540.9946" x2="582.9946" y1="1422.4141" y2="1422.4141"/><line style="stroke:#181818;stroke-width:1;" x1="582.9946" x2="582.9946" y1="1422.4141" y2="1435.4141"/><line style="stroke:#181818;stroke-width:1;" x1="541.9946" x2="582.9946" y1="1435.4141" y2="1435.4141"/><polygon fill="#181818" points="551.9946,1431.4141,541.9946,1435.4141,551.9946,1439.4141,547.9946,1435.4141" style="stroke:#181818;stroke-width:1;"/><text fill="#000000" font-family="sans-serif" font-size="13" font-weight="bold" lengthAdjust="spacing" textLength="18.0908" x="547.9946" y="1417.3481">28</text><text fill="#000000" font-family="sans-serif" font-size="13" lengthAdjust="spacing" textLength="186.0117" x="570.0854" y="1417.3481">Display password reset form</text></g><g class="message" data-entity-1="part1" data-entity-2="part3" id="msg29"><polygon fill="#181818" points="513.9946,1490.5469,523.9946,1494.5469,513.9946,1498.5469,517.9946,1494.5469" style="stroke:#181818;stroke-width:1;"/><line style="stroke:#181818;stroke-width:1;" x1="28.9551" x2="519.9946" y1="1494.5469" y2="1494.5469"/><text fill="#000000" font-family="sans-serif" font-size="13" font-weight="bold" lengthAdjust="spacing" textLength="18.0908" x="35.9551" y="1489.481">29</text><text fill="#000000" font-family="sans-serif" font-size="13" lengthAdjust="spacing" textLength="131.9741" x="58.0459" y="1489.481">Enter new password</text></g><g class="message" data-entity-1="part1" data-entity-2="part3" id="msg30"><polygon fill="#181818" points="513.9946,1519.6797,523.9946,1523.6797,513.9946,1527.6797,517.9946,1523.6797" style="stroke:#181818;stroke-width:1;"/><line style="stroke:#181818;stroke-width:1;" x1="23.9551" x2="519.9946" y1="1523.6797" y2="1523.6797"/><text fill="#000000" font-family="sans-serif" font-size="13" font-weight="bold" lengthAdjust="spacing" textLength="18.0908" x="30.9551" y="1518.6138">30</text><text fill="#000000" font-family="sans-serif" font-size="13" lengthAdjust="spacing" textLength="149.6333" x="53.0459" y="1518.6138">Click "Reset Password"</text></g><g class="message" data-entity-1="part3" data-entity-2="part3" id="msg31"><line style="stroke:#181818;stroke-width:1;" x1="540.9946" x2="582.9946" y1="1552.8125" y2="1552.8125"/><line style="stroke:#181818;stroke-width:1;" x1="582.9946" x2="582.9946" y1="1552.8125" y2="1565.8125"/><line style="stroke:#181818;stroke-width:1;" x1="541.9946" x2="582.9946" y1="1565.8125" y2="1565.8125"/><polygon fill="#181818" points="551.9946,1561.8125,541.9946,1565.8125,551.9946,1569.8125,547.9946,1565.8125" style="stroke:#181818;stroke-width:1;"/><text fill="#000000" font-family="sans-serif" font-size="13" font-weight="bold" lengthAdjust="spacing" textLength="18.0908" x="547.9946" y="1547.7466">31</text><text fill="#000000" font-family="sans-serif" font-size="13" lengthAdjust="spacing" textLength="119.4756" x="570.0854" y="1547.7466">Validate password</text></g><path d="M448.2271,1610.8125 L535.1787,1610.8125 L535.1787,1617.9453 L525.1787,1627.9453 L448.2271,1627.9453 L448.2271,1610.8125" fill="#EEEEEE" style="stroke:#000000;stroke-width:1.5;"/><rect fill="none" height="89.2656" style="stroke:#000000;stroke-width:1.5;" width="296.0308" x="448.2271" y="1610.8125"/><text fill="#000000" font-family="sans-serif" font-size="13" font-weight="bold" lengthAdjust="spacing" textLength="41.9517" x="463.2271" y="1623.8794">break</text><text fill="#000000" font-family="sans-serif" font-size="11" font-weight="bold" lengthAdjust="spacing" textLength="115.2261" x="550.1787" y="1623.0229">[Invalid password]</text><g class="message" data-entity-1="part3" data-entity-2="part3" id="msg32"><line style="stroke:#181818;stroke-width:1;" x1="540.9946" x2="582.9946" y1="1649.0781" y2="1649.0781"/><line style="stroke:#181818;stroke-width:1;" x1="582.9946" x2="582.9946" y1="1649.0781" y2="1662.0781"/><line style="stroke:#181818;stroke-width:1;" x1="541.9946" x2="582.9946" y1="1662.0781" y2="1662.0781"/><polygon fill="#181818" points="551.9946,1658.0781,541.9946,1662.0781,551.9946,1666.0781,547.9946,1662.0781" style="stroke:#181818;stroke-width:1;"/><text fill="#000000" font-family="sans-serif" font-size="13" font-weight="bold" lengthAdjust="spacing" textLength="18.0908" x="547.9946" y="1644.0122">32</text><text fill="#000000" font-family="sans-serif" font-size="13" lengthAdjust="spacing" textLength="152.1724" x="570.0854" y="1644.0122">Display validation error</text></g><g class="message" data-entity-1="part3" data-entity-2="part4" id="msg33"><polygon fill="#181818" points="756.0972,1724.2109,766.0972,1728.2109,756.0972,1732.2109,760.0972,1728.2109" style="stroke:#181818;stroke-width:1;"/><line style="stroke:#181818;stroke-width:1;" x1="535.9946" x2="762.0972" y1="1728.2109" y2="1728.2109"/><text fill="#000000" font-family="sans-serif" font-size="13" font-weight="bold" lengthAdjust="spacing" textLength="18.0908" x="542.9946" y="1723.145">33</text><text fill="#000000" font-family="sans-serif" font-size="13" lengthAdjust="spacing" textLength="143.1968" x="565.0854" y="1723.145">Submit new password</text></g><g class="message" data-entity-1="part4" data-entity-2="part4" id="msg34"><line style="stroke:#181818;stroke-width:1;" x1="783.0972" x2="825.0972" y1="1757.3438" y2="1757.3438"/><line style="stroke:#181818;stroke-width:1;" x1="825.0972" x2="825.0972" y1="1757.3438" y2="1770.3438"/><line style="stroke:#181818;stroke-width:1;" x1="784.0972" x2="825.0972" y1="1770.3438" y2="1770.3438"/><polygon fill="#181818" points="794.0972,1766.3438,784.0972,1770.3438,794.0972,1774.3438,790.0972,1770.3438" style="stroke:#181818;stroke-width:1;"/><text fill="#000000" font-family="sans-serif" font-size="13" font-weight="bold" lengthAdjust="spacing" textLength="18.0908" x="790.0972" y="1752.2778">34</text><text fill="#000000" font-family="sans-serif" font-size="13" lengthAdjust="spacing" textLength="129.835" x="812.188" y="1752.2778">Hash new password</text></g><g class="message" data-entity-1="part4" data-entity-2="part5" id="msg35"><polygon fill="#181818" points="1026.0869,1825.4766,1036.0869,1829.4766,1026.0869,1833.4766,1030.0869,1829.4766" style="stroke:#181818;stroke-width:1;"/><line style="stroke:#181818;stroke-width:1;" x1="778.0972" x2="1032.0869" y1="1829.4766" y2="1829.4766"/><text fill="#000000" font-family="sans-serif" font-size="13" font-weight="bold" lengthAdjust="spacing" textLength="18.0908" x="785.0972" y="1824.4106">35</text><text fill="#000000" font-family="sans-serif" font-size="13" lengthAdjust="spacing" textLength="218.8989" x="807.188" y="1824.4106">Update password and clear token</text></g><g class="message" data-entity-1="part5" data-entity-2="part5" id="msg36"><line style="stroke:#181818;stroke-width:1;" x1="1053.0869" x2="1095.0869" y1="1858.6094" y2="1858.6094"/><line style="stroke:#181818;stroke-width:1;" x1="1095.0869" x2="1095.0869" y1="1858.6094" y2="1871.6094"/><line style="stroke:#181818;stroke-width:1;" x1="1054.0869" x2="1095.0869" y1="1871.6094" y2="1871.6094"/><polygon fill="#181818" points="1064.0869,1867.6094,1054.0869,1871.6094,1064.0869,1875.6094,1060.0869,1871.6094" style="stroke:#181818;stroke-width:1;"/><text fill="#000000" font-family="sans-serif" font-size="13" font-weight="bold" lengthAdjust="spacing" textLength="18.0908" x="1060.0869" y="1853.5435">36</text><text fill="#000000" font-family="sans-serif" font-size="13" lengthAdjust="spacing" textLength="274.8345" x="1082.1777" y="1853.5435">Update password, set reset_token = NULL</text></g><g class="message" data-entity-1="part5" data-entity-2="part4" id="msg37"><polygon fill="#181818" points="789.0972,1926.7422,779.0972,1930.7422,789.0972,1934.7422,785.0972,1930.7422" style="stroke:#181818;stroke-width:1;"/><line style="stroke:#181818;stroke-width:1;stroke-dasharray:2,2;" x1="783.0972" x2="1042.0869" y1="1930.7422" y2="1930.7422"/><text fill="#000000" font-family="sans-serif" font-size="13" font-weight="bold" lengthAdjust="spacing" textLength="18.0908" x="795.0972" y="1925.6763">37</text><text fill="#000000" font-family="sans-serif" font-size="13" lengthAdjust="spacing" textLength="119.7231" x="817.188" y="1925.6763">Password updated</text></g><g class="message" data-entity-1="part4" data-entity-2="part3" id="msg38"><polygon fill="#181818" points="546.9946,1955.875,536.9946,1959.875,546.9946,1963.875,542.9946,1959.875" style="stroke:#181818;stroke-width:1;"/><line style="stroke:#181818;stroke-width:1;stroke-dasharray:2,2;" x1="540.9946" x2="772.0972" y1="1959.875" y2="1959.875"/><text fill="#000000" font-family="sans-serif" font-size="13" font-weight="bold" lengthAdjust="spacing" textLength="18.0908" x="552.9946" y="1954.8091">38</text><text fill="#000000" font-family="sans-serif" font-size="13" lengthAdjust="spacing" textLength="129.5684" x="575.0854" y="1954.8091">Success notification</text></g><?plantuml-src bLNRZjem47tFLunuNbIfsgTLMmbHjbi9hRP9m-lA98PO93Qr7IX_tx6TYvqBsZw0kCpbp9ap9wJMWjVLdiee8faM4b959H05QRGNDS-9lC6pa4UXtuXILo7p7QDN4_3yjkj3OgheA2B6Y4nmBKK9greNQ_UvT0rMwuXopVGDqcGJsvQ91S4kH5FidyBoc-do1Aiieqh1mUA0SzC6Fnnfds3muAjB-ixKkIGte1LX9J1-hhMfK8KPEGs-UaqtN2DGc-tzkYvPTe95GddkXeOjuwT5q7b7IfQRYgwrQKhq_RPxISa9VlABIGtp02QdaXANnOLc1vOHpGJ7mA0cmA09GevQdAlr4zWPEZAb7KRIFpLL7bZSqcfjCj84Xoye3byRXT2_J6a5-uPVRsz9b2Pjmg-QeZXi0i5ccSrdwhqKsIb8yQ0Q5JWwh1HnH6G2PGOuhycZEOw6cBuibxR7QnlmoV-tcN4hZd0baZD-zFd1gG9wh1QH7Q-iRMxh3i7rrNzGJgNvsP6dnOdoWBgmHKzaGYv14boPBk3pOu6ydfcypT2PdlEksxjBDBHEv8IGlR5-soo5_KTp6McOCAkDsfrS8B1mcl3Rb4QFXXwMWMgALVWsEjc1I2VlCUulpv5Muit1GOfgg3vZEN4lyUuIvnOqrBOZrLwXSQOPTeS2noiOb9wJjAEVDNSkfAi-b7GGXN_5tcOsKuVVZ1oF7QBbt1D_F3I7k3M74GG7O329ZoOfnBKXrtfhA8efM0F32Hqv3XKGXmfmZipnuT8M6SbZuJovVH8j0km1dauQNQsxA4A3xdAcgR-ushWRjuMFiU_fDgdt5TFXg6FPciWNeehvk3d_QOoasuKrvv8IEQ7ZaVsqMG_WdXYz6Ns5rtIx_PWHjIk2sbQzhxB_TQFe7m00?></g></svg>