<?plantuml 1.2026.1?><svg xmlns="http://www.w3.org/2000/svg" xmlns:xlink="http://www.w3.org/1999/xlink" contentStyleType="text/css" data-diagram-type="SEQUENCE" height="487px" preserveAspectRatio="none" style="width:802px;height:487px;background:#FFFFFF;" version="1.1" viewBox="0 0 802 487" width="802px" zoomAndPan="magnify"><defs/><g><g><title>Admin</title><rect fill="#FFFFFF" height="268.9297" style="stroke:#181818;stroke-width:1;" width="10" x="25.4321" y="112.4297"/></g><g><title>SkillDirectoryView</title><rect fill="#FFFFFF" height="268.9297" style="stroke:#181818;stroke-width:1;" width="10" x="250.1841" y="112.4297"/></g><g><title>SkillDirectoryView</title><rect fill="#FFFFFF" height="28" style="stroke:#181818;stroke-width:1;" width="10" x="255.1841" y="353.3594"/></g><g><title>AdminController</title><rect fill="#FFFFFF" height="159.5313" style="stroke:#181818;stroke-width:1;" width="10" x="451.1284" y="141.5625"/></g><g><title>SKILLS</title><rect fill="#FFFFFF" height="101.2656" style="stroke:#181818;stroke-width:1;" width="10" x="639.1763" y="170.6953"/></g><g><title>SKILLS</title><rect fill="#FFFFFF" height="28" style="stroke:#181818;stroke-width:1;" width="10" x="644.1763" y="207.8281"/></g><g class="participant-lifeline" data-entity-uid="part1" data-qualified-name="A" id="part1-lifeline"><g><title>Admin</title><rect fill="#000000" fill-opacity="0.00000" height="325.0625" width="8" x="26.4321" y="81.2969"/><line style="stroke:#181818;stroke-width:0.5;stroke-dasharray:5,5;" x1="30" x2="30" y1="81.2969" y2="406.3594"/></g></g><g class="participant-lifeline" data-entity-uid="part2" data-qualified-name="SDV" id="part2-lifeline"><g><title>SkillDirectoryView</title><rect fill="#000000" fill-opacity="0.00000" height="325.0625" width="8" x="251.1841" y="81.2969"/><line style="stroke:#181818;stroke-width:0.5;stroke-dasharray:5,5;" x1="254.6714" x2="254.6714" y1="81.2969" y2="406.3594"/></g></g><g class="participant-lifeline" data-entity-uid="part3" data-qualified-name="AC" id="part3-lifeline"><g><title>AdminController</title><rect fill="#000000" fill-opacity="0.00000" height="325.0625" width="8" x="452.1284" y="81.2969"/><line style="stroke:#181818;stroke-width:0.5;stroke-dasharray:5,5;" x1="456.1099" x2="456.1099" y1="81.2969" y2="406.3594"/></g></g><g class="participant-lifeline" data-entity-uid="part4" data-qualified-name="SK" id="part4-lifeline"><g><title>SKILLS</title><rect fill="#000000" fill-opacity="0.00000" height="325.0625" width="8" x="640.1763" y="81.2969"/><line style="stroke:#181818;stroke-width:0.5;stroke-dasharray:5,5;" x1="643.835" x2="643.835" y1="81.2969" y2="406.3594"/></g></g><g class="participant participant-head" data-entity-uid="part1" data-qualified-name="A" id="part1-head"><text fill="#000000" font-family="sans-serif" font-size="14" lengthAdjust="spacing" textLength="44.8643" x="5" y="77.9951">Admin</text><ellipse cx="30.4321" cy="13.5" fill="#E2E2F0" rx="8" ry="8" style="stroke:#181818;stroke-width:0.5;"/><path d="M30.4321,21.5 L30.4321,48.5 M17.4321,29.5 L43.4321,29.5 M30.4321,48.5 L17.4321,63.5 M30.4321,48.5 L43.4321,63.5" fill="none" style="stroke:#181818;stroke-width:0.5;"/></g><g class="participant participant-tail" data-entity-uid="part1" data-qualified-name="A" id="part1-tail"><text fill="#000000" font-family="sans-serif" font-size="14" lengthAdjust="spacing" textLength="44.8643" x="5" y="418.3545">Admin</text><ellipse cx="30.4321" cy="430.1563" fill="#E2E2F0" rx="8" ry="8" style="stroke:#181818;stroke-width:0.5;"/><path d="M30.4321,438.1563 L30.4321,465.1563 M17.4321,446.1563 L43.4321,446.1563 M30.4321,465.1563 L17.4321,480.1563 M30.4321,465.1563 L43.4321,480.1563" fill="none" style="stroke:#181818;stroke-width:0.5;"/></g><g class="participant participant-head" data-entity-uid="part2" data-qualified-name="SDV" id="part2-head"><text fill="#000000" font-family="sans-serif" font-size="14" lengthAdjust="spacing" textLength="127.0254" x="188.6714" y="77.9951">SkillDirectoryView</text><path d="M234.6841,37 L234.6841,61 M234.6841,49 L251.6841,49" fill="none" style="stroke:#181818;stroke-width:0.5;"/><ellipse cx="263.6841" cy="49" fill="#E2E2F0" rx="12" ry="12" style="stroke:#181818;stroke-width:0.5;"/></g><g class="participant participant-tail" data-entity-uid="part2" data-qualified-name="SDV" id="part2-tail"><text fill="#000000" font-family="sans-serif" font-size="14" lengthAdjust="spacing" textLength="127.0254" x="188.6714" y="418.3545">SkillDirectoryView</text><path d="M234.6841,425.6563 L234.6841,449.6563 M234.6841,437.6563 L251.6841,437.6563" fill="none" style="stroke:#181818;stroke-width:0.5;"/><ellipse cx="263.6841" cy="437.6563" fill="#E2E2F0" rx="12" ry="12" style="stroke:#181818;stroke-width:0.5;"/></g><g class="participant participant-head" data-entity-uid="part3" data-qualified-name="AC" id="part3-head"><text fill="#000000" font-family="sans-serif" font-size="14" lengthAdjust="spacing" textLength="114.0371" x="396.1099" y="77.9951">AdminController</text><ellipse cx="456.1284" cy="49" fill="#E2E2F0" rx="12" ry="12" style="stroke:#181818;stroke-width:0.5;"/><polygon fill="#181818" points="452.1284,37,458.1284,32,456.1284,37,458.1284,42,452.1284,37" style="stroke:#181818;stroke-width:1;"/></g><g class="participant participant-tail" data-entity-uid="part3" data-qualified-name="AC" id="part3-tail"><text fill="#000000" font-family="sans-serif" font-size="14" lengthAdjust="spacing" textLength="114.0371" x="396.1099" y="418.3545">AdminController</text><ellipse cx="456.1284" cy="437.6563" fill="#E2E2F0" rx="12" ry="12" style="stroke:#181818;stroke-width:0.5;"/><polygon fill="#181818" points="452.1284,425.6563,458.1284,420.6563,456.1284,425.6563,458.1284,430.6563,452.1284,425.6563" style="stroke:#181818;stroke-width:1;"/></g><g class="participant participant-head" data-entity-uid="part4" data-qualified-name="SK" id="part4-head"><text fill="#000000" font-family="sans-serif" font-size="14" lengthAdjust="spacing" textLength="46.6826" x="617.835" y="77.9951">SKILLS</text><ellipse cx="644.1763" cy="49" fill="#E2E2F0" rx="12" ry="12" style="stroke:#181818;stroke-width:0.5;"/><line style="stroke:#181818;stroke-width:0.5;" x1="632.1763" x2="656.1763" y1="63" y2="63"/></g><g class="participant participant-tail" data-entity-uid="part4" data-qualified-name="SK" id="part4-tail"><text fill="#000000" font-family="sans-serif" font-size="14" lengthAdjust="spacing" textLength="46.6826" x="617.835" y="418.3545">SKILLS</text><ellipse cx="644.1763" cy="437.6563" fill="#E2E2F0" rx="12" ry="12" style="stroke:#181818;stroke-width:0.5;"/><line style="stroke:#181818;stroke-width:0.5;" x1="632.1763" x2="656.1763" y1="451.6563" y2="451.6563"/></g><g><title>Admin</title><rect fill="#FFFFFF" height="268.9297" style="stroke:#181818;stroke-width:1;" width="10" x="25.4321" y="112.4297"/></g><g><title>SkillDirectoryView</title><rect fill="#FFFFFF" height="268.9297" style="stroke:#181818;stroke-width:1;" width="10" x="250.1841" y="112.4297"/></g><g><title>SkillDirectoryView</title><rect fill="#FFFFFF" height="28" style="stroke:#181818;stroke-width:1;" width="10" x="255.1841" y="353.3594"/></g><g><title>AdminController</title><rect fill="#FFFFFF" height="159.5313" style="stroke:#181818;stroke-width:1;" width="10" x="451.1284" y="141.5625"/></g><g><title>SKILLS</title><rect fill="#FFFFFF" height="101.2656" style="stroke:#181818;stroke-width:1;" width="10" x="639.1763" y="170.6953"/></g><g><title>SKILLS</title><rect fill="#FFFFFF" height="28" style="stroke:#181818;stroke-width:1;" width="10" x="644.1763" y="207.8281"/></g><g class="message" data-entity-1="part1" data-entity-2="part2" id="msg1"><polygon fill="#181818" points="238.1841,108.4297,248.1841,112.4297,238.1841,116.4297,242.1841,112.4297" style="stroke:#181818;stroke-width:1;"/><line style="stroke:#181818;stroke-width:1;" x1="35.4321" x2="244.1841" y1="112.4297" y2="112.4297"/><text fill="#000000" font-family="sans-serif" font-size="13" font-weight="bold" lengthAdjust="spacing" textLength="9.0454" x="42.4321" y="107.3638">1</text><text fill="#000000" font-family="sans-serif" font-size="13" lengthAdjust="spacing" textLength="187.7065" x="55.4775" y="107.3638">Access system skill directory</text></g><g class="message" data-entity-1="part2" data-entity-2="part3" id="msg2"><polygon fill="#181818" points="439.1284,137.5625,449.1284,141.5625,439.1284,145.5625,443.1284,141.5625" style="stroke:#181818;stroke-width:1;"/><line style="stroke:#181818;stroke-width:1;" x1="260.1841" x2="445.1284" y1="141.5625" y2="141.5625"/><text fill="#000000" font-family="sans-serif" font-size="13" font-weight="bold" lengthAdjust="spacing" textLength="9.0454" x="267.1841" y="136.4966">2</text><text fill="#000000" font-family="sans-serif" font-size="13" lengthAdjust="spacing" textLength="105.8853" x="280.2295" y="136.4966">Request skill list</text></g><g class="message" data-entity-1="part3" data-entity-2="part4" id="msg3"><polygon fill="#181818" points="627.1763,166.6953,637.1763,170.6953,627.1763,174.6953,631.1763,170.6953" style="stroke:#181818;stroke-width:1;"/><line style="stroke:#181818;stroke-width:1;" x1="461.1284" x2="633.1763" y1="170.6953" y2="170.6953"/><text fill="#000000" font-family="sans-serif" font-size="13" font-weight="bold" lengthAdjust="spacing" textLength="9.0454" x="468.1284" y="165.6294">3</text><text fill="#000000" font-family="sans-serif" font-size="13" lengthAdjust="spacing" textLength="146.0024" x="481.1738" y="165.6294">Query all system skills</text></g><g class="message" data-entity-1="part4" data-entity-2="part4" id="msg4"><line style="stroke:#181818;stroke-width:1;" x1="654.1763" x2="696.1763" y1="199.8281" y2="199.8281"/><line style="stroke:#181818;stroke-width:1;" x1="696.1763" x2="696.1763" y1="199.8281" y2="212.8281"/><line style="stroke:#181818;stroke-width:1;" x1="655.1763" x2="696.1763" y1="212.8281" y2="212.8281"/><polygon fill="#181818" points="665.1763,208.8281,655.1763,212.8281,665.1763,216.8281,661.1763,212.8281" style="stroke:#181818;stroke-width:1;"/><text fill="#000000" font-family="sans-serif" font-size="13" font-weight="bold" lengthAdjust="spacing" textLength="9.0454" x="661.1763" y="194.7622">4</text><text fill="#000000" font-family="sans-serif" font-size="13" lengthAdjust="spacing" textLength="121.7227" x="674.2217" y="194.7622">Query skill records</text></g><g class="message" data-entity-1="part4" data-entity-2="part3" id="msg5"><polygon fill="#181818" points="472.1284,267.9609,462.1284,271.9609,472.1284,275.9609,468.1284,271.9609" style="stroke:#181818;stroke-width:1;"/><line style="stroke:#181818;stroke-width:1;stroke-dasharray:2,2;" x1="466.1284" x2="643.1763" y1="271.9609" y2="271.9609"/><text fill="#000000" font-family="sans-serif" font-size="13" font-weight="bold" lengthAdjust="spacing" textLength="9.0454" x="478.1284" y="266.895">5</text><text fill="#000000" font-family="sans-serif" font-size="13" lengthAdjust="spacing" textLength="66.8027" x="491.1738" y="266.895">Skills data</text></g><g class="message" data-entity-1="part3" data-entity-2="part2" id="msg6"><polygon fill="#181818" points="271.1841,297.0938,261.1841,301.0938,271.1841,305.0938,267.1841,301.0938" style="stroke:#181818;stroke-width:1;"/><line style="stroke:#181818;stroke-width:1;stroke-dasharray:2,2;" x1="265.1841" x2="455.1284" y1="301.0938" y2="301.0938"/><text fill="#000000" font-family="sans-serif" font-size="13" font-weight="bold" lengthAdjust="spacing" textLength="9.0454" x="277.1841" y="296.0278">6</text><text fill="#000000" font-family="sans-serif" font-size="13" lengthAdjust="spacing" textLength="100.9722" x="290.2295" y="296.0278">System skill list</text></g><g class="message" data-entity-1="part2" data-entity-2="part2" id="msg7"><line style="stroke:#181818;stroke-width:1;" x1="265.1841" x2="307.1841" y1="345.3594" y2="345.3594"/><line style="stroke:#181818;stroke-width:1;" x1="307.1841" x2="307.1841" y1="345.3594" y2="358.3594"/><line style="stroke:#181818;stroke-width:1;" x1="266.1841" x2="307.1841" y1="358.3594" y2="358.3594"/><polygon fill="#181818" points="276.1841,354.3594,266.1841,358.3594,276.1841,362.3594,272.1841,358.3594" style="stroke:#181818;stroke-width:1;"/><text fill="#000000" font-family="sans-serif" font-size="13" font-weight="bold" lengthAdjust="spacing" textLength="9.0454" x="272.1841" y="332.7271">7</text><text fill="#000000" font-family="sans-serif" font-size="13" lengthAdjust="spacing" textLength="139.7627" x="285.2295" y="325.1606">Display skill directory</text><text fill="#000000" font-family="sans-serif" font-size="13" lengthAdjust="spacing" textLength="153.8989" x="285.2295" y="340.2935">(id, name for each skill)</text></g><?plantuml-src VP51JyGW48Nl_8evQcB_GBFPXD2BOIzAiYSlR1aZaO8oeEc_5-Xgw1uyDEaatvltvg5p2Zul5uoCwJc52DmireCcuEmIiZSwhg3UhNEJZLY9zMpnkm9gEhCv-1I3srHY6np6fXSCVRAfoENZwQIQH3B6OJXMxGXydf48QAM42r0r0VFhKkFOBvsm1FdxhPRbgnku6E4PFpDIkagTfTIf1EEYMSaHdZAMCtI1UZFg5akcv9xUbfOq8PezQR2VYijX69gmzKHWTD8tK0rTgPfQzVUsq1rRObyFR1LDbZwSNc_BUV5trZo0rml2Qtcqed_RcFjzMNsAVqVEVW00?></g></svg>