<?plantuml 1.2026.1?><svg xmlns="http://www.w3.org/2000/svg" xmlns:xlink="http://www.w3.org/1999/xlink" contentStyleType="text/css" data-diagram-type="SEQUENCE" height="896px" preserveAspectRatio="none" style="width:997px;height:896px;background:#FFFFFF;" version="1.1" viewBox="0 0 997 896" width="997px" zoomAndPan="magnify"><defs/><g><g><title>User</title><rect fill="#FFFFFF" height="249.1953" style="stroke:#181818;stroke-width:1;" width="10" x="18.9551" y="112.4297"/></g><g><title>CreateTaskView</title><rect fill="#FFFFFF" height="678.3906" style="stroke:#181818;stroke-width:1;" width="10" x="211.7808" y="112.4297"/></g><g><title>CreateTaskView</title><rect fill="#FFFFFF" height="28" style="stroke:#181818;stroke-width:1;" width="10" x="216.7808" y="268.3594"/></g><g><title>CreateTaskView</title><rect fill="#FFFFFF" height="28" style="stroke:#181818;stroke-width:1;" width="10" x="216.7808" y="398.7578"/></g><g><title>CreateTaskView</title><rect fill="#FFFFFF" height="28" style="stroke:#181818;stroke-width:1;" width="10" x="216.7808" y="495.0234"/></g><g><title>CreateTaskView</title><rect fill="#FFFFFF" height="28" style="stroke:#181818;stroke-width:1;" width="10" x="216.7808" y="762.8203"/></g><g><title>TaskController</title><rect fill="#FFFFFF" height="649.2578" style="stroke:#181818;stroke-width:1;" width="10" x="508.3862" y="141.5625"/></g><g><title>TASKS</title><rect fill="#FFFFFF" height="101.2656" style="stroke:#181818;stroke-width:1;" width="10" x="751.3398" y="595.2891"/></g><g><title>TASKS</title><rect fill="#FFFFFF" height="28" style="stroke:#181818;stroke-width:1;" width="10" x="756.3398" y="632.4219"/></g><rect fill="none" height="89.2656" style="stroke:#000000;stroke-width:1.5;" width="280.4351" x="147.3364" y="448.7578"/><g class="participant-lifeline" data-entity-uid="part1" data-qualified-name="U" id="part1-lifeline"><g><title>User</title><rect fill="#000000" fill-opacity="0.00000" height="734.5234" width="8" x="19.9551" y="81.2969"/><line style="stroke:#181818;stroke-width:0.5;stroke-dasharray:5,5;" x1="23" x2="23" y1="81.2969" y2="815.8203"/></g></g><g class="participant-lifeline" data-entity-uid="part2" data-qualified-name="CTV" id="part2-lifeline"><g><title>CreateTaskView</title><rect fill="#000000" fill-opacity="0.00000" height="734.5234" width="8" x="212.7808" y="81.2969"/><line style="stroke:#181818;stroke-width:0.5;stroke-dasharray:5,5;" x1="216.3364" x2="216.3364" y1="81.2969" y2="815.8203"/></g></g><g class="participant-lifeline" data-entity-uid="part3" data-qualified-name="TC" id="part3-lifeline"><g><title>TaskController</title><rect fill="#000000" fill-opacity="0.00000" height="734.5234" width="8" x="509.3862" y="81.2969"/><line style="stroke:#181818;stroke-width:0.5;stroke-dasharray:5,5;" x1="512.5337" x2="512.5337" y1="81.2969" y2="815.8203"/></g></g><g class="participant-lifeline" data-entity-uid="part4" data-qualified-name="PM" id="part4-lifeline"><g><title>PROJECT_MEMBERS</title><rect fill="#000000" fill-opacity="0.00000" height="734.5234" width="8" x="645.0186" y="81.2969"/><line style="stroke:#181818;stroke-width:0.5;stroke-dasharray:5,5;" x1="648.2388" x2="648.2388" y1="81.2969" y2="815.8203"/></g></g><g class="participant-lifeline" data-entity-uid="part5" data-qualified-name="T" id="part5-lifeline"><g><title>TASKS</title><rect fill="#000000" fill-opacity="0.00000" height="734.5234" width="8" x="752.3398" y="81.2969"/><line style="stroke:#181818;stroke-width:0.5;stroke-dasharray:5,5;" x1="755.7983" x2="755.7983" y1="81.2969" y2="815.8203"/></g></g><g class="participant participant-head" data-entity-uid="part1" data-qualified-name="U" id="part1-head"><text fill="#000000" font-family="sans-serif" font-size="14" lengthAdjust="spacing" textLength="31.9102" x="5" y="77.9951">User</text><ellipse cx="23.9551" cy="13.5" fill="#E2E2F0" rx="8" ry="8" style="stroke:#181818;stroke-width:0.5;"/><path d="M23.9551,21.5 L23.9551,48.5 M10.9551,29.5 L36.9551,29.5 M23.9551,48.5 L10.9551,63.5 M23.9551,48.5 L36.9551,63.5" fill="none" style="stroke:#181818;stroke-width:0.5;"/></g><g class="participant participant-tail" data-entity-uid="part1" data-qualified-name="U" id="part1-tail"><text fill="#000000" font-family="sans-serif" font-size="14" lengthAdjust="spacing" textLength="31.9102" x="5" y="827.8154">User</text><ellipse cx="23.9551" cy="839.6172" fill="#E2E2F0" rx="8" ry="8" style="stroke:#181818;stroke-width:0.5;"/><path d="M23.9551,847.6172 L23.9551,874.6172 M10.9551,855.6172 L36.9551,855.6172 M23.9551,874.6172 L10.9551,889.6172 M23.9551,874.6172 L36.9551,889.6172" fill="none" style="stroke:#181818;stroke-width:0.5;"/></g><g class="participant participant-head" data-entity-uid="part2" data-qualified-name="CTV" id="part2-head"><text fill="#000000" font-family="sans-serif" font-size="14" lengthAdjust="spacing" textLength="112.8887" x="157.3364" y="77.9951">CreateTaskView</text><path d="M196.2808,37 L196.2808,61 M196.2808,49 L213.2808,49" fill="none" style="stroke:#181818;stroke-width:0.5;"/><ellipse cx="225.2808" cy="49" fill="#E2E2F0" rx="12" ry="12" style="stroke:#181818;stroke-width:0.5;"/></g><g class="participant participant-tail" data-entity-uid="part2" data-qualified-name="CTV" id="part2-tail"><text fill="#000000" font-family="sans-serif" font-size="14" lengthAdjust="spacing" textLength="112.8887" x="157.3364" y="827.8154">CreateTaskView</text><path d="M196.2808,835.1172 L196.2808,859.1172 M196.2808,847.1172 L213.2808,847.1172" fill="none" style="stroke:#181818;stroke-width:0.5;"/><ellipse cx="225.2808" cy="847.1172" fill="#E2E2F0" rx="12" ry="12" style="stroke:#181818;stroke-width:0.5;"/></g><g class="participant participant-head" data-entity-uid="part3" data-qualified-name="TC" id="part3-head"><text fill="#000000" font-family="sans-serif" font-size="14" lengthAdjust="spacing" textLength="101.7051" x="459.5337" y="77.9951">TaskController</text><ellipse cx="513.3862" cy="49" fill="#E2E2F0" rx="12" ry="12" style="stroke:#181818;stroke-width:0.5;"/><polygon fill="#181818" points="509.3862,37,515.3862,32,513.3862,37,515.3862,42,509.3862,37" style="stroke:#181818;stroke-width:1;"/></g><g class="participant participant-tail" data-entity-uid="part3" data-qualified-name="TC" id="part3-tail"><text fill="#000000" font-family="sans-serif" font-size="14" lengthAdjust="spacing" textLength="101.7051" x="459.5337" y="827.8154">TaskController</text><ellipse cx="513.3862" cy="847.1172" fill="#E2E2F0" rx="12" ry="12" style="stroke:#181818;stroke-width:0.5;"/><polygon fill="#181818" points="509.3862,835.1172,515.3862,830.1172,513.3862,835.1172,515.3862,840.1172,509.3862,835.1172" style="stroke:#181818;stroke-width:1;"/></g><g class="participant participant-head" data-entity-uid="part4" data-qualified-name="PM" id="part4-head"><text fill="#000000" font-family="sans-serif" font-size="14" lengthAdjust="spacing" textLength="137.5596" x="577.2388" y="77.9951">PROJECT_MEMBERS</text><ellipse cx="649.0186" cy="49" fill="#E2E2F0" rx="12" ry="12" style="stroke:#181818;stroke-width:0.5;"/><line style="stroke:#181818;stroke-width:0.5;" x1="637.0186" x2="661.0186" y1="63" y2="63"/></g><g class="participant participant-tail" data-entity-uid="part4" data-qualified-name="PM" id="part4-tail"><text fill="#000000" font-family="sans-serif" font-size="14" lengthAdjust="spacing" textLength="137.5596" x="577.2388" y="827.8154">PROJECT_MEMBERS</text><ellipse cx="649.0186" cy="847.1172" fill="#E2E2F0" rx="12" ry="12" style="stroke:#181818;stroke-width:0.5;"/><line style="stroke:#181818;stroke-width:0.5;" x1="637.0186" x2="661.0186" y1="861.1172" y2="861.1172"/></g><g class="participant participant-head" data-entity-uid="part5" data-qualified-name="T" id="part5-head"><text fill="#000000" font-family="sans-serif" font-size="14" lengthAdjust="spacing" textLength="45.083" x="730.7983" y="77.9951">TASKS</text><ellipse cx="756.3398" cy="49" fill="#E2E2F0" rx="12" ry="12" style="stroke:#181818;stroke-width:0.5;"/><line style="stroke:#181818;stroke-width:0.5;" x1="744.3398" x2="768.3398" y1="63" y2="63"/></g><g class="participant participant-tail" data-entity-uid="part5" data-qualified-name="T" id="part5-tail"><text fill="#000000" font-family="sans-serif" font-size="14" lengthAdjust="spacing" textLength="45.083" x="730.7983" y="827.8154">TASKS</text><ellipse cx="756.3398" cy="847.1172" fill="#E2E2F0" rx="12" ry="12" style="stroke:#181818;stroke-width:0.5;"/><line style="stroke:#181818;stroke-width:0.5;" x1="744.3398" x2="768.3398" y1="861.1172" y2="861.1172"/></g><g><title>User</title><rect fill="#FFFFFF" height="249.1953" style="stroke:#181818;stroke-width:1;" width="10" x="18.9551" y="112.4297"/></g><g><title>CreateTaskView</title><rect fill="#FFFFFF" height="678.3906" style="stroke:#181818;stroke-width:1;" width="10" x="211.7808" y="112.4297"/></g><g><title>CreateTaskView</title><rect fill="#FFFFFF" height="28" style="stroke:#181818;stroke-width:1;" width="10" x="216.7808" y="268.3594"/></g><g><title>CreateTaskView</title><rect fill="#FFFFFF" height="28" style="stroke:#181818;stroke-width:1;" width="10" x="216.7808" y="398.7578"/></g><g><title>CreateTaskView</title><rect fill="#FFFFFF" height="28" style="stroke:#181818;stroke-width:1;" width="10" x="216.7808" y="495.0234"/></g><g><title>CreateTaskView</title><rect fill="#FFFFFF" height="28" style="stroke:#181818;stroke-width:1;" width="10" x="216.7808" y="762.8203"/></g><g><title>TaskController</title><rect fill="#FFFFFF" height="649.2578" style="stroke:#181818;stroke-width:1;" width="10" x="508.3862" y="141.5625"/></g><g><title>TASKS</title><rect fill="#FFFFFF" height="101.2656" style="stroke:#181818;stroke-width:1;" width="10" x="751.3398" y="595.2891"/></g><g><title>TASKS</title><rect fill="#FFFFFF" height="28" style="stroke:#181818;stroke-width:1;" width="10" x="756.3398" y="632.4219"/></g><g class="message" data-entity-1="part1" data-entity-2="part2" id="msg1"><polygon fill="#181818" points="199.7808,108.4297,209.7808,112.4297,199.7808,116.4297,203.7808,112.4297" style="stroke:#181818;stroke-width:1;"/><line style="stroke:#181818;stroke-width:1;" x1="28.9551" x2="205.7808" y1="112.4297" y2="112.4297"/><text fill="#000000" font-family="sans-serif" font-size="13" font-weight="bold" lengthAdjust="spacing" textLength="9.0454" x="35.9551" y="107.3638">1</text><text fill="#000000" font-family="sans-serif" font-size="13" lengthAdjust="spacing" textLength="124.8901" x="49.0005" y="107.3638">Click "Create Task"</text></g><g class="message" data-entity-1="part2" data-entity-2="part3" id="msg2"><polygon fill="#181818" points="496.3862,137.5625,506.3862,141.5625,496.3862,145.5625,500.3862,141.5625" style="stroke:#181818;stroke-width:1;"/><line style="stroke:#181818;stroke-width:1;" x1="221.7808" x2="502.3862" y1="141.5625" y2="141.5625"/><text fill="#000000" font-family="sans-serif" font-size="13" font-weight="bold" lengthAdjust="spacing" textLength="9.0454" x="228.7808" y="136.4966">2</text><text fill="#000000" font-family="sans-serif" font-size="13" lengthAdjust="spacing" textLength="254.5601" x="241.8262" y="136.4966">Initialize create (project_id, parent_id?)</text></g><g class="message" data-entity-1="part3" data-entity-2="part2" id="msg3"><polygon fill="#181818" points="232.7808,166.6953,222.7808,170.6953,232.7808,174.6953,228.7808,170.6953" style="stroke:#181818;stroke-width:1;"/><line style="stroke:#181818;stroke-width:1;stroke-dasharray:2,2;" x1="226.7808" x2="507.3862" y1="170.6953" y2="170.6953"/><text fill="#000000" font-family="sans-serif" font-size="13" font-weight="bold" lengthAdjust="spacing" textLength="9.0454" x="238.7808" y="165.6294">3</text><text fill="#000000" font-family="sans-serif" font-size="13" lengthAdjust="spacing" textLength="74.8262" x="251.8262" y="165.6294">Form ready</text></g><g class="message" data-entity-1="part2" data-entity-2="part2" id="msg4"><line style="stroke:#181818;stroke-width:1;" x1="226.7808" x2="268.7808" y1="260.3594" y2="260.3594"/><line style="stroke:#181818;stroke-width:1;" x1="268.7808" x2="268.7808" y1="260.3594" y2="273.3594"/><line style="stroke:#181818;stroke-width:1;" x1="227.7808" x2="268.7808" y1="273.3594" y2="273.3594"/><polygon fill="#181818" points="237.7808,269.3594,227.7808,273.3594,237.7808,277.3594,233.7808,273.3594" style="stroke:#181818;stroke-width:1;"/><text fill="#000000" font-family="sans-serif" font-size="13" font-weight="bold" lengthAdjust="spacing" textLength="9.0454" x="233.7808" y="225.0278">4</text><text fill="#000000" font-family="sans-serif" font-size="13" lengthAdjust="spacing" textLength="159.7705" x="246.8262" y="194.7622">Display create task form</text><text fill="#000000" font-family="sans-serif" font-size="13" lengthAdjust="spacing" textLength="170.3394" x="246.8262" y="209.895">(title, description, priority,</text><text fill="#000000" font-family="sans-serif" font-size="13" lengthAdjust="spacing" textLength="179.8989" x="246.8262" y="225.0278">sprint, tags, difficulty_level,</text><text fill="#000000" font-family="sans-serif" font-size="13" lengthAdjust="spacing" textLength="225.0562" x="246.8262" y="240.1606">required_skills, assignee, reporter,</text><text fill="#000000" font-family="sans-serif" font-size="13" lengthAdjust="spacing" textLength="97.665" x="246.8262" y="255.2935">start/due date)</text></g><g class="message" data-entity-1="part1" data-entity-2="part2" id="msg5"><polygon fill="#181818" points="199.7808,328.4922,209.7808,332.4922,199.7808,336.4922,203.7808,332.4922" style="stroke:#181818;stroke-width:1;"/><line style="stroke:#181818;stroke-width:1;" x1="28.9551" x2="205.7808" y1="332.4922" y2="332.4922"/><text fill="#000000" font-family="sans-serif" font-size="13" font-weight="bold" lengthAdjust="spacing" textLength="9.0454" x="35.9551" y="327.4263">5</text><text fill="#000000" font-family="sans-serif" font-size="13" lengthAdjust="spacing" textLength="145.7803" x="49.0005" y="327.4263">Enter task information</text></g><g class="message" data-entity-1="part1" data-entity-2="part2" id="msg6"><polygon fill="#181818" points="199.7808,357.625,209.7808,361.625,199.7808,365.625,203.7808,361.625" style="stroke:#181818;stroke-width:1;"/><line style="stroke:#181818;stroke-width:1;" x1="23.9551" x2="205.7808" y1="361.625" y2="361.625"/><text fill="#000000" font-family="sans-serif" font-size="13" font-weight="bold" lengthAdjust="spacing" textLength="9.0454" x="30.9551" y="356.5591">6</text><text fill="#000000" font-family="sans-serif" font-size="13" lengthAdjust="spacing" textLength="90.5493" x="44.0005" y="356.5591">Click "Create"</text></g><g class="message" data-entity-1="part2" data-entity-2="part2" id="msg7"><line style="stroke:#181818;stroke-width:1;" x1="226.7808" x2="268.7808" y1="390.7578" y2="390.7578"/><line style="stroke:#181818;stroke-width:1;" x1="268.7808" x2="268.7808" y1="390.7578" y2="403.7578"/><line style="stroke:#181818;stroke-width:1;" x1="227.7808" x2="268.7808" y1="403.7578" y2="403.7578"/><polygon fill="#181818" points="237.7808,399.7578,227.7808,403.7578,237.7808,407.7578,233.7808,403.7578" style="stroke:#181818;stroke-width:1;"/><text fill="#000000" font-family="sans-serif" font-size="13" font-weight="bold" lengthAdjust="spacing" textLength="9.0454" x="233.7808" y="385.6919">7</text><text fill="#000000" font-family="sans-serif" font-size="13" lengthAdjust="spacing" textLength="86.8105" x="246.8262" y="385.6919">Validate data</text></g><path d="M147.3364,448.7578 L234.2881,448.7578 L234.2881,455.8906 L224.2881,465.8906 L147.3364,465.8906 L147.3364,448.7578" fill="#EEEEEE" style="stroke:#000000;stroke-width:1.5;"/><rect fill="none" height="89.2656" style="stroke:#000000;stroke-width:1.5;" width="280.4351" x="147.3364" y="448.7578"/><text fill="#000000" font-family="sans-serif" font-size="13" font-weight="bold" lengthAdjust="spacing" textLength="41.9517" x="162.3364" y="461.8247">break</text><text fill="#000000" font-family="sans-serif" font-size="11" font-weight="bold" lengthAdjust="spacing" textLength="83.7944" x="249.2881" y="460.9683">[Invalid data]</text><g class="message" data-entity-1="part2" data-entity-2="part2" id="msg8"><line style="stroke:#181818;stroke-width:1;" x1="226.7808" x2="268.7808" y1="487.0234" y2="487.0234"/><line style="stroke:#181818;stroke-width:1;" x1="268.7808" x2="268.7808" y1="487.0234" y2="500.0234"/><line style="stroke:#181818;stroke-width:1;" x1="227.7808" x2="268.7808" y1="500.0234" y2="500.0234"/><polygon fill="#181818" points="237.7808,496.0234,227.7808,500.0234,237.7808,504.0234,233.7808,500.0234" style="stroke:#181818;stroke-width:1;"/><text fill="#000000" font-family="sans-serif" font-size="13" font-weight="bold" lengthAdjust="spacing" textLength="9.0454" x="233.7808" y="481.9575">8</text><text fill="#000000" font-family="sans-serif" font-size="13" lengthAdjust="spacing" textLength="158.9453" x="246.8262" y="481.9575">Display validation errors</text></g><g class="message" data-entity-1="part2" data-entity-2="part3" id="msg9"><polygon fill="#181818" points="496.3862,562.1563,506.3862,566.1563,496.3862,570.1563,500.3862,566.1563" style="stroke:#181818;stroke-width:1;"/><line style="stroke:#181818;stroke-width:1;" x1="221.7808" x2="502.3862" y1="566.1563" y2="566.1563"/><text fill="#000000" font-family="sans-serif" font-size="13" font-weight="bold" lengthAdjust="spacing" textLength="9.0454" x="228.7808" y="561.0903">9</text><text fill="#000000" font-family="sans-serif" font-size="13" lengthAdjust="spacing" textLength="132.2598" x="241.8262" y="561.0903">Send create request</text></g><g class="message" data-entity-1="part3" data-entity-2="part5" id="msg10"><polygon fill="#181818" points="739.3398,591.2891,749.3398,595.2891,739.3398,599.2891,743.3398,595.2891" style="stroke:#181818;stroke-width:1;"/><line style="stroke:#181818;stroke-width:1;" x1="518.3862" x2="745.3398" y1="595.2891" y2="595.2891"/><text fill="#000000" font-family="sans-serif" font-size="13" font-weight="bold" lengthAdjust="spacing" textLength="18.0908" x="525.3862" y="590.2231">10</text><text fill="#000000" font-family="sans-serif" font-size="13" lengthAdjust="spacing" textLength="99.7852" x="547.4771" y="590.2231">Insert new task</text></g><g class="message" data-entity-1="part5" data-entity-2="part5" id="msg11"><line style="stroke:#181818;stroke-width:1;" x1="766.3398" x2="808.3398" y1="624.4219" y2="624.4219"/><line style="stroke:#181818;stroke-width:1;" x1="808.3398" x2="808.3398" y1="624.4219" y2="637.4219"/><line style="stroke:#181818;stroke-width:1;" x1="767.3398" x2="808.3398" y1="637.4219" y2="637.4219"/><polygon fill="#181818" points="777.3398,633.4219,767.3398,637.4219,777.3398,641.4219,773.3398,637.4219" style="stroke:#181818;stroke-width:1;"/><text fill="#000000" font-family="sans-serif" font-size="13" font-weight="bold" lengthAdjust="spacing" textLength="18.0908" x="773.3398" y="619.356">11</text><text fill="#000000" font-family="sans-serif" font-size="13" lengthAdjust="spacing" textLength="195.2539" x="795.4307" y="619.356">Insert record (status = TODO)</text></g><g class="message" data-entity-1="part5" data-entity-2="part3" id="msg12"><polygon fill="#181818" points="529.3862,692.5547,519.3862,696.5547,529.3862,700.5547,525.3862,696.5547" style="stroke:#181818;stroke-width:1;"/><line style="stroke:#181818;stroke-width:1;stroke-dasharray:2,2;" x1="523.3862" x2="755.3398" y1="696.5547" y2="696.5547"/><text fill="#000000" font-family="sans-serif" font-size="13" font-weight="bold" lengthAdjust="spacing" textLength="18.0908" x="535.3862" y="691.4888">12</text><text fill="#000000" font-family="sans-serif" font-size="13" lengthAdjust="spacing" textLength="84.1445" x="557.4771" y="691.4888">Task created</text></g><g class="message" data-entity-1="part3" data-entity-2="part2" id="msg13"><polygon fill="#181818" points="232.7808,721.6875,222.7808,725.6875,232.7808,729.6875,228.7808,725.6875" style="stroke:#181818;stroke-width:1;"/><line style="stroke:#181818;stroke-width:1;stroke-dasharray:2,2;" x1="226.7808" x2="507.3862" y1="725.6875" y2="725.6875"/><text fill="#000000" font-family="sans-serif" font-size="13" font-weight="bold" lengthAdjust="spacing" textLength="18.0908" x="238.7808" y="720.6216">13</text><text fill="#000000" font-family="sans-serif" font-size="13" lengthAdjust="spacing" textLength="129.5684" x="260.8716" y="720.6216">Success notification</text></g><g class="message" data-entity-1="part2" data-entity-2="part2" id="msg14"><line style="stroke:#181818;stroke-width:1;" x1="226.7808" x2="268.7808" y1="754.8203" y2="754.8203"/><line style="stroke:#181818;stroke-width:1;" x1="268.7808" x2="268.7808" y1="754.8203" y2="767.8203"/><line style="stroke:#181818;stroke-width:1;" x1="227.7808" x2="268.7808" y1="767.8203" y2="767.8203"/><polygon fill="#181818" points="237.7808,763.8203,227.7808,767.8203,237.7808,771.8203,233.7808,767.8203" style="stroke:#181818;stroke-width:1;"/><text fill="#000000" font-family="sans-serif" font-size="13" font-weight="bold" lengthAdjust="spacing" textLength="18.0908" x="233.7808" y="749.7544">14</text><text fill="#000000" font-family="sans-serif" font-size="13" lengthAdjust="spacing" textLength="186.418" x="255.8716" y="749.7544">Display success and redirect</text></g><?plantuml-src VL9TRnen47pthrZnH2HGtr4_r5wer5Q8A1YU8Y5ZBv6BOr_NUrJNNz_rNIXtKHeUaC-xEpEU7TDmYitJ0KafOpaHR3CIc0nRTKXDT8PQg0WDepRvjFFuknGhlLCsHQOKeDnN_JdqexfI6Dbp2tVtw-_BIkzNozMNvVsc5EzMbwB-lFdHNMcbjZ3_M50NK0LlJp3fEJlmIL7cp-LpUpqM2Kh-og2k5l0jUlOc-3y8jf-TrfH-ekMzTpEe3Gcj73_TN354Q0VnVZxlCBucUW8PTkq_w4xJhSzrCEq5c4KK7ANt8Kxb9G5du31RyZNx58MBV29vuUmXPZb7did8OvOkVpnwsmHkzm7F6AI1y5VZ2Tq-dtm8qcDozeyH1PEmJiH81OODyJlN83WHS3DsmU7ObAkNooZZlLmVYs1J1FxFxCaGQJjsO2VE5kh2RzwcFmZOITPnBYDzFyZlDJ_FFQfe0YHAbBlE4LovUC60qOqslv6BosgAdPXPALrrvP8B2JH3bE0M8mRBLthSGcWJEPYAsTna-01wVRiUfcNuL5qOkjmikf0-2t3Zdb6wDesrc3F4n5vYqE_YrPpbvquZ3vDiI3uilstwaBLwMVqB?></g></svg>