<?plantuml 1.2026.1?><svg xmlns="http://www.w3.org/2000/svg" xmlns:xlink="http://www.w3.org/1999/xlink" contentStyleType="text/css" data-diagram-type="SEQUENCE" height="574px" preserveAspectRatio="none" style="width:1007px;height:574px;background:#FFFFFF;" version="1.1" viewBox="0 0 1007 574" width="1007px" zoomAndPan="magnify"><defs/><g><g><title>User</title><rect fill="#FFFFFF" height="356.1953" style="stroke:#181818;stroke-width:1;" width="10" x="18.9551" y="112.4297"/></g><g><title>NotificationView</title><rect fill="#FFFFFF" height="356.1953" style="stroke:#181818;stroke-width:1;" width="10" x="218.1704" y="112.4297"/></g><g><title>NotificationView</title><rect fill="#FFFFFF" height="28" style="stroke:#181818;stroke-width:1;" width="10" x="223.1704" y="368.4922"/></g><g><title>NotificationView</title><rect fill="#FFFFFF" height="28" style="stroke:#181818;stroke-width:1;" width="10" x="223.1704" y="440.625"/></g><g><title>NotificationController</title><rect fill="#FFFFFF" height="159.5313" style="stroke:#181818;stroke-width:1;" width="10" x="458.54" y="141.5625"/></g><g><title>NOTIFICATIONS</title><rect fill="#FFFFFF" height="101.2656" style="stroke:#181818;stroke-width:1;" width="10" x="678.5991" y="170.6953"/></g><g><title>NOTIFICATIONS</title><rect fill="#FFFFFF" height="28" style="stroke:#181818;stroke-width:1;" width="10" x="683.5991" y="207.8281"/></g><g class="participant-lifeline" data-entity-uid="part1" data-qualified-name="U" id="part1-lifeline"><g><title>User</title><rect fill="#000000" fill-opacity="0.00000" height="412.3281" width="8" x="19.9551" y="81.2969"/><line style="stroke:#181818;stroke-width:0.5;stroke-dasharray:5,5;" x1="23" x2="23" y1="81.2969" y2="493.625"/></g></g><g class="participant-lifeline" data-entity-uid="part2" data-qualified-name="NV" id="part2-lifeline"><g><title>NotificationView</title><rect fill="#000000" fill-opacity="0.00000" height="412.3281" width="8" x="219.1704" y="81.2969"/><line style="stroke:#181818;stroke-width:0.5;stroke-dasharray:5,5;" x1="222.2407" x2="222.2407" y1="81.2969" y2="493.625"/></g></g><g class="participant-lifeline" data-entity-uid="part3" data-qualified-name="NC" id="part3-lifeline"><g><title>NotificationController</title><rect fill="#000000" fill-opacity="0.00000" height="412.3281" width="8" x="459.54" y="81.2969"/><line style="stroke:#181818;stroke-width:0.5;stroke-dasharray:5,5;" x1="462.7891" x2="462.7891" y1="81.2969" y2="493.625"/></g></g><g class="participant-lifeline" data-entity-uid="part4" data-qualified-name="N" id="part4-lifeline"><g><title>NOTIFICATIONS</title><rect fill="#000000" fill-opacity="0.00000" height="412.3281" width="8" x="679.5991" y="81.2969"/><line style="stroke:#181818;stroke-width:0.5;stroke-dasharray:5,5;" x1="683.2158" x2="683.2158" y1="81.2969" y2="493.625"/></g></g><g class="participant participant-head" data-entity-uid="part1" data-qualified-name="U" id="part1-head"><text fill="#000000" font-family="sans-serif" font-size="14" lengthAdjust="spacing" textLength="31.9102" x="5" y="77.9951">User</text><ellipse cx="23.9551" cy="13.5" fill="#E2E2F0" rx="8" ry="8" style="stroke:#181818;stroke-width:0.5;"/><path d="M23.9551,21.5 L23.9551,48.5 M10.9551,29.5 L36.9551,29.5 M23.9551,48.5 L10.9551,63.5 M23.9551,48.5 L36.9551,63.5" fill="none" style="stroke:#181818;stroke-width:0.5;"/></g><g class="participant participant-tail" data-entity-uid="part1" data-qualified-name="U" id="part1-tail"><text fill="#000000" font-family="sans-serif" font-size="14" lengthAdjust="spacing" textLength="31.9102" x="5" y="505.6201">User</text><ellipse cx="23.9551" cy="517.4219" fill="#E2E2F0" rx="8" ry="8" style="stroke:#181818;stroke-width:0.5;"/><path d="M23.9551,525.4219 L23.9551,552.4219 M10.9551,533.4219 L36.9551,533.4219 M23.9551,552.4219 L10.9551,567.4219 M23.9551,552.4219 L36.9551,567.4219" fill="none" style="stroke:#181818;stroke-width:0.5;"/></g><g class="participant participant-head" data-entity-uid="part2" data-qualified-name="NV" id="part2-head"><text fill="#000000" font-family="sans-serif" font-size="14" lengthAdjust="spacing" textLength="113.8594" x="163.2407" y="77.9951">NotificationView</text><path d="M202.6704,37 L202.6704,61 M202.6704,49 L219.6704,49" fill="none" style="stroke:#181818;stroke-width:0.5;"/><ellipse cx="231.6704" cy="49" fill="#E2E2F0" rx="12" ry="12" style="stroke:#181818;stroke-width:0.5;"/></g><g class="participant participant-tail" data-entity-uid="part2" data-qualified-name="NV" id="part2-tail"><text fill="#000000" font-family="sans-serif" font-size="14" lengthAdjust="spacing" textLength="113.8594" x="163.2407" y="505.6201">NotificationView</text><path d="M202.6704,512.9219 L202.6704,536.9219 M202.6704,524.9219 L219.6704,524.9219" fill="none" style="stroke:#181818;stroke-width:0.5;"/><ellipse cx="231.6704" cy="524.9219" fill="#E2E2F0" rx="12" ry="12" style="stroke:#181818;stroke-width:0.5;"/></g><g class="participant participant-head" data-entity-uid="part3" data-qualified-name="NC" id="part3-head"><text fill="#000000" font-family="sans-serif" font-size="14" lengthAdjust="spacing" textLength="149.502" x="385.7891" y="77.9951">NotificationController</text><ellipse cx="463.54" cy="49" fill="#E2E2F0" rx="12" ry="12" style="stroke:#181818;stroke-width:0.5;"/><polygon fill="#181818" points="459.54,37,465.54,32,463.54,37,465.54,42,459.54,37" style="stroke:#181818;stroke-width:1;"/></g><g class="participant participant-tail" data-entity-uid="part3" data-qualified-name="NC" id="part3-tail"><text fill="#000000" font-family="sans-serif" font-size="14" lengthAdjust="spacing" textLength="149.502" x="385.7891" y="505.6201">NotificationController</text><ellipse cx="463.54" cy="524.9219" fill="#E2E2F0" rx="12" ry="12" style="stroke:#181818;stroke-width:0.5;"/><polygon fill="#181818" points="459.54,512.9219,465.54,507.9219,463.54,512.9219,465.54,517.9219,459.54,512.9219" style="stroke:#181818;stroke-width:1;"/></g><g class="participant participant-head" data-entity-uid="part4" data-qualified-name="N" id="part4-head"><text fill="#000000" font-family="sans-serif" font-size="14" lengthAdjust="spacing" textLength="108.7666" x="626.2158" y="77.9951">NOTIFICATIONS</text><ellipse cx="683.5991" cy="49" fill="#E2E2F0" rx="12" ry="12" style="stroke:#181818;stroke-width:0.5;"/><line style="stroke:#181818;stroke-width:0.5;" x1="671.5991" x2="695.5991" y1="63" y2="63"/></g><g class="participant participant-tail" data-entity-uid="part4" data-qualified-name="N" id="part4-tail"><text fill="#000000" font-family="sans-serif" font-size="14" lengthAdjust="spacing" textLength="108.7666" x="626.2158" y="505.6201">NOTIFICATIONS</text><ellipse cx="683.5991" cy="524.9219" fill="#E2E2F0" rx="12" ry="12" style="stroke:#181818;stroke-width:0.5;"/><line style="stroke:#181818;stroke-width:0.5;" x1="671.5991" x2="695.5991" y1="538.9219" y2="538.9219"/></g><g><title>User</title><rect fill="#FFFFFF" height="356.1953" style="stroke:#181818;stroke-width:1;" width="10" x="18.9551" y="112.4297"/></g><g><title>NotificationView</title><rect fill="#FFFFFF" height="356.1953" style="stroke:#181818;stroke-width:1;" width="10" x="218.1704" y="112.4297"/></g><g><title>NotificationView</title><rect fill="#FFFFFF" height="28" style="stroke:#181818;stroke-width:1;" width="10" x="223.1704" y="368.4922"/></g><g><title>NotificationView</title><rect fill="#FFFFFF" height="28" style="stroke:#181818;stroke-width:1;" width="10" x="223.1704" y="440.625"/></g><g><title>NotificationController</title><rect fill="#FFFFFF" height="159.5313" style="stroke:#181818;stroke-width:1;" width="10" x="458.54" y="141.5625"/></g><g><title>NOTIFICATIONS</title><rect fill="#FFFFFF" height="101.2656" style="stroke:#181818;stroke-width:1;" width="10" x="678.5991" y="170.6953"/></g><g><title>NOTIFICATIONS</title><rect fill="#FFFFFF" height="28" style="stroke:#181818;stroke-width:1;" width="10" x="683.5991" y="207.8281"/></g><g class="message" data-entity-1="part1" data-entity-2="part2" id="msg1"><polygon fill="#181818" points="206.1704,108.4297,216.1704,112.4297,206.1704,116.4297,210.1704,112.4297" style="stroke:#181818;stroke-width:1;"/><line style="stroke:#181818;stroke-width:1;" x1="28.9551" x2="212.1704" y1="112.4297" y2="112.4297"/><text fill="#000000" font-family="sans-serif" font-size="13" font-weight="bold" lengthAdjust="spacing" textLength="9.0454" x="35.9551" y="107.3638">1</text><text fill="#000000" font-family="sans-serif" font-size="13" lengthAdjust="spacing" textLength="162.1699" x="49.0005" y="107.3638">Access notification panel</text></g><g class="message" data-entity-1="part2" data-entity-2="part3" id="msg2"><polygon fill="#181818" points="446.54,137.5625,456.54,141.5625,446.54,145.5625,450.54,141.5625" style="stroke:#181818;stroke-width:1;"/><line style="stroke:#181818;stroke-width:1;" x1="228.1704" x2="452.54" y1="141.5625" y2="141.5625"/><text fill="#000000" font-family="sans-serif" font-size="13" font-weight="bold" lengthAdjust="spacing" textLength="9.0454" x="235.1704" y="136.4966">2</text><text fill="#000000" font-family="sans-serif" font-size="13" lengthAdjust="spacing" textLength="137.4014" x="248.2158" y="136.4966">Request notifications</text></g><g class="message" data-entity-1="part3" data-entity-2="part4" id="msg3"><polygon fill="#181818" points="666.5991,166.6953,676.5991,170.6953,666.5991,174.6953,670.5991,170.6953" style="stroke:#181818;stroke-width:1;"/><line style="stroke:#181818;stroke-width:1;" x1="468.54" x2="672.5991" y1="170.6953" y2="170.6953"/><text fill="#000000" font-family="sans-serif" font-size="13" font-weight="bold" lengthAdjust="spacing" textLength="9.0454" x="475.54" y="165.6294">3</text><text fill="#000000" font-family="sans-serif" font-size="13" lengthAdjust="spacing" textLength="178.0137" x="488.5854" y="165.6294">Query notifications for user</text></g><g class="message" data-entity-1="part4" data-entity-2="part4" id="msg4"><line style="stroke:#181818;stroke-width:1;" x1="693.5991" x2="735.5991" y1="199.8281" y2="199.8281"/><line style="stroke:#181818;stroke-width:1;" x1="735.5991" x2="735.5991" y1="199.8281" y2="212.8281"/><line style="stroke:#181818;stroke-width:1;" x1="694.5991" x2="735.5991" y1="212.8281" y2="212.8281"/><polygon fill="#181818" points="704.5991,208.8281,694.5991,212.8281,704.5991,216.8281,700.5991,212.8281" style="stroke:#181818;stroke-width:1;"/><text fill="#000000" font-family="sans-serif" font-size="13" font-weight="bold" lengthAdjust="spacing" textLength="9.0454" x="700.5991" y="194.7622">4</text><text fill="#000000" font-family="sans-serif" font-size="13" lengthAdjust="spacing" textLength="286.8569" x="713.6445" y="194.7622">Query by user_id, order by created_at DESC</text></g><g class="message" data-entity-1="part4" data-entity-2="part3" id="msg5"><polygon fill="#181818" points="479.54,267.9609,469.54,271.9609,479.54,275.9609,475.54,271.9609" style="stroke:#181818;stroke-width:1;"/><line style="stroke:#181818;stroke-width:1;stroke-dasharray:2,2;" x1="473.54" x2="682.5991" y1="271.9609" y2="271.9609"/><text fill="#000000" font-family="sans-serif" font-size="13" font-weight="bold" lengthAdjust="spacing" textLength="9.0454" x="485.54" y="266.895">5</text><text fill="#000000" font-family="sans-serif" font-size="13" lengthAdjust="spacing" textLength="114.7783" x="498.5854" y="266.895">Notifications data</text></g><g class="message" data-entity-1="part3" data-entity-2="part2" id="msg6"><polygon fill="#181818" points="239.1704,297.0938,229.1704,301.0938,239.1704,305.0938,235.1704,301.0938" style="stroke:#181818;stroke-width:1;"/><line style="stroke:#181818;stroke-width:1;stroke-dasharray:2,2;" x1="233.1704" x2="462.54" y1="301.0938" y2="301.0938"/><text fill="#000000" font-family="sans-serif" font-size="13" font-weight="bold" lengthAdjust="spacing" textLength="9.0454" x="245.1704" y="296.0278">6</text><text fill="#000000" font-family="sans-serif" font-size="13" lengthAdjust="spacing" textLength="97.8174" x="258.2158" y="296.0278">Notification list</text></g><g class="message" data-entity-1="part2" data-entity-2="part2" id="msg7"><line style="stroke:#181818;stroke-width:1;" x1="233.1704" x2="275.1704" y1="360.4922" y2="360.4922"/><line style="stroke:#181818;stroke-width:1;" x1="275.1704" x2="275.1704" y1="360.4922" y2="373.4922"/><line style="stroke:#181818;stroke-width:1;" x1="234.1704" x2="275.1704" y1="373.4922" y2="373.4922"/><polygon fill="#181818" points="244.1704,369.4922,234.1704,373.4922,244.1704,377.4922,240.1704,373.4922" style="stroke:#181818;stroke-width:1;"/><text fill="#000000" font-family="sans-serif" font-size="13" font-weight="bold" lengthAdjust="spacing" textLength="9.0454" x="240.1704" y="340.2935">7</text><text fill="#000000" font-family="sans-serif" font-size="13" lengthAdjust="spacing" textLength="148.3828" x="253.2158" y="325.1606">Display notification list</text><text fill="#000000" font-family="sans-serif" font-size="13" lengthAdjust="spacing" textLength="193.3242" x="253.2158" y="340.2935">(title, message, type, is_read,</text><text fill="#000000" font-family="sans-serif" font-size="13" lengthAdjust="spacing" textLength="152.2104" x="253.2158" y="355.4263">link_action, created_at)</text></g><g class="message" data-entity-1="part2" data-entity-2="part2" id="msg8"><line style="stroke:#181818;stroke-width:1;" x1="233.1704" x2="275.1704" y1="432.625" y2="432.625"/><line style="stroke:#181818;stroke-width:1;" x1="275.1704" x2="275.1704" y1="432.625" y2="445.625"/><line style="stroke:#181818;stroke-width:1;" x1="234.1704" x2="275.1704" y1="445.625" y2="445.625"/><polygon fill="#181818" points="244.1704,441.625,234.1704,445.625,244.1704,449.625,240.1704,445.625" style="stroke:#181818;stroke-width:1;"/><text fill="#000000" font-family="sans-serif" font-size="13" font-weight="bold" lengthAdjust="spacing" textLength="9.0454" x="240.1704" y="427.5591">8</text><text fill="#000000" font-family="sans-serif" font-size="13" lengthAdjust="spacing" textLength="192.8735" x="253.2158" y="427.5591">Highlight unread notifications</text></g><?plantuml-src TP71QWCX48RlFiKSMzYyG2Y5O5gQYw5DTa-1nQoJH6eqrR4bRz_P3GIbzA2eyyq_yuywK_3vlCSeX1ueH6WJHj09Mh4FsHiThw02sOCTDDdWEui_OrXrOWYUOd1LMDxUt4r3IO6UBB74UhjwNSd5ThLMcoaaH0kpPzQPms8OC2NmXGvSj4StjcI_DI5tSpzoPQ6wALVEuGE_CYQgabC1IuRb1C_XFIExgKWuiENCbeiKeIf-Vvs0tfe6GZJiZ5-6YCoQNXCiNpQop3POIabucir6CLMLDPfqJOwU9bJMB3YRg4BbtJ_FRcdJnUdQrPIoymyyUOSDd7cu-iW7kbvujwddvaspyyxwptxK3Ruf73rMiouhTsNbDtiyELu4sO-2_tx17utwMjnQyGi0?></g></svg>