<?plantuml 1.2026.1?><svg xmlns="http://www.w3.org/2000/svg" xmlns:xlink="http://www.w3.org/1999/xlink" contentStyleType="text/css" data-diagram-type="SEQUENCE" height="1273px" preserveAspectRatio="none" style="width:1091px;height:1273px;background:#FFFFFF;" version="1.1" viewBox="0 0 1091 1273" width="1091px" zoomAndPan="magnify"><defs/><g><g><title>Admin</title><rect fill="#FFFFFF" height="334.1953" style="stroke:#181818;stroke-width:1;" width="10" x="25.4321" y="112.4297"/></g><g><title>UserDetailView</title><rect fill="#FFFFFF" height="1071.3203" style="stroke:#181818;stroke-width:1;" width="10" x="227.6587" y="112.4297"/></g><g><title>UserDetailView</title><rect fill="#FFFFFF" height="28" style="stroke:#181818;stroke-width:1;" width="10" x="232.6587" y="353.3594"/></g><g><title>UserDetailView</title><rect fill="#FFFFFF" height="28" style="stroke:#181818;stroke-width:1;" width="10" x="232.6587" y="483.7578"/></g><g><title>UserDetailView</title><rect fill="#FFFFFF" height="28" style="stroke:#181818;stroke-width:1;" width="10" x="232.6587" y="580.0234"/></g><g><title>UserDetailView</title><rect fill="#FFFFFF" height="28" style="stroke:#181818;stroke-width:1;" width="10" x="232.6587" y="871.9531"/></g><g><title>UserDetailView</title><rect fill="#FFFFFF" height="28" style="stroke:#181818;stroke-width:1;" width="10" x="232.6587" y="1139.75"/></g><g><title>AdminController</title><rect fill="#FFFFFF" height="159.5313" style="stroke:#181818;stroke-width:1;" width="10" x="516.0356" y="141.5625"/></g><g><title>AdminController</title><rect fill="#FFFFFF" height="451.4609" style="stroke:#181818;stroke-width:1;" width="10" x="516.0356" y="651.1563"/></g><g><title>USERS</title><rect fill="#FFFFFF" height="101.2656" style="stroke:#181818;stroke-width:1;" width="10" x="808.2866" y="170.6953"/></g><g><title>USERS</title><rect fill="#FFFFFF" height="28" style="stroke:#181818;stroke-width:1;" width="10" x="813.2866" y="207.8281"/></g><g><title>USERS</title><rect fill="#FFFFFF" height="262.7969" style="stroke:#181818;stroke-width:1;" width="10" x="808.2866" y="680.2891"/></g><g><title>USERS</title><rect fill="#FFFFFF" height="28" style="stroke:#181818;stroke-width:1;" width="10" x="813.2866" y="717.4219"/></g><g><title>USERS</title><rect fill="#FFFFFF" height="101.2656" style="stroke:#181818;stroke-width:1;" width="10" x="808.2866" y="972.2188"/></g><g><title>USERS</title><rect fill="#FFFFFF" height="28" style="stroke:#181818;stroke-width:1;" width="10" x="813.2866" y="1009.3516"/></g><rect fill="none" height="89.2656" style="stroke:#000000;stroke-width:1.5;" width="286.377" x="166.3179" y="533.7578"/><rect fill="none" height="147.5313" style="stroke:#000000;stroke-width:1.5;" width="683.2656" x="166.3179" y="767.4219"/><g class="participant-lifeline" data-entity-uid="part1" data-qualified-name="A" id="part1-lifeline"><g><title>Admin</title><rect fill="#000000" fill-opacity="0.00000" height="1111.4531" width="8" x="26.4321" y="81.2969"/><line style="stroke:#181818;stroke-width:0.5;stroke-dasharray:5,5;" x1="30" x2="30" y1="81.2969" y2="1192.75"/></g></g><g class="participant-lifeline" data-entity-uid="part2" data-qualified-name="UDV" id="part2-lifeline"><g><title>UserDetailView</title><rect fill="#000000" fill-opacity="0.00000" height="1111.4531" width="8" x="228.6587" y="81.2969"/><line style="stroke:#181818;stroke-width:0.5;stroke-dasharray:5,5;" x1="232.3179" x2="232.3179" y1="81.2969" y2="1192.75"/></g></g><g class="participant-lifeline" data-entity-uid="part3" data-qualified-name="AC" id="part3-lifeline"><g><title>AdminController</title><rect fill="#000000" fill-opacity="0.00000" height="1111.4531" width="8" x="517.0356" y="81.2969"/><line style="stroke:#181818;stroke-width:0.5;stroke-dasharray:5,5;" x1="521.0171" x2="521.0171" y1="81.2969" y2="1192.75"/></g></g><g class="participant-lifeline" data-entity-uid="part4" data-qualified-name="US" id="part4-lifeline"><g><title>USERS</title><rect fill="#000000" fill-opacity="0.00000" height="1111.4531" width="8" x="809.2866" y="81.2969"/><line style="stroke:#181818;stroke-width:0.5;stroke-dasharray:5,5;" x1="812.9897" x2="812.9897" y1="81.2969" y2="1192.75"/></g></g><g class="participant participant-head" data-entity-uid="part1" data-qualified-name="A" id="part1-head"><text fill="#000000" font-family="sans-serif" font-size="14" lengthAdjust="spacing" textLength="44.8643" x="5" y="77.9951">Admin</text><ellipse cx="30.4321" cy="13.5" fill="#E2E2F0" rx="8" ry="8" style="stroke:#181818;stroke-width:0.5;"/><path d="M30.4321,21.5 L30.4321,48.5 M17.4321,29.5 L43.4321,29.5 M30.4321,48.5 L17.4321,63.5 M30.4321,48.5 L43.4321,63.5" fill="none" style="stroke:#181818;stroke-width:0.5;"/></g><g class="participant participant-tail" data-entity-uid="part1" data-qualified-name="A" id="part1-tail"><text fill="#000000" font-family="sans-serif" font-size="14" lengthAdjust="spacing" textLength="44.8643" x="5" y="1204.7451">Admin</text><ellipse cx="30.4321" cy="1216.5469" fill="#E2E2F0" rx="8" ry="8" style="stroke:#181818;stroke-width:0.5;"/><path d="M30.4321,1224.5469 L30.4321,1251.5469 M17.4321,1232.5469 L43.4321,1232.5469 M30.4321,1251.5469 L17.4321,1266.5469 M30.4321,1251.5469 L43.4321,1266.5469" fill="none" style="stroke:#181818;stroke-width:0.5;"/></g><g class="participant participant-head" data-entity-uid="part2" data-qualified-name="UDV" id="part2-head"><text fill="#000000" font-family="sans-serif" font-size="14" lengthAdjust="spacing" textLength="106.6816" x="176.3179" y="77.9951">UserDetailView</text><path d="M212.1587,37 L212.1587,61 M212.1587,49 L229.1587,49" fill="none" style="stroke:#181818;stroke-width:0.5;"/><ellipse cx="241.1587" cy="49" fill="#E2E2F0" rx="12" ry="12" style="stroke:#181818;stroke-width:0.5;"/></g><g class="participant participant-tail" data-entity-uid="part2" data-qualified-name="UDV" id="part2-tail"><text fill="#000000" font-family="sans-serif" font-size="14" lengthAdjust="spacing" textLength="106.6816" x="176.3179" y="1204.7451">UserDetailView</text><path d="M212.1587,1212.0469 L212.1587,1236.0469 M212.1587,1224.0469 L229.1587,1224.0469" fill="none" style="stroke:#181818;stroke-width:0.5;"/><ellipse cx="241.1587" cy="1224.0469" fill="#E2E2F0" rx="12" ry="12" style="stroke:#181818;stroke-width:0.5;"/></g><g class="participant participant-head" data-entity-uid="part3" data-qualified-name="AC" id="part3-head"><text fill="#000000" font-family="sans-serif" font-size="14" lengthAdjust="spacing" textLength="114.0371" x="461.0171" y="77.9951">AdminController</text><ellipse cx="521.0356" cy="49" fill="#E2E2F0" rx="12" ry="12" style="stroke:#181818;stroke-width:0.5;"/><polygon fill="#181818" points="517.0356,37,523.0356,32,521.0356,37,523.0356,42,517.0356,37" style="stroke:#181818;stroke-width:1;"/></g><g class="participant participant-tail" data-entity-uid="part3" data-qualified-name="AC" id="part3-tail"><text fill="#000000" font-family="sans-serif" font-size="14" lengthAdjust="spacing" textLength="114.0371" x="461.0171" y="1204.7451">AdminController</text><ellipse cx="521.0356" cy="1224.0469" fill="#E2E2F0" rx="12" ry="12" style="stroke:#181818;stroke-width:0.5;"/><polygon fill="#181818" points="517.0356,1212.0469,523.0356,1207.0469,521.0356,1212.0469,523.0356,1217.0469,517.0356,1212.0469" style="stroke:#181818;stroke-width:1;"/></g><g class="participant participant-head" data-entity-uid="part4" data-qualified-name="US" id="part4-head"><text fill="#000000" font-family="sans-serif" font-size="14" lengthAdjust="spacing" textLength="46.5938" x="786.9897" y="77.9951">USERS</text><ellipse cx="813.2866" cy="49" fill="#E2E2F0" rx="12" ry="12" style="stroke:#181818;stroke-width:0.5;"/><line style="stroke:#181818;stroke-width:0.5;" x1="801.2866" x2="825.2866" y1="63" y2="63"/></g><g class="participant participant-tail" data-entity-uid="part4" data-qualified-name="US" id="part4-tail"><text fill="#000000" font-family="sans-serif" font-size="14" lengthAdjust="spacing" textLength="46.5938" x="786.9897" y="1204.7451">USERS</text><ellipse cx="813.2866" cy="1224.0469" fill="#E2E2F0" rx="12" ry="12" style="stroke:#181818;stroke-width:0.5;"/><line style="stroke:#181818;stroke-width:0.5;" x1="801.2866" x2="825.2866" y1="1238.0469" y2="1238.0469"/></g><g><title>Admin</title><rect fill="#FFFFFF" height="334.1953" style="stroke:#181818;stroke-width:1;" width="10" x="25.4321" y="112.4297"/></g><g><title>UserDetailView</title><rect fill="#FFFFFF" height="1071.3203" style="stroke:#181818;stroke-width:1;" width="10" x="227.6587" y="112.4297"/></g><g><title>UserDetailView</title><rect fill="#FFFFFF" height="28" style="stroke:#181818;stroke-width:1;" width="10" x="232.6587" y="353.3594"/></g><g><title>UserDetailView</title><rect fill="#FFFFFF" height="28" style="stroke:#181818;stroke-width:1;" width="10" x="232.6587" y="483.7578"/></g><g><title>UserDetailView</title><rect fill="#FFFFFF" height="28" style="stroke:#181818;stroke-width:1;" width="10" x="232.6587" y="580.0234"/></g><g><title>UserDetailView</title><rect fill="#FFFFFF" height="28" style="stroke:#181818;stroke-width:1;" width="10" x="232.6587" y="871.9531"/></g><g><title>UserDetailView</title><rect fill="#FFFFFF" height="28" style="stroke:#181818;stroke-width:1;" width="10" x="232.6587" y="1139.75"/></g><g><title>AdminController</title><rect fill="#FFFFFF" height="159.5313" style="stroke:#181818;stroke-width:1;" width="10" x="516.0356" y="141.5625"/></g><g><title>AdminController</title><rect fill="#FFFFFF" height="451.4609" style="stroke:#181818;stroke-width:1;" width="10" x="516.0356" y="651.1563"/></g><g><title>USERS</title><rect fill="#FFFFFF" height="101.2656" style="stroke:#181818;stroke-width:1;" width="10" x="808.2866" y="170.6953"/></g><g><title>USERS</title><rect fill="#FFFFFF" height="28" style="stroke:#181818;stroke-width:1;" width="10" x="813.2866" y="207.8281"/></g><g><title>USERS</title><rect fill="#FFFFFF" height="262.7969" style="stroke:#181818;stroke-width:1;" width="10" x="808.2866" y="680.2891"/></g><g><title>USERS</title><rect fill="#FFFFFF" height="28" style="stroke:#181818;stroke-width:1;" width="10" x="813.2866" y="717.4219"/></g><g><title>USERS</title><rect fill="#FFFFFF" height="101.2656" style="stroke:#181818;stroke-width:1;" width="10" x="808.2866" y="972.2188"/></g><g><title>USERS</title><rect fill="#FFFFFF" height="28" style="stroke:#181818;stroke-width:1;" width="10" x="813.2866" y="1009.3516"/></g><g class="message" data-entity-1="part1" data-entity-2="part2" id="msg1"><polygon fill="#181818" points="215.6587,108.4297,225.6587,112.4297,215.6587,116.4297,219.6587,112.4297" style="stroke:#181818;stroke-width:1;"/><line style="stroke:#181818;stroke-width:1;" x1="35.4321" x2="221.6587" y1="112.4297" y2="112.4297"/><text fill="#000000" font-family="sans-serif" font-size="13" font-weight="bold" lengthAdjust="spacing" textLength="9.0454" x="42.4321" y="107.3638">1</text><text fill="#000000" font-family="sans-serif" font-size="13" lengthAdjust="spacing" textLength="137.1538" x="55.4775" y="107.3638">Click "Edit" on a user</text></g><g class="message" data-entity-1="part2" data-entity-2="part3" id="msg2"><polygon fill="#181818" points="504.0356,137.5625,514.0356,141.5625,504.0356,145.5625,508.0356,141.5625" style="stroke:#181818;stroke-width:1;"/><line style="stroke:#181818;stroke-width:1;" x1="237.6587" x2="510.0356" y1="141.5625" y2="141.5625"/><text fill="#000000" font-family="sans-serif" font-size="13" font-weight="bold" lengthAdjust="spacing" textLength="9.0454" x="244.6587" y="136.4966">2</text><text fill="#000000" font-family="sans-serif" font-size="13" lengthAdjust="spacing" textLength="133.3198" x="257.7041" y="136.4966">Request user details</text></g><g class="message" data-entity-1="part3" data-entity-2="part4" id="msg3"><polygon fill="#181818" points="796.2866,166.6953,806.2866,170.6953,796.2866,174.6953,800.2866,170.6953" style="stroke:#181818;stroke-width:1;"/><line style="stroke:#181818;stroke-width:1;" x1="526.0356" x2="802.2866" y1="170.6953" y2="170.6953"/><text fill="#000000" font-family="sans-serif" font-size="13" font-weight="bold" lengthAdjust="spacing" textLength="9.0454" x="533.0356" y="165.6294">3</text><text fill="#000000" font-family="sans-serif" font-size="13" lengthAdjust="spacing" textLength="108.0688" x="546.0811" y="165.6294">Query user by id</text></g><g class="message" data-entity-1="part4" data-entity-2="part4" id="msg4"><line style="stroke:#181818;stroke-width:1;" x1="823.2866" x2="865.2866" y1="199.8281" y2="199.8281"/><line style="stroke:#181818;stroke-width:1;" x1="865.2866" x2="865.2866" y1="199.8281" y2="212.8281"/><line style="stroke:#181818;stroke-width:1;" x1="824.2866" x2="865.2866" y1="212.8281" y2="212.8281"/><polygon fill="#181818" points="834.2866,208.8281,824.2866,212.8281,834.2866,216.8281,830.2866,212.8281" style="stroke:#181818;stroke-width:1;"/><text fill="#000000" font-family="sans-serif" font-size="13" font-weight="bold" lengthAdjust="spacing" textLength="9.0454" x="830.2866" y="194.7622">4</text><text fill="#000000" font-family="sans-serif" font-size="13" lengthAdjust="spacing" textLength="118.168" x="843.332" y="194.7622">Query user record</text></g><g class="message" data-entity-1="part4" data-entity-2="part3" id="msg5"><polygon fill="#181818" points="537.0356,267.9609,527.0356,271.9609,537.0356,275.9609,533.0356,271.9609" style="stroke:#181818;stroke-width:1;"/><line style="stroke:#181818;stroke-width:1;stroke-dasharray:2,2;" x1="531.0356" x2="812.2866" y1="271.9609" y2="271.9609"/><text fill="#000000" font-family="sans-serif" font-size="13" font-weight="bold" lengthAdjust="spacing" textLength="9.0454" x="543.0356" y="266.895">5</text><text fill="#000000" font-family="sans-serif" font-size="13" lengthAdjust="spacing" textLength="63.0449" x="556.0811" y="266.895">User data</text></g><g class="message" data-entity-1="part3" data-entity-2="part2" id="msg6"><polygon fill="#181818" points="248.6587,297.0938,238.6587,301.0938,248.6587,305.0938,244.6587,301.0938" style="stroke:#181818;stroke-width:1;"/><line style="stroke:#181818;stroke-width:1;stroke-dasharray:2,2;" x1="242.6587" x2="520.0356" y1="301.0938" y2="301.0938"/><text fill="#000000" font-family="sans-serif" font-size="13" font-weight="bold" lengthAdjust="spacing" textLength="9.0454" x="254.6587" y="296.0278">6</text><text fill="#000000" font-family="sans-serif" font-size="13" lengthAdjust="spacing" textLength="77.0732" x="267.7041" y="296.0278">User details</text></g><g class="message" data-entity-1="part2" data-entity-2="part2" id="msg7"><line style="stroke:#181818;stroke-width:1;" x1="242.6587" x2="284.6587" y1="345.3594" y2="345.3594"/><line style="stroke:#181818;stroke-width:1;" x1="284.6587" x2="284.6587" y1="345.3594" y2="358.3594"/><line style="stroke:#181818;stroke-width:1;" x1="243.6587" x2="284.6587" y1="358.3594" y2="358.3594"/><polygon fill="#181818" points="253.6587,354.3594,243.6587,358.3594,253.6587,362.3594,249.6587,358.3594" style="stroke:#181818;stroke-width:1;"/><text fill="#000000" font-family="sans-serif" font-size="13" font-weight="bold" lengthAdjust="spacing" textLength="9.0454" x="249.6587" y="332.7271">7</text><text fill="#000000" font-family="sans-serif" font-size="13" lengthAdjust="spacing" textLength="111.6807" x="262.7041" y="325.1606">Display edit form</text><text fill="#000000" font-family="sans-serif" font-size="13" lengthAdjust="spacing" textLength="199.0498" x="262.7041" y="340.2935">(full_name, email, role, status)</text></g><g class="message" data-entity-1="part1" data-entity-2="part2" id="msg8"><polygon fill="#181818" points="215.6587,413.4922,225.6587,417.4922,215.6587,421.4922,219.6587,417.4922" style="stroke:#181818;stroke-width:1;"/><line style="stroke:#181818;stroke-width:1;" x1="35.4321" x2="221.6587" y1="417.4922" y2="417.4922"/><text fill="#000000" font-family="sans-serif" font-size="13" font-weight="bold" lengthAdjust="spacing" textLength="9.0454" x="42.4321" y="412.4263">8</text><text fill="#000000" font-family="sans-serif" font-size="13" lengthAdjust="spacing" textLength="155.1812" x="55.4775" y="412.4263">Modify user information</text></g><g class="message" data-entity-1="part1" data-entity-2="part2" id="msg9"><polygon fill="#181818" points="215.6587,442.625,225.6587,446.625,215.6587,450.625,219.6587,446.625" style="stroke:#181818;stroke-width:1;"/><line style="stroke:#181818;stroke-width:1;" x1="30.4321" x2="221.6587" y1="446.625" y2="446.625"/><text fill="#000000" font-family="sans-serif" font-size="13" font-weight="bold" lengthAdjust="spacing" textLength="9.0454" x="37.4321" y="441.5591">9</text><text fill="#000000" font-family="sans-serif" font-size="13" lengthAdjust="spacing" textLength="78.9775" x="50.4775" y="441.5591">Click "Save"</text></g><g class="message" data-entity-1="part2" data-entity-2="part2" id="msg10"><line style="stroke:#181818;stroke-width:1;" x1="242.6587" x2="284.6587" y1="475.7578" y2="475.7578"/><line style="stroke:#181818;stroke-width:1;" x1="284.6587" x2="284.6587" y1="475.7578" y2="488.7578"/><line style="stroke:#181818;stroke-width:1;" x1="243.6587" x2="284.6587" y1="488.7578" y2="488.7578"/><polygon fill="#181818" points="253.6587,484.7578,243.6587,488.7578,253.6587,492.7578,249.6587,488.7578" style="stroke:#181818;stroke-width:1;"/><text fill="#000000" font-family="sans-serif" font-size="13" font-weight="bold" lengthAdjust="spacing" textLength="18.0908" x="249.6587" y="470.6919">10</text><text fill="#000000" font-family="sans-serif" font-size="13" lengthAdjust="spacing" textLength="134.5449" x="271.7495" y="470.6919">Validate data format</text></g><path d="M166.3179,533.7578 L253.2695,533.7578 L253.2695,540.8906 L243.2695,550.8906 L166.3179,550.8906 L166.3179,533.7578" fill="#EEEEEE" style="stroke:#000000;stroke-width:1.5;"/><rect fill="none" height="89.2656" style="stroke:#000000;stroke-width:1.5;" width="286.377" x="166.3179" y="533.7578"/><text fill="#000000" font-family="sans-serif" font-size="13" font-weight="bold" lengthAdjust="spacing" textLength="41.9517" x="181.3179" y="546.8247">break</text><text fill="#000000" font-family="sans-serif" font-size="11" font-weight="bold" lengthAdjust="spacing" textLength="83.7944" x="268.2695" y="545.9683">[Invalid data]</text><g class="message" data-entity-1="part2" data-entity-2="part2" id="msg11"><line style="stroke:#181818;stroke-width:1;" x1="242.6587" x2="284.6587" y1="572.0234" y2="572.0234"/><line style="stroke:#181818;stroke-width:1;" x1="284.6587" x2="284.6587" y1="572.0234" y2="585.0234"/><line style="stroke:#181818;stroke-width:1;" x1="243.6587" x2="284.6587" y1="585.0234" y2="585.0234"/><polygon fill="#181818" points="253.6587,581.0234,243.6587,585.0234,253.6587,589.0234,249.6587,585.0234" style="stroke:#181818;stroke-width:1;"/><text fill="#000000" font-family="sans-serif" font-size="13" font-weight="bold" lengthAdjust="spacing" textLength="18.0908" x="249.6587" y="566.9575">11</text><text fill="#000000" font-family="sans-serif" font-size="13" lengthAdjust="spacing" textLength="158.9453" x="271.7495" y="566.9575">Display validation errors</text></g><g class="message" data-entity-1="part2" data-entity-2="part3" id="msg12"><polygon fill="#181818" points="504.0356,647.1563,514.0356,651.1563,504.0356,655.1563,508.0356,651.1563" style="stroke:#181818;stroke-width:1;"/><line style="stroke:#181818;stroke-width:1;" x1="237.6587" x2="510.0356" y1="651.1563" y2="651.1563"/><text fill="#000000" font-family="sans-serif" font-size="13" font-weight="bold" lengthAdjust="spacing" textLength="18.0908" x="244.6587" y="646.0903">12</text><text fill="#000000" font-family="sans-serif" font-size="13" lengthAdjust="spacing" textLength="136.5127" x="266.7495" y="646.0903">Send update request</text></g><g class="message" data-entity-1="part3" data-entity-2="part4" id="msg13"><polygon fill="#181818" points="796.2866,676.2891,806.2866,680.2891,796.2866,684.2891,800.2866,680.2891" style="stroke:#181818;stroke-width:1;"/><line style="stroke:#181818;stroke-width:1;" x1="526.0356" x2="802.2866" y1="680.2891" y2="680.2891"/><text fill="#000000" font-family="sans-serif" font-size="13" font-weight="bold" lengthAdjust="spacing" textLength="18.0908" x="533.0356" y="675.2231">13</text><text fill="#000000" font-family="sans-serif" font-size="13" lengthAdjust="spacing" textLength="241.1602" x="555.1265" y="675.2231">Check email uniqueness (if changed)</text></g><g class="message" data-entity-1="part4" data-entity-2="part4" id="msg14"><line style="stroke:#181818;stroke-width:1;" x1="823.2866" x2="865.2866" y1="709.4219" y2="709.4219"/><line style="stroke:#181818;stroke-width:1;" x1="865.2866" x2="865.2866" y1="709.4219" y2="722.4219"/><line style="stroke:#181818;stroke-width:1;" x1="824.2866" x2="865.2866" y1="722.4219" y2="722.4219"/><polygon fill="#181818" points="834.2866,718.4219,824.2866,722.4219,834.2866,726.4219,830.2866,722.4219" style="stroke:#181818;stroke-width:1;"/><text fill="#000000" font-family="sans-serif" font-size="13" font-weight="bold" lengthAdjust="spacing" textLength="18.0908" x="830.2866" y="704.356">14</text><text fill="#000000" font-family="sans-serif" font-size="13" lengthAdjust="spacing" textLength="232.3242" x="852.3774" y="704.356">Query by email (exclude current id)</text></g><path d="M166.3179,767.4219 L253.2695,767.4219 L253.2695,774.5547 L243.2695,784.5547 L166.3179,784.5547 L166.3179,767.4219" fill="#EEEEEE" style="stroke:#000000;stroke-width:1.5;"/><rect fill="none" height="147.5313" style="stroke:#000000;stroke-width:1.5;" width="683.2656" x="166.3179" y="767.4219"/><text fill="#000000" font-family="sans-serif" font-size="13" font-weight="bold" lengthAdjust="spacing" textLength="41.9517" x="181.3179" y="780.4888">break</text><text fill="#000000" font-family="sans-serif" font-size="11" font-weight="bold" lengthAdjust="spacing" textLength="134.8789" x="268.2695" y="779.6323">[Email already exists]</text><g class="message" data-entity-1="part4" data-entity-2="part3" id="msg15"><polygon fill="#181818" points="537.0356,801.6875,527.0356,805.6875,537.0356,809.6875,533.0356,805.6875" style="stroke:#181818;stroke-width:1;"/><line style="stroke:#181818;stroke-width:1;stroke-dasharray:2,2;" x1="531.0356" x2="807.2866" y1="805.6875" y2="805.6875"/><text fill="#000000" font-family="sans-serif" font-size="13" font-weight="bold" lengthAdjust="spacing" textLength="18.0908" x="543.0356" y="800.6216">15</text><text fill="#000000" font-family="sans-serif" font-size="13" lengthAdjust="spacing" textLength="61.9341" x="565.1265" y="800.6216">Duplicate</text></g><g class="message" data-entity-1="part3" data-entity-2="part2" id="msg16"><polygon fill="#181818" points="248.6587,830.8203,238.6587,834.8203,248.6587,838.8203,244.6587,834.8203" style="stroke:#181818;stroke-width:1;"/><line style="stroke:#181818;stroke-width:1;stroke-dasharray:2,2;" x1="242.6587" x2="515.0356" y1="834.8203" y2="834.8203"/><text fill="#000000" font-family="sans-serif" font-size="13" font-weight="bold" lengthAdjust="spacing" textLength="18.0908" x="254.6587" y="829.7544">16</text><text fill="#000000" font-family="sans-serif" font-size="13" lengthAdjust="spacing" textLength="109.4399" x="276.7495" y="829.7544">Error notification</text></g><g class="message" data-entity-1="part2" data-entity-2="part2" id="msg17"><line style="stroke:#181818;stroke-width:1;" x1="242.6587" x2="284.6587" y1="863.9531" y2="863.9531"/><line style="stroke:#181818;stroke-width:1;" x1="284.6587" x2="284.6587" y1="863.9531" y2="876.9531"/><line style="stroke:#181818;stroke-width:1;" x1="243.6587" x2="284.6587" y1="876.9531" y2="876.9531"/><polygon fill="#181818" points="253.6587,872.9531,243.6587,876.9531,253.6587,880.9531,249.6587,876.9531" style="stroke:#181818;stroke-width:1;"/><text fill="#000000" font-family="sans-serif" font-size="13" font-weight="bold" lengthAdjust="spacing" textLength="18.0908" x="249.6587" y="858.8872">17</text><text fill="#000000" font-family="sans-serif" font-size="13" lengthAdjust="spacing" textLength="232.2861" x="271.7495" y="858.8872">Display "Email already in use" error</text></g><g class="message" data-entity-1="part4" data-entity-2="part3" id="msg18"><polygon fill="#181818" points="537.0356,939.0859,527.0356,943.0859,537.0356,947.0859,533.0356,943.0859" style="stroke:#181818;stroke-width:1;"/><line style="stroke:#181818;stroke-width:1;stroke-dasharray:2,2;" x1="531.0356" x2="812.2866" y1="943.0859" y2="943.0859"/><text fill="#000000" font-family="sans-serif" font-size="13" font-weight="bold" lengthAdjust="spacing" textLength="18.0908" x="543.0356" y="938.02">18</text><text fill="#000000" font-family="sans-serif" font-size="13" lengthAdjust="spacing" textLength="59.6045" x="565.1265" y="938.02">Available</text></g><g class="message" data-entity-1="part3" data-entity-2="part4" id="msg19"><polygon fill="#181818" points="796.2866,968.2188,806.2866,972.2188,796.2866,976.2188,800.2866,972.2188" style="stroke:#181818;stroke-width:1;"/><line style="stroke:#181818;stroke-width:1;" x1="526.0356" x2="802.2866" y1="972.2188" y2="972.2188"/><text fill="#000000" font-family="sans-serif" font-size="13" font-weight="bold" lengthAdjust="spacing" textLength="18.0908" x="533.0356" y="967.1528">19</text><text fill="#000000" font-family="sans-serif" font-size="13" lengthAdjust="spacing" textLength="158.958" x="555.1265" y="967.1528">Update user information</text></g><g class="message" data-entity-1="part4" data-entity-2="part4" id="msg20"><line style="stroke:#181818;stroke-width:1;" x1="823.2866" x2="865.2866" y1="1001.3516" y2="1001.3516"/><line style="stroke:#181818;stroke-width:1;" x1="865.2866" x2="865.2866" y1="1001.3516" y2="1014.3516"/><line style="stroke:#181818;stroke-width:1;" x1="824.2866" x2="865.2866" y1="1014.3516" y2="1014.3516"/><polygon fill="#181818" points="834.2866,1010.3516,824.2866,1014.3516,834.2866,1018.3516,830.2866,1014.3516" style="stroke:#181818;stroke-width:1;"/><text fill="#000000" font-family="sans-serif" font-size="13" font-weight="bold" lengthAdjust="spacing" textLength="18.0908" x="830.2866" y="996.2856">20</text><text fill="#000000" font-family="sans-serif" font-size="13" lengthAdjust="spacing" textLength="93.2534" x="852.3774" y="996.2856">Update record</text></g><g class="message" data-entity-1="part4" data-entity-2="part3" id="msg21"><polygon fill="#181818" points="537.0356,1069.4844,527.0356,1073.4844,537.0356,1077.4844,533.0356,1073.4844" style="stroke:#181818;stroke-width:1;"/><line style="stroke:#181818;stroke-width:1;stroke-dasharray:2,2;" x1="531.0356" x2="812.2866" y1="1073.4844" y2="1073.4844"/><text fill="#000000" font-family="sans-serif" font-size="13" font-weight="bold" lengthAdjust="spacing" textLength="18.0908" x="543.0356" y="1068.4185">21</text><text fill="#000000" font-family="sans-serif" font-size="13" lengthAdjust="spacing" textLength="118.4917" x="565.1265" y="1068.4185">Update successful</text></g><g class="message" data-entity-1="part3" data-entity-2="part2" id="msg22"><polygon fill="#181818" points="248.6587,1098.6172,238.6587,1102.6172,248.6587,1106.6172,244.6587,1102.6172" style="stroke:#181818;stroke-width:1;"/><line style="stroke:#181818;stroke-width:1;stroke-dasharray:2,2;" x1="242.6587" x2="520.0356" y1="1102.6172" y2="1102.6172"/><text fill="#000000" font-family="sans-serif" font-size="13" font-weight="bold" lengthAdjust="spacing" textLength="18.0908" x="254.6587" y="1097.5513">22</text><text fill="#000000" font-family="sans-serif" font-size="13" lengthAdjust="spacing" textLength="129.5684" x="276.7495" y="1097.5513">Success notification</text></g><g class="message" data-entity-1="part2" data-entity-2="part2" id="msg23"><line style="stroke:#181818;stroke-width:1;" x1="242.6587" x2="284.6587" y1="1131.75" y2="1131.75"/><line style="stroke:#181818;stroke-width:1;" x1="284.6587" x2="284.6587" y1="1131.75" y2="1144.75"/><line style="stroke:#181818;stroke-width:1;" x1="243.6587" x2="284.6587" y1="1144.75" y2="1144.75"/><polygon fill="#181818" points="253.6587,1140.75,243.6587,1144.75,253.6587,1148.75,249.6587,1144.75" style="stroke:#181818;stroke-width:1;"/><text fill="#000000" font-family="sans-serif" font-size="13" font-weight="bold" lengthAdjust="spacing" textLength="18.0908" x="249.6587" y="1126.6841">23</text><text fill="#000000" font-family="sans-serif" font-size="13" lengthAdjust="spacing" textLength="165.458" x="271.7495" y="1126.6841">Display success message</text></g><?plantuml-src bLFBRjim4BppAnOwsK3y0qPHG91zwA67Hf1F1GfAN2L4ADBbGut_lajIQId7TTk31LFQcPsT7VBWZGvJZvOnFdXZeHQJrC0TrAmtGGjkBz0vj0VqNAgJn1_nOtSuiS5eRutAY2OV5Dg4RHXgBpr1s-DZcn0jOpNiFaRe7XebXnUeZaBw2WprWq0zeWGvSu_K_DVVs8f-4LetUtZ4xm6TJ_KWaYXNu1fMDwbBkuSl0KbyAkml84N1sRAklL5cSJ1sNIUmF17vXzqkmReaW7j-LHArnfeejYj55cKaSnafkN6Gxgpu1P3iWD7OwQlUZ46fRvfF-00u4Vu1o5uwECzzSDkrFwK2EXP6VpP2ZijqKaTkxgNHxrVHyXchbSQLn1DNKiJNSMB8FFSrz1Rv2tpISqHcem1kJJrdQb85QAsnZkfML01NtAW5ApFHqWi8vwJFvdpy8HBDCzAmoL08MbAfHkTW8qSOdhb-Gh6zcnBAKGPly7LGGI0CmLhAEiLhUoStYnl7XEMA3eAONgNpSTeYLOTmfdqGQZ7hBKd7w0neu-KOFySLtdQpMlUWkqoxhxAp_sPieQQUYOlt2g_7-Urebsr_5x3RBdPlI_gFUvOXBWm3hOgknRMMqgOsLwsD-ll5MyXXeWT_mhl1_Wa0?></g></svg>