<?plantuml 1.2026.1?><svg xmlns="http://www.w3.org/2000/svg" xmlns:xlink="http://www.w3.org/1999/xlink" contentStyleType="text/css" data-diagram-type="SEQUENCE" height="936px" preserveAspectRatio="none" style="width:1594px;height:936px;background:#FFFFFF;" version="1.1" viewBox="0 0 1594 936" width="1594px" zoomAndPan="magnify"><defs/><g><g><title>User</title><rect fill="#FFFFFF" height="334.1953" style="stroke:#181818;stroke-width:1;" width="10" x="18.9551" y="112.4297"/></g><g><title>TaskDetailView</title><rect fill="#FFFFFF" height="718.3906" style="stroke:#181818;stroke-width:1;" width="10" x="271.582" y="112.4297"/></g><g><title>TaskDetailView</title><rect fill="#FFFFFF" height="28" style="stroke:#181818;stroke-width:1;" width="10" x="276.582" y="353.3594"/></g><g><title>TaskDetailView</title><rect fill="#FFFFFF" height="28" style="stroke:#181818;stroke-width:1;" width="10" x="276.582" y="802.8203"/></g><g><title>TaskController</title><rect fill="#FFFFFF" height="689.2578" style="stroke:#181818;stroke-width:1;" width="10" x="638.4561" y="141.5625"/></g><g><title>PROJECT_MEMBERS</title><rect fill="#FFFFFF" height="101.2656" style="stroke:#181818;stroke-width:1;" width="10" x="835.3716" y="170.6953"/></g><g><title>PROJECT_MEMBERS</title><rect fill="#FFFFFF" height="28" style="stroke:#181818;stroke-width:1;" width="10" x="840.3716" y="207.8281"/></g><g><title>TASKS</title><rect fill="#FFFFFF" height="101.2656" style="stroke:#181818;stroke-width:1;" width="10" x="1086.856" y="504.8906"/></g><g><title>TASKS</title><rect fill="#FFFFFF" height="28" style="stroke:#181818;stroke-width:1;" width="10" x="1091.856" y="542.0234"/></g><g><title>USERS</title><rect fill="#FFFFFF" height="101.2656" style="stroke:#181818;stroke-width:1;" width="10" x="1404.1973" y="635.2891"/></g><g><title>USERS</title><rect fill="#FFFFFF" height="28" style="stroke:#181818;stroke-width:1;" width="10" x="1409.1973" y="672.4219"/></g><g class="participant-lifeline" data-entity-uid="part1" data-qualified-name="U" id="part1-lifeline"><g><title>User</title><rect fill="#000000" fill-opacity="0.00000" height="774.5234" width="8" x="19.9551" y="81.2969"/><line style="stroke:#181818;stroke-width:0.5;stroke-dasharray:5,5;" x1="23" x2="23" y1="81.2969" y2="855.8203"/></g></g><g class="participant-lifeline" data-entity-uid="part2" data-qualified-name="TDV" id="part2-lifeline"><g><title>TaskDetailView</title><rect fill="#000000" fill-opacity="0.00000" height="774.5234" width="8" x="272.582" y="81.2969"/><line style="stroke:#181818;stroke-width:0.5;stroke-dasharray:5,5;" x1="275.9302" x2="275.9302" y1="81.2969" y2="855.8203"/></g></g><g class="participant-lifeline" data-entity-uid="part3" data-qualified-name="TC" id="part3-lifeline"><g><title>TaskController</title><rect fill="#000000" fill-opacity="0.00000" height="774.5234" width="8" x="639.4561" y="81.2969"/><line style="stroke:#181818;stroke-width:0.5;stroke-dasharray:5,5;" x1="642.6035" x2="642.6035" y1="81.2969" y2="855.8203"/></g></g><g class="participant-lifeline" data-entity-uid="part4" data-qualified-name="PM" id="part4-lifeline"><g><title>PROJECT_MEMBERS</title><rect fill="#000000" fill-opacity="0.00000" height="774.5234" width="8" x="836.3716" y="81.2969"/><line style="stroke:#181818;stroke-width:0.5;stroke-dasharray:5,5;" x1="839.5918" x2="839.5918" y1="81.2969" y2="855.8203"/></g></g><g class="participant-lifeline" data-entity-uid="part5" data-qualified-name="T" id="part5-lifeline"><g><title>TASKS</title><rect fill="#000000" fill-opacity="0.00000" height="774.5234" width="8" x="1087.856" y="81.2969"/><line style="stroke:#181818;stroke-width:0.5;stroke-dasharray:5,5;" x1="1091.3145" x2="1091.3145" y1="81.2969" y2="855.8203"/></g></g><g class="participant-lifeline" data-entity-uid="part6" data-qualified-name="US" id="part6-lifeline"><g><title>USERS</title><rect fill="#000000" fill-opacity="0.00000" height="774.5234" width="8" x="1405.1973" y="81.2969"/><line style="stroke:#181818;stroke-width:0.5;stroke-dasharray:5,5;" x1="1408.9004" x2="1408.9004" y1="81.2969" y2="855.8203"/></g></g><g class="participant participant-head" data-entity-uid="part1" data-qualified-name="U" id="part1-head"><text fill="#000000" font-family="sans-serif" font-size="16" lengthAdjust="spacing" textLength="31.9102" x="5" y="77.9951">User</text><ellipse cx="23.9551" cy="13.5" fill="#E2E2F0" rx="8" ry="8" style="stroke:#181818;stroke-width:0.5;"/><path d="M23.9551,21.5 L23.9551,48.5 M10.9551,29.5 L36.9551,29.5 M23.9551,48.5 L10.9551,63.5 M23.9551,48.5 L36.9551,63.5" fill="none" style="stroke:#181818;stroke-width:0.5;"/></g><g class="participant participant-tail" data-entity-uid="part1" data-qualified-name="U" id="part1-tail"><text fill="#000000" font-family="sans-serif" font-size="16" lengthAdjust="spacing" textLength="31.9102" x="5" y="867.8154">User</text><ellipse cx="23.9551" cy="879.6172" fill="#E2E2F0" rx="8" ry="8" style="stroke:#181818;stroke-width:0.5;"/><path d="M23.9551,887.6172 L23.9551,914.6172 M10.9551,895.6172 L36.9551,895.6172 M23.9551,914.6172 L10.9551,929.6172 M23.9551,914.6172 L36.9551,929.6172" fill="none" style="stroke:#181818;stroke-width:0.5;"/></g><g class="participant participant-head" data-entity-uid="part2" data-qualified-name="TDV" id="part2-head"><text fill="#000000" font-family="sans-serif" font-size="16" lengthAdjust="spacing" textLength="107.3037" x="219.9302" y="77.9951">TaskDetailView</text><path d="M256.082,37 L256.082,61 M256.082,49 L273.082,49" fill="none" style="stroke:#181818;stroke-width:0.5;"/><ellipse cx="285.082" cy="49" fill="#E2E2F0" rx="12" ry="12" style="stroke:#181818;stroke-width:0.5;"/></g><g class="participant participant-tail" data-entity-uid="part2" data-qualified-name="TDV" id="part2-tail"><text fill="#000000" font-family="sans-serif" font-size="16" lengthAdjust="spacing" textLength="107.3037" x="219.9302" y="867.8154">TaskDetailView</text><path d="M256.082,875.1172 L256.082,899.1172 M256.082,887.1172 L273.082,887.1172" fill="none" style="stroke:#181818;stroke-width:0.5;"/><ellipse cx="285.082" cy="887.1172" fill="#E2E2F0" rx="12" ry="12" style="stroke:#181818;stroke-width:0.5;"/></g><g class="participant participant-head" data-entity-uid="part3" data-qualified-name="TC" id="part3-head"><text fill="#000000" font-family="sans-serif" font-size="16" lengthAdjust="spacing" textLength="101.7051" x="589.6035" y="77.9951">TaskController</text><ellipse cx="643.4561" cy="49" fill="#E2E2F0" rx="12" ry="12" style="stroke:#181818;stroke-width:0.5;"/><polygon fill="#181818" points="639.4561,37,645.4561,32,643.4561,37,645.4561,42,639.4561,37" style="stroke:#181818;stroke-width:1;"/></g><g class="participant participant-tail" data-entity-uid="part3" data-qualified-name="TC" id="part3-tail"><text fill="#000000" font-family="sans-serif" font-size="16" lengthAdjust="spacing" textLength="101.7051" x="589.6035" y="867.8154">TaskController</text><ellipse cx="643.4561" cy="887.1172" fill="#E2E2F0" rx="12" ry="12" style="stroke:#181818;stroke-width:0.5;"/><polygon fill="#181818" points="639.4561,875.1172,645.4561,870.1172,643.4561,875.1172,645.4561,880.1172,639.4561,875.1172" style="stroke:#181818;stroke-width:1;"/></g><g class="participant participant-head" data-entity-uid="part4" data-qualified-name="PM" id="part4-head"><text fill="#000000" font-family="sans-serif" font-size="16" lengthAdjust="spacing" textLength="137.5596" x="768.5918" y="77.9951">PROJECT_MEMBERS</text><ellipse cx="840.3716" cy="49" fill="#E2E2F0" rx="12" ry="12" style="stroke:#181818;stroke-width:0.5;"/><line style="stroke:#181818;stroke-width:0.5;" x1="828.3716" x2="852.3716" y1="63" y2="63"/></g><g class="participant participant-tail" data-entity-uid="part4" data-qualified-name="PM" id="part4-tail"><text fill="#000000" font-family="sans-serif" font-size="16" lengthAdjust="spacing" textLength="137.5596" x="768.5918" y="867.8154">PROJECT_MEMBERS</text><ellipse cx="840.3716" cy="887.1172" fill="#E2E2F0" rx="12" ry="12" style="stroke:#181818;stroke-width:0.5;"/><line style="stroke:#181818;stroke-width:0.5;" x1="828.3716" x2="852.3716" y1="901.1172" y2="901.1172"/></g><g class="participant participant-head" data-entity-uid="part5" data-qualified-name="T" id="part5-head"><text fill="#000000" font-family="sans-serif" font-size="16" lengthAdjust="spacing" textLength="45.083" x="1066.3145" y="77.9951">TASKS</text><ellipse cx="1091.856" cy="49" fill="#E2E2F0" rx="12" ry="12" style="stroke:#181818;stroke-width:0.5;"/><line style="stroke:#181818;stroke-width:0.5;" x1="1079.856" x2="1103.856" y1="63" y2="63"/></g><g class="participant participant-tail" data-entity-uid="part5" data-qualified-name="T" id="part5-tail"><text fill="#000000" font-family="sans-serif" font-size="16" lengthAdjust="spacing" textLength="45.083" x="1066.3145" y="867.8154">TASKS</text><ellipse cx="1091.856" cy="887.1172" fill="#E2E2F0" rx="12" ry="12" style="stroke:#181818;stroke-width:0.5;"/><line style="stroke:#181818;stroke-width:0.5;" x1="1079.856" x2="1103.856" y1="901.1172" y2="901.1172"/></g><g class="participant participant-head" data-entity-uid="part6" data-qualified-name="US" id="part6-head"><text fill="#000000" font-family="sans-serif" font-size="16" lengthAdjust="spacing" textLength="46.5938" x="1382.9004" y="77.9951">USERS</text><ellipse cx="1409.1973" cy="49" fill="#E2E2F0" rx="12" ry="12" style="stroke:#181818;stroke-width:0.5;"/><line style="stroke:#181818;stroke-width:0.5;" x1="1397.1973" x2="1421.1973" y1="63" y2="63"/></g><g class="participant participant-tail" data-entity-uid="part6" data-qualified-name="US" id="part6-tail"><text fill="#000000" font-family="sans-serif" font-size="16" lengthAdjust="spacing" textLength="46.5938" x="1382.9004" y="867.8154">USERS</text><ellipse cx="1409.1973" cy="887.1172" fill="#E2E2F0" rx="12" ry="12" style="stroke:#181818;stroke-width:0.5;"/><line style="stroke:#181818;stroke-width:0.5;" x1="1397.1973" x2="1421.1973" y1="901.1172" y2="901.1172"/></g><g><title>User</title><rect fill="#FFFFFF" height="334.1953" style="stroke:#181818;stroke-width:1;" width="10" x="18.9551" y="112.4297"/></g><g><title>TaskDetailView</title><rect fill="#FFFFFF" height="718.3906" style="stroke:#181818;stroke-width:1;" width="10" x="271.582" y="112.4297"/></g><g><title>TaskDetailView</title><rect fill="#FFFFFF" height="28" style="stroke:#181818;stroke-width:1;" width="10" x="276.582" y="353.3594"/></g><g><title>TaskDetailView</title><rect fill="#FFFFFF" height="28" style="stroke:#181818;stroke-width:1;" width="10" x="276.582" y="802.8203"/></g><g><title>TaskController</title><rect fill="#FFFFFF" height="689.2578" style="stroke:#181818;stroke-width:1;" width="10" x="638.4561" y="141.5625"/></g><g><title>PROJECT_MEMBERS</title><rect fill="#FFFFFF" height="101.2656" style="stroke:#181818;stroke-width:1;" width="10" x="835.3716" y="170.6953"/></g><g><title>PROJECT_MEMBERS</title><rect fill="#FFFFFF" height="28" style="stroke:#181818;stroke-width:1;" width="10" x="840.3716" y="207.8281"/></g><g><title>TASKS</title><rect fill="#FFFFFF" height="101.2656" style="stroke:#181818;stroke-width:1;" width="10" x="1086.856" y="504.8906"/></g><g><title>TASKS</title><rect fill="#FFFFFF" height="28" style="stroke:#181818;stroke-width:1;" width="10" x="1091.856" y="542.0234"/></g><g><title>USERS</title><rect fill="#FFFFFF" height="101.2656" style="stroke:#181818;stroke-width:1;" width="10" x="1404.1973" y="635.2891"/></g><g><title>USERS</title><rect fill="#FFFFFF" height="28" style="stroke:#181818;stroke-width:1;" width="10" x="1409.1973" y="672.4219"/></g><g class="message" data-entity-1="part1" data-entity-2="part2" id="msg1"><polygon fill="#181818" points="259.582,108.4297,269.582,112.4297,259.582,116.4297,263.582,112.4297" style="stroke:#181818;stroke-width:1;"/><line style="stroke:#181818;stroke-width:1;" x1="28.9551" x2="265.582" y1="112.4297" y2="112.4297"/><text fill="#000000" font-family="sans-serif" font-size="15" font-weight="bold" lengthAdjust="spacing" textLength="9.0454" x="35.9551" y="107.3638">1</text><text fill="#000000" font-family="sans-serif" font-size="15" lengthAdjust="spacing" textLength="141.4321" x="49.0005" y="107.3638">Click "Assign" on task</text></g><g class="message" data-entity-1="part2" data-entity-2="part3" id="msg2"><polygon fill="#181818" points="626.4561,137.5625,636.4561,141.5625,626.4561,145.5625,630.4561,141.5625" style="stroke:#181818;stroke-width:1;"/><line style="stroke:#181818;stroke-width:1;" x1="281.582" x2="632.4561" y1="141.5625" y2="141.5625"/><text fill="#000000" font-family="sans-serif" font-size="15" font-weight="bold" lengthAdjust="spacing" textLength="9.0454" x="288.582" y="136.4966">2</text><text fill="#000000" font-family="sans-serif" font-size="15" lengthAdjust="spacing" textLength="324.8286" x="301.6274" y="136.4966">Request assignable members (project_id, task_id)</text></g><g class="message" data-entity-1="part3" data-entity-2="part4" id="msg3"><polygon fill="#181818" points="823.3716,166.6953,833.3716,170.6953,823.3716,174.6953,827.3716,170.6953" style="stroke:#181818;stroke-width:1;"/><line style="stroke:#181818;stroke-width:1;" x1="648.4561" x2="829.3716" y1="170.6953" y2="170.6953"/><text fill="#000000" font-family="sans-serif" font-size="15" font-weight="bold" lengthAdjust="spacing" textLength="9.0454" x="655.4561" y="165.6294">3</text><text fill="#000000" font-family="sans-serif" font-size="15" lengthAdjust="spacing" textLength="154.8701" x="668.5015" y="165.6294">Query project members</text></g><g class="message" data-entity-1="part4" data-entity-2="part4" id="msg4"><line style="stroke:#181818;stroke-width:1;" x1="850.3716" x2="892.3716" y1="199.8281" y2="199.8281"/><line style="stroke:#181818;stroke-width:1;" x1="892.3716" x2="892.3716" y1="199.8281" y2="212.8281"/><line style="stroke:#181818;stroke-width:1;" x1="851.3716" x2="892.3716" y1="212.8281" y2="212.8281"/><polygon fill="#181818" points="861.3716,208.8281,851.3716,212.8281,861.3716,216.8281,857.3716,212.8281" style="stroke:#181818;stroke-width:1;"/><text fill="#000000" font-family="sans-serif" font-size="15" font-weight="bold" lengthAdjust="spacing" textLength="9.0454" x="857.3716" y="194.7622">4</text><text fill="#000000" font-family="sans-serif" font-size="15" lengthAdjust="spacing" textLength="204.439" x="870.417" y="194.7622">Query by project_id (join users)</text></g><g class="message" data-entity-1="part4" data-entity-2="part3" id="msg5"><polygon fill="#181818" points="659.4561,267.9609,649.4561,271.9609,659.4561,275.9609,655.4561,271.9609" style="stroke:#181818;stroke-width:1;"/><line style="stroke:#181818;stroke-width:1;stroke-dasharray:2,2;" x1="653.4561" x2="839.3716" y1="271.9609" y2="271.9609"/><text fill="#000000" font-family="sans-serif" font-size="15" font-weight="bold" lengthAdjust="spacing" textLength="9.0454" x="665.4561" y="266.895">5</text><text fill="#000000" font-family="sans-serif" font-size="15" lengthAdjust="spacing" textLength="83.4717" x="678.5015" y="266.895">Members list</text></g><g class="message" data-entity-1="part3" data-entity-2="part2" id="msg6"><polygon fill="#181818" points="292.582,297.0938,282.582,301.0938,292.582,305.0938,288.582,301.0938" style="stroke:#181818;stroke-width:1;"/><line style="stroke:#181818;stroke-width:1;stroke-dasharray:2,2;" x1="286.582" x2="637.4561" y1="301.0938" y2="301.0938"/><text fill="#000000" font-family="sans-serif" font-size="15" font-weight="bold" lengthAdjust="spacing" textLength="9.0454" x="298.582" y="296.0278">6</text><text fill="#000000" font-family="sans-serif" font-size="15" lengthAdjust="spacing" textLength="136.1953" x="311.6274" y="296.0278">Assignable members</text></g><g class="message" data-entity-1="part2" data-entity-2="part2" id="msg7"><line style="stroke:#181818;stroke-width:1;" x1="286.582" x2="328.582" y1="345.3594" y2="345.3594"/><line style="stroke:#181818;stroke-width:1;" x1="328.582" x2="328.582" y1="345.3594" y2="358.3594"/><line style="stroke:#181818;stroke-width:1;" x1="287.582" x2="328.582" y1="358.3594" y2="358.3594"/><polygon fill="#181818" points="297.582,354.3594,287.582,358.3594,297.582,362.3594,293.582,358.3594" style="stroke:#181818;stroke-width:1;"/><text fill="#000000" font-family="sans-serif" font-size="15" font-weight="bold" lengthAdjust="spacing" textLength="9.0454" x="293.582" y="332.7271">7</text><text fill="#000000" font-family="sans-serif" font-size="15" lengthAdjust="spacing" textLength="162.335" x="306.6274" y="325.1606">Display assignment form</text><text fill="#000000" font-family="sans-serif" font-size="15" lengthAdjust="spacing" textLength="267.376" x="306.6274" y="340.2935">(assignee dropdown, reporter dropdown)</text></g><g class="message" data-entity-1="part1" data-entity-2="part2" id="msg8"><polygon fill="#181818" points="259.582,413.4922,269.582,417.4922,259.582,421.4922,263.582,417.4922" style="stroke:#181818;stroke-width:1;"/><line style="stroke:#181818;stroke-width:1;" x1="28.9551" x2="265.582" y1="417.4922" y2="417.4922"/><text fill="#000000" font-family="sans-serif" font-size="15" font-weight="bold" lengthAdjust="spacing" textLength="9.0454" x="35.9551" y="412.4263">8</text><text fill="#000000" font-family="sans-serif" font-size="15" lengthAdjust="spacing" textLength="205.5815" x="49.0005" y="412.4263">Select assignee and/or reporter</text></g><g class="message" data-entity-1="part1" data-entity-2="part2" id="msg9"><polygon fill="#181818" points="259.582,442.625,269.582,446.625,259.582,450.625,263.582,446.625" style="stroke:#181818;stroke-width:1;"/><line style="stroke:#181818;stroke-width:1;" x1="23.9551" x2="265.582" y1="446.625" y2="446.625"/><text fill="#000000" font-family="sans-serif" font-size="15" font-weight="bold" lengthAdjust="spacing" textLength="9.0454" x="30.9551" y="441.5591">9</text><text fill="#000000" font-family="sans-serif" font-size="15" lengthAdjust="spacing" textLength="78.9775" x="44.0005" y="441.5591">Click "Save"</text></g><g class="message" data-entity-1="part2" data-entity-2="part3" id="msg10"><polygon fill="#181818" points="626.4561,471.7578,636.4561,475.7578,626.4561,479.7578,630.4561,475.7578" style="stroke:#181818;stroke-width:1;"/><line style="stroke:#181818;stroke-width:1;" x1="281.582" x2="632.4561" y1="475.7578" y2="475.7578"/><text fill="#000000" font-family="sans-serif" font-size="15" font-weight="bold" lengthAdjust="spacing" textLength="18.0908" x="288.582" y="470.6919">10</text><text fill="#000000" font-family="sans-serif" font-size="15" lengthAdjust="spacing" textLength="132.3232" x="310.6729" y="470.6919">Send assign request</text></g><g class="message" data-entity-1="part3" data-entity-2="part5" id="msg11"><polygon fill="#181818" points="1074.856,500.8906,1084.856,504.8906,1074.856,508.8906,1078.856,504.8906" style="stroke:#181818;stroke-width:1;"/><line style="stroke:#181818;stroke-width:1;" x1="648.4561" x2="1080.856" y1="504.8906" y2="504.8906"/><text fill="#000000" font-family="sans-serif" font-size="15" font-weight="bold" lengthAdjust="spacing" textLength="18.0908" x="655.4561" y="499.8247">11</text><text fill="#000000" font-family="sans-serif" font-size="15" lengthAdjust="spacing" textLength="249.2852" x="677.5469" y="499.8247">Update assignee_id and/or reporter_id</text></g><g class="message" data-entity-1="part5" data-entity-2="part5" id="msg12"><line style="stroke:#181818;stroke-width:1;" x1="1101.856" x2="1143.856" y1="534.0234" y2="534.0234"/><line style="stroke:#181818;stroke-width:1;" x1="1143.856" x2="1143.856" y1="534.0234" y2="547.0234"/><line style="stroke:#181818;stroke-width:1;" x1="1102.856" x2="1143.856" y1="547.0234" y2="547.0234"/><polygon fill="#181818" points="1112.856,543.0234,1102.856,547.0234,1112.856,551.0234,1108.856,547.0234" style="stroke:#181818;stroke-width:1;"/><text fill="#000000" font-family="sans-serif" font-size="15" font-weight="bold" lengthAdjust="spacing" textLength="18.0908" x="1108.856" y="528.9575">12</text><text fill="#000000" font-family="sans-serif" font-size="15" lengthAdjust="spacing" textLength="261.2505" x="1130.9468" y="528.9575">Update record, set updated_at = NOW()</text></g><g class="message" data-entity-1="part5" data-entity-2="part3" id="msg13"><polygon fill="#181818" points="659.4561,602.1563,649.4561,606.1563,659.4561,610.1563,655.4561,606.1563" style="stroke:#181818;stroke-width:1;"/><line style="stroke:#181818;stroke-width:1;stroke-dasharray:2,2;" x1="653.4561" x2="1090.856" y1="606.1563" y2="606.1563"/><text fill="#000000" font-family="sans-serif" font-size="15" font-weight="bold" lengthAdjust="spacing" textLength="18.0908" x="665.4561" y="601.0903">13</text><text fill="#000000" font-family="sans-serif" font-size="15" lengthAdjust="spacing" textLength="118.4917" x="687.5469" y="601.0903">Update successful</text></g><g class="message" data-entity-1="part3" data-entity-2="part6" id="msg14"><polygon fill="#181818" points="1392.1973,631.2891,1402.1973,635.2891,1392.1973,639.2891,1396.1973,635.2891" style="stroke:#181818;stroke-width:1;"/><line style="stroke:#181818;stroke-width:1;" x1="648.4561" x2="1398.1973" y1="635.2891" y2="635.2891"/><text fill="#000000" font-family="sans-serif" font-size="15" font-weight="bold" lengthAdjust="spacing" textLength="18.0908" x="655.4561" y="630.2231">14</text><text fill="#000000" font-family="sans-serif" font-size="15" lengthAdjust="spacing" textLength="226.1099" x="677.5469" y="630.2231">Update assignee current_workload</text></g><g class="message" data-entity-1="part6" data-entity-2="part6" id="msg15"><line style="stroke:#181818;stroke-width:1;" x1="1419.1973" x2="1461.1973" y1="664.4219" y2="664.4219"/><line style="stroke:#181818;stroke-width:1;" x1="1461.1973" x2="1461.1973" y1="664.4219" y2="677.4219"/><line style="stroke:#181818;stroke-width:1;" x1="1420.1973" x2="1461.1973" y1="677.4219" y2="677.4219"/><polygon fill="#181818" points="1430.1973,673.4219,1420.1973,677.4219,1430.1973,681.4219,1426.1973,677.4219" style="stroke:#181818;stroke-width:1;"/><text fill="#000000" font-family="sans-serif" font-size="15" font-weight="bold" lengthAdjust="spacing" textLength="18.0908" x="1426.1973" y="659.356">15</text><text fill="#000000" font-family="sans-serif" font-size="15" lengthAdjust="spacing" textLength="139.1914" x="1448.2881" y="659.356">Recalculate workload</text></g><g class="message" data-entity-1="part6" data-entity-2="part3" id="msg16"><polygon fill="#181818" points="659.4561,732.5547,649.4561,736.5547,659.4561,740.5547,655.4561,736.5547" style="stroke:#181818;stroke-width:1;"/><line style="stroke:#181818;stroke-width:1;stroke-dasharray:2,2;" x1="653.4561" x2="1408.1973" y1="736.5547" y2="736.5547"/><text fill="#000000" font-family="sans-serif" font-size="15" font-weight="bold" lengthAdjust="spacing" textLength="18.0908" x="665.4561" y="731.4888">16</text><text fill="#000000" font-family="sans-serif" font-size="15" lengthAdjust="spacing" textLength="119.6533" x="687.5469" y="731.4888">Workload updated</text></g><g class="message" data-entity-1="part3" data-entity-2="part2" id="msg17"><polygon fill="#181818" points="292.582,761.6875,282.582,765.6875,292.582,769.6875,288.582,765.6875" style="stroke:#181818;stroke-width:1;"/><line style="stroke:#181818;stroke-width:1;stroke-dasharray:2,2;" x1="286.582" x2="637.4561" y1="765.6875" y2="765.6875"/><text fill="#000000" font-family="sans-serif" font-size="15" font-weight="bold" lengthAdjust="spacing" textLength="18.0908" x="298.582" y="760.6216">17</text><text fill="#000000" font-family="sans-serif" font-size="15" lengthAdjust="spacing" textLength="129.5684" x="320.6729" y="760.6216">Success notification</text></g><g class="message" data-entity-1="part2" data-entity-2="part2" id="msg18"><line style="stroke:#181818;stroke-width:1;" x1="286.582" x2="328.582" y1="794.8203" y2="794.8203"/><line style="stroke:#181818;stroke-width:1;" x1="328.582" x2="328.582" y1="794.8203" y2="807.8203"/><line style="stroke:#181818;stroke-width:1;" x1="287.582" x2="328.582" y1="807.8203" y2="807.8203"/><polygon fill="#181818" points="297.582,803.8203,287.582,807.8203,297.582,811.8203,293.582,807.8203" style="stroke:#181818;stroke-width:1;"/><text fill="#000000" font-family="sans-serif" font-size="15" font-weight="bold" lengthAdjust="spacing" textLength="18.0908" x="293.582" y="789.7544">18</text><text fill="#000000" font-family="sans-serif" font-size="15" lengthAdjust="spacing" textLength="185.853" x="315.6729" y="789.7544">Display updated assignment</text></g><?plantuml-src VL9DZzem4BtdLumuWRIeTzHMee5BgtGfJdOlbP1nXigBiQa_5l7lEmunEB3g9N9cthnvysPuy4Q7mnPjKN3XZON6eGNke2cs9kYMspFKtEqNwBbKBn9FCLalNWfXjBT6TTdoybQNqheiK7lfpx1QFtzVblMcMbRVbciMawig9Uiv-z65wXHfM0zgM54qCFqQ6ysWL5BiOJHtJlxH8p0QFFMCUkKxzqXIhyyehA1FLrlEO8r_0pfFdB6MRnN20UEu3iP7QzvG-8ridpf2UamoffA8oiYpgcRmAo0PqLSaYXkOXbfLG-ps2YTU6ByPgI6GjsuoA6in_wE6dwVJZgNgPIhf_1sg6p3YueJpXybk1aJp5j8T5J_t3Xp8QTWPU_YjnvS88hJM75jpqazWyMYifoscq6HeRQQZS_gs8uOgEdFbvBhzHDUK21-toVWxZdB2Ph0uXhhjsOYaMsBQHps3vjZ6ajGjEdpNa4APzA8U5beKnjBQ7Ne8NQZTS0zVuEVpwpYVUJ1nMi-DnmKXqBbTK4DWhxHX3r9116jf2PkJiNjbUAQIZhvXgMoDWYiHL4ny2CsTOqbPh7pjqMcmE-JWUDX5FsZZvKuAxgNH7vzFJvQTqVyl8_ylxxF_0000?></g></svg>