<?plantuml 1.2026.1?><svg xmlns="http://www.w3.org/2000/svg" xmlns:xlink="http://www.w3.org/1999/xlink" contentStyleType="text/css" data-diagram-type="SEQUENCE" height="502px" preserveAspectRatio="none" style="width:1099px;height:502px;background:#FFFFFF;" version="1.1" viewBox="0 0 1099 502" width="1099px" zoomAndPan="magnify"><defs/><g><g><title>User</title><rect fill="#FFFFFF" height="284.0625" style="stroke:#181818;stroke-width:1;" width="10" x="18.9551" y="112.4297"/></g><g><title>KanbanView</title><rect fill="#FFFFFF" height="284.0625" style="stroke:#181818;stroke-width:1;" width="10" x="273.998" y="112.4297"/></g><g><title>KanbanView</title><rect fill="#FFFFFF" height="28" style="stroke:#181818;stroke-width:1;" width="10" x="278.998" y="368.4922"/></g><g><title>TaskController</title><rect fill="#FFFFFF" height="254.9297" style="stroke:#181818;stroke-width:1;" width="10" x="598.1587" y="141.5625"/></g><g><title>TASKS</title><rect fill="#FFFFFF" height="101.2656" style="stroke:#181818;stroke-width:1;" width="10" x="841.1123" y="170.6953"/></g><g><title>TASKS</title><rect fill="#FFFFFF" height="28" style="stroke:#181818;stroke-width:1;" width="10" x="846.1123" y="207.8281"/></g><g class="participant-lifeline" data-entity-uid="part1" data-qualified-name="U" id="part1-lifeline"><g><title>User</title><rect fill="#000000" fill-opacity="0.00000" height="340.1953" width="8" x="19.9551" y="81.2969"/><line style="stroke:#181818;stroke-width:0.5;stroke-dasharray:5,5;" x1="23" x2="23" y1="81.2969" y2="421.4922"/></g></g><g class="participant-lifeline" data-entity-uid="part2" data-qualified-name="KV" id="part2-lifeline"><g><title>KanbanView</title><rect fill="#000000" fill-opacity="0.00000" height="340.1953" width="8" x="274.998" y="81.2969"/><line style="stroke:#181818;stroke-width:0.5;stroke-dasharray:5,5;" x1="278.7471" x2="278.7471" y1="81.2969" y2="421.4922"/></g></g><g class="participant-lifeline" data-entity-uid="part3" data-qualified-name="TC" id="part3-lifeline"><g><title>TaskController</title><rect fill="#000000" fill-opacity="0.00000" height="340.1953" width="8" x="599.1587" y="81.2969"/><line style="stroke:#181818;stroke-width:0.5;stroke-dasharray:5,5;" x1="602.3062" x2="602.3062" y1="81.2969" y2="421.4922"/></g></g><g class="participant-lifeline" data-entity-uid="part4" data-qualified-name="PM" id="part4-lifeline"><g><title>PROJECT_MEMBERS</title><rect fill="#000000" fill-opacity="0.00000" height="340.1953" width="8" x="734.791" y="81.2969"/><line style="stroke:#181818;stroke-width:0.5;stroke-dasharray:5,5;" x1="738.0112" x2="738.0112" y1="81.2969" y2="421.4922"/></g></g><g class="participant-lifeline" data-entity-uid="part5" data-qualified-name="T" id="part5-lifeline"><g><title>TASKS</title><rect fill="#000000" fill-opacity="0.00000" height="340.1953" width="8" x="842.1123" y="81.2969"/><line style="stroke:#181818;stroke-width:0.5;stroke-dasharray:5,5;" x1="845.5708" x2="845.5708" y1="81.2969" y2="421.4922"/></g></g><g class="participant participant-head" data-entity-uid="part1" data-qualified-name="U" id="part1-head"><text fill="#000000" font-family="sans-serif" font-size="14" lengthAdjust="spacing" textLength="31.9102" x="5" y="77.9951">User</text><ellipse cx="23.9551" cy="13.5" fill="#E2E2F0" rx="8" ry="8" style="stroke:#181818;stroke-width:0.5;"/><path d="M23.9551,21.5 L23.9551,48.5 M10.9551,29.5 L36.9551,29.5 M23.9551,48.5 L10.9551,63.5 M23.9551,48.5 L36.9551,63.5" fill="none" style="stroke:#181818;stroke-width:0.5;"/></g><g class="participant participant-tail" data-entity-uid="part1" data-qualified-name="U" id="part1-tail"><text fill="#000000" font-family="sans-serif" font-size="14" lengthAdjust="spacing" textLength="31.9102" x="5" y="433.4873">User</text><ellipse cx="23.9551" cy="445.2891" fill="#E2E2F0" rx="8" ry="8" style="stroke:#181818;stroke-width:0.5;"/><path d="M23.9551,453.2891 L23.9551,480.2891 M10.9551,461.2891 L36.9551,461.2891 M23.9551,480.2891 L10.9551,495.2891 M23.9551,480.2891 L36.9551,495.2891" fill="none" style="stroke:#181818;stroke-width:0.5;"/></g><g class="participant participant-head" data-entity-uid="part2" data-qualified-name="KV" id="part2-head"><text fill="#000000" font-family="sans-serif" font-size="14" lengthAdjust="spacing" textLength="86.502" x="232.7471" y="77.9951">KanbanView</text><path d="M258.498,37 L258.498,61 M258.498,49 L275.498,49" fill="none" style="stroke:#181818;stroke-width:0.5;"/><ellipse cx="287.498" cy="49" fill="#E2E2F0" rx="12" ry="12" style="stroke:#181818;stroke-width:0.5;"/></g><g class="participant participant-tail" data-entity-uid="part2" data-qualified-name="KV" id="part2-tail"><text fill="#000000" font-family="sans-serif" font-size="14" lengthAdjust="spacing" textLength="86.502" x="232.7471" y="433.4873">KanbanView</text><path d="M258.498,440.7891 L258.498,464.7891 M258.498,452.7891 L275.498,452.7891" fill="none" style="stroke:#181818;stroke-width:0.5;"/><ellipse cx="287.498" cy="452.7891" fill="#E2E2F0" rx="12" ry="12" style="stroke:#181818;stroke-width:0.5;"/></g><g class="participant participant-head" data-entity-uid="part3" data-qualified-name="TC" id="part3-head"><text fill="#000000" font-family="sans-serif" font-size="14" lengthAdjust="spacing" textLength="101.7051" x="549.3062" y="77.9951">TaskController</text><ellipse cx="603.1587" cy="49" fill="#E2E2F0" rx="12" ry="12" style="stroke:#181818;stroke-width:0.5;"/><polygon fill="#181818" points="599.1587,37,605.1587,32,603.1587,37,605.1587,42,599.1587,37" style="stroke:#181818;stroke-width:1;"/></g><g class="participant participant-tail" data-entity-uid="part3" data-qualified-name="TC" id="part3-tail"><text fill="#000000" font-family="sans-serif" font-size="14" lengthAdjust="spacing" textLength="101.7051" x="549.3062" y="433.4873">TaskController</text><ellipse cx="603.1587" cy="452.7891" fill="#E2E2F0" rx="12" ry="12" style="stroke:#181818;stroke-width:0.5;"/><polygon fill="#181818" points="599.1587,440.7891,605.1587,435.7891,603.1587,440.7891,605.1587,445.7891,599.1587,440.7891" style="stroke:#181818;stroke-width:1;"/></g><g class="participant participant-head" data-entity-uid="part4" data-qualified-name="PM" id="part4-head"><text fill="#000000" font-family="sans-serif" font-size="14" lengthAdjust="spacing" textLength="137.5596" x="667.0112" y="77.9951">PROJECT_MEMBERS</text><ellipse cx="738.791" cy="49" fill="#E2E2F0" rx="12" ry="12" style="stroke:#181818;stroke-width:0.5;"/><line style="stroke:#181818;stroke-width:0.5;" x1="726.791" x2="750.791" y1="63" y2="63"/></g><g class="participant participant-tail" data-entity-uid="part4" data-qualified-name="PM" id="part4-tail"><text fill="#000000" font-family="sans-serif" font-size="14" lengthAdjust="spacing" textLength="137.5596" x="667.0112" y="433.4873">PROJECT_MEMBERS</text><ellipse cx="738.791" cy="452.7891" fill="#E2E2F0" rx="12" ry="12" style="stroke:#181818;stroke-width:0.5;"/><line style="stroke:#181818;stroke-width:0.5;" x1="726.791" x2="750.791" y1="466.7891" y2="466.7891"/></g><g class="participant participant-head" data-entity-uid="part5" data-qualified-name="T" id="part5-head"><text fill="#000000" font-family="sans-serif" font-size="14" lengthAdjust="spacing" textLength="45.083" x="820.5708" y="77.9951">TASKS</text><ellipse cx="846.1123" cy="49" fill="#E2E2F0" rx="12" ry="12" style="stroke:#181818;stroke-width:0.5;"/><line style="stroke:#181818;stroke-width:0.5;" x1="834.1123" x2="858.1123" y1="63" y2="63"/></g><g class="participant participant-tail" data-entity-uid="part5" data-qualified-name="T" id="part5-tail"><text fill="#000000" font-family="sans-serif" font-size="14" lengthAdjust="spacing" textLength="45.083" x="820.5708" y="433.4873">TASKS</text><ellipse cx="846.1123" cy="452.7891" fill="#E2E2F0" rx="12" ry="12" style="stroke:#181818;stroke-width:0.5;"/><line style="stroke:#181818;stroke-width:0.5;" x1="834.1123" x2="858.1123" y1="466.7891" y2="466.7891"/></g><g><title>User</title><rect fill="#FFFFFF" height="284.0625" style="stroke:#181818;stroke-width:1;" width="10" x="18.9551" y="112.4297"/></g><g><title>KanbanView</title><rect fill="#FFFFFF" height="284.0625" style="stroke:#181818;stroke-width:1;" width="10" x="273.998" y="112.4297"/></g><g><title>KanbanView</title><rect fill="#FFFFFF" height="28" style="stroke:#181818;stroke-width:1;" width="10" x="278.998" y="368.4922"/></g><g><title>TaskController</title><rect fill="#FFFFFF" height="254.9297" style="stroke:#181818;stroke-width:1;" width="10" x="598.1587" y="141.5625"/></g><g><title>TASKS</title><rect fill="#FFFFFF" height="101.2656" style="stroke:#181818;stroke-width:1;" width="10" x="841.1123" y="170.6953"/></g><g><title>TASKS</title><rect fill="#FFFFFF" height="28" style="stroke:#181818;stroke-width:1;" width="10" x="846.1123" y="207.8281"/></g><g class="message" data-entity-1="part1" data-entity-2="part2" id="msg1"><polygon fill="#181818" points="261.998,108.4297,271.998,112.4297,261.998,116.4297,265.998,112.4297" style="stroke:#181818;stroke-width:1;"/><line style="stroke:#181818;stroke-width:1;" x1="28.9551" x2="267.998" y1="112.4297" y2="112.4297"/><text fill="#000000" font-family="sans-serif" font-size="13" font-weight="bold" lengthAdjust="spacing" textLength="9.0454" x="35.9551" y="107.3638">1</text><text fill="#000000" font-family="sans-serif" font-size="13" lengthAdjust="spacing" textLength="217.9976" x="49.0005" y="107.3638">Access Kanban board (project_id)</text></g><g class="message" data-entity-1="part2" data-entity-2="part3" id="msg2"><polygon fill="#181818" points="586.1587,137.5625,596.1587,141.5625,586.1587,145.5625,590.1587,141.5625" style="stroke:#181818;stroke-width:1;"/><line style="stroke:#181818;stroke-width:1;" x1="283.998" x2="592.1587" y1="141.5625" y2="141.5625"/><text fill="#000000" font-family="sans-serif" font-size="13" font-weight="bold" lengthAdjust="spacing" textLength="9.0454" x="290.998" y="136.4966">2</text><text fill="#000000" font-family="sans-serif" font-size="13" lengthAdjust="spacing" textLength="282.1152" x="304.0435" y="136.4966">Request Kanban data (project_id, sprint_id)</text></g><g class="message" data-entity-1="part3" data-entity-2="part5" id="msg3"><polygon fill="#181818" points="829.1123,166.6953,839.1123,170.6953,829.1123,174.6953,833.1123,170.6953" style="stroke:#181818;stroke-width:1;"/><line style="stroke:#181818;stroke-width:1;" x1="608.1587" x2="835.1123" y1="170.6953" y2="170.6953"/><text fill="#000000" font-family="sans-serif" font-size="13" font-weight="bold" lengthAdjust="spacing" textLength="9.0454" x="615.1587" y="165.6294">3</text><text fill="#000000" font-family="sans-serif" font-size="13" lengthAdjust="spacing" textLength="200.3574" x="628.2041" y="165.6294">Query tasks grouped by status</text></g><g class="message" data-entity-1="part5" data-entity-2="part5" id="msg4"><line style="stroke:#181818;stroke-width:1;" x1="856.1123" x2="898.1123" y1="199.8281" y2="199.8281"/><line style="stroke:#181818;stroke-width:1;" x1="898.1123" x2="898.1123" y1="199.8281" y2="212.8281"/><line style="stroke:#181818;stroke-width:1;" x1="857.1123" x2="898.1123" y1="212.8281" y2="212.8281"/><polygon fill="#181818" points="867.1123,208.8281,857.1123,212.8281,867.1123,216.8281,863.1123,212.8281" style="stroke:#181818;stroke-width:1;"/><text fill="#000000" font-family="sans-serif" font-size="13" font-weight="bold" lengthAdjust="spacing" textLength="9.0454" x="863.1123" y="194.7622">4</text><text fill="#000000" font-family="sans-serif" font-size="13" lengthAdjust="spacing" textLength="215.8901" x="876.1577" y="194.7622">Query by project_id and sprint_id</text></g><g class="message" data-entity-1="part5" data-entity-2="part3" id="msg5"><polygon fill="#181818" points="619.1587,267.9609,609.1587,271.9609,619.1587,275.9609,615.1587,271.9609" style="stroke:#181818;stroke-width:1;"/><line style="stroke:#181818;stroke-width:1;stroke-dasharray:2,2;" x1="613.1587" x2="845.1123" y1="271.9609" y2="271.9609"/><text fill="#000000" font-family="sans-serif" font-size="13" font-weight="bold" lengthAdjust="spacing" textLength="9.0454" x="625.1587" y="266.895">5</text><text fill="#000000" font-family="sans-serif" font-size="13" lengthAdjust="spacing" textLength="70.3955" x="638.2041" y="266.895">Tasks data</text></g><g class="message" data-entity-1="part3" data-entity-2="part2" id="msg6"><polygon fill="#181818" points="294.998,297.0938,284.998,301.0938,294.998,305.0938,290.998,301.0938" style="stroke:#181818;stroke-width:1;"/><line style="stroke:#181818;stroke-width:1;stroke-dasharray:2,2;" x1="288.998" x2="597.1587" y1="301.0938" y2="301.0938"/><text fill="#000000" font-family="sans-serif" font-size="13" font-weight="bold" lengthAdjust="spacing" textLength="9.0454" x="300.998" y="296.0278">6</text><text fill="#000000" font-family="sans-serif" font-size="13" lengthAdjust="spacing" textLength="82.6021" x="314.0435" y="296.0278">Kanban data</text></g><g class="message" data-entity-1="part2" data-entity-2="part2" id="msg7"><line style="stroke:#181818;stroke-width:1;" x1="288.998" x2="330.998" y1="360.4922" y2="360.4922"/><line style="stroke:#181818;stroke-width:1;" x1="330.998" x2="330.998" y1="360.4922" y2="373.4922"/><line style="stroke:#181818;stroke-width:1;" x1="289.998" x2="330.998" y1="373.4922" y2="373.4922"/><polygon fill="#181818" points="299.998,369.4922,289.998,373.4922,299.998,377.4922,295.998,373.4922" style="stroke:#181818;stroke-width:1;"/><text fill="#000000" font-family="sans-serif" font-size="13" font-weight="bold" lengthAdjust="spacing" textLength="9.0454" x="295.998" y="340.2935">7</text><text fill="#000000" font-family="sans-serif" font-size="13" lengthAdjust="spacing" textLength="159.999" x="309.0435" y="325.1606">Display Kanban columns</text><text fill="#000000" font-family="sans-serif" font-size="13" lengthAdjust="spacing" textLength="253.5635" x="309.0435" y="340.2935">(TODO, IN_PROGRESS, REVIEW, DONE)</text><text fill="#000000" font-family="sans-serif" font-size="13" lengthAdjust="spacing" textLength="98.6934" x="309.0435" y="355.4263">with task cards</text></g><?plantuml-src NL5BRi8m4Dtx5BC4ALm0LPMeiIeQGMZYf1iav2HMwpROgJz5tBvsQ8h3Rkmtypupp5abtQdc6Y7MMAMXD5m3Cr2YMZdPCds1bCcQoKhmSm3I2ZLAMgqweCnyuMlTNQSeHbnQOI-mpxCNWkbnIxPF92y2kD-E85qLwV154IfXyUX9bx1g6cxCdnhKYkaMPhrMdxonHz7EWq7nmopttlvBxmQbLQ2WU0av_tRSs96ZPPR550cONWjvn-Oz8ue7YYMyEkuJMn_CmBjMhkSjr1SmbbbdeXb49mE-vIO3JBOtfNYevJ43XeV58d3GGIwudNQ4P4EBZnP56XE7fQs5wJistWWQrRcJD0SvezawIs2pE_f3FEUaA1B8IRKXRmciinsP7-HPs8yXAJH-rMQoqyX6s73i2j-1qQj4lm00?></g></svg>