<?plantuml 1.2026.1?><svg xmlns="http://www.w3.org/2000/svg" xmlns:xlink="http://www.w3.org/1999/xlink" contentStyleType="text/css" data-diagram-type="SEQUENCE" height="1537px" preserveAspectRatio="none" style="width:1415px;height:1537px;background:#FFFFFF;" version="1.1" viewBox="0 0 1415 1537" width="1415px" zoomAndPan="magnify"><defs/><g><g><title>User</title><rect fill="#FFFFFF" height="151.5313" style="stroke:#181818;stroke-width:1;" width="10" x="18.9551" y="91.2969"/></g><g><title>SignInView</title><rect fill="#FFFFFF" height="1253.7188" style="stroke:#181818;stroke-width:1;" width="10" x="305.1484" y="112.4297"/></g><g><title>SignInView</title><rect fill="#FFFFFF" height="28" style="stroke:#181818;stroke-width:1;" width="10" x="310.1484" y="149.5625"/></g><g><title>SignInView</title><rect fill="#FFFFFF" height="28" style="stroke:#181818;stroke-width:1;" width="10" x="310.1484" y="279.9609"/></g><g><title>SignInView</title><rect fill="#FFFFFF" height="28" style="stroke:#181818;stroke-width:1;" width="10" x="310.1484" y="376.2266"/></g><g><title>SignInView</title><rect fill="#FFFFFF" height="28" style="stroke:#181818;stroke-width:1;" width="10" x="310.1484" y="668.1563"/></g><g><title>SignInView</title><rect fill="#FFFFFF" height="28" style="stroke:#181818;stroke-width:1;" width="10" x="310.1484" y="901.8203"/></g><g><title>SignInView</title><rect fill="#FFFFFF" height="28" style="stroke:#181818;stroke-width:1;" width="10" x="310.1484" y="1164.6172"/></g><g><title>HomeView</title><rect fill="#FFFFFF" height="65.1328" style="stroke:#181818;stroke-width:1;" width="10" x="717.9839" y="1366.1484"/></g><g><title>HomeView</title><rect fill="#FFFFFF" height="28" style="stroke:#181818;stroke-width:1;" width="10" x="722.9839" y="1403.2813"/></g><g><title>AuthController</title><rect fill="#FFFFFF" height="417.3281" style="stroke:#181818;stroke-width:1;" width="10" x="897.0479" y="447.3594"/></g><g><title>AuthController</title><rect fill="#FFFFFF" height="28" style="stroke:#181818;stroke-width:1;" width="10" x="902.0479" y="776.4219"/></g><g><title>AuthController</title><rect fill="#FFFFFF" height="364.0625" style="stroke:#181818;stroke-width:1;" width="10" x="897.0479" y="972.9531"/></g><g><title>AuthController</title><rect fill="#FFFFFF" height="28" style="stroke:#181818;stroke-width:1;" width="10" x="902.0479" y="1272.8828"/></g><g><title>USER</title><rect fill="#FFFFFF" height="262.7969" style="stroke:#181818;stroke-width:1;" width="10" x="1157.9351" y="476.4922"/></g><g><title>USER</title><rect fill="#FFFFFF" height="28" style="stroke:#181818;stroke-width:1;" width="10" x="1162.9351" y="513.625"/></g><g><title>USER</title><rect fill="#FFFFFF" height="262.7969" style="stroke:#181818;stroke-width:1;" width="10" x="1157.9351" y="972.9531"/></g><g><title>USER</title><rect fill="#FFFFFF" height="28" style="stroke:#181818;stroke-width:1;" width="10" x="1162.9351" y="1010.0859"/></g><rect fill="none" height="89.2656" style="stroke:#000000;stroke-width:1.5;" width="264.8545" x="258.6143" y="329.9609"/><rect fill="none" height="147.5313" style="stroke:#000000;stroke-width:1.5;" width="936.1743" x="258.6143" y="563.625"/><rect fill="none" height="118.3984" style="stroke:#000000;stroke-width:1.5;" width="707.4263" x="258.6143" y="826.4219"/><rect fill="none" height="147.5313" style="stroke:#000000;stroke-width:1.5;" width="936.1743" x="258.6143" y="1060.0859"/><g class="participant-lifeline" data-entity-uid="part1" data-qualified-name="U" id="part1-lifeline"><g><title>User</title><rect fill="#000000" fill-opacity="0.00000" height="1374.9844" width="8" x="19.9551" y="81.2969"/><line style="stroke:#181818;stroke-width:0.5;stroke-dasharray:5,5;" x1="23" x2="23" y1="81.2969" y2="1456.2813"/></g></g><g class="participant-lifeline" data-entity-uid="part2" data-qualified-name="SIV" id="part2-lifeline"><g><title>SignInView</title><rect fill="#000000" fill-opacity="0.00000" height="1374.9844" width="8" x="306.1484" y="81.2969"/><line style="stroke:#181818;stroke-width:0.5;stroke-dasharray:5,5;" x1="309.6143" x2="309.6143" y1="81.2969" y2="1456.2813"/></g></g><g class="participant-lifeline" data-entity-uid="part3" data-qualified-name="HV" id="part3-lifeline"><g><title>HomeView</title><rect fill="#000000" fill-opacity="0.00000" height="1374.9844" width="8" x="718.9839" y="81.2969"/><line style="stroke:#181818;stroke-width:0.5;stroke-dasharray:5,5;" x1="722.5469" x2="722.5469" y1="81.2969" y2="1456.2813"/></g></g><g class="participant-lifeline" data-entity-uid="part4" data-qualified-name="AC" id="part4-lifeline"><g><title>AuthController</title><rect fill="#000000" fill-opacity="0.00000" height="1374.9844" width="8" x="898.0479" y="81.2969"/><line style="stroke:#181818;stroke-width:0.5;stroke-dasharray:5,5;" x1="901.0552" x2="901.0552" y1="81.2969" y2="1456.2813"/></g></g><g class="participant-lifeline" data-entity-uid="part5" data-qualified-name="US" id="part5-lifeline"><g><title>USER</title><rect fill="#000000" fill-opacity="0.00000" height="1374.9844" width="8" x="1158.9351" y="81.2969"/><line style="stroke:#181818;stroke-width:0.5;stroke-dasharray:5,5;" x1="1162.0815" x2="1162.0815" y1="81.2969" y2="1456.2813"/></g></g><g class="participant participant-head" data-entity-uid="part1" data-qualified-name="U" id="part1-head"><text fill="#000000" font-family="sans-serif" font-size="14" lengthAdjust="spacing" textLength="31.9102" x="5" y="77.9951">User</text><ellipse cx="23.9551" cy="13.5" fill="#E2E2F0" rx="8" ry="8" style="stroke:#181818;stroke-width:0.5;"/><path d="M23.9551,21.5 L23.9551,48.5 M10.9551,29.5 L36.9551,29.5 M23.9551,48.5 L10.9551,63.5 M23.9551,48.5 L36.9551,63.5" fill="none" style="stroke:#181818;stroke-width:0.5;"/></g><g class="participant participant-tail" data-entity-uid="part1" data-qualified-name="U" id="part1-tail"><text fill="#000000" font-family="sans-serif" font-size="14" lengthAdjust="spacing" textLength="31.9102" x="5" y="1468.2764">User</text><ellipse cx="23.9551" cy="1480.0781" fill="#E2E2F0" rx="8" ry="8" style="stroke:#181818;stroke-width:0.5;"/><path d="M23.9551,1488.0781 L23.9551,1515.0781 M10.9551,1496.0781 L36.9551,1496.0781 M23.9551,1515.0781 L10.9551,1530.0781 M23.9551,1515.0781 L36.9551,1530.0781" fill="none" style="stroke:#181818;stroke-width:0.5;"/></g><g class="participant participant-head" data-entity-uid="part2" data-qualified-name="SIV" id="part2-head"><text fill="#000000" font-family="sans-serif" font-size="14" lengthAdjust="spacing" textLength="77.0684" x="268.6143" y="77.9951">SignInView</text><path d="M289.6484,37 L289.6484,61 M289.6484,49 L306.6484,49" fill="none" style="stroke:#181818;stroke-width:0.5;"/><ellipse cx="318.6484" cy="49" fill="#E2E2F0" rx="12" ry="12" style="stroke:#181818;stroke-width:0.5;"/></g><g class="participant participant-tail" data-entity-uid="part2" data-qualified-name="SIV" id="part2-tail"><text fill="#000000" font-family="sans-serif" font-size="14" lengthAdjust="spacing" textLength="77.0684" x="268.6143" y="1468.2764">SignInView</text><path d="M289.6484,1475.5781 L289.6484,1499.5781 M289.6484,1487.5781 L306.6484,1487.5781" fill="none" style="stroke:#181818;stroke-width:0.5;"/><ellipse cx="318.6484" cy="1487.5781" fill="#E2E2F0" rx="12" ry="12" style="stroke:#181818;stroke-width:0.5;"/></g><g class="participant participant-head" data-entity-uid="part3" data-qualified-name="HV" id="part3-head"><text fill="#000000" font-family="sans-serif" font-size="14" lengthAdjust="spacing" textLength="74.874" x="682.5469" y="77.9951">HomeView</text><path d="M702.4839,37 L702.4839,61 M702.4839,49 L719.4839,49" fill="none" style="stroke:#181818;stroke-width:0.5;"/><ellipse cx="731.4839" cy="49" fill="#E2E2F0" rx="12" ry="12" style="stroke:#181818;stroke-width:0.5;"/></g><g class="participant participant-tail" data-entity-uid="part3" data-qualified-name="HV" id="part3-tail"><text fill="#000000" font-family="sans-serif" font-size="14" lengthAdjust="spacing" textLength="74.874" x="682.5469" y="1468.2764">HomeView</text><path d="M702.4839,1475.5781 L702.4839,1499.5781 M702.4839,1487.5781 L719.4839,1487.5781" fill="none" style="stroke:#181818;stroke-width:0.5;"/><ellipse cx="731.4839" cy="1487.5781" fill="#E2E2F0" rx="12" ry="12" style="stroke:#181818;stroke-width:0.5;"/></g><g class="participant participant-head" data-entity-uid="part4" data-qualified-name="AC" id="part4-head"><text fill="#000000" font-family="sans-serif" font-size="14" lengthAdjust="spacing" textLength="101.9854" x="848.0552" y="77.9951">AuthController</text><ellipse cx="902.0479" cy="49" fill="#E2E2F0" rx="12" ry="12" style="stroke:#181818;stroke-width:0.5;"/><polygon fill="#181818" points="898.0479,37,904.0479,32,902.0479,37,904.0479,42,898.0479,37" style="stroke:#181818;stroke-width:1;"/></g><g class="participant participant-tail" data-entity-uid="part4" data-qualified-name="AC" id="part4-tail"><text fill="#000000" font-family="sans-serif" font-size="14" lengthAdjust="spacing" textLength="101.9854" x="848.0552" y="1468.2764">AuthController</text><ellipse cx="902.0479" cy="1487.5781" fill="#E2E2F0" rx="12" ry="12" style="stroke:#181818;stroke-width:0.5;"/><polygon fill="#181818" points="898.0479,1475.5781,904.0479,1470.5781,902.0479,1475.5781,904.0479,1480.5781,898.0479,1475.5781" style="stroke:#181818;stroke-width:1;"/></g><g class="participant participant-head" data-entity-uid="part5" data-qualified-name="US" id="part5-head"><text fill="#000000" font-family="sans-serif" font-size="14" lengthAdjust="spacing" textLength="37.707" x="1141.0815" y="77.9951">USER</text><ellipse cx="1162.9351" cy="49" fill="#E2E2F0" rx="12" ry="12" style="stroke:#181818;stroke-width:0.5;"/><line style="stroke:#181818;stroke-width:0.5;" x1="1150.9351" x2="1174.9351" y1="63" y2="63"/></g><g class="participant participant-tail" data-entity-uid="part5" data-qualified-name="US" id="part5-tail"><text fill="#000000" font-family="sans-serif" font-size="14" lengthAdjust="spacing" textLength="37.707" x="1141.0815" y="1468.2764">USER</text><ellipse cx="1162.9351" cy="1487.5781" fill="#E2E2F0" rx="12" ry="12" style="stroke:#181818;stroke-width:0.5;"/><line style="stroke:#181818;stroke-width:0.5;" x1="1150.9351" x2="1174.9351" y1="1501.5781" y2="1501.5781"/></g><g><title>User</title><rect fill="#FFFFFF" height="151.5313" style="stroke:#181818;stroke-width:1;" width="10" x="18.9551" y="91.2969"/></g><g><title>SignInView</title><rect fill="#FFFFFF" height="1253.7188" style="stroke:#181818;stroke-width:1;" width="10" x="305.1484" y="112.4297"/></g><g><title>SignInView</title><rect fill="#FFFFFF" height="28" style="stroke:#181818;stroke-width:1;" width="10" x="310.1484" y="149.5625"/></g><g><title>SignInView</title><rect fill="#FFFFFF" height="28" style="stroke:#181818;stroke-width:1;" width="10" x="310.1484" y="279.9609"/></g><g><title>SignInView</title><rect fill="#FFFFFF" height="28" style="stroke:#181818;stroke-width:1;" width="10" x="310.1484" y="376.2266"/></g><g><title>SignInView</title><rect fill="#FFFFFF" height="28" style="stroke:#181818;stroke-width:1;" width="10" x="310.1484" y="668.1563"/></g><g><title>SignInView</title><rect fill="#FFFFFF" height="28" style="stroke:#181818;stroke-width:1;" width="10" x="310.1484" y="901.8203"/></g><g><title>SignInView</title><rect fill="#FFFFFF" height="28" style="stroke:#181818;stroke-width:1;" width="10" x="310.1484" y="1164.6172"/></g><g><title>HomeView</title><rect fill="#FFFFFF" height="65.1328" style="stroke:#181818;stroke-width:1;" width="10" x="717.9839" y="1366.1484"/></g><g><title>HomeView</title><rect fill="#FFFFFF" height="28" style="stroke:#181818;stroke-width:1;" width="10" x="722.9839" y="1403.2813"/></g><g><title>AuthController</title><rect fill="#FFFFFF" height="417.3281" style="stroke:#181818;stroke-width:1;" width="10" x="897.0479" y="447.3594"/></g><g><title>AuthController</title><rect fill="#FFFFFF" height="28" style="stroke:#181818;stroke-width:1;" width="10" x="902.0479" y="776.4219"/></g><g><title>AuthController</title><rect fill="#FFFFFF" height="364.0625" style="stroke:#181818;stroke-width:1;" width="10" x="897.0479" y="972.9531"/></g><g><title>AuthController</title><rect fill="#FFFFFF" height="28" style="stroke:#181818;stroke-width:1;" width="10" x="902.0479" y="1272.8828"/></g><g><title>USER</title><rect fill="#FFFFFF" height="262.7969" style="stroke:#181818;stroke-width:1;" width="10" x="1157.9351" y="476.4922"/></g><g><title>USER</title><rect fill="#FFFFFF" height="28" style="stroke:#181818;stroke-width:1;" width="10" x="1162.9351" y="513.625"/></g><g><title>USER</title><rect fill="#FFFFFF" height="262.7969" style="stroke:#181818;stroke-width:1;" width="10" x="1157.9351" y="972.9531"/></g><g><title>USER</title><rect fill="#FFFFFF" height="28" style="stroke:#181818;stroke-width:1;" width="10" x="1162.9351" y="1010.0859"/></g><g class="message" data-entity-1="part1" data-entity-2="part2" id="msg1"><polygon fill="#181818" points="293.1484,108.4297,303.1484,112.4297,293.1484,116.4297,297.1484,112.4297" style="stroke:#181818;stroke-width:1;"/><line style="stroke:#181818;stroke-width:1;" x1="28.9551" x2="299.1484" y1="112.4297" y2="112.4297"/><text fill="#000000" font-family="sans-serif" font-size="13" font-weight="bold" lengthAdjust="spacing" textLength="9.0454" x="35.9551" y="107.3638">1</text><text fill="#000000" font-family="sans-serif" font-size="13" lengthAdjust="spacing" textLength="128.3242" x="49.0005" y="107.3638">Access sign in page</text></g><g class="message" data-entity-1="part2" data-entity-2="part2" id="msg2"><line style="stroke:#181818;stroke-width:1;" x1="320.1484" x2="362.1484" y1="141.5625" y2="141.5625"/><line style="stroke:#181818;stroke-width:1;" x1="362.1484" x2="362.1484" y1="141.5625" y2="154.5625"/><line style="stroke:#181818;stroke-width:1;" x1="321.1484" x2="362.1484" y1="154.5625" y2="154.5625"/><polygon fill="#181818" points="331.1484,150.5625,321.1484,154.5625,331.1484,158.5625,327.1484,154.5625" style="stroke:#181818;stroke-width:1;"/><text fill="#000000" font-family="sans-serif" font-size="13" font-weight="bold" lengthAdjust="spacing" textLength="9.0454" x="327.1484" y="136.4966">2</text><text fill="#000000" font-family="sans-serif" font-size="13" lengthAdjust="spacing" textLength="129.5811" x="340.1938" y="136.4966">Display sign in form</text></g><g class="message" data-entity-1="part1" data-entity-2="part2" id="msg3"><polygon fill="#181818" points="293.1484,209.6953,303.1484,213.6953,293.1484,217.6953,297.1484,213.6953" style="stroke:#181818;stroke-width:1;"/><line style="stroke:#181818;stroke-width:1;" x1="28.9551" x2="299.1484" y1="213.6953" y2="213.6953"/><text fill="#000000" font-family="sans-serif" font-size="13" font-weight="bold" lengthAdjust="spacing" textLength="9.0454" x="35.9551" y="208.6294">3</text><text fill="#000000" font-family="sans-serif" font-size="13" lengthAdjust="spacing" textLength="239.1479" x="49.0005" y="208.6294">Enter username/email and password</text></g><g class="message" data-entity-1="part1" data-entity-2="part2" id="msg4"><polygon fill="#181818" points="293.1484,238.8281,303.1484,242.8281,293.1484,246.8281,297.1484,242.8281" style="stroke:#181818;stroke-width:1;"/><line style="stroke:#181818;stroke-width:1;" x1="23.9551" x2="299.1484" y1="242.8281" y2="242.8281"/><text fill="#000000" font-family="sans-serif" font-size="13" font-weight="bold" lengthAdjust="spacing" textLength="9.0454" x="30.9551" y="237.7622">4</text><text fill="#000000" font-family="sans-serif" font-size="13" lengthAdjust="spacing" textLength="91.6284" x="44.0005" y="237.7622">Click "Sign In"</text></g><g class="message" data-entity-1="part2" data-entity-2="part2" id="msg5"><line style="stroke:#181818;stroke-width:1;" x1="320.1484" x2="362.1484" y1="271.9609" y2="271.9609"/><line style="stroke:#181818;stroke-width:1;" x1="362.1484" x2="362.1484" y1="271.9609" y2="284.9609"/><line style="stroke:#181818;stroke-width:1;" x1="321.1484" x2="362.1484" y1="284.9609" y2="284.9609"/><polygon fill="#181818" points="331.1484,280.9609,321.1484,284.9609,331.1484,288.9609,327.1484,284.9609" style="stroke:#181818;stroke-width:1;"/><text fill="#000000" font-family="sans-serif" font-size="13" font-weight="bold" lengthAdjust="spacing" textLength="9.0454" x="327.1484" y="266.895">5</text><text fill="#000000" font-family="sans-serif" font-size="13" lengthAdjust="spacing" textLength="134.5449" x="340.1938" y="266.895">Validate data format</text></g><path d="M258.6143,329.9609 L345.5659,329.9609 L345.5659,337.0938 L335.5659,347.0938 L258.6143,347.0938 L258.6143,329.9609" fill="#EEEEEE" style="stroke:#000000;stroke-width:1.5;"/><rect fill="none" height="89.2656" style="stroke:#000000;stroke-width:1.5;" width="264.8545" x="258.6143" y="329.9609"/><text fill="#000000" font-family="sans-serif" font-size="13" font-weight="bold" lengthAdjust="spacing" textLength="41.9517" x="273.6143" y="343.0278">break</text><text fill="#000000" font-family="sans-serif" font-size="11" font-weight="bold" lengthAdjust="spacing" textLength="129.5347" x="360.5659" y="342.1714">[Invalid data format]</text><g class="message" data-entity-1="part2" data-entity-2="part2" id="msg6"><line style="stroke:#181818;stroke-width:1;" x1="320.1484" x2="362.1484" y1="368.2266" y2="368.2266"/><line style="stroke:#181818;stroke-width:1;" x1="362.1484" x2="362.1484" y1="368.2266" y2="381.2266"/><line style="stroke:#181818;stroke-width:1;" x1="321.1484" x2="362.1484" y1="381.2266" y2="381.2266"/><polygon fill="#181818" points="331.1484,377.2266,321.1484,381.2266,331.1484,385.2266,327.1484,381.2266" style="stroke:#181818;stroke-width:1;"/><text fill="#000000" font-family="sans-serif" font-size="13" font-weight="bold" lengthAdjust="spacing" textLength="9.0454" x="327.1484" y="363.1606">6</text><text fill="#000000" font-family="sans-serif" font-size="13" lengthAdjust="spacing" textLength="161.2749" x="340.1938" y="363.1606">Display error notification</text></g><g class="message" data-entity-1="part2" data-entity-2="part4" id="msg7"><polygon fill="#181818" points="885.0479,443.3594,895.0479,447.3594,885.0479,451.3594,889.0479,447.3594" style="stroke:#181818;stroke-width:1;"/><line style="stroke:#181818;stroke-width:1;" x1="315.1484" x2="891.0479" y1="447.3594" y2="447.3594"/><text fill="#000000" font-family="sans-serif" font-size="13" font-weight="bold" lengthAdjust="spacing" textLength="9.0454" x="322.1484" y="442.2935">7</text><text fill="#000000" font-family="sans-serif" font-size="13" lengthAdjust="spacing" textLength="122.3765" x="335.1938" y="442.2935">Send login request</text></g><g class="message" data-entity-1="part4" data-entity-2="part5" id="msg8"><polygon fill="#181818" points="1145.9351,472.4922,1155.9351,476.4922,1145.9351,480.4922,1149.9351,476.4922" style="stroke:#181818;stroke-width:1;"/><line style="stroke:#181818;stroke-width:1;" x1="907.0479" x2="1151.9351" y1="476.4922" y2="476.4922"/><text fill="#000000" font-family="sans-serif" font-size="13" font-weight="bold" lengthAdjust="spacing" textLength="9.0454" x="914.0479" y="471.4263">8</text><text fill="#000000" font-family="sans-serif" font-size="13" lengthAdjust="spacing" textLength="218.8418" x="927.0933" y="471.4263">Query user by username or email</text></g><g class="message" data-entity-1="part5" data-entity-2="part5" id="msg9"><line style="stroke:#181818;stroke-width:1;" x1="1172.9351" x2="1214.9351" y1="505.625" y2="505.625"/><line style="stroke:#181818;stroke-width:1;" x1="1214.9351" x2="1214.9351" y1="505.625" y2="518.625"/><line style="stroke:#181818;stroke-width:1;" x1="1173.9351" x2="1214.9351" y1="518.625" y2="518.625"/><polygon fill="#181818" points="1183.9351,514.625,1173.9351,518.625,1183.9351,522.625,1179.9351,518.625" style="stroke:#181818;stroke-width:1;"/><text fill="#000000" font-family="sans-serif" font-size="13" font-weight="bold" lengthAdjust="spacing" textLength="9.0454" x="1179.9351" y="500.5591">9</text><text fill="#000000" font-family="sans-serif" font-size="13" lengthAdjust="spacing" textLength="215.5664" x="1192.9805" y="500.5591">Find user and get password hash</text></g><path d="M258.6143,563.625 L345.5659,563.625 L345.5659,570.7578 L335.5659,580.7578 L258.6143,580.7578 L258.6143,563.625" fill="#EEEEEE" style="stroke:#000000;stroke-width:1.5;"/><rect fill="none" height="147.5313" style="stroke:#000000;stroke-width:1.5;" width="936.1743" x="258.6143" y="563.625"/><text fill="#000000" font-family="sans-serif" font-size="13" font-weight="bold" lengthAdjust="spacing" textLength="41.9517" x="273.6143" y="576.6919">break</text><text fill="#000000" font-family="sans-serif" font-size="11" font-weight="bold" lengthAdjust="spacing" textLength="102.604" x="360.5659" y="575.8354">[User not found]</text><g class="message" data-entity-1="part5" data-entity-2="part4" id="msg10"><polygon fill="#181818" points="918.0479,597.8906,908.0479,601.8906,918.0479,605.8906,914.0479,601.8906" style="stroke:#181818;stroke-width:1;"/><line style="stroke:#181818;stroke-width:1;stroke-dasharray:2,2;" x1="912.0479" x2="1156.9351" y1="601.8906" y2="601.8906"/><text fill="#000000" font-family="sans-serif" font-size="13" font-weight="bold" lengthAdjust="spacing" textLength="18.0908" x="924.0479" y="596.8247">10</text><text fill="#000000" font-family="sans-serif" font-size="13" lengthAdjust="spacing" textLength="109.4399" x="946.1387" y="596.8247">Error notification</text></g><g class="message" data-entity-1="part4" data-entity-2="part2" id="msg11"><polygon fill="#181818" points="326.1484,627.0234,316.1484,631.0234,326.1484,635.0234,322.1484,631.0234" style="stroke:#181818;stroke-width:1;"/><line style="stroke:#181818;stroke-width:1;stroke-dasharray:2,2;" x1="320.1484" x2="896.0479" y1="631.0234" y2="631.0234"/><text fill="#000000" font-family="sans-serif" font-size="13" font-weight="bold" lengthAdjust="spacing" textLength="18.0908" x="332.1484" y="625.9575">11</text><text fill="#000000" font-family="sans-serif" font-size="13" lengthAdjust="spacing" textLength="109.4399" x="354.2393" y="625.9575">Error notification</text></g><g class="message" data-entity-1="part2" data-entity-2="part2" id="msg12"><line style="stroke:#181818;stroke-width:1;" x1="320.1484" x2="362.1484" y1="660.1563" y2="660.1563"/><line style="stroke:#181818;stroke-width:1;" x1="362.1484" x2="362.1484" y1="660.1563" y2="673.1563"/><line style="stroke:#181818;stroke-width:1;" x1="321.1484" x2="362.1484" y1="673.1563" y2="673.1563"/><polygon fill="#181818" points="331.1484,669.1563,321.1484,673.1563,331.1484,677.1563,327.1484,673.1563" style="stroke:#181818;stroke-width:1;"/><text fill="#000000" font-family="sans-serif" font-size="13" font-weight="bold" lengthAdjust="spacing" textLength="18.0908" x="327.1484" y="655.0903">12</text><text fill="#000000" font-family="sans-serif" font-size="13" lengthAdjust="spacing" textLength="352.5996" x="349.2393" y="655.0903">Display "Username/Email or password incorrect" error</text></g><g class="message" data-entity-1="part5" data-entity-2="part4" id="msg13"><polygon fill="#181818" points="918.0479,735.2891,908.0479,739.2891,918.0479,743.2891,914.0479,739.2891" style="stroke:#181818;stroke-width:1;"/><line style="stroke:#181818;stroke-width:1;stroke-dasharray:2,2;" x1="912.0479" x2="1161.9351" y1="739.2891" y2="739.2891"/><text fill="#000000" font-family="sans-serif" font-size="13" font-weight="bold" lengthAdjust="spacing" textLength="18.0908" x="924.0479" y="734.2231">13</text><text fill="#000000" font-family="sans-serif" font-size="13" lengthAdjust="spacing" textLength="71.0239" x="946.1387" y="734.2231">User found</text></g><g class="message" data-entity-1="part4" data-entity-2="part4" id="msg14"><line style="stroke:#181818;stroke-width:1;" x1="912.0479" x2="954.0479" y1="768.4219" y2="768.4219"/><line style="stroke:#181818;stroke-width:1;" x1="954.0479" x2="954.0479" y1="768.4219" y2="781.4219"/><line style="stroke:#181818;stroke-width:1;" x1="913.0479" x2="954.0479" y1="781.4219" y2="781.4219"/><polygon fill="#181818" points="923.0479,777.4219,913.0479,781.4219,923.0479,785.4219,919.0479,781.4219" style="stroke:#181818;stroke-width:1;"/><text fill="#000000" font-family="sans-serif" font-size="13" font-weight="bold" lengthAdjust="spacing" textLength="18.0908" x="919.0479" y="763.356">14</text><text fill="#000000" font-family="sans-serif" font-size="13" lengthAdjust="spacing" textLength="139.5469" x="941.1387" y="763.356">Verify password hash</text></g><path d="M258.6143,826.4219 L345.5659,826.4219 L345.5659,833.5547 L335.5659,843.5547 L258.6143,843.5547 L258.6143,826.4219" fill="#EEEEEE" style="stroke:#000000;stroke-width:1.5;"/><rect fill="none" height="118.3984" style="stroke:#000000;stroke-width:1.5;" width="707.4263" x="258.6143" y="826.4219"/><text fill="#000000" font-family="sans-serif" font-size="13" font-weight="bold" lengthAdjust="spacing" textLength="41.9517" x="273.6143" y="839.4888">break</text><text fill="#000000" font-family="sans-serif" font-size="11" font-weight="bold" lengthAdjust="spacing" textLength="129.25" x="360.5659" y="838.6323">[Password incorrect]</text><g class="message" data-entity-1="part4" data-entity-2="part2" id="msg15"><polygon fill="#181818" points="326.1484,860.6875,316.1484,864.6875,326.1484,868.6875,322.1484,864.6875" style="stroke:#181818;stroke-width:1;"/><line style="stroke:#181818;stroke-width:1;stroke-dasharray:2,2;" x1="320.1484" x2="901.0479" y1="864.6875" y2="864.6875"/><text fill="#000000" font-family="sans-serif" font-size="13" font-weight="bold" lengthAdjust="spacing" textLength="18.0908" x="332.1484" y="859.6216">15</text><text fill="#000000" font-family="sans-serif" font-size="13" lengthAdjust="spacing" textLength="109.4399" x="354.2393" y="859.6216">Error notification</text></g><g class="message" data-entity-1="part2" data-entity-2="part2" id="msg16"><line style="stroke:#181818;stroke-width:1;" x1="320.1484" x2="362.1484" y1="893.8203" y2="893.8203"/><line style="stroke:#181818;stroke-width:1;" x1="362.1484" x2="362.1484" y1="893.8203" y2="906.8203"/><line style="stroke:#181818;stroke-width:1;" x1="321.1484" x2="362.1484" y1="906.8203" y2="906.8203"/><polygon fill="#181818" points="331.1484,902.8203,321.1484,906.8203,331.1484,910.8203,327.1484,906.8203" style="stroke:#181818;stroke-width:1;"/><text fill="#000000" font-family="sans-serif" font-size="13" font-weight="bold" lengthAdjust="spacing" textLength="18.0908" x="327.1484" y="888.7544">16</text><text fill="#000000" font-family="sans-serif" font-size="13" lengthAdjust="spacing" textLength="352.5996" x="349.2393" y="888.7544">Display "Username/Email or password incorrect" error</text></g><g class="message" data-entity-1="part4" data-entity-2="part5" id="msg17"><polygon fill="#181818" points="1145.9351,968.9531,1155.9351,972.9531,1145.9351,976.9531,1149.9351,972.9531" style="stroke:#181818;stroke-width:1;"/><line style="stroke:#181818;stroke-width:1;" x1="907.0479" x2="1151.9351" y1="972.9531" y2="972.9531"/><text fill="#000000" font-family="sans-serif" font-size="13" font-weight="bold" lengthAdjust="spacing" textLength="18.0908" x="914.0479" y="967.8872">17</text><text fill="#000000" font-family="sans-serif" font-size="13" lengthAdjust="spacing" textLength="170.3647" x="936.1387" y="967.8872">Check account lock status</text></g><g class="message" data-entity-1="part5" data-entity-2="part5" id="msg18"><line style="stroke:#181818;stroke-width:1;" x1="1172.9351" x2="1214.9351" y1="1002.0859" y2="1002.0859"/><line style="stroke:#181818;stroke-width:1;" x1="1214.9351" x2="1214.9351" y1="1002.0859" y2="1015.0859"/><line style="stroke:#181818;stroke-width:1;" x1="1173.9351" x2="1214.9351" y1="1015.0859" y2="1015.0859"/><polygon fill="#181818" points="1183.9351,1011.0859,1173.9351,1015.0859,1183.9351,1019.0859,1179.9351,1015.0859" style="stroke:#181818;stroke-width:1;"/><text fill="#000000" font-family="sans-serif" font-size="13" font-weight="bold" lengthAdjust="spacing" textLength="18.0908" x="1179.9351" y="997.02">18</text><text fill="#000000" font-family="sans-serif" font-size="13" lengthAdjust="spacing" textLength="118.9487" x="1202.0259" y="997.02">Query is_lock field</text></g><path d="M258.6143,1060.0859 L345.5659,1060.0859 L345.5659,1067.2188 L335.5659,1077.2188 L258.6143,1077.2188 L258.6143,1060.0859" fill="#EEEEEE" style="stroke:#000000;stroke-width:1.5;"/><rect fill="none" height="147.5313" style="stroke:#000000;stroke-width:1.5;" width="936.1743" x="258.6143" y="1060.0859"/><text fill="#000000" font-family="sans-serif" font-size="13" font-weight="bold" lengthAdjust="spacing" textLength="41.9517" x="273.6143" y="1073.1528">break</text><text fill="#000000" font-family="sans-serif" font-size="11" font-weight="bold" lengthAdjust="spacing" textLength="104.4141" x="360.5659" y="1072.2964">[Account locked]</text><g class="message" data-entity-1="part5" data-entity-2="part4" id="msg19"><polygon fill="#181818" points="918.0479,1094.3516,908.0479,1098.3516,918.0479,1102.3516,914.0479,1098.3516" style="stroke:#181818;stroke-width:1;"/><line style="stroke:#181818;stroke-width:1;stroke-dasharray:2,2;" x1="912.0479" x2="1156.9351" y1="1098.3516" y2="1098.3516"/><text fill="#000000" font-family="sans-serif" font-size="13" font-weight="bold" lengthAdjust="spacing" textLength="18.0908" x="924.0479" y="1093.2856">19</text><text fill="#000000" font-family="sans-serif" font-size="13" lengthAdjust="spacing" textLength="99.3408" x="946.1387" y="1093.2856">Account locked</text></g><g class="message" data-entity-1="part4" data-entity-2="part2" id="msg20"><polygon fill="#181818" points="326.1484,1123.4844,316.1484,1127.4844,326.1484,1131.4844,322.1484,1127.4844" style="stroke:#181818;stroke-width:1;"/><line style="stroke:#181818;stroke-width:1;stroke-dasharray:2,2;" x1="320.1484" x2="896.0479" y1="1127.4844" y2="1127.4844"/><text fill="#000000" font-family="sans-serif" font-size="13" font-weight="bold" lengthAdjust="spacing" textLength="18.0908" x="332.1484" y="1122.4185">20</text><text fill="#000000" font-family="sans-serif" font-size="13" lengthAdjust="spacing" textLength="109.4399" x="354.2393" y="1122.4185">Error notification</text></g><g class="message" data-entity-1="part2" data-entity-2="part2" id="msg21"><line style="stroke:#181818;stroke-width:1;" x1="320.1484" x2="362.1484" y1="1156.6172" y2="1156.6172"/><line style="stroke:#181818;stroke-width:1;" x1="362.1484" x2="362.1484" y1="1156.6172" y2="1169.6172"/><line style="stroke:#181818;stroke-width:1;" x1="321.1484" x2="362.1484" y1="1169.6172" y2="1169.6172"/><polygon fill="#181818" points="331.1484,1165.6172,321.1484,1169.6172,331.1484,1173.6172,327.1484,1169.6172" style="stroke:#181818;stroke-width:1;"/><text fill="#000000" font-family="sans-serif" font-size="13" font-weight="bold" lengthAdjust="spacing" textLength="18.0908" x="327.1484" y="1151.5513">21</text><text fill="#000000" font-family="sans-serif" font-size="13" lengthAdjust="spacing" textLength="356.7446" x="349.2393" y="1151.5513">Display "Account locked. Please contact support" error</text></g><g class="message" data-entity-1="part5" data-entity-2="part4" id="msg22"><polygon fill="#181818" points="918.0479,1231.75,908.0479,1235.75,918.0479,1239.75,914.0479,1235.75" style="stroke:#181818;stroke-width:1;"/><line style="stroke:#181818;stroke-width:1;stroke-dasharray:2,2;" x1="912.0479" x2="1161.9351" y1="1235.75" y2="1235.75"/><text fill="#000000" font-family="sans-serif" font-size="13" font-weight="bold" lengthAdjust="spacing" textLength="18.0908" x="924.0479" y="1230.6841">22</text><text fill="#000000" font-family="sans-serif" font-size="13" lengthAdjust="spacing" textLength="96.3638" x="946.1387" y="1230.6841">Account active</text></g><g class="message" data-entity-1="part4" data-entity-2="part4" id="msg23"><line style="stroke:#181818;stroke-width:1;" x1="912.0479" x2="954.0479" y1="1264.8828" y2="1264.8828"/><line style="stroke:#181818;stroke-width:1;" x1="954.0479" x2="954.0479" y1="1264.8828" y2="1277.8828"/><line style="stroke:#181818;stroke-width:1;" x1="913.0479" x2="954.0479" y1="1277.8828" y2="1277.8828"/><polygon fill="#181818" points="923.0479,1273.8828,913.0479,1277.8828,923.0479,1281.8828,919.0479,1277.8828" style="stroke:#181818;stroke-width:1;"/><text fill="#000000" font-family="sans-serif" font-size="13" font-weight="bold" lengthAdjust="spacing" textLength="18.0908" x="919.0479" y="1259.8169">23</text><text fill="#000000" font-family="sans-serif" font-size="13" lengthAdjust="spacing" textLength="130.4253" x="941.1387" y="1259.8169">Generate JWT token</text></g><g class="message" data-entity-1="part4" data-entity-2="part2" id="msg24"><polygon fill="#181818" points="326.1484,1333.0156,316.1484,1337.0156,326.1484,1341.0156,322.1484,1337.0156" style="stroke:#181818;stroke-width:1;"/><line style="stroke:#181818;stroke-width:1;stroke-dasharray:2,2;" x1="320.1484" x2="901.0479" y1="1337.0156" y2="1337.0156"/><text fill="#000000" font-family="sans-serif" font-size="13" font-weight="bold" lengthAdjust="spacing" textLength="18.0908" x="332.1484" y="1331.9497">24</text><text fill="#000000" font-family="sans-serif" font-size="13" lengthAdjust="spacing" textLength="153.7529" x="354.2393" y="1331.9497">Success with JWT token</text></g><g class="message" data-entity-1="part2" data-entity-2="part3" id="msg25"><polygon fill="#181818" points="705.9839,1362.1484,715.9839,1366.1484,705.9839,1370.1484,709.9839,1366.1484" style="stroke:#181818;stroke-width:1;"/><line style="stroke:#181818;stroke-width:1;" x1="310.1484" x2="711.9839" y1="1366.1484" y2="1366.1484"/><text fill="#000000" font-family="sans-serif" font-size="13" font-weight="bold" lengthAdjust="spacing" textLength="18.0908" x="317.1484" y="1361.0825">25</text><text fill="#000000" font-family="sans-serif" font-size="13" lengthAdjust="spacing" textLength="149.2524" x="339.2393" y="1361.0825">Redirect to home page</text></g><g class="message" data-entity-1="part3" data-entity-2="part3" id="msg26"><line style="stroke:#181818;stroke-width:1;" x1="732.9839" x2="774.9839" y1="1395.2813" y2="1395.2813"/><line style="stroke:#181818;stroke-width:1;" x1="774.9839" x2="774.9839" y1="1395.2813" y2="1408.2813"/><line style="stroke:#181818;stroke-width:1;" x1="733.9839" x2="774.9839" y1="1408.2813" y2="1408.2813"/><polygon fill="#181818" points="743.9839,1404.2813,733.9839,1408.2813,743.9839,1412.2813,739.9839,1408.2813" style="stroke:#181818;stroke-width:1;"/><text fill="#000000" font-family="sans-serif" font-size="13" font-weight="bold" lengthAdjust="spacing" textLength="18.0908" x="739.9839" y="1390.2153">26</text><text fill="#000000" font-family="sans-serif" font-size="13" lengthAdjust="spacing" textLength="122.9731" x="762.0747" y="1390.2153">Display home view</text></g><?plantuml-src lLN1Zjem4BtdAqRSQU-eMYbAQQ6dtNMJ7YkJ3CGYiQdjWFBt7Jias65tkzf33o1ipvjvy-PXyyugsRKxr4d2Iwiqv0OrS0DvibEThBZkWOc3tCf2uCKTi6rnEzge5iU3JP6KIbgj6aWxMsV3xsP8bsO9IYji3pbRF_i2p9SKPswHgkMmV72vLv2M9He3Xgg2a73Y1xm5kkhqcOA_2dDgU3z5xvLku-WAesLGQ2qjaUkeOSbR_8mj5mrmML59OovALq5ireZo20id1Mpb8ioQHuGAteZARTCNztIuVPlGJYC_KjApGqOmW9TQHQrfJb9PiHSbjq992enI0ingeAoIaMMQhO3H1ZJgG89f_DEX2IZIfDBC1UPi1KyTqfITHB3h9wc0wdkrWW6o96SZwfkWz1xar3oWdHI5cfiwGeL2ib4CRqBga8GWer4_nEZBSkcJhrzgt_Nc0bnphmRCXLpau-ZNVlI4cdWAMIgjiRIBGU_tIHpGz2qCz6Sj3kewfWLgiUzV4uS64I1fTHNdyOxZUmI8K_r7GQwUo6gaFn0lIvB4alTeOIotdOdS47Ay-MbmeJ2_FMmliAd-xQ4qA8Kp3zsTVSm_SPfFyDWWDmZk5YH2OBhJIUaFEsZCxeDmrkJDHDzHedQxFtxz1AkEAD-oKDWewuQRzY9i7Q1ZHBowoh0X5Pwn4iuFX8AQde7XefxrD2teSTXCq5503plJyn751IdkLdy1?></g></svg>