<?plantuml 1.2026.1?><svg xmlns="http://www.w3.org/2000/svg" xmlns:xlink="http://www.w3.org/1999/xlink" contentStyleType="text/css" data-diagram-type="SEQUENCE" height="487px" preserveAspectRatio="none" style="width:794px;height:487px;background:#FFFFFF;" version="1.1" viewBox="0 0 794 487" width="794px" zoomAndPan="magnify"><defs/><g><g><title>Admin</title><rect fill="#FFFFFF" height="268.9297" style="stroke:#181818;stroke-width:1;" width="10" x="25.4321" y="112.4297"/></g><g><title>UserListView</title><rect fill="#FFFFFF" height="268.9297" style="stroke:#181818;stroke-width:1;" width="10" x="267.5132" y="112.4297"/></g><g><title>UserListView</title><rect fill="#FFFFFF" height="28" style="stroke:#181818;stroke-width:1;" width="10" x="272.5132" y="353.3594"/></g><g><title>AdminController</title><rect fill="#FFFFFF" height="159.5313" style="stroke:#181818;stroke-width:1;" width="10" x="487.0688" y="141.5625"/></g><g><title>USERS</title><rect fill="#FFFFFF" height="101.2656" style="stroke:#181818;stroke-width:1;" width="10" x="627.2046" y="170.6953"/></g><g><title>USERS</title><rect fill="#FFFFFF" height="28" style="stroke:#181818;stroke-width:1;" width="10" x="632.2046" y="207.8281"/></g><g class="participant-lifeline" data-entity-uid="part1" data-qualified-name="A" id="part1-lifeline"><g><title>Admin</title><rect fill="#000000" fill-opacity="0.00000" height="325.0625" width="8" x="26.4321" y="81.2969"/><line style="stroke:#181818;stroke-width:0.5;stroke-dasharray:5,5;" x1="30" x2="30" y1="81.2969" y2="406.3594"/></g></g><g class="participant-lifeline" data-entity-uid="part2" data-qualified-name="ULV" id="part2-lifeline"><g><title>UserListView</title><rect fill="#000000" fill-opacity="0.00000" height="325.0625" width="8" x="268.5132" y="81.2969"/><line style="stroke:#181818;stroke-width:0.5;stroke-dasharray:5,5;" x1="271.5566" x2="271.5566" y1="81.2969" y2="406.3594"/></g></g><g class="participant-lifeline" data-entity-uid="part3" data-qualified-name="AC" id="part3-lifeline"><g><title>AdminController</title><rect fill="#000000" fill-opacity="0.00000" height="325.0625" width="8" x="488.0688" y="81.2969"/><line style="stroke:#181818;stroke-width:0.5;stroke-dasharray:5,5;" x1="492.0503" x2="492.0503" y1="81.2969" y2="406.3594"/></g></g><g class="participant-lifeline" data-entity-uid="part4" data-qualified-name="US" id="part4-lifeline"><g><title>USERS</title><rect fill="#000000" fill-opacity="0.00000" height="325.0625" width="8" x="628.2046" y="81.2969"/><line style="stroke:#181818;stroke-width:0.5;stroke-dasharray:5,5;" x1="631.9077" x2="631.9077" y1="81.2969" y2="406.3594"/></g></g><g class="participant participant-head" data-entity-uid="part1" data-qualified-name="A" id="part1-head"><text fill="#000000" font-family="sans-serif" font-size="14" lengthAdjust="spacing" textLength="44.8643" x="5" y="77.9951">Admin</text><ellipse cx="30.4321" cy="13.5" fill="#E2E2F0" rx="8" ry="8" style="stroke:#181818;stroke-width:0.5;"/><path d="M30.4321,21.5 L30.4321,48.5 M17.4321,29.5 L43.4321,29.5 M30.4321,48.5 L17.4321,63.5 M30.4321,48.5 L43.4321,63.5" fill="none" style="stroke:#181818;stroke-width:0.5;"/></g><g class="participant participant-tail" data-entity-uid="part1" data-qualified-name="A" id="part1-tail"><text fill="#000000" font-family="sans-serif" font-size="14" lengthAdjust="spacing" textLength="44.8643" x="5" y="418.3545">Admin</text><ellipse cx="30.4321" cy="430.1563" fill="#E2E2F0" rx="8" ry="8" style="stroke:#181818;stroke-width:0.5;"/><path d="M30.4321,438.1563 L30.4321,465.1563 M17.4321,446.1563 L43.4321,446.1563 M30.4321,465.1563 L17.4321,480.1563 M30.4321,465.1563 L43.4321,480.1563" fill="none" style="stroke:#181818;stroke-width:0.5;"/></g><g class="participant participant-head" data-entity-uid="part2" data-qualified-name="ULV" id="part2-head"><text fill="#000000" font-family="sans-serif" font-size="14" lengthAdjust="spacing" textLength="89.9131" x="224.5566" y="77.9951">UserListView</text><path d="M252.0132,37 L252.0132,61 M252.0132,49 L269.0132,49" fill="none" style="stroke:#181818;stroke-width:0.5;"/><ellipse cx="281.0132" cy="49" fill="#E2E2F0" rx="12" ry="12" style="stroke:#181818;stroke-width:0.5;"/></g><g class="participant participant-tail" data-entity-uid="part2" data-qualified-name="ULV" id="part2-tail"><text fill="#000000" font-family="sans-serif" font-size="14" lengthAdjust="spacing" textLength="89.9131" x="224.5566" y="418.3545">UserListView</text><path d="M252.0132,425.6563 L252.0132,449.6563 M252.0132,437.6563 L269.0132,437.6563" fill="none" style="stroke:#181818;stroke-width:0.5;"/><ellipse cx="281.0132" cy="437.6563" fill="#E2E2F0" rx="12" ry="12" style="stroke:#181818;stroke-width:0.5;"/></g><g class="participant participant-head" data-entity-uid="part3" data-qualified-name="AC" id="part3-head"><text fill="#000000" font-family="sans-serif" font-size="14" lengthAdjust="spacing" textLength="114.0371" x="432.0503" y="77.9951">AdminController</text><ellipse cx="492.0688" cy="49" fill="#E2E2F0" rx="12" ry="12" style="stroke:#181818;stroke-width:0.5;"/><polygon fill="#181818" points="488.0688,37,494.0688,32,492.0688,37,494.0688,42,488.0688,37" style="stroke:#181818;stroke-width:1;"/></g><g class="participant participant-tail" data-entity-uid="part3" data-qualified-name="AC" id="part3-tail"><text fill="#000000" font-family="sans-serif" font-size="14" lengthAdjust="spacing" textLength="114.0371" x="432.0503" y="418.3545">AdminController</text><ellipse cx="492.0688" cy="437.6563" fill="#E2E2F0" rx="12" ry="12" style="stroke:#181818;stroke-width:0.5;"/><polygon fill="#181818" points="488.0688,425.6563,494.0688,420.6563,492.0688,425.6563,494.0688,430.6563,488.0688,425.6563" style="stroke:#181818;stroke-width:1;"/></g><g class="participant participant-head" data-entity-uid="part4" data-qualified-name="US" id="part4-head"><text fill="#000000" font-family="sans-serif" font-size="14" lengthAdjust="spacing" textLength="46.5938" x="605.9077" y="77.9951">USERS</text><ellipse cx="632.2046" cy="49" fill="#E2E2F0" rx="12" ry="12" style="stroke:#181818;stroke-width:0.5;"/><line style="stroke:#181818;stroke-width:0.5;" x1="620.2046" x2="644.2046" y1="63" y2="63"/></g><g class="participant participant-tail" data-entity-uid="part4" data-qualified-name="US" id="part4-tail"><text fill="#000000" font-family="sans-serif" font-size="14" lengthAdjust="spacing" textLength="46.5938" x="605.9077" y="418.3545">USERS</text><ellipse cx="632.2046" cy="437.6563" fill="#E2E2F0" rx="12" ry="12" style="stroke:#181818;stroke-width:0.5;"/><line style="stroke:#181818;stroke-width:0.5;" x1="620.2046" x2="644.2046" y1="451.6563" y2="451.6563"/></g><g><title>Admin</title><rect fill="#FFFFFF" height="268.9297" style="stroke:#181818;stroke-width:1;" width="10" x="25.4321" y="112.4297"/></g><g><title>UserListView</title><rect fill="#FFFFFF" height="268.9297" style="stroke:#181818;stroke-width:1;" width="10" x="267.5132" y="112.4297"/></g><g><title>UserListView</title><rect fill="#FFFFFF" height="28" style="stroke:#181818;stroke-width:1;" width="10" x="272.5132" y="353.3594"/></g><g><title>AdminController</title><rect fill="#FFFFFF" height="159.5313" style="stroke:#181818;stroke-width:1;" width="10" x="487.0688" y="141.5625"/></g><g><title>USERS</title><rect fill="#FFFFFF" height="101.2656" style="stroke:#181818;stroke-width:1;" width="10" x="627.2046" y="170.6953"/></g><g><title>USERS</title><rect fill="#FFFFFF" height="28" style="stroke:#181818;stroke-width:1;" width="10" x="632.2046" y="207.8281"/></g><g class="message" data-entity-1="part1" data-entity-2="part2" id="msg1"><polygon fill="#181818" points="255.5132,108.4297,265.5132,112.4297,255.5132,116.4297,259.5132,112.4297" style="stroke:#181818;stroke-width:1;"/><line style="stroke:#181818;stroke-width:1;" x1="35.4321" x2="261.5132" y1="112.4297" y2="112.4297"/><text fill="#000000" font-family="sans-serif" font-size="13" font-weight="bold" lengthAdjust="spacing" textLength="9.0454" x="42.4321" y="107.3638">1</text><text fill="#000000" font-family="sans-serif" font-size="13" lengthAdjust="spacing" textLength="205.0356" x="55.4775" y="107.3638">Access user management page</text></g><g class="message" data-entity-1="part2" data-entity-2="part3" id="msg2"><polygon fill="#181818" points="475.0688,137.5625,485.0688,141.5625,475.0688,145.5625,479.0688,141.5625" style="stroke:#181818;stroke-width:1;"/><line style="stroke:#181818;stroke-width:1;" x1="277.5132" x2="481.0688" y1="141.5625" y2="141.5625"/><text fill="#000000" font-family="sans-serif" font-size="13" font-weight="bold" lengthAdjust="spacing" textLength="9.0454" x="284.5132" y="136.4966">2</text><text fill="#000000" font-family="sans-serif" font-size="13" lengthAdjust="spacing" textLength="109.1035" x="297.5586" y="136.4966">Request user list</text></g><g class="message" data-entity-1="part3" data-entity-2="part4" id="msg3"><polygon fill="#181818" points="615.2046,166.6953,625.2046,170.6953,615.2046,174.6953,619.2046,170.6953" style="stroke:#181818;stroke-width:1;"/><line style="stroke:#181818;stroke-width:1;" x1="497.0688" x2="621.2046" y1="170.6953" y2="170.6953"/><text fill="#000000" font-family="sans-serif" font-size="13" font-weight="bold" lengthAdjust="spacing" textLength="9.0454" x="504.0688" y="165.6294">3</text><text fill="#000000" font-family="sans-serif" font-size="13" lengthAdjust="spacing" textLength="98.0903" x="517.1143" y="165.6294">Query all users</text></g><g class="message" data-entity-1="part4" data-entity-2="part4" id="msg4"><line style="stroke:#181818;stroke-width:1;" x1="642.2046" x2="684.2046" y1="199.8281" y2="199.8281"/><line style="stroke:#181818;stroke-width:1;" x1="684.2046" x2="684.2046" y1="199.8281" y2="212.8281"/><line style="stroke:#181818;stroke-width:1;" x1="643.2046" x2="684.2046" y1="212.8281" y2="212.8281"/><polygon fill="#181818" points="653.2046,208.8281,643.2046,212.8281,653.2046,216.8281,649.2046,212.8281" style="stroke:#181818;stroke-width:1;"/><text fill="#000000" font-family="sans-serif" font-size="13" font-weight="bold" lengthAdjust="spacing" textLength="9.0454" x="649.2046" y="194.7622">4</text><text fill="#000000" font-family="sans-serif" font-size="13" lengthAdjust="spacing" textLength="124.9409" x="662.25" y="194.7622">Query user records</text></g><g class="message" data-entity-1="part4" data-entity-2="part3" id="msg5"><polygon fill="#181818" points="508.0688,267.9609,498.0688,271.9609,508.0688,275.9609,504.0688,271.9609" style="stroke:#181818;stroke-width:1;"/><line style="stroke:#181818;stroke-width:1;stroke-dasharray:2,2;" x1="502.0688" x2="631.2046" y1="271.9609" y2="271.9609"/><text fill="#000000" font-family="sans-serif" font-size="13" font-weight="bold" lengthAdjust="spacing" textLength="9.0454" x="514.0688" y="266.895">5</text><text fill="#000000" font-family="sans-serif" font-size="13" lengthAdjust="spacing" textLength="69.8179" x="527.1143" y="266.895">Users data</text></g><g class="message" data-entity-1="part3" data-entity-2="part2" id="msg6"><polygon fill="#181818" points="288.5132,297.0938,278.5132,301.0938,288.5132,305.0938,284.5132,301.0938" style="stroke:#181818;stroke-width:1;"/><line style="stroke:#181818;stroke-width:1;stroke-dasharray:2,2;" x1="282.5132" x2="491.0688" y1="301.0938" y2="301.0938"/><text fill="#000000" font-family="sans-serif" font-size="13" font-weight="bold" lengthAdjust="spacing" textLength="9.0454" x="294.5132" y="296.0278">6</text><text fill="#000000" font-family="sans-serif" font-size="13" lengthAdjust="spacing" textLength="52.8569" x="307.5586" y="296.0278">User list</text></g><g class="message" data-entity-1="part2" data-entity-2="part2" id="msg7"><line style="stroke:#181818;stroke-width:1;" x1="282.5132" x2="324.5132" y1="345.3594" y2="345.3594"/><line style="stroke:#181818;stroke-width:1;" x1="324.5132" x2="324.5132" y1="345.3594" y2="358.3594"/><line style="stroke:#181818;stroke-width:1;" x1="283.5132" x2="324.5132" y1="358.3594" y2="358.3594"/><polygon fill="#181818" points="293.5132,354.3594,283.5132,358.3594,293.5132,362.3594,289.5132,358.3594" style="stroke:#181818;stroke-width:1;"/><text fill="#000000" font-family="sans-serif" font-size="13" font-weight="bold" lengthAdjust="spacing" textLength="9.0454" x="289.5132" y="332.7271">7</text><text fill="#000000" font-family="sans-serif" font-size="13" lengthAdjust="spacing" textLength="103.6318" x="302.5586" y="325.1606">Display user list</text><text fill="#000000" font-family="sans-serif" font-size="13" lengthAdjust="spacing" textLength="172.5103" x="302.5586" y="340.2935">(name, email, role, status)</text></g><?plantuml-src VP3FQiCm3CRlVWeTDsXU88o2oNRhPJNfQHSr4SFWFwrbh_Jj9pkZItROmI3XxwVlax3a68e_Kr8AfnmJwDdR0CYWrJcMC6EwmyYK3fRpoTAjVes7avfYo2cwHJyiZQFKo45Ho3OBQDwEfX56AGtTlg8zw6aYPYWo5Zm6_2Gl05oag2di5sOI_qTP_UHLNWyz7EbQYFF2EycrWWQbX-PZUdWl9E7HkQRarJoZHhDLjLc9ffZchN2cTIV3NxgkSVKe33Dc_AEfIQkeHXqV4LSQ2VcpJRl6g-MBm_llEX_XAQ2d7P17wtOWbvM6C-R2pzkhh9t_RRNw1W00?></g></svg>