<?plantuml 1.2026.1?><svg xmlns="http://www.w3.org/2000/svg" xmlns:xlink="http://www.w3.org/1999/xlink" contentStyleType="text/css" data-diagram-type="SEQUENCE" height="765px" preserveAspectRatio="none" style="width:867px;height:765px;background:#FFFFFF;" version="1.1" viewBox="0 0 867 765" width="867px" zoomAndPan="magnify"><defs/><g><g><title>Project Manager</title><rect fill="#FFFFFF" height="116.3984" style="stroke:#181818;stroke-width:1;" width="10" x="60.1348" y="112.4297"/></g><g><title>MemberDetailView</title><rect fill="#FFFFFF" height="562.8594" style="stroke:#181818;stroke-width:1;" width="10" x="318.2246" y="112.4297"/></g><g><title>MemberDetailView</title><rect fill="#FFFFFF" height="28" style="stroke:#181818;stroke-width:1;" width="10" x="323.2246" y="164.6953"/></g><g><title>MemberDetailView</title><rect fill="#FFFFFF" height="28" style="stroke:#181818;stroke-width:1;" width="10" x="323.2246" y="478.7578"/></g><g><title>MemberDetailView</title><rect fill="#FFFFFF" height="28" style="stroke:#181818;stroke-width:1;" width="10" x="323.2246" y="631.2891"/></g><g><title>ProjectMemberController</title><rect fill="#FFFFFF" height="321.0625" style="stroke:#181818;stroke-width:1;" width="10" x="539.7734" y="257.9609"/></g><g><title>PROJECT_MEMBERS</title><rect fill="#FFFFFF" height="262.7969" style="stroke:#181818;stroke-width:1;" width="10" x="716.9922" y="287.0938"/></g><g><title>PROJECT_MEMBERS</title><rect fill="#FFFFFF" height="28" style="stroke:#181818;stroke-width:1;" width="10" x="721.9922" y="324.2266"/></g><rect fill="none" height="147.5313" style="stroke:#000000;stroke-width:1.5;" width="559.7261" x="244.0459" y="374.2266"/><g class="participant-lifeline" data-entity-uid="part1" data-qualified-name="PMR" id="part1-lifeline"><g><title>Project Manager</title><rect fill="#000000" fill-opacity="0.00000" height="602.9922" width="8" x="61.1348" y="81.2969"/><line style="stroke:#181818;stroke-width:0.5;stroke-dasharray:5,5;" x1="65" x2="65" y1="81.2969" y2="684.2891"/></g></g><g class="participant-lifeline" data-entity-uid="part2" data-qualified-name="MDV" id="part2-lifeline"><g><title>MemberDetailView</title><rect fill="#000000" fill-opacity="0.00000" height="602.9922" width="8" x="319.2246" y="81.2969"/><line style="stroke:#181818;stroke-width:0.5;stroke-dasharray:5,5;" x1="323.0459" x2="323.0459" y1="81.2969" y2="684.2891"/></g></g><g class="participant-lifeline" data-entity-uid="part3" data-qualified-name="PMC" id="part3-lifeline"><g><title>ProjectMemberController</title><rect fill="#000000" fill-opacity="0.00000" height="602.9922" width="8" x="540.7734" y="81.2969"/><line style="stroke:#181818;stroke-width:0.5;stroke-dasharray:5,5;" x1="544.1675" x2="544.1675" y1="81.2969" y2="684.2891"/></g></g><g class="participant-lifeline" data-entity-uid="part4" data-qualified-name="PM" id="part4-lifeline"><g><title>PROJECT_MEMBERS</title><rect fill="#000000" fill-opacity="0.00000" height="602.9922" width="8" x="717.9922" y="81.2969"/><line style="stroke:#181818;stroke-width:0.5;stroke-dasharray:5,5;" x1="721.2124" x2="721.2124" y1="81.2969" y2="684.2891"/></g></g><g class="participant participant-head" data-entity-uid="part1" data-qualified-name="PMR" id="part1-head"><text fill="#000000" font-family="sans-serif" font-size="14" lengthAdjust="spacing" textLength="114.2695" x="5" y="77.9951">Project Manager</text><ellipse cx="65.1348" cy="13.5" fill="#E2E2F0" rx="8" ry="8" style="stroke:#181818;stroke-width:0.5;"/><path d="M65.1348,21.5 L65.1348,48.5 M52.1348,29.5 L78.1348,29.5 M65.1348,48.5 L52.1348,63.5 M65.1348,48.5 L78.1348,63.5" fill="none" style="stroke:#181818;stroke-width:0.5;"/></g><g class="participant participant-tail" data-entity-uid="part1" data-qualified-name="PMR" id="part1-tail"><text fill="#000000" font-family="sans-serif" font-size="14" lengthAdjust="spacing" textLength="114.2695" x="5" y="696.2842">Project Manager</text><ellipse cx="65.1348" cy="708.0859" fill="#E2E2F0" rx="8" ry="8" style="stroke:#181818;stroke-width:0.5;"/><path d="M65.1348,716.0859 L65.1348,743.0859 M52.1348,724.0859 L78.1348,724.0859 M65.1348,743.0859 L52.1348,758.0859 M65.1348,743.0859 L78.1348,758.0859" fill="none" style="stroke:#181818;stroke-width:0.5;"/></g><g class="participant participant-head" data-entity-uid="part2" data-qualified-name="MDV" id="part2-head"><text fill="#000000" font-family="sans-serif" font-size="14" lengthAdjust="spacing" textLength="132.3574" x="254.0459" y="77.9951">MemberDetailView</text><path d="M302.7246,37 L302.7246,61 M302.7246,49 L319.7246,49" fill="none" style="stroke:#181818;stroke-width:0.5;"/><ellipse cx="331.7246" cy="49" fill="#E2E2F0" rx="12" ry="12" style="stroke:#181818;stroke-width:0.5;"/></g><g class="participant participant-tail" data-entity-uid="part2" data-qualified-name="MDV" id="part2-tail"><text fill="#000000" font-family="sans-serif" font-size="14" lengthAdjust="spacing" textLength="132.3574" x="254.0459" y="696.2842">MemberDetailView</text><path d="M302.7246,703.5859 L302.7246,727.5859 M302.7246,715.5859 L319.7246,715.5859" fill="none" style="stroke:#181818;stroke-width:0.5;"/><ellipse cx="331.7246" cy="715.5859" fill="#E2E2F0" rx="12" ry="12" style="stroke:#181818;stroke-width:0.5;"/></g><g class="participant participant-head" data-entity-uid="part3" data-qualified-name="PMC" id="part3-head"><text fill="#000000" font-family="sans-serif" font-size="14" lengthAdjust="spacing" textLength="175.2119" x="454.1675" y="77.9951">ProjectMemberController</text><ellipse cx="544.7734" cy="49" fill="#E2E2F0" rx="12" ry="12" style="stroke:#181818;stroke-width:0.5;"/><polygon fill="#181818" points="540.7734,37,546.7734,32,544.7734,37,546.7734,42,540.7734,37" style="stroke:#181818;stroke-width:1;"/></g><g class="participant participant-tail" data-entity-uid="part3" data-qualified-name="PMC" id="part3-tail"><text fill="#000000" font-family="sans-serif" font-size="14" lengthAdjust="spacing" textLength="175.2119" x="454.1675" y="696.2842">ProjectMemberController</text><ellipse cx="544.7734" cy="715.5859" fill="#E2E2F0" rx="12" ry="12" style="stroke:#181818;stroke-width:0.5;"/><polygon fill="#181818" points="540.7734,703.5859,546.7734,698.5859,544.7734,703.5859,546.7734,708.5859,540.7734,703.5859" style="stroke:#181818;stroke-width:1;"/></g><g class="participant participant-head" data-entity-uid="part4" data-qualified-name="PM" id="part4-head"><text fill="#000000" font-family="sans-serif" font-size="14" lengthAdjust="spacing" textLength="137.5596" x="650.2124" y="77.9951">PROJECT_MEMBERS</text><ellipse cx="721.9922" cy="49" fill="#E2E2F0" rx="12" ry="12" style="stroke:#181818;stroke-width:0.5;"/><line style="stroke:#181818;stroke-width:0.5;" x1="709.9922" x2="733.9922" y1="63" y2="63"/></g><g class="participant participant-tail" data-entity-uid="part4" data-qualified-name="PM" id="part4-tail"><text fill="#000000" font-family="sans-serif" font-size="14" lengthAdjust="spacing" textLength="137.5596" x="650.2124" y="696.2842">PROJECT_MEMBERS</text><ellipse cx="721.9922" cy="715.5859" fill="#E2E2F0" rx="12" ry="12" style="stroke:#181818;stroke-width:0.5;"/><line style="stroke:#181818;stroke-width:0.5;" x1="709.9922" x2="733.9922" y1="729.5859" y2="729.5859"/></g><g><title>Project Manager</title><rect fill="#FFFFFF" height="116.3984" style="stroke:#181818;stroke-width:1;" width="10" x="60.1348" y="112.4297"/></g><g><title>MemberDetailView</title><rect fill="#FFFFFF" height="562.8594" style="stroke:#181818;stroke-width:1;" width="10" x="318.2246" y="112.4297"/></g><g><title>MemberDetailView</title><rect fill="#FFFFFF" height="28" style="stroke:#181818;stroke-width:1;" width="10" x="323.2246" y="164.6953"/></g><g><title>MemberDetailView</title><rect fill="#FFFFFF" height="28" style="stroke:#181818;stroke-width:1;" width="10" x="323.2246" y="478.7578"/></g><g><title>MemberDetailView</title><rect fill="#FFFFFF" height="28" style="stroke:#181818;stroke-width:1;" width="10" x="323.2246" y="631.2891"/></g><g><title>ProjectMemberController</title><rect fill="#FFFFFF" height="321.0625" style="stroke:#181818;stroke-width:1;" width="10" x="539.7734" y="257.9609"/></g><g><title>PROJECT_MEMBERS</title><rect fill="#FFFFFF" height="262.7969" style="stroke:#181818;stroke-width:1;" width="10" x="716.9922" y="287.0938"/></g><g><title>PROJECT_MEMBERS</title><rect fill="#FFFFFF" height="28" style="stroke:#181818;stroke-width:1;" width="10" x="721.9922" y="324.2266"/></g><g class="message" data-entity-1="part1" data-entity-2="part2" id="msg1"><polygon fill="#181818" points="306.2246,108.4297,316.2246,112.4297,306.2246,116.4297,310.2246,112.4297" style="stroke:#181818;stroke-width:1;"/><line style="stroke:#181818;stroke-width:1;" x1="70.1348" x2="312.2246" y1="112.4297" y2="112.4297"/><text fill="#000000" font-family="sans-serif" font-size="13" font-weight="bold" lengthAdjust="spacing" textLength="9.0454" x="77.1348" y="107.3638">1</text><text fill="#000000" font-family="sans-serif" font-size="13" lengthAdjust="spacing" textLength="221.0444" x="90.1802" y="107.3638">Click "Change Role" on a member</text></g><g class="message" data-entity-1="part2" data-entity-2="part2" id="msg2"><line style="stroke:#181818;stroke-width:1;" x1="333.2246" x2="375.2246" y1="156.6953" y2="156.6953"/><line style="stroke:#181818;stroke-width:1;" x1="375.2246" x2="375.2246" y1="156.6953" y2="169.6953"/><line style="stroke:#181818;stroke-width:1;" x1="334.2246" x2="375.2246" y1="169.6953" y2="169.6953"/><polygon fill="#181818" points="344.2246,165.6953,334.2246,169.6953,344.2246,173.6953,340.2246,169.6953" style="stroke:#181818;stroke-width:1;"/><text fill="#000000" font-family="sans-serif" font-size="13" font-weight="bold" lengthAdjust="spacing" textLength="9.0454" x="340.2246" y="144.063">2</text><text fill="#000000" font-family="sans-serif" font-size="13" lengthAdjust="spacing" textLength="139.5215" x="353.27" y="136.4966">Display role selection</text><text fill="#000000" font-family="sans-serif" font-size="13" lengthAdjust="spacing" textLength="145.647" x="353.27" y="151.6294">(MANAGER / MEMBER)</text></g><g class="message" data-entity-1="part1" data-entity-2="part2" id="msg3"><polygon fill="#181818" points="306.2246,224.8281,316.2246,228.8281,306.2246,232.8281,310.2246,228.8281" style="stroke:#181818;stroke-width:1;"/><line style="stroke:#181818;stroke-width:1;" x1="65.1348" x2="312.2246" y1="228.8281" y2="228.8281"/><text fill="#000000" font-family="sans-serif" font-size="13" font-weight="bold" lengthAdjust="spacing" textLength="9.0454" x="72.1348" y="223.7622">3</text><text fill="#000000" font-family="sans-serif" font-size="13" lengthAdjust="spacing" textLength="209.917" x="85.1802" y="223.7622">Select new role and click "Save"</text></g><g class="message" data-entity-1="part2" data-entity-2="part3" id="msg4"><polygon fill="#181818" points="527.7734,253.9609,537.7734,257.9609,527.7734,261.9609,531.7734,257.9609" style="stroke:#181818;stroke-width:1;"/><line style="stroke:#181818;stroke-width:1;" x1="328.2246" x2="533.7734" y1="257.9609" y2="257.9609"/><text fill="#000000" font-family="sans-serif" font-size="13" font-weight="bold" lengthAdjust="spacing" textLength="9.0454" x="335.2246" y="252.895">4</text><text fill="#000000" font-family="sans-serif" font-size="13" lengthAdjust="spacing" textLength="165.5532" x="348.27" y="252.895">Send update role request</text></g><g class="message" data-entity-1="part3" data-entity-2="part4" id="msg5"><polygon fill="#181818" points="704.9922,283.0938,714.9922,287.0938,704.9922,291.0938,708.9922,287.0938" style="stroke:#181818;stroke-width:1;"/><line style="stroke:#181818;stroke-width:1;" x1="549.7734" x2="710.9922" y1="287.0938" y2="287.0938"/><text fill="#000000" font-family="sans-serif" font-size="13" font-weight="bold" lengthAdjust="spacing" textLength="9.0454" x="556.7734" y="282.0278">5</text><text fill="#000000" font-family="sans-serif" font-size="13" lengthAdjust="spacing" textLength="135.1733" x="569.8188" y="282.0278">Update member role</text></g><g class="message" data-entity-1="part4" data-entity-2="part4" id="msg6"><line style="stroke:#181818;stroke-width:1;" x1="731.9922" x2="773.9922" y1="316.2266" y2="316.2266"/><line style="stroke:#181818;stroke-width:1;" x1="773.9922" x2="773.9922" y1="316.2266" y2="329.2266"/><line style="stroke:#181818;stroke-width:1;" x1="732.9922" x2="773.9922" y1="329.2266" y2="329.2266"/><polygon fill="#181818" points="742.9922,325.2266,732.9922,329.2266,742.9922,333.2266,738.9922,329.2266" style="stroke:#181818;stroke-width:1;"/><text fill="#000000" font-family="sans-serif" font-size="13" font-weight="bold" lengthAdjust="spacing" textLength="9.0454" x="738.9922" y="311.1606">6</text><text fill="#000000" font-family="sans-serif" font-size="13" lengthAdjust="spacing" textLength="108.3037" x="752.0376" y="311.1606">Update role field</text></g><path d="M244.0459,374.2266 L330.9976,374.2266 L330.9976,381.3594 L320.9976,391.3594 L244.0459,391.3594 L244.0459,374.2266" fill="#EEEEEE" style="stroke:#000000;stroke-width:1.5;"/><rect fill="none" height="147.5313" style="stroke:#000000;stroke-width:1.5;" width="559.7261" x="244.0459" y="374.2266"/><text fill="#000000" font-family="sans-serif" font-size="13" font-weight="bold" lengthAdjust="spacing" textLength="41.9517" x="259.0459" y="387.2935">break</text><text fill="#000000" font-family="sans-serif" font-size="11" font-weight="bold" lengthAdjust="spacing" textLength="93.79" x="345.9976" y="386.437">[Update failed]</text><g class="message" data-entity-1="part4" data-entity-2="part3" id="msg7"><polygon fill="#181818" points="560.7734,408.4922,550.7734,412.4922,560.7734,416.4922,556.7734,412.4922" style="stroke:#181818;stroke-width:1;"/><line style="stroke:#181818;stroke-width:1;stroke-dasharray:2,2;" x1="554.7734" x2="715.9922" y1="412.4922" y2="412.4922"/><text fill="#000000" font-family="sans-serif" font-size="13" font-weight="bold" lengthAdjust="spacing" textLength="9.0454" x="566.7734" y="407.4263">7</text><text fill="#000000" font-family="sans-serif" font-size="13" lengthAdjust="spacing" textLength="32.2017" x="579.8188" y="407.4263">Error</text></g><g class="message" data-entity-1="part3" data-entity-2="part2" id="msg8"><polygon fill="#181818" points="339.2246,437.625,329.2246,441.625,339.2246,445.625,335.2246,441.625" style="stroke:#181818;stroke-width:1;"/><line style="stroke:#181818;stroke-width:1;stroke-dasharray:2,2;" x1="333.2246" x2="538.7734" y1="441.625" y2="441.625"/><text fill="#000000" font-family="sans-serif" font-size="13" font-weight="bold" lengthAdjust="spacing" textLength="9.0454" x="345.2246" y="436.5591">8</text><text fill="#000000" font-family="sans-serif" font-size="13" lengthAdjust="spacing" textLength="109.4399" x="358.27" y="436.5591">Error notification</text></g><g class="message" data-entity-1="part2" data-entity-2="part2" id="msg9"><line style="stroke:#181818;stroke-width:1;" x1="333.2246" x2="375.2246" y1="470.7578" y2="470.7578"/><line style="stroke:#181818;stroke-width:1;" x1="375.2246" x2="375.2246" y1="470.7578" y2="483.7578"/><line style="stroke:#181818;stroke-width:1;" x1="334.2246" x2="375.2246" y1="483.7578" y2="483.7578"/><polygon fill="#181818" points="344.2246,479.7578,334.2246,483.7578,344.2246,487.7578,340.2246,483.7578" style="stroke:#181818;stroke-width:1;"/><text fill="#000000" font-family="sans-serif" font-size="13" font-weight="bold" lengthAdjust="spacing" textLength="9.0454" x="340.2246" y="465.6919">9</text><text fill="#000000" font-family="sans-serif" font-size="13" lengthAdjust="spacing" textLength="146.5928" x="353.27" y="465.6919">Display error message</text></g><g class="message" data-entity-1="part4" data-entity-2="part3" id="msg10"><polygon fill="#181818" points="560.7734,545.8906,550.7734,549.8906,560.7734,553.8906,556.7734,549.8906" style="stroke:#181818;stroke-width:1;"/><line style="stroke:#181818;stroke-width:1;stroke-dasharray:2,2;" x1="554.7734" x2="720.9922" y1="549.8906" y2="549.8906"/><text fill="#000000" font-family="sans-serif" font-size="13" font-weight="bold" lengthAdjust="spacing" textLength="18.0908" x="566.7734" y="544.8247">10</text><text fill="#000000" font-family="sans-serif" font-size="13" lengthAdjust="spacing" textLength="118.4917" x="588.8643" y="544.8247">Update successful</text></g><g class="message" data-entity-1="part3" data-entity-2="part2" id="msg11"><polygon fill="#181818" points="339.2246,575.0234,329.2246,579.0234,339.2246,583.0234,335.2246,579.0234" style="stroke:#181818;stroke-width:1;"/><line style="stroke:#181818;stroke-width:1;stroke-dasharray:2,2;" x1="333.2246" x2="543.7734" y1="579.0234" y2="579.0234"/><text fill="#000000" font-family="sans-serif" font-size="13" font-weight="bold" lengthAdjust="spacing" textLength="18.0908" x="345.2246" y="573.9575">11</text><text fill="#000000" font-family="sans-serif" font-size="13" lengthAdjust="spacing" textLength="129.5684" x="367.3154" y="573.9575">Success notification</text></g><g class="message" data-entity-1="part2" data-entity-2="part2" id="msg12"><line style="stroke:#181818;stroke-width:1;" x1="333.2246" x2="375.2246" y1="623.2891" y2="623.2891"/><line style="stroke:#181818;stroke-width:1;" x1="375.2246" x2="375.2246" y1="623.2891" y2="636.2891"/><line style="stroke:#181818;stroke-width:1;" x1="334.2246" x2="375.2246" y1="636.2891" y2="636.2891"/><polygon fill="#181818" points="344.2246,632.2891,334.2246,636.2891,344.2246,640.2891,340.2246,636.2891" style="stroke:#181818;stroke-width:1;"/><text fill="#000000" font-family="sans-serif" font-size="13" font-weight="bold" lengthAdjust="spacing" textLength="18.0908" x="340.2246" y="610.6567">12</text><text fill="#000000" font-family="sans-serif" font-size="13" lengthAdjust="spacing" textLength="165.458" x="362.3154" y="603.0903">Display success message</text><text fill="#000000" font-family="sans-serif" font-size="13" lengthAdjust="spacing" textLength="114.8101" x="362.3154" y="618.2231">with updated role</text></g><?plantuml-src RPBDRi8m48JlVefLJkq1zOwgIjH4bIgbHKdB2QaopWPS79iw3eYthtyIX2CEENWzC_ljngotMlNj5WqXZ5jj85iP_OlSGi4Ksw79W7MmAagorRsgcRb0WLw_HCk4N0iyUq6nN1EkbJLQmX0GPJGM9PgOGmagA-m5LkNdUqw_VegyUCtBAjuIuZh1xCNdpO5AmG-GqJrJEuHIIyn0As3GXcWFB4xCOi2x7ZoA-wufIz4T9Rk0eq3eK3eqeTL6FHIBZyLRNi8JH8R7DAF6v9YGLI46b1i-n39L0u-q5JjXTclsS2EGcz-RdRe_rluok0t-zTZPstcexqUZPGxVKHp73fvRhLDEX26r4IZhH9T04R8ro0wZfN4_4si2lZSypsOXBZT66rVpzB56Xo8eRKKZEFEx71JJXMCGjjXrxXqvJR9EWCb-tLBYp6Fp0QphENSHJI-d_0bL5MKfLsAWTr_543zYRjHPsFtmT-h9gk-yYdy0?></g></svg>