<?plantuml 1.2026.1?><svg xmlns="http://www.w3.org/2000/svg" xmlns:xlink="http://www.w3.org/1999/xlink" contentStyleType="text/css" data-diagram-type="SEQUENCE" height="924px" preserveAspectRatio="none" style="width:1171px;height:924px;background:#FFFFFF;" version="1.1" viewBox="0 0 1171 924" width="1171px" zoomAndPan="magnify"><defs/><g><g><title>User</title><rect fill="#FFFFFF" height="248.0625" style="stroke:#181818;stroke-width:1;" width="10" x="18.9551" y="112.4297"/></g><g><title>SprintListView</title><rect fill="#FFFFFF" height="29.1328" style="stroke:#181818;stroke-width:1;" width="10" x="189.479" y="112.4297"/></g><g><title>CreateSprintView</title><rect fill="#FFFFFF" height="684.2578" style="stroke:#181818;stroke-width:1;" width="10" x="387.3721" y="141.5625"/></g><g><title>CreateSprintView</title><rect fill="#FFFFFF" height="28" style="stroke:#181818;stroke-width:1;" width="10" x="392.3721" y="267.2266"/></g><g><title>CreateSprintView</title><rect fill="#FFFFFF" height="28" style="stroke:#181818;stroke-width:1;" width="10" x="392.3721" y="397.625"/></g><g><title>CreateSprintView</title><rect fill="#FFFFFF" height="28" style="stroke:#181818;stroke-width:1;" width="10" x="392.3721" y="493.8906"/></g><g><title>CreateSprintView</title><rect fill="#FFFFFF" height="28" style="stroke:#181818;stroke-width:1;" width="10" x="392.3721" y="761.6875"/></g><g><title>SprintController</title><rect fill="#FFFFFF" height="655.125" style="stroke:#181818;stroke-width:1;" width="10" x="642.2227" y="170.6953"/></g><g><title>SPRINTS</title><rect fill="#FFFFFF" height="101.2656" style="stroke:#181818;stroke-width:1;" width="10" x="896.8076" y="594.1563"/></g><g><title>SPRINTS</title><rect fill="#FFFFFF" height="28" style="stroke:#181818;stroke-width:1;" width="10" x="901.8076" y="631.2891"/></g><rect fill="none" height="89.2656" style="stroke:#000000;stroke-width:1.5;" width="285.0596" x="318.3032" y="447.625"/><g class="participant-lifeline" data-entity-uid="part1" data-qualified-name="U" id="part1-lifeline"><g><title>User</title><rect fill="#000000" fill-opacity="0.00000" height="762.5234" width="8" x="19.9551" y="81.2969"/><line style="stroke:#181818;stroke-width:0.5;stroke-dasharray:5,5;" x1="23" x2="23" y1="81.2969" y2="843.8203"/></g></g><g class="participant-lifeline" data-entity-uid="part2" data-qualified-name="SLV" id="part2-lifeline"><g><title>SprintListView</title><rect fill="#000000" fill-opacity="0.00000" height="762.5234" width="8" x="190.479" y="81.2969"/><line style="stroke:#181818;stroke-width:0.5;stroke-dasharray:5,5;" x1="193.5869" x2="193.5869" y1="81.2969" y2="843.8203"/></g></g><g class="participant-lifeline" data-entity-uid="part3" data-qualified-name="CSV" id="part3-lifeline"><g><title>CreateSprintView</title><rect fill="#000000" fill-opacity="0.00000" height="762.5234" width="8" x="388.3721" y="81.2969"/><line style="stroke:#181818;stroke-width:0.5;stroke-dasharray:5,5;" x1="392.3032" x2="392.3032" y1="81.2969" y2="843.8203"/></g></g><g class="participant-lifeline" data-entity-uid="part4" data-qualified-name="SC" id="part4-lifeline"><g><title>SprintController</title><rect fill="#000000" fill-opacity="0.00000" height="762.5234" width="8" x="643.2227" y="81.2969"/><line style="stroke:#181818;stroke-width:0.5;stroke-dasharray:5,5;" x1="646.7456" x2="646.7456" y1="81.2969" y2="843.8203"/></g></g><g class="participant-lifeline" data-entity-uid="part5" data-qualified-name="PM" id="part5-lifeline"><g><title>PROJECT_MEMBERS</title><rect fill="#000000" fill-opacity="0.00000" height="762.5234" width="8" x="783.4795" y="81.2969"/><line style="stroke:#181818;stroke-width:0.5;stroke-dasharray:5,5;" x1="786.6997" x2="786.6997" y1="81.2969" y2="843.8203"/></g></g><g class="participant-lifeline" data-entity-uid="part6" data-qualified-name="SP" id="part6-lifeline"><g><title>SPRINTS</title><rect fill="#000000" fill-opacity="0.00000" height="762.5234" width="8" x="897.8076" y="81.2969"/><line style="stroke:#181818;stroke-width:0.5;stroke-dasharray:5,5;" x1="901.2593" x2="901.2593" y1="81.2969" y2="843.8203"/></g></g><g class="participant participant-head" data-entity-uid="part1" data-qualified-name="U" id="part1-head"><text fill="#000000" font-family="sans-serif" font-size="14" lengthAdjust="spacing" textLength="31.9102" x="5" y="77.9951">User</text><ellipse cx="23.9551" cy="13.5" fill="#E2E2F0" rx="8" ry="8" style="stroke:#181818;stroke-width:0.5;"/><path d="M23.9551,21.5 L23.9551,48.5 M10.9551,29.5 L36.9551,29.5 M23.9551,48.5 L10.9551,63.5 M23.9551,48.5 L36.9551,63.5" fill="none" style="stroke:#181818;stroke-width:0.5;"/></g><g class="participant participant-tail" data-entity-uid="part1" data-qualified-name="U" id="part1-tail"><text fill="#000000" font-family="sans-serif" font-size="14" lengthAdjust="spacing" textLength="31.9102" x="5" y="855.8154">User</text><ellipse cx="23.9551" cy="867.6172" fill="#E2E2F0" rx="8" ry="8" style="stroke:#181818;stroke-width:0.5;"/><path d="M23.9551,875.6172 L23.9551,902.6172 M10.9551,883.6172 L36.9551,883.6172 M23.9551,902.6172 L10.9551,917.6172 M23.9551,902.6172 L36.9551,917.6172" fill="none" style="stroke:#181818;stroke-width:0.5;"/></g><g class="participant participant-head" data-entity-uid="part2" data-qualified-name="SLV" id="part2-head"><text fill="#000000" font-family="sans-serif" font-size="14" lengthAdjust="spacing" textLength="99.7842" x="141.5869" y="77.9951">SprintListView</text><path d="M173.979,37 L173.979,61 M173.979,49 L190.979,49" fill="none" style="stroke:#181818;stroke-width:0.5;"/><ellipse cx="202.979" cy="49" fill="#E2E2F0" rx="12" ry="12" style="stroke:#181818;stroke-width:0.5;"/></g><g class="participant participant-tail" data-entity-uid="part2" data-qualified-name="SLV" id="part2-tail"><text fill="#000000" font-family="sans-serif" font-size="14" lengthAdjust="spacing" textLength="99.7842" x="141.5869" y="855.8154">SprintListView</text><path d="M173.979,863.1172 L173.979,887.1172 M173.979,875.1172 L190.979,875.1172" fill="none" style="stroke:#181818;stroke-width:0.5;"/><ellipse cx="202.979" cy="875.1172" fill="#E2E2F0" rx="12" ry="12" style="stroke:#181818;stroke-width:0.5;"/></g><g class="participant participant-head" data-entity-uid="part3" data-qualified-name="CSV" id="part3-head"><text fill="#000000" font-family="sans-serif" font-size="14" lengthAdjust="spacing" textLength="122.1377" x="328.3032" y="77.9951">CreateSprintView</text><path d="M371.8721,37 L371.8721,61 M371.8721,49 L388.8721,49" fill="none" style="stroke:#181818;stroke-width:0.5;"/><ellipse cx="400.8721" cy="49" fill="#E2E2F0" rx="12" ry="12" style="stroke:#181818;stroke-width:0.5;"/></g><g class="participant participant-tail" data-entity-uid="part3" data-qualified-name="CSV" id="part3-tail"><text fill="#000000" font-family="sans-serif" font-size="14" lengthAdjust="spacing" textLength="122.1377" x="328.3032" y="855.8154">CreateSprintView</text><path d="M371.8721,863.1172 L371.8721,887.1172 M371.8721,875.1172 L388.8721,875.1172" fill="none" style="stroke:#181818;stroke-width:0.5;"/><ellipse cx="400.8721" cy="875.1172" fill="#E2E2F0" rx="12" ry="12" style="stroke:#181818;stroke-width:0.5;"/></g><g class="participant participant-head" data-entity-uid="part4" data-qualified-name="SC" id="part4-head"><text fill="#000000" font-family="sans-serif" font-size="14" lengthAdjust="spacing" textLength="110.9541" x="588.7456" y="77.9951">SprintController</text><ellipse cx="647.2227" cy="49" fill="#E2E2F0" rx="12" ry="12" style="stroke:#181818;stroke-width:0.5;"/><polygon fill="#181818" points="643.2227,37,649.2227,32,647.2227,37,649.2227,42,643.2227,37" style="stroke:#181818;stroke-width:1;"/></g><g class="participant participant-tail" data-entity-uid="part4" data-qualified-name="SC" id="part4-tail"><text fill="#000000" font-family="sans-serif" font-size="14" lengthAdjust="spacing" textLength="110.9541" x="588.7456" y="855.8154">SprintController</text><ellipse cx="647.2227" cy="875.1172" fill="#E2E2F0" rx="12" ry="12" style="stroke:#181818;stroke-width:0.5;"/><polygon fill="#181818" points="643.2227,863.1172,649.2227,858.1172,647.2227,863.1172,649.2227,868.1172,643.2227,863.1172" style="stroke:#181818;stroke-width:1;"/></g><g class="participant participant-head" data-entity-uid="part5" data-qualified-name="PM" id="part5-head"><text fill="#000000" font-family="sans-serif" font-size="14" lengthAdjust="spacing" textLength="137.5596" x="715.6997" y="77.9951">PROJECT_MEMBERS</text><ellipse cx="787.4795" cy="49" fill="#E2E2F0" rx="12" ry="12" style="stroke:#181818;stroke-width:0.5;"/><line style="stroke:#181818;stroke-width:0.5;" x1="775.4795" x2="799.4795" y1="63" y2="63"/></g><g class="participant participant-tail" data-entity-uid="part5" data-qualified-name="PM" id="part5-tail"><text fill="#000000" font-family="sans-serif" font-size="14" lengthAdjust="spacing" textLength="137.5596" x="715.6997" y="855.8154">PROJECT_MEMBERS</text><ellipse cx="787.4795" cy="875.1172" fill="#E2E2F0" rx="12" ry="12" style="stroke:#181818;stroke-width:0.5;"/><line style="stroke:#181818;stroke-width:0.5;" x1="775.4795" x2="799.4795" y1="889.1172" y2="889.1172"/></g><g class="participant participant-head" data-entity-uid="part6" data-qualified-name="SP" id="part6-head"><text fill="#000000" font-family="sans-serif" font-size="14" lengthAdjust="spacing" textLength="59.0967" x="869.2593" y="77.9951">SPRINTS</text><ellipse cx="901.8076" cy="49" fill="#E2E2F0" rx="12" ry="12" style="stroke:#181818;stroke-width:0.5;"/><line style="stroke:#181818;stroke-width:0.5;" x1="889.8076" x2="913.8076" y1="63" y2="63"/></g><g class="participant participant-tail" data-entity-uid="part6" data-qualified-name="SP" id="part6-tail"><text fill="#000000" font-family="sans-serif" font-size="14" lengthAdjust="spacing" textLength="59.0967" x="869.2593" y="855.8154">SPRINTS</text><ellipse cx="901.8076" cy="875.1172" fill="#E2E2F0" rx="12" ry="12" style="stroke:#181818;stroke-width:0.5;"/><line style="stroke:#181818;stroke-width:0.5;" x1="889.8076" x2="913.8076" y1="889.1172" y2="889.1172"/></g><g><title>User</title><rect fill="#FFFFFF" height="248.0625" style="stroke:#181818;stroke-width:1;" width="10" x="18.9551" y="112.4297"/></g><g><title>SprintListView</title><rect fill="#FFFFFF" height="29.1328" style="stroke:#181818;stroke-width:1;" width="10" x="189.479" y="112.4297"/></g><g><title>CreateSprintView</title><rect fill="#FFFFFF" height="684.2578" style="stroke:#181818;stroke-width:1;" width="10" x="387.3721" y="141.5625"/></g><g><title>CreateSprintView</title><rect fill="#FFFFFF" height="28" style="stroke:#181818;stroke-width:1;" width="10" x="392.3721" y="267.2266"/></g><g><title>CreateSprintView</title><rect fill="#FFFFFF" height="28" style="stroke:#181818;stroke-width:1;" width="10" x="392.3721" y="397.625"/></g><g><title>CreateSprintView</title><rect fill="#FFFFFF" height="28" style="stroke:#181818;stroke-width:1;" width="10" x="392.3721" y="493.8906"/></g><g><title>CreateSprintView</title><rect fill="#FFFFFF" height="28" style="stroke:#181818;stroke-width:1;" width="10" x="392.3721" y="761.6875"/></g><g><title>SprintController</title><rect fill="#FFFFFF" height="655.125" style="stroke:#181818;stroke-width:1;" width="10" x="642.2227" y="170.6953"/></g><g><title>SPRINTS</title><rect fill="#FFFFFF" height="101.2656" style="stroke:#181818;stroke-width:1;" width="10" x="896.8076" y="594.1563"/></g><g><title>SPRINTS</title><rect fill="#FFFFFF" height="28" style="stroke:#181818;stroke-width:1;" width="10" x="901.8076" y="631.2891"/></g><g class="message" data-entity-1="part1" data-entity-2="part2" id="msg1"><polygon fill="#181818" points="177.479,108.4297,187.479,112.4297,177.479,116.4297,181.479,112.4297" style="stroke:#181818;stroke-width:1;"/><line style="stroke:#181818;stroke-width:1;" x1="28.9551" x2="183.479" y1="112.4297" y2="112.4297"/><text fill="#000000" font-family="sans-serif" font-size="13" font-weight="bold" lengthAdjust="spacing" textLength="9.0454" x="35.9551" y="107.3638">1</text><text fill="#000000" font-family="sans-serif" font-size="13" lengthAdjust="spacing" textLength="133.4785" x="49.0005" y="107.3638">Click "Create Sprint"</text></g><g class="message" data-entity-1="part2" data-entity-2="part3" id="msg2"><polygon fill="#181818" points="375.3721,137.5625,385.3721,141.5625,375.3721,145.5625,379.3721,141.5625" style="stroke:#181818;stroke-width:1;"/><line style="stroke:#181818;stroke-width:1;" x1="194.479" x2="381.3721" y1="141.5625" y2="141.5625"/><text fill="#000000" font-family="sans-serif" font-size="13" font-weight="bold" lengthAdjust="spacing" textLength="9.0454" x="201.479" y="136.4966">2</text><text fill="#000000" font-family="sans-serif" font-size="13" lengthAdjust="spacing" textLength="155.8477" x="214.5244" y="136.4966">Navigate to create form</text></g><g class="message" data-entity-1="part3" data-entity-2="part4" id="msg3"><polygon fill="#181818" points="630.2227,166.6953,640.2227,170.6953,630.2227,174.6953,634.2227,170.6953" style="stroke:#181818;stroke-width:1;"/><line style="stroke:#181818;stroke-width:1;" x1="397.3721" x2="636.2227" y1="170.6953" y2="170.6953"/><text fill="#000000" font-family="sans-serif" font-size="13" font-weight="bold" lengthAdjust="spacing" textLength="9.0454" x="404.3721" y="165.6294">3</text><text fill="#000000" font-family="sans-serif" font-size="13" lengthAdjust="spacing" textLength="212.8052" x="417.4175" y="165.6294">Initialize create form (project_id)</text></g><g class="message" data-entity-1="part4" data-entity-2="part3" id="msg4"><polygon fill="#181818" points="408.3721,195.8281,398.3721,199.8281,408.3721,203.8281,404.3721,199.8281" style="stroke:#181818;stroke-width:1;"/><line style="stroke:#181818;stroke-width:1;stroke-dasharray:2,2;" x1="402.3721" x2="641.2227" y1="199.8281" y2="199.8281"/><text fill="#000000" font-family="sans-serif" font-size="13" font-weight="bold" lengthAdjust="spacing" textLength="9.0454" x="414.3721" y="194.7622">4</text><text fill="#000000" font-family="sans-serif" font-size="13" lengthAdjust="spacing" textLength="74.8262" x="427.4175" y="194.7622">Form ready</text></g><g class="message" data-entity-1="part3" data-entity-2="part3" id="msg5"><line style="stroke:#181818;stroke-width:1;" x1="402.3721" x2="444.3721" y1="259.2266" y2="259.2266"/><line style="stroke:#181818;stroke-width:1;" x1="444.3721" x2="444.3721" y1="259.2266" y2="272.2266"/><line style="stroke:#181818;stroke-width:1;" x1="403.3721" x2="444.3721" y1="272.2266" y2="272.2266"/><polygon fill="#181818" points="413.3721,268.2266,403.3721,272.2266,413.3721,276.2266,409.3721,272.2266" style="stroke:#181818;stroke-width:1;"/><text fill="#000000" font-family="sans-serif" font-size="13" font-weight="bold" lengthAdjust="spacing" textLength="9.0454" x="409.3721" y="239.0278">5</text><text fill="#000000" font-family="sans-serif" font-size="13" lengthAdjust="spacing" textLength="169.7236" x="422.4175" y="223.895">Display create sprint form</text><text fill="#000000" font-family="sans-serif" font-size="13" lengthAdjust="spacing" textLength="182.9775" x="422.4175" y="239.0278">(name, goal, start/end date,</text><text fill="#000000" font-family="sans-serif" font-size="13" lengthAdjust="spacing" textLength="104.5015" x="422.4175" y="254.1606">heuristic_mode)</text></g><g class="message" data-entity-1="part1" data-entity-2="part3" id="msg6"><polygon fill="#181818" points="375.3721,327.3594,385.3721,331.3594,375.3721,335.3594,379.3721,331.3594" style="stroke:#181818;stroke-width:1;"/><line style="stroke:#181818;stroke-width:1;" x1="28.9551" x2="381.3721" y1="331.3594" y2="331.3594"/><text fill="#000000" font-family="sans-serif" font-size="13" font-weight="bold" lengthAdjust="spacing" textLength="9.0454" x="35.9551" y="326.2935">6</text><text fill="#000000" font-family="sans-serif" font-size="13" lengthAdjust="spacing" textLength="155.7334" x="49.0005" y="326.2935">Enter sprint information</text></g><g class="message" data-entity-1="part1" data-entity-2="part3" id="msg7"><polygon fill="#181818" points="375.3721,356.4922,385.3721,360.4922,375.3721,364.4922,379.3721,360.4922" style="stroke:#181818;stroke-width:1;"/><line style="stroke:#181818;stroke-width:1;" x1="23.9551" x2="381.3721" y1="360.4922" y2="360.4922"/><text fill="#000000" font-family="sans-serif" font-size="13" font-weight="bold" lengthAdjust="spacing" textLength="9.0454" x="30.9551" y="355.4263">7</text><text fill="#000000" font-family="sans-serif" font-size="13" lengthAdjust="spacing" textLength="90.5493" x="44.0005" y="355.4263">Click "Create"</text></g><g class="message" data-entity-1="part3" data-entity-2="part3" id="msg8"><line style="stroke:#181818;stroke-width:1;" x1="402.3721" x2="444.3721" y1="389.625" y2="389.625"/><line style="stroke:#181818;stroke-width:1;" x1="444.3721" x2="444.3721" y1="389.625" y2="402.625"/><line style="stroke:#181818;stroke-width:1;" x1="403.3721" x2="444.3721" y1="402.625" y2="402.625"/><polygon fill="#181818" points="413.3721,398.625,403.3721,402.625,413.3721,406.625,409.3721,402.625" style="stroke:#181818;stroke-width:1;"/><text fill="#000000" font-family="sans-serif" font-size="13" font-weight="bold" lengthAdjust="spacing" textLength="9.0454" x="409.3721" y="384.5591">8</text><text fill="#000000" font-family="sans-serif" font-size="13" lengthAdjust="spacing" textLength="86.8105" x="422.4175" y="384.5591">Validate data</text></g><path d="M318.3032,447.625 L405.2549,447.625 L405.2549,454.7578 L395.2549,464.7578 L318.3032,464.7578 L318.3032,447.625" fill="#EEEEEE" style="stroke:#000000;stroke-width:1.5;"/><rect fill="none" height="89.2656" style="stroke:#000000;stroke-width:1.5;" width="285.0596" x="318.3032" y="447.625"/><text fill="#000000" font-family="sans-serif" font-size="13" font-weight="bold" lengthAdjust="spacing" textLength="41.9517" x="333.3032" y="460.6919">break</text><text fill="#000000" font-family="sans-serif" font-size="11" font-weight="bold" lengthAdjust="spacing" textLength="83.7944" x="420.2549" y="459.8354">[Invalid data]</text><g class="message" data-entity-1="part3" data-entity-2="part3" id="msg9"><line style="stroke:#181818;stroke-width:1;" x1="402.3721" x2="444.3721" y1="485.8906" y2="485.8906"/><line style="stroke:#181818;stroke-width:1;" x1="444.3721" x2="444.3721" y1="485.8906" y2="498.8906"/><line style="stroke:#181818;stroke-width:1;" x1="403.3721" x2="444.3721" y1="498.8906" y2="498.8906"/><polygon fill="#181818" points="413.3721,494.8906,403.3721,498.8906,413.3721,502.8906,409.3721,498.8906" style="stroke:#181818;stroke-width:1;"/><text fill="#000000" font-family="sans-serif" font-size="13" font-weight="bold" lengthAdjust="spacing" textLength="9.0454" x="409.3721" y="480.8247">9</text><text fill="#000000" font-family="sans-serif" font-size="13" lengthAdjust="spacing" textLength="158.9453" x="422.4175" y="480.8247">Display validation errors</text></g><g class="message" data-entity-1="part3" data-entity-2="part4" id="msg10"><polygon fill="#181818" points="630.2227,561.0234,640.2227,565.0234,630.2227,569.0234,634.2227,565.0234" style="stroke:#181818;stroke-width:1;"/><line style="stroke:#181818;stroke-width:1;" x1="397.3721" x2="636.2227" y1="565.0234" y2="565.0234"/><text fill="#000000" font-family="sans-serif" font-size="13" font-weight="bold" lengthAdjust="spacing" textLength="18.0908" x="404.3721" y="559.9575">10</text><text fill="#000000" font-family="sans-serif" font-size="13" lengthAdjust="spacing" textLength="132.2598" x="426.4629" y="559.9575">Send create request</text></g><g class="message" data-entity-1="part4" data-entity-2="part6" id="msg11"><polygon fill="#181818" points="884.8076,590.1563,894.8076,594.1563,884.8076,598.1563,888.8076,594.1563" style="stroke:#181818;stroke-width:1;"/><line style="stroke:#181818;stroke-width:1;" x1="652.2227" x2="890.8076" y1="594.1563" y2="594.1563"/><text fill="#000000" font-family="sans-serif" font-size="13" font-weight="bold" lengthAdjust="spacing" textLength="18.0908" x="659.2227" y="589.0903">11</text><text fill="#000000" font-family="sans-serif" font-size="13" lengthAdjust="spacing" textLength="109.7383" x="681.3135" y="589.0903">Insert new sprint</text></g><g class="message" data-entity-1="part6" data-entity-2="part6" id="msg12"><line style="stroke:#181818;stroke-width:1;" x1="911.8076" x2="953.8076" y1="623.2891" y2="623.2891"/><line style="stroke:#181818;stroke-width:1;" x1="953.8076" x2="953.8076" y1="623.2891" y2="636.2891"/><line style="stroke:#181818;stroke-width:1;" x1="912.8076" x2="953.8076" y1="636.2891" y2="636.2891"/><polygon fill="#181818" points="922.8076,632.2891,912.8076,636.2891,922.8076,640.2891,918.8076,636.2891" style="stroke:#181818;stroke-width:1;"/><text fill="#000000" font-family="sans-serif" font-size="13" font-weight="bold" lengthAdjust="spacing" textLength="18.0908" x="918.8076" y="618.2231">12</text><text fill="#000000" font-family="sans-serif" font-size="13" lengthAdjust="spacing" textLength="223.8945" x="940.8984" y="618.2231">Insert record (status = PLANNING)</text></g><g class="message" data-entity-1="part6" data-entity-2="part4" id="msg13"><polygon fill="#181818" points="663.2227,691.4219,653.2227,695.4219,663.2227,699.4219,659.2227,695.4219" style="stroke:#181818;stroke-width:1;"/><line style="stroke:#181818;stroke-width:1;stroke-dasharray:2,2;" x1="657.2227" x2="900.8076" y1="695.4219" y2="695.4219"/><text fill="#000000" font-family="sans-serif" font-size="13" font-weight="bold" lengthAdjust="spacing" textLength="18.0908" x="669.2227" y="690.356">13</text><text fill="#000000" font-family="sans-serif" font-size="13" lengthAdjust="spacing" textLength="92.7329" x="691.3135" y="690.356">Sprint created</text></g><g class="message" data-entity-1="part4" data-entity-2="part3" id="msg14"><polygon fill="#181818" points="408.3721,720.5547,398.3721,724.5547,408.3721,728.5547,404.3721,724.5547" style="stroke:#181818;stroke-width:1;"/><line style="stroke:#181818;stroke-width:1;stroke-dasharray:2,2;" x1="402.3721" x2="641.2227" y1="724.5547" y2="724.5547"/><text fill="#000000" font-family="sans-serif" font-size="13" font-weight="bold" lengthAdjust="spacing" textLength="18.0908" x="414.3721" y="719.4888">14</text><text fill="#000000" font-family="sans-serif" font-size="13" lengthAdjust="spacing" textLength="129.5684" x="436.4629" y="719.4888">Success notification</text></g><g class="message" data-entity-1="part3" data-entity-2="part3" id="msg15"><line style="stroke:#181818;stroke-width:1;" x1="402.3721" x2="444.3721" y1="753.6875" y2="753.6875"/><line style="stroke:#181818;stroke-width:1;" x1="444.3721" x2="444.3721" y1="753.6875" y2="766.6875"/><line style="stroke:#181818;stroke-width:1;" x1="403.3721" x2="444.3721" y1="766.6875" y2="766.6875"/><polygon fill="#181818" points="413.3721,762.6875,403.3721,766.6875,413.3721,770.6875,409.3721,766.6875" style="stroke:#181818;stroke-width:1;"/><text fill="#000000" font-family="sans-serif" font-size="13" font-weight="bold" lengthAdjust="spacing" textLength="18.0908" x="409.3721" y="748.6216">15</text><text fill="#000000" font-family="sans-serif" font-size="13" lengthAdjust="spacing" textLength="165.458" x="431.4629" y="748.6216">Display success message</text></g><g class="message" data-entity-1="part3" data-entity-2="part2" id="msg16"><polygon fill="#181818" points="205.479,821.8203,195.479,825.8203,205.479,829.8203,201.479,825.8203" style="stroke:#181818;stroke-width:1;"/><line style="stroke:#181818;stroke-width:1;" x1="199.479" x2="391.3721" y1="825.8203" y2="825.8203"/><text fill="#000000" font-family="sans-serif" font-size="13" font-weight="bold" lengthAdjust="spacing" textLength="18.0908" x="211.479" y="820.7544">16</text><text fill="#000000" font-family="sans-serif" font-size="13" lengthAdjust="spacing" textLength="136.3413" x="233.5698" y="820.7544">Redirect to sprint list</text></g><?plantuml-src VLF1Zjem4BtxAqQSG0BrZjfARKehAg0Htd1Q2HbxbhgRsDHsgEZNTsm7Dg6hpS5AF6_clNap4MsmfcqEw1WJCbW7bKS7maF53hOrIhWBy9FJ9goq3pkDVsAGhtOluSAX29X1Lq31TqnQ4vojk_GYVzMvEYyOcg331ShjZ--Buc6_Ngm_BxOy1ilrDSZBxNBpa2vvoLW5iu-HUmv5hUKpZ39rnp2A7UXplAXUNgDKHaTC9LLps8YpFiP8i21p_fDr3LCuoBbzn5OO7OcxcCFIwA15hVzYFnt69sT_eGnxhIOzzYBdlf_DKlBN2AKiTRdLJAA-Q7-gnULQqQU6Kk57CpQYmIaShQYdu8DmuHqQ1Og0qqVp4rj7az5otrY5aw7kNa-fZUf6k3219j7nQ1EPHD3Mz203ZqVzMjLG_8xSY6gY9F6sW0CLUoOBpp4buu6Urwmuvwga2T0vwtn23ih5Ypi6ScOmBHwjwbnr-Bj57sWTYXGkup1ftGCOsjhiHMzq9UFb7SwXj4x1cAOGMWyVe5nzscoMcs-JGLv_bSh8biPFPVAYTdhK7MwmABoL4hq7OuD-qZBFvjMLyHsoeKCSyKt_hyR4NsYBIbC_8Vu7tHxKj4Z_ZQmlic3_0000?></g></svg>