<?plantuml 1.2026.1?><svg xmlns="http://www.w3.org/2000/svg" xmlns:xlink="http://www.w3.org/1999/xlink" contentStyleType="text/css" data-diagram-type="SEQUENCE" height="981px" preserveAspectRatio="none" style="width:950px;height:981px;background:#FFFFFF;" version="1.1" viewBox="0 0 950 981" width="950px" zoomAndPan="magnify"><defs/><g><g><title>Admin</title><rect fill="#FFFFFF" height="334.1953" style="stroke:#181818;stroke-width:1;" width="10" x="25.4321" y="112.4297"/></g><g><title>SystemSettingsView</title><rect fill="#FFFFFF" height="779.3906" style="stroke:#181818;stroke-width:1;" width="10" x="277.0562" y="112.4297"/></g><g><title>SystemSettingsView</title><rect fill="#FFFFFF" height="28" style="stroke:#181818;stroke-width:1;" width="10" x="282.0562" y="353.3594"/></g><g><title>SystemSettingsView</title><rect fill="#FFFFFF" height="28" style="stroke:#181818;stroke-width:1;" width="10" x="282.0562" y="483.7578"/></g><g><title>SystemSettingsView</title><rect fill="#FFFFFF" height="28" style="stroke:#181818;stroke-width:1;" width="10" x="282.0562" y="580.0234"/></g><g><title>SystemSettingsView</title><rect fill="#FFFFFF" height="28" style="stroke:#181818;stroke-width:1;" width="10" x="282.0562" y="847.8203"/></g><g><title>AdminController</title><rect fill="#FFFFFF" height="159.5313" style="stroke:#181818;stroke-width:1;" width="10" x="546.187" y="141.5625"/></g><g><title>AdminController</title><rect fill="#FFFFFF" height="159.5313" style="stroke:#181818;stroke-width:1;" width="10" x="546.187" y="651.1563"/></g><g><title>SYSTEM_SETTINGS</title><rect fill="#FFFFFF" height="101.2656" style="stroke:#181818;stroke-width:1;" width="10" x="754.1665" y="170.6953"/></g><g><title>SYSTEM_SETTINGS</title><rect fill="#FFFFFF" height="28" style="stroke:#181818;stroke-width:1;" width="10" x="759.1665" y="207.8281"/></g><g><title>SYSTEM_SETTINGS</title><rect fill="#FFFFFF" height="101.2656" style="stroke:#181818;stroke-width:1;" width="10" x="754.1665" y="680.2891"/></g><g><title>SYSTEM_SETTINGS</title><rect fill="#FFFFFF" height="28" style="stroke:#181818;stroke-width:1;" width="10" x="759.1665" y="717.4219"/></g><rect fill="none" height="89.2656" style="stroke:#000000;stroke-width:1.5;" width="304.6152" x="197.4771" y="533.7578"/><g class="participant-lifeline" data-entity-uid="part1" data-qualified-name="A" id="part1-lifeline"><g><title>Admin</title><rect fill="#000000" fill-opacity="0.00000" height="819.5234" width="8" x="26.4321" y="81.2969"/><line style="stroke:#181818;stroke-width:0.5;stroke-dasharray:5,5;" x1="30" x2="30" y1="81.2969" y2="900.8203"/></g></g><g class="participant-lifeline" data-entity-uid="part2" data-qualified-name="SSV" id="part2-lifeline"><g><title>SystemSettingsView</title><rect fill="#000000" fill-opacity="0.00000" height="819.5234" width="8" x="278.0562" y="81.2969"/><line style="stroke:#181818;stroke-width:0.5;stroke-dasharray:5,5;" x1="281.4771" x2="281.4771" y1="81.2969" y2="900.8203"/></g></g><g class="participant-lifeline" data-entity-uid="part3" data-qualified-name="AC" id="part3-lifeline"><g><title>AdminController</title><rect fill="#000000" fill-opacity="0.00000" height="819.5234" width="8" x="547.187" y="81.2969"/><line style="stroke:#181818;stroke-width:0.5;stroke-dasharray:5,5;" x1="551.1685" x2="551.1685" y1="81.2969" y2="900.8203"/></g></g><g class="participant-lifeline" data-entity-uid="part4" data-qualified-name="SS" id="part4-lifeline"><g><title>SYSTEM_SETTINGS</title><rect fill="#000000" fill-opacity="0.00000" height="819.5234" width="8" x="755.1665" y="81.2969"/><line style="stroke:#181818;stroke-width:0.5;stroke-dasharray:5,5;" x1="758.1792" x2="758.1792" y1="81.2969" y2="900.8203"/></g></g><g class="participant participant-head" data-entity-uid="part1" data-qualified-name="A" id="part1-head"><text fill="#000000" font-family="sans-serif" font-size="14" lengthAdjust="spacing" textLength="44.8643" x="5" y="77.9951">Admin</text><ellipse cx="30.4321" cy="13.5" fill="#E2E2F0" rx="8" ry="8" style="stroke:#181818;stroke-width:0.5;"/><path d="M30.4321,21.5 L30.4321,48.5 M17.4321,29.5 L43.4321,29.5 M30.4321,48.5 L17.4321,63.5 M30.4321,48.5 L43.4321,63.5" fill="none" style="stroke:#181818;stroke-width:0.5;"/></g><g class="participant participant-tail" data-entity-uid="part1" data-qualified-name="A" id="part1-tail"><text fill="#000000" font-family="sans-serif" font-size="14" lengthAdjust="spacing" textLength="44.8643" x="5" y="912.8154">Admin</text><ellipse cx="30.4321" cy="924.6172" fill="#E2E2F0" rx="8" ry="8" style="stroke:#181818;stroke-width:0.5;"/><path d="M30.4321,932.6172 L30.4321,959.6172 M17.4321,940.6172 L43.4321,940.6172 M30.4321,959.6172 L17.4321,974.6172 M30.4321,959.6172 L43.4321,974.6172" fill="none" style="stroke:#181818;stroke-width:0.5;"/></g><g class="participant participant-head" data-entity-uid="part2" data-qualified-name="SSV" id="part2-head"><text fill="#000000" font-family="sans-serif" font-size="14" lengthAdjust="spacing" textLength="143.1582" x="207.4771" y="77.9951">SystemSettingsView</text><path d="M261.5562,37 L261.5562,61 M261.5562,49 L278.5562,49" fill="none" style="stroke:#181818;stroke-width:0.5;"/><ellipse cx="290.5562" cy="49" fill="#E2E2F0" rx="12" ry="12" style="stroke:#181818;stroke-width:0.5;"/></g><g class="participant participant-tail" data-entity-uid="part2" data-qualified-name="SSV" id="part2-tail"><text fill="#000000" font-family="sans-serif" font-size="14" lengthAdjust="spacing" textLength="143.1582" x="207.4771" y="912.8154">SystemSettingsView</text><path d="M261.5562,920.1172 L261.5562,944.1172 M261.5562,932.1172 L278.5562,932.1172" fill="none" style="stroke:#181818;stroke-width:0.5;"/><ellipse cx="290.5562" cy="932.1172" fill="#E2E2F0" rx="12" ry="12" style="stroke:#181818;stroke-width:0.5;"/></g><g class="participant participant-head" data-entity-uid="part3" data-qualified-name="AC" id="part3-head"><text fill="#000000" font-family="sans-serif" font-size="14" lengthAdjust="spacing" textLength="114.0371" x="491.1685" y="77.9951">AdminController</text><ellipse cx="551.187" cy="49" fill="#E2E2F0" rx="12" ry="12" style="stroke:#181818;stroke-width:0.5;"/><polygon fill="#181818" points="547.187,37,553.187,32,551.187,37,553.187,42,547.187,37" style="stroke:#181818;stroke-width:1;"/></g><g class="participant participant-tail" data-entity-uid="part3" data-qualified-name="AC" id="part3-tail"><text fill="#000000" font-family="sans-serif" font-size="14" lengthAdjust="spacing" textLength="114.0371" x="491.1685" y="912.8154">AdminController</text><ellipse cx="551.187" cy="932.1172" fill="#E2E2F0" rx="12" ry="12" style="stroke:#181818;stroke-width:0.5;"/><polygon fill="#181818" points="547.187,920.1172,553.187,915.1172,551.187,920.1172,553.187,925.1172,547.187,920.1172" style="stroke:#181818;stroke-width:1;"/></g><g class="participant participant-head" data-entity-uid="part4" data-qualified-name="SS" id="part4-head"><text fill="#000000" font-family="sans-serif" font-size="14" lengthAdjust="spacing" textLength="131.9746" x="690.1792" y="77.9951">SYSTEM_SETTINGS</text><ellipse cx="759.1665" cy="49" fill="#E2E2F0" rx="12" ry="12" style="stroke:#181818;stroke-width:0.5;"/><line style="stroke:#181818;stroke-width:0.5;" x1="747.1665" x2="771.1665" y1="63" y2="63"/></g><g class="participant participant-tail" data-entity-uid="part4" data-qualified-name="SS" id="part4-tail"><text fill="#000000" font-family="sans-serif" font-size="14" lengthAdjust="spacing" textLength="131.9746" x="690.1792" y="912.8154">SYSTEM_SETTINGS</text><ellipse cx="759.1665" cy="932.1172" fill="#E2E2F0" rx="12" ry="12" style="stroke:#181818;stroke-width:0.5;"/><line style="stroke:#181818;stroke-width:0.5;" x1="747.1665" x2="771.1665" y1="946.1172" y2="946.1172"/></g><g><title>Admin</title><rect fill="#FFFFFF" height="334.1953" style="stroke:#181818;stroke-width:1;" width="10" x="25.4321" y="112.4297"/></g><g><title>SystemSettingsView</title><rect fill="#FFFFFF" height="779.3906" style="stroke:#181818;stroke-width:1;" width="10" x="277.0562" y="112.4297"/></g><g><title>SystemSettingsView</title><rect fill="#FFFFFF" height="28" style="stroke:#181818;stroke-width:1;" width="10" x="282.0562" y="353.3594"/></g><g><title>SystemSettingsView</title><rect fill="#FFFFFF" height="28" style="stroke:#181818;stroke-width:1;" width="10" x="282.0562" y="483.7578"/></g><g><title>SystemSettingsView</title><rect fill="#FFFFFF" height="28" style="stroke:#181818;stroke-width:1;" width="10" x="282.0562" y="580.0234"/></g><g><title>SystemSettingsView</title><rect fill="#FFFFFF" height="28" style="stroke:#181818;stroke-width:1;" width="10" x="282.0562" y="847.8203"/></g><g><title>AdminController</title><rect fill="#FFFFFF" height="159.5313" style="stroke:#181818;stroke-width:1;" width="10" x="546.187" y="141.5625"/></g><g><title>AdminController</title><rect fill="#FFFFFF" height="159.5313" style="stroke:#181818;stroke-width:1;" width="10" x="546.187" y="651.1563"/></g><g><title>SYSTEM_SETTINGS</title><rect fill="#FFFFFF" height="101.2656" style="stroke:#181818;stroke-width:1;" width="10" x="754.1665" y="170.6953"/></g><g><title>SYSTEM_SETTINGS</title><rect fill="#FFFFFF" height="28" style="stroke:#181818;stroke-width:1;" width="10" x="759.1665" y="207.8281"/></g><g><title>SYSTEM_SETTINGS</title><rect fill="#FFFFFF" height="101.2656" style="stroke:#181818;stroke-width:1;" width="10" x="754.1665" y="680.2891"/></g><g><title>SYSTEM_SETTINGS</title><rect fill="#FFFFFF" height="28" style="stroke:#181818;stroke-width:1;" width="10" x="759.1665" y="717.4219"/></g><g class="message" data-entity-1="part1" data-entity-2="part2" id="msg1"><polygon fill="#181818" points="265.0562,108.4297,275.0562,112.4297,265.0562,116.4297,269.0562,112.4297" style="stroke:#181818;stroke-width:1;"/><line style="stroke:#181818;stroke-width:1;" x1="35.4321" x2="271.0562" y1="112.4297" y2="112.4297"/><text fill="#000000" font-family="sans-serif" font-size="13" font-weight="bold" lengthAdjust="spacing" textLength="9.0454" x="42.4321" y="107.3638">1</text><text fill="#000000" font-family="sans-serif" font-size="13" lengthAdjust="spacing" textLength="188.4365" x="55.4775" y="107.3638">Access system settings page</text></g><g class="message" data-entity-1="part2" data-entity-2="part3" id="msg2"><polygon fill="#181818" points="534.187,137.5625,544.187,141.5625,534.187,145.5625,538.187,141.5625" style="stroke:#181818;stroke-width:1;"/><line style="stroke:#181818;stroke-width:1;" x1="287.0562" x2="540.187" y1="141.5625" y2="141.5625"/><text fill="#000000" font-family="sans-serif" font-size="13" font-weight="bold" lengthAdjust="spacing" textLength="9.0454" x="294.0562" y="136.4966">2</text><text fill="#000000" font-family="sans-serif" font-size="13" lengthAdjust="spacing" textLength="160.9067" x="307.1016" y="136.4966">Request current settings</text></g><g class="message" data-entity-1="part3" data-entity-2="part4" id="msg3"><polygon fill="#181818" points="742.1665,166.6953,752.1665,170.6953,742.1665,174.6953,746.1665,170.6953" style="stroke:#181818;stroke-width:1;"/><line style="stroke:#181818;stroke-width:1;" x1="556.187" x2="748.1665" y1="170.6953" y2="170.6953"/><text fill="#000000" font-family="sans-serif" font-size="13" font-weight="bold" lengthAdjust="spacing" textLength="9.0454" x="563.187" y="165.6294">3</text><text fill="#000000" font-family="sans-serif" font-size="13" lengthAdjust="spacing" textLength="165.9341" x="576.2324" y="165.6294">Query all system settings</text></g><g class="message" data-entity-1="part4" data-entity-2="part4" id="msg4"><line style="stroke:#181818;stroke-width:1;" x1="769.1665" x2="811.1665" y1="199.8281" y2="199.8281"/><line style="stroke:#181818;stroke-width:1;" x1="811.1665" x2="811.1665" y1="199.8281" y2="212.8281"/><line style="stroke:#181818;stroke-width:1;" x1="770.1665" x2="811.1665" y1="212.8281" y2="212.8281"/><polygon fill="#181818" points="780.1665,208.8281,770.1665,212.8281,780.1665,216.8281,776.1665,212.8281" style="stroke:#181818;stroke-width:1;"/><text fill="#000000" font-family="sans-serif" font-size="13" font-weight="bold" lengthAdjust="spacing" textLength="9.0454" x="776.1665" y="194.7622">4</text><text fill="#000000" font-family="sans-serif" font-size="13" lengthAdjust="spacing" textLength="118.7075" x="789.2119" y="194.7622">Query settings list</text></g><g class="message" data-entity-1="part4" data-entity-2="part3" id="msg5"><polygon fill="#181818" points="567.187,267.9609,557.187,271.9609,567.187,275.9609,563.187,271.9609" style="stroke:#181818;stroke-width:1;"/><line style="stroke:#181818;stroke-width:1;stroke-dasharray:2,2;" x1="561.187" x2="758.1665" y1="271.9609" y2="271.9609"/><text fill="#000000" font-family="sans-serif" font-size="13" font-weight="bold" lengthAdjust="spacing" textLength="9.0454" x="573.187" y="266.895">5</text><text fill="#000000" font-family="sans-serif" font-size="13" lengthAdjust="spacing" textLength="86.7344" x="586.2324" y="266.895">Settings data</text></g><g class="message" data-entity-1="part3" data-entity-2="part2" id="msg6"><polygon fill="#181818" points="298.0562,297.0938,288.0562,301.0938,298.0562,305.0938,294.0562,301.0938" style="stroke:#181818;stroke-width:1;"/><line style="stroke:#181818;stroke-width:1;stroke-dasharray:2,2;" x1="292.0562" x2="550.187" y1="301.0938" y2="301.0938"/><text fill="#000000" font-family="sans-serif" font-size="13" font-weight="bold" lengthAdjust="spacing" textLength="9.0454" x="304.0562" y="296.0278">6</text><text fill="#000000" font-family="sans-serif" font-size="13" lengthAdjust="spacing" textLength="219.6924" x="317.1016" y="296.0278">Current settings (AI weights, etc.)</text></g><g class="message" data-entity-1="part2" data-entity-2="part2" id="msg7"><line style="stroke:#181818;stroke-width:1;" x1="292.0562" x2="334.0562" y1="345.3594" y2="345.3594"/><line style="stroke:#181818;stroke-width:1;" x1="334.0562" x2="334.0562" y1="345.3594" y2="358.3594"/><line style="stroke:#181818;stroke-width:1;" x1="293.0562" x2="334.0562" y1="358.3594" y2="358.3594"/><polygon fill="#181818" points="303.0562,354.3594,293.0562,358.3594,303.0562,362.3594,299.0562,358.3594" style="stroke:#181818;stroke-width:1;"/><text fill="#000000" font-family="sans-serif" font-size="13" font-weight="bold" lengthAdjust="spacing" textLength="9.0454" x="299.0562" y="332.7271">7</text><text fill="#000000" font-family="sans-serif" font-size="13" lengthAdjust="spacing" textLength="138.563" x="312.1016" y="325.1606">Display settings form</text><text fill="#000000" font-family="sans-serif" font-size="13" lengthAdjust="spacing" textLength="222.0854" x="312.1016" y="340.2935">(heuristic weights, config params)</text></g><g class="message" data-entity-1="part1" data-entity-2="part2" id="msg8"><polygon fill="#181818" points="265.0562,413.4922,275.0562,417.4922,265.0562,421.4922,269.0562,417.4922" style="stroke:#181818;stroke-width:1;"/><line style="stroke:#181818;stroke-width:1;" x1="35.4321" x2="271.0562" y1="417.4922" y2="417.4922"/><text fill="#000000" font-family="sans-serif" font-size="13" font-weight="bold" lengthAdjust="spacing" textLength="9.0454" x="42.4321" y="412.4263">8</text><text fill="#000000" font-family="sans-serif" font-size="13" lengthAdjust="spacing" textLength="204.5786" x="55.4775" y="412.4263">Modify parameters (AI weights)</text></g><g class="message" data-entity-1="part1" data-entity-2="part2" id="msg9"><polygon fill="#181818" points="265.0562,442.625,275.0562,446.625,265.0562,450.625,269.0562,446.625" style="stroke:#181818;stroke-width:1;"/><line style="stroke:#181818;stroke-width:1;" x1="30.4321" x2="271.0562" y1="446.625" y2="446.625"/><text fill="#000000" font-family="sans-serif" font-size="13" font-weight="bold" lengthAdjust="spacing" textLength="9.0454" x="37.4321" y="441.5591">9</text><text fill="#000000" font-family="sans-serif" font-size="13" lengthAdjust="spacing" textLength="78.9775" x="50.4775" y="441.5591">Click "Save"</text></g><g class="message" data-entity-1="part2" data-entity-2="part2" id="msg10"><line style="stroke:#181818;stroke-width:1;" x1="292.0562" x2="334.0562" y1="475.7578" y2="475.7578"/><line style="stroke:#181818;stroke-width:1;" x1="334.0562" x2="334.0562" y1="475.7578" y2="488.7578"/><line style="stroke:#181818;stroke-width:1;" x1="293.0562" x2="334.0562" y1="488.7578" y2="488.7578"/><polygon fill="#181818" points="303.0562,484.7578,293.0562,488.7578,303.0562,492.7578,299.0562,488.7578" style="stroke:#181818;stroke-width:1;"/><text fill="#000000" font-family="sans-serif" font-size="13" font-weight="bold" lengthAdjust="spacing" textLength="18.0908" x="299.0562" y="470.6919">10</text><text fill="#000000" font-family="sans-serif" font-size="13" lengthAdjust="spacing" textLength="172.5737" x="321.147" y="470.6919">Validate parameter values</text></g><path d="M197.4771,533.7578 L284.4287,533.7578 L284.4287,540.8906 L274.4287,550.8906 L197.4771,550.8906 L197.4771,533.7578" fill="#EEEEEE" style="stroke:#000000;stroke-width:1.5;"/><rect fill="none" height="89.2656" style="stroke:#000000;stroke-width:1.5;" width="304.6152" x="197.4771" y="533.7578"/><text fill="#000000" font-family="sans-serif" font-size="13" font-weight="bold" lengthAdjust="spacing" textLength="41.9517" x="212.4771" y="546.8247">break</text><text fill="#000000" font-family="sans-serif" font-size="11" font-weight="bold" lengthAdjust="spacing" textLength="96.019" x="299.4287" y="545.9683">[Invalid values]</text><g class="message" data-entity-1="part2" data-entity-2="part2" id="msg11"><line style="stroke:#181818;stroke-width:1;" x1="292.0562" x2="334.0562" y1="572.0234" y2="572.0234"/><line style="stroke:#181818;stroke-width:1;" x1="334.0562" x2="334.0562" y1="572.0234" y2="585.0234"/><line style="stroke:#181818;stroke-width:1;" x1="293.0562" x2="334.0562" y1="585.0234" y2="585.0234"/><polygon fill="#181818" points="303.0562,581.0234,293.0562,585.0234,303.0562,589.0234,299.0562,585.0234" style="stroke:#181818;stroke-width:1;"/><text fill="#000000" font-family="sans-serif" font-size="13" font-weight="bold" lengthAdjust="spacing" textLength="18.0908" x="299.0562" y="566.9575">11</text><text fill="#000000" font-family="sans-serif" font-size="13" lengthAdjust="spacing" textLength="158.9453" x="321.147" y="566.9575">Display validation errors</text></g><g class="message" data-entity-1="part2" data-entity-2="part3" id="msg12"><polygon fill="#181818" points="534.187,647.1563,544.187,651.1563,534.187,655.1563,538.187,651.1563" style="stroke:#181818;stroke-width:1;"/><line style="stroke:#181818;stroke-width:1;" x1="287.0562" x2="540.187" y1="651.1563" y2="651.1563"/><text fill="#000000" font-family="sans-serif" font-size="13" font-weight="bold" lengthAdjust="spacing" textLength="18.0908" x="294.0562" y="646.0903">12</text><text fill="#000000" font-family="sans-serif" font-size="13" lengthAdjust="spacing" textLength="136.5127" x="316.147" y="646.0903">Send update request</text></g><g class="message" data-entity-1="part3" data-entity-2="part4" id="msg13"><polygon fill="#181818" points="742.1665,676.2891,752.1665,680.2891,742.1665,684.2891,746.1665,680.2891" style="stroke:#181818;stroke-width:1;"/><line style="stroke:#181818;stroke-width:1;" x1="556.187" x2="748.1665" y1="680.2891" y2="680.2891"/><text fill="#000000" font-family="sans-serif" font-size="13" font-weight="bold" lengthAdjust="spacing" textLength="18.0908" x="563.187" y="675.2231">13</text><text fill="#000000" font-family="sans-serif" font-size="13" lengthAdjust="spacing" textLength="154.1846" x="585.2778" y="675.2231">Update system settings</text></g><g class="message" data-entity-1="part4" data-entity-2="part4" id="msg14"><line style="stroke:#181818;stroke-width:1;" x1="769.1665" x2="811.1665" y1="709.4219" y2="709.4219"/><line style="stroke:#181818;stroke-width:1;" x1="811.1665" x2="811.1665" y1="709.4219" y2="722.4219"/><line style="stroke:#181818;stroke-width:1;" x1="770.1665" x2="811.1665" y1="722.4219" y2="722.4219"/><polygon fill="#181818" points="780.1665,718.4219,770.1665,722.4219,780.1665,726.4219,776.1665,722.4219" style="stroke:#181818;stroke-width:1;"/><text fill="#000000" font-family="sans-serif" font-size="13" font-weight="bold" lengthAdjust="spacing" textLength="18.0908" x="776.1665" y="704.356">14</text><text fill="#000000" font-family="sans-serif" font-size="13" lengthAdjust="spacing" textLength="145.1265" x="798.2573" y="704.356">Upsert setting records</text></g><g class="message" data-entity-1="part4" data-entity-2="part3" id="msg15"><polygon fill="#181818" points="567.187,777.5547,557.187,781.5547,567.187,785.5547,563.187,781.5547" style="stroke:#181818;stroke-width:1;"/><line style="stroke:#181818;stroke-width:1;stroke-dasharray:2,2;" x1="561.187" x2="758.1665" y1="781.5547" y2="781.5547"/><text fill="#000000" font-family="sans-serif" font-size="13" font-weight="bold" lengthAdjust="spacing" textLength="18.0908" x="573.187" y="776.4888">15</text><text fill="#000000" font-family="sans-serif" font-size="13" lengthAdjust="spacing" textLength="118.4917" x="595.2778" y="776.4888">Update successful</text></g><g class="message" data-entity-1="part3" data-entity-2="part2" id="msg16"><polygon fill="#181818" points="298.0562,806.6875,288.0562,810.6875,298.0562,814.6875,294.0562,810.6875" style="stroke:#181818;stroke-width:1;"/><line style="stroke:#181818;stroke-width:1;stroke-dasharray:2,2;" x1="292.0562" x2="550.187" y1="810.6875" y2="810.6875"/><text fill="#000000" font-family="sans-serif" font-size="13" font-weight="bold" lengthAdjust="spacing" textLength="18.0908" x="304.0562" y="805.6216">16</text><text fill="#000000" font-family="sans-serif" font-size="13" lengthAdjust="spacing" textLength="129.5684" x="326.147" y="805.6216">Success notification</text></g><g class="message" data-entity-1="part2" data-entity-2="part2" id="msg17"><line style="stroke:#181818;stroke-width:1;" x1="292.0562" x2="334.0562" y1="839.8203" y2="839.8203"/><line style="stroke:#181818;stroke-width:1;" x1="334.0562" x2="334.0562" y1="839.8203" y2="852.8203"/><line style="stroke:#181818;stroke-width:1;" x1="293.0562" x2="334.0562" y1="852.8203" y2="852.8203"/><polygon fill="#181818" points="303.0562,848.8203,293.0562,852.8203,303.0562,856.8203,299.0562,852.8203" style="stroke:#181818;stroke-width:1;"/><text fill="#000000" font-family="sans-serif" font-size="13" font-weight="bold" lengthAdjust="spacing" textLength="18.0908" x="299.0562" y="834.7544">17</text><text fill="#000000" font-family="sans-serif" font-size="13" lengthAdjust="spacing" textLength="165.458" x="321.147" y="834.7544">Display success message</text></g><?plantuml-src ZLFTIiCm5BxlKnoySk1yW252gIAxKD1i0q6GB3sTmJIP9qd7tjwasMepL7OJsl3zdPzmxupsxHgfABXmXg2iMwc1MoYBjV6wvhG7jhSEMuREIRsnAucx261iLGYZ7HcLM5NwKKWzlofGE-a2_PKjxX_VsVrYCNzwO8bR52LCRwF834eXq5gmlGtOWmzi-GPZAjbnXo7Fy1cTYt14WRAQmGj-URGEX2SAdeF2Y5m5loePpk3POwYAAtLgERO81Zb-oAMaTHconl5VyBcPJdlYiMLGSyTFO7q14HWhg4wImsKvXntApOUpLu1EN4_6z5ZEeVw-WNVIRXKVHMmCjM_wyWCzXR1I_6Y5YJLo4tfBlBMJlATPmDLuGe-cbiq-iT0XPG4d8s2bfFY42yOxlCWIvu5NNCawtW-Aq74LXlX_e3KX_uIvxYBzo03uhHLTSf160n8PYhXC3E147NMTRHKB5-2tVKnA6_RNGYqJwhnjMcujqZ3g82qCrVQyXJeQ-Vx5D5xzjrGieK0R9nif-cQSjKK7NXkEx0d-Cf9l?></g></svg>