<?plantuml 1.2026.1?><svg xmlns="http://www.w3.org/2000/svg" xmlns:xlink="http://www.w3.org/1999/xlink" contentStyleType="text/css" data-diagram-type="SEQUENCE" height="1301px" preserveAspectRatio="none" style="width:1718px;height:1301px;background:#FFFFFF;" version="1.1" viewBox="0 0 1718 1301" width="1718px" zoomAndPan="magnify"><defs/><g><g><title>User</title><rect fill="#FFFFFF" height="480.5938" style="stroke:#181818;stroke-width:1;" width="10" x="18.9551" y="112.4297"/></g><g><title>ResetPasswordView</title><rect fill="#FFFFFF" height="1018.0547" style="stroke:#181818;stroke-width:1;" width="10" x="355.3584" y="112.4297"/></g><g><title>ResetPasswordView</title><rect fill="#FFFFFF" height="28" style="stroke:#181818;stroke-width:1;" width="10" x="360.3584" y="362.3594"/></g><g><title>ResetPasswordView</title><rect fill="#FFFFFF" height="28" style="stroke:#181818;stroke-width:1;" width="10" x="360.3584" y="499.7578"/></g><g><title>ResetPasswordView</title><rect fill="#FFFFFF" height="28" style="stroke:#181818;stroke-width:1;" width="10" x="360.3584" y="630.1563"/></g><g><title>ResetPasswordView</title><rect fill="#FFFFFF" height="28" style="stroke:#181818;stroke-width:1;" width="10" x="360.3584" y="726.4219"/></g><g><title>ResetPasswordView</title><rect fill="#FFFFFF" height="28" style="stroke:#181818;stroke-width:1;" width="10" x="360.3584" y="1066.3516"/></g><g><title>SignInView</title><rect fill="#FFFFFF" height="65.1328" style="stroke:#181818;stroke-width:1;" width="10" x="750.4712" y="1130.4844"/></g><g><title>SignInView</title><rect fill="#FFFFFF" height="28" style="stroke:#181818;stroke-width:1;" width="10" x="755.4712" y="1167.6172"/></g><g><title>AuthController</title><rect fill="#FFFFFF" height="321.0625" style="stroke:#181818;stroke-width:1;" width="10" x="1085.3955" y="141.5625"/></g><g><title>AuthController</title><rect fill="#FFFFFF" height="231.6641" style="stroke:#181818;stroke-width:1;" width="10" x="1085.3955" y="797.5547"/></g><g><title>AuthController</title><rect fill="#FFFFFF" height="28" style="stroke:#181818;stroke-width:1;" width="10" x="1090.3955" y="834.6875"/></g><g><title>USER</title><rect fill="#FFFFFF" height="262.7969" style="stroke:#181818;stroke-width:1;" width="10" x="1392.7285" y="170.6953"/></g><g><title>USER</title><rect fill="#FFFFFF" height="28" style="stroke:#181818;stroke-width:1;" width="10" x="1397.7285" y="207.8281"/></g><g><title>USER</title><rect fill="#FFFFFF" height="101.2656" style="stroke:#181818;stroke-width:1;" width="10" x="1392.7285" y="898.8203"/></g><g><title>USER</title><rect fill="#FFFFFF" height="28" style="stroke:#181818;stroke-width:1;" width="10" x="1397.7285" y="935.9531"/></g><rect fill="none" height="147.5313" style="stroke:#000000;stroke-width:1.5;" width="1151.9912" x="277.5908" y="257.8281"/><rect fill="none" height="89.2656" style="stroke:#000000;stroke-width:1.5;" width="296.0308" x="277.5908" y="680.1563"/><g class="participant-lifeline" data-entity-uid="part1" data-qualified-name="U" id="part1-lifeline"><g><title>User</title><rect fill="#000000" fill-opacity="0.00000" height="1139.3203" width="8" x="19.9551" y="81.2969"/><line style="stroke:#181818;stroke-width:0.5;stroke-dasharray:5,5;" x1="23" x2="23" y1="81.2969" y2="1220.6172"/></g></g><g class="participant-lifeline" data-entity-uid="part2" data-qualified-name="RPV" id="part2-lifeline"><g><title>ResetPasswordView</title><rect fill="#000000" fill-opacity="0.00000" height="1139.3203" width="8" x="356.3584" y="81.2969"/><line style="stroke:#181818;stroke-width:0.5;stroke-dasharray:5,5;" x1="359.5908" x2="359.5908" y1="81.2969" y2="1220.6172"/></g></g><g class="participant-lifeline" data-entity-uid="part3" data-qualified-name="SIV" id="part3-lifeline"><g><title>SignInView</title><rect fill="#000000" fill-opacity="0.00000" height="1139.3203" width="8" x="751.4712" y="81.2969"/><line style="stroke:#181818;stroke-width:0.5;stroke-dasharray:5,5;" x1="754.937" x2="754.937" y1="81.2969" y2="1220.6172"/></g></g><g class="participant-lifeline" data-entity-uid="part4" data-qualified-name="AC" id="part4-lifeline"><g><title>AuthController</title><rect fill="#000000" fill-opacity="0.00000" height="1139.3203" width="8" x="1086.3955" y="81.2969"/><line style="stroke:#181818;stroke-width:0.5;stroke-dasharray:5,5;" x1="1089.4028" x2="1089.4028" y1="81.2969" y2="1220.6172"/></g></g><g class="participant-lifeline" data-entity-uid="part5" data-qualified-name="US" id="part5-lifeline"><g><title>USER</title><rect fill="#000000" fill-opacity="0.00000" height="1139.3203" width="8" x="1393.7285" y="81.2969"/><line style="stroke:#181818;stroke-width:0.5;stroke-dasharray:5,5;" x1="1396.875" x2="1396.875" y1="81.2969" y2="1220.6172"/></g></g><g class="participant participant-head" data-entity-uid="part1" data-qualified-name="U" id="part1-head"><text fill="#000000" font-family="sans-serif" font-size="14" lengthAdjust="spacing" textLength="31.9102" x="5" y="77.9951">User</text><ellipse cx="23.9551" cy="13.5" fill="#E2E2F0" rx="8" ry="8" style="stroke:#181818;stroke-width:0.5;"/><path d="M23.9551,21.5 L23.9551,48.5 M10.9551,29.5 L36.9551,29.5 M23.9551,48.5 L10.9551,63.5 M23.9551,48.5 L36.9551,63.5" fill="none" style="stroke:#181818;stroke-width:0.5;"/></g><g class="participant participant-tail" data-entity-uid="part1" data-qualified-name="U" id="part1-tail"><text fill="#000000" font-family="sans-serif" font-size="14" lengthAdjust="spacing" textLength="31.9102" x="5" y="1232.6123">User</text><ellipse cx="23.9551" cy="1244.4141" fill="#E2E2F0" rx="8" ry="8" style="stroke:#181818;stroke-width:0.5;"/><path d="M23.9551,1252.4141 L23.9551,1279.4141 M10.9551,1260.4141 L36.9551,1260.4141 M23.9551,1279.4141 L10.9551,1294.4141 M23.9551,1279.4141 L36.9551,1294.4141" fill="none" style="stroke:#181818;stroke-width:0.5;"/></g><g class="participant participant-head" data-entity-uid="part2" data-qualified-name="RPV" id="part2-head"><text fill="#000000" font-family="sans-serif" font-size="14" lengthAdjust="spacing" textLength="139.5352" x="287.5908" y="77.9951">ResetPasswordView</text><path d="M339.8584,37 L339.8584,61 M339.8584,49 L356.8584,49" fill="none" style="stroke:#181818;stroke-width:0.5;"/><ellipse cx="368.8584" cy="49" fill="#E2E2F0" rx="12" ry="12" style="stroke:#181818;stroke-width:0.5;"/></g><g class="participant participant-tail" data-entity-uid="part2" data-qualified-name="RPV" id="part2-tail"><text fill="#000000" font-family="sans-serif" font-size="14" lengthAdjust="spacing" textLength="139.5352" x="287.5908" y="1232.6123">ResetPasswordView</text><path d="M339.8584,1239.9141 L339.8584,1263.9141 M339.8584,1251.9141 L356.8584,1251.9141" fill="none" style="stroke:#181818;stroke-width:0.5;"/><ellipse cx="368.8584" cy="1251.9141" fill="#E2E2F0" rx="12" ry="12" style="stroke:#181818;stroke-width:0.5;"/></g><g class="participant participant-head" data-entity-uid="part3" data-qualified-name="SIV" id="part3-head"><text fill="#000000" font-family="sans-serif" font-size="14" lengthAdjust="spacing" textLength="77.0684" x="713.937" y="77.9951">SignInView</text><path d="M734.9712,37 L734.9712,61 M734.9712,49 L751.9712,49" fill="none" style="stroke:#181818;stroke-width:0.5;"/><ellipse cx="763.9712" cy="49" fill="#E2E2F0" rx="12" ry="12" style="stroke:#181818;stroke-width:0.5;"/></g><g class="participant participant-tail" data-entity-uid="part3" data-qualified-name="SIV" id="part3-tail"><text fill="#000000" font-family="sans-serif" font-size="14" lengthAdjust="spacing" textLength="77.0684" x="713.937" y="1232.6123">SignInView</text><path d="M734.9712,1239.9141 L734.9712,1263.9141 M734.9712,1251.9141 L751.9712,1251.9141" fill="none" style="stroke:#181818;stroke-width:0.5;"/><ellipse cx="763.9712" cy="1251.9141" fill="#E2E2F0" rx="12" ry="12" style="stroke:#181818;stroke-width:0.5;"/></g><g class="participant participant-head" data-entity-uid="part4" data-qualified-name="AC" id="part4-head"><text fill="#000000" font-family="sans-serif" font-size="14" lengthAdjust="spacing" textLength="101.9854" x="1036.4028" y="77.9951">AuthController</text><ellipse cx="1090.3955" cy="49" fill="#E2E2F0" rx="12" ry="12" style="stroke:#181818;stroke-width:0.5;"/><polygon fill="#181818" points="1086.3955,37,1092.3955,32,1090.3955,37,1092.3955,42,1086.3955,37" style="stroke:#181818;stroke-width:1;"/></g><g class="participant participant-tail" data-entity-uid="part4" data-qualified-name="AC" id="part4-tail"><text fill="#000000" font-family="sans-serif" font-size="14" lengthAdjust="spacing" textLength="101.9854" x="1036.4028" y="1232.6123">AuthController</text><ellipse cx="1090.3955" cy="1251.9141" fill="#E2E2F0" rx="12" ry="12" style="stroke:#181818;stroke-width:0.5;"/><polygon fill="#181818" points="1086.3955,1239.9141,1092.3955,1234.9141,1090.3955,1239.9141,1092.3955,1244.9141,1086.3955,1239.9141" style="stroke:#181818;stroke-width:1;"/></g><g class="participant participant-head" data-entity-uid="part5" data-qualified-name="US" id="part5-head"><text fill="#000000" font-family="sans-serif" font-size="14" lengthAdjust="spacing" textLength="37.707" x="1375.875" y="77.9951">USER</text><ellipse cx="1397.7285" cy="49" fill="#E2E2F0" rx="12" ry="12" style="stroke:#181818;stroke-width:0.5;"/><line style="stroke:#181818;stroke-width:0.5;" x1="1385.7285" x2="1409.7285" y1="63" y2="63"/></g><g class="participant participant-tail" data-entity-uid="part5" data-qualified-name="US" id="part5-tail"><text fill="#000000" font-family="sans-serif" font-size="14" lengthAdjust="spacing" textLength="37.707" x="1375.875" y="1232.6123">USER</text><ellipse cx="1397.7285" cy="1251.9141" fill="#E2E2F0" rx="12" ry="12" style="stroke:#181818;stroke-width:0.5;"/><line style="stroke:#181818;stroke-width:0.5;" x1="1385.7285" x2="1409.7285" y1="1265.9141" y2="1265.9141"/></g><g><title>User</title><rect fill="#FFFFFF" height="480.5938" style="stroke:#181818;stroke-width:1;" width="10" x="18.9551" y="112.4297"/></g><g><title>ResetPasswordView</title><rect fill="#FFFFFF" height="1018.0547" style="stroke:#181818;stroke-width:1;" width="10" x="355.3584" y="112.4297"/></g><g><title>ResetPasswordView</title><rect fill="#FFFFFF" height="28" style="stroke:#181818;stroke-width:1;" width="10" x="360.3584" y="362.3594"/></g><g><title>ResetPasswordView</title><rect fill="#FFFFFF" height="28" style="stroke:#181818;stroke-width:1;" width="10" x="360.3584" y="499.7578"/></g><g><title>ResetPasswordView</title><rect fill="#FFFFFF" height="28" style="stroke:#181818;stroke-width:1;" width="10" x="360.3584" y="630.1563"/></g><g><title>ResetPasswordView</title><rect fill="#FFFFFF" height="28" style="stroke:#181818;stroke-width:1;" width="10" x="360.3584" y="726.4219"/></g><g><title>ResetPasswordView</title><rect fill="#FFFFFF" height="28" style="stroke:#181818;stroke-width:1;" width="10" x="360.3584" y="1066.3516"/></g><g><title>SignInView</title><rect fill="#FFFFFF" height="65.1328" style="stroke:#181818;stroke-width:1;" width="10" x="750.4712" y="1130.4844"/></g><g><title>SignInView</title><rect fill="#FFFFFF" height="28" style="stroke:#181818;stroke-width:1;" width="10" x="755.4712" y="1167.6172"/></g><g><title>AuthController</title><rect fill="#FFFFFF" height="321.0625" style="stroke:#181818;stroke-width:1;" width="10" x="1085.3955" y="141.5625"/></g><g><title>AuthController</title><rect fill="#FFFFFF" height="231.6641" style="stroke:#181818;stroke-width:1;" width="10" x="1085.3955" y="797.5547"/></g><g><title>AuthController</title><rect fill="#FFFFFF" height="28" style="stroke:#181818;stroke-width:1;" width="10" x="1090.3955" y="834.6875"/></g><g><title>USER</title><rect fill="#FFFFFF" height="262.7969" style="stroke:#181818;stroke-width:1;" width="10" x="1392.7285" y="170.6953"/></g><g><title>USER</title><rect fill="#FFFFFF" height="28" style="stroke:#181818;stroke-width:1;" width="10" x="1397.7285" y="207.8281"/></g><g><title>USER</title><rect fill="#FFFFFF" height="101.2656" style="stroke:#181818;stroke-width:1;" width="10" x="1392.7285" y="898.8203"/></g><g><title>USER</title><rect fill="#FFFFFF" height="28" style="stroke:#181818;stroke-width:1;" width="10" x="1397.7285" y="935.9531"/></g><g class="message" data-entity-1="part1" data-entity-2="part2" id="msg1"><polygon fill="#181818" points="343.3584,108.4297,353.3584,112.4297,343.3584,116.4297,347.3584,112.4297" style="stroke:#181818;stroke-width:1;"/><line style="stroke:#181818;stroke-width:1;" x1="28.9551" x2="349.3584" y1="112.4297" y2="112.4297"/><text fill="#000000" font-family="sans-serif" font-size="13" font-weight="bold" lengthAdjust="spacing" textLength="9.0454" x="35.9551" y="107.3638">1</text><text fill="#000000" font-family="sans-serif" font-size="13" lengthAdjust="spacing" textLength="170.0981" x="49.0005" y="107.3638">Click reset link from email</text></g><g class="message" data-entity-1="part2" data-entity-2="part4" id="msg2"><polygon fill="#181818" points="1073.3955,137.5625,1083.3955,141.5625,1073.3955,145.5625,1077.3955,141.5625" style="stroke:#181818;stroke-width:1;"/><line style="stroke:#181818;stroke-width:1;" x1="365.3584" x2="1079.3955" y1="141.5625" y2="141.5625"/><text fill="#000000" font-family="sans-serif" font-size="13" font-weight="bold" lengthAdjust="spacing" textLength="9.0454" x="372.3584" y="136.4966">2</text><text fill="#000000" font-family="sans-serif" font-size="13" lengthAdjust="spacing" textLength="131.6885" x="385.4038" y="136.4966">Validate reset token</text></g><g class="message" data-entity-1="part4" data-entity-2="part5" id="msg3"><polygon fill="#181818" points="1380.7285,166.6953,1390.7285,170.6953,1380.7285,174.6953,1384.7285,170.6953" style="stroke:#181818;stroke-width:1;"/><line style="stroke:#181818;stroke-width:1;" x1="1095.3955" x2="1386.7285" y1="170.6953" y2="170.6953"/><text fill="#000000" font-family="sans-serif" font-size="13" font-weight="bold" lengthAdjust="spacing" textLength="9.0454" x="1102.3955" y="165.6294">3</text><text fill="#000000" font-family="sans-serif" font-size="13" lengthAdjust="spacing" textLength="205.9243" x="1115.4409" y="165.6294">Check token validity and expiry</text></g><g class="message" data-entity-1="part5" data-entity-2="part5" id="msg4"><line style="stroke:#181818;stroke-width:1;" x1="1407.7285" x2="1449.7285" y1="199.8281" y2="199.8281"/><line style="stroke:#181818;stroke-width:1;" x1="1449.7285" x2="1449.7285" y1="199.8281" y2="212.8281"/><line style="stroke:#181818;stroke-width:1;" x1="1408.7285" x2="1449.7285" y1="212.8281" y2="212.8281"/><polygon fill="#181818" points="1418.7285,208.8281,1408.7285,212.8281,1418.7285,216.8281,1414.7285,212.8281" style="stroke:#181818;stroke-width:1;"/><text fill="#000000" font-family="sans-serif" font-size="13" font-weight="bold" lengthAdjust="spacing" textLength="9.0454" x="1414.7285" y="194.7622">4</text><text fill="#000000" font-family="sans-serif" font-size="13" lengthAdjust="spacing" textLength="140.2451" x="1427.7739" y="194.7622">Query by reset_token</text></g><path d="M277.5908,257.8281 L364.5425,257.8281 L364.5425,264.9609 L354.5425,274.9609 L277.5908,274.9609 L277.5908,257.8281" fill="#EEEEEE" style="stroke:#000000;stroke-width:1.5;"/><rect fill="none" height="147.5313" style="stroke:#000000;stroke-width:1.5;" width="1151.9912" x="277.5908" y="257.8281"/><text fill="#000000" font-family="sans-serif" font-size="13" font-weight="bold" lengthAdjust="spacing" textLength="41.9517" x="292.5908" y="270.895">break</text><text fill="#000000" font-family="sans-serif" font-size="11" font-weight="bold" lengthAdjust="spacing" textLength="160.7622" x="379.5425" y="270.0386">[Token invalid or expired]</text><g class="message" data-entity-1="part5" data-entity-2="part4" id="msg5"><polygon fill="#181818" points="1106.3955,292.0938,1096.3955,296.0938,1106.3955,300.0938,1102.3955,296.0938" style="stroke:#181818;stroke-width:1;"/><line style="stroke:#181818;stroke-width:1;stroke-dasharray:2,2;" x1="1100.3955" x2="1391.7285" y1="296.0938" y2="296.0938"/><text fill="#000000" font-family="sans-serif" font-size="13" font-weight="bold" lengthAdjust="spacing" textLength="9.0454" x="1112.3955" y="291.0278">5</text><text fill="#000000" font-family="sans-serif" font-size="13" lengthAdjust="spacing" textLength="86.7788" x="1125.4409" y="291.0278">Token invalid</text></g><g class="message" data-entity-1="part4" data-entity-2="part2" id="msg6"><polygon fill="#181818" points="376.3584,321.2266,366.3584,325.2266,376.3584,329.2266,372.3584,325.2266" style="stroke:#181818;stroke-width:1;"/><line style="stroke:#181818;stroke-width:1;stroke-dasharray:2,2;" x1="370.3584" x2="1084.3955" y1="325.2266" y2="325.2266"/><text fill="#000000" font-family="sans-serif" font-size="13" font-weight="bold" lengthAdjust="spacing" textLength="9.0454" x="382.3584" y="320.1606">6</text><text fill="#000000" font-family="sans-serif" font-size="13" lengthAdjust="spacing" textLength="109.4399" x="395.4038" y="320.1606">Error notification</text></g><g class="message" data-entity-1="part2" data-entity-2="part2" id="msg7"><line style="stroke:#181818;stroke-width:1;" x1="370.3584" x2="412.3584" y1="354.3594" y2="354.3594"/><line style="stroke:#181818;stroke-width:1;" x1="412.3584" x2="412.3584" y1="354.3594" y2="367.3594"/><line style="stroke:#181818;stroke-width:1;" x1="371.3584" x2="412.3584" y1="367.3594" y2="367.3594"/><polygon fill="#181818" points="381.3584,363.3594,371.3584,367.3594,381.3584,371.3594,377.3584,367.3594" style="stroke:#181818;stroke-width:1;"/><text fill="#000000" font-family="sans-serif" font-size="13" font-weight="bold" lengthAdjust="spacing" textLength="9.0454" x="377.3584" y="349.2935">7</text><text fill="#000000" font-family="sans-serif" font-size="13" lengthAdjust="spacing" textLength="296.499" x="390.4038" y="349.2935">Display "Reset link is invalid or expired" error</text></g><g class="message" data-entity-1="part5" data-entity-2="part4" id="msg8"><polygon fill="#181818" points="1106.3955,429.4922,1096.3955,433.4922,1106.3955,437.4922,1102.3955,433.4922" style="stroke:#181818;stroke-width:1;"/><line style="stroke:#181818;stroke-width:1;stroke-dasharray:2,2;" x1="1100.3955" x2="1396.7285" y1="433.4922" y2="433.4922"/><text fill="#000000" font-family="sans-serif" font-size="13" font-weight="bold" lengthAdjust="spacing" textLength="9.0454" x="1112.3955" y="428.4263">8</text><text fill="#000000" font-family="sans-serif" font-size="13" lengthAdjust="spacing" textLength="74.9277" x="1125.4409" y="428.4263">Token valid</text></g><g class="message" data-entity-1="part4" data-entity-2="part2" id="msg9"><polygon fill="#181818" points="376.3584,458.625,366.3584,462.625,376.3584,466.625,372.3584,462.625" style="stroke:#181818;stroke-width:1;"/><line style="stroke:#181818;stroke-width:1;stroke-dasharray:2,2;" x1="370.3584" x2="1089.3955" y1="462.625" y2="462.625"/><text fill="#000000" font-family="sans-serif" font-size="13" font-weight="bold" lengthAdjust="spacing" textLength="9.0454" x="382.3584" y="457.5591">9</text><text fill="#000000" font-family="sans-serif" font-size="13" lengthAdjust="spacing" textLength="107.0913" x="395.4038" y="457.5591">Show reset form</text></g><g class="message" data-entity-1="part2" data-entity-2="part2" id="msg10"><line style="stroke:#181818;stroke-width:1;" x1="370.3584" x2="412.3584" y1="491.7578" y2="491.7578"/><line style="stroke:#181818;stroke-width:1;" x1="412.3584" x2="412.3584" y1="491.7578" y2="504.7578"/><line style="stroke:#181818;stroke-width:1;" x1="371.3584" x2="412.3584" y1="504.7578" y2="504.7578"/><polygon fill="#181818" points="381.3584,500.7578,371.3584,504.7578,381.3584,508.7578,377.3584,504.7578" style="stroke:#181818;stroke-width:1;"/><text fill="#000000" font-family="sans-serif" font-size="13" font-weight="bold" lengthAdjust="spacing" textLength="18.0908" x="377.3584" y="486.6919">10</text><text fill="#000000" font-family="sans-serif" font-size="13" lengthAdjust="spacing" textLength="186.0117" x="399.4492" y="486.6919">Display password reset form</text></g><g class="message" data-entity-1="part1" data-entity-2="part2" id="msg11"><polygon fill="#181818" points="343.3584,559.8906,353.3584,563.8906,343.3584,567.8906,347.3584,563.8906" style="stroke:#181818;stroke-width:1;"/><line style="stroke:#181818;stroke-width:1;" x1="28.9551" x2="349.3584" y1="563.8906" y2="563.8906"/><text fill="#000000" font-family="sans-serif" font-size="13" font-weight="bold" lengthAdjust="spacing" textLength="18.0908" x="35.9551" y="558.8247">11</text><text fill="#000000" font-family="sans-serif" font-size="13" lengthAdjust="spacing" textLength="280.3125" x="58.0459" y="558.8247">Enter new password and confirm password</text></g><g class="message" data-entity-1="part1" data-entity-2="part2" id="msg12"><polygon fill="#181818" points="343.3584,589.0234,353.3584,593.0234,343.3584,597.0234,347.3584,593.0234" style="stroke:#181818;stroke-width:1;"/><line style="stroke:#181818;stroke-width:1;" x1="23.9551" x2="349.3584" y1="593.0234" y2="593.0234"/><text fill="#000000" font-family="sans-serif" font-size="13" font-weight="bold" lengthAdjust="spacing" textLength="18.0908" x="30.9551" y="587.9575">12</text><text fill="#000000" font-family="sans-serif" font-size="13" lengthAdjust="spacing" textLength="149.6333" x="53.0459" y="587.9575">Click "Reset Password"</text></g><g class="message" data-entity-1="part2" data-entity-2="part2" id="msg13"><line style="stroke:#181818;stroke-width:1;" x1="370.3584" x2="412.3584" y1="622.1563" y2="622.1563"/><line style="stroke:#181818;stroke-width:1;" x1="412.3584" x2="412.3584" y1="622.1563" y2="635.1563"/><line style="stroke:#181818;stroke-width:1;" x1="371.3584" x2="412.3584" y1="635.1563" y2="635.1563"/><polygon fill="#181818" points="381.3584,631.1563,371.3584,635.1563,381.3584,639.1563,377.3584,635.1563" style="stroke:#181818;stroke-width:1;"/><text fill="#000000" font-family="sans-serif" font-size="13" font-weight="bold" lengthAdjust="spacing" textLength="18.0908" x="377.3584" y="617.0903">13</text><text fill="#000000" font-family="sans-serif" font-size="13" lengthAdjust="spacing" textLength="339.022" x="399.4492" y="617.0903">Validate password strength and confirmation match</text></g><path d="M277.5908,680.1563 L364.5425,680.1563 L364.5425,687.2891 L354.5425,697.2891 L277.5908,697.2891 L277.5908,680.1563" fill="#EEEEEE" style="stroke:#000000;stroke-width:1.5;"/><rect fill="none" height="89.2656" style="stroke:#000000;stroke-width:1.5;" width="296.0308" x="277.5908" y="680.1563"/><text fill="#000000" font-family="sans-serif" font-size="13" font-weight="bold" lengthAdjust="spacing" textLength="41.9517" x="292.5908" y="693.2231">break</text><text fill="#000000" font-family="sans-serif" font-size="11" font-weight="bold" lengthAdjust="spacing" textLength="115.2261" x="379.5425" y="692.3667">[Invalid password]</text><g class="message" data-entity-1="part2" data-entity-2="part2" id="msg14"><line style="stroke:#181818;stroke-width:1;" x1="370.3584" x2="412.3584" y1="718.4219" y2="718.4219"/><line style="stroke:#181818;stroke-width:1;" x1="412.3584" x2="412.3584" y1="718.4219" y2="731.4219"/><line style="stroke:#181818;stroke-width:1;" x1="371.3584" x2="412.3584" y1="731.4219" y2="731.4219"/><polygon fill="#181818" points="381.3584,727.4219,371.3584,731.4219,381.3584,735.4219,377.3584,731.4219" style="stroke:#181818;stroke-width:1;"/><text fill="#000000" font-family="sans-serif" font-size="13" font-weight="bold" lengthAdjust="spacing" textLength="18.0908" x="377.3584" y="713.356">14</text><text fill="#000000" font-family="sans-serif" font-size="13" lengthAdjust="spacing" textLength="152.1724" x="399.4492" y="713.356">Display validation error</text></g><g class="message" data-entity-1="part2" data-entity-2="part4" id="msg15"><polygon fill="#181818" points="1073.3955,793.5547,1083.3955,797.5547,1073.3955,801.5547,1077.3955,797.5547" style="stroke:#181818;stroke-width:1;"/><line style="stroke:#181818;stroke-width:1;" x1="365.3584" x2="1079.3955" y1="797.5547" y2="797.5547"/><text fill="#000000" font-family="sans-serif" font-size="13" font-weight="bold" lengthAdjust="spacing" textLength="18.0908" x="372.3584" y="792.4888">15</text><text fill="#000000" font-family="sans-serif" font-size="13" lengthAdjust="spacing" textLength="215.8584" x="394.4492" y="792.4888">Submit new password with token</text></g><g class="message" data-entity-1="part4" data-entity-2="part4" id="msg16"><line style="stroke:#181818;stroke-width:1;" x1="1100.3955" x2="1142.3955" y1="826.6875" y2="826.6875"/><line style="stroke:#181818;stroke-width:1;" x1="1142.3955" x2="1142.3955" y1="826.6875" y2="839.6875"/><line style="stroke:#181818;stroke-width:1;" x1="1101.3955" x2="1142.3955" y1="839.6875" y2="839.6875"/><polygon fill="#181818" points="1111.3955,835.6875,1101.3955,839.6875,1111.3955,843.6875,1107.3955,839.6875" style="stroke:#181818;stroke-width:1;"/><text fill="#000000" font-family="sans-serif" font-size="13" font-weight="bold" lengthAdjust="spacing" textLength="18.0908" x="1107.3955" y="821.6216">16</text><text fill="#000000" font-family="sans-serif" font-size="13" lengthAdjust="spacing" textLength="129.835" x="1129.4863" y="821.6216">Hash new password</text></g><g class="message" data-entity-1="part4" data-entity-2="part5" id="msg17"><polygon fill="#181818" points="1380.7285,894.8203,1390.7285,898.8203,1380.7285,902.8203,1384.7285,898.8203" style="stroke:#181818;stroke-width:1;"/><line style="stroke:#181818;stroke-width:1;" x1="1095.3955" x2="1386.7285" y1="898.8203" y2="898.8203"/><text fill="#000000" font-family="sans-serif" font-size="13" font-weight="bold" lengthAdjust="spacing" textLength="18.0908" x="1102.3955" y="893.7544">17</text><text fill="#000000" font-family="sans-serif" font-size="13" lengthAdjust="spacing" textLength="256.2422" x="1124.4863" y="893.7544">Update password and clear reset token</text></g><g class="message" data-entity-1="part5" data-entity-2="part5" id="msg18"><line style="stroke:#181818;stroke-width:1;" x1="1407.7285" x2="1449.7285" y1="927.9531" y2="927.9531"/><line style="stroke:#181818;stroke-width:1;" x1="1449.7285" x2="1449.7285" y1="927.9531" y2="940.9531"/><line style="stroke:#181818;stroke-width:1;" x1="1408.7285" x2="1449.7285" y1="940.9531" y2="940.9531"/><polygon fill="#181818" points="1418.7285,936.9531,1408.7285,940.9531,1418.7285,944.9531,1414.7285,940.9531" style="stroke:#181818;stroke-width:1;"/><text fill="#000000" font-family="sans-serif" font-size="13" font-weight="bold" lengthAdjust="spacing" textLength="18.0908" x="1414.7285" y="922.8872">18</text><text fill="#000000" font-family="sans-serif" font-size="13" lengthAdjust="spacing" textLength="274.8345" x="1436.8193" y="922.8872">Update password, set reset_token = NULL</text></g><g class="message" data-entity-1="part5" data-entity-2="part4" id="msg19"><polygon fill="#181818" points="1106.3955,996.0859,1096.3955,1000.0859,1106.3955,1004.0859,1102.3955,1000.0859" style="stroke:#181818;stroke-width:1;"/><line style="stroke:#181818;stroke-width:1;stroke-dasharray:2,2;" x1="1100.3955" x2="1396.7285" y1="1000.0859" y2="1000.0859"/><text fill="#000000" font-family="sans-serif" font-size="13" font-weight="bold" lengthAdjust="spacing" textLength="18.0908" x="1112.3955" y="995.02">19</text><text fill="#000000" font-family="sans-serif" font-size="13" lengthAdjust="spacing" textLength="119.7231" x="1134.4863" y="995.02">Password updated</text></g><g class="message" data-entity-1="part4" data-entity-2="part2" id="msg20"><polygon fill="#181818" points="376.3584,1025.2188,366.3584,1029.2188,376.3584,1033.2188,372.3584,1029.2188" style="stroke:#181818;stroke-width:1;"/><line style="stroke:#181818;stroke-width:1;stroke-dasharray:2,2;" x1="370.3584" x2="1089.3955" y1="1029.2188" y2="1029.2188"/><text fill="#000000" font-family="sans-serif" font-size="13" font-weight="bold" lengthAdjust="spacing" textLength="18.0908" x="382.3584" y="1024.1528">20</text><text fill="#000000" font-family="sans-serif" font-size="13" lengthAdjust="spacing" textLength="129.5684" x="404.4492" y="1024.1528">Success notification</text></g><g class="message" data-entity-1="part2" data-entity-2="part2" id="msg21"><line style="stroke:#181818;stroke-width:1;" x1="370.3584" x2="412.3584" y1="1058.3516" y2="1058.3516"/><line style="stroke:#181818;stroke-width:1;" x1="412.3584" x2="412.3584" y1="1058.3516" y2="1071.3516"/><line style="stroke:#181818;stroke-width:1;" x1="371.3584" x2="412.3584" y1="1071.3516" y2="1071.3516"/><polygon fill="#181818" points="381.3584,1067.3516,371.3584,1071.3516,381.3584,1075.3516,377.3584,1071.3516" style="stroke:#181818;stroke-width:1;"/><text fill="#000000" font-family="sans-serif" font-size="13" font-weight="bold" lengthAdjust="spacing" textLength="18.0908" x="377.3584" y="1053.2856">21</text><text fill="#000000" font-family="sans-serif" font-size="13" lengthAdjust="spacing" textLength="234.2983" x="399.4492" y="1053.2856">Display "Password reset successful"</text></g><g class="message" data-entity-1="part2" data-entity-2="part3" id="msg22"><polygon fill="#181818" points="738.4712,1126.4844,748.4712,1130.4844,738.4712,1134.4844,742.4712,1130.4844" style="stroke:#181818;stroke-width:1;"/><line style="stroke:#181818;stroke-width:1;" x1="360.3584" x2="744.4712" y1="1130.4844" y2="1130.4844"/><text fill="#000000" font-family="sans-serif" font-size="13" font-weight="bold" lengthAdjust="spacing" textLength="18.0908" x="367.3584" y="1125.4185">22</text><text fill="#000000" font-family="sans-serif" font-size="13" lengthAdjust="spacing" textLength="155.2573" x="389.4492" y="1125.4185">Redirect to sign in page</text></g><g class="message" data-entity-1="part3" data-entity-2="part3" id="msg23"><line style="stroke:#181818;stroke-width:1;" x1="765.4712" x2="807.4712" y1="1159.6172" y2="1159.6172"/><line style="stroke:#181818;stroke-width:1;" x1="807.4712" x2="807.4712" y1="1159.6172" y2="1172.6172"/><line style="stroke:#181818;stroke-width:1;" x1="766.4712" x2="807.4712" y1="1172.6172" y2="1172.6172"/><polygon fill="#181818" points="776.4712,1168.6172,766.4712,1172.6172,776.4712,1176.6172,772.4712,1172.6172" style="stroke:#181818;stroke-width:1;"/><text fill="#000000" font-family="sans-serif" font-size="13" font-weight="bold" lengthAdjust="spacing" textLength="18.0908" x="772.4712" y="1154.5513">23</text><text fill="#000000" font-family="sans-serif" font-size="13" lengthAdjust="spacing" textLength="278.8335" x="794.562" y="1154.5513">Display sign in form with success message</text></g><?plantuml-src bLJTpjem3BtFKrXSZnT0soJ4a8RqQM9qvNPAMqCZsWGbAQnlFxj_9FqOdtPHQ1hxd1FxEBBnHZTrXbO8cNjZ8NLeGJf8HMOQNKZRmW4T-hrqxcviSLHuv_t3_lY8IDHPx_IubUoE8ZVQMrF1kl7bfd-lUk3rHg3sohUG9jj3HvK8aSBoAsEkO5Ef_0AMEQ5I-W8dQsh0MggA9QgRz4ZgfbSMGW_dhpShECfA5VozH_3cWleHJEJh3OUc2J6LI4nT1DmuZKL9NG3-kIhR1co9I9CnwsU3TEAixGb-pmWejC1m9JAByWA_EXQbEnwWEdSSM0WWJV1vkUomeoZQudFn7XziQosbQUFLIUNIAwE7WB5mtvIxLhA5nU5HE-MUS2u06OlIeo821Chv0-f2Y7VgUcspGuP2azBSX-gVZAt3K2h_CyNNmLjXLgHa9YnmorPxifKcuqqWt46otqdPUlhupbz3aKPNBw83HI8dGqq4pblKPr-6J5r3WFxoyhNqtWwxeIcJlkUjlFNS3FqVBGkc8McoMlcuFdT5qlyr5vpqNReoIedYudO-fYcznbNgYbEXjCydCPgfMUudu8HWlk0B_4ZVtbwCMM3JiQVGTAYllThaEJeNZzN7XbtiOyUw7kRKL8kNtH-mw89SqQrQq33cN1XmT7_Ie581pZZFcHPyhT8p0OnYncGUcxwvWnoewOSH8uW0_idoBm00?></g></svg>