<?plantuml 1.2026.1?><svg xmlns="http://www.w3.org/2000/svg" xmlns:xlink="http://www.w3.org/1999/xlink" contentStyleType="text/css" data-diagram-type="SEQUENCE" height="910px" preserveAspectRatio="none" style="width:1123px;height:910px;background:#FFFFFF;" version="1.1" viewBox="0 0 1123 910" width="1123px" zoomAndPan="magnify"><defs/><g><g><title>Admin</title><rect fill="#FFFFFF" height="131.5313" style="stroke:#181818;stroke-width:1;" width="10" x="25.4321" y="112.4297"/></g><g><title>SkillDirectoryView</title><rect fill="#FFFFFF" height="708.3906" style="stroke:#181818;stroke-width:1;" width="10" x="213.9517" y="112.4297"/></g><g><title>SkillDirectoryView</title><rect fill="#FFFFFF" height="28" style="stroke:#181818;stroke-width:1;" width="10" x="218.9517" y="179.8281"/></g><g><title>SkillDirectoryView</title><rect fill="#FFFFFF" height="28" style="stroke:#181818;stroke-width:1;" width="10" x="218.9517" y="624.2891"/></g><g><title>SkillDirectoryView</title><rect fill="#FFFFFF" height="28" style="stroke:#181818;stroke-width:1;" width="10" x="218.9517" y="776.8203"/></g><g><title>AdminController</title><rect fill="#FFFFFF" height="451.4609" style="stroke:#181818;stroke-width:1;" width="10" x="503.084" y="273.0938"/></g><g><title>SKILLS</title><rect fill="#FFFFFF" height="262.7969" style="stroke:#181818;stroke-width:1;" width="10" x="673.2993" y="432.625"/></g><g><title>SKILLS</title><rect fill="#FFFFFF" height="28" style="stroke:#181818;stroke-width:1;" width="10" x="678.2993" y="469.7578"/></g><g><title>USER_SKILLS</title><rect fill="#FFFFFF" height="101.2656" style="stroke:#181818;stroke-width:1;" width="10" x="974.0034" y="302.2266"/></g><g><title>USER_SKILLS</title><rect fill="#FFFFFF" height="28" style="stroke:#181818;stroke-width:1;" width="10" x="979.0034" y="339.3594"/></g><rect fill="none" height="147.5313" style="stroke:#000000;stroke-width:1.5;" width="572.2017" x="142.439" y="519.7578"/><g class="participant-lifeline" data-entity-uid="part1" data-qualified-name="A" id="part1-lifeline"><g><title>Admin</title><rect fill="#000000" fill-opacity="0.00000" height="748.5234" width="8" x="26.4321" y="81.2969"/><line style="stroke:#181818;stroke-width:0.5;stroke-dasharray:5,5;" x1="30" x2="30" y1="81.2969" y2="829.8203"/></g></g><g class="participant-lifeline" data-entity-uid="part2" data-qualified-name="SDV" id="part2-lifeline"><g><title>SkillDirectoryView</title><rect fill="#000000" fill-opacity="0.00000" height="748.5234" width="8" x="214.9517" y="81.2969"/><line style="stroke:#181818;stroke-width:0.5;stroke-dasharray:5,5;" x1="218.439" x2="218.439" y1="81.2969" y2="829.8203"/></g></g><g class="participant-lifeline" data-entity-uid="part3" data-qualified-name="AC" id="part3-lifeline"><g><title>AdminController</title><rect fill="#000000" fill-opacity="0.00000" height="748.5234" width="8" x="504.084" y="81.2969"/><line style="stroke:#181818;stroke-width:0.5;stroke-dasharray:5,5;" x1="508.0654" x2="508.0654" y1="81.2969" y2="829.8203"/></g></g><g class="participant-lifeline" data-entity-uid="part4" data-qualified-name="SK" id="part4-lifeline"><g><title>SKILLS</title><rect fill="#000000" fill-opacity="0.00000" height="748.5234" width="8" x="674.2993" y="81.2969"/><line style="stroke:#181818;stroke-width:0.5;stroke-dasharray:5,5;" x1="677.958" x2="677.958" y1="81.2969" y2="829.8203"/></g></g><g class="participant-lifeline" data-entity-uid="part5" data-qualified-name="USK" id="part5-lifeline"><g><title>USER_SKILLS</title><rect fill="#000000" fill-opacity="0.00000" height="748.5234" width="8" x="975.0034" y="81.2969"/><line style="stroke:#181818;stroke-width:0.5;stroke-dasharray:5,5;" x1="978.3086" x2="978.3086" y1="81.2969" y2="829.8203"/></g></g><g class="participant participant-head" data-entity-uid="part1" data-qualified-name="A" id="part1-head"><text fill="#000000" font-family="sans-serif" font-size="14" lengthAdjust="spacing" textLength="44.8643" x="5" y="77.9951">Admin</text><ellipse cx="30.4321" cy="13.5" fill="#E2E2F0" rx="8" ry="8" style="stroke:#181818;stroke-width:0.5;"/><path d="M30.4321,21.5 L30.4321,48.5 M17.4321,29.5 L43.4321,29.5 M30.4321,48.5 L17.4321,63.5 M30.4321,48.5 L43.4321,63.5" fill="none" style="stroke:#181818;stroke-width:0.5;"/></g><g class="participant participant-tail" data-entity-uid="part1" data-qualified-name="A" id="part1-tail"><text fill="#000000" font-family="sans-serif" font-size="14" lengthAdjust="spacing" textLength="44.8643" x="5" y="841.8154">Admin</text><ellipse cx="30.4321" cy="853.6172" fill="#E2E2F0" rx="8" ry="8" style="stroke:#181818;stroke-width:0.5;"/><path d="M30.4321,861.6172 L30.4321,888.6172 M17.4321,869.6172 L43.4321,869.6172 M30.4321,888.6172 L17.4321,903.6172 M30.4321,888.6172 L43.4321,903.6172" fill="none" style="stroke:#181818;stroke-width:0.5;"/></g><g class="participant participant-head" data-entity-uid="part2" data-qualified-name="SDV" id="part2-head"><text fill="#000000" font-family="sans-serif" font-size="14" lengthAdjust="spacing" textLength="127.0254" x="152.439" y="77.9951">SkillDirectoryView</text><path d="M198.4517,37 L198.4517,61 M198.4517,49 L215.4517,49" fill="none" style="stroke:#181818;stroke-width:0.5;"/><ellipse cx="227.4517" cy="49" fill="#E2E2F0" rx="12" ry="12" style="stroke:#181818;stroke-width:0.5;"/></g><g class="participant participant-tail" data-entity-uid="part2" data-qualified-name="SDV" id="part2-tail"><text fill="#000000" font-family="sans-serif" font-size="14" lengthAdjust="spacing" textLength="127.0254" x="152.439" y="841.8154">SkillDirectoryView</text><path d="M198.4517,849.1172 L198.4517,873.1172 M198.4517,861.1172 L215.4517,861.1172" fill="none" style="stroke:#181818;stroke-width:0.5;"/><ellipse cx="227.4517" cy="861.1172" fill="#E2E2F0" rx="12" ry="12" style="stroke:#181818;stroke-width:0.5;"/></g><g class="participant participant-head" data-entity-uid="part3" data-qualified-name="AC" id="part3-head"><text fill="#000000" font-family="sans-serif" font-size="14" lengthAdjust="spacing" textLength="114.0371" x="448.0654" y="77.9951">AdminController</text><ellipse cx="508.084" cy="49" fill="#E2E2F0" rx="12" ry="12" style="stroke:#181818;stroke-width:0.5;"/><polygon fill="#181818" points="504.084,37,510.084,32,508.084,37,510.084,42,504.084,37" style="stroke:#181818;stroke-width:1;"/></g><g class="participant participant-tail" data-entity-uid="part3" data-qualified-name="AC" id="part3-tail"><text fill="#000000" font-family="sans-serif" font-size="14" lengthAdjust="spacing" textLength="114.0371" x="448.0654" y="841.8154">AdminController</text><ellipse cx="508.084" cy="861.1172" fill="#E2E2F0" rx="12" ry="12" style="stroke:#181818;stroke-width:0.5;"/><polygon fill="#181818" points="504.084,849.1172,510.084,844.1172,508.084,849.1172,510.084,854.1172,504.084,849.1172" style="stroke:#181818;stroke-width:1;"/></g><g class="participant participant-head" data-entity-uid="part4" data-qualified-name="SK" id="part4-head"><text fill="#000000" font-family="sans-serif" font-size="14" lengthAdjust="spacing" textLength="46.6826" x="651.958" y="77.9951">SKILLS</text><ellipse cx="678.2993" cy="49" fill="#E2E2F0" rx="12" ry="12" style="stroke:#181818;stroke-width:0.5;"/><line style="stroke:#181818;stroke-width:0.5;" x1="666.2993" x2="690.2993" y1="63" y2="63"/></g><g class="participant participant-tail" data-entity-uid="part4" data-qualified-name="SK" id="part4-tail"><text fill="#000000" font-family="sans-serif" font-size="14" lengthAdjust="spacing" textLength="46.6826" x="651.958" y="841.8154">SKILLS</text><ellipse cx="678.2993" cy="861.1172" fill="#E2E2F0" rx="12" ry="12" style="stroke:#181818;stroke-width:0.5;"/><line style="stroke:#181818;stroke-width:0.5;" x1="666.2993" x2="690.2993" y1="875.1172" y2="875.1172"/></g><g class="participant participant-head" data-entity-uid="part5" data-qualified-name="USK" id="part5-head"><text fill="#000000" font-family="sans-serif" font-size="14" lengthAdjust="spacing" textLength="91.3896" x="930.3086" y="77.9951">USER_SKILLS</text><ellipse cx="979.0034" cy="49" fill="#E2E2F0" rx="12" ry="12" style="stroke:#181818;stroke-width:0.5;"/><line style="stroke:#181818;stroke-width:0.5;" x1="967.0034" x2="991.0034" y1="63" y2="63"/></g><g class="participant participant-tail" data-entity-uid="part5" data-qualified-name="USK" id="part5-tail"><text fill="#000000" font-family="sans-serif" font-size="14" lengthAdjust="spacing" textLength="91.3896" x="930.3086" y="841.8154">USER_SKILLS</text><ellipse cx="979.0034" cy="861.1172" fill="#E2E2F0" rx="12" ry="12" style="stroke:#181818;stroke-width:0.5;"/><line style="stroke:#181818;stroke-width:0.5;" x1="967.0034" x2="991.0034" y1="875.1172" y2="875.1172"/></g><g><title>Admin</title><rect fill="#FFFFFF" height="131.5313" style="stroke:#181818;stroke-width:1;" width="10" x="25.4321" y="112.4297"/></g><g><title>SkillDirectoryView</title><rect fill="#FFFFFF" height="708.3906" style="stroke:#181818;stroke-width:1;" width="10" x="213.9517" y="112.4297"/></g><g><title>SkillDirectoryView</title><rect fill="#FFFFFF" height="28" style="stroke:#181818;stroke-width:1;" width="10" x="218.9517" y="179.8281"/></g><g><title>SkillDirectoryView</title><rect fill="#FFFFFF" height="28" style="stroke:#181818;stroke-width:1;" width="10" x="218.9517" y="624.2891"/></g><g><title>SkillDirectoryView</title><rect fill="#FFFFFF" height="28" style="stroke:#181818;stroke-width:1;" width="10" x="218.9517" y="776.8203"/></g><g><title>AdminController</title><rect fill="#FFFFFF" height="451.4609" style="stroke:#181818;stroke-width:1;" width="10" x="503.084" y="273.0938"/></g><g><title>SKILLS</title><rect fill="#FFFFFF" height="262.7969" style="stroke:#181818;stroke-width:1;" width="10" x="673.2993" y="432.625"/></g><g><title>SKILLS</title><rect fill="#FFFFFF" height="28" style="stroke:#181818;stroke-width:1;" width="10" x="678.2993" y="469.7578"/></g><g><title>USER_SKILLS</title><rect fill="#FFFFFF" height="101.2656" style="stroke:#181818;stroke-width:1;" width="10" x="974.0034" y="302.2266"/></g><g><title>USER_SKILLS</title><rect fill="#FFFFFF" height="28" style="stroke:#181818;stroke-width:1;" width="10" x="979.0034" y="339.3594"/></g><g class="message" data-entity-1="part1" data-entity-2="part2" id="msg1"><polygon fill="#181818" points="201.9517,108.4297,211.9517,112.4297,201.9517,116.4297,205.9517,112.4297" style="stroke:#181818;stroke-width:1;"/><line style="stroke:#181818;stroke-width:1;" x1="35.4321" x2="207.9517" y1="112.4297" y2="112.4297"/><text fill="#000000" font-family="sans-serif" font-size="13" font-weight="bold" lengthAdjust="spacing" textLength="9.0454" x="42.4321" y="107.3638">1</text><text fill="#000000" font-family="sans-serif" font-size="13" lengthAdjust="spacing" textLength="151.4741" x="55.4775" y="107.3638">Click "Delete" on a skill</text></g><g class="message" data-entity-1="part2" data-entity-2="part2" id="msg2"><line style="stroke:#181818;stroke-width:1;" x1="228.9517" x2="270.9517" y1="171.8281" y2="171.8281"/><line style="stroke:#181818;stroke-width:1;" x1="270.9517" x2="270.9517" y1="171.8281" y2="184.8281"/><line style="stroke:#181818;stroke-width:1;" x1="229.9517" x2="270.9517" y1="184.8281" y2="184.8281"/><polygon fill="#181818" points="239.9517,180.8281,229.9517,184.8281,239.9517,188.8281,235.9517,184.8281" style="stroke:#181818;stroke-width:1;"/><text fill="#000000" font-family="sans-serif" font-size="13" font-weight="bold" lengthAdjust="spacing" textLength="9.0454" x="235.9517" y="151.6294">2</text><text fill="#000000" font-family="sans-serif" font-size="13" lengthAdjust="spacing" textLength="178.2358" x="248.9971" y="136.4966">Display confirmation dialog</text><text fill="#000000" font-family="sans-serif" font-size="13" lengthAdjust="spacing" textLength="242.0869" x="248.9971" y="151.6294">"Delete this skill? Users with this skill</text><text fill="#000000" font-family="sans-serif" font-size="13" lengthAdjust="spacing" textLength="189.4648" x="248.9971" y="166.7622">will lose it from their profile."</text></g><g class="message" data-entity-1="part1" data-entity-2="part2" id="msg3"><polygon fill="#181818" points="201.9517,239.9609,211.9517,243.9609,201.9517,247.9609,205.9517,243.9609" style="stroke:#181818;stroke-width:1;"/><line style="stroke:#181818;stroke-width:1;" x1="30.4321" x2="207.9517" y1="243.9609" y2="243.9609"/><text fill="#000000" font-family="sans-serif" font-size="13" font-weight="bold" lengthAdjust="spacing" textLength="9.0454" x="37.4321" y="238.895">3</text><text fill="#000000" font-family="sans-serif" font-size="13" lengthAdjust="spacing" textLength="98.5347" x="50.4775" y="238.895">Click "Confirm"</text></g><g class="message" data-entity-1="part2" data-entity-2="part3" id="msg4"><polygon fill="#181818" points="491.084,269.0938,501.084,273.0938,491.084,277.0938,495.084,273.0938" style="stroke:#181818;stroke-width:1;"/><line style="stroke:#181818;stroke-width:1;" x1="223.9517" x2="497.084" y1="273.0938" y2="273.0938"/><text fill="#000000" font-family="sans-serif" font-size="13" font-weight="bold" lengthAdjust="spacing" textLength="9.0454" x="230.9517" y="268.0278">4</text><text fill="#000000" font-family="sans-serif" font-size="13" lengthAdjust="spacing" textLength="189.4395" x="243.9971" y="268.0278">Send delete request (skill_id)</text></g><g class="message" data-entity-1="part3" data-entity-2="part5" id="msg5"><polygon fill="#181818" points="962.0034,298.2266,972.0034,302.2266,962.0034,306.2266,966.0034,302.2266" style="stroke:#181818;stroke-width:1;"/><line style="stroke:#181818;stroke-width:1;" x1="513.084" x2="968.0034" y1="302.2266" y2="302.2266"/><text fill="#000000" font-family="sans-serif" font-size="13" font-weight="bold" lengthAdjust="spacing" textLength="9.0454" x="520.084" y="297.1606">5</text><text fill="#000000" font-family="sans-serif" font-size="13" lengthAdjust="spacing" textLength="185.9165" x="533.1294" y="297.1606">Check referenced user_skills</text></g><g class="message" data-entity-1="part5" data-entity-2="part5" id="msg6"><line style="stroke:#181818;stroke-width:1;" x1="989.0034" x2="1031.0034" y1="331.3594" y2="331.3594"/><line style="stroke:#181818;stroke-width:1;" x1="1031.0034" x2="1031.0034" y1="331.3594" y2="344.3594"/><line style="stroke:#181818;stroke-width:1;" x1="990.0034" x2="1031.0034" y1="344.3594" y2="344.3594"/><polygon fill="#181818" points="1000.0034,340.3594,990.0034,344.3594,1000.0034,348.3594,996.0034,344.3594" style="stroke:#181818;stroke-width:1;"/><text fill="#000000" font-family="sans-serif" font-size="13" font-weight="bold" lengthAdjust="spacing" textLength="9.0454" x="996.0034" y="326.2935">6</text><text fill="#000000" font-family="sans-serif" font-size="13" lengthAdjust="spacing" textLength="107.2183" x="1009.0488" y="326.2935">Query by skill_id</text></g><g class="message" data-entity-1="part5" data-entity-2="part3" id="msg7"><polygon fill="#181818" points="524.084,399.4922,514.084,403.4922,524.084,407.4922,520.084,403.4922" style="stroke:#181818;stroke-width:1;"/><line style="stroke:#181818;stroke-width:1;stroke-dasharray:2,2;" x1="518.084" x2="978.0034" y1="403.4922" y2="403.4922"/><text fill="#000000" font-family="sans-serif" font-size="13" font-weight="bold" lengthAdjust="spacing" textLength="9.0454" x="530.084" y="398.4263">7</text><text fill="#000000" font-family="sans-serif" font-size="13" lengthAdjust="spacing" textLength="107.1421" x="543.1294" y="398.4263">Reference count</text></g><g class="message" data-entity-1="part3" data-entity-2="part4" id="msg8"><polygon fill="#181818" points="661.2993,428.625,671.2993,432.625,661.2993,436.625,665.2993,432.625" style="stroke:#181818;stroke-width:1;"/><line style="stroke:#181818;stroke-width:1;" x1="513.084" x2="667.2993" y1="432.625" y2="432.625"/><text fill="#000000" font-family="sans-serif" font-size="13" font-weight="bold" lengthAdjust="spacing" textLength="9.0454" x="520.084" y="427.5591">8</text><text fill="#000000" font-family="sans-serif" font-size="13" lengthAdjust="spacing" textLength="71.9824" x="533.1294" y="427.5591">Delete skill</text></g><g class="message" data-entity-1="part4" data-entity-2="part4" id="msg9"><line style="stroke:#181818;stroke-width:1;" x1="688.2993" x2="730.2993" y1="461.7578" y2="461.7578"/><line style="stroke:#181818;stroke-width:1;" x1="730.2993" x2="730.2993" y1="461.7578" y2="474.7578"/><line style="stroke:#181818;stroke-width:1;" x1="689.2993" x2="730.2993" y1="474.7578" y2="474.7578"/><polygon fill="#181818" points="699.2993,470.7578,689.2993,474.7578,699.2993,478.7578,695.2993,474.7578" style="stroke:#181818;stroke-width:1;"/><text fill="#000000" font-family="sans-serif" font-size="13" font-weight="bold" lengthAdjust="spacing" textLength="9.0454" x="695.2993" y="456.6919">9</text><text fill="#000000" font-family="sans-serif" font-size="13" lengthAdjust="spacing" textLength="253.6587" x="708.3447" y="456.6919">Delete record (CASCADE to user_skills)</text></g><path d="M142.439,519.7578 L229.3906,519.7578 L229.3906,526.8906 L219.3906,536.8906 L142.439,536.8906 L142.439,519.7578" fill="#EEEEEE" style="stroke:#000000;stroke-width:1.5;"/><rect fill="none" height="147.5313" style="stroke:#000000;stroke-width:1.5;" width="572.2017" x="142.439" y="519.7578"/><text fill="#000000" font-family="sans-serif" font-size="13" font-weight="bold" lengthAdjust="spacing" textLength="41.9517" x="157.439" y="532.8247">break</text><text fill="#000000" font-family="sans-serif" font-size="11" font-weight="bold" lengthAdjust="spacing" textLength="89.5093" x="244.3906" y="531.9683">[Delete failed]</text><g class="message" data-entity-1="part4" data-entity-2="part3" id="msg10"><polygon fill="#181818" points="524.084,554.0234,514.084,558.0234,524.084,562.0234,520.084,558.0234" style="stroke:#181818;stroke-width:1;"/><line style="stroke:#181818;stroke-width:1;stroke-dasharray:2,2;" x1="518.084" x2="672.2993" y1="558.0234" y2="558.0234"/><text fill="#000000" font-family="sans-serif" font-size="13" font-weight="bold" lengthAdjust="spacing" textLength="18.0908" x="530.084" y="552.9575">10</text><text fill="#000000" font-family="sans-serif" font-size="13" lengthAdjust="spacing" textLength="32.2017" x="552.1748" y="552.9575">Error</text></g><g class="message" data-entity-1="part3" data-entity-2="part2" id="msg11"><polygon fill="#181818" points="234.9517,583.1563,224.9517,587.1563,234.9517,591.1563,230.9517,587.1563" style="stroke:#181818;stroke-width:1;"/><line style="stroke:#181818;stroke-width:1;stroke-dasharray:2,2;" x1="228.9517" x2="502.084" y1="587.1563" y2="587.1563"/><text fill="#000000" font-family="sans-serif" font-size="13" font-weight="bold" lengthAdjust="spacing" textLength="18.0908" x="240.9517" y="582.0903">11</text><text fill="#000000" font-family="sans-serif" font-size="13" lengthAdjust="spacing" textLength="109.4399" x="263.0425" y="582.0903">Error notification</text></g><g class="message" data-entity-1="part2" data-entity-2="part2" id="msg12"><line style="stroke:#181818;stroke-width:1;" x1="228.9517" x2="270.9517" y1="616.2891" y2="616.2891"/><line style="stroke:#181818;stroke-width:1;" x1="270.9517" x2="270.9517" y1="616.2891" y2="629.2891"/><line style="stroke:#181818;stroke-width:1;" x1="229.9517" x2="270.9517" y1="629.2891" y2="629.2891"/><polygon fill="#181818" points="239.9517,625.2891,229.9517,629.2891,239.9517,633.2891,235.9517,629.2891" style="stroke:#181818;stroke-width:1;"/><text fill="#000000" font-family="sans-serif" font-size="13" font-weight="bold" lengthAdjust="spacing" textLength="18.0908" x="235.9517" y="611.2231">12</text><text fill="#000000" font-family="sans-serif" font-size="13" lengthAdjust="spacing" textLength="146.5928" x="258.0425" y="611.2231">Display error message</text></g><g class="message" data-entity-1="part4" data-entity-2="part3" id="msg13"><polygon fill="#181818" points="524.084,691.4219,514.084,695.4219,524.084,699.4219,520.084,695.4219" style="stroke:#181818;stroke-width:1;"/><line style="stroke:#181818;stroke-width:1;stroke-dasharray:2,2;" x1="518.084" x2="677.2993" y1="695.4219" y2="695.4219"/><text fill="#000000" font-family="sans-serif" font-size="13" font-weight="bold" lengthAdjust="spacing" textLength="18.0908" x="530.084" y="690.356">13</text><text fill="#000000" font-family="sans-serif" font-size="13" lengthAdjust="spacing" textLength="114.1245" x="552.1748" y="690.356">Delete successful</text></g><g class="message" data-entity-1="part3" data-entity-2="part2" id="msg14"><polygon fill="#181818" points="234.9517,720.5547,224.9517,724.5547,234.9517,728.5547,230.9517,724.5547" style="stroke:#181818;stroke-width:1;"/><line style="stroke:#181818;stroke-width:1;stroke-dasharray:2,2;" x1="228.9517" x2="507.084" y1="724.5547" y2="724.5547"/><text fill="#000000" font-family="sans-serif" font-size="13" font-weight="bold" lengthAdjust="spacing" textLength="18.0908" x="240.9517" y="719.4888">14</text><text fill="#000000" font-family="sans-serif" font-size="13" lengthAdjust="spacing" textLength="129.5684" x="263.0425" y="719.4888">Success notification</text></g><g class="message" data-entity-1="part2" data-entity-2="part2" id="msg15"><line style="stroke:#181818;stroke-width:1;" x1="228.9517" x2="270.9517" y1="768.8203" y2="768.8203"/><line style="stroke:#181818;stroke-width:1;" x1="270.9517" x2="270.9517" y1="768.8203" y2="781.8203"/><line style="stroke:#181818;stroke-width:1;" x1="229.9517" x2="270.9517" y1="781.8203" y2="781.8203"/><polygon fill="#181818" points="239.9517,777.8203,229.9517,781.8203,239.9517,785.8203,235.9517,781.8203" style="stroke:#181818;stroke-width:1;"/><text fill="#000000" font-family="sans-serif" font-size="13" font-weight="bold" lengthAdjust="spacing" textLength="18.0908" x="235.9517" y="756.188">15</text><text fill="#000000" font-family="sans-serif" font-size="13" lengthAdjust="spacing" textLength="140.5054" x="258.0425" y="748.6216">Remove skill from list</text><text fill="#000000" font-family="sans-serif" font-size="13" lengthAdjust="spacing" textLength="192.2896" x="258.0425" y="763.7544">and display success message</text></g><?plantuml-src VP9DRkCm38NtEWMHLRj83r0KCp3aB8fsqnZfAa2WM7H3H9PQIMwGsm_bdrJs05quYAZto4yaLHUTxTeZUY5K7Ps7GhTaGGKenD5rLYj_XUfCnfJaCIckxuIN9AZATr4x6xqpWqiE1uE-zqk1Db9a-ylpwslLMrwcsAxQR0y_5pk-4GMi_wIiZo0DrMTObMWmuWeS0q5840cIlbL4nhlzJI3ytTmbXK-Zhi1m3VbMHU84cfHn7tix9eLueZ3a_0kxW3x0XU8f2-_jXN_1k8104HhlMhv5yl3fNKC67rPp18spu__FaGFFAbSMOa8lv2DKQ3Ne0T3ZLuSXmbrFSo1zdprUYa8c4_UDqv-GqtjiqAEjKKF7xpdqjl3ZIItcx-Pwwv17Uxp2b7ykpHZJaSizhTU3SpjLuWvtDYwb8rfIZhrUZ8ur0qScuTroNiETB2fPb1k8Bd_5_SoSDvhB7JsgyvIdKJmPBG16u5HYuxtp74gDJh7KwJu6raLggEutP1GibmXxOOiXg0zapMp608kXy_o4o4fF3UZgcZCqdLd2vqpLe9fJvRiYPsk-nTPzZyqTrjDGY7khqWwDz6FX6_zl2_iF?></g></svg>