<?plantuml 1.2026.1?><svg xmlns="http://www.w3.org/2000/svg" xmlns:xlink="http://www.w3.org/1999/xlink" contentStyleType="text/css" data-diagram-type="SEQUENCE" height="1128px" preserveAspectRatio="none" style="width:1110px;height:1128px;background:#FFFFFF;" version="1.1" viewBox="0 0 1110 1128" width="1110px" zoomAndPan="magnify"><defs/><g><g><title>Admin</title><rect fill="#FFFFFF" height="159.5313" style="stroke:#181818;stroke-width:1;" width="10" x="25.4321" y="112.4297"/></g><g><title>SkillDirectoryView</title><rect fill="#FFFFFF" height="29.1328" style="stroke:#181818;stroke-width:1;" width="10" x="165.6904" y="112.4297"/></g><g><title>AddSkillView</title><rect fill="#FFFFFF" height="887.6563" style="stroke:#181818;stroke-width:1;" width="10" x="380.2905" y="141.5625"/></g><g><title>AddSkillView</title><rect fill="#FFFFFF" height="28" style="stroke:#181818;stroke-width:1;" width="10" x="385.2905" y="178.6953"/></g><g><title>AddSkillView</title><rect fill="#FFFFFF" height="28" style="stroke:#181818;stroke-width:1;" width="10" x="385.2905" y="309.0938"/></g><g><title>AddSkillView</title><rect fill="#FFFFFF" height="28" style="stroke:#181818;stroke-width:1;" width="10" x="385.2905" y="405.3594"/></g><g><title>AddSkillView</title><rect fill="#FFFFFF" height="28" style="stroke:#181818;stroke-width:1;" width="10" x="385.2905" y="697.2891"/></g><g><title>AddSkillView</title><rect fill="#FFFFFF" height="28" style="stroke:#181818;stroke-width:1;" width="10" x="385.2905" y="965.0859"/></g><g><title>AdminController</title><rect fill="#FFFFFF" height="451.4609" style="stroke:#181818;stroke-width:1;" width="10" x="699.168" y="476.4922"/></g><g><title>SKILLS</title><rect fill="#FFFFFF" height="262.7969" style="stroke:#181818;stroke-width:1;" width="10" x="958.8364" y="505.625"/></g><g><title>SKILLS</title><rect fill="#FFFFFF" height="28" style="stroke:#181818;stroke-width:1;" width="10" x="963.8364" y="542.7578"/></g><g><title>SKILLS</title><rect fill="#FFFFFF" height="101.2656" style="stroke:#181818;stroke-width:1;" width="10" x="958.8364" y="797.5547"/></g><g><title>SKILLS</title><rect fill="#FFFFFF" height="28" style="stroke:#181818;stroke-width:1;" width="10" x="963.8364" y="834.6875"/></g><rect fill="none" height="89.2656" style="stroke:#000000;stroke-width:1.5;" width="271.0923" x="327.5186" y="359.0938"/><rect fill="none" height="147.5313" style="stroke:#000000;stroke-width:1.5;" width="672.6592" x="327.5186" y="592.7578"/><g class="participant-lifeline" data-entity-uid="part1" data-qualified-name="A" id="part1-lifeline"><g><title>Admin</title><rect fill="#000000" fill-opacity="0.00000" height="965.9219" width="8" x="26.4321" y="81.2969"/><line style="stroke:#181818;stroke-width:0.5;stroke-dasharray:5,5;" x1="30" x2="30" y1="81.2969" y2="1047.2188"/></g></g><g class="participant-lifeline" data-entity-uid="part2" data-qualified-name="SDV" id="part2-lifeline"><g><title>SkillDirectoryView</title><rect fill="#000000" fill-opacity="0.00000" height="965.9219" width="8" x="166.6904" y="81.2969"/><line style="stroke:#181818;stroke-width:0.5;stroke-dasharray:5,5;" x1="170.1777" x2="170.1777" y1="81.2969" y2="1047.2188"/></g></g><g class="participant-lifeline" data-entity-uid="part3" data-qualified-name="ASV" id="part3-lifeline"><g><title>AddSkillView</title><rect fill="#000000" fill-opacity="0.00000" height="965.9219" width="8" x="381.2905" y="81.2969"/><line style="stroke:#181818;stroke-width:0.5;stroke-dasharray:5,5;" x1="384.5186" x2="384.5186" y1="81.2969" y2="1047.2188"/></g></g><g class="participant-lifeline" data-entity-uid="part4" data-qualified-name="AC" id="part4-lifeline"><g><title>AdminController</title><rect fill="#000000" fill-opacity="0.00000" height="965.9219" width="8" x="700.168" y="81.2969"/><line style="stroke:#181818;stroke-width:0.5;stroke-dasharray:5,5;" x1="704.1494" x2="704.1494" y1="81.2969" y2="1047.2188"/></g></g><g class="participant-lifeline" data-entity-uid="part5" data-qualified-name="SK" id="part5-lifeline"><g><title>SKILLS</title><rect fill="#000000" fill-opacity="0.00000" height="965.9219" width="8" x="959.8364" y="81.2969"/><line style="stroke:#181818;stroke-width:0.5;stroke-dasharray:5,5;" x1="963.4951" x2="963.4951" y1="81.2969" y2="1047.2188"/></g></g><g class="participant participant-head" data-entity-uid="part1" data-qualified-name="A" id="part1-head"><text fill="#000000" font-family="sans-serif" font-size="14" lengthAdjust="spacing" textLength="44.8643" x="5" y="77.9951">Admin</text><ellipse cx="30.4321" cy="13.5" fill="#E2E2F0" rx="8" ry="8" style="stroke:#181818;stroke-width:0.5;"/><path d="M30.4321,21.5 L30.4321,48.5 M17.4321,29.5 L43.4321,29.5 M30.4321,48.5 L17.4321,63.5 M30.4321,48.5 L43.4321,63.5" fill="none" style="stroke:#181818;stroke-width:0.5;"/></g><g class="participant participant-tail" data-entity-uid="part1" data-qualified-name="A" id="part1-tail"><text fill="#000000" font-family="sans-serif" font-size="14" lengthAdjust="spacing" textLength="44.8643" x="5" y="1059.2139">Admin</text><ellipse cx="30.4321" cy="1071.0156" fill="#E2E2F0" rx="8" ry="8" style="stroke:#181818;stroke-width:0.5;"/><path d="M30.4321,1079.0156 L30.4321,1106.0156 M17.4321,1087.0156 L43.4321,1087.0156 M30.4321,1106.0156 L17.4321,1121.0156 M30.4321,1106.0156 L43.4321,1121.0156" fill="none" style="stroke:#181818;stroke-width:0.5;"/></g><g class="participant participant-head" data-entity-uid="part2" data-qualified-name="SDV" id="part2-head"><text fill="#000000" font-family="sans-serif" font-size="14" lengthAdjust="spacing" textLength="127.0254" x="104.1777" y="77.9951">SkillDirectoryView</text><path d="M150.1904,37 L150.1904,61 M150.1904,49 L167.1904,49" fill="none" style="stroke:#181818;stroke-width:0.5;"/><ellipse cx="179.1904" cy="49" fill="#E2E2F0" rx="12" ry="12" style="stroke:#181818;stroke-width:0.5;"/></g><g class="participant participant-tail" data-entity-uid="part2" data-qualified-name="SDV" id="part2-tail"><text fill="#000000" font-family="sans-serif" font-size="14" lengthAdjust="spacing" textLength="127.0254" x="104.1777" y="1059.2139">SkillDirectoryView</text><path d="M150.1904,1066.5156 L150.1904,1090.5156 M150.1904,1078.5156 L167.1904,1078.5156" fill="none" style="stroke:#181818;stroke-width:0.5;"/><ellipse cx="179.1904" cy="1078.5156" fill="#E2E2F0" rx="12" ry="12" style="stroke:#181818;stroke-width:0.5;"/></g><g class="participant participant-head" data-entity-uid="part3" data-qualified-name="ASV" id="part3-head"><text fill="#000000" font-family="sans-serif" font-size="14" lengthAdjust="spacing" textLength="89.5439" x="337.5186" y="77.9951">AddSkillView</text><path d="M364.7905,37 L364.7905,61 M364.7905,49 L381.7905,49" fill="none" style="stroke:#181818;stroke-width:0.5;"/><ellipse cx="393.7905" cy="49" fill="#E2E2F0" rx="12" ry="12" style="stroke:#181818;stroke-width:0.5;"/></g><g class="participant participant-tail" data-entity-uid="part3" data-qualified-name="ASV" id="part3-tail"><text fill="#000000" font-family="sans-serif" font-size="14" lengthAdjust="spacing" textLength="89.5439" x="337.5186" y="1059.2139">AddSkillView</text><path d="M364.7905,1066.5156 L364.7905,1090.5156 M364.7905,1078.5156 L381.7905,1078.5156" fill="none" style="stroke:#181818;stroke-width:0.5;"/><ellipse cx="393.7905" cy="1078.5156" fill="#E2E2F0" rx="12" ry="12" style="stroke:#181818;stroke-width:0.5;"/></g><g class="participant participant-head" data-entity-uid="part4" data-qualified-name="AC" id="part4-head"><text fill="#000000" font-family="sans-serif" font-size="14" lengthAdjust="spacing" textLength="114.0371" x="644.1494" y="77.9951">AdminController</text><ellipse cx="704.168" cy="49" fill="#E2E2F0" rx="12" ry="12" style="stroke:#181818;stroke-width:0.5;"/><polygon fill="#181818" points="700.168,37,706.168,32,704.168,37,706.168,42,700.168,37" style="stroke:#181818;stroke-width:1;"/></g><g class="participant participant-tail" data-entity-uid="part4" data-qualified-name="AC" id="part4-tail"><text fill="#000000" font-family="sans-serif" font-size="14" lengthAdjust="spacing" textLength="114.0371" x="644.1494" y="1059.2139">AdminController</text><ellipse cx="704.168" cy="1078.5156" fill="#E2E2F0" rx="12" ry="12" style="stroke:#181818;stroke-width:0.5;"/><polygon fill="#181818" points="700.168,1066.5156,706.168,1061.5156,704.168,1066.5156,706.168,1071.5156,700.168,1066.5156" style="stroke:#181818;stroke-width:1;"/></g><g class="participant participant-head" data-entity-uid="part5" data-qualified-name="SK" id="part5-head"><text fill="#000000" font-family="sans-serif" font-size="14" lengthAdjust="spacing" textLength="46.6826" x="937.4951" y="77.9951">SKILLS</text><ellipse cx="963.8364" cy="49" fill="#E2E2F0" rx="12" ry="12" style="stroke:#181818;stroke-width:0.5;"/><line style="stroke:#181818;stroke-width:0.5;" x1="951.8364" x2="975.8364" y1="63" y2="63"/></g><g class="participant participant-tail" data-entity-uid="part5" data-qualified-name="SK" id="part5-tail"><text fill="#000000" font-family="sans-serif" font-size="14" lengthAdjust="spacing" textLength="46.6826" x="937.4951" y="1059.2139">SKILLS</text><ellipse cx="963.8364" cy="1078.5156" fill="#E2E2F0" rx="12" ry="12" style="stroke:#181818;stroke-width:0.5;"/><line style="stroke:#181818;stroke-width:0.5;" x1="951.8364" x2="975.8364" y1="1092.5156" y2="1092.5156"/></g><g><title>Admin</title><rect fill="#FFFFFF" height="159.5313" style="stroke:#181818;stroke-width:1;" width="10" x="25.4321" y="112.4297"/></g><g><title>SkillDirectoryView</title><rect fill="#FFFFFF" height="29.1328" style="stroke:#181818;stroke-width:1;" width="10" x="165.6904" y="112.4297"/></g><g><title>AddSkillView</title><rect fill="#FFFFFF" height="887.6563" style="stroke:#181818;stroke-width:1;" width="10" x="380.2905" y="141.5625"/></g><g><title>AddSkillView</title><rect fill="#FFFFFF" height="28" style="stroke:#181818;stroke-width:1;" width="10" x="385.2905" y="178.6953"/></g><g><title>AddSkillView</title><rect fill="#FFFFFF" height="28" style="stroke:#181818;stroke-width:1;" width="10" x="385.2905" y="309.0938"/></g><g><title>AddSkillView</title><rect fill="#FFFFFF" height="28" style="stroke:#181818;stroke-width:1;" width="10" x="385.2905" y="405.3594"/></g><g><title>AddSkillView</title><rect fill="#FFFFFF" height="28" style="stroke:#181818;stroke-width:1;" width="10" x="385.2905" y="697.2891"/></g><g><title>AddSkillView</title><rect fill="#FFFFFF" height="28" style="stroke:#181818;stroke-width:1;" width="10" x="385.2905" y="965.0859"/></g><g><title>AdminController</title><rect fill="#FFFFFF" height="451.4609" style="stroke:#181818;stroke-width:1;" width="10" x="699.168" y="476.4922"/></g><g><title>SKILLS</title><rect fill="#FFFFFF" height="262.7969" style="stroke:#181818;stroke-width:1;" width="10" x="958.8364" y="505.625"/></g><g><title>SKILLS</title><rect fill="#FFFFFF" height="28" style="stroke:#181818;stroke-width:1;" width="10" x="963.8364" y="542.7578"/></g><g><title>SKILLS</title><rect fill="#FFFFFF" height="101.2656" style="stroke:#181818;stroke-width:1;" width="10" x="958.8364" y="797.5547"/></g><g><title>SKILLS</title><rect fill="#FFFFFF" height="28" style="stroke:#181818;stroke-width:1;" width="10" x="963.8364" y="834.6875"/></g><g class="message" data-entity-1="part1" data-entity-2="part2" id="msg1"><polygon fill="#181818" points="153.6904,108.4297,163.6904,112.4297,153.6904,116.4297,157.6904,112.4297" style="stroke:#181818;stroke-width:1;"/><line style="stroke:#181818;stroke-width:1;" x1="35.4321" x2="159.6904" y1="112.4297" y2="112.4297"/><text fill="#000000" font-family="sans-serif" font-size="13" font-weight="bold" lengthAdjust="spacing" textLength="9.0454" x="42.4321" y="107.3638">1</text><text fill="#000000" font-family="sans-serif" font-size="13" lengthAdjust="spacing" textLength="103.2129" x="55.4775" y="107.3638">Click "Add Skill"</text></g><g class="message" data-entity-1="part2" data-entity-2="part3" id="msg2"><polygon fill="#181818" points="368.2905,137.5625,378.2905,141.5625,368.2905,145.5625,372.2905,141.5625" style="stroke:#181818;stroke-width:1;"/><line style="stroke:#181818;stroke-width:1;" x1="170.6904" x2="374.2905" y1="141.5625" y2="141.5625"/><text fill="#000000" font-family="sans-serif" font-size="13" font-weight="bold" lengthAdjust="spacing" textLength="9.0454" x="177.6904" y="136.4966">2</text><text fill="#000000" font-family="sans-serif" font-size="13" lengthAdjust="spacing" textLength="168.0352" x="190.7358" y="136.4966">Navigate to add skill form</text></g><g class="message" data-entity-1="part3" data-entity-2="part3" id="msg3"><line style="stroke:#181818;stroke-width:1;" x1="395.2905" x2="437.2905" y1="170.6953" y2="170.6953"/><line style="stroke:#181818;stroke-width:1;" x1="437.2905" x2="437.2905" y1="170.6953" y2="183.6953"/><line style="stroke:#181818;stroke-width:1;" x1="396.2905" x2="437.2905" y1="183.6953" y2="183.6953"/><polygon fill="#181818" points="406.2905,179.6953,396.2905,183.6953,406.2905,187.6953,402.2905,183.6953" style="stroke:#181818;stroke-width:1;"/><text fill="#000000" font-family="sans-serif" font-size="13" font-weight="bold" lengthAdjust="spacing" textLength="9.0454" x="402.2905" y="165.6294">3</text><text fill="#000000" font-family="sans-serif" font-size="13" lengthAdjust="spacing" textLength="191.604" x="415.3359" y="165.6294">Display add skill form (name)</text></g><g class="message" data-entity-1="part1" data-entity-2="part3" id="msg4"><polygon fill="#181818" points="368.2905,238.8281,378.2905,242.8281,368.2905,246.8281,372.2905,242.8281" style="stroke:#181818;stroke-width:1;"/><line style="stroke:#181818;stroke-width:1;" x1="35.4321" x2="374.2905" y1="242.8281" y2="242.8281"/><text fill="#000000" font-family="sans-serif" font-size="13" font-weight="bold" lengthAdjust="spacing" textLength="9.0454" x="42.4321" y="237.7622">4</text><text fill="#000000" font-family="sans-serif" font-size="13" lengthAdjust="spacing" textLength="105.1616" x="55.4775" y="237.7622">Enter skill name</text></g><g class="message" data-entity-1="part1" data-entity-2="part3" id="msg5"><polygon fill="#181818" points="368.2905,267.9609,378.2905,271.9609,368.2905,275.9609,372.2905,271.9609" style="stroke:#181818;stroke-width:1;"/><line style="stroke:#181818;stroke-width:1;" x1="30.4321" x2="374.2905" y1="271.9609" y2="271.9609"/><text fill="#000000" font-family="sans-serif" font-size="13" font-weight="bold" lengthAdjust="spacing" textLength="9.0454" x="37.4321" y="266.895">5</text><text fill="#000000" font-family="sans-serif" font-size="13" lengthAdjust="spacing" textLength="78.9775" x="50.4775" y="266.895">Click "Save"</text></g><g class="message" data-entity-1="part3" data-entity-2="part3" id="msg6"><line style="stroke:#181818;stroke-width:1;" x1="395.2905" x2="437.2905" y1="301.0938" y2="301.0938"/><line style="stroke:#181818;stroke-width:1;" x1="437.2905" x2="437.2905" y1="301.0938" y2="314.0938"/><line style="stroke:#181818;stroke-width:1;" x1="396.2905" x2="437.2905" y1="314.0938" y2="314.0938"/><polygon fill="#181818" points="406.2905,310.0938,396.2905,314.0938,406.2905,318.0938,402.2905,314.0938" style="stroke:#181818;stroke-width:1;"/><text fill="#000000" font-family="sans-serif" font-size="13" font-weight="bold" lengthAdjust="spacing" textLength="9.0454" x="402.2905" y="296.0278">6</text><text fill="#000000" font-family="sans-serif" font-size="13" lengthAdjust="spacing" textLength="86.8105" x="415.3359" y="296.0278">Validate data</text></g><path d="M327.5186,359.0938 L414.4702,359.0938 L414.4702,366.2266 L404.4702,376.2266 L327.5186,376.2266 L327.5186,359.0938" fill="#EEEEEE" style="stroke:#000000;stroke-width:1.5;"/><rect fill="none" height="89.2656" style="stroke:#000000;stroke-width:1.5;" width="271.0923" x="327.5186" y="359.0938"/><text fill="#000000" font-family="sans-serif" font-size="13" font-weight="bold" lengthAdjust="spacing" textLength="41.9517" x="342.5186" y="372.1606">break</text><text fill="#000000" font-family="sans-serif" font-size="11" font-weight="bold" lengthAdjust="spacing" textLength="83.7944" x="429.4702" y="371.3042">[Invalid data]</text><g class="message" data-entity-1="part3" data-entity-2="part3" id="msg7"><line style="stroke:#181818;stroke-width:1;" x1="395.2905" x2="437.2905" y1="397.3594" y2="397.3594"/><line style="stroke:#181818;stroke-width:1;" x1="437.2905" x2="437.2905" y1="397.3594" y2="410.3594"/><line style="stroke:#181818;stroke-width:1;" x1="396.2905" x2="437.2905" y1="410.3594" y2="410.3594"/><polygon fill="#181818" points="406.2905,406.3594,396.2905,410.3594,406.2905,414.3594,402.2905,410.3594" style="stroke:#181818;stroke-width:1;"/><text fill="#000000" font-family="sans-serif" font-size="13" font-weight="bold" lengthAdjust="spacing" textLength="9.0454" x="402.2905" y="392.2935">7</text><text fill="#000000" font-family="sans-serif" font-size="13" lengthAdjust="spacing" textLength="161.2749" x="415.3359" y="392.2935">Display error notification</text></g><g class="message" data-entity-1="part3" data-entity-2="part4" id="msg8"><polygon fill="#181818" points="687.168,472.4922,697.168,476.4922,687.168,480.4922,691.168,476.4922" style="stroke:#181818;stroke-width:1;"/><line style="stroke:#181818;stroke-width:1;" x1="390.2905" x2="693.168" y1="476.4922" y2="476.4922"/><text fill="#000000" font-family="sans-serif" font-size="13" font-weight="bold" lengthAdjust="spacing" textLength="9.0454" x="397.2905" y="471.4263">8</text><text fill="#000000" font-family="sans-serif" font-size="13" lengthAdjust="spacing" textLength="144.4473" x="410.3359" y="471.4263">Send add skill request</text></g><g class="message" data-entity-1="part4" data-entity-2="part5" id="msg9"><polygon fill="#181818" points="946.8364,501.625,956.8364,505.625,946.8364,509.625,950.8364,505.625" style="stroke:#181818;stroke-width:1;"/><line style="stroke:#181818;stroke-width:1;" x1="709.168" x2="952.8364" y1="505.625" y2="505.625"/><text fill="#000000" font-family="sans-serif" font-size="13" font-weight="bold" lengthAdjust="spacing" textLength="9.0454" x="716.168" y="500.5591">9</text><text fill="#000000" font-family="sans-serif" font-size="13" lengthAdjust="spacing" textLength="217.623" x="729.2134" y="500.5591">Check if skill name already exists</text></g><g class="message" data-entity-1="part5" data-entity-2="part5" id="msg10"><line style="stroke:#181818;stroke-width:1;" x1="973.8364" x2="1015.8364" y1="534.7578" y2="534.7578"/><line style="stroke:#181818;stroke-width:1;" x1="1015.8364" x2="1015.8364" y1="534.7578" y2="547.7578"/><line style="stroke:#181818;stroke-width:1;" x1="974.8364" x2="1015.8364" y1="547.7578" y2="547.7578"/><polygon fill="#181818" points="984.8364,543.7578,974.8364,547.7578,984.8364,551.7578,980.8364,547.7578" style="stroke:#181818;stroke-width:1;"/><text fill="#000000" font-family="sans-serif" font-size="13" font-weight="bold" lengthAdjust="spacing" textLength="18.0908" x="980.8364" y="529.6919">10</text><text fill="#000000" font-family="sans-serif" font-size="13" lengthAdjust="spacing" textLength="100.585" x="1002.9272" y="529.6919">Query by name</text></g><path d="M327.5186,592.7578 L414.4702,592.7578 L414.4702,599.8906 L404.4702,609.8906 L327.5186,609.8906 L327.5186,592.7578" fill="#EEEEEE" style="stroke:#000000;stroke-width:1.5;"/><rect fill="none" height="147.5313" style="stroke:#000000;stroke-width:1.5;" width="672.6592" x="327.5186" y="592.7578"/><text fill="#000000" font-family="sans-serif" font-size="13" font-weight="bold" lengthAdjust="spacing" textLength="41.9517" x="342.5186" y="605.8247">break</text><text fill="#000000" font-family="sans-serif" font-size="11" font-weight="bold" lengthAdjust="spacing" textLength="115.1187" x="429.4702" y="604.9683">[Skill name exists]</text><g class="message" data-entity-1="part5" data-entity-2="part4" id="msg11"><polygon fill="#181818" points="720.168,627.0234,710.168,631.0234,720.168,635.0234,716.168,631.0234" style="stroke:#181818;stroke-width:1;"/><line style="stroke:#181818;stroke-width:1;stroke-dasharray:2,2;" x1="714.168" x2="957.8364" y1="631.0234" y2="631.0234"/><text fill="#000000" font-family="sans-serif" font-size="13" font-weight="bold" lengthAdjust="spacing" textLength="18.0908" x="726.168" y="625.9575">11</text><text fill="#000000" font-family="sans-serif" font-size="13" lengthAdjust="spacing" textLength="61.9341" x="748.2588" y="625.9575">Duplicate</text></g><g class="message" data-entity-1="part4" data-entity-2="part3" id="msg12"><polygon fill="#181818" points="401.2905,656.1563,391.2905,660.1563,401.2905,664.1563,397.2905,660.1563" style="stroke:#181818;stroke-width:1;"/><line style="stroke:#181818;stroke-width:1;stroke-dasharray:2,2;" x1="395.2905" x2="698.168" y1="660.1563" y2="660.1563"/><text fill="#000000" font-family="sans-serif" font-size="13" font-weight="bold" lengthAdjust="spacing" textLength="18.0908" x="407.2905" y="655.0903">12</text><text fill="#000000" font-family="sans-serif" font-size="13" lengthAdjust="spacing" textLength="109.4399" x="429.3813" y="655.0903">Error notification</text></g><g class="message" data-entity-1="part3" data-entity-2="part3" id="msg13"><line style="stroke:#181818;stroke-width:1;" x1="395.2905" x2="437.2905" y1="689.2891" y2="689.2891"/><line style="stroke:#181818;stroke-width:1;" x1="437.2905" x2="437.2905" y1="689.2891" y2="702.2891"/><line style="stroke:#181818;stroke-width:1;" x1="396.2905" x2="437.2905" y1="702.2891" y2="702.2891"/><polygon fill="#181818" points="406.2905,698.2891,396.2905,702.2891,406.2905,706.2891,402.2905,702.2891" style="stroke:#181818;stroke-width:1;"/><text fill="#000000" font-family="sans-serif" font-size="13" font-weight="bold" lengthAdjust="spacing" textLength="18.0908" x="402.2905" y="684.2231">13</text><text fill="#000000" font-family="sans-serif" font-size="13" lengthAdjust="spacing" textLength="262.7866" x="424.3813" y="684.2231">Display "Skill name already exists" error</text></g><g class="message" data-entity-1="part5" data-entity-2="part4" id="msg14"><polygon fill="#181818" points="720.168,764.4219,710.168,768.4219,720.168,772.4219,716.168,768.4219" style="stroke:#181818;stroke-width:1;"/><line style="stroke:#181818;stroke-width:1;stroke-dasharray:2,2;" x1="714.168" x2="962.8364" y1="768.4219" y2="768.4219"/><text fill="#000000" font-family="sans-serif" font-size="13" font-weight="bold" lengthAdjust="spacing" textLength="18.0908" x="726.168" y="763.356">14</text><text fill="#000000" font-family="sans-serif" font-size="13" lengthAdjust="spacing" textLength="64.854" x="748.2588" y="763.356">Not exists</text></g><g class="message" data-entity-1="part4" data-entity-2="part5" id="msg15"><polygon fill="#181818" points="946.8364,793.5547,956.8364,797.5547,946.8364,801.5547,950.8364,797.5547" style="stroke:#181818;stroke-width:1;"/><line style="stroke:#181818;stroke-width:1;" x1="709.168" x2="952.8364" y1="797.5547" y2="797.5547"/><text fill="#000000" font-family="sans-serif" font-size="13" font-weight="bold" lengthAdjust="spacing" textLength="18.0908" x="716.168" y="792.4888">15</text><text fill="#000000" font-family="sans-serif" font-size="13" lengthAdjust="spacing" textLength="97.5571" x="738.2588" y="792.4888">Insert new skill</text></g><g class="message" data-entity-1="part5" data-entity-2="part5" id="msg16"><line style="stroke:#181818;stroke-width:1;" x1="973.8364" x2="1015.8364" y1="826.6875" y2="826.6875"/><line style="stroke:#181818;stroke-width:1;" x1="1015.8364" x2="1015.8364" y1="826.6875" y2="839.6875"/><line style="stroke:#181818;stroke-width:1;" x1="974.8364" x2="1015.8364" y1="839.6875" y2="839.6875"/><polygon fill="#181818" points="984.8364,835.6875,974.8364,839.6875,984.8364,843.6875,980.8364,839.6875" style="stroke:#181818;stroke-width:1;"/><text fill="#000000" font-family="sans-serif" font-size="13" font-weight="bold" lengthAdjust="spacing" textLength="18.0908" x="980.8364" y="821.6216">16</text><text fill="#000000" font-family="sans-serif" font-size="13" lengthAdjust="spacing" textLength="83.459" x="1002.9272" y="821.6216">Insert record</text></g><g class="message" data-entity-1="part5" data-entity-2="part4" id="msg17"><polygon fill="#181818" points="720.168,894.8203,710.168,898.8203,720.168,902.8203,716.168,898.8203" style="stroke:#181818;stroke-width:1;"/><line style="stroke:#181818;stroke-width:1;stroke-dasharray:2,2;" x1="714.168" x2="962.8364" y1="898.8203" y2="898.8203"/><text fill="#000000" font-family="sans-serif" font-size="13" font-weight="bold" lengthAdjust="spacing" textLength="18.0908" x="726.168" y="893.7544">17</text><text fill="#000000" font-family="sans-serif" font-size="13" lengthAdjust="spacing" textLength="52.3301" x="748.2588" y="893.7544">Success</text></g><g class="message" data-entity-1="part4" data-entity-2="part3" id="msg18"><polygon fill="#181818" points="401.2905,923.9531,391.2905,927.9531,401.2905,931.9531,397.2905,927.9531" style="stroke:#181818;stroke-width:1;"/><line style="stroke:#181818;stroke-width:1;stroke-dasharray:2,2;" x1="395.2905" x2="703.168" y1="927.9531" y2="927.9531"/><text fill="#000000" font-family="sans-serif" font-size="13" font-weight="bold" lengthAdjust="spacing" textLength="18.0908" x="407.2905" y="922.8872">18</text><text fill="#000000" font-family="sans-serif" font-size="13" lengthAdjust="spacing" textLength="129.5684" x="429.3813" y="922.8872">Success notification</text></g><g class="message" data-entity-1="part3" data-entity-2="part3" id="msg19"><line style="stroke:#181818;stroke-width:1;" x1="395.2905" x2="437.2905" y1="957.0859" y2="957.0859"/><line style="stroke:#181818;stroke-width:1;" x1="437.2905" x2="437.2905" y1="957.0859" y2="970.0859"/><line style="stroke:#181818;stroke-width:1;" x1="396.2905" x2="437.2905" y1="970.0859" y2="970.0859"/><polygon fill="#181818" points="406.2905,966.0859,396.2905,970.0859,406.2905,974.0859,402.2905,970.0859" style="stroke:#181818;stroke-width:1;"/><text fill="#000000" font-family="sans-serif" font-size="13" font-weight="bold" lengthAdjust="spacing" textLength="18.0908" x="402.2905" y="952.02">19</text><text fill="#000000" font-family="sans-serif" font-size="13" lengthAdjust="spacing" textLength="165.458" x="424.3813" y="952.02">Display success message</text></g><g class="message" data-entity-1="part3" data-entity-2="part2" id="msg20"><polygon fill="#181818" points="181.6904,1025.2188,171.6904,1029.2188,181.6904,1033.2188,177.6904,1029.2188" style="stroke:#181818;stroke-width:1;"/><line style="stroke:#181818;stroke-width:1;" x1="175.6904" x2="384.2905" y1="1029.2188" y2="1029.2188"/><text fill="#000000" font-family="sans-serif" font-size="13" font-weight="bold" lengthAdjust="spacing" textLength="18.0908" x="187.6904" y="1024.1528">20</text><text fill="#000000" font-family="sans-serif" font-size="13" lengthAdjust="spacing" textLength="163.5093" x="209.7813" y="1024.1528">Redirect to skill directory</text></g><?plantuml-src ZLH1RiCW4BppYfLFxI4VYAfAbjD3vAXIYvGxCPiM1KCBE6r-tyNOCKxJg1UKmCxipC1QTC6QhjsXOqmqmJeePQiC20ybszdEIE5Em0zAwvLo62jEMuLViO2ljbD9AMLVDHwMVCiQQuApEb5MwOz6rnzN34rGWRZhzMR3UxwQiH8MZv5u2PLMpG4AuatjYwXF7KL0KdR-6JKmMYACMYxXMHpLMpm95WHXVSJ2thgMIPp19ZgIocWvSwoK_z3YT867EoDQl9_ZCiv4SoPvCe6i9dW4PaU3DIwEMCmOvZAsGYiPzsaHjzlk78e3hCqnGb8zm3LBw1pTiR51xLKZWhA62cTS01VaQEIagre2fuqi6eUV7VgGwQkelEhliIQlxqXUrJvB0eGckPB4V2iVV7QPDUFr27pfa9xLxfJ2osloUwn7xtoY7sWfW0eU5ekURTLzw6WOXrpYVZJpT2sFQy4L_2_zHGhrdpbEafvj6ALUE9hIMnkFBe2XcUhp-oEheOpcqpfv8wkiE--Q1ltlrbasGyaydTnKTNri_81hQH5lUFFb3lX-ubzHzf-OEBhfjSZnatC9-m40?></g></svg>