<?plantuml 1.2026.1?><svg xmlns="http://www.w3.org/2000/svg" xmlns:xlink="http://www.w3.org/1999/xlink" contentStyleType="text/css" data-diagram-type="SEQUENCE" height="749px" preserveAspectRatio="none" style="width:798px;height:749px;background:#FFFFFF;" version="1.1" viewBox="0 0 798 749" width="798px" zoomAndPan="magnify"><defs/><g><g><title>User</title><rect fill="#FFFFFF" height="531.7266" style="stroke:#181818;stroke-width:1;" width="10" x="18.9551" y="112.4297"/></g><g><title>NotificationView</title><rect fill="#FFFFFF" height="531.7266" style="stroke:#181818;stroke-width:1;" width="10" x="196.6392" y="112.4297"/></g><g><title>NotificationView</title><rect fill="#FFFFFF" height="28" style="stroke:#181818;stroke-width:1;" width="10" x="201.6392" y="362.3594"/></g><g><title>NotificationView</title><rect fill="#FFFFFF" height="28" style="stroke:#181818;stroke-width:1;" width="10" x="201.6392" y="616.1563"/></g><g><title>NotificationController</title><rect fill="#FFFFFF" height="422.3281" style="stroke:#181818;stroke-width:1;" width="10" x="468.4888" y="141.5625"/></g><g><title>NOTIFICATIONS</title><rect fill="#FFFFFF" height="101.2656" style="stroke:#181818;stroke-width:1;" width="10" x="663.354" y="170.6953"/></g><g><title>NOTIFICATIONS</title><rect fill="#FFFFFF" height="28" style="stroke:#181818;stroke-width:1;" width="10" x="668.354" y="207.8281"/></g><g><title>NOTIFICATIONS</title><rect fill="#FFFFFF" height="101.2656" style="stroke:#181818;stroke-width:1;" width="10" x="663.354" y="433.4922"/></g><g><title>NOTIFICATIONS</title><rect fill="#FFFFFF" height="28" style="stroke:#181818;stroke-width:1;" width="10" x="668.354" y="470.625"/></g><rect fill="none" height="118.3984" style="stroke:#000000;stroke-width:1.5;" width="429.5303" x="131.7095" y="286.9609"/><g class="participant-lifeline" data-entity-uid="part1" data-qualified-name="U" id="part1-lifeline"><g><title>User</title><rect fill="#000000" fill-opacity="0.00000" height="587.8594" width="8" x="19.9551" y="81.2969"/><line style="stroke:#181818;stroke-width:0.5;stroke-dasharray:5,5;" x1="23" x2="23" y1="81.2969" y2="669.1563"/></g></g><g class="participant-lifeline" data-entity-uid="part2" data-qualified-name="NV" id="part2-lifeline"><g><title>NotificationView</title><rect fill="#000000" fill-opacity="0.00000" height="587.8594" width="8" x="197.6392" y="81.2969"/><line style="stroke:#181818;stroke-width:0.5;stroke-dasharray:5,5;" x1="200.7095" x2="200.7095" y1="81.2969" y2="669.1563"/></g></g><g class="participant-lifeline" data-entity-uid="part3" data-qualified-name="NC" id="part3-lifeline"><g><title>NotificationController</title><rect fill="#000000" fill-opacity="0.00000" height="587.8594" width="8" x="469.4888" y="81.2969"/><line style="stroke:#181818;stroke-width:0.5;stroke-dasharray:5,5;" x1="472.7378" x2="472.7378" y1="81.2969" y2="669.1563"/></g></g><g class="participant-lifeline" data-entity-uid="part4" data-qualified-name="N" id="part4-lifeline"><g><title>NOTIFICATIONS</title><rect fill="#000000" fill-opacity="0.00000" height="587.8594" width="8" x="664.354" y="81.2969"/><line style="stroke:#181818;stroke-width:0.5;stroke-dasharray:5,5;" x1="667.9707" x2="667.9707" y1="81.2969" y2="669.1563"/></g></g><g class="participant participant-head" data-entity-uid="part1" data-qualified-name="U" id="part1-head"><text fill="#000000" font-family="sans-serif" font-size="14" lengthAdjust="spacing" textLength="31.9102" x="5" y="77.9951">User</text><ellipse cx="23.9551" cy="13.5" fill="#E2E2F0" rx="8" ry="8" style="stroke:#181818;stroke-width:0.5;"/><path d="M23.9551,21.5 L23.9551,48.5 M10.9551,29.5 L36.9551,29.5 M23.9551,48.5 L10.9551,63.5 M23.9551,48.5 L36.9551,63.5" fill="none" style="stroke:#181818;stroke-width:0.5;"/></g><g class="participant participant-tail" data-entity-uid="part1" data-qualified-name="U" id="part1-tail"><text fill="#000000" font-family="sans-serif" font-size="14" lengthAdjust="spacing" textLength="31.9102" x="5" y="681.1514">User</text><ellipse cx="23.9551" cy="692.9531" fill="#E2E2F0" rx="8" ry="8" style="stroke:#181818;stroke-width:0.5;"/><path d="M23.9551,700.9531 L23.9551,727.9531 M10.9551,708.9531 L36.9551,708.9531 M23.9551,727.9531 L10.9551,742.9531 M23.9551,727.9531 L36.9551,742.9531" fill="none" style="stroke:#181818;stroke-width:0.5;"/></g><g class="participant participant-head" data-entity-uid="part2" data-qualified-name="NV" id="part2-head"><text fill="#000000" font-family="sans-serif" font-size="14" lengthAdjust="spacing" textLength="113.8594" x="141.7095" y="77.9951">NotificationView</text><path d="M181.1392,37 L181.1392,61 M181.1392,49 L198.1392,49" fill="none" style="stroke:#181818;stroke-width:0.5;"/><ellipse cx="210.1392" cy="49" fill="#E2E2F0" rx="12" ry="12" style="stroke:#181818;stroke-width:0.5;"/></g><g class="participant participant-tail" data-entity-uid="part2" data-qualified-name="NV" id="part2-tail"><text fill="#000000" font-family="sans-serif" font-size="14" lengthAdjust="spacing" textLength="113.8594" x="141.7095" y="681.1514">NotificationView</text><path d="M181.1392,688.4531 L181.1392,712.4531 M181.1392,700.4531 L198.1392,700.4531" fill="none" style="stroke:#181818;stroke-width:0.5;"/><ellipse cx="210.1392" cy="700.4531" fill="#E2E2F0" rx="12" ry="12" style="stroke:#181818;stroke-width:0.5;"/></g><g class="participant participant-head" data-entity-uid="part3" data-qualified-name="NC" id="part3-head"><text fill="#000000" font-family="sans-serif" font-size="14" lengthAdjust="spacing" textLength="149.502" x="395.7378" y="77.9951">NotificationController</text><ellipse cx="473.4888" cy="49" fill="#E2E2F0" rx="12" ry="12" style="stroke:#181818;stroke-width:0.5;"/><polygon fill="#181818" points="469.4888,37,475.4888,32,473.4888,37,475.4888,42,469.4888,37" style="stroke:#181818;stroke-width:1;"/></g><g class="participant participant-tail" data-entity-uid="part3" data-qualified-name="NC" id="part3-tail"><text fill="#000000" font-family="sans-serif" font-size="14" lengthAdjust="spacing" textLength="149.502" x="395.7378" y="681.1514">NotificationController</text><ellipse cx="473.4888" cy="700.4531" fill="#E2E2F0" rx="12" ry="12" style="stroke:#181818;stroke-width:0.5;"/><polygon fill="#181818" points="469.4888,688.4531,475.4888,683.4531,473.4888,688.4531,475.4888,693.4531,469.4888,688.4531" style="stroke:#181818;stroke-width:1;"/></g><g class="participant participant-head" data-entity-uid="part4" data-qualified-name="N" id="part4-head"><text fill="#000000" font-family="sans-serif" font-size="14" lengthAdjust="spacing" textLength="108.7666" x="610.9707" y="77.9951">NOTIFICATIONS</text><ellipse cx="668.354" cy="49" fill="#E2E2F0" rx="12" ry="12" style="stroke:#181818;stroke-width:0.5;"/><line style="stroke:#181818;stroke-width:0.5;" x1="656.354" x2="680.354" y1="63" y2="63"/></g><g class="participant participant-tail" data-entity-uid="part4" data-qualified-name="N" id="part4-tail"><text fill="#000000" font-family="sans-serif" font-size="14" lengthAdjust="spacing" textLength="108.7666" x="610.9707" y="681.1514">NOTIFICATIONS</text><ellipse cx="668.354" cy="700.4531" fill="#E2E2F0" rx="12" ry="12" style="stroke:#181818;stroke-width:0.5;"/><line style="stroke:#181818;stroke-width:0.5;" x1="656.354" x2="680.354" y1="714.4531" y2="714.4531"/></g><g><title>User</title><rect fill="#FFFFFF" height="531.7266" style="stroke:#181818;stroke-width:1;" width="10" x="18.9551" y="112.4297"/></g><g><title>NotificationView</title><rect fill="#FFFFFF" height="531.7266" style="stroke:#181818;stroke-width:1;" width="10" x="196.6392" y="112.4297"/></g><g><title>NotificationView</title><rect fill="#FFFFFF" height="28" style="stroke:#181818;stroke-width:1;" width="10" x="201.6392" y="362.3594"/></g><g><title>NotificationView</title><rect fill="#FFFFFF" height="28" style="stroke:#181818;stroke-width:1;" width="10" x="201.6392" y="616.1563"/></g><g><title>NotificationController</title><rect fill="#FFFFFF" height="422.3281" style="stroke:#181818;stroke-width:1;" width="10" x="468.4888" y="141.5625"/></g><g><title>NOTIFICATIONS</title><rect fill="#FFFFFF" height="101.2656" style="stroke:#181818;stroke-width:1;" width="10" x="663.354" y="170.6953"/></g><g><title>NOTIFICATIONS</title><rect fill="#FFFFFF" height="28" style="stroke:#181818;stroke-width:1;" width="10" x="668.354" y="207.8281"/></g><g><title>NOTIFICATIONS</title><rect fill="#FFFFFF" height="101.2656" style="stroke:#181818;stroke-width:1;" width="10" x="663.354" y="433.4922"/></g><g><title>NOTIFICATIONS</title><rect fill="#FFFFFF" height="28" style="stroke:#181818;stroke-width:1;" width="10" x="668.354" y="470.625"/></g><g class="message" data-entity-1="part1" data-entity-2="part2" id="msg1"><polygon fill="#181818" points="184.6392,108.4297,194.6392,112.4297,184.6392,116.4297,188.6392,112.4297" style="stroke:#181818;stroke-width:1;"/><line style="stroke:#181818;stroke-width:1;" x1="28.9551" x2="190.6392" y1="112.4297" y2="112.4297"/><text fill="#000000" font-family="sans-serif" font-size="13" font-weight="bold" lengthAdjust="spacing" textLength="9.0454" x="35.9551" y="107.3638">1</text><text fill="#000000" font-family="sans-serif" font-size="13" lengthAdjust="spacing" textLength="140.6387" x="49.0005" y="107.3638">Click on a notification</text></g><g class="message" data-entity-1="part2" data-entity-2="part3" id="msg2"><polygon fill="#181818" points="456.4888,137.5625,466.4888,141.5625,456.4888,145.5625,460.4888,141.5625" style="stroke:#181818;stroke-width:1;"/><line style="stroke:#181818;stroke-width:1;" x1="206.6392" x2="462.4888" y1="141.5625" y2="141.5625"/><text fill="#000000" font-family="sans-serif" font-size="13" font-weight="bold" lengthAdjust="spacing" textLength="9.0454" x="213.6392" y="136.4966">2</text><text fill="#000000" font-family="sans-serif" font-size="13" lengthAdjust="spacing" textLength="229.8042" x="226.6846" y="136.4966">Send mark-as-read (notification_id)</text></g><g class="message" data-entity-1="part3" data-entity-2="part4" id="msg3"><polygon fill="#181818" points="651.354,166.6953,661.354,170.6953,651.354,174.6953,655.354,170.6953" style="stroke:#181818;stroke-width:1;"/><line style="stroke:#181818;stroke-width:1;" x1="478.4888" x2="657.354" y1="170.6953" y2="170.6953"/><text fill="#000000" font-family="sans-serif" font-size="13" font-weight="bold" lengthAdjust="spacing" textLength="9.0454" x="485.4888" y="165.6294">3</text><text fill="#000000" font-family="sans-serif" font-size="13" lengthAdjust="spacing" textLength="152.8198" x="498.5342" y="165.6294">Query notification by id</text></g><g class="message" data-entity-1="part4" data-entity-2="part4" id="msg4"><line style="stroke:#181818;stroke-width:1;" x1="678.354" x2="720.354" y1="199.8281" y2="199.8281"/><line style="stroke:#181818;stroke-width:1;" x1="720.354" x2="720.354" y1="199.8281" y2="212.8281"/><line style="stroke:#181818;stroke-width:1;" x1="679.354" x2="720.354" y1="212.8281" y2="212.8281"/><polygon fill="#181818" points="689.354,208.8281,679.354,212.8281,689.354,216.8281,685.354,212.8281" style="stroke:#181818;stroke-width:1;"/><text fill="#000000" font-family="sans-serif" font-size="13" font-weight="bold" lengthAdjust="spacing" textLength="9.0454" x="685.354" y="194.7622">4</text><text fill="#000000" font-family="sans-serif" font-size="13" lengthAdjust="spacing" textLength="85.6807" x="698.3994" y="194.7622">Query record</text></g><g class="message" data-entity-1="part4" data-entity-2="part3" id="msg5"><polygon fill="#181818" points="489.4888,267.9609,479.4888,271.9609,489.4888,275.9609,485.4888,271.9609" style="stroke:#181818;stroke-width:1;"/><line style="stroke:#181818;stroke-width:1;stroke-dasharray:2,2;" x1="483.4888" x2="667.354" y1="271.9609" y2="271.9609"/><text fill="#000000" font-family="sans-serif" font-size="13" font-weight="bold" lengthAdjust="spacing" textLength="9.0454" x="495.4888" y="266.895">5</text><text fill="#000000" font-family="sans-serif" font-size="13" lengthAdjust="spacing" textLength="108.0054" x="508.5342" y="266.895">Notification data</text></g><path d="M131.7095,286.9609 L218.6611,286.9609 L218.6611,294.0938 L208.6611,304.0938 L131.7095,304.0938 L131.7095,286.9609" fill="#EEEEEE" style="stroke:#000000;stroke-width:1.5;"/><rect fill="none" height="118.3984" style="stroke:#000000;stroke-width:1.5;" width="429.5303" x="131.7095" y="286.9609"/><text fill="#000000" font-family="sans-serif" font-size="13" font-weight="bold" lengthAdjust="spacing" textLength="41.9517" x="146.7095" y="300.0278">break</text><text fill="#000000" font-family="sans-serif" font-size="11" font-weight="bold" lengthAdjust="spacing" textLength="201.9209" x="233.6611" y="299.1714">[Notification not owned by user]</text><g class="message" data-entity-1="part3" data-entity-2="part2" id="msg6"><polygon fill="#181818" points="217.6392,321.2266,207.6392,325.2266,217.6392,329.2266,213.6392,325.2266" style="stroke:#181818;stroke-width:1;"/><line style="stroke:#181818;stroke-width:1;stroke-dasharray:2,2;" x1="211.6392" x2="467.4888" y1="325.2266" y2="325.2266"/><text fill="#000000" font-family="sans-serif" font-size="13" font-weight="bold" lengthAdjust="spacing" textLength="9.0454" x="223.6392" y="320.1606">6</text><text fill="#000000" font-family="sans-serif" font-size="13" lengthAdjust="spacing" textLength="94.3262" x="236.6846" y="320.1606">403 Forbidden</text></g><g class="message" data-entity-1="part2" data-entity-2="part2" id="msg7"><line style="stroke:#181818;stroke-width:1;" x1="211.6392" x2="253.6392" y1="354.3594" y2="354.3594"/><line style="stroke:#181818;stroke-width:1;" x1="253.6392" x2="253.6392" y1="354.3594" y2="367.3594"/><line style="stroke:#181818;stroke-width:1;" x1="212.6392" x2="253.6392" y1="367.3594" y2="367.3594"/><polygon fill="#181818" points="222.6392,363.3594,212.6392,367.3594,222.6392,371.3594,218.6392,367.3594" style="stroke:#181818;stroke-width:1;"/><text fill="#000000" font-family="sans-serif" font-size="13" font-weight="bold" lengthAdjust="spacing" textLength="9.0454" x="218.6392" y="349.2935">7</text><text fill="#000000" font-family="sans-serif" font-size="13" lengthAdjust="spacing" textLength="144.3394" x="231.6846" y="349.2935">Display access denied</text></g><g class="message" data-entity-1="part3" data-entity-2="part4" id="msg8"><polygon fill="#181818" points="651.354,429.4922,661.354,433.4922,651.354,437.4922,655.354,433.4922" style="stroke:#181818;stroke-width:1;"/><line style="stroke:#181818;stroke-width:1;" x1="478.4888" x2="657.354" y1="433.4922" y2="433.4922"/><text fill="#000000" font-family="sans-serif" font-size="13" font-weight="bold" lengthAdjust="spacing" textLength="9.0454" x="485.4888" y="428.4263">8</text><text fill="#000000" font-family="sans-serif" font-size="13" lengthAdjust="spacing" textLength="143.4951" x="498.5342" y="428.4263">Update is_read = true</text></g><g class="message" data-entity-1="part4" data-entity-2="part4" id="msg9"><line style="stroke:#181818;stroke-width:1;" x1="678.354" x2="720.354" y1="462.625" y2="462.625"/><line style="stroke:#181818;stroke-width:1;" x1="720.354" x2="720.354" y1="462.625" y2="475.625"/><line style="stroke:#181818;stroke-width:1;" x1="679.354" x2="720.354" y1="475.625" y2="475.625"/><polygon fill="#181818" points="689.354,471.625,679.354,475.625,689.354,479.625,685.354,475.625" style="stroke:#181818;stroke-width:1;"/><text fill="#000000" font-family="sans-serif" font-size="13" font-weight="bold" lengthAdjust="spacing" textLength="9.0454" x="685.354" y="457.5591">9</text><text fill="#000000" font-family="sans-serif" font-size="13" lengthAdjust="spacing" textLength="93.2534" x="698.3994" y="457.5591">Update record</text></g><g class="message" data-entity-1="part4" data-entity-2="part3" id="msg10"><polygon fill="#181818" points="489.4888,530.7578,479.4888,534.7578,489.4888,538.7578,485.4888,534.7578" style="stroke:#181818;stroke-width:1;"/><line style="stroke:#181818;stroke-width:1;stroke-dasharray:2,2;" x1="483.4888" x2="667.354" y1="534.7578" y2="534.7578"/><text fill="#000000" font-family="sans-serif" font-size="13" font-weight="bold" lengthAdjust="spacing" textLength="18.0908" x="495.4888" y="529.6919">10</text><text fill="#000000" font-family="sans-serif" font-size="13" lengthAdjust="spacing" textLength="118.4917" x="517.5796" y="529.6919">Update successful</text></g><g class="message" data-entity-1="part3" data-entity-2="part2" id="msg11"><polygon fill="#181818" points="217.6392,559.8906,207.6392,563.8906,217.6392,567.8906,213.6392,563.8906" style="stroke:#181818;stroke-width:1;"/><line style="stroke:#181818;stroke-width:1;stroke-dasharray:2,2;" x1="211.6392" x2="472.4888" y1="563.8906" y2="563.8906"/><text fill="#000000" font-family="sans-serif" font-size="13" font-weight="bold" lengthAdjust="spacing" textLength="18.0908" x="223.6392" y="558.8247">11</text><text fill="#000000" font-family="sans-serif" font-size="13" lengthAdjust="spacing" textLength="52.3301" x="245.73" y="558.8247">Success</text></g><g class="message" data-entity-1="part2" data-entity-2="part2" id="msg12"><line style="stroke:#181818;stroke-width:1;" x1="211.6392" x2="253.6392" y1="608.1563" y2="608.1563"/><line style="stroke:#181818;stroke-width:1;" x1="253.6392" x2="253.6392" y1="608.1563" y2="621.1563"/><line style="stroke:#181818;stroke-width:1;" x1="212.6392" x2="253.6392" y1="621.1563" y2="621.1563"/><polygon fill="#181818" points="222.6392,617.1563,212.6392,621.1563,222.6392,625.1563,218.6392,621.1563" style="stroke:#181818;stroke-width:1;"/><text fill="#000000" font-family="sans-serif" font-size="13" font-weight="bold" lengthAdjust="spacing" textLength="18.0908" x="218.6392" y="595.5239">12</text><text fill="#000000" font-family="sans-serif" font-size="13" lengthAdjust="spacing" textLength="161.8589" x="240.73" y="587.9575">Mark notification as read</text><text fill="#000000" font-family="sans-serif" font-size="13" lengthAdjust="spacing" textLength="176.2363" x="240.73" y="603.0903">and navigate to link_action</text></g><?plantuml-src ZP9FQyCm3CNl_XGwReV0O3kLRJ0y2ZqiPRJ9QL2KM1qcgLtyfwNVVdBQ5Rlii9pYwAUNfoTZ3DR4NKTE2Eo3TT1uSe0U6j7PQ1Iw4zGswAtkCMXhMat7LAvRqLiJd1sBiZn_6yyQjHHaWWuiiLmlvWlvjbuiwzLK4gA1wfLrPY17tGzW3I2OJ2iPqWSCn5wkh_nVKRTJfvp1Yeo27RgXGbyvGWLtkS96g_kiLNAhd5fdy1c99yjXw4wWLOQBkc0TzTOLTKKvBE6vgXAUvm4A0vQWwDZeK5Bi0-pHa4ec8cz003yyvoJ9WpuzFCBSkauhHUQtU8dlNVlzY2V0lYVlWG5DQcBorD8vzz7oQbGMIBDNwRlscod75mWkqbzfNC1_nt7XVPpiRUDu4qSsvUhC582yxfj7_U1LbqlZgvJyVXdacs3meBzJLx0mQZDiaan-aNZgCeEROtPgn0y0?></g></svg>