<svg xmlns="http://www.w3.org/2000/svg" xmlns:xlink="http://www.w3.org/1999/xlink" contentStyleType="text/css" data-diagram-type="SEQUENCE" height="1614px" preserveAspectRatio="none" style="width:1584px;height:1614px;background:#FFFFFF;" version="1.1" viewBox="0 0 1584 1614" width="1584px" zoomAndPan="magnify"><defs/><g><g><title>User</title><rect fill="#FFFFFF" height="1482.5469" style="stroke:#181818;stroke-width:1;" width="10" x="32.7793" y="114.9609"/></g><g><title>Frontend</title><rect fill="#FFFFFF" height="1482.5469" style="stroke:#181818;stroke-width:1;" width="10" x="248.6318" y="114.9609"/></g><g><title>AIController</title><rect fill="#FFFFFF" height="391.8672" style="stroke:#181818;stroke-width:1;" width="10" x="439.8599" y="145.3125"/></g><g><title>AIController</title><rect fill="#FFFFFF" height="493.2188" style="stroke:#181818;stroke-width:1;" width="10" x="439.8599" y="653.5859"/></g><g><title>AIController</title><rect fill="#FFFFFF" height="298.4609" style="stroke:#181818;stroke-width:1;" width="10" x="439.8599" y="1253.6953"/></g><g><title>AIService</title><rect fill="#FFFFFF" height="331.1641" style="stroke:#181818;stroke-width:1;" width="10" x="646.3032" y="175.6641"/></g><g><title>PendingActionWorkflow</title><rect fill="#FFFFFF" height="254.1094" style="stroke:#181818;stroke-width:1;" width="10" x="830.3203" y="222.3672"/></g><g><title>PendingActionWorkflow</title><rect fill="#FFFFFF" height="28" style="stroke:#181818;stroke-width:1;" width="10" x="835.3203" y="277.0703"/></g><g><title>PendingActionWorkflow</title><rect fill="#FFFFFF" height="432.5156" style="stroke:#181818;stroke-width:1;" width="10" x="830.3203" y="683.9375"/></g><g><title>PendingActionWorkflow</title><rect fill="#FFFFFF" height="28" style="stroke:#181818;stroke-width:1;" width="10" x="835.3203" y="722.2891"/></g><g><title>PendingActionWorkflow</title><rect fill="#FFFFFF" height="237.7578" style="stroke:#181818;stroke-width:1;" width="10" x="830.3203" y="1284.0469"/></g><g><title>PendingActionWorkflow</title><rect fill="#FFFFFF" height="28" style="stroke:#181818;stroke-width:1;" width="10" x="835.3203" y="1322.3984"/></g><g><title>DomainService</title><rect fill="#FFFFFF" height="164.4063" style="stroke:#181818;stroke-width:1;" width="10" x="1077.1392" y="787.6406"/></g><g><title>Domain data</title><rect fill="#FFFFFF" height="103.7031" style="stroke:#181818;stroke-width:1;" width="10" x="1241.6816" y="817.9922"/></g><g><title>Domain data</title><rect fill="#FFFFFF" height="28" style="stroke:#181818;stroke-width:1;" width="10" x="1246.6816" y="856.3438"/></g><g><title>AI_LOGS</title><rect fill="#FFFFFF" height="103.7031" style="stroke:#181818;stroke-width:1;" width="10" x="1387.3442" y="342.4219"/></g><g><title>AI_LOGS</title><rect fill="#FFFFFF" height="28" style="stroke:#181818;stroke-width:1;" width="10" x="1392.3442" y="380.7734"/></g><g><title>AI_LOGS</title><rect fill="#FFFFFF" height="103.7031" style="stroke:#181818;stroke-width:1;" width="10" x="1387.3442" y="982.3984"/></g><g><title>AI_LOGS</title><rect fill="#FFFFFF" height="28" style="stroke:#181818;stroke-width:1;" width="10" x="1392.3442" y="1020.75"/></g><g><title>AI_LOGS</title><rect fill="#FFFFFF" height="103.7031" style="stroke:#181818;stroke-width:1;" width="10" x="1387.3442" y="1387.75"/></g><g><title>AI_LOGS</title><rect fill="#FFFFFF" height="28" style="stroke:#181818;stroke-width:1;" width="10" x="1392.3442" y="1426.1016"/></g><rect fill="none" height="1007.9766" style="stroke:#000000;stroke-width:1.5;" width="1567.6968" x="10" y="582.5313"/><g><title>User</title><rect fill="#000000" fill-opacity="0.00000" height="1524.8984" width="8" x="33.7793" y="82.6094"/><line style="stroke:#777777;stroke-width:0.5;stroke-dasharray:5,5;" x1="37" x2="37" y1="82.6094" y2="1607.5078"/></g><g><title>Frontend</title><rect fill="#000000" fill-opacity="0.00000" height="1524.8984" width="8" x="249.6318" y="82.6094"/><line style="stroke:#777777;stroke-width:0.5;stroke-dasharray:5,5;" x1="253.6147" x2="253.6147" y1="82.6094" y2="1607.5078"/></g><g><title>AIController</title><rect fill="#000000" fill-opacity="0.00000" height="1524.8984" width="8" x="440.8599" y="82.6094"/><line style="stroke:#777777;stroke-width:0.5;stroke-dasharray:5,5;" x1="443.9014" x2="443.9014" y1="82.6094" y2="1607.5078"/></g><g><title>AIService</title><rect fill="#000000" fill-opacity="0.00000" height="1524.8984" width="8" x="647.3032" y="82.6094"/><line style="stroke:#777777;stroke-width:0.5;stroke-dasharray:5,5;" x1="650.3481" x2="650.3481" y1="82.6094" y2="1607.5078"/></g><g><title>PendingActionWorkflow</title><rect fill="#000000" fill-opacity="0.00000" height="1524.8984" width="8" x="831.3203" y="82.6094"/><line style="stroke:#777777;stroke-width:0.5;stroke-dasharray:5,5;" x1="834.3965" x2="834.3965" y1="82.6094" y2="1607.5078"/></g><g><title>DomainService</title><rect fill="#000000" fill-opacity="0.00000" height="1524.8984" width="8" x="1078.1392" y="82.6094"/><line style="stroke:#777777;stroke-width:0.5;stroke-dasharray:5,5;" x1="1081.6772" x2="1081.6772" y1="82.6094" y2="1607.5078"/></g><g><title>Domain data</title><rect fill="#000000" fill-opacity="0.00000" height="1524.8984" width="8" x="1242.6816" y="82.6094"/><line style="stroke:#777777;stroke-width:0.5;stroke-dasharray:5,5;" x1="1245.9922" x2="1245.9922" y1="82.6094" y2="1607.5078"/></g><g><title>AI_LOGS</title><rect fill="#000000" fill-opacity="0.00000" height="1524.8984" width="8" x="1388.3442" y="82.6094"/><line style="stroke:#777777;stroke-width:0.5;stroke-dasharray:5,5;" x1="1391.3857" x2="1391.3857" y1="82.6094" y2="1607.5078"/></g><g class="participant participant-head" data-participant="U"><text fill="#000000" font-family="sans-serif" font-size="14" lengthAdjust="spacing" textLength="29.5586" x="20" y="79.5332">User</text><ellipse cx="37.7793" cy="13.5" fill="#FFFFFF" rx="8" ry="8" style="stroke:#555555;stroke-width:0.5;"/><path d="M37.7793,21.5 L37.7793,48.5 M24.7793,29.5 L50.7793,29.5 M37.7793,48.5 L24.7793,63.5 M37.7793,48.5 L50.7793,63.5" fill="none" style="stroke:#555555;stroke-width:0.5;"/></g><g class="participant participant-head" data-participant="FE"><text fill="#000000" font-family="sans-serif" font-size="14" lengthAdjust="spacing" textLength="56.0342" x="222.6147" y="79.5332">Frontend</text><path d="M233.1318,37 L233.1318,61 M233.1318,49 L250.1318,49" fill="none" style="stroke:#181818;stroke-width:0.5;"/><ellipse cx="262.1318" cy="49" fill="#E2E2F0" rx="12" ry="12" style="stroke:#181818;stroke-width:0.5;"/></g><g class="participant participant-head" data-participant="AIC"><text fill="#000000" font-family="sans-serif" font-size="14" lengthAdjust="spacing" textLength="73.917" x="404.9014" y="79.5332">AIController</text><ellipse cx="444.8599" cy="49" fill="#E2E2F0" rx="12" ry="12" style="stroke:#181818;stroke-width:0.5;"/><polygon fill="#181818" points="440.8599,37,446.8599,32,444.8599,37,446.8599,42,440.8599,37" style="stroke:#181818;stroke-width:1;"/></g><g class="participant participant-head" data-participant="AIS"><text fill="#000000" font-family="sans-serif" font-size="14" lengthAdjust="spacing" textLength="59.9102" x="618.3481" y="79.5332">AIService</text><ellipse cx="651.3032" cy="49" fill="#E2E2F0" rx="12" ry="12" style="stroke:#181818;stroke-width:0.5;"/><polygon fill="#181818" points="647.3032,37,653.3032,32,651.3032,37,653.3032,42,647.3032,37" style="stroke:#181818;stroke-width:1;"/></g><g class="participant participant-head" data-participant="PAW"><text fill="#000000" font-family="sans-serif" font-size="14" lengthAdjust="spacing" textLength="147.8477" x="758.3965" y="79.5332">PendingActionWorkflow</text><ellipse cx="835.3203" cy="49" fill="#E2E2F0" rx="12" ry="12" style="stroke:#181818;stroke-width:0.5;"/><polygon fill="#181818" points="831.3203,37,837.3203,32,835.3203,37,837.3203,42,831.3203,37" style="stroke:#181818;stroke-width:1;"/></g><g class="participant participant-head" data-participant="DS"><text fill="#000000" font-family="sans-serif" font-size="14" lengthAdjust="spacing" textLength="94.9238" x="1031.6772" y="79.5332">DomainService</text><ellipse cx="1082.1392" cy="49" fill="#E2E2F0" rx="12" ry="12" style="stroke:#181818;stroke-width:0.5;"/><polygon fill="#181818" points="1078.1392,37,1084.1392,32,1082.1392,37,1084.1392,42,1078.1392,37" style="stroke:#181818;stroke-width:1;"/></g><g class="participant participant-head" data-participant="DD"><text fill="#000000" font-family="sans-serif" font-size="14" lengthAdjust="spacing" textLength="79.3789" x="1203.9922" y="79.5332">Domain data</text><path d="M1228.6816,29 C1228.6816,19 1246.6816,19 1246.6816,19 C1246.6816,19 1264.6816,19 1264.6816,29 L1264.6816,55 C1264.6816,65 1246.6816,65 1246.6816,65 C1246.6816,65 1228.6816,65 1228.6816,55 L1228.6816,29" fill="#E2E2F0" style="stroke:#181818;stroke-width:0.5;"/><path d="M1228.6816,29 C1228.6816,39 1246.6816,39 1246.6816,39 C1246.6816,39 1264.6816,39 1264.6816,29" fill="none" style="stroke:#181818;stroke-width:0.5;"/></g><g class="participant participant-head" data-participant="AL"><text fill="#000000" font-family="sans-serif" font-size="14" lengthAdjust="spacing" textLength="59.917" x="1359.3857" y="79.5332">AI_LOGS</text><ellipse cx="1392.3442" cy="49" fill="#E2E2F0" rx="12" ry="12" style="stroke:#181818;stroke-width:0.5;"/><line style="stroke:#181818;stroke-width:0.5;" x1="1380.3442" x2="1404.3442" y1="63" y2="63"/></g><g><title>User</title><rect fill="#FFFFFF" height="1482.5469" style="stroke:#181818;stroke-width:1;" width="10" x="32.7793" y="114.9609"/></g><g><title>Frontend</title><rect fill="#FFFFFF" height="1482.5469" style="stroke:#181818;stroke-width:1;" width="10" x="248.6318" y="114.9609"/></g><g><title>AIController</title><rect fill="#FFFFFF" height="391.8672" style="stroke:#181818;stroke-width:1;" width="10" x="439.8599" y="145.3125"/></g><g><title>AIController</title><rect fill="#FFFFFF" height="493.2188" style="stroke:#181818;stroke-width:1;" width="10" x="439.8599" y="653.5859"/></g><g><title>AIController</title><rect fill="#FFFFFF" height="298.4609" style="stroke:#181818;stroke-width:1;" width="10" x="439.8599" y="1253.6953"/></g><g><title>AIService</title><rect fill="#FFFFFF" height="331.1641" style="stroke:#181818;stroke-width:1;" width="10" x="646.3032" y="175.6641"/></g><g><title>PendingActionWorkflow</title><rect fill="#FFFFFF" height="254.1094" style="stroke:#181818;stroke-width:1;" width="10" x="830.3203" y="222.3672"/></g><g><title>PendingActionWorkflow</title><rect fill="#FFFFFF" height="28" style="stroke:#181818;stroke-width:1;" width="10" x="835.3203" y="277.0703"/></g><g><title>PendingActionWorkflow</title><rect fill="#FFFFFF" height="432.5156" style="stroke:#181818;stroke-width:1;" width="10" x="830.3203" y="683.9375"/></g><g><title>PendingActionWorkflow</title><rect fill="#FFFFFF" height="28" style="stroke:#181818;stroke-width:1;" width="10" x="835.3203" y="722.2891"/></g><g><title>PendingActionWorkflow</title><rect fill="#FFFFFF" height="237.7578" style="stroke:#181818;stroke-width:1;" width="10" x="830.3203" y="1284.0469"/></g><g><title>PendingActionWorkflow</title><rect fill="#FFFFFF" height="28" style="stroke:#181818;stroke-width:1;" width="10" x="835.3203" y="1322.3984"/></g><g><title>DomainService</title><rect fill="#FFFFFF" height="164.4063" style="stroke:#181818;stroke-width:1;" width="10" x="1077.1392" y="787.6406"/></g><g><title>Domain data</title><rect fill="#FFFFFF" height="103.7031" style="stroke:#181818;stroke-width:1;" width="10" x="1241.6816" y="817.9922"/></g><g><title>Domain data</title><rect fill="#FFFFFF" height="28" style="stroke:#181818;stroke-width:1;" width="10" x="1246.6816" y="856.3438"/></g><g><title>AI_LOGS</title><rect fill="#FFFFFF" height="103.7031" style="stroke:#181818;stroke-width:1;" width="10" x="1387.3442" y="342.4219"/></g><g><title>AI_LOGS</title><rect fill="#FFFFFF" height="28" style="stroke:#181818;stroke-width:1;" width="10" x="1392.3442" y="380.7734"/></g><g><title>AI_LOGS</title><rect fill="#FFFFFF" height="103.7031" style="stroke:#181818;stroke-width:1;" width="10" x="1387.3442" y="982.3984"/></g><g><title>AI_LOGS</title><rect fill="#FFFFFF" height="28" style="stroke:#181818;stroke-width:1;" width="10" x="1392.3442" y="1020.75"/></g><g><title>AI_LOGS</title><rect fill="#FFFFFF" height="103.7031" style="stroke:#181818;stroke-width:1;" width="10" x="1387.3442" y="1387.75"/></g><g><title>AI_LOGS</title><rect fill="#FFFFFF" height="28" style="stroke:#181818;stroke-width:1;" width="10" x="1392.3442" y="1426.1016"/></g><g class="message" data-participant-1="U" data-participant-2="FE"><polygon fill="#333333" points="236.6318,110.9609,246.6318,114.9609,236.6318,118.9609,240.6318,114.9609" style="stroke:#333333;stroke-width:1;"/><line style="stroke:#333333;stroke-width:1;" x1="42.7793" x2="242.6318" y1="114.9609" y2="114.9609"/><text fill="#000000" font-family="sans-serif" font-size="13" font-weight="bold" lengthAdjust="spacing" textLength="7.23" x="49.7793" y="110.1045">1</text><text fill="#000000" font-family="sans-serif" font-size="13" lengthAdjust="spacing" textLength="180.6226" x="61.0093" y="110.1045">Ask AI to perform a write action</text></g><g class="message" data-participant-1="FE" data-participant-2="AIC"><polygon fill="#333333" points="427.8599,141.3125,437.8599,145.3125,427.8599,149.3125,431.8599,145.3125" style="stroke:#333333;stroke-width:1;"/><line style="stroke:#333333;stroke-width:1;" x1="258.6318" x2="433.8599" y1="145.3125" y2="145.3125"/><text fill="#000000" font-family="sans-serif" font-size="13" font-weight="bold" lengthAdjust="spacing" textLength="7.23" x="265.6318" y="140.4561">2</text><text fill="#000000" font-family="sans-serif" font-size="13" lengthAdjust="spacing" textLength="130.0889" x="276.8618" y="140.4561">Send chat/tool request</text></g><g class="message" data-participant-1="AIC" data-participant-2="AIS"><polygon fill="#333333" points="634.3032,171.6641,644.3032,175.6641,634.3032,179.6641,638.3032,175.6641" style="stroke:#333333;stroke-width:1;"/><line style="stroke:#333333;stroke-width:1;" x1="449.8599" x2="640.3032" y1="175.6641" y2="175.6641"/><text fill="#000000" font-family="sans-serif" font-size="13" font-weight="bold" lengthAdjust="spacing" textLength="7.23" x="456.8599" y="170.8076">3</text><text fill="#000000" font-family="sans-serif" font-size="13" lengthAdjust="spacing" textLength="166.2134" x="468.0898" y="170.8076">Analyze request and tool call</text></g><g class="message" data-participant-1="AIS" data-participant-2="PAW"><polygon fill="#333333" points="818.3203,218.3672,828.3203,222.3672,818.3203,226.3672,822.3203,222.3672" style="stroke:#333333;stroke-width:1;"/><line style="stroke:#333333;stroke-width:1;" x1="656.3032" x2="824.3203" y1="222.3672" y2="222.3672"/><text fill="#000000" font-family="sans-serif" font-size="13" font-weight="bold" lengthAdjust="spacing" textLength="7.23" x="663.3032" y="209.335">4</text><text fill="#000000" font-family="sans-serif" font-size="13" lengthAdjust="spacing" textLength="127.2007" x="674.5332" y="201.1592">Create pending action</text><text fill="#000000" font-family="sans-serif" font-size="13" lengthAdjust="spacing" textLength="143.7871" x="674.5332" y="217.5107">with preview and params</text></g><g class="message" data-participant-1="PAW" data-participant-2="PAW"><line style="stroke:#333333;stroke-width:1;" x1="845.3203" x2="887.3203" y1="269.0703" y2="269.0703"/><line style="stroke:#333333;stroke-width:1;" x1="887.3203" x2="887.3203" y1="269.0703" y2="282.0703"/><line style="stroke:#333333;stroke-width:1;" x1="846.3203" x2="887.3203" y1="282.0703" y2="282.0703"/><polygon fill="#333333" points="856.3203,278.0703,846.3203,282.0703,856.3203,286.0703,852.3203,282.0703" style="stroke:#333333;stroke-width:1;"/><text fill="#000000" font-family="sans-serif" font-size="13" font-weight="bold" lengthAdjust="spacing" textLength="7.23" x="852.3203" y="256.0381">5</text><text fill="#000000" font-family="sans-serif" font-size="13" lengthAdjust="spacing" textLength="119.2534" x="863.5503" y="247.8623">Store pending action</text><text fill="#000000" font-family="sans-serif" font-size="13" lengthAdjust="spacing" textLength="201.5889" x="863.5503" y="264.2139">(actionId, userId, sessionId, expiry)</text></g><g class="message" data-participant-1="PAW" data-participant-2="AL"><polygon fill="#333333" points="1375.3442,338.4219,1385.3442,342.4219,1375.3442,346.4219,1379.3442,342.4219" style="stroke:#333333;stroke-width:1;"/><line style="stroke:#333333;stroke-width:1;" x1="840.3203" x2="1381.3442" y1="342.4219" y2="342.4219"/><text fill="#000000" font-family="sans-serif" font-size="13" font-weight="bold" lengthAdjust="spacing" textLength="7.23" x="847.3203" y="337.5654">6</text><text fill="#000000" font-family="sans-serif" font-size="13" lengthAdjust="spacing" textLength="130.0889" x="858.5503" y="337.5654">Record pending action</text></g><g class="message" data-participant-1="AL" data-participant-2="AL"><line style="stroke:#333333;stroke-width:1;" x1="1402.3442" x2="1444.3442" y1="372.7734" y2="372.7734"/><line style="stroke:#333333;stroke-width:1;" x1="1444.3442" x2="1444.3442" y1="372.7734" y2="385.7734"/><line style="stroke:#333333;stroke-width:1;" x1="1403.3442" x2="1444.3442" y1="385.7734" y2="385.7734"/><polygon fill="#333333" points="1413.3442,381.7734,1403.3442,385.7734,1413.3442,389.7734,1409.3442,385.7734" style="stroke:#333333;stroke-width:1;"/><text fill="#000000" font-family="sans-serif" font-size="13" font-weight="bold" lengthAdjust="spacing" textLength="7.23" x="1409.3442" y="367.917">7</text><text fill="#000000" font-family="sans-serif" font-size="13" lengthAdjust="spacing" textLength="103.3525" x="1420.5742" y="367.917">Insert pending log</text></g><g class="message" data-participant-1="AL" data-participant-2="PAW"><polygon fill="#333333" points="851.3203,442.125,841.3203,446.125,851.3203,450.125,847.3203,446.125" style="stroke:#333333;stroke-width:1;"/><line style="stroke:#333333;stroke-width:1;stroke-dasharray:2,2;" x1="845.3203" x2="1391.3442" y1="446.125" y2="446.125"/><text fill="#000000" font-family="sans-serif" font-size="13" font-weight="bold" lengthAdjust="spacing" textLength="7.23" x="857.3203" y="441.2686">8</text><text fill="#000000" font-family="sans-serif" font-size="13" lengthAdjust="spacing" textLength="59.9917" x="868.5503" y="441.2686">Log saved</text></g><g class="message" data-participant-1="PAW" data-participant-2="AIS"><polygon fill="#333333" points="667.3032,472.4766,657.3032,476.4766,667.3032,480.4766,663.3032,476.4766" style="stroke:#333333;stroke-width:1;"/><line style="stroke:#333333;stroke-width:1;stroke-dasharray:2,2;" x1="661.3032" x2="834.3203" y1="476.4766" y2="476.4766"/><text fill="#000000" font-family="sans-serif" font-size="13" font-weight="bold" lengthAdjust="spacing" textLength="7.23" x="673.3032" y="471.6201">9</text><text fill="#000000" font-family="sans-serif" font-size="13" lengthAdjust="spacing" textLength="127.8926" x="684.5332" y="471.6201">actionId and summary</text></g><g class="message" data-participant-1="AIS" data-participant-2="AIC"><polygon fill="#333333" points="460.8599,502.8281,450.8599,506.8281,460.8599,510.8281,456.8599,506.8281" style="stroke:#333333;stroke-width:1;"/><line style="stroke:#333333;stroke-width:1;stroke-dasharray:2,2;" x1="454.8599" x2="650.3032" y1="506.8281" y2="506.8281"/><text fill="#000000" font-family="sans-serif" font-size="13" font-weight="bold" lengthAdjust="spacing" textLength="14.46" x="466.8599" y="501.9717">10</text><text fill="#000000" font-family="sans-serif" font-size="13" lengthAdjust="spacing" textLength="135.1606" x="485.3198" y="501.9717">Pending action payload</text></g><g class="message" data-participant-1="AIC" data-participant-2="FE"><polygon fill="#333333" points="269.6318,533.1797,259.6318,537.1797,269.6318,541.1797,265.6318,537.1797" style="stroke:#333333;stroke-width:1;"/><line style="stroke:#333333;stroke-width:1;stroke-dasharray:2,2;" x1="263.6318" x2="443.8599" y1="537.1797" y2="537.1797"/><text fill="#000000" font-family="sans-serif" font-size="13" font-weight="bold" lengthAdjust="spacing" textLength="14.46" x="275.6318" y="532.3232">11</text><text fill="#000000" font-family="sans-serif" font-size="13" lengthAdjust="spacing" textLength="125.0044" x="294.0918" y="532.3232">Confirmation required</text></g><g class="message" data-participant-1="FE" data-participant-2="U"><polygon fill="#333333" points="53.7793,563.5313,43.7793,567.5313,53.7793,571.5313,49.7793,567.5313" style="stroke:#333333;stroke-width:1;"/><line style="stroke:#333333;stroke-width:1;stroke-dasharray:2,2;" x1="47.7793" x2="247.6318" y1="567.5313" y2="567.5313"/><text fill="#000000" font-family="sans-serif" font-size="13" font-weight="bold" lengthAdjust="spacing" textLength="14.46" x="59.7793" y="562.6748">12</text><text fill="#000000" font-family="sans-serif" font-size="13" lengthAdjust="spacing" textLength="132.939" x="78.2393" y="562.6748">Show Confirm / Cancel</text></g><path d="M10,582.5313 L70.1709,582.5313 L70.1709,590.8828 L60.1709,600.8828 L10,600.8828 L10,582.5313" fill="#EEEEEE" style="stroke:#000000;stroke-width:1.5;"/><rect fill="none" height="1007.9766" style="stroke:#000000;stroke-width:1.5;" width="1567.6968" x="10" y="582.5313"/><text fill="#000000" font-family="sans-serif" font-size="13" font-weight="bold" lengthAdjust="spacing" textLength="15.1709" x="25" y="597.0264">alt</text><text fill="#000000" font-family="sans-serif" font-size="11" font-weight="bold" lengthAdjust="spacing" textLength="81.2969" x="85.1709" y="595.9502">[User confirms]</text><g class="message" data-participant-1="U" data-participant-2="FE"><polygon fill="#333333" points="236.6318,619.2344,246.6318,623.2344,236.6318,627.2344,240.6318,623.2344" style="stroke:#333333;stroke-width:1;"/><line style="stroke:#333333;stroke-width:1;" x1="42.7793" x2="242.6318" y1="623.2344" y2="623.2344"/><text fill="#000000" font-family="sans-serif" font-size="13" font-weight="bold" lengthAdjust="spacing" textLength="14.46" x="49.7793" y="618.3779">13</text><text fill="#000000" font-family="sans-serif" font-size="13" lengthAdjust="spacing" textLength="83.8081" x="68.2393" y="618.3779">Confirm action</text></g><g class="message" data-participant-1="FE" data-participant-2="AIC"><polygon fill="#333333" points="427.8599,649.5859,437.8599,653.5859,427.8599,657.5859,431.8599,653.5859" style="stroke:#333333;stroke-width:1;"/><line style="stroke:#333333;stroke-width:1;" x1="258.6318" x2="433.8599" y1="653.5859" y2="653.5859"/><text fill="#000000" font-family="sans-serif" font-size="13" font-weight="bold" lengthAdjust="spacing" textLength="14.46" x="265.6318" y="648.7295">14</text><text fill="#000000" font-family="sans-serif" font-size="13" lengthAdjust="spacing" textLength="143.7681" x="284.0918" y="648.7295">POST /ai/actions/confirm</text></g><g class="message" data-participant-1="AIC" data-participant-2="PAW"><polygon fill="#333333" points="818.3203,679.9375,828.3203,683.9375,818.3203,687.9375,822.3203,683.9375" style="stroke:#333333;stroke-width:1;"/><line style="stroke:#333333;stroke-width:1;" x1="449.8599" x2="824.3203" y1="683.9375" y2="683.9375"/><text fill="#000000" font-family="sans-serif" font-size="13" font-weight="bold" lengthAdjust="spacing" textLength="14.46" x="456.8599" y="679.0811">15</text><text fill="#000000" font-family="sans-serif" font-size="13" lengthAdjust="spacing" textLength="192.918" x="475.3198" y="679.0811">Check ownership, session, expiry</text></g><g class="message" data-participant-1="PAW" data-participant-2="PAW"><line style="stroke:#333333;stroke-width:1;" x1="845.3203" x2="887.3203" y1="714.2891" y2="714.2891"/><line style="stroke:#333333;stroke-width:1;" x1="887.3203" x2="887.3203" y1="714.2891" y2="727.2891"/><line style="stroke:#333333;stroke-width:1;" x1="846.3203" x2="887.3203" y1="727.2891" y2="727.2891"/><polygon fill="#333333" points="856.3203,723.2891,846.3203,727.2891,856.3203,731.2891,852.3203,727.2891" style="stroke:#333333;stroke-width:1;"/><text fill="#000000" font-family="sans-serif" font-size="13" font-weight="bold" lengthAdjust="spacing" textLength="14.46" x="852.3203" y="709.4326">16</text><text fill="#000000" font-family="sans-serif" font-size="13" lengthAdjust="spacing" textLength="117.0762" x="870.7803" y="709.4326">Validate action state</text></g><g class="message" data-participant-1="PAW" data-participant-2="DS"><polygon fill="#333333" points="1065.1392,783.6406,1075.1392,787.6406,1065.1392,791.6406,1069.1392,787.6406" style="stroke:#333333;stroke-width:1;"/><line style="stroke:#333333;stroke-width:1;" x1="840.3203" x2="1071.1392" y1="787.6406" y2="787.6406"/><text fill="#000000" font-family="sans-serif" font-size="13" font-weight="bold" lengthAdjust="spacing" textLength="14.46" x="847.3203" y="782.7842">17</text><text fill="#000000" font-family="sans-serif" font-size="13" lengthAdjust="spacing" textLength="116.3335" x="865.7803" y="782.7842">Execute write action</text></g><g class="message" data-participant-1="DS" data-participant-2="DD"><polygon fill="#333333" points="1229.6816,813.9922,1239.6816,817.9922,1229.6816,821.9922,1233.6816,817.9922" style="stroke:#333333;stroke-width:1;"/><line style="stroke:#333333;stroke-width:1;" x1="1087.1392" x2="1235.6816" y1="817.9922" y2="817.9922"/><text fill="#000000" font-family="sans-serif" font-size="13" font-weight="bold" lengthAdjust="spacing" textLength="14.46" x="1094.1392" y="813.1357">18</text><text fill="#000000" font-family="sans-serif" font-size="13" lengthAdjust="spacing" textLength="117.0825" x="1112.5991" y="813.1357">Update domain data</text></g><g class="message" data-participant-1="DD" data-participant-2="DD"><line style="stroke:#333333;stroke-width:1;" x1="1256.6816" x2="1298.6816" y1="848.3438" y2="848.3438"/><line style="stroke:#333333;stroke-width:1;" x1="1298.6816" x2="1298.6816" y1="848.3438" y2="861.3438"/><line style="stroke:#333333;stroke-width:1;" x1="1257.6816" x2="1298.6816" y1="861.3438" y2="861.3438"/><polygon fill="#333333" points="1267.6816,857.3438,1257.6816,861.3438,1267.6816,865.3438,1263.6816,861.3438" style="stroke:#333333;stroke-width:1;"/><text fill="#000000" font-family="sans-serif" font-size="13" font-weight="bold" lengthAdjust="spacing" textLength="14.46" x="1263.6816" y="843.4873">19</text><text fill="#000000" font-family="sans-serif" font-size="13" lengthAdjust="spacing" textLength="93.2026" x="1282.1416" y="843.4873">Persist mutation</text></g><g class="message" data-participant-1="DD" data-participant-2="DS"><polygon fill="#333333" points="1098.1392,917.6953,1088.1392,921.6953,1098.1392,925.6953,1094.1392,921.6953" style="stroke:#333333;stroke-width:1;"/><line style="stroke:#333333;stroke-width:1;stroke-dasharray:2,2;" x1="1092.1392" x2="1245.6816" y1="921.6953" y2="921.6953"/><text fill="#000000" font-family="sans-serif" font-size="13" font-weight="bold" lengthAdjust="spacing" textLength="14.46" x="1104.1392" y="916.8389">20</text><text fill="#000000" font-family="sans-serif" font-size="13" lengthAdjust="spacing" textLength="49.1499" x="1122.5991" y="916.8389">Updated</text></g><g class="message" data-participant-1="DS" data-participant-2="PAW"><polygon fill="#333333" points="851.3203,948.0469,841.3203,952.0469,851.3203,956.0469,847.3203,952.0469" style="stroke:#333333;stroke-width:1;"/><line style="stroke:#333333;stroke-width:1;stroke-dasharray:2,2;" x1="845.3203" x2="1081.1392" y1="952.0469" y2="952.0469"/><text fill="#000000" font-family="sans-serif" font-size="13" font-weight="bold" lengthAdjust="spacing" textLength="14.46" x="857.3203" y="947.1904">21</text><text fill="#000000" font-family="sans-serif" font-size="13" lengthAdjust="spacing" textLength="92.4917" x="875.7803" y="947.1904">Execution result</text></g><g class="message" data-participant-1="PAW" data-participant-2="AL"><polygon fill="#333333" points="1375.3442,978.3984,1385.3442,982.3984,1375.3442,986.3984,1379.3442,982.3984" style="stroke:#333333;stroke-width:1;"/><line style="stroke:#333333;stroke-width:1;" x1="840.3203" x2="1381.3442" y1="982.3984" y2="982.3984"/><text fill="#000000" font-family="sans-serif" font-size="13" font-weight="bold" lengthAdjust="spacing" textLength="14.46" x="847.3203" y="977.542">22</text><text fill="#000000" font-family="sans-serif" font-size="13" lengthAdjust="spacing" textLength="137.998" x="865.7803" y="977.542">Record confirmed result</text></g><g class="message" data-participant-1="AL" data-participant-2="AL"><line style="stroke:#333333;stroke-width:1;" x1="1402.3442" x2="1444.3442" y1="1012.75" y2="1012.75"/><line style="stroke:#333333;stroke-width:1;" x1="1444.3442" x2="1444.3442" y1="1012.75" y2="1025.75"/><line style="stroke:#333333;stroke-width:1;" x1="1403.3442" x2="1444.3442" y1="1025.75" y2="1025.75"/><polygon fill="#333333" points="1413.3442,1021.75,1403.3442,1025.75,1413.3442,1029.75,1409.3442,1025.75" style="stroke:#333333;stroke-width:1;"/><text fill="#000000" font-family="sans-serif" font-size="13" font-weight="bold" lengthAdjust="spacing" textLength="14.46" x="1409.3442" y="1007.8936">23</text><text fill="#000000" font-family="sans-serif" font-size="13" lengthAdjust="spacing" textLength="127.8926" x="1427.8042" y="1007.8936">Insert confirmation log</text></g><g class="message" data-participant-1="AL" data-participant-2="PAW"><polygon fill="#333333" points="851.3203,1082.1016,841.3203,1086.1016,851.3203,1090.1016,847.3203,1086.1016" style="stroke:#333333;stroke-width:1;"/><line style="stroke:#333333;stroke-width:1;stroke-dasharray:2,2;" x1="845.3203" x2="1391.3442" y1="1086.1016" y2="1086.1016"/><text fill="#000000" font-family="sans-serif" font-size="13" font-weight="bold" lengthAdjust="spacing" textLength="14.46" x="857.3203" y="1081.2451">24</text><text fill="#000000" font-family="sans-serif" font-size="13" lengthAdjust="spacing" textLength="59.9917" x="875.7803" y="1081.2451">Log saved</text></g><g class="message" data-participant-1="PAW" data-participant-2="AIC"><polygon fill="#333333" points="460.8599,1112.4531,450.8599,1116.4531,460.8599,1120.4531,456.8599,1116.4531" style="stroke:#333333;stroke-width:1;"/><line style="stroke:#333333;stroke-width:1;stroke-dasharray:2,2;" x1="454.8599" x2="834.3203" y1="1116.4531" y2="1116.4531"/><text fill="#000000" font-family="sans-serif" font-size="13" font-weight="bold" lengthAdjust="spacing" textLength="14.46" x="466.8599" y="1111.5967">25</text><text fill="#000000" font-family="sans-serif" font-size="13" lengthAdjust="spacing" textLength="49.1309" x="485.3198" y="1111.5967">Success</text></g><g class="message" data-participant-1="AIC" data-participant-2="FE"><polygon fill="#333333" points="269.6318,1142.8047,259.6318,1146.8047,269.6318,1150.8047,265.6318,1146.8047" style="stroke:#333333;stroke-width:1;"/><line style="stroke:#333333;stroke-width:1;stroke-dasharray:2,2;" x1="263.6318" x2="443.8599" y1="1146.8047" y2="1146.8047"/><text fill="#000000" font-family="sans-serif" font-size="13" font-weight="bold" lengthAdjust="spacing" textLength="14.46" x="275.6318" y="1141.9482">26</text><text fill="#000000" font-family="sans-serif" font-size="13" lengthAdjust="spacing" textLength="49.1309" x="294.0918" y="1141.9482">Success</text></g><g class="message" data-participant-1="FE" data-participant-2="U"><polygon fill="#333333" points="53.7793,1173.1563,43.7793,1177.1563,53.7793,1181.1563,49.7793,1177.1563" style="stroke:#333333;stroke-width:1;"/><line style="stroke:#333333;stroke-width:1;stroke-dasharray:2,2;" x1="47.7793" x2="247.6318" y1="1177.1563" y2="1177.1563"/><text fill="#000000" font-family="sans-serif" font-size="13" font-weight="bold" lengthAdjust="spacing" textLength="14.46" x="59.7793" y="1172.2998">27</text><text fill="#000000" font-family="sans-serif" font-size="13" lengthAdjust="spacing" textLength="114.918" x="78.2393" y="1172.2998">Show updated state</text></g><line style="stroke:#000000;stroke-width:1;stroke-dasharray:2,2;" x1="10" x2="1577.6968" y1="1186.1563" y2="1186.1563"/><text fill="#000000" font-family="sans-serif" font-size="11" font-weight="bold" lengthAdjust="spacing" textLength="75.2061" x="15" y="1197.5752">[User cancels]</text><g class="message" data-participant-1="U" data-participant-2="FE"><polygon fill="#333333" points="236.6318,1219.3438,246.6318,1223.3438,236.6318,1227.3438,240.6318,1223.3438" style="stroke:#333333;stroke-width:1;"/><line style="stroke:#333333;stroke-width:1;" x1="42.7793" x2="242.6318" y1="1223.3438" y2="1223.3438"/><text fill="#000000" font-family="sans-serif" font-size="13" font-weight="bold" lengthAdjust="spacing" textLength="14.46" x="49.7793" y="1218.4873">28</text><text fill="#000000" font-family="sans-serif" font-size="13" lengthAdjust="spacing" textLength="78.7681" x="68.2393" y="1218.4873">Cancel action</text></g><g class="message" data-participant-1="FE" data-participant-2="AIC"><polygon fill="#333333" points="427.8599,1249.6953,437.8599,1253.6953,427.8599,1257.6953,431.8599,1253.6953" style="stroke:#333333;stroke-width:1;"/><line style="stroke:#333333;stroke-width:1;" x1="258.6318" x2="433.8599" y1="1253.6953" y2="1253.6953"/><text fill="#000000" font-family="sans-serif" font-size="13" font-weight="bold" lengthAdjust="spacing" textLength="14.46" x="265.6318" y="1248.8389">29</text><text fill="#000000" font-family="sans-serif" font-size="13" lengthAdjust="spacing" textLength="138.728" x="284.0918" y="1248.8389">POST /ai/actions/cancel</text></g><g class="message" data-participant-1="AIC" data-participant-2="PAW"><polygon fill="#333333" points="818.3203,1280.0469,828.3203,1284.0469,818.3203,1288.0469,822.3203,1284.0469" style="stroke:#333333;stroke-width:1;"/><line style="stroke:#333333;stroke-width:1;" x1="449.8599" x2="824.3203" y1="1284.0469" y2="1284.0469"/><text fill="#000000" font-family="sans-serif" font-size="13" font-weight="bold" lengthAdjust="spacing" textLength="14.46" x="456.8599" y="1279.1904">30</text><text fill="#000000" font-family="sans-serif" font-size="13" lengthAdjust="spacing" textLength="122.8398" x="475.3198" y="1279.1904">Mark action canceled</text></g><g class="message" data-participant-1="PAW" data-participant-2="PAW"><line style="stroke:#333333;stroke-width:1;" x1="845.3203" x2="887.3203" y1="1314.3984" y2="1314.3984"/><line style="stroke:#333333;stroke-width:1;" x1="887.3203" x2="887.3203" y1="1314.3984" y2="1327.3984"/><line style="stroke:#333333;stroke-width:1;" x1="846.3203" x2="887.3203" y1="1327.3984" y2="1327.3984"/><polygon fill="#333333" points="856.3203,1323.3984,846.3203,1327.3984,856.3203,1331.3984,852.3203,1327.3984" style="stroke:#333333;stroke-width:1;"/><text fill="#000000" font-family="sans-serif" font-size="13" font-weight="bold" lengthAdjust="spacing" textLength="14.46" x="852.3203" y="1309.542">31</text><text fill="#000000" font-family="sans-serif" font-size="13" lengthAdjust="spacing" textLength="136.5889" x="870.7803" y="1309.542">Remove pending action</text></g><g class="message" data-participant-1="PAW" data-participant-2="AL"><polygon fill="#333333" points="1375.3442,1383.75,1385.3442,1387.75,1375.3442,1391.75,1379.3442,1387.75" style="stroke:#333333;stroke-width:1;"/><line style="stroke:#333333;stroke-width:1;" x1="840.3203" x2="1381.3442" y1="1387.75" y2="1387.75"/><text fill="#000000" font-family="sans-serif" font-size="13" font-weight="bold" lengthAdjust="spacing" textLength="14.46" x="847.3203" y="1382.8936">32</text><text fill="#000000" font-family="sans-serif" font-size="13" lengthAdjust="spacing" textLength="114.1753" x="865.7803" y="1382.8936">Record cancellation</text></g><g class="message" data-participant-1="AL" data-participant-2="AL"><line style="stroke:#333333;stroke-width:1;" x1="1402.3442" x2="1444.3442" y1="1418.1016" y2="1418.1016"/><line style="stroke:#333333;stroke-width:1;" x1="1444.3442" x2="1444.3442" y1="1418.1016" y2="1431.1016"/><line style="stroke:#333333;stroke-width:1;" x1="1403.3442" x2="1444.3442" y1="1431.1016" y2="1431.1016"/><polygon fill="#333333" points="1413.3442,1427.1016,1403.3442,1431.1016,1413.3442,1435.1016,1409.3442,1431.1016" style="stroke:#333333;stroke-width:1;"/><text fill="#000000" font-family="sans-serif" font-size="13" font-weight="bold" lengthAdjust="spacing" textLength="14.46" x="1409.3442" y="1413.2451">33</text><text fill="#000000" font-family="sans-serif" font-size="13" lengthAdjust="spacing" textLength="125.7407" x="1427.8042" y="1413.2451">Insert cancellation log</text></g><g class="message" data-participant-1="AL" data-participant-2="PAW"><polygon fill="#333333" points="851.3203,1487.4531,841.3203,1491.4531,851.3203,1495.4531,847.3203,1491.4531" style="stroke:#333333;stroke-width:1;"/><line style="stroke:#333333;stroke-width:1;stroke-dasharray:2,2;" x1="845.3203" x2="1391.3442" y1="1491.4531" y2="1491.4531"/><text fill="#000000" font-family="sans-serif" font-size="13" font-weight="bold" lengthAdjust="spacing" textLength="14.46" x="857.3203" y="1486.5967">34</text><text fill="#000000" font-family="sans-serif" font-size="13" lengthAdjust="spacing" textLength="59.9917" x="875.7803" y="1486.5967">Log saved</text></g><g class="message" data-participant-1="PAW" data-participant-2="AIC"><polygon fill="#333333" points="460.8599,1517.8047,450.8599,1521.8047,460.8599,1525.8047,456.8599,1521.8047" style="stroke:#333333;stroke-width:1;"/><line style="stroke:#333333;stroke-width:1;stroke-dasharray:2,2;" x1="454.8599" x2="834.3203" y1="1521.8047" y2="1521.8047"/><text fill="#000000" font-family="sans-serif" font-size="13" font-weight="bold" lengthAdjust="spacing" textLength="14.46" x="466.8599" y="1516.9482">35</text><text fill="#000000" font-family="sans-serif" font-size="13" lengthAdjust="spacing" textLength="54.9263" x="485.3198" y="1516.9482">Canceled</text></g><g class="message" data-participant-1="AIC" data-participant-2="FE"><polygon fill="#333333" points="269.6318,1548.1563,259.6318,1552.1563,269.6318,1556.1563,265.6318,1552.1563" style="stroke:#333333;stroke-width:1;"/><line style="stroke:#333333;stroke-width:1;stroke-dasharray:2,2;" x1="263.6318" x2="443.8599" y1="1552.1563" y2="1552.1563"/><text fill="#000000" font-family="sans-serif" font-size="13" font-weight="bold" lengthAdjust="spacing" textLength="14.46" x="275.6318" y="1547.2998">36</text><text fill="#000000" font-family="sans-serif" font-size="13" lengthAdjust="spacing" textLength="54.9263" x="294.0918" y="1547.2998">Canceled</text></g><g class="message" data-participant-1="FE" data-participant-2="U"><polygon fill="#333333" points="53.7793,1578.5078,43.7793,1582.5078,53.7793,1586.5078,49.7793,1582.5078" style="stroke:#333333;stroke-width:1;"/><line style="stroke:#333333;stroke-width:1;stroke-dasharray:2,2;" x1="47.7793" x2="247.6318" y1="1582.5078" y2="1582.5078"/><text fill="#000000" font-family="sans-serif" font-size="13" font-weight="bold" lengthAdjust="spacing" textLength="14.46" x="59.7793" y="1577.6514">37</text><text fill="#000000" font-family="sans-serif" font-size="13" lengthAdjust="spacing" textLength="119.9644" x="78.2393" y="1577.6514">Show canceled state</text></g><!--SRC=[jLLTQzim57tNhxYqBnkiv66CGXY3B6v7mQEXNjQNmL1i9H6H9K-IasPZ_trNaZza9otRmnpYMBhdVkYUSnrQMoNhSiKqsVA2mLefkr9FnEouhAYc9QneljjeLSjYheJISDXoooAxOJzg9dC6lmZ0J6jr2BZBj_x2pPIlMSeb-wXqmNHZlVPNR1tbkRpr5o8ML5kUyufAUpv433Y9Skq-hhJSAZtmV-UlplHC_j-4K6U7fM4Qg84bMJaKrKUurKfQ9WktVNj3Sbnf9M1sDmzF8dZWEh9bJEyvziiRiiwmm3XSRh0MhkIZqhkrK0S7MimUEr2YIifb5279I44jNL73u29OmMrSU6D2cBJS7Z7Hz_J-K-PpfeGiuUe35Zo5cTcX3Qo2YkcrqYLGE6Wa6AYlmnsTxockb_qZdfJSthWGUB0fPAu1-PRQYLLOedPwCBQ7kzCJl0M739DAAeu_MOi4YlxUDQT2n7wPyykS7_PW2dFDt7uL6jLK-4qUkDr2fTcUiuEFvNLf-a2kWVZjucJ8vccOL-7XhdW3DJBjVWqpfjbYJnNNnzV3e0KRBDiaitGA3on7gOsIH6TBoInjiNSIyzaEAzHc08oouChbU7zrvHrJjG53zwmOONpN7CWVjpsNxusfonALEoxTqUEZEduMWwAndKUXw307KeCA21ue0PJxckkIUhoZbUjHKQY1fSSxrMLRL7RZ0nEOKtnz21mpOSEGvS5aS3GxfRRmffC0aG8NzzaNc50-2KOpQG8WQgX2W4Q7GKzRbkz07IJJPikhZk-MxTZTDGaWLj5NAdX1kqa1Ot5nwZBMI1SamKxVFB6yHijWvA8GEDs0DmzFfh2iVCAY7_C1E77Wf0Kly5GSfwkiBJs9cmmh2wv1CtsYuWoebLzVVQ3SrCAEu5bqs6Wa6cvOqNl5saMAneEHn-foqp7s6Ag_Bt8u8sDSeuPkJh8wpr40fvnvhNLQFmjpwd9Y7IYy3bribC44lgA3lBtUX-hsMtyfxZ0kBslxCzMxLfd1mNVW1Jq_i5Bjnw_5Vz1pJB5FA4vazmoz4Ve_qZllk_0Yl-TnPmbk6zioB0iIl_JmVp9QBSaV]--></g></svg>