<?xml version="1.0" encoding="UTF-8" standalone="no"?>
<!DOCTYPE svg PUBLIC "-//W3C//DTD SVG 1.1//EN"
 "http://www.w3.org/Graphics/SVG/1.1/DTD/svg11.dtd">
<!-- Generated by graphviz version 14.0.0 (20250921.2048)
 -->
<!-- Title: G Pages: 1 -->
<svg width="710pt" height="148pt"
 viewBox="0.00 0.00 710.00 148.00" xmlns="http://www.w3.org/2000/svg" xmlns:xlink="http://www.w3.org/1999/xlink">
<g id="graph0" class="graph" transform="scale(1 1) rotate(0) translate(18 130.02)">
<title>G</title>
<polygon fill="white" stroke="none" points="-18,18 -18,-130.02 691.9,-130.02 691.9,18 -18,18"/>
<!-- event -->
<g id="node1" class="node">
<title>event</title>
<path fill="#fff7ed" stroke="#f97316" stroke-width="1.2" d="M88.53,-74.01C88.53,-74.01 12,-74.01 12,-74.01 6,-74.01 0,-68.01 0,-62.01 0,-62.01 0,-50.01 0,-50.01 0,-44.01 6,-38.01 12,-38.01 12,-38.01 88.53,-38.01 88.53,-38.01 94.53,-38.01 100.53,-44.01 100.53,-50.01 100.53,-50.01 100.53,-62.01 100.53,-62.01 100.53,-68.01 94.53,-74.01 88.53,-74.01"/>
<text xml:space="preserve" text-anchor="middle" x="50.26" y="-51.73" font-family="Arial" font-size="12.00" fill="#7c2d12">Business Event</text>
</g>
<!-- save -->
<g id="node2" class="node">
<title>save</title>
<path fill="#ecfdf5" stroke="#059669" stroke-width="1.2" d="M224.56,-78.52C224.56,-81.28 206.4,-83.52 184.04,-83.52 161.69,-83.52 143.53,-81.28 143.53,-78.52 143.53,-78.52 143.53,-33.5 143.53,-33.5 143.53,-30.74 161.69,-28.5 184.04,-28.5 206.4,-28.5 224.56,-30.74 224.56,-33.5 224.56,-33.5 224.56,-78.52 224.56,-78.52"/>
<path fill="none" stroke="#059669" stroke-width="1.2" d="M224.56,-78.52C224.56,-75.76 206.4,-73.52 184.04,-73.52 161.69,-73.52 143.53,-75.76 143.53,-78.52"/>
<text xml:space="preserve" text-anchor="middle" x="184.04" y="-58.86" font-family="Arial" font-size="12.00" fill="#064e3b">notifications</text>
<text xml:space="preserve" text-anchor="middle" x="184.04" y="-44.61" font-family="Arial" font-size="12.00" fill="#064e3b">Table</text>
</g>
<!-- event&#45;&gt;save -->
<g id="edge1" class="edge">
<title>event&#45;&gt;save</title>
<path fill="none" stroke="#475569" stroke-width="1.1" d="M101.09,-56.01C112.01,-56.01 123.57,-56.01 134.45,-56.01"/>
<polygon fill="#475569" stroke="#475569" stroke-width="1.1" points="134.34,-58.46 141.34,-56.01 134.34,-53.56 134.34,-58.46"/>
</g>
<!-- sse -->
<g id="node3" class="node">
<title>sse</title>
<path fill="#eef2ff" stroke="#4f46e5" stroke-width="1.2" d="M339.59,-112.02C339.59,-112.02 281.06,-112.02 281.06,-112.02 275.06,-112.02 269.06,-106.02 269.06,-100.02 269.06,-100.02 269.06,-84 269.06,-84 269.06,-78 275.06,-72 281.06,-72 281.06,-72 339.59,-72 339.59,-72 345.59,-72 351.59,-78 351.59,-84 351.59,-84 351.59,-100.02 351.59,-100.02 351.59,-106.02 345.59,-112.02 339.59,-112.02"/>
<text xml:space="preserve" text-anchor="middle" x="310.32" y="-94.86" font-family="Arial" font-size="12.00" fill="#1e1b4b">SSE Emitter</text>
<text xml:space="preserve" text-anchor="middle" x="310.32" y="-80.61" font-family="Arial" font-size="12.00" fill="#1e1b4b">per User</text>
</g>
<!-- save&#45;&gt;sse -->
<g id="edge2" class="edge">
<title>save&#45;&gt;sse</title>
<path fill="none" stroke="#475569" stroke-width="1.1" d="M225.05,-67.6C236.35,-70.87 248.78,-74.47 260.53,-77.88"/>
<polygon fill="#475569" stroke="#475569" stroke-width="1.1" points="259.54,-80.14 266.94,-79.73 260.9,-75.43 259.54,-80.14"/>
</g>
<!-- push -->
<g id="node4" class="node">
<title>push</title>
<path fill="#fdf2f8" stroke="#db2777" stroke-width="1.2" d="M341.09,-40.02C341.09,-40.02 279.56,-40.02 279.56,-40.02 273.56,-40.02 267.56,-34.02 267.56,-28.02 267.56,-28.02 267.56,-12 267.56,-12 267.56,-6 273.56,0 279.56,0 279.56,0 341.09,0 341.09,0 347.09,0 353.09,-6 353.09,-12 353.09,-12 353.09,-28.02 353.09,-28.02 353.09,-34.02 347.09,-40.02 341.09,-40.02"/>
<text xml:space="preserve" text-anchor="middle" x="310.32" y="-22.86" font-family="Arial" font-size="12.00" fill="#831843">OneSignal</text>
<text xml:space="preserve" text-anchor="middle" x="310.32" y="-8.61" font-family="Arial" font-size="12.00" fill="#831843">if Configured</text>
</g>
<!-- save&#45;&gt;push -->
<g id="edge3" class="edge">
<title>save&#45;&gt;push</title>
<path fill="none" stroke="#475569" stroke-width="1.1" d="M225.05,-44.42C235.9,-41.28 247.79,-37.84 259.12,-34.55"/>
<polygon fill="#475569" stroke="#475569" stroke-width="1.1" points="259.61,-36.96 265.65,-32.66 258.25,-32.25 259.61,-36.96"/>
</g>
<!-- online -->
<g id="node5" class="node">
<title>online</title>
<path fill="#eef6ff" stroke="#2563eb" stroke-width="1.2" d="M486.12,-112.02C486.12,-112.02 429.09,-112.02 429.09,-112.02 423.09,-112.02 417.09,-106.02 417.09,-100.02 417.09,-100.02 417.09,-84 417.09,-84 417.09,-78 423.09,-72 429.09,-72 429.09,-72 486.12,-72 486.12,-72 492.12,-72 498.12,-78 498.12,-84 498.12,-84 498.12,-100.02 498.12,-100.02 498.12,-106.02 492.12,-112.02 486.12,-112.02"/>
<text xml:space="preserve" text-anchor="middle" x="457.6" y="-94.86" font-family="Arial" font-size="12.00" fill="#172554">User Online</text>
<text xml:space="preserve" text-anchor="middle" x="457.6" y="-80.61" font-family="Arial" font-size="12.00" fill="#172554">in App</text>
</g>
<!-- sse&#45;&gt;online -->
<g id="edge4" class="edge">
<title>sse&#45;&gt;online</title>
<path fill="none" stroke="#475569" stroke-width="1.1" d="M352.18,-92.01C369.65,-92.01 390.17,-92.01 408.38,-92.01"/>
<polygon fill="#475569" stroke="#475569" stroke-width="1.1" points="407.89,-94.46 414.89,-92.01 407.89,-89.56 407.89,-94.46"/>
</g>
<!-- offline -->
<g id="node6" class="node">
<title>offline</title>
<path fill="#eef6ff" stroke="#2563eb" stroke-width="1.2" d="M507.12,-40.02C507.12,-40.02 408.09,-40.02 408.09,-40.02 402.09,-40.02 396.09,-34.02 396.09,-28.02 396.09,-28.02 396.09,-12 396.09,-12 396.09,-6 402.09,0 408.09,0 408.09,0 507.12,0 507.12,0 513.12,0 519.12,-6 519.12,-12 519.12,-12 519.12,-28.02 519.12,-28.02 519.12,-34.02 513.12,-40.02 507.12,-40.02"/>
<text xml:space="preserve" text-anchor="middle" x="457.6" y="-22.86" font-family="Arial" font-size="12.00" fill="#172554">Registered Browser</text>
<text xml:space="preserve" text-anchor="middle" x="457.6" y="-8.61" font-family="Arial" font-size="12.00" fill="#172554">or Device</text>
</g>
<!-- push&#45;&gt;offline -->
<g id="edge6" class="edge">
<title>push&#45;&gt;offline</title>
<path fill="none" stroke="#475569" stroke-width="1.1" d="M353.35,-20.01C363.93,-20.01 375.58,-20.01 387.13,-20.01"/>
<polygon fill="#475569" stroke="#475569" stroke-width="1.1" points="386.83,-22.46 393.83,-20.01 386.83,-17.56 386.83,-22.46"/>
</g>
<!-- ui -->
<g id="node7" class="node">
<title>ui</title>
<path fill="#f0fdf4" stroke="#16a34a" stroke-width="1.2" d="M661.9,-112.02C661.9,-112.02 574.12,-112.02 574.12,-112.02 568.12,-112.02 562.12,-106.02 562.12,-100.02 562.12,-100.02 562.12,-84 562.12,-84 562.12,-78 568.12,-72 574.12,-72 574.12,-72 661.9,-72 661.9,-72 667.9,-72 673.9,-78 673.9,-84 673.9,-84 673.9,-100.02 673.9,-100.02 673.9,-106.02 667.9,-112.02 661.9,-112.02"/>
<text xml:space="preserve" text-anchor="middle" x="618.01" y="-94.86" font-family="Arial" font-size="12.00" fill="#14532d">Update Badge /</text>
<text xml:space="preserve" text-anchor="middle" x="618.01" y="-80.61" font-family="Arial" font-size="12.00" fill="#14532d">Notification Panel</text>
</g>
<!-- online&#45;&gt;ui -->
<g id="edge5" class="edge">
<title>online&#45;&gt;ui</title>
<path fill="none" stroke="#475569" stroke-width="1.1" d="M498.58,-92.01C515.11,-92.01 534.7,-92.01 553.14,-92.01"/>
<polygon fill="#475569" stroke="#475569" stroke-width="1.1" points="553.13,-94.46 560.13,-92.01 553.13,-89.56 553.13,-94.46"/>
</g>
<!-- browser -->
<g id="node8" class="node">
<title>browser</title>
<path fill="#f0fdf4" stroke="#16a34a" stroke-width="1.2" d="M644.65,-40.02C644.65,-40.02 591.37,-40.02 591.37,-40.02 585.37,-40.02 579.37,-34.02 579.37,-28.02 579.37,-28.02 579.37,-12 579.37,-12 579.37,-6 585.37,0 591.37,0 591.37,0 644.65,0 644.65,0 650.65,0 656.65,-6 656.65,-12 656.65,-12 656.65,-28.02 656.65,-28.02 656.65,-34.02 650.65,-40.02 644.65,-40.02"/>
<text xml:space="preserve" text-anchor="middle" x="618.01" y="-22.86" font-family="Arial" font-size="12.00" fill="#14532d">Push</text>
<text xml:space="preserve" text-anchor="middle" x="618.01" y="-8.61" font-family="Arial" font-size="12.00" fill="#14532d">Notification</text>
</g>
<!-- offline&#45;&gt;browser -->
<g id="edge7" class="edge">
<title>offline&#45;&gt;browser</title>
<path fill="none" stroke="#475569" stroke-width="1.1" d="M519.4,-20.01C536.33,-20.01 554.45,-20.01 570.42,-20.01"/>
<polygon fill="#475569" stroke="#475569" stroke-width="1.1" points="570.39,-22.46 577.39,-20.01 570.39,-17.56 570.39,-22.46"/>
</g>
</g>
</svg>
