<?xml version="1.0" encoding="UTF-8" standalone="no"?>
<!DOCTYPE svg PUBLIC "-//W3C//DTD SVG 1.1//EN"
 "http://www.w3.org/Graphics/SVG/1.1/DTD/svg11.dtd">
<!-- Generated by graphviz version 14.0.0 (20250921.2048)
 -->
<!-- Title: JiraWorkflow Pages: 1 -->
<svg width="743pt" height="208pt"
 viewBox="0.00 0.00 743.00 208.00" xmlns="http://www.w3.org/2000/svg" xmlns:xlink="http://www.w3.org/1999/xlink">
<g id="graph0" class="graph" transform="scale(1 1) rotate(0) translate(18 190)">
<title>JiraWorkflow</title>
<polygon fill="white" stroke="none" points="-18,18 -18,-190 725.12,-190 725.12,18 -18,18"/>
<!-- Backlog -->
<g id="node1" class="node">
<title>Backlog</title>
<path fill="#f8fafc" stroke="#65758b" d="M69.78,-104C69.78,-104 12,-104 12,-104 6,-104 0,-98 0,-92 0,-92 0,-80 0,-80 0,-74 6,-68 12,-68 12,-68 69.78,-68 69.78,-68 75.78,-68 81.78,-74 81.78,-80 81.78,-80 81.78,-92 81.78,-92 81.78,-98 75.78,-104 69.78,-104"/>
<text xml:space="preserve" text-anchor="middle" x="40.89" y="-81.72" font-family="Arial" font-size="12.00">Jira backlog</text>
</g>
<!-- Sprint -->
<g id="node2" class="node">
<title>Sprint</title>
<path fill="#f8fafc" stroke="#65758b" d="M163.78,-104C163.78,-104 133.78,-104 133.78,-104 127.78,-104 121.78,-98 121.78,-92 121.78,-92 121.78,-80 121.78,-80 121.78,-74 127.78,-68 133.78,-68 133.78,-68 163.78,-68 163.78,-68 169.78,-68 175.78,-74 175.78,-80 175.78,-80 175.78,-92 175.78,-92 175.78,-98 169.78,-104 163.78,-104"/>
<text xml:space="preserve" text-anchor="middle" x="148.78" y="-81.72" font-family="Arial" font-size="12.00">Sprint</text>
</g>
<!-- Backlog&#45;&gt;Sprint -->
<g id="edge1" class="edge">
<title>Backlog&#45;&gt;Sprint</title>
<path fill="none" stroke="#475569" d="M82.22,-86C92.35,-86 103.13,-86 112.96,-86"/>
<polygon fill="#475569" stroke="#475569" points="112.8,-88.45 119.8,-86 112.8,-83.55 112.8,-88.45"/>
</g>
<!-- Todo -->
<g id="node3" class="node">
<title>Todo</title>
<path fill="#f8fafc" stroke="#65758b" d="M292.29,-172C292.29,-172 262.29,-172 262.29,-172 256.29,-172 250.29,-166 250.29,-160 250.29,-160 250.29,-148 250.29,-148 250.29,-142 256.29,-136 262.29,-136 262.29,-136 292.29,-136 292.29,-136 298.29,-136 304.29,-142 304.29,-148 304.29,-148 304.29,-160 304.29,-160 304.29,-166 298.29,-172 292.29,-172"/>
<text xml:space="preserve" text-anchor="middle" x="277.29" y="-149.72" font-family="Arial" font-size="12.00">To Do</text>
</g>
<!-- Sprint&#45;&gt;Todo -->
<g id="edge2" class="edge">
<title>Sprint&#45;&gt;Todo</title>
<path fill="none" stroke="#475569" d="M175.99,-100.09C195.33,-110.48 221.8,-124.71 242.69,-135.94"/>
<polygon fill="#475569" stroke="#475569" points="241.46,-138.06 248.78,-139.21 243.78,-133.74 241.46,-138.06"/>
</g>
<!-- Reports -->
<g id="node7" class="node">
<title>Reports</title>
<path fill="#f8fafc" stroke="#65758b" d="M326.81,-104C326.81,-104 227.78,-104 227.78,-104 221.78,-104 215.78,-98 215.78,-92 215.78,-92 215.78,-80 215.78,-80 215.78,-74 221.78,-68 227.78,-68 227.78,-68 326.81,-68 326.81,-68 332.81,-68 338.81,-74 338.81,-80 338.81,-80 338.81,-92 338.81,-92 338.81,-98 332.81,-104 326.81,-104"/>
<text xml:space="preserve" text-anchor="middle" x="277.29" y="-81.72" font-family="Arial" font-size="12.00">Burndown / Reports</text>
</g>
<!-- Sprint&#45;&gt;Reports -->
<g id="edge6" class="edge">
<title>Sprint&#45;&gt;Reports</title>
<path fill="none" stroke="#475569" d="M175.99,-86C185.16,-86 195.94,-86 206.96,-86"/>
<polygon fill="#475569" stroke="#475569" points="206.9,-88.45 213.9,-86 206.9,-83.55 206.9,-88.45"/>
</g>
<!-- Workflow -->
<g id="node8" class="node">
<title>Workflow</title>
<path fill="#f8fafc" stroke="#65758b" d="M319.68,-36C319.68,-36 234.9,-36 234.9,-36 228.9,-36 222.9,-30 222.9,-24 222.9,-24 222.9,-12 222.9,-12 222.9,-6 228.9,0 234.9,0 234.9,0 319.68,0 319.68,0 325.68,0 331.68,-6 331.68,-12 331.68,-12 331.68,-24 331.68,-24 331.68,-30 325.68,-36 319.68,-36"/>
<text xml:space="preserve" text-anchor="middle" x="277.29" y="-13.72" font-family="Arial" font-size="12.00">Custom workflow</text>
</g>
<!-- Sprint&#45;&gt;Workflow -->
<g id="edge7" class="edge">
<title>Sprint&#45;&gt;Workflow</title>
<path fill="none" stroke="#475569" d="M175.99,-71.91C192.94,-62.8 215.35,-50.75 234.7,-40.36"/>
<polygon fill="#475569" stroke="#475569" points="235.6,-42.65 240.61,-37.18 233.28,-38.34 235.6,-42.65"/>
</g>
<!-- Progress -->
<g id="node4" class="node">
<title>Progress</title>
<path fill="#f8fafc" stroke="#65758b" d="M444.84,-172C444.84,-172 390.81,-172 390.81,-172 384.81,-172 378.81,-166 378.81,-160 378.81,-160 378.81,-148 378.81,-148 378.81,-142 384.81,-136 390.81,-136 390.81,-136 444.84,-136 444.84,-136 450.84,-136 456.84,-142 456.84,-148 456.84,-148 456.84,-160 456.84,-160 456.84,-166 450.84,-172 444.84,-172"/>
<text xml:space="preserve" text-anchor="middle" x="417.82" y="-149.72" font-family="Arial" font-size="12.00">In Progress</text>
</g>
<!-- Todo&#45;&gt;Progress -->
<g id="edge3" class="edge">
<title>Todo&#45;&gt;Progress</title>
<path fill="none" stroke="#475569" d="M304.68,-154C323.11,-154 348.23,-154 370.02,-154"/>
<polygon fill="#475569" stroke="#475569" points="369.98,-156.45 376.98,-154 369.98,-151.55 369.98,-156.45"/>
</g>
<!-- Review -->
<g id="node5" class="node">
<title>Review</title>
<path fill="#f8fafc" stroke="#65758b" d="M601.12,-172C601.12,-172 508.84,-172 508.84,-172 502.84,-172 496.84,-166 496.84,-160 496.84,-160 496.84,-148 496.84,-148 496.84,-142 502.84,-136 508.84,-136 508.84,-136 601.12,-136 601.12,-136 607.12,-136 613.12,-142 613.12,-148 613.12,-148 613.12,-160 613.12,-160 613.12,-166 607.12,-172 601.12,-172"/>
<text xml:space="preserve" text-anchor="middle" x="554.98" y="-149.72" font-family="Arial" font-size="12.00">Code Review / QA</text>
</g>
<!-- Progress&#45;&gt;Review -->
<g id="edge4" class="edge">
<title>Progress&#45;&gt;Review</title>
<path fill="none" stroke="#475569" d="M457.19,-154C466.86,-154 477.52,-154 488.12,-154"/>
<polygon fill="#475569" stroke="#475569" points="488.07,-156.45 495.07,-154 488.07,-151.55 488.07,-156.45"/>
</g>
<!-- Done -->
<g id="node6" class="node">
<title>Done</title>
<path fill="#f0fdf4" stroke="#16a34a" d="M695.12,-172C695.12,-172 665.12,-172 665.12,-172 659.12,-172 653.12,-166 653.12,-160 653.12,-160 653.12,-148 653.12,-148 653.12,-142 659.12,-136 665.12,-136 665.12,-136 695.12,-136 695.12,-136 701.12,-136 707.12,-142 707.12,-148 707.12,-148 707.12,-160 707.12,-160 707.12,-166 701.12,-172 695.12,-172"/>
<text xml:space="preserve" text-anchor="middle" x="680.12" y="-149.72" font-family="Arial" font-size="12.00">Done</text>
</g>
<!-- Review&#45;&gt;Done -->
<g id="edge5" class="edge">
<title>Review&#45;&gt;Done</title>
<path fill="none" stroke="#475569" d="M613.58,-154C624.13,-154 634.83,-154 644.44,-154"/>
<polygon fill="#475569" stroke="#475569" points="644.41,-156.45 651.41,-154 644.41,-151.55 644.41,-156.45"/>
</g>
</g>
</svg>
