<?xml version="1.0" encoding="UTF-8" standalone="no"?>
<!DOCTYPE svg PUBLIC "-//W3C//DTD SVG 1.1//EN"
 "http://www.w3.org/Graphics/SVG/1.1/DTD/svg11.dtd">
<!-- Generated by graphviz version 14.0.0 (20250921.2048)
 -->
<!-- Title: G Pages: 1 -->
<svg width="595pt" height="236pt"
 viewBox="0.00 0.00 595.00 236.00" xmlns="http://www.w3.org/2000/svg" xmlns:xlink="http://www.w3.org/1999/xlink">
<g id="graph0" class="graph" transform="scale(1 1) rotate(0) translate(18 217.52)">
<title>G</title>
<polygon fill="white" stroke="none" points="-18,18 -18,-217.52 576.87,-217.52 576.87,18 -18,18"/>
<!-- frontend -->
<g id="node1" class="node">
<title>frontend</title>
<path fill="#eef6ff" stroke="#2563eb" stroke-width="1.2" d="M106.53,-40.02C106.53,-40.02 12,-40.02 12,-40.02 6,-40.02 0,-34.02 0,-28.02 0,-28.02 0,-12 0,-12 0,-6 6,0 12,0 12,0 106.53,0 106.53,0 112.53,0 118.53,-6 118.53,-12 118.53,-12 118.53,-28.02 118.53,-28.02 118.53,-34.02 112.53,-40.02 106.53,-40.02"/>
<text xml:space="preserve" text-anchor="middle" x="59.26" y="-22.86" font-family="Arial" font-size="12.00" fill="#172554">Frontend Initializes</text>
<text xml:space="preserve" text-anchor="middle" x="59.26" y="-8.61" font-family="Arial" font-size="12.00" fill="#172554">OneSignal SDK</text>
</g>
<!-- subscription -->
<g id="node2" class="node">
<title>subscription</title>
<path fill="#eef6ff" stroke="#2563eb" stroke-width="1.2" d="M246.31,-40.02C246.31,-40.02 186.28,-40.02 186.28,-40.02 180.28,-40.02 174.28,-34.02 174.28,-28.02 174.28,-28.02 174.28,-12 174.28,-12 174.28,-6 180.28,0 186.28,0 186.28,0 246.31,0 246.31,0 252.31,0 258.31,-6 258.31,-12 258.31,-12 258.31,-28.02 258.31,-28.02 258.31,-34.02 252.31,-40.02 246.31,-40.02"/>
<text xml:space="preserve" text-anchor="middle" x="216.29" y="-22.86" font-family="Arial" font-size="12.00" fill="#172554">Browser</text>
<text xml:space="preserve" text-anchor="middle" x="216.29" y="-8.61" font-family="Arial" font-size="12.00" fill="#172554">Subscription</text>
</g>
<!-- frontend&#45;&gt;subscription -->
<g id="edge1" class="edge">
<title>frontend&#45;&gt;subscription</title>
<path fill="none" stroke="#475569" stroke-width="1.1" d="M118.88,-20.01C134.21,-20.01 150.61,-20.01 165.44,-20.01"/>
<polygon fill="#475569" stroke="#475569" stroke-width="1.1" points="165.31,-22.46 172.31,-20.01 165.31,-17.56 165.31,-22.46"/>
</g>
<!-- link -->
<g id="node3" class="node">
<title>link</title>
<path fill="#eef2ff" stroke="#4f46e5" stroke-width="1.2" d="M411.59,-40.02C411.59,-40.02 326.06,-40.02 326.06,-40.02 320.06,-40.02 314.06,-34.02 314.06,-28.02 314.06,-28.02 314.06,-12 314.06,-12 314.06,-6 320.06,0 326.06,0 326.06,0 411.59,0 411.59,0 417.59,0 423.59,-6 423.59,-12 423.59,-12 423.59,-28.02 423.59,-28.02 423.59,-34.02 417.59,-40.02 411.59,-40.02"/>
<text xml:space="preserve" text-anchor="middle" x="368.82" y="-22.86" font-family="Arial" font-size="12.00" fill="#1e1b4b">Link Subscription</text>
<text xml:space="preserve" text-anchor="middle" x="368.82" y="-8.61" font-family="Arial" font-size="12.00" fill="#1e1b4b">to User ID</text>
</g>
<!-- subscription&#45;&gt;link -->
<g id="edge2" class="edge">
<title>subscription&#45;&gt;link</title>
<path fill="none" stroke="#475569" stroke-width="1.1" d="M258.83,-20.01C273.14,-20.01 289.52,-20.01 305.14,-20.01"/>
<polygon fill="#475569" stroke="#475569" stroke-width="1.1" points="305.07,-22.46 312.07,-20.01 305.07,-17.56 305.07,-22.46"/>
</g>
<!-- event -->
<g id="node4" class="node">
<title>event</title>
<path fill="#fff7ed" stroke="#f97316" stroke-width="1.2" d="M91.53,-152.02C91.53,-152.02 27,-152.02 27,-152.02 21,-152.02 15,-146.02 15,-140.02 15,-140.02 15,-124 15,-124 15,-118 21,-112 27,-112 27,-112 91.53,-112 91.53,-112 97.53,-112 103.53,-118 103.53,-124 103.53,-124 103.53,-140.02 103.53,-140.02 103.53,-146.02 97.53,-152.02 91.53,-152.02"/>
<text xml:space="preserve" text-anchor="middle" x="59.26" y="-134.86" font-family="Arial" font-size="12.00" fill="#7c2d12">Task / Project</text>
<text xml:space="preserve" text-anchor="middle" x="59.26" y="-120.61" font-family="Arial" font-size="12.00" fill="#7c2d12">Event</text>
</g>
<!-- backend -->
<g id="node5" class="node">
<title>backend</title>
<path fill="#eef2ff" stroke="#4f46e5" stroke-width="1.2" d="M259.06,-152.02C259.06,-152.02 173.53,-152.02 173.53,-152.02 167.53,-152.02 161.53,-146.02 161.53,-140.02 161.53,-140.02 161.53,-124 161.53,-124 161.53,-118 167.53,-112 173.53,-112 173.53,-112 259.06,-112 259.06,-112 265.06,-112 271.06,-118 271.06,-124 271.06,-124 271.06,-140.02 271.06,-140.02 271.06,-146.02 265.06,-152.02 259.06,-152.02"/>
<text xml:space="preserve" text-anchor="middle" x="216.29" y="-134.86" font-family="Arial" font-size="12.00" fill="#1e1b4b">Backend Creates</text>
<text xml:space="preserve" text-anchor="middle" x="216.29" y="-120.61" font-family="Arial" font-size="12.00" fill="#1e1b4b">Notification</text>
</g>
<!-- event&#45;&gt;backend -->
<g id="edge3" class="edge">
<title>event&#45;&gt;backend</title>
<path fill="none" stroke="#475569" stroke-width="1.1" d="M103.86,-132.01C118.96,-132.01 136.2,-132.01 152.53,-132.01"/>
<polygon fill="#475569" stroke="#475569" stroke-width="1.1" points="152.31,-134.46 159.31,-132.01 152.31,-129.56 152.31,-134.46"/>
</g>
<!-- database -->
<g id="node6" class="node">
<title>database</title>
<path fill="#ecfdf5" stroke="#059669" stroke-width="1.2" d="M409.34,-194.52C409.34,-197.28 391.18,-199.52 368.82,-199.52 346.47,-199.52 328.31,-197.28 328.31,-194.52 328.31,-194.52 328.31,-149.5 328.31,-149.5 328.31,-146.74 346.47,-144.5 368.82,-144.5 391.18,-144.5 409.34,-146.74 409.34,-149.5 409.34,-149.5 409.34,-194.52 409.34,-194.52"/>
<path fill="none" stroke="#059669" stroke-width="1.2" d="M409.34,-194.52C409.34,-191.76 391.18,-189.52 368.82,-189.52 346.47,-189.52 328.31,-191.76 328.31,-194.52"/>
<text xml:space="preserve" text-anchor="middle" x="368.82" y="-174.86" font-family="Arial" font-size="12.00" fill="#064e3b">notifications</text>
<text xml:space="preserve" text-anchor="middle" x="368.82" y="-160.61" font-family="Arial" font-size="12.00" fill="#064e3b">Table</text>
</g>
<!-- backend&#45;&gt;database -->
<g id="edge4" class="edge">
<title>backend&#45;&gt;database</title>
<path fill="none" stroke="#475569" stroke-width="1.1" d="M271.64,-146.45C287.27,-150.6 304.21,-155.11 319.46,-159.16"/>
<polygon fill="#475569" stroke="#475569" stroke-width="1.1" points="318.73,-161.5 326.12,-160.93 319.99,-156.76 318.73,-161.5"/>
</g>
<!-- onesignal -->
<g id="node7" class="node">
<title>onesignal</title>
<path fill="#fdf2f8" stroke="#db2777" stroke-width="1.2" d="M393.96,-112.02C393.96,-112.02 343.69,-112.02 343.69,-112.02 337.69,-112.02 331.69,-106.02 331.69,-100.02 331.69,-100.02 331.69,-84 331.69,-84 331.69,-78 337.69,-72 343.69,-72 343.69,-72 393.96,-72 393.96,-72 399.96,-72 405.96,-78 405.96,-84 405.96,-84 405.96,-100.02 405.96,-100.02 405.96,-106.02 399.96,-112.02 393.96,-112.02"/>
<text xml:space="preserve" text-anchor="middle" x="368.82" y="-94.86" font-family="Arial" font-size="12.00" fill="#831843">OneSignal</text>
<text xml:space="preserve" text-anchor="middle" x="368.82" y="-80.61" font-family="Arial" font-size="12.00" fill="#831843">REST API</text>
</g>
<!-- backend&#45;&gt;onesignal -->
<g id="edge5" class="edge">
<title>backend&#45;&gt;onesignal</title>
<path fill="none" stroke="#475569" stroke-width="1.1" d="M271.64,-117.57C288.56,-113.07 307.02,-108.17 323.2,-103.87"/>
<polygon fill="#475569" stroke="#475569" stroke-width="1.1" points="323.69,-106.27 329.82,-102.11 322.43,-101.54 323.69,-106.27"/>
</g>
<!-- browser -->
<g id="node8" class="node">
<title>browser</title>
<path fill="#f0fdf4" stroke="#16a34a" stroke-width="1.2" d="M546.87,-112.02C546.87,-112.02 478.59,-112.02 478.59,-112.02 472.59,-112.02 466.59,-106.02 466.59,-100.02 466.59,-100.02 466.59,-84 466.59,-84 466.59,-78 472.59,-72 478.59,-72 478.59,-72 546.87,-72 546.87,-72 552.87,-72 558.87,-78 558.87,-84 558.87,-84 558.87,-100.02 558.87,-100.02 558.87,-106.02 552.87,-112.02 546.87,-112.02"/>
<text xml:space="preserve" text-anchor="middle" x="512.73" y="-94.86" font-family="Arial" font-size="12.00" fill="#14532d">Browser Push</text>
<text xml:space="preserve" text-anchor="middle" x="512.73" y="-80.61" font-family="Arial" font-size="12.00" fill="#14532d">Notification</text>
</g>
<!-- onesignal&#45;&gt;browser -->
<g id="edge6" class="edge">
<title>onesignal&#45;&gt;browser</title>
<path fill="none" stroke="#475569" stroke-width="1.1" d="M406.37,-92.01C422.04,-92.01 440.66,-92.01 457.85,-92.01"/>
<polygon fill="#475569" stroke="#475569" stroke-width="1.1" points="457.5,-94.46 464.5,-92.01 457.5,-89.56 457.5,-94.46"/>
</g>
</g>
</svg>
