<?xml version="1.0" encoding="UTF-8" standalone="no"?>
<!DOCTYPE svg PUBLIC "-//W3C//DTD SVG 1.1//EN"
 "http://www.w3.org/Graphics/SVG/1.1/DTD/svg11.dtd">
<!-- Generated by graphviz version 14.0.0 (20250921.2048)
 -->
<!-- Title: G Pages: 1 -->
<svg width="1366pt" height="76pt"
 viewBox="0.00 0.00 1366.00 76.00" xmlns="http://www.w3.org/2000/svg" xmlns:xlink="http://www.w3.org/1999/xlink">
<g id="graph0" class="graph" transform="scale(1 1) rotate(0) translate(18 58.02)">
<title>G</title>
<polygon fill="white" stroke="none" points="-18,18 -18,-58.02 1348.49,-58.02 1348.49,18 -18,18"/>
<!-- login -->
<g id="node1" class="node">
<title>login</title>
<path fill="#fff7ed" stroke="#f97316" stroke-width="1.2" d="M42,-38.01C42,-38.01 12,-38.01 12,-38.01 6,-38.01 0,-32.01 0,-26.01 0,-26.01 0,-14.01 0,-14.01 0,-8.01 6,-2.01 12,-2.01 12,-2.01 42,-2.01 42,-2.01 48,-2.01 54,-8.01 54,-14.01 54,-14.01 54,-26.01 54,-26.01 54,-32.01 48,-38.01 42,-38.01"/>
<text xml:space="preserve" text-anchor="middle" x="27" y="-15.73" font-family="Arial" font-size="12.00" fill="#7c2d12">Login</text>
</g>
<!-- auth -->
<g id="node2" class="node">
<title>auth</title>
<path fill="#eef2ff" stroke="#4f46e5" stroke-width="1.2" d="M183.28,-40.02C183.28,-40.02 106,-40.02 106,-40.02 100,-40.02 94,-34.02 94,-28.02 94,-28.02 94,-12 94,-12 94,-6 100,0 106,0 106,0 183.28,0 183.28,0 189.28,0 195.28,-6 195.28,-12 195.28,-12 195.28,-28.02 195.28,-28.02 195.28,-34.02 189.28,-40.02 183.28,-40.02"/>
<text xml:space="preserve" text-anchor="middle" x="144.64" y="-22.86" font-family="Arial" font-size="12.00" fill="#1e1b4b">Authenticate</text>
<text xml:space="preserve" text-anchor="middle" x="144.64" y="-8.61" font-family="Arial" font-size="12.00" fill="#1e1b4b">email/password</text>
</g>
<!-- login&#45;&gt;auth -->
<g id="edge1" class="edge">
<title>login&#45;&gt;auth</title>
<path fill="none" stroke="#475569" stroke-width="1.1" d="M54.53,-20.01C63.69,-20.01 74.34,-20.01 85.03,-20.01"/>
<polygon fill="#475569" stroke="#475569" stroke-width="1.1" points="84.91,-22.46 91.91,-20.01 84.91,-17.56 84.91,-22.46"/>
</g>
<!-- jwt -->
<g id="node3" class="node">
<title>jwt</title>
<path fill="#eef2ff" stroke="#4f46e5" stroke-width="1.2" d="M341.06,-40.02C341.06,-40.02 247.28,-40.02 247.28,-40.02 241.28,-40.02 235.28,-34.02 235.28,-28.02 235.28,-28.02 235.28,-12 235.28,-12 235.28,-6 241.28,0 247.28,0 247.28,0 341.06,0 341.06,0 347.06,0 353.06,-6 353.06,-12 353.06,-12 353.06,-28.02 353.06,-28.02 353.06,-34.02 347.06,-40.02 341.06,-40.02"/>
<text xml:space="preserve" text-anchor="middle" x="294.17" y="-22.86" font-family="Arial" font-size="12.00" fill="#1e1b4b">Issue Access JWT</text>
<text xml:space="preserve" text-anchor="middle" x="294.17" y="-8.61" font-family="Arial" font-size="12.00" fill="#1e1b4b">and Refresh Token</text>
</g>
<!-- auth&#45;&gt;jwt -->
<g id="edge2" class="edge">
<title>auth&#45;&gt;jwt</title>
<path fill="none" stroke="#475569" stroke-width="1.1" d="M195.59,-20.01C205.45,-20.01 215.95,-20.01 226.26,-20.01"/>
<polygon fill="#475569" stroke="#475569" stroke-width="1.1" points="226.2,-22.46 233.2,-20.01 226.2,-17.56 226.2,-22.46"/>
</g>
<!-- request -->
<g id="node4" class="node">
<title>request</title>
<path fill="#eef6ff" stroke="#2563eb" stroke-width="1.2" d="M469.59,-40.02C469.59,-40.02 405.06,-40.02 405.06,-40.02 399.06,-40.02 393.06,-34.02 393.06,-28.02 393.06,-28.02 393.06,-12 393.06,-12 393.06,-6 399.06,0 405.06,0 405.06,0 469.59,0 469.59,0 475.59,0 481.59,-6 481.59,-12 481.59,-12 481.59,-28.02 481.59,-28.02 481.59,-34.02 475.59,-40.02 469.59,-40.02"/>
<text xml:space="preserve" text-anchor="middle" x="437.33" y="-22.86" font-family="Arial" font-size="12.00" fill="#172554">Request with</text>
<text xml:space="preserve" text-anchor="middle" x="437.33" y="-8.61" font-family="Arial" font-size="12.00" fill="#172554">Bearer Token</text>
</g>
<!-- jwt&#45;&gt;request -->
<g id="edge3" class="edge">
<title>jwt&#45;&gt;request</title>
<path fill="none" stroke="#475569" stroke-width="1.1" d="M353.4,-20.01C363.5,-20.01 373.95,-20.01 383.89,-20.01"/>
<polygon fill="#475569" stroke="#475569" stroke-width="1.1" points="383.8,-22.46 390.8,-20.01 383.8,-17.56 383.8,-22.46"/>
</g>
<!-- filter -->
<g id="node5" class="node">
<title>filter</title>
<path fill="#eef2ff" stroke="#4f46e5" stroke-width="1.2" d="M632.62,-40.02C632.62,-40.02 533.59,-40.02 533.59,-40.02 527.59,-40.02 521.59,-34.02 521.59,-28.02 521.59,-28.02 521.59,-12 521.59,-12 521.59,-6 527.59,0 533.59,0 533.59,0 632.62,0 632.62,0 638.62,0 644.62,-6 644.62,-12 644.62,-12 644.62,-28.02 644.62,-28.02 644.62,-34.02 638.62,-40.02 632.62,-40.02"/>
<text xml:space="preserve" text-anchor="middle" x="583.11" y="-22.86" font-family="Arial" font-size="12.00" fill="#1e1b4b">JWT Filter</text>
<text xml:space="preserve" text-anchor="middle" x="583.11" y="-8.61" font-family="Arial" font-size="12.00" fill="#1e1b4b">and Blocklist Check</text>
</g>
<!-- request&#45;&gt;filter -->
<g id="edge4" class="edge">
<title>request&#45;&gt;filter</title>
<path fill="none" stroke="#475569" stroke-width="1.1" d="M481.85,-20.01C491.64,-20.01 502.25,-20.01 512.8,-20.01"/>
<polygon fill="#475569" stroke="#475569" stroke-width="1.1" points="512.55,-22.46 519.55,-20.01 512.55,-17.56 512.55,-22.46"/>
</g>
<!-- system_role -->
<g id="node6" class="node">
<title>system_role</title>
<path fill="#f8fafc" stroke="#64748b" stroke-width="1.2" d="M772.4,-40.02C772.4,-40.02 696.62,-40.02 696.62,-40.02 690.62,-40.02 684.62,-34.02 684.62,-28.02 684.62,-28.02 684.62,-12 684.62,-12 684.62,-6 690.62,0 696.62,0 696.62,0 772.4,0 772.4,0 778.4,0 784.4,-6 784.4,-12 784.4,-12 784.4,-28.02 784.4,-28.02 784.4,-34.02 778.4,-40.02 772.4,-40.02"/>
<text xml:space="preserve" text-anchor="middle" x="734.51" y="-22.86" font-family="Arial" font-size="12.00" fill="#0f172a">System Role</text>
<text xml:space="preserve" text-anchor="middle" x="734.51" y="-8.61" font-family="Arial" font-size="12.00" fill="#0f172a">ADMIN / USER</text>
</g>
<!-- filter&#45;&gt;system_role -->
<g id="edge5" class="edge">
<title>filter&#45;&gt;system_role</title>
<path fill="none" stroke="#475569" stroke-width="1.1" d="M644.87,-20.01C655.1,-20.01 665.68,-20.01 675.83,-20.01"/>
<polygon fill="#475569" stroke="#475569" stroke-width="1.1" points="675.56,-22.46 682.56,-20.01 675.56,-17.56 675.56,-22.46"/>
</g>
<!-- project_role -->
<g id="node7" class="node">
<title>project_role</title>
<path fill="#f8fafc" stroke="#64748b" stroke-width="1.2" d="M953.43,-40.02C953.43,-40.02 836.4,-40.02 836.4,-40.02 830.4,-40.02 824.4,-34.02 824.4,-28.02 824.4,-28.02 824.4,-12 824.4,-12 824.4,-6 830.4,0 836.4,0 836.4,0 953.43,0 953.43,0 959.43,0 965.43,-6 965.43,-12 965.43,-12 965.43,-28.02 965.43,-28.02 965.43,-34.02 959.43,-40.02 953.43,-40.02"/>
<text xml:space="preserve" text-anchor="middle" x="894.91" y="-22.86" font-family="Arial" font-size="12.00" fill="#0f172a">Project Role</text>
<text xml:space="preserve" text-anchor="middle" x="894.91" y="-8.61" font-family="Arial" font-size="12.00" fill="#0f172a">MANAGER / MEMBER</text>
</g>
<!-- system_role&#45;&gt;project_role -->
<g id="edge6" class="edge">
<title>system_role&#45;&gt;project_role</title>
<path fill="none" stroke="#475569" stroke-width="1.1" d="M784.76,-20.01C794.58,-20.01 805.12,-20.01 815.63,-20.01"/>
<polygon fill="#475569" stroke="#475569" stroke-width="1.1" points="815.38,-22.46 822.38,-20.01 815.38,-17.56 815.38,-22.46"/>
</g>
<!-- service -->
<g id="node8" class="node">
<title>service</title>
<path fill="#f8fafc" stroke="#64748b" stroke-width="1.2" d="M1134.46,-40.02C1134.46,-40.02 1017.43,-40.02 1017.43,-40.02 1011.43,-40.02 1005.43,-34.02 1005.43,-28.02 1005.43,-28.02 1005.43,-12 1005.43,-12 1005.43,-6 1011.43,0 1017.43,0 1017.43,0 1134.46,0 1134.46,0 1140.46,0 1146.46,-6 1146.46,-12 1146.46,-12 1146.46,-28.02 1146.46,-28.02 1146.46,-34.02 1140.46,-40.02 1134.46,-40.02"/>
<text xml:space="preserve" text-anchor="middle" x="1075.94" y="-22.86" font-family="Arial" font-size="12.00" fill="#0f172a">Service Checks</text>
<text xml:space="preserve" text-anchor="middle" x="1075.94" y="-8.61" font-family="Arial" font-size="12.00" fill="#0f172a">Membership and Rules</text>
</g>
<!-- project_role&#45;&gt;service -->
<g id="edge7" class="edge">
<title>project_role&#45;&gt;service</title>
<path fill="none" stroke="#475569" stroke-width="1.1" d="M965.9,-20.01C975.94,-20.01 986.32,-20.01 996.51,-20.01"/>
<polygon fill="#475569" stroke="#475569" stroke-width="1.1" points="996.34,-22.46 1003.34,-20.01 996.34,-17.56 996.34,-22.46"/>
</g>
<!-- resource -->
<g id="node9" class="node">
<title>resource</title>
<path fill="#ecfdf5" stroke="#059669" stroke-width="1.2" d="M1318.49,-40.02C1318.49,-40.02 1198.46,-40.02 1198.46,-40.02 1192.46,-40.02 1186.46,-34.02 1186.46,-28.02 1186.46,-28.02 1186.46,-12 1186.46,-12 1186.46,-6 1192.46,0 1198.46,0 1198.46,0 1318.49,0 1318.49,0 1324.49,0 1330.49,-6 1330.49,-12 1330.49,-12 1330.49,-28.02 1330.49,-28.02 1330.49,-34.02 1324.49,-40.02 1318.49,-40.02"/>
<text xml:space="preserve" text-anchor="middle" x="1258.47" y="-22.86" font-family="Arial" font-size="12.00" fill="#064e3b">Project / Task /</text>
<text xml:space="preserve" text-anchor="middle" x="1258.47" y="-8.61" font-family="Arial" font-size="12.00" fill="#064e3b">Comment / AI Resource</text>
</g>
<!-- service&#45;&gt;resource -->
<g id="edge8" class="edge">
<title>service&#45;&gt;resource</title>
<path fill="none" stroke="#475569" stroke-width="1.1" d="M1147,-20.01C1156.99,-20.01 1167.33,-20.01 1177.49,-20.01"/>
<polygon fill="#475569" stroke="#475569" stroke-width="1.1" points="1177.3,-22.46 1184.3,-20.01 1177.3,-17.56 1177.3,-22.46"/>
</g>
</g>
</svg>
