<?xml version="1.0" encoding="UTF-8" standalone="no"?>
<!DOCTYPE svg PUBLIC "-//W3C//DTD SVG 1.1//EN"
 "http://www.w3.org/Graphics/SVG/1.1/DTD/svg11.dtd">
<!-- Generated by graphviz version 14.0.0 (20250921.2048)
 -->
<!-- Title: TrelloKanban Pages: 1 -->
<svg width="568pt" height="160pt"
 viewBox="0.00 0.00 568.00 160.00" xmlns="http://www.w3.org/2000/svg" xmlns:xlink="http://www.w3.org/1999/xlink">
<g id="graph0" class="graph" transform="scale(1 1) rotate(0) translate(18 142)">
<title>TrelloKanban</title>
<polygon fill="white" stroke="none" points="-18,18 -18,-142 549.62,-142 549.62,18 -18,18"/>
<g id="clust1" class="cluster">
<title>cluster_board</title>
<path fill="white" stroke="#cbd5e1" d="M20,-8C20,-8 511.62,-8 511.62,-8 517.62,-8 523.62,-14 523.62,-20 523.62,-20 523.62,-104 523.62,-104 523.62,-110 517.62,-116 511.62,-116 511.62,-116 20,-116 20,-116 14,-116 8,-110 8,-104 8,-104 8,-20 8,-20 8,-14 14,-8 20,-8"/>
<text xml:space="preserve" text-anchor="middle" x="265.81" y="-98.7" font-family="Arial" font-size="14.00">Trello board</text>
</g>
<!-- Backlog -->
<g id="node1" class="node">
<title>Backlog</title>
<path fill="#eef6ff" stroke="#2563eb" d="M86.53,-84.13C86.53,-84.13 28,-84.13 28,-84.13 22,-84.13 16,-78.13 16,-72.13 16,-72.13 16,-27.87 16,-27.87 16,-21.87 22,-15.87 28,-15.87 28,-15.87 86.53,-15.87 86.53,-15.87 92.53,-15.87 98.53,-21.87 98.53,-27.87 98.53,-27.87 98.53,-72.13 98.53,-72.13 98.53,-78.13 92.53,-84.13 86.53,-84.13"/>
<text xml:space="preserve" text-anchor="middle" x="57.26" y="-66.97" font-family="Arial" font-size="12.00">Backlog</text>
<text xml:space="preserve" text-anchor="middle" x="57.26" y="-38.73" font-family="Arial" font-size="12.00">Card: login</text>
<text xml:space="preserve" text-anchor="middle" x="57.26" y="-24.48" font-family="Arial" font-size="12.00">Card: profile</text>
</g>
<!-- Doing -->
<g id="node2" class="node">
<title>Doing</title>
<path fill="#eef2ff" stroke="#4f46e5" d="M230.81,-77.01C230.81,-77.01 150.53,-77.01 150.53,-77.01 144.53,-77.01 138.53,-71.01 138.53,-65.01 138.53,-65.01 138.53,-34.99 138.53,-34.99 138.53,-28.99 144.53,-22.99 150.53,-22.99 150.53,-22.99 230.81,-22.99 230.81,-22.99 236.81,-22.99 242.81,-28.99 242.81,-34.99 242.81,-34.99 242.81,-65.01 242.81,-65.01 242.81,-71.01 236.81,-77.01 230.81,-77.01"/>
<text xml:space="preserve" text-anchor="middle" x="190.67" y="-59.85" font-family="Arial" font-size="12.00">Doing</text>
<text xml:space="preserve" text-anchor="middle" x="190.67" y="-31.6" font-family="Arial" font-size="12.00">Card: kanban UI</text>
</g>
<!-- Backlog&#45;&gt;Doing -->
<g id="edge1" class="edge">
<title>Backlog&#45;&gt;Doing</title>
<path fill="none" stroke="#475569" d="M98.76,-50C108.64,-50 119.41,-50 129.98,-50"/>
<polygon fill="#475569" stroke="#475569" points="129.87,-52.45 136.87,-50 129.87,-47.55 129.87,-52.45"/>
</g>
<!-- Review -->
<g id="node3" class="node">
<title>Review</title>
<path fill="#fff7ed" stroke="#f97316" d="M378.09,-77.01C378.09,-77.01 294.81,-77.01 294.81,-77.01 288.81,-77.01 282.81,-71.01 282.81,-65.01 282.81,-65.01 282.81,-34.99 282.81,-34.99 282.81,-28.99 288.81,-22.99 294.81,-22.99 294.81,-22.99 378.09,-22.99 378.09,-22.99 384.09,-22.99 390.09,-28.99 390.09,-34.99 390.09,-34.99 390.09,-65.01 390.09,-65.01 390.09,-71.01 384.09,-77.01 378.09,-77.01"/>
<text xml:space="preserve" text-anchor="middle" x="336.45" y="-59.85" font-family="Arial" font-size="12.00">Review</text>
<text xml:space="preserve" text-anchor="middle" x="336.45" y="-31.6" font-family="Arial" font-size="12.00">Card: notification</text>
</g>
<!-- Doing&#45;&gt;Review -->
<g id="edge2" class="edge">
<title>Doing&#45;&gt;Review</title>
<path fill="none" stroke="#475569" d="M243.17,-50C253.12,-50 263.63,-50 273.86,-50"/>
<polygon fill="#475569" stroke="#475569" points="273.86,-52.45 280.86,-50 273.86,-47.55 273.86,-52.45"/>
</g>
<!-- Done -->
<g id="node4" class="node">
<title>Done</title>
<path fill="#f0fdf4" stroke="#16a34a" d="M503.62,-77.01C503.62,-77.01 442.09,-77.01 442.09,-77.01 436.09,-77.01 430.09,-71.01 430.09,-65.01 430.09,-65.01 430.09,-34.99 430.09,-34.99 430.09,-28.99 436.09,-22.99 442.09,-22.99 442.09,-22.99 503.62,-22.99 503.62,-22.99 509.62,-22.99 515.62,-28.99 515.62,-34.99 515.62,-34.99 515.62,-65.01 515.62,-65.01 515.62,-71.01 509.62,-77.01 503.62,-77.01"/>
<text xml:space="preserve" text-anchor="middle" x="472.86" y="-59.85" font-family="Arial" font-size="12.00">Done</text>
<text xml:space="preserve" text-anchor="middle" x="472.86" y="-31.6" font-family="Arial" font-size="12.00">Card: deploy</text>
</g>
<!-- Review&#45;&gt;Done -->
<g id="edge3" class="edge">
<title>Review&#45;&gt;Done</title>
<path fill="none" stroke="#475569" d="M390.57,-50C400.77,-50 411.43,-50 421.54,-50"/>
<polygon fill="#475569" stroke="#475569" points="421.37,-52.45 428.37,-50 421.37,-47.55 421.37,-52.45"/>
</g>
</g>
</svg>
