<?xml version="1.0" encoding="UTF-8" standalone="no"?>
<!DOCTYPE svg PUBLIC "-//W3C//DTD SVG 1.1//EN"
 "http://www.w3.org/Graphics/SVG/1.1/DTD/svg11.dtd">
<!-- Generated by graphviz version 14.0.0 (20250921.2048)
 -->
<!-- Title: TaskPilotUINavigationFlow Pages: 1 -->
<svg width="1060pt" height="850pt"
 viewBox="0.00 0.00 1060.00 850.00" xmlns="http://www.w3.org/2000/svg" xmlns:xlink="http://www.w3.org/1999/xlink">
<g id="graph0" class="graph" transform="scale(1 1) rotate(0) translate(25.2 824.68)">
<title>TaskPilotUINavigationFlow</title>
<polygon fill="white" stroke="none" points="-25.2,25.2 -25.2,-824.68 1034.48,-824.68 1034.48,25.2 -25.2,25.2"/>
<!-- A -->
<g id="node1" class="node">
<title>A</title>
<ellipse fill="#ffffff" stroke="#9b87f5" cx="523.14" cy="-781.26" rx="92.3" ry="18.22"/>
<text xml:space="preserve" text-anchor="middle" x="523.14" y="-776.99" font-family="Arial" font-size="12.00">User opens TaskPilot</text>
</g>
<!-- B -->
<g id="node2" class="node">
<title>B</title>
<path fill="#ede9fe" stroke="#9b87f5" d="M511.79,-718.14C511.79,-718.14 456.01,-698.94 456.01,-698.94 450.34,-696.99 450.34,-693.09 456.01,-691.14 456.01,-691.14 511.79,-671.94 511.79,-671.94 517.47,-669.99 528.81,-669.99 534.49,-671.94 534.49,-671.94 590.27,-691.14 590.27,-691.14 595.94,-693.09 595.94,-696.99 590.27,-698.94 590.27,-698.94 534.49,-718.14 534.49,-718.14 528.81,-720.09 517.47,-720.09 511.79,-718.14"/>
<text xml:space="preserve" text-anchor="middle" x="523.14" y="-690.76" font-family="Arial" font-size="12.00">Authenticated?</text>
</g>
<!-- A&#45;&gt;B -->
<g id="edge1" class="edge">
<title>A&#45;&gt;B</title>
<path fill="none" stroke="#8b86a3" d="M523.14,-762.81C523.14,-753.52 523.14,-741.75 523.14,-730.7"/>
<polygon fill="#8b86a3" stroke="#8b86a3" points="525.59,-730.95 523.14,-723.95 520.69,-730.95 525.59,-730.95"/>
</g>
<!-- AUTH -->
<g id="node3" class="node">
<title>AUTH</title>
<path fill="#f5f3ff" stroke="#9b87f5" d="M470.03,-616.04C470.03,-616.04 400.25,-616.04 400.25,-616.04 394.25,-616.04 388.25,-610.04 388.25,-604.04 388.25,-604.04 388.25,-592.04 388.25,-592.04 388.25,-586.04 394.25,-580.04 400.25,-580.04 400.25,-580.04 470.03,-580.04 470.03,-580.04 476.03,-580.04 482.03,-586.04 482.03,-592.04 482.03,-592.04 482.03,-604.04 482.03,-604.04 482.03,-610.04 476.03,-616.04 470.03,-616.04"/>
<text xml:space="preserve" text-anchor="middle" x="435.14" y="-593.76" font-family="Arial" font-size="12.00">Authentication</text>
</g>
<!-- B&#45;&gt;AUTH -->
<g id="edge2" class="edge">
<title>B&#45;&gt;AUTH</title>
<path fill="none" stroke="#8b86a3" d="M504.91,-674.36C490.95,-659.29 471.66,-638.46 456.89,-622.53"/>
<polygon fill="#8b86a3" stroke="#8b86a3" points="458.86,-621.04 452.31,-617.57 455.27,-624.37 458.86,-621.04"/>
<text xml:space="preserve" text-anchor="middle" x="517.76" y="-638.54" font-family="Arial" font-size="10.00">Not authenticated</text>
</g>
<!-- DASH -->
<g id="node7" class="node">
<title>DASH</title>
<path fill="#ede9fe" stroke="#9b87f5" d="M505.4,-440.04C505.4,-440.04 452.88,-440.04 452.88,-440.04 446.88,-440.04 440.88,-434.04 440.88,-428.04 440.88,-428.04 440.88,-416.04 440.88,-416.04 440.88,-410.04 446.88,-404.04 452.88,-404.04 452.88,-404.04 505.4,-404.04 505.4,-404.04 511.4,-404.04 517.4,-410.04 517.4,-416.04 517.4,-416.04 517.4,-428.04 517.4,-428.04 517.4,-434.04 511.4,-440.04 505.4,-440.04"/>
<text xml:space="preserve" text-anchor="middle" x="479.14" y="-417.76" font-family="Arial" font-size="12.00">Dashboard</text>
</g>
<!-- B&#45;&gt;DASH -->
<g id="edge3" class="edge">
<title>B&#45;&gt;DASH</title>
<path fill="none" stroke="#8b86a3" d="M541,-674C552.05,-661.6 564.14,-648.04 564.14,-648.04 564.14,-648.04 616.14,-528.04 616.14,-528.04 616.14,-528.04 616.14,-492.04 616.14,-492.04 616.14,-492.04 561.56,-464.55 521.3,-444.27"/>
<polygon fill="#8b86a3" stroke="#8b86a3" points="522.42,-442.09 515.06,-441.13 520.21,-446.47 522.42,-442.09"/>
<text xml:space="preserve" text-anchor="middle" x="637.33" y="-550.54" font-family="Arial" font-size="10.00">Authenticated</text>
</g>
<!-- AUTH1 -->
<g id="node4" class="node">
<title>AUTH1</title>
<path fill="#f5f3ff" stroke="#9b87f5" d="M323.53,-528.04C323.53,-528.04 292.75,-528.04 292.75,-528.04 286.75,-528.04 280.75,-522.04 280.75,-516.04 280.75,-516.04 280.75,-504.04 280.75,-504.04 280.75,-498.04 286.75,-492.04 292.75,-492.04 292.75,-492.04 323.53,-492.04 323.53,-492.04 329.53,-492.04 335.53,-498.04 335.53,-504.04 335.53,-504.04 335.53,-516.04 335.53,-516.04 335.53,-522.04 329.53,-528.04 323.53,-528.04"/>
<text xml:space="preserve" text-anchor="middle" x="308.14" y="-505.76" font-family="Arial" font-size="12.00">Sign in</text>
</g>
<!-- AUTH&#45;&gt;AUTH1 -->
<g id="edge4" class="edge">
<title>AUTH&#45;&gt;AUTH1</title>
<path fill="none" stroke="#8b86a3" d="M409.44,-579.64C389.64,-566.23 362.14,-547.61 340.79,-533.15"/>
<polygon fill="#8b86a3" stroke="#8b86a3" points="342.23,-531.16 335.06,-529.27 339.48,-535.22 342.23,-531.16"/>
</g>
<!-- AUTH2 -->
<g id="node5" class="node">
<title>AUTH2</title>
<path fill="#f5f3ff" stroke="#9b87f5" d="M414.4,-528.04C414.4,-528.04 379.88,-528.04 379.88,-528.04 373.88,-528.04 367.88,-522.04 367.88,-516.04 367.88,-516.04 367.88,-504.04 367.88,-504.04 367.88,-498.04 373.88,-492.04 379.88,-492.04 379.88,-492.04 414.4,-492.04 414.4,-492.04 420.4,-492.04 426.4,-498.04 426.4,-504.04 426.4,-504.04 426.4,-516.04 426.4,-516.04 426.4,-522.04 420.4,-528.04 414.4,-528.04"/>
<text xml:space="preserve" text-anchor="middle" x="397.14" y="-505.76" font-family="Arial" font-size="12.00">Sign up</text>
</g>
<!-- AUTH&#45;&gt;AUTH2 -->
<g id="edge5" class="edge">
<title>AUTH&#45;&gt;AUTH2</title>
<path fill="none" stroke="#8b86a3" d="M427.45,-579.64C421.89,-567.05 414.29,-549.86 408.09,-535.83"/>
<polygon fill="#8b86a3" stroke="#8b86a3" points="410.5,-535.21 405.43,-529.8 406.02,-537.19 410.5,-535.21"/>
</g>
<!-- AUTH3 -->
<g id="node6" class="node">
<title>AUTH3</title>
<path fill="#f5f3ff" stroke="#9b87f5" d="M588.03,-528.04C588.03,-528.04 470.25,-528.04 470.25,-528.04 464.25,-528.04 458.25,-522.04 458.25,-516.04 458.25,-516.04 458.25,-504.04 458.25,-504.04 458.25,-498.04 464.25,-492.04 470.25,-492.04 470.25,-492.04 588.03,-492.04 588.03,-492.04 594.03,-492.04 600.03,-498.04 600.03,-504.04 600.03,-504.04 600.03,-516.04 600.03,-516.04 600.03,-522.04 594.03,-528.04 588.03,-528.04"/>
<text xml:space="preserve" text-anchor="middle" x="529.14" y="-505.76" font-family="Arial" font-size="12.00">Forgot / reset password</text>
</g>
<!-- AUTH&#45;&gt;AUTH3 -->
<g id="edge6" class="edge">
<title>AUTH&#45;&gt;AUTH3</title>
<path fill="none" stroke="#8b86a3" d="M454.16,-579.64C468.56,-566.46 488.46,-548.25 504.15,-533.91"/>
<polygon fill="#8b86a3" stroke="#8b86a3" points="505.52,-535.97 509.03,-529.44 502.21,-532.36 505.52,-535.97"/>
</g>
<!-- AUTH1&#45;&gt;DASH -->
<g id="edge7" class="edge">
<title>AUTH1&#45;&gt;DASH</title>
<path fill="none" stroke="#8b86a3" d="M335.99,-495.03C363.42,-481.24 405.65,-460 437.15,-444.16"/>
<polygon fill="#8b86a3" stroke="#8b86a3" points="438,-446.47 443.15,-441.14 435.79,-442.1 438,-446.47"/>
<text xml:space="preserve" text-anchor="middle" x="438.75" y="-462.54" font-family="Arial" font-size="10.00">Sign&#45;in success</text>
</g>
<!-- PROJLIST -->
<g id="node8" class="node">
<title>PROJLIST</title>
<path fill="#f5f3ff" stroke="#9b87f5" d="M251.53,-352.04C251.53,-352.04 202.75,-352.04 202.75,-352.04 196.75,-352.04 190.75,-346.04 190.75,-340.04 190.75,-340.04 190.75,-328.04 190.75,-328.04 190.75,-322.04 196.75,-316.04 202.75,-316.04 202.75,-316.04 251.53,-316.04 251.53,-316.04 257.53,-316.04 263.53,-322.04 263.53,-328.04 263.53,-328.04 263.53,-340.04 263.53,-340.04 263.53,-346.04 257.53,-352.04 251.53,-352.04"/>
<text xml:space="preserve" text-anchor="middle" x="227.14" y="-329.76" font-family="Arial" font-size="12.00">Project list</text>
</g>
<!-- DASH&#45;&gt;PROJLIST -->
<g id="edge8" class="edge">
<title>DASH&#45;&gt;PROJLIST</title>
<path fill="none" stroke="#8b86a3" d="M440.59,-407.88C395.1,-392.36 319.61,-366.6 271.67,-350.24"/>
<polygon fill="#8b86a3" stroke="#8b86a3" points="272.48,-347.93 265.07,-347.98 270.9,-352.56 272.48,-347.93"/>
</g>
<!-- NOTI -->
<g id="node9" class="node">
<title>NOTI</title>
<path fill="#f5f3ff" stroke="#9b87f5" d="M366.78,-352.04C366.78,-352.04 307.5,-352.04 307.5,-352.04 301.5,-352.04 295.5,-346.04 295.5,-340.04 295.5,-340.04 295.5,-328.04 295.5,-328.04 295.5,-322.04 301.5,-316.04 307.5,-316.04 307.5,-316.04 366.78,-316.04 366.78,-316.04 372.78,-316.04 378.78,-322.04 378.78,-328.04 378.78,-328.04 378.78,-340.04 378.78,-340.04 378.78,-346.04 372.78,-352.04 366.78,-352.04"/>
<text xml:space="preserve" text-anchor="middle" x="337.14" y="-329.76" font-family="Arial" font-size="12.00">Notifications</text>
</g>
<!-- DASH&#45;&gt;NOTI -->
<g id="edge9" class="edge">
<title>DASH&#45;&gt;NOTI</title>
<path fill="none" stroke="#8b86a3" d="M450.4,-403.64C428.08,-390.11 396.98,-371.28 373.02,-356.77"/>
<polygon fill="#8b86a3" stroke="#8b86a3" points="374.38,-354.73 367.13,-353.2 371.85,-358.92 374.38,-354.73"/>
</g>
<!-- PROFILE -->
<g id="node10" class="node">
<title>PROFILE</title>
<path fill="#f5f3ff" stroke="#9b87f5" d="M535.78,-352.04C535.78,-352.04 422.5,-352.04 422.5,-352.04 416.5,-352.04 410.5,-346.04 410.5,-340.04 410.5,-340.04 410.5,-328.04 410.5,-328.04 410.5,-322.04 416.5,-316.04 422.5,-316.04 422.5,-316.04 535.78,-316.04 535.78,-316.04 541.78,-316.04 547.78,-322.04 547.78,-328.04 547.78,-328.04 547.78,-340.04 547.78,-340.04 547.78,-346.04 541.78,-352.04 535.78,-352.04"/>
<text xml:space="preserve" text-anchor="middle" x="479.14" y="-329.76" font-family="Arial" font-size="12.00">Profile / personal skills</text>
</g>
<!-- DASH&#45;&gt;PROFILE -->
<g id="edge10" class="edge">
<title>DASH&#45;&gt;PROFILE</title>
<path fill="none" stroke="#8b86a3" d="M479.14,-403.64C479.14,-391.28 479.14,-374.49 479.14,-360.61"/>
<polygon fill="#8b86a3" stroke="#8b86a3" points="481.59,-360.93 479.14,-353.93 476.69,-360.93 481.59,-360.93"/>
</g>
<!-- AI -->
<g id="node11" class="node">
<title>AI</title>
<path fill="#f5f3ff" stroke="#9b87f5" d="M638.03,-352.04C638.03,-352.04 592.25,-352.04 592.25,-352.04 586.25,-352.04 580.25,-346.04 580.25,-340.04 580.25,-340.04 580.25,-328.04 580.25,-328.04 580.25,-322.04 586.25,-316.04 592.25,-316.04 592.25,-316.04 638.03,-316.04 638.03,-316.04 644.03,-316.04 650.03,-322.04 650.03,-328.04 650.03,-328.04 650.03,-340.04 650.03,-340.04 650.03,-346.04 644.03,-352.04 638.03,-352.04"/>
<text xml:space="preserve" text-anchor="middle" x="615.14" y="-329.76" font-family="Arial" font-size="12.00">AI Copilot</text>
</g>
<!-- DASH&#45;&gt;AI -->
<g id="edge11" class="edge">
<title>DASH&#45;&gt;AI</title>
<path fill="none" stroke="#8b86a3" d="M506.66,-403.64C527.95,-390.17 557.57,-371.45 580.48,-356.96"/>
<polygon fill="#8b86a3" stroke="#8b86a3" points="581.77,-359.04 586.38,-353.23 579.15,-354.9 581.77,-359.04"/>
</g>
<!-- ADMIN -->
<g id="node12" class="node">
<title>ADMIN</title>
<path fill="#f5f3ff" stroke="#9b87f5" d="M876.65,-352.04C876.65,-352.04 765.62,-352.04 765.62,-352.04 759.62,-352.04 753.62,-346.04 753.62,-340.04 753.62,-340.04 753.62,-328.04 753.62,-328.04 753.62,-322.04 759.62,-316.04 765.62,-316.04 765.62,-316.04 876.65,-316.04 876.65,-316.04 882.65,-316.04 888.65,-322.04 888.65,-328.04 888.65,-328.04 888.65,-340.04 888.65,-340.04 888.65,-346.04 882.65,-352.04 876.65,-352.04"/>
<text xml:space="preserve" text-anchor="middle" x="821.14" y="-329.76" font-family="Arial" font-size="12.00">System administration</text>
</g>
<!-- DASH&#45;&gt;ADMIN -->
<g id="edge12" class="edge">
<title>DASH&#45;&gt;ADMIN</title>
<path fill="none" stroke="#8b86a3" stroke-dasharray="5,2" d="M517.71,-411.34C572.71,-397.51 674.82,-371.83 745.29,-354.11"/>
<polygon fill="#8b86a3" stroke="#8b86a3" points="745.64,-356.55 751.83,-352.47 744.44,-351.8 745.64,-356.55"/>
<text xml:space="preserve" text-anchor="middle" x="705.87" y="-374.54" font-family="Arial" font-size="10.00">ADMIN account</text>
</g>
<!-- WORKSPACE -->
<g id="node13" class="node">
<title>WORKSPACE</title>
<path fill="#f5f3ff" stroke="#9b87f5" d="M272.9,-273.03C272.9,-273.03 181.38,-273.03 181.38,-273.03 175.38,-273.03 169.38,-267.03 169.38,-261.03 169.38,-261.03 169.38,-249.03 169.38,-249.03 169.38,-243.03 175.38,-237.03 181.38,-237.03 181.38,-237.03 272.9,-237.03 272.9,-237.03 278.9,-237.03 284.9,-243.03 284.9,-249.03 284.9,-249.03 284.9,-261.03 284.9,-261.03 284.9,-267.03 278.9,-273.03 272.9,-273.03"/>
<text xml:space="preserve" text-anchor="middle" x="227.14" y="-250.75" font-family="Arial" font-size="12.00">Project workspace</text>
</g>
<!-- PROJLIST&#45;&gt;WORKSPACE -->
<g id="edge13" class="edge">
<title>PROJLIST&#45;&gt;WORKSPACE</title>
<path fill="none" stroke="#8b86a3" d="M227.14,-315.57C227.14,-305.62 227.14,-292.98 227.14,-281.9"/>
<polygon fill="#8b86a3" stroke="#8b86a3" points="229.59,-281.95 227.14,-274.95 224.69,-281.95 229.59,-281.95"/>
</g>
<!-- AI1 -->
<g id="node24" class="node">
<title>AI1</title>
<path fill="#f5f3ff" stroke="#9b87f5" d="M454.14,-273.03C454.14,-273.03 424.14,-273.03 424.14,-273.03 418.14,-273.03 412.14,-267.03 412.14,-261.03 412.14,-261.03 412.14,-249.03 412.14,-249.03 412.14,-243.03 418.14,-237.03 424.14,-237.03 424.14,-237.03 454.14,-237.03 454.14,-237.03 460.14,-237.03 466.14,-243.03 466.14,-249.03 466.14,-249.03 466.14,-261.03 466.14,-261.03 466.14,-267.03 460.14,-273.03 454.14,-273.03"/>
<text xml:space="preserve" text-anchor="middle" x="439.14" y="-250.75" font-family="Arial" font-size="12.00">Chat</text>
</g>
<!-- AI&#45;&gt;AI1 -->
<g id="edge24" class="edge">
<title>AI&#45;&gt;AI1</title>
<path fill="none" stroke="#8b86a3" d="M579.85,-317.65C540.45,-300.47 482.14,-275.04 482.14,-275.04 482.14,-275.04 478.94,-273.62 474.28,-271.56"/>
<polygon fill="#8b86a3" stroke="#8b86a3" points="475.39,-269.38 468,-268.79 473.41,-273.86 475.39,-269.38"/>
</g>
<!-- AI2 -->
<g id="node25" class="node">
<title>AI2</title>
<path fill="#f5f3ff" stroke="#9b87f5" d="M592.4,-275.04C592.4,-275.04 509.88,-275.04 509.88,-275.04 503.88,-275.04 497.88,-269.04 497.88,-263.04 497.88,-263.04 497.88,-247.02 497.88,-247.02 497.88,-241.02 503.88,-235.02 509.88,-235.02 509.88,-235.02 592.4,-235.02 592.4,-235.02 598.4,-235.02 604.4,-241.02 604.4,-247.02 604.4,-247.02 604.4,-263.04 604.4,-263.04 604.4,-269.04 598.4,-275.04 592.4,-275.04"/>
<text xml:space="preserve" text-anchor="middle" x="551.14" y="-257.88" font-family="Arial" font-size="12.00">Task assignment</text>
<text xml:space="preserve" text-anchor="middle" x="551.14" y="-243.63" font-family="Arial" font-size="12.00">recommendation</text>
</g>
<!-- AI&#45;&gt;AI2 -->
<g id="edge25" class="edge">
<title>AI&#45;&gt;AI2</title>
<path fill="none" stroke="#8b86a3" d="M600.62,-315.57C592.29,-305.55 581.69,-292.79 572.44,-281.66"/>
<polygon fill="#8b86a3" stroke="#8b86a3" points="574.5,-280.31 568.15,-276.49 570.73,-283.44 574.5,-280.31"/>
</g>
<!-- AI3 -->
<g id="node26" class="node">
<title>AI3</title>
<path fill="#f5f3ff" stroke="#9b87f5" d="M707.4,-275.04C707.4,-275.04 648.88,-275.04 648.88,-275.04 642.88,-275.04 636.88,-269.04 636.88,-263.04 636.88,-263.04 636.88,-247.02 636.88,-247.02 636.88,-241.02 642.88,-235.02 648.88,-235.02 648.88,-235.02 707.4,-235.02 707.4,-235.02 713.4,-235.02 719.4,-241.02 719.4,-247.02 719.4,-247.02 719.4,-263.04 719.4,-263.04 719.4,-269.04 713.4,-275.04 707.4,-275.04"/>
<text xml:space="preserve" text-anchor="middle" x="678.14" y="-257.88" font-family="Arial" font-size="12.00">AI action</text>
<text xml:space="preserve" text-anchor="middle" x="678.14" y="-243.63" font-family="Arial" font-size="12.00">confirmation</text>
</g>
<!-- AI&#45;&gt;AI3 -->
<g id="edge26" class="edge">
<title>AI&#45;&gt;AI3</title>
<path fill="none" stroke="#8b86a3" d="M629.44,-315.57C637.63,-305.55 648.06,-292.79 657.17,-281.66"/>
<polygon fill="#8b86a3" stroke="#8b86a3" points="658.86,-283.47 661.39,-276.5 655.07,-280.37 658.86,-283.47"/>
</g>
<!-- ADM1 -->
<g id="node27" class="node">
<title>ADM1</title>
<path fill="#f5f3ff" stroke="#9b87f5" d="M793.14,-273.03C793.14,-273.03 763.14,-273.03 763.14,-273.03 757.14,-273.03 751.14,-267.03 751.14,-261.03 751.14,-261.03 751.14,-249.03 751.14,-249.03 751.14,-243.03 757.14,-237.03 763.14,-237.03 763.14,-237.03 793.14,-237.03 793.14,-237.03 799.14,-237.03 805.14,-243.03 805.14,-249.03 805.14,-249.03 805.14,-261.03 805.14,-261.03 805.14,-267.03 799.14,-273.03 793.14,-273.03"/>
<text xml:space="preserve" text-anchor="middle" x="778.14" y="-250.75" font-family="Arial" font-size="12.00">Users</text>
</g>
<!-- ADMIN&#45;&gt;ADM1 -->
<g id="edge27" class="edge">
<title>ADMIN&#45;&gt;ADM1</title>
<path fill="none" stroke="#8b86a3" d="M811.38,-315.57C805.61,-305.23 798.21,-291.97 791.85,-280.59"/>
<polygon fill="#8b86a3" stroke="#8b86a3" points="794.15,-279.67 788.6,-274.76 789.87,-282.06 794.15,-279.67"/>
</g>
<!-- ADM2 -->
<g id="node28" class="node">
<title>ADM2</title>
<path fill="#f5f3ff" stroke="#9b87f5" d="M879.14,-273.03C879.14,-273.03 849.14,-273.03 849.14,-273.03 843.14,-273.03 837.14,-267.03 837.14,-261.03 837.14,-261.03 837.14,-249.03 837.14,-249.03 837.14,-243.03 843.14,-237.03 849.14,-237.03 849.14,-237.03 879.14,-237.03 879.14,-237.03 885.14,-237.03 891.14,-243.03 891.14,-249.03 891.14,-249.03 891.14,-261.03 891.14,-261.03 891.14,-267.03 885.14,-273.03 879.14,-273.03"/>
<text xml:space="preserve" text-anchor="middle" x="864.14" y="-250.75" font-family="Arial" font-size="12.00">Skills</text>
</g>
<!-- ADMIN&#45;&gt;ADM2 -->
<g id="edge28" class="edge">
<title>ADMIN&#45;&gt;ADM2</title>
<path fill="none" stroke="#8b86a3" d="M830.9,-315.57C836.67,-305.23 844.07,-291.97 850.43,-280.59"/>
<polygon fill="#8b86a3" stroke="#8b86a3" points="852.41,-282.06 853.68,-274.76 848.13,-279.67 852.41,-282.06"/>
</g>
<!-- ADM3 -->
<g id="node29" class="node">
<title>ADM3</title>
<path fill="#f5f3ff" stroke="#9b87f5" d="M997.28,-275.04C997.28,-275.04 935,-275.04 935,-275.04 929,-275.04 923,-269.04 923,-263.04 923,-263.04 923,-247.02 923,-247.02 923,-241.02 929,-235.02 935,-235.02 935,-235.02 997.28,-235.02 997.28,-235.02 1003.28,-235.02 1009.28,-241.02 1009.28,-247.02 1009.28,-247.02 1009.28,-263.04 1009.28,-263.04 1009.28,-269.04 1003.28,-275.04 997.28,-275.04"/>
<text xml:space="preserve" text-anchor="middle" x="966.14" y="-257.88" font-family="Arial" font-size="12.00">AI / system</text>
<text xml:space="preserve" text-anchor="middle" x="966.14" y="-243.63" font-family="Arial" font-size="12.00">configuration</text>
</g>
<!-- ADMIN&#45;&gt;ADM3 -->
<g id="edge29" class="edge">
<title>ADMIN&#45;&gt;ADM3</title>
<path fill="none" stroke="#8b86a3" d="M854.04,-315.57C874.24,-304.84 900.34,-290.97 922.28,-279.32"/>
<polygon fill="#8b86a3" stroke="#8b86a3" points="923.18,-281.62 928.21,-276.18 920.88,-277.29 923.18,-281.62"/>
</g>
<!-- OVERVIEW -->
<g id="node14" class="node">
<title>OVERVIEW</title>
<path fill="#f5f3ff" stroke="#9b87f5" d="M134.03,-194.02C134.03,-194.02 52.25,-194.02 52.25,-194.02 46.25,-194.02 40.25,-188.02 40.25,-182.02 40.25,-182.02 40.25,-170.02 40.25,-170.02 40.25,-164.02 46.25,-158.02 52.25,-158.02 52.25,-158.02 134.03,-158.02 134.03,-158.02 140.03,-158.02 146.03,-164.02 146.03,-170.02 146.03,-170.02 146.03,-182.02 146.03,-182.02 146.03,-188.02 140.03,-194.02 134.03,-194.02"/>
<text xml:space="preserve" text-anchor="middle" x="93.14" y="-171.74" font-family="Arial" font-size="12.00">Project overview</text>
</g>
<!-- WORKSPACE&#45;&gt;OVERVIEW -->
<g id="edge14" class="edge">
<title>WORKSPACE&#45;&gt;OVERVIEW</title>
<path fill="none" stroke="#8b86a3" d="M196.73,-236.56C177.12,-225.28 151.46,-210.54 130.59,-198.54"/>
<polygon fill="#8b86a3" stroke="#8b86a3" points="132.03,-196.54 124.74,-195.18 129.59,-200.79 132.03,-196.54"/>
</g>
<!-- SETTINGS -->
<g id="node15" class="node">
<title>SETTINGS</title>
<path fill="#f5f3ff" stroke="#9b87f5" d="M264.65,-194.02C264.65,-194.02 189.62,-194.02 189.62,-194.02 183.62,-194.02 177.62,-188.02 177.62,-182.02 177.62,-182.02 177.62,-170.02 177.62,-170.02 177.62,-164.02 183.62,-158.02 189.62,-158.02 189.62,-158.02 264.65,-158.02 264.65,-158.02 270.65,-158.02 276.65,-164.02 276.65,-170.02 276.65,-170.02 276.65,-182.02 276.65,-182.02 276.65,-188.02 270.65,-194.02 264.65,-194.02"/>
<text xml:space="preserve" text-anchor="middle" x="227.14" y="-171.74" font-family="Arial" font-size="12.00">Project settings</text>
</g>
<!-- WORKSPACE&#45;&gt;SETTINGS -->
<g id="edge15" class="edge">
<title>WORKSPACE&#45;&gt;SETTINGS</title>
<path fill="none" stroke="#8b86a3" d="M227.14,-236.56C227.14,-226.61 227.14,-213.97 227.14,-202.89"/>
<polygon fill="#8b86a3" stroke="#8b86a3" points="229.59,-202.94 227.14,-195.94 224.69,-202.94 229.59,-202.94"/>
</g>
<!-- WORK -->
<g id="node16" class="node">
<title>WORK</title>
<path fill="#f5f3ff" stroke="#9b87f5" d="M583.9,-194.02C583.9,-194.02 438.38,-194.02 438.38,-194.02 432.38,-194.02 426.38,-188.02 426.38,-182.02 426.38,-182.02 426.38,-170.02 426.38,-170.02 426.38,-164.02 432.38,-158.02 438.38,-158.02 438.38,-158.02 583.9,-158.02 583.9,-158.02 589.9,-158.02 595.9,-164.02 595.9,-170.02 595.9,-170.02 595.9,-182.02 595.9,-182.02 595.9,-188.02 589.9,-194.02 583.9,-194.02"/>
<text xml:space="preserve" text-anchor="middle" x="511.14" y="-171.74" font-family="Arial" font-size="12.00">Sprint and task management</text>
</g>
<!-- WORKSPACE&#45;&gt;WORK -->
<g id="edge16" class="edge">
<title>WORKSPACE&#45;&gt;WORK</title>
<path fill="none" stroke="#8b86a3" d="M285.3,-238.26C329.63,-226.24 390.95,-209.61 438.51,-196.71"/>
<polygon fill="#8b86a3" stroke="#8b86a3" points="439.05,-199.11 445.16,-194.91 437.76,-194.38 439.05,-199.11"/>
</g>
<!-- SET1 -->
<g id="node17" class="node">
<title>SET1</title>
<path fill="#f5f3ff" stroke="#9b87f5" d="M110.28,-115.01C110.28,-115.01 12,-115.01 12,-115.01 6,-115.01 0,-109.01 0,-103.01 0,-103.01 0,-91.01 0,-91.01 0,-85.01 6,-79.01 12,-79.01 12,-79.01 110.28,-79.01 110.28,-79.01 116.28,-79.01 122.28,-85.01 122.28,-91.01 122.28,-91.01 122.28,-103.01 122.28,-103.01 122.28,-109.01 116.28,-115.01 110.28,-115.01"/>
<text xml:space="preserve" text-anchor="middle" x="61.14" y="-92.73" font-family="Arial" font-size="12.00">General information</text>
</g>
<!-- SETTINGS&#45;&gt;SET1 -->
<g id="edge17" class="edge">
<title>SETTINGS&#45;&gt;SET1</title>
<path fill="none" stroke="#8b86a3" d="M189.47,-157.55C164.75,-146.07 132.28,-131.01 106.19,-118.91"/>
<polygon fill="#8b86a3" stroke="#8b86a3" points="107.41,-116.78 100.03,-116.05 105.35,-121.22 107.41,-116.78"/>
</g>
<!-- SET2 -->
<g id="node18" class="node">
<title>SET2</title>
<path fill="#f5f3ff" stroke="#9b87f5" d="M287.53,-117.02C287.53,-117.02 166.75,-117.02 166.75,-117.02 160.75,-117.02 154.75,-111.02 154.75,-105.02 154.75,-105.02 154.75,-89 154.75,-89 154.75,-83 160.75,-77 166.75,-77 166.75,-77 287.53,-77 287.53,-77 293.53,-77 299.53,-83 299.53,-89 299.53,-89 299.53,-105.02 299.53,-105.02 299.53,-111.02 293.53,-117.02 287.53,-117.02"/>
<text xml:space="preserve" text-anchor="middle" x="227.14" y="-99.86" font-family="Arial" font-size="12.00">Members / labels /</text>
<text xml:space="preserve" text-anchor="middle" x="227.14" y="-85.61" font-family="Arial" font-size="12.00">archive or delete project</text>
</g>
<!-- SETTINGS&#45;&gt;SET2 -->
<g id="edge18" class="edge">
<title>SETTINGS&#45;&gt;SET2</title>
<path fill="none" stroke="#8b86a3" d="M227.14,-157.55C227.14,-148.09 227.14,-136.2 227.14,-125.53"/>
<polygon fill="#8b86a3" stroke="#8b86a3" points="229.59,-125.82 227.14,-118.82 224.69,-125.82 229.59,-125.82"/>
</g>
<!-- BACKLOG -->
<g id="node19" class="node">
<title>BACKLOG</title>
<path fill="#f5f3ff" stroke="#9b87f5" d="M420.78,-115.01C420.78,-115.01 343.5,-115.01 343.5,-115.01 337.5,-115.01 331.5,-109.01 331.5,-103.01 331.5,-103.01 331.5,-91.01 331.5,-91.01 331.5,-85.01 337.5,-79.01 343.5,-79.01 343.5,-79.01 420.78,-79.01 420.78,-79.01 426.78,-79.01 432.78,-85.01 432.78,-91.01 432.78,-91.01 432.78,-103.01 432.78,-103.01 432.78,-109.01 426.78,-115.01 420.78,-115.01"/>
<text xml:space="preserve" text-anchor="middle" x="382.14" y="-92.73" font-family="Arial" font-size="12.00">Backlog / Sprint</text>
</g>
<!-- WORK&#45;&gt;BACKLOG -->
<g id="edge19" class="edge">
<title>WORK&#45;&gt;BACKLOG</title>
<path fill="none" stroke="#8b86a3" d="M481.87,-157.55C463.07,-146.32 438.5,-131.66 418.46,-119.69"/>
<polygon fill="#8b86a3" stroke="#8b86a3" points="419.86,-117.68 412.6,-116.19 417.35,-121.88 419.86,-117.68"/>
</g>
<!-- BOARD -->
<g id="node20" class="node">
<title>BOARD</title>
<path fill="#f5f3ff" stroke="#9b87f5" d="M545.65,-115.01C545.65,-115.01 476.62,-115.01 476.62,-115.01 470.62,-115.01 464.62,-109.01 464.62,-103.01 464.62,-103.01 464.62,-91.01 464.62,-91.01 464.62,-85.01 470.62,-79.01 476.62,-79.01 476.62,-79.01 545.65,-79.01 545.65,-79.01 551.65,-79.01 557.65,-85.01 557.65,-91.01 557.65,-91.01 557.65,-103.01 557.65,-103.01 557.65,-109.01 551.65,-115.01 545.65,-115.01"/>
<text xml:space="preserve" text-anchor="middle" x="511.14" y="-92.73" font-family="Arial" font-size="12.00">Kanban board</text>
</g>
<!-- WORK&#45;&gt;BOARD -->
<g id="edge20" class="edge">
<title>WORK&#45;&gt;BOARD</title>
<path fill="none" stroke="#8b86a3" d="M511.14,-157.55C511.14,-147.6 511.14,-134.96 511.14,-123.88"/>
<polygon fill="#8b86a3" stroke="#8b86a3" points="513.59,-123.93 511.14,-116.93 508.69,-123.93 513.59,-123.93"/>
</g>
<!-- TIMELINE -->
<g id="node21" class="node">
<title>TIMELINE</title>
<path fill="#f5f3ff" stroke="#9b87f5" d="M640.65,-115.01C640.65,-115.01 601.62,-115.01 601.62,-115.01 595.62,-115.01 589.62,-109.01 589.62,-103.01 589.62,-103.01 589.62,-91.01 589.62,-91.01 589.62,-85.01 595.62,-79.01 601.62,-79.01 601.62,-79.01 640.65,-79.01 640.65,-79.01 646.65,-79.01 652.65,-85.01 652.65,-91.01 652.65,-91.01 652.65,-103.01 652.65,-103.01 652.65,-109.01 646.65,-115.01 640.65,-115.01"/>
<text xml:space="preserve" text-anchor="middle" x="621.14" y="-92.73" font-family="Arial" font-size="12.00">Timeline</text>
</g>
<!-- WORK&#45;&gt;TIMELINE -->
<g id="edge21" class="edge">
<title>WORK&#45;&gt;TIMELINE</title>
<path fill="none" stroke="#8b86a3" d="M536.1,-157.55C551.99,-146.42 572.71,-131.91 589.72,-120.01"/>
<polygon fill="#8b86a3" stroke="#8b86a3" points="590.71,-122.31 595.04,-116.28 587.9,-118.29 590.71,-122.31"/>
</g>
<!-- TASK -->
<g id="node22" class="node">
<title>TASK</title>
<path fill="#f5f3ff" stroke="#9b87f5" d="M747.28,-115.01C747.28,-115.01 697,-115.01 697,-115.01 691,-115.01 685,-109.01 685,-103.01 685,-103.01 685,-91.01 685,-91.01 685,-85.01 691,-79.01 697,-79.01 697,-79.01 747.28,-79.01 747.28,-79.01 753.28,-79.01 759.28,-85.01 759.28,-91.01 759.28,-91.01 759.28,-103.01 759.28,-103.01 759.28,-109.01 753.28,-115.01 747.28,-115.01"/>
<text xml:space="preserve" text-anchor="middle" x="722.14" y="-92.73" font-family="Arial" font-size="12.00">Task detail</text>
</g>
<!-- WORK&#45;&gt;TASK -->
<g id="edge22" class="edge">
<title>WORK&#45;&gt;TASK</title>
<path fill="none" stroke="#8b86a3" d="M559.02,-157.55C594.4,-144.63 642.26,-127.17 676.98,-114.49"/>
<polygon fill="#8b86a3" stroke="#8b86a3" points="677.46,-116.93 683.2,-112.22 675.78,-112.32 677.46,-116.93"/>
</g>
<!-- COMMENT -->
<g id="node23" class="node">
<title>COMMENT</title>
<path fill="#f5f3ff" stroke="#9b87f5" d="M747.65,-36C747.65,-36 696.62,-36 696.62,-36 690.62,-36 684.62,-30 684.62,-24 684.62,-24 684.62,-12 684.62,-12 684.62,-6 690.62,0 696.62,0 696.62,0 747.65,0 747.65,0 753.65,0 759.65,-6 759.65,-12 759.65,-12 759.65,-24 759.65,-24 759.65,-30 753.65,-36 747.65,-36"/>
<text xml:space="preserve" text-anchor="middle" x="722.14" y="-13.72" font-family="Arial" font-size="12.00">Comments</text>
</g>
<!-- TASK&#45;&gt;COMMENT -->
<g id="edge23" class="edge">
<title>TASK&#45;&gt;COMMENT</title>
<path fill="none" stroke="#8b86a3" d="M722.14,-78.54C722.14,-68.59 722.14,-55.95 722.14,-44.87"/>
<polygon fill="#8b86a3" stroke="#8b86a3" points="724.59,-44.92 722.14,-37.92 719.69,-44.92 724.59,-44.92"/>
</g>
</g>
</svg>
