<?plantuml 1.2026.1?><svg xmlns="http://www.w3.org/2000/svg" xmlns:xlink="http://www.w3.org/1999/xlink" contentStyleType="text/css" data-diagram-type="SEQUENCE" height="1069px" preserveAspectRatio="none" style="width:1023px;height:1069px;background:#FFFFFF;" version="1.1" viewBox="0 0 1023 1069" width="1023px" zoomAndPan="magnify"><defs/><g><g><title>Admin</title><rect fill="#FFFFFF" height="130.3984" style="stroke:#181818;stroke-width:1;" width="10" x="25.4321" y="112.4297"/></g><g><title>SkillDetailView</title><rect fill="#FFFFFF" height="867.5234" style="stroke:#181818;stroke-width:1;" width="10" x="196.4131" y="112.4297"/></g><g><title>SkillDetailView</title><rect fill="#FFFFFF" height="28" style="stroke:#181818;stroke-width:1;" width="10" x="201.4131" y="149.5625"/></g><g><title>SkillDetailView</title><rect fill="#FFFFFF" height="28" style="stroke:#181818;stroke-width:1;" width="10" x="201.4131" y="279.9609"/></g><g><title>SkillDetailView</title><rect fill="#FFFFFF" height="28" style="stroke:#181818;stroke-width:1;" width="10" x="201.4131" y="376.2266"/></g><g><title>SkillDetailView</title><rect fill="#FFFFFF" height="28" style="stroke:#181818;stroke-width:1;" width="10" x="201.4131" y="668.1563"/></g><g><title>SkillDetailView</title><rect fill="#FFFFFF" height="28" style="stroke:#181818;stroke-width:1;" width="10" x="201.4131" y="935.9531"/></g><g><title>AdminController</title><rect fill="#FFFFFF" height="451.4609" style="stroke:#181818;stroke-width:1;" width="10" x="515.2905" y="447.3594"/></g><g><title>SKILLS</title><rect fill="#FFFFFF" height="262.7969" style="stroke:#181818;stroke-width:1;" width="10" x="747.8228" y="476.4922"/></g><g><title>SKILLS</title><rect fill="#FFFFFF" height="28" style="stroke:#181818;stroke-width:1;" width="10" x="752.8228" y="513.625"/></g><g><title>SKILLS</title><rect fill="#FFFFFF" height="101.2656" style="stroke:#181818;stroke-width:1;" width="10" x="747.8228" y="768.4219"/></g><g><title>SKILLS</title><rect fill="#FFFFFF" height="28" style="stroke:#181818;stroke-width:1;" width="10" x="752.8228" y="805.5547"/></g><rect fill="none" height="89.2656" style="stroke:#000000;stroke-width:1.5;" width="278.0376" x="136.6958" y="329.9609"/><rect fill="none" height="147.5313" style="stroke:#000000;stroke-width:1.5;" width="652.4683" x="136.6958" y="563.625"/><g class="participant-lifeline" data-entity-uid="part1" data-qualified-name="A" id="part1-lifeline"><g><title>Admin</title><rect fill="#000000" fill-opacity="0.00000" height="907.6563" width="8" x="26.4321" y="81.2969"/><line style="stroke:#181818;stroke-width:0.5;stroke-dasharray:5,5;" x1="30" x2="30" y1="81.2969" y2="988.9531"/></g></g><g class="participant-lifeline" data-entity-uid="part2" data-qualified-name="SDV" id="part2-lifeline"><g><title>SkillDetailView</title><rect fill="#000000" fill-opacity="0.00000" height="907.6563" width="8" x="197.4131" y="81.2969"/><line style="stroke:#181818;stroke-width:0.5;stroke-dasharray:5,5;" x1="200.6958" x2="200.6958" y1="81.2969" y2="988.9531"/></g></g><g class="participant-lifeline" data-entity-uid="part3" data-qualified-name="AC" id="part3-lifeline"><g><title>AdminController</title><rect fill="#000000" fill-opacity="0.00000" height="907.6563" width="8" x="516.2905" y="81.2969"/><line style="stroke:#181818;stroke-width:0.5;stroke-dasharray:5,5;" x1="520.272" x2="520.272" y1="81.2969" y2="988.9531"/></g></g><g class="participant-lifeline" data-entity-uid="part4" data-qualified-name="SK" id="part4-lifeline"><g><title>SKILLS</title><rect fill="#000000" fill-opacity="0.00000" height="907.6563" width="8" x="748.8228" y="81.2969"/><line style="stroke:#181818;stroke-width:0.5;stroke-dasharray:5,5;" x1="752.4814" x2="752.4814" y1="81.2969" y2="988.9531"/></g></g><g class="participant participant-head" data-entity-uid="part1" data-qualified-name="A" id="part1-head"><text fill="#000000" font-family="sans-serif" font-size="14" lengthAdjust="spacing" textLength="44.8643" x="5" y="77.9951">Admin</text><ellipse cx="30.4321" cy="13.5" fill="#E2E2F0" rx="8" ry="8" style="stroke:#181818;stroke-width:0.5;"/><path d="M30.4321,21.5 L30.4321,48.5 M17.4321,29.5 L43.4321,29.5 M30.4321,48.5 L17.4321,63.5 M30.4321,48.5 L43.4321,63.5" fill="none" style="stroke:#181818;stroke-width:0.5;"/></g><g class="participant participant-tail" data-entity-uid="part1" data-qualified-name="A" id="part1-tail"><text fill="#000000" font-family="sans-serif" font-size="14" lengthAdjust="spacing" textLength="44.8643" x="5" y="1000.9482">Admin</text><ellipse cx="30.4321" cy="1012.75" fill="#E2E2F0" rx="8" ry="8" style="stroke:#181818;stroke-width:0.5;"/><path d="M30.4321,1020.75 L30.4321,1047.75 M17.4321,1028.75 L43.4321,1028.75 M30.4321,1047.75 L17.4321,1062.75 M30.4321,1047.75 L43.4321,1062.75" fill="none" style="stroke:#181818;stroke-width:0.5;"/></g><g class="participant participant-head" data-entity-uid="part2" data-qualified-name="SDV" id="part2-head"><text fill="#000000" font-family="sans-serif" font-size="14" lengthAdjust="spacing" textLength="103.4346" x="146.6958" y="77.9951">SkillDetailView</text><path d="M180.9131,37 L180.9131,61 M180.9131,49 L197.9131,49" fill="none" style="stroke:#181818;stroke-width:0.5;"/><ellipse cx="209.9131" cy="49" fill="#E2E2F0" rx="12" ry="12" style="stroke:#181818;stroke-width:0.5;"/></g><g class="participant participant-tail" data-entity-uid="part2" data-qualified-name="SDV" id="part2-tail"><text fill="#000000" font-family="sans-serif" font-size="14" lengthAdjust="spacing" textLength="103.4346" x="146.6958" y="1000.9482">SkillDetailView</text><path d="M180.9131,1008.25 L180.9131,1032.25 M180.9131,1020.25 L197.9131,1020.25" fill="none" style="stroke:#181818;stroke-width:0.5;"/><ellipse cx="209.9131" cy="1020.25" fill="#E2E2F0" rx="12" ry="12" style="stroke:#181818;stroke-width:0.5;"/></g><g class="participant participant-head" data-entity-uid="part3" data-qualified-name="AC" id="part3-head"><text fill="#000000" font-family="sans-serif" font-size="14" lengthAdjust="spacing" textLength="114.0371" x="460.272" y="77.9951">AdminController</text><ellipse cx="520.2905" cy="49" fill="#E2E2F0" rx="12" ry="12" style="stroke:#181818;stroke-width:0.5;"/><polygon fill="#181818" points="516.2905,37,522.2905,32,520.2905,37,522.2905,42,516.2905,37" style="stroke:#181818;stroke-width:1;"/></g><g class="participant participant-tail" data-entity-uid="part3" data-qualified-name="AC" id="part3-tail"><text fill="#000000" font-family="sans-serif" font-size="14" lengthAdjust="spacing" textLength="114.0371" x="460.272" y="1000.9482">AdminController</text><ellipse cx="520.2905" cy="1020.25" fill="#E2E2F0" rx="12" ry="12" style="stroke:#181818;stroke-width:0.5;"/><polygon fill="#181818" points="516.2905,1008.25,522.2905,1003.25,520.2905,1008.25,522.2905,1013.25,516.2905,1008.25" style="stroke:#181818;stroke-width:1;"/></g><g class="participant participant-head" data-entity-uid="part4" data-qualified-name="SK" id="part4-head"><text fill="#000000" font-family="sans-serif" font-size="14" lengthAdjust="spacing" textLength="46.6826" x="726.4814" y="77.9951">SKILLS</text><ellipse cx="752.8228" cy="49" fill="#E2E2F0" rx="12" ry="12" style="stroke:#181818;stroke-width:0.5;"/><line style="stroke:#181818;stroke-width:0.5;" x1="740.8228" x2="764.8228" y1="63" y2="63"/></g><g class="participant participant-tail" data-entity-uid="part4" data-qualified-name="SK" id="part4-tail"><text fill="#000000" font-family="sans-serif" font-size="14" lengthAdjust="spacing" textLength="46.6826" x="726.4814" y="1000.9482">SKILLS</text><ellipse cx="752.8228" cy="1020.25" fill="#E2E2F0" rx="12" ry="12" style="stroke:#181818;stroke-width:0.5;"/><line style="stroke:#181818;stroke-width:0.5;" x1="740.8228" x2="764.8228" y1="1034.25" y2="1034.25"/></g><g><title>Admin</title><rect fill="#FFFFFF" height="130.3984" style="stroke:#181818;stroke-width:1;" width="10" x="25.4321" y="112.4297"/></g><g><title>SkillDetailView</title><rect fill="#FFFFFF" height="867.5234" style="stroke:#181818;stroke-width:1;" width="10" x="196.4131" y="112.4297"/></g><g><title>SkillDetailView</title><rect fill="#FFFFFF" height="28" style="stroke:#181818;stroke-width:1;" width="10" x="201.4131" y="149.5625"/></g><g><title>SkillDetailView</title><rect fill="#FFFFFF" height="28" style="stroke:#181818;stroke-width:1;" width="10" x="201.4131" y="279.9609"/></g><g><title>SkillDetailView</title><rect fill="#FFFFFF" height="28" style="stroke:#181818;stroke-width:1;" width="10" x="201.4131" y="376.2266"/></g><g><title>SkillDetailView</title><rect fill="#FFFFFF" height="28" style="stroke:#181818;stroke-width:1;" width="10" x="201.4131" y="668.1563"/></g><g><title>SkillDetailView</title><rect fill="#FFFFFF" height="28" style="stroke:#181818;stroke-width:1;" width="10" x="201.4131" y="935.9531"/></g><g><title>AdminController</title><rect fill="#FFFFFF" height="451.4609" style="stroke:#181818;stroke-width:1;" width="10" x="515.2905" y="447.3594"/></g><g><title>SKILLS</title><rect fill="#FFFFFF" height="262.7969" style="stroke:#181818;stroke-width:1;" width="10" x="747.8228" y="476.4922"/></g><g><title>SKILLS</title><rect fill="#FFFFFF" height="28" style="stroke:#181818;stroke-width:1;" width="10" x="752.8228" y="513.625"/></g><g><title>SKILLS</title><rect fill="#FFFFFF" height="101.2656" style="stroke:#181818;stroke-width:1;" width="10" x="747.8228" y="768.4219"/></g><g><title>SKILLS</title><rect fill="#FFFFFF" height="28" style="stroke:#181818;stroke-width:1;" width="10" x="752.8228" y="805.5547"/></g><g class="message" data-entity-1="part1" data-entity-2="part2" id="msg1"><polygon fill="#181818" points="184.4131,108.4297,194.4131,112.4297,184.4131,116.4297,188.4131,112.4297" style="stroke:#181818;stroke-width:1;"/><line style="stroke:#181818;stroke-width:1;" x1="35.4321" x2="190.4131" y1="112.4297" y2="112.4297"/><text fill="#000000" font-family="sans-serif" font-size="13" font-weight="bold" lengthAdjust="spacing" textLength="9.0454" x="42.4321" y="107.3638">1</text><text fill="#000000" font-family="sans-serif" font-size="13" lengthAdjust="spacing" textLength="133.9355" x="55.4775" y="107.3638">Click "Edit" on a skill</text></g><g class="message" data-entity-1="part2" data-entity-2="part2" id="msg2"><line style="stroke:#181818;stroke-width:1;" x1="211.4131" x2="253.4131" y1="141.5625" y2="141.5625"/><line style="stroke:#181818;stroke-width:1;" x1="253.4131" x2="253.4131" y1="141.5625" y2="154.5625"/><line style="stroke:#181818;stroke-width:1;" x1="212.4131" x2="253.4131" y1="154.5625" y2="154.5625"/><polygon fill="#181818" points="222.4131,150.5625,212.4131,154.5625,222.4131,158.5625,218.4131,154.5625" style="stroke:#181818;stroke-width:1;"/><text fill="#000000" font-family="sans-serif" font-size="13" font-weight="bold" lengthAdjust="spacing" textLength="9.0454" x="218.4131" y="136.4966">2</text><text fill="#000000" font-family="sans-serif" font-size="13" lengthAdjust="spacing" textLength="214.3667" x="231.4585" y="136.4966">Display edit form (current name)</text></g><g class="message" data-entity-1="part1" data-entity-2="part2" id="msg3"><polygon fill="#181818" points="184.4131,209.6953,194.4131,213.6953,184.4131,217.6953,188.4131,213.6953" style="stroke:#181818;stroke-width:1;"/><line style="stroke:#181818;stroke-width:1;" x1="35.4321" x2="190.4131" y1="213.6953" y2="213.6953"/><text fill="#000000" font-family="sans-serif" font-size="13" font-weight="bold" lengthAdjust="spacing" textLength="9.0454" x="42.4321" y="208.6294">3</text><text fill="#000000" font-family="sans-serif" font-size="13" lengthAdjust="spacing" textLength="113.5723" x="55.4775" y="208.6294">Modify skill name</text></g><g class="message" data-entity-1="part1" data-entity-2="part2" id="msg4"><polygon fill="#181818" points="184.4131,238.8281,194.4131,242.8281,184.4131,246.8281,188.4131,242.8281" style="stroke:#181818;stroke-width:1;"/><line style="stroke:#181818;stroke-width:1;" x1="30.4321" x2="190.4131" y1="242.8281" y2="242.8281"/><text fill="#000000" font-family="sans-serif" font-size="13" font-weight="bold" lengthAdjust="spacing" textLength="9.0454" x="37.4321" y="237.7622">4</text><text fill="#000000" font-family="sans-serif" font-size="13" lengthAdjust="spacing" textLength="78.9775" x="50.4775" y="237.7622">Click "Save"</text></g><g class="message" data-entity-1="part2" data-entity-2="part2" id="msg5"><line style="stroke:#181818;stroke-width:1;" x1="211.4131" x2="253.4131" y1="271.9609" y2="271.9609"/><line style="stroke:#181818;stroke-width:1;" x1="253.4131" x2="253.4131" y1="271.9609" y2="284.9609"/><line style="stroke:#181818;stroke-width:1;" x1="212.4131" x2="253.4131" y1="284.9609" y2="284.9609"/><polygon fill="#181818" points="222.4131,280.9609,212.4131,284.9609,222.4131,288.9609,218.4131,284.9609" style="stroke:#181818;stroke-width:1;"/><text fill="#000000" font-family="sans-serif" font-size="13" font-weight="bold" lengthAdjust="spacing" textLength="9.0454" x="218.4131" y="266.895">5</text><text fill="#000000" font-family="sans-serif" font-size="13" lengthAdjust="spacing" textLength="86.8105" x="231.4585" y="266.895">Validate data</text></g><path d="M136.6958,329.9609 L223.6475,329.9609 L223.6475,337.0938 L213.6475,347.0938 L136.6958,347.0938 L136.6958,329.9609" fill="#EEEEEE" style="stroke:#000000;stroke-width:1.5;"/><rect fill="none" height="89.2656" style="stroke:#000000;stroke-width:1.5;" width="278.0376" x="136.6958" y="329.9609"/><text fill="#000000" font-family="sans-serif" font-size="13" font-weight="bold" lengthAdjust="spacing" textLength="41.9517" x="151.6958" y="343.0278">break</text><text fill="#000000" font-family="sans-serif" font-size="11" font-weight="bold" lengthAdjust="spacing" textLength="83.7944" x="238.6475" y="342.1714">[Invalid data]</text><g class="message" data-entity-1="part2" data-entity-2="part2" id="msg6"><line style="stroke:#181818;stroke-width:1;" x1="211.4131" x2="253.4131" y1="368.2266" y2="368.2266"/><line style="stroke:#181818;stroke-width:1;" x1="253.4131" x2="253.4131" y1="368.2266" y2="381.2266"/><line style="stroke:#181818;stroke-width:1;" x1="212.4131" x2="253.4131" y1="381.2266" y2="381.2266"/><polygon fill="#181818" points="222.4131,377.2266,212.4131,381.2266,222.4131,385.2266,218.4131,381.2266" style="stroke:#181818;stroke-width:1;"/><text fill="#000000" font-family="sans-serif" font-size="13" font-weight="bold" lengthAdjust="spacing" textLength="9.0454" x="218.4131" y="363.1606">6</text><text fill="#000000" font-family="sans-serif" font-size="13" lengthAdjust="spacing" textLength="161.2749" x="231.4585" y="363.1606">Display error notification</text></g><g class="message" data-entity-1="part2" data-entity-2="part3" id="msg7"><polygon fill="#181818" points="503.2905,443.3594,513.2905,447.3594,503.2905,451.3594,507.2905,447.3594" style="stroke:#181818;stroke-width:1;"/><line style="stroke:#181818;stroke-width:1;" x1="206.4131" x2="509.2905" y1="447.3594" y2="447.3594"/><text fill="#000000" font-family="sans-serif" font-size="13" font-weight="bold" lengthAdjust="spacing" textLength="9.0454" x="213.4131" y="442.2935">7</text><text fill="#000000" font-family="sans-serif" font-size="13" lengthAdjust="spacing" textLength="136.5127" x="226.4585" y="442.2935">Send update request</text></g><g class="message" data-entity-1="part3" data-entity-2="part4" id="msg8"><polygon fill="#181818" points="735.8228,472.4922,745.8228,476.4922,735.8228,480.4922,739.8228,476.4922" style="stroke:#181818;stroke-width:1;"/><line style="stroke:#181818;stroke-width:1;" x1="525.2905" x2="741.8228" y1="476.4922" y2="476.4922"/><text fill="#000000" font-family="sans-serif" font-size="13" font-weight="bold" lengthAdjust="spacing" textLength="9.0454" x="532.2905" y="471.4263">8</text><text fill="#000000" font-family="sans-serif" font-size="13" lengthAdjust="spacing" textLength="190.4868" x="545.3359" y="471.4263">Check new name uniqueness</text></g><g class="message" data-entity-1="part4" data-entity-2="part4" id="msg9"><line style="stroke:#181818;stroke-width:1;" x1="762.8228" x2="804.8228" y1="505.625" y2="505.625"/><line style="stroke:#181818;stroke-width:1;" x1="804.8228" x2="804.8228" y1="505.625" y2="518.625"/><line style="stroke:#181818;stroke-width:1;" x1="763.8228" x2="804.8228" y1="518.625" y2="518.625"/><polygon fill="#181818" points="773.8228,514.625,763.8228,518.625,773.8228,522.625,769.8228,518.625" style="stroke:#181818;stroke-width:1;"/><text fill="#000000" font-family="sans-serif" font-size="13" font-weight="bold" lengthAdjust="spacing" textLength="9.0454" x="769.8228" y="500.5591">9</text><text fill="#000000" font-family="sans-serif" font-size="13" lengthAdjust="spacing" textLength="233.3398" x="782.8682" y="500.5591">Query by name (exclude current id)</text></g><path d="M136.6958,563.625 L223.6475,563.625 L223.6475,570.7578 L213.6475,580.7578 L136.6958,580.7578 L136.6958,563.625" fill="#EEEEEE" style="stroke:#000000;stroke-width:1.5;"/><rect fill="none" height="147.5313" style="stroke:#000000;stroke-width:1.5;" width="652.4683" x="136.6958" y="563.625"/><text fill="#000000" font-family="sans-serif" font-size="13" font-weight="bold" lengthAdjust="spacing" textLength="41.9517" x="151.6958" y="576.6919">break</text><text fill="#000000" font-family="sans-serif" font-size="11" font-weight="bold" lengthAdjust="spacing" textLength="136.4902" x="238.6475" y="575.8354">[Name already exists]</text><g class="message" data-entity-1="part4" data-entity-2="part3" id="msg10"><polygon fill="#181818" points="536.2905,597.8906,526.2905,601.8906,536.2905,605.8906,532.2905,601.8906" style="stroke:#181818;stroke-width:1;"/><line style="stroke:#181818;stroke-width:1;stroke-dasharray:2,2;" x1="530.2905" x2="746.8228" y1="601.8906" y2="601.8906"/><text fill="#000000" font-family="sans-serif" font-size="13" font-weight="bold" lengthAdjust="spacing" textLength="18.0908" x="542.2905" y="596.8247">10</text><text fill="#000000" font-family="sans-serif" font-size="13" lengthAdjust="spacing" textLength="61.9341" x="564.3813" y="596.8247">Duplicate</text></g><g class="message" data-entity-1="part3" data-entity-2="part2" id="msg11"><polygon fill="#181818" points="217.4131,627.0234,207.4131,631.0234,217.4131,635.0234,213.4131,631.0234" style="stroke:#181818;stroke-width:1;"/><line style="stroke:#181818;stroke-width:1;stroke-dasharray:2,2;" x1="211.4131" x2="514.2905" y1="631.0234" y2="631.0234"/><text fill="#000000" font-family="sans-serif" font-size="13" font-weight="bold" lengthAdjust="spacing" textLength="18.0908" x="223.4131" y="625.9575">11</text><text fill="#000000" font-family="sans-serif" font-size="13" lengthAdjust="spacing" textLength="109.4399" x="245.5039" y="625.9575">Error notification</text></g><g class="message" data-entity-1="part2" data-entity-2="part2" id="msg12"><line style="stroke:#181818;stroke-width:1;" x1="211.4131" x2="253.4131" y1="660.1563" y2="660.1563"/><line style="stroke:#181818;stroke-width:1;" x1="253.4131" x2="253.4131" y1="660.1563" y2="673.1563"/><line style="stroke:#181818;stroke-width:1;" x1="212.4131" x2="253.4131" y1="673.1563" y2="673.1563"/><polygon fill="#181818" points="222.4131,669.1563,212.4131,673.1563,222.4131,677.1563,218.4131,673.1563" style="stroke:#181818;stroke-width:1;"/><text fill="#000000" font-family="sans-serif" font-size="13" font-weight="bold" lengthAdjust="spacing" textLength="18.0908" x="218.4131" y="655.0903">12</text><text fill="#000000" font-family="sans-serif" font-size="13" lengthAdjust="spacing" textLength="262.7866" x="240.5039" y="655.0903">Display "Skill name already exists" error</text></g><g class="message" data-entity-1="part4" data-entity-2="part3" id="msg13"><polygon fill="#181818" points="536.2905,735.2891,526.2905,739.2891,536.2905,743.2891,532.2905,739.2891" style="stroke:#181818;stroke-width:1;"/><line style="stroke:#181818;stroke-width:1;stroke-dasharray:2,2;" x1="530.2905" x2="751.8228" y1="739.2891" y2="739.2891"/><text fill="#000000" font-family="sans-serif" font-size="13" font-weight="bold" lengthAdjust="spacing" textLength="18.0908" x="542.2905" y="734.2231">13</text><text fill="#000000" font-family="sans-serif" font-size="13" lengthAdjust="spacing" textLength="101.1626" x="564.3813" y="734.2231">Name available</text></g><g class="message" data-entity-1="part3" data-entity-2="part4" id="msg14"><polygon fill="#181818" points="735.8228,764.4219,745.8228,768.4219,735.8228,772.4219,739.8228,768.4219" style="stroke:#181818;stroke-width:1;"/><line style="stroke:#181818;stroke-width:1;" x1="525.2905" x2="741.8228" y1="768.4219" y2="768.4219"/><text fill="#000000" font-family="sans-serif" font-size="13" font-weight="bold" lengthAdjust="spacing" textLength="18.0908" x="532.2905" y="763.356">14</text><text fill="#000000" font-family="sans-serif" font-size="13" lengthAdjust="spacing" textLength="117.3491" x="554.3813" y="763.356">Update skill name</text></g><g class="message" data-entity-1="part4" data-entity-2="part4" id="msg15"><line style="stroke:#181818;stroke-width:1;" x1="762.8228" x2="804.8228" y1="797.5547" y2="797.5547"/><line style="stroke:#181818;stroke-width:1;" x1="804.8228" x2="804.8228" y1="797.5547" y2="810.5547"/><line style="stroke:#181818;stroke-width:1;" x1="763.8228" x2="804.8228" y1="810.5547" y2="810.5547"/><polygon fill="#181818" points="773.8228,806.5547,763.8228,810.5547,773.8228,814.5547,769.8228,810.5547" style="stroke:#181818;stroke-width:1;"/><text fill="#000000" font-family="sans-serif" font-size="13" font-weight="bold" lengthAdjust="spacing" textLength="18.0908" x="769.8228" y="792.4888">15</text><text fill="#000000" font-family="sans-serif" font-size="13" lengthAdjust="spacing" textLength="93.2534" x="791.9136" y="792.4888">Update record</text></g><g class="message" data-entity-1="part4" data-entity-2="part3" id="msg16"><polygon fill="#181818" points="536.2905,865.6875,526.2905,869.6875,536.2905,873.6875,532.2905,869.6875" style="stroke:#181818;stroke-width:1;"/><line style="stroke:#181818;stroke-width:1;stroke-dasharray:2,2;" x1="530.2905" x2="751.8228" y1="869.6875" y2="869.6875"/><text fill="#000000" font-family="sans-serif" font-size="13" font-weight="bold" lengthAdjust="spacing" textLength="18.0908" x="542.2905" y="864.6216">16</text><text fill="#000000" font-family="sans-serif" font-size="13" lengthAdjust="spacing" textLength="118.4917" x="564.3813" y="864.6216">Update successful</text></g><g class="message" data-entity-1="part3" data-entity-2="part2" id="msg17"><polygon fill="#181818" points="217.4131,894.8203,207.4131,898.8203,217.4131,902.8203,213.4131,898.8203" style="stroke:#181818;stroke-width:1;"/><line style="stroke:#181818;stroke-width:1;stroke-dasharray:2,2;" x1="211.4131" x2="519.2905" y1="898.8203" y2="898.8203"/><text fill="#000000" font-family="sans-serif" font-size="13" font-weight="bold" lengthAdjust="spacing" textLength="18.0908" x="223.4131" y="893.7544">17</text><text fill="#000000" font-family="sans-serif" font-size="13" lengthAdjust="spacing" textLength="129.5684" x="245.5039" y="893.7544">Success notification</text></g><g class="message" data-entity-1="part2" data-entity-2="part2" id="msg18"><line style="stroke:#181818;stroke-width:1;" x1="211.4131" x2="253.4131" y1="927.9531" y2="927.9531"/><line style="stroke:#181818;stroke-width:1;" x1="253.4131" x2="253.4131" y1="927.9531" y2="940.9531"/><line style="stroke:#181818;stroke-width:1;" x1="212.4131" x2="253.4131" y1="940.9531" y2="940.9531"/><polygon fill="#181818" points="222.4131,936.9531,212.4131,940.9531,222.4131,944.9531,218.4131,940.9531" style="stroke:#181818;stroke-width:1;"/><text fill="#000000" font-family="sans-serif" font-size="13" font-weight="bold" lengthAdjust="spacing" textLength="18.0908" x="218.4131" y="922.8872">18</text><text fill="#000000" font-family="sans-serif" font-size="13" lengthAdjust="spacing" textLength="165.458" x="240.5039" y="922.8872">Display success message</text></g><?plantuml-src ZLFDRkCW4Bxp52EVsaDUe5gjP3azL6vNMbdD7SEa7GL35aEsUViTJ9t5gHNrO8JnVFFz39OnE1k77hqGKWNdeTO3MP0ZrA9tqMhfpz0To9Wj1abcH_WtVUssEw6S3TwP36doYq4_WHk1Db1WRFlq_DnDa5Q86ZO_4_O16aFg0DMZfb21OqOO4qjIGISPaFalsqJ6pmMxfV5ev1cGmR1tVe0x5RrdHh1omFibKkFYjT3muZJjpvbuGdxLryaJLcMBUg5a9mtfTCoBl4tRUvG7UBAd1Cdr0AkklESvM1TeJqe6SfOB5xq0hfgZrMBMLJSFqF41nEEapEEVY6CeWcr4tKoiBTjyHxPfUQZ9FqHBN6rn70iphUZQkVvtHBuG_JcNt-67Cb4ZpF6Jlby0IvtjdC6l19M6zvhTVj0OHhR4cdviDXF9DXvDiewV2QNpPEjnBPcr2AlkCj8heYh7-xr42qbPyud_0DaRlFRrFy_N77fnfTPpV9s7evpNDo8h9Cojer8ydtqqrohAgBfSjGohlCRDwX_rsHm6NkGRthpH_m00?></g></svg>