<?plantuml 1.2026.1?><svg xmlns="http://www.w3.org/2000/svg" xmlns:xlink="http://www.w3.org/1999/xlink" contentStyleType="text/css" data-diagram-type="SEQUENCE" height="1215px" preserveAspectRatio="none" style="width:1020px;height:1215px;background:#FFFFFF;" version="1.1" viewBox="0 0 1020 1215" width="1020px" zoomAndPan="magnify"><defs/><g><g><title>Admin</title><rect fill="#FFFFFF" height="174.6641" style="stroke:#181818;stroke-width:1;" width="10" x="25.4321" y="112.4297"/></g><g><title>UserListView</title><rect fill="#FFFFFF" height="29.1328" style="stroke:#181818;stroke-width:1;" width="10" x="168.7056" y="112.4297"/></g><g><title>AddUserView</title><rect fill="#FFFFFF" height="974.9219" style="stroke:#181818;stroke-width:1;" width="10" x="382.0044" y="141.5625"/></g><g><title>AddUserView</title><rect fill="#FFFFFF" height="28" style="stroke:#181818;stroke-width:1;" width="10" x="387.0044" y="193.8281"/></g><g><title>AddUserView</title><rect fill="#FFFFFF" height="28" style="stroke:#181818;stroke-width:1;" width="10" x="387.0044" y="324.2266"/></g><g><title>AddUserView</title><rect fill="#FFFFFF" height="28" style="stroke:#181818;stroke-width:1;" width="10" x="387.0044" y="420.4922"/></g><g><title>AddUserView</title><rect fill="#FFFFFF" height="28" style="stroke:#181818;stroke-width:1;" width="10" x="387.0044" y="712.4219"/></g><g><title>AddUserView</title><rect fill="#FFFFFF" height="28" style="stroke:#181818;stroke-width:1;" width="10" x="387.0044" y="1052.3516"/></g><g><title>AdminController</title><rect fill="#FFFFFF" height="523.5938" style="stroke:#181818;stroke-width:1;" width="10" x="669.334" y="491.625"/></g><g><title>AdminController</title><rect fill="#FFFFFF" height="28" style="stroke:#181818;stroke-width:1;" width="10" x="674.334" y="820.6875"/></g><g><title>USERS</title><rect fill="#FFFFFF" height="262.7969" style="stroke:#181818;stroke-width:1;" width="10" x="869.8486" y="520.7578"/></g><g><title>USERS</title><rect fill="#FFFFFF" height="28" style="stroke:#181818;stroke-width:1;" width="10" x="874.8486" y="557.8906"/></g><g><title>USERS</title><rect fill="#FFFFFF" height="101.2656" style="stroke:#181818;stroke-width:1;" width="10" x="869.8486" y="884.8203"/></g><g><title>USERS</title><rect fill="#FFFFFF" height="28" style="stroke:#181818;stroke-width:1;" width="10" x="874.8486" y="921.9531"/></g><rect fill="none" height="89.2656" style="stroke:#000000;stroke-width:1.5;" width="270.3862" x="327.6089" y="374.2266"/><rect fill="none" height="147.5313" style="stroke:#000000;stroke-width:1.5;" width="583.5366" x="327.6089" y="607.8906"/><g class="participant-lifeline" data-entity-uid="part1" data-qualified-name="A" id="part1-lifeline"><g><title>Admin</title><rect fill="#000000" fill-opacity="0.00000" height="1053.1875" width="8" x="26.4321" y="81.2969"/><line style="stroke:#181818;stroke-width:0.5;stroke-dasharray:5,5;" x1="30" x2="30" y1="81.2969" y2="1134.4844"/></g></g><g class="participant-lifeline" data-entity-uid="part2" data-qualified-name="ULV" id="part2-lifeline"><g><title>UserListView</title><rect fill="#000000" fill-opacity="0.00000" height="1053.1875" width="8" x="169.7056" y="81.2969"/><line style="stroke:#181818;stroke-width:0.5;stroke-dasharray:5,5;" x1="172.749" x2="172.749" y1="81.2969" y2="1134.4844"/></g></g><g class="participant-lifeline" data-entity-uid="part3" data-qualified-name="AUV" id="part3-lifeline"><g><title>AddUserView</title><rect fill="#000000" fill-opacity="0.00000" height="1053.1875" width="8" x="383.0044" y="81.2969"/><line style="stroke:#181818;stroke-width:0.5;stroke-dasharray:5,5;" x1="386.6089" x2="386.6089" y1="81.2969" y2="1134.4844"/></g></g><g class="participant-lifeline" data-entity-uid="part4" data-qualified-name="AC" id="part4-lifeline"><g><title>AdminController</title><rect fill="#000000" fill-opacity="0.00000" height="1053.1875" width="8" x="670.334" y="81.2969"/><line style="stroke:#181818;stroke-width:0.5;stroke-dasharray:5,5;" x1="674.3154" x2="674.3154" y1="81.2969" y2="1134.4844"/></g></g><g class="participant-lifeline" data-entity-uid="part5" data-qualified-name="US" id="part5-lifeline"><g><title>USERS</title><rect fill="#000000" fill-opacity="0.00000" height="1053.1875" width="8" x="870.8486" y="81.2969"/><line style="stroke:#181818;stroke-width:0.5;stroke-dasharray:5,5;" x1="874.5518" x2="874.5518" y1="81.2969" y2="1134.4844"/></g></g><g class="participant participant-head" data-entity-uid="part1" data-qualified-name="A" id="part1-head"><text fill="#000000" font-family="sans-serif" font-size="14" lengthAdjust="spacing" textLength="44.8643" x="5" y="77.9951">Admin</text><ellipse cx="30.4321" cy="13.5" fill="#E2E2F0" rx="8" ry="8" style="stroke:#181818;stroke-width:0.5;"/><path d="M30.4321,21.5 L30.4321,48.5 M17.4321,29.5 L43.4321,29.5 M30.4321,48.5 L17.4321,63.5 M30.4321,48.5 L43.4321,63.5" fill="none" style="stroke:#181818;stroke-width:0.5;"/></g><g class="participant participant-tail" data-entity-uid="part1" data-qualified-name="A" id="part1-tail"><text fill="#000000" font-family="sans-serif" font-size="14" lengthAdjust="spacing" textLength="44.8643" x="5" y="1146.4795">Admin</text><ellipse cx="30.4321" cy="1158.2813" fill="#E2E2F0" rx="8" ry="8" style="stroke:#181818;stroke-width:0.5;"/><path d="M30.4321,1166.2813 L30.4321,1193.2813 M17.4321,1174.2813 L43.4321,1174.2813 M30.4321,1193.2813 L17.4321,1208.2813 M30.4321,1193.2813 L43.4321,1208.2813" fill="none" style="stroke:#181818;stroke-width:0.5;"/></g><g class="participant participant-head" data-entity-uid="part2" data-qualified-name="ULV" id="part2-head"><text fill="#000000" font-family="sans-serif" font-size="14" lengthAdjust="spacing" textLength="89.9131" x="125.749" y="77.9951">UserListView</text><path d="M153.2056,37 L153.2056,61 M153.2056,49 L170.2056,49" fill="none" style="stroke:#181818;stroke-width:0.5;"/><ellipse cx="182.2056" cy="49" fill="#E2E2F0" rx="12" ry="12" style="stroke:#181818;stroke-width:0.5;"/></g><g class="participant participant-tail" data-entity-uid="part2" data-qualified-name="ULV" id="part2-tail"><text fill="#000000" font-family="sans-serif" font-size="14" lengthAdjust="spacing" textLength="89.9131" x="125.749" y="1146.4795">UserListView</text><path d="M153.2056,1153.7813 L153.2056,1177.7813 M153.2056,1165.7813 L170.2056,1165.7813" fill="none" style="stroke:#181818;stroke-width:0.5;"/><ellipse cx="182.2056" cy="1165.7813" fill="#E2E2F0" rx="12" ry="12" style="stroke:#181818;stroke-width:0.5;"/></g><g class="participant participant-head" data-entity-uid="part3" data-qualified-name="AUV" id="part3-head"><text fill="#000000" font-family="sans-serif" font-size="14" lengthAdjust="spacing" textLength="92.791" x="337.6089" y="77.9951">AddUserView</text><path d="M366.5044,37 L366.5044,61 M366.5044,49 L383.5044,49" fill="none" style="stroke:#181818;stroke-width:0.5;"/><ellipse cx="395.5044" cy="49" fill="#E2E2F0" rx="12" ry="12" style="stroke:#181818;stroke-width:0.5;"/></g><g class="participant participant-tail" data-entity-uid="part3" data-qualified-name="AUV" id="part3-tail"><text fill="#000000" font-family="sans-serif" font-size="14" lengthAdjust="spacing" textLength="92.791" x="337.6089" y="1146.4795">AddUserView</text><path d="M366.5044,1153.7813 L366.5044,1177.7813 M366.5044,1165.7813 L383.5044,1165.7813" fill="none" style="stroke:#181818;stroke-width:0.5;"/><ellipse cx="395.5044" cy="1165.7813" fill="#E2E2F0" rx="12" ry="12" style="stroke:#181818;stroke-width:0.5;"/></g><g class="participant participant-head" data-entity-uid="part4" data-qualified-name="AC" id="part4-head"><text fill="#000000" font-family="sans-serif" font-size="14" lengthAdjust="spacing" textLength="114.0371" x="614.3154" y="77.9951">AdminController</text><ellipse cx="674.334" cy="49" fill="#E2E2F0" rx="12" ry="12" style="stroke:#181818;stroke-width:0.5;"/><polygon fill="#181818" points="670.334,37,676.334,32,674.334,37,676.334,42,670.334,37" style="stroke:#181818;stroke-width:1;"/></g><g class="participant participant-tail" data-entity-uid="part4" data-qualified-name="AC" id="part4-tail"><text fill="#000000" font-family="sans-serif" font-size="14" lengthAdjust="spacing" textLength="114.0371" x="614.3154" y="1146.4795">AdminController</text><ellipse cx="674.334" cy="1165.7813" fill="#E2E2F0" rx="12" ry="12" style="stroke:#181818;stroke-width:0.5;"/><polygon fill="#181818" points="670.334,1153.7813,676.334,1148.7813,674.334,1153.7813,676.334,1158.7813,670.334,1153.7813" style="stroke:#181818;stroke-width:1;"/></g><g class="participant participant-head" data-entity-uid="part5" data-qualified-name="US" id="part5-head"><text fill="#000000" font-family="sans-serif" font-size="14" lengthAdjust="spacing" textLength="46.5938" x="848.5518" y="77.9951">USERS</text><ellipse cx="874.8486" cy="49" fill="#E2E2F0" rx="12" ry="12" style="stroke:#181818;stroke-width:0.5;"/><line style="stroke:#181818;stroke-width:0.5;" x1="862.8486" x2="886.8486" y1="63" y2="63"/></g><g class="participant participant-tail" data-entity-uid="part5" data-qualified-name="US" id="part5-tail"><text fill="#000000" font-family="sans-serif" font-size="14" lengthAdjust="spacing" textLength="46.5938" x="848.5518" y="1146.4795">USERS</text><ellipse cx="874.8486" cy="1165.7813" fill="#E2E2F0" rx="12" ry="12" style="stroke:#181818;stroke-width:0.5;"/><line style="stroke:#181818;stroke-width:0.5;" x1="862.8486" x2="886.8486" y1="1179.7813" y2="1179.7813"/></g><g><title>Admin</title><rect fill="#FFFFFF" height="174.6641" style="stroke:#181818;stroke-width:1;" width="10" x="25.4321" y="112.4297"/></g><g><title>UserListView</title><rect fill="#FFFFFF" height="29.1328" style="stroke:#181818;stroke-width:1;" width="10" x="168.7056" y="112.4297"/></g><g><title>AddUserView</title><rect fill="#FFFFFF" height="974.9219" style="stroke:#181818;stroke-width:1;" width="10" x="382.0044" y="141.5625"/></g><g><title>AddUserView</title><rect fill="#FFFFFF" height="28" style="stroke:#181818;stroke-width:1;" width="10" x="387.0044" y="193.8281"/></g><g><title>AddUserView</title><rect fill="#FFFFFF" height="28" style="stroke:#181818;stroke-width:1;" width="10" x="387.0044" y="324.2266"/></g><g><title>AddUserView</title><rect fill="#FFFFFF" height="28" style="stroke:#181818;stroke-width:1;" width="10" x="387.0044" y="420.4922"/></g><g><title>AddUserView</title><rect fill="#FFFFFF" height="28" style="stroke:#181818;stroke-width:1;" width="10" x="387.0044" y="712.4219"/></g><g><title>AddUserView</title><rect fill="#FFFFFF" height="28" style="stroke:#181818;stroke-width:1;" width="10" x="387.0044" y="1052.3516"/></g><g><title>AdminController</title><rect fill="#FFFFFF" height="523.5938" style="stroke:#181818;stroke-width:1;" width="10" x="669.334" y="491.625"/></g><g><title>AdminController</title><rect fill="#FFFFFF" height="28" style="stroke:#181818;stroke-width:1;" width="10" x="674.334" y="820.6875"/></g><g><title>USERS</title><rect fill="#FFFFFF" height="262.7969" style="stroke:#181818;stroke-width:1;" width="10" x="869.8486" y="520.7578"/></g><g><title>USERS</title><rect fill="#FFFFFF" height="28" style="stroke:#181818;stroke-width:1;" width="10" x="874.8486" y="557.8906"/></g><g><title>USERS</title><rect fill="#FFFFFF" height="101.2656" style="stroke:#181818;stroke-width:1;" width="10" x="869.8486" y="884.8203"/></g><g><title>USERS</title><rect fill="#FFFFFF" height="28" style="stroke:#181818;stroke-width:1;" width="10" x="874.8486" y="921.9531"/></g><g class="message" data-entity-1="part1" data-entity-2="part2" id="msg1"><polygon fill="#181818" points="156.7056,108.4297,166.7056,112.4297,156.7056,116.4297,160.7056,112.4297" style="stroke:#181818;stroke-width:1;"/><line style="stroke:#181818;stroke-width:1;" x1="35.4321" x2="162.7056" y1="112.4297" y2="112.4297"/><text fill="#000000" font-family="sans-serif" font-size="13" font-weight="bold" lengthAdjust="spacing" textLength="9.0454" x="42.4321" y="107.3638">1</text><text fill="#000000" font-family="sans-serif" font-size="13" lengthAdjust="spacing" textLength="106.228" x="55.4775" y="107.3638">Click "Add User"</text></g><g class="message" data-entity-1="part2" data-entity-2="part3" id="msg2"><polygon fill="#181818" points="370.0044,137.5625,380.0044,141.5625,370.0044,145.5625,374.0044,141.5625" style="stroke:#181818;stroke-width:1;"/><line style="stroke:#181818;stroke-width:1;" x1="173.7056" x2="376.0044" y1="141.5625" y2="141.5625"/><text fill="#000000" font-family="sans-serif" font-size="13" font-weight="bold" lengthAdjust="spacing" textLength="9.0454" x="180.7056" y="136.4966">2</text><text fill="#000000" font-family="sans-serif" font-size="13" lengthAdjust="spacing" textLength="171.2534" x="193.751" y="136.4966">Navigate to add user form</text></g><g class="message" data-entity-1="part3" data-entity-2="part3" id="msg3"><line style="stroke:#181818;stroke-width:1;" x1="397.0044" x2="439.0044" y1="185.8281" y2="185.8281"/><line style="stroke:#181818;stroke-width:1;" x1="439.0044" x2="439.0044" y1="185.8281" y2="198.8281"/><line style="stroke:#181818;stroke-width:1;" x1="398.0044" x2="439.0044" y1="198.8281" y2="198.8281"/><polygon fill="#181818" points="408.0044,194.8281,398.0044,198.8281,408.0044,202.8281,404.0044,198.8281" style="stroke:#181818;stroke-width:1;"/><text fill="#000000" font-family="sans-serif" font-size="13" font-weight="bold" lengthAdjust="spacing" textLength="9.0454" x="404.0044" y="173.1958">3</text><text fill="#000000" font-family="sans-serif" font-size="13" lengthAdjust="spacing" textLength="143.6792" x="417.0498" y="165.6294">Display add user form</text><text fill="#000000" font-family="sans-serif" font-size="13" lengthAdjust="spacing" textLength="221.0508" x="417.0498" y="180.7622">(email, full_name, password, role)</text></g><g class="message" data-entity-1="part1" data-entity-2="part3" id="msg4"><polygon fill="#181818" points="370.0044,253.9609,380.0044,257.9609,370.0044,261.9609,374.0044,257.9609" style="stroke:#181818;stroke-width:1;"/><line style="stroke:#181818;stroke-width:1;" x1="35.4321" x2="376.0044" y1="257.9609" y2="257.9609"/><text fill="#000000" font-family="sans-serif" font-size="13" font-weight="bold" lengthAdjust="spacing" textLength="9.0454" x="42.4321" y="252.895">4</text><text fill="#000000" font-family="sans-serif" font-size="13" lengthAdjust="spacing" textLength="146.7705" x="55.4775" y="252.895">Enter user information</text></g><g class="message" data-entity-1="part1" data-entity-2="part3" id="msg5"><polygon fill="#181818" points="370.0044,283.0938,380.0044,287.0938,370.0044,291.0938,374.0044,287.0938" style="stroke:#181818;stroke-width:1;"/><line style="stroke:#181818;stroke-width:1;" x1="30.4321" x2="376.0044" y1="287.0938" y2="287.0938"/><text fill="#000000" font-family="sans-serif" font-size="13" font-weight="bold" lengthAdjust="spacing" textLength="9.0454" x="37.4321" y="282.0278">5</text><text fill="#000000" font-family="sans-serif" font-size="13" lengthAdjust="spacing" textLength="78.9775" x="50.4775" y="282.0278">Click "Save"</text></g><g class="message" data-entity-1="part3" data-entity-2="part3" id="msg6"><line style="stroke:#181818;stroke-width:1;" x1="397.0044" x2="439.0044" y1="316.2266" y2="316.2266"/><line style="stroke:#181818;stroke-width:1;" x1="439.0044" x2="439.0044" y1="316.2266" y2="329.2266"/><line style="stroke:#181818;stroke-width:1;" x1="398.0044" x2="439.0044" y1="329.2266" y2="329.2266"/><polygon fill="#181818" points="408.0044,325.2266,398.0044,329.2266,408.0044,333.2266,404.0044,329.2266" style="stroke:#181818;stroke-width:1;"/><text fill="#000000" font-family="sans-serif" font-size="13" font-weight="bold" lengthAdjust="spacing" textLength="9.0454" x="404.0044" y="311.1606">6</text><text fill="#000000" font-family="sans-serif" font-size="13" lengthAdjust="spacing" textLength="134.5449" x="417.0498" y="311.1606">Validate data format</text></g><path d="M327.6089,374.2266 L414.5605,374.2266 L414.5605,381.3594 L404.5605,391.3594 L327.6089,391.3594 L327.6089,374.2266" fill="#EEEEEE" style="stroke:#000000;stroke-width:1.5;"/><rect fill="none" height="89.2656" style="stroke:#000000;stroke-width:1.5;" width="270.3862" x="327.6089" y="374.2266"/><text fill="#000000" font-family="sans-serif" font-size="13" font-weight="bold" lengthAdjust="spacing" textLength="41.9517" x="342.6089" y="387.2935">break</text><text fill="#000000" font-family="sans-serif" font-size="11" font-weight="bold" lengthAdjust="spacing" textLength="83.7944" x="429.5605" y="386.437">[Invalid data]</text><g class="message" data-entity-1="part3" data-entity-2="part3" id="msg7"><line style="stroke:#181818;stroke-width:1;" x1="397.0044" x2="439.0044" y1="412.4922" y2="412.4922"/><line style="stroke:#181818;stroke-width:1;" x1="439.0044" x2="439.0044" y1="412.4922" y2="425.4922"/><line style="stroke:#181818;stroke-width:1;" x1="398.0044" x2="439.0044" y1="425.4922" y2="425.4922"/><polygon fill="#181818" points="408.0044,421.4922,398.0044,425.4922,408.0044,429.4922,404.0044,425.4922" style="stroke:#181818;stroke-width:1;"/><text fill="#000000" font-family="sans-serif" font-size="13" font-weight="bold" lengthAdjust="spacing" textLength="9.0454" x="404.0044" y="407.4263">7</text><text fill="#000000" font-family="sans-serif" font-size="13" lengthAdjust="spacing" textLength="158.9453" x="417.0498" y="407.4263">Display validation errors</text></g><g class="message" data-entity-1="part3" data-entity-2="part4" id="msg8"><polygon fill="#181818" points="657.334,487.625,667.334,491.625,657.334,495.625,661.334,491.625" style="stroke:#181818;stroke-width:1;"/><line style="stroke:#181818;stroke-width:1;" x1="392.0044" x2="663.334" y1="491.625" y2="491.625"/><text fill="#000000" font-family="sans-serif" font-size="13" font-weight="bold" lengthAdjust="spacing" textLength="9.0454" x="399.0044" y="486.5591">8</text><text fill="#000000" font-family="sans-serif" font-size="13" lengthAdjust="spacing" textLength="147.6655" x="412.0498" y="486.5591">Send add user request</text></g><g class="message" data-entity-1="part4" data-entity-2="part5" id="msg9"><polygon fill="#181818" points="857.8486,516.7578,867.8486,520.7578,857.8486,524.7578,861.8486,520.7578" style="stroke:#181818;stroke-width:1;"/><line style="stroke:#181818;stroke-width:1;" x1="679.334" x2="863.8486" y1="520.7578" y2="520.7578"/><text fill="#000000" font-family="sans-serif" font-size="13" font-weight="bold" lengthAdjust="spacing" textLength="9.0454" x="686.334" y="515.6919">9</text><text fill="#000000" font-family="sans-serif" font-size="13" lengthAdjust="spacing" textLength="158.4692" x="699.3794" y="515.6919">Check email uniqueness</text></g><g class="message" data-entity-1="part5" data-entity-2="part5" id="msg10"><line style="stroke:#181818;stroke-width:1;" x1="884.8486" x2="926.8486" y1="549.8906" y2="549.8906"/><line style="stroke:#181818;stroke-width:1;" x1="926.8486" x2="926.8486" y1="549.8906" y2="562.8906"/><line style="stroke:#181818;stroke-width:1;" x1="885.8486" x2="926.8486" y1="562.8906" y2="562.8906"/><polygon fill="#181818" points="895.8486,558.8906,885.8486,562.8906,895.8486,566.8906,891.8486,562.8906" style="stroke:#181818;stroke-width:1;"/><text fill="#000000" font-family="sans-serif" font-size="13" font-weight="bold" lengthAdjust="spacing" textLength="18.0908" x="891.8486" y="544.8247">10</text><text fill="#000000" font-family="sans-serif" font-size="13" lengthAdjust="spacing" textLength="99.5693" x="913.9395" y="544.8247">Query by email</text></g><path d="M327.6089,607.8906 L414.5605,607.8906 L414.5605,615.0234 L404.5605,625.0234 L327.6089,625.0234 L327.6089,607.8906" fill="#EEEEEE" style="stroke:#000000;stroke-width:1.5;"/><rect fill="none" height="147.5313" style="stroke:#000000;stroke-width:1.5;" width="583.5366" x="327.6089" y="607.8906"/><text fill="#000000" font-family="sans-serif" font-size="13" font-weight="bold" lengthAdjust="spacing" textLength="41.9517" x="342.6089" y="620.9575">break</text><text fill="#000000" font-family="sans-serif" font-size="11" font-weight="bold" lengthAdjust="spacing" textLength="134.8789" x="429.5605" y="620.1011">[Email already exists]</text><g class="message" data-entity-1="part5" data-entity-2="part4" id="msg11"><polygon fill="#181818" points="690.334,642.1563,680.334,646.1563,690.334,650.1563,686.334,646.1563" style="stroke:#181818;stroke-width:1;"/><line style="stroke:#181818;stroke-width:1;stroke-dasharray:2,2;" x1="684.334" x2="868.8486" y1="646.1563" y2="646.1563"/><text fill="#000000" font-family="sans-serif" font-size="13" font-weight="bold" lengthAdjust="spacing" textLength="18.0908" x="696.334" y="641.0903">11</text><text fill="#000000" font-family="sans-serif" font-size="13" lengthAdjust="spacing" textLength="61.9341" x="718.4248" y="641.0903">Duplicate</text></g><g class="message" data-entity-1="part4" data-entity-2="part3" id="msg12"><polygon fill="#181818" points="403.0044,671.2891,393.0044,675.2891,403.0044,679.2891,399.0044,675.2891" style="stroke:#181818;stroke-width:1;"/><line style="stroke:#181818;stroke-width:1;stroke-dasharray:2,2;" x1="397.0044" x2="668.334" y1="675.2891" y2="675.2891"/><text fill="#000000" font-family="sans-serif" font-size="13" font-weight="bold" lengthAdjust="spacing" textLength="18.0908" x="409.0044" y="670.2231">12</text><text fill="#000000" font-family="sans-serif" font-size="13" lengthAdjust="spacing" textLength="109.4399" x="431.0952" y="670.2231">Error notification</text></g><g class="message" data-entity-1="part3" data-entity-2="part3" id="msg13"><line style="stroke:#181818;stroke-width:1;" x1="397.0044" x2="439.0044" y1="704.4219" y2="704.4219"/><line style="stroke:#181818;stroke-width:1;" x1="439.0044" x2="439.0044" y1="704.4219" y2="717.4219"/><line style="stroke:#181818;stroke-width:1;" x1="398.0044" x2="439.0044" y1="717.4219" y2="717.4219"/><polygon fill="#181818" points="408.0044,713.4219,398.0044,717.4219,408.0044,721.4219,404.0044,717.4219" style="stroke:#181818;stroke-width:1;"/><text fill="#000000" font-family="sans-serif" font-size="13" font-weight="bold" lengthAdjust="spacing" textLength="18.0908" x="404.0044" y="699.356">13</text><text fill="#000000" font-family="sans-serif" font-size="13" lengthAdjust="spacing" textLength="231.2388" x="426.0952" y="699.356">Display "Email already exists" error</text></g><g class="message" data-entity-1="part5" data-entity-2="part4" id="msg14"><polygon fill="#181818" points="690.334,779.5547,680.334,783.5547,690.334,787.5547,686.334,783.5547" style="stroke:#181818;stroke-width:1;"/><line style="stroke:#181818;stroke-width:1;stroke-dasharray:2,2;" x1="684.334" x2="873.8486" y1="783.5547" y2="783.5547"/><text fill="#000000" font-family="sans-serif" font-size="13" font-weight="bold" lengthAdjust="spacing" textLength="18.0908" x="696.334" y="778.4888">14</text><text fill="#000000" font-family="sans-serif" font-size="13" lengthAdjust="spacing" textLength="98.8774" x="718.4248" y="778.4888">Email available</text></g><g class="message" data-entity-1="part4" data-entity-2="part4" id="msg15"><line style="stroke:#181818;stroke-width:1;" x1="684.334" x2="726.334" y1="812.6875" y2="812.6875"/><line style="stroke:#181818;stroke-width:1;" x1="726.334" x2="726.334" y1="812.6875" y2="825.6875"/><line style="stroke:#181818;stroke-width:1;" x1="685.334" x2="726.334" y1="825.6875" y2="825.6875"/><polygon fill="#181818" points="695.334,821.6875,685.334,825.6875,695.334,829.6875,691.334,825.6875" style="stroke:#181818;stroke-width:1;"/><text fill="#000000" font-family="sans-serif" font-size="13" font-weight="bold" lengthAdjust="spacing" textLength="18.0908" x="691.334" y="807.6216">15</text><text fill="#000000" font-family="sans-serif" font-size="13" lengthAdjust="spacing" textLength="98.833" x="713.4248" y="807.6216">Hash password</text></g><g class="message" data-entity-1="part4" data-entity-2="part5" id="msg16"><polygon fill="#181818" points="857.8486,880.8203,867.8486,884.8203,857.8486,888.8203,861.8486,884.8203" style="stroke:#181818;stroke-width:1;"/><line style="stroke:#181818;stroke-width:1;" x1="679.334" x2="863.8486" y1="884.8203" y2="884.8203"/><text fill="#000000" font-family="sans-serif" font-size="13" font-weight="bold" lengthAdjust="spacing" textLength="18.0908" x="686.334" y="879.7544">16</text><text fill="#000000" font-family="sans-serif" font-size="13" lengthAdjust="spacing" textLength="146.9482" x="708.4248" y="879.7544">Insert new user record</text></g><g class="message" data-entity-1="part5" data-entity-2="part5" id="msg17"><line style="stroke:#181818;stroke-width:1;" x1="884.8486" x2="926.8486" y1="913.9531" y2="913.9531"/><line style="stroke:#181818;stroke-width:1;" x1="926.8486" x2="926.8486" y1="913.9531" y2="926.9531"/><line style="stroke:#181818;stroke-width:1;" x1="885.8486" x2="926.8486" y1="926.9531" y2="926.9531"/><polygon fill="#181818" points="895.8486,922.9531,885.8486,926.9531,895.8486,930.9531,891.8486,926.9531" style="stroke:#181818;stroke-width:1;"/><text fill="#000000" font-family="sans-serif" font-size="13" font-weight="bold" lengthAdjust="spacing" textLength="18.0908" x="891.8486" y="908.8872">17</text><text fill="#000000" font-family="sans-serif" font-size="13" lengthAdjust="spacing" textLength="83.459" x="913.9395" y="908.8872">Insert record</text></g><g class="message" data-entity-1="part5" data-entity-2="part4" id="msg18"><polygon fill="#181818" points="690.334,982.0859,680.334,986.0859,690.334,990.0859,686.334,986.0859" style="stroke:#181818;stroke-width:1;"/><line style="stroke:#181818;stroke-width:1;stroke-dasharray:2,2;" x1="684.334" x2="873.8486" y1="986.0859" y2="986.0859"/><text fill="#000000" font-family="sans-serif" font-size="13" font-weight="bold" lengthAdjust="spacing" textLength="18.0908" x="696.334" y="981.02">18</text><text fill="#000000" font-family="sans-serif" font-size="13" lengthAdjust="spacing" textLength="83.5669" x="718.4248" y="981.02">User created</text></g><g class="message" data-entity-1="part4" data-entity-2="part3" id="msg19"><polygon fill="#181818" points="403.0044,1011.2188,393.0044,1015.2188,403.0044,1019.2188,399.0044,1015.2188" style="stroke:#181818;stroke-width:1;"/><line style="stroke:#181818;stroke-width:1;stroke-dasharray:2,2;" x1="397.0044" x2="673.334" y1="1015.2188" y2="1015.2188"/><text fill="#000000" font-family="sans-serif" font-size="13" font-weight="bold" lengthAdjust="spacing" textLength="18.0908" x="409.0044" y="1010.1528">19</text><text fill="#000000" font-family="sans-serif" font-size="13" lengthAdjust="spacing" textLength="129.5684" x="431.0952" y="1010.1528">Success notification</text></g><g class="message" data-entity-1="part3" data-entity-2="part3" id="msg20"><line style="stroke:#181818;stroke-width:1;" x1="397.0044" x2="439.0044" y1="1044.3516" y2="1044.3516"/><line style="stroke:#181818;stroke-width:1;" x1="439.0044" x2="439.0044" y1="1044.3516" y2="1057.3516"/><line style="stroke:#181818;stroke-width:1;" x1="398.0044" x2="439.0044" y1="1057.3516" y2="1057.3516"/><polygon fill="#181818" points="408.0044,1053.3516,398.0044,1057.3516,408.0044,1061.3516,404.0044,1057.3516" style="stroke:#181818;stroke-width:1;"/><text fill="#000000" font-family="sans-serif" font-size="13" font-weight="bold" lengthAdjust="spacing" textLength="18.0908" x="404.0044" y="1039.2856">20</text><text fill="#000000" font-family="sans-serif" font-size="13" lengthAdjust="spacing" textLength="165.458" x="426.0952" y="1039.2856">Display success message</text></g><g class="message" data-entity-1="part3" data-entity-2="part2" id="msg21"><polygon fill="#181818" points="184.7056,1112.4844,174.7056,1116.4844,184.7056,1120.4844,180.7056,1116.4844" style="stroke:#181818;stroke-width:1;"/><line style="stroke:#181818;stroke-width:1;" x1="178.7056" x2="386.0044" y1="1116.4844" y2="1116.4844"/><text fill="#000000" font-family="sans-serif" font-size="13" font-weight="bold" lengthAdjust="spacing" textLength="18.0908" x="190.7056" y="1111.4185">21</text><text fill="#000000" font-family="sans-serif" font-size="13" lengthAdjust="spacing" textLength="127.3784" x="212.7964" y="1111.4185">Redirect to user list</text></g><?plantuml-src ZLJHYjim47pNLon-QY7vWL0AnXVemL7eYUIfK6HhSoTEbb99zZL_trtPIQmq77s8YRqxipEpijMGl1lw5eCGgai-GArxuq15g4Nh1wTLEC4kOdWoCUqDldDfzxI_5ckjkNwkrRkzwBnBmTk9gvbkB8PSRWIwP1AHokspp6nIY1hMNvbs0uqrtHjKn9h7LYpBZ2eX2RhyPG7qOn3Dsy1tDPeNBYGFYf038U7WGoyq5g0h6ScatuNXmSIZLQSI_TDzmbuPkuB3OEqlftfSmL75-Ew3NW6vmiybvM8Stqw-ye2jIyIQgOrZSfMCTuk6sRXK8rO5Jw5phwpH_9Wk2YQUZoMq0TKRFBgHaHac0EvP7oTgKWKOWW-H-WegW1jkT5fSr3KRaFJWcc30tmF6fRf6r4rUj2IxhqXsSxmmE4Ej3cDSh5YAdJmt_nYGJbfxclgBfkM2vTdjDjCgIpUQG7_exB8RclvblSwC3yEHyYRK70O_PmjRTWxE9tFWCg_eVbhLlHdLbDn_1dTLCtEDT5MjnLjJKseixvkAhvSJM2IxdD28HT2FZfQHmD7hEQ-bAx15q7FpdPvIqa8xlwNGKGe9zJ_25ydAeUjemsMsfUfxESSPrjD5lU27Ptt6v-_8Csf3DX9_4h9lImkw1Vm5?></g></svg>