<?plantuml 1.2026.1?><svg xmlns="http://www.w3.org/2000/svg" xmlns:xlink="http://www.w3.org/1999/xlink" contentStyleType="text/css" data-diagram-type="SEQUENCE" height="1333px" preserveAspectRatio="none" style="width:1270px;height:1333px;background:#FFFFFF;" version="1.1" viewBox="0 0 1270 1333" width="1270px" zoomAndPan="magnify"><defs/><g><g><title>User</title><rect fill="#FFFFFF" height="174.6641" style="stroke:#181818;stroke-width:1;" width="10" x="18.9551" y="112.4297"/></g><g><title>MemberListView</title><rect fill="#FFFFFF" height="29.1328" style="stroke:#181818;stroke-width:1;" width="10" x="186.0703" y="112.4297"/></g><g><title>AddMemberView</title><rect fill="#FFFFFF" height="1093.4531" style="stroke:#181818;stroke-width:1;" width="10" x="425.9341" y="141.5625"/></g><g><title>AddMemberView</title><rect fill="#FFFFFF" height="28" style="stroke:#181818;stroke-width:1;" width="10" x="430.9341" y="193.8281"/></g><g><title>AddMemberView</title><rect fill="#FFFFFF" height="28" style="stroke:#181818;stroke-width:1;" width="10" x="430.9341" y="324.2266"/></g><g><title>AddMemberView</title><rect fill="#FFFFFF" height="28" style="stroke:#181818;stroke-width:1;" width="10" x="430.9341" y="420.4922"/></g><g><title>AddMemberView</title><rect fill="#FFFFFF" height="28" style="stroke:#181818;stroke-width:1;" width="10" x="430.9341" y="712.4219"/></g><g><title>AddMemberView</title><rect fill="#FFFFFF" height="28" style="stroke:#181818;stroke-width:1;" width="10" x="430.9341" y="903.0859"/></g><g><title>AddMemberView</title><rect fill="#FFFFFF" height="28" style="stroke:#181818;stroke-width:1;" width="10" x="430.9341" y="1170.8828"/></g><g><title>ProjectMemberController</title><rect fill="#FFFFFF" height="642.125" style="stroke:#181818;stroke-width:1;" width="10" x="703.063" y="491.625"/></g><g><title>USERS</title><rect fill="#FFFFFF" height="262.7969" style="stroke:#181818;stroke-width:1;" width="10" x="865.2378" y="520.7578"/></g><g><title>USERS</title><rect fill="#FFFFFF" height="28" style="stroke:#181818;stroke-width:1;" width="10" x="870.2378" y="557.8906"/></g><g><title>PROJECT_MEMBERS</title><rect fill="#FFFFFF" height="101.2656" style="stroke:#181818;stroke-width:1;" width="10" x="1020.8979" y="1003.3516"/></g><g><title>PROJECT_MEMBERS</title><rect fill="#FFFFFF" height="28" style="stroke:#181818;stroke-width:1;" width="10" x="1025.8979" y="1040.4844"/></g><rect fill="none" height="89.2656" style="stroke:#000000;stroke-width:1.5;" width="276.4512" x="358.7007" y="374.2266"/><rect fill="none" height="147.5313" style="stroke:#000000;stroke-width:1.5;" width="547.834" x="358.7007" y="607.8906"/><rect fill="none" height="147.5313" style="stroke:#000000;stroke-width:1.5;" width="748.9771" x="358.7007" y="798.5547"/><g class="participant-lifeline" data-entity-uid="part1" data-qualified-name="U" id="part1-lifeline"><g><title>User</title><rect fill="#000000" fill-opacity="0.00000" height="1171.7188" width="8" x="19.9551" y="81.2969"/><line style="stroke:#181818;stroke-width:0.5;stroke-dasharray:5,5;" x1="23" x2="23" y1="81.2969" y2="1253.0156"/></g></g><g class="participant-lifeline" data-entity-uid="part2" data-qualified-name="MLV" id="part2-lifeline"><g><title>MemberListView</title><rect fill="#000000" fill-opacity="0.00000" height="1171.7188" width="8" x="187.0703" y="81.2969"/><line style="stroke:#181818;stroke-width:0.5;stroke-dasharray:5,5;" x1="190.2759" x2="190.2759" y1="81.2969" y2="1253.0156"/></g></g><g class="participant-lifeline" data-entity-uid="part3" data-qualified-name="AMV" id="part3-lifeline"><g><title>AddMemberView</title><rect fill="#000000" fill-opacity="0.00000" height="1171.7188" width="8" x="426.9341" y="81.2969"/><line style="stroke:#181818;stroke-width:0.5;stroke-dasharray:5,5;" x1="430.7007" x2="430.7007" y1="81.2969" y2="1253.0156"/></g></g><g class="participant-lifeline" data-entity-uid="part4" data-qualified-name="PMC" id="part4-lifeline"><g><title>ProjectMemberController</title><rect fill="#000000" fill-opacity="0.00000" height="1171.7188" width="8" x="704.063" y="81.2969"/><line style="stroke:#181818;stroke-width:0.5;stroke-dasharray:5,5;" x1="707.457" x2="707.457" y1="81.2969" y2="1253.0156"/></g></g><g class="participant-lifeline" data-entity-uid="part5" data-qualified-name="US" id="part5-lifeline"><g><title>USERS</title><rect fill="#000000" fill-opacity="0.00000" height="1171.7188" width="8" x="866.2378" y="81.2969"/><line style="stroke:#181818;stroke-width:0.5;stroke-dasharray:5,5;" x1="869.9409" x2="869.9409" y1="81.2969" y2="1253.0156"/></g></g><g class="participant-lifeline" data-entity-uid="part6" data-qualified-name="PM" id="part6-lifeline"><g><title>PROJECT_MEMBERS</title><rect fill="#000000" fill-opacity="0.00000" height="1171.7188" width="8" x="1021.8979" y="81.2969"/><line style="stroke:#181818;stroke-width:0.5;stroke-dasharray:5,5;" x1="1025.1182" x2="1025.1182" y1="81.2969" y2="1253.0156"/></g></g><g class="participant participant-head" data-entity-uid="part1" data-qualified-name="U" id="part1-head"><text fill="#000000" font-family="sans-serif" font-size="14" lengthAdjust="spacing" textLength="31.9102" x="5" y="77.9951">User</text><ellipse cx="23.9551" cy="13.5" fill="#E2E2F0" rx="8" ry="8" style="stroke:#181818;stroke-width:0.5;"/><path d="M23.9551,21.5 L23.9551,48.5 M10.9551,29.5 L36.9551,29.5 M23.9551,48.5 L10.9551,63.5 M23.9551,48.5 L36.9551,63.5" fill="none" style="stroke:#181818;stroke-width:0.5;"/></g><g class="participant participant-tail" data-entity-uid="part1" data-qualified-name="U" id="part1-tail"><text fill="#000000" font-family="sans-serif" font-size="14" lengthAdjust="spacing" textLength="31.9102" x="5" y="1265.0107">User</text><ellipse cx="23.9551" cy="1276.8125" fill="#E2E2F0" rx="8" ry="8" style="stroke:#181818;stroke-width:0.5;"/><path d="M23.9551,1284.8125 L23.9551,1311.8125 M10.9551,1292.8125 L36.9551,1292.8125 M23.9551,1311.8125 L10.9551,1326.8125 M23.9551,1311.8125 L36.9551,1326.8125" fill="none" style="stroke:#181818;stroke-width:0.5;"/></g><g class="participant participant-head" data-entity-uid="part2" data-qualified-name="MLV" id="part2-head"><text fill="#000000" font-family="sans-serif" font-size="14" lengthAdjust="spacing" textLength="115.5889" x="130.2759" y="77.9951">MemberListView</text><path d="M170.5703,37 L170.5703,61 M170.5703,49 L187.5703,49" fill="none" style="stroke:#181818;stroke-width:0.5;"/><ellipse cx="199.5703" cy="49" fill="#E2E2F0" rx="12" ry="12" style="stroke:#181818;stroke-width:0.5;"/></g><g class="participant participant-tail" data-entity-uid="part2" data-qualified-name="MLV" id="part2-tail"><text fill="#000000" font-family="sans-serif" font-size="14" lengthAdjust="spacing" textLength="115.5889" x="130.2759" y="1265.0107">MemberListView</text><path d="M170.5703,1272.3125 L170.5703,1296.3125 M170.5703,1284.3125 L187.5703,1284.3125" fill="none" style="stroke:#181818;stroke-width:0.5;"/><ellipse cx="199.5703" cy="1284.3125" fill="#E2E2F0" rx="12" ry="12" style="stroke:#181818;stroke-width:0.5;"/></g><g class="participant participant-head" data-entity-uid="part3" data-qualified-name="AMV" id="part3-head"><text fill="#000000" font-family="sans-serif" font-size="14" lengthAdjust="spacing" textLength="118.4668" x="368.7007" y="77.9951">AddMemberView</text><path d="M410.4341,37 L410.4341,61 M410.4341,49 L427.4341,49" fill="none" style="stroke:#181818;stroke-width:0.5;"/><ellipse cx="439.4341" cy="49" fill="#E2E2F0" rx="12" ry="12" style="stroke:#181818;stroke-width:0.5;"/></g><g class="participant participant-tail" data-entity-uid="part3" data-qualified-name="AMV" id="part3-tail"><text fill="#000000" font-family="sans-serif" font-size="14" lengthAdjust="spacing" textLength="118.4668" x="368.7007" y="1265.0107">AddMemberView</text><path d="M410.4341,1272.3125 L410.4341,1296.3125 M410.4341,1284.3125 L427.4341,1284.3125" fill="none" style="stroke:#181818;stroke-width:0.5;"/><ellipse cx="439.4341" cy="1284.3125" fill="#E2E2F0" rx="12" ry="12" style="stroke:#181818;stroke-width:0.5;"/></g><g class="participant participant-head" data-entity-uid="part4" data-qualified-name="PMC" id="part4-head"><text fill="#000000" font-family="sans-serif" font-size="14" lengthAdjust="spacing" textLength="175.2119" x="617.457" y="77.9951">ProjectMemberController</text><ellipse cx="708.063" cy="49" fill="#E2E2F0" rx="12" ry="12" style="stroke:#181818;stroke-width:0.5;"/><polygon fill="#181818" points="704.063,37,710.063,32,708.063,37,710.063,42,704.063,37" style="stroke:#181818;stroke-width:1;"/></g><g class="participant participant-tail" data-entity-uid="part4" data-qualified-name="PMC" id="part4-tail"><text fill="#000000" font-family="sans-serif" font-size="14" lengthAdjust="spacing" textLength="175.2119" x="617.457" y="1265.0107">ProjectMemberController</text><ellipse cx="708.063" cy="1284.3125" fill="#E2E2F0" rx="12" ry="12" style="stroke:#181818;stroke-width:0.5;"/><polygon fill="#181818" points="704.063,1272.3125,710.063,1267.3125,708.063,1272.3125,710.063,1277.3125,704.063,1272.3125" style="stroke:#181818;stroke-width:1;"/></g><g class="participant participant-head" data-entity-uid="part5" data-qualified-name="US" id="part5-head"><text fill="#000000" font-family="sans-serif" font-size="14" lengthAdjust="spacing" textLength="46.5938" x="843.9409" y="77.9951">USERS</text><ellipse cx="870.2378" cy="49" fill="#E2E2F0" rx="12" ry="12" style="stroke:#181818;stroke-width:0.5;"/><line style="stroke:#181818;stroke-width:0.5;" x1="858.2378" x2="882.2378" y1="63" y2="63"/></g><g class="participant participant-tail" data-entity-uid="part5" data-qualified-name="US" id="part5-tail"><text fill="#000000" font-family="sans-serif" font-size="14" lengthAdjust="spacing" textLength="46.5938" x="843.9409" y="1265.0107">USERS</text><ellipse cx="870.2378" cy="1284.3125" fill="#E2E2F0" rx="12" ry="12" style="stroke:#181818;stroke-width:0.5;"/><line style="stroke:#181818;stroke-width:0.5;" x1="858.2378" x2="882.2378" y1="1298.3125" y2="1298.3125"/></g><g class="participant participant-head" data-entity-uid="part6" data-qualified-name="PM" id="part6-head"><text fill="#000000" font-family="sans-serif" font-size="14" lengthAdjust="spacing" textLength="137.5596" x="954.1182" y="77.9951">PROJECT_MEMBERS</text><ellipse cx="1025.8979" cy="49" fill="#E2E2F0" rx="12" ry="12" style="stroke:#181818;stroke-width:0.5;"/><line style="stroke:#181818;stroke-width:0.5;" x1="1013.8979" x2="1037.8979" y1="63" y2="63"/></g><g class="participant participant-tail" data-entity-uid="part6" data-qualified-name="PM" id="part6-tail"><text fill="#000000" font-family="sans-serif" font-size="14" lengthAdjust="spacing" textLength="137.5596" x="954.1182" y="1265.0107">PROJECT_MEMBERS</text><ellipse cx="1025.8979" cy="1284.3125" fill="#E2E2F0" rx="12" ry="12" style="stroke:#181818;stroke-width:0.5;"/><line style="stroke:#181818;stroke-width:0.5;" x1="1013.8979" x2="1037.8979" y1="1298.3125" y2="1298.3125"/></g><g><title>User</title><rect fill="#FFFFFF" height="174.6641" style="stroke:#181818;stroke-width:1;" width="10" x="18.9551" y="112.4297"/></g><g><title>MemberListView</title><rect fill="#FFFFFF" height="29.1328" style="stroke:#181818;stroke-width:1;" width="10" x="186.0703" y="112.4297"/></g><g><title>AddMemberView</title><rect fill="#FFFFFF" height="1093.4531" style="stroke:#181818;stroke-width:1;" width="10" x="425.9341" y="141.5625"/></g><g><title>AddMemberView</title><rect fill="#FFFFFF" height="28" style="stroke:#181818;stroke-width:1;" width="10" x="430.9341" y="193.8281"/></g><g><title>AddMemberView</title><rect fill="#FFFFFF" height="28" style="stroke:#181818;stroke-width:1;" width="10" x="430.9341" y="324.2266"/></g><g><title>AddMemberView</title><rect fill="#FFFFFF" height="28" style="stroke:#181818;stroke-width:1;" width="10" x="430.9341" y="420.4922"/></g><g><title>AddMemberView</title><rect fill="#FFFFFF" height="28" style="stroke:#181818;stroke-width:1;" width="10" x="430.9341" y="712.4219"/></g><g><title>AddMemberView</title><rect fill="#FFFFFF" height="28" style="stroke:#181818;stroke-width:1;" width="10" x="430.9341" y="903.0859"/></g><g><title>AddMemberView</title><rect fill="#FFFFFF" height="28" style="stroke:#181818;stroke-width:1;" width="10" x="430.9341" y="1170.8828"/></g><g><title>ProjectMemberController</title><rect fill="#FFFFFF" height="642.125" style="stroke:#181818;stroke-width:1;" width="10" x="703.063" y="491.625"/></g><g><title>USERS</title><rect fill="#FFFFFF" height="262.7969" style="stroke:#181818;stroke-width:1;" width="10" x="865.2378" y="520.7578"/></g><g><title>USERS</title><rect fill="#FFFFFF" height="28" style="stroke:#181818;stroke-width:1;" width="10" x="870.2378" y="557.8906"/></g><g><title>PROJECT_MEMBERS</title><rect fill="#FFFFFF" height="101.2656" style="stroke:#181818;stroke-width:1;" width="10" x="1020.8979" y="1003.3516"/></g><g><title>PROJECT_MEMBERS</title><rect fill="#FFFFFF" height="28" style="stroke:#181818;stroke-width:1;" width="10" x="1025.8979" y="1040.4844"/></g><g class="message" data-entity-1="part1" data-entity-2="part2" id="msg1"><polygon fill="#181818" points="174.0703,108.4297,184.0703,112.4297,174.0703,116.4297,178.0703,112.4297" style="stroke:#181818;stroke-width:1;"/><line style="stroke:#181818;stroke-width:1;" x1="28.9551" x2="180.0703" y1="112.4297" y2="112.4297"/><text fill="#000000" font-family="sans-serif" font-size="13" font-weight="bold" lengthAdjust="spacing" textLength="9.0454" x="35.9551" y="107.3638">1</text><text fill="#000000" font-family="sans-serif" font-size="13" lengthAdjust="spacing" textLength="130.0698" x="49.0005" y="107.3638">Click "Add Member"</text></g><g class="message" data-entity-1="part2" data-entity-2="part3" id="msg2"><polygon fill="#181818" points="413.9341,137.5625,423.9341,141.5625,413.9341,145.5625,417.9341,141.5625" style="stroke:#181818;stroke-width:1;"/><line style="stroke:#181818;stroke-width:1;" x1="191.0703" x2="419.9341" y1="141.5625" y2="141.5625"/><text fill="#000000" font-family="sans-serif" font-size="13" font-weight="bold" lengthAdjust="spacing" textLength="9.0454" x="198.0703" y="136.4966">2</text><text fill="#000000" font-family="sans-serif" font-size="13" lengthAdjust="spacing" textLength="197.8184" x="211.1157" y="136.4966">Navigate to add member form</text></g><g class="message" data-entity-1="part3" data-entity-2="part3" id="msg3"><line style="stroke:#181818;stroke-width:1;" x1="440.9341" x2="482.9341" y1="185.8281" y2="185.8281"/><line style="stroke:#181818;stroke-width:1;" x1="482.9341" x2="482.9341" y1="185.8281" y2="198.8281"/><line style="stroke:#181818;stroke-width:1;" x1="441.9341" x2="482.9341" y1="198.8281" y2="198.8281"/><polygon fill="#181818" points="451.9341,194.8281,441.9341,198.8281,451.9341,202.8281,447.9341,198.8281" style="stroke:#181818;stroke-width:1;"/><text fill="#000000" font-family="sans-serif" font-size="13" font-weight="bold" lengthAdjust="spacing" textLength="9.0454" x="447.9341" y="173.1958">3</text><text fill="#000000" font-family="sans-serif" font-size="13" lengthAdjust="spacing" textLength="82.5894" x="460.9795" y="165.6294">Display form</text><text fill="#000000" font-family="sans-serif" font-size="13" lengthAdjust="spacing" textLength="146.1611" x="460.9795" y="180.7622">(search user by email)</text></g><g class="message" data-entity-1="part1" data-entity-2="part3" id="msg4"><polygon fill="#181818" points="413.9341,253.9609,423.9341,257.9609,413.9341,261.9609,417.9341,257.9609" style="stroke:#181818;stroke-width:1;"/><line style="stroke:#181818;stroke-width:1;" x1="28.9551" x2="419.9341" y1="257.9609" y2="257.9609"/><text fill="#000000" font-family="sans-serif" font-size="13" font-weight="bold" lengthAdjust="spacing" textLength="9.0454" x="35.9551" y="252.895">4</text><text fill="#000000" font-family="sans-serif" font-size="13" lengthAdjust="spacing" textLength="107.3643" x="49.0005" y="252.895">Enter user email</text></g><g class="message" data-entity-1="part1" data-entity-2="part3" id="msg5"><polygon fill="#181818" points="413.9341,283.0938,423.9341,287.0938,413.9341,291.0938,417.9341,287.0938" style="stroke:#181818;stroke-width:1;"/><line style="stroke:#181818;stroke-width:1;" x1="23.9551" x2="419.9341" y1="287.0938" y2="287.0938"/><text fill="#000000" font-family="sans-serif" font-size="13" font-weight="bold" lengthAdjust="spacing" textLength="9.0454" x="30.9551" y="282.0278">5</text><text fill="#000000" font-family="sans-serif" font-size="13" lengthAdjust="spacing" textLength="72.4648" x="44.0005" y="282.0278">Click "Add"</text></g><g class="message" data-entity-1="part3" data-entity-2="part3" id="msg6"><line style="stroke:#181818;stroke-width:1;" x1="440.9341" x2="482.9341" y1="316.2266" y2="316.2266"/><line style="stroke:#181818;stroke-width:1;" x1="482.9341" x2="482.9341" y1="316.2266" y2="329.2266"/><line style="stroke:#181818;stroke-width:1;" x1="441.9341" x2="482.9341" y1="329.2266" y2="329.2266"/><polygon fill="#181818" points="451.9341,325.2266,441.9341,329.2266,451.9341,333.2266,447.9341,329.2266" style="stroke:#181818;stroke-width:1;"/><text fill="#000000" font-family="sans-serif" font-size="13" font-weight="bold" lengthAdjust="spacing" textLength="9.0454" x="447.9341" y="311.1606">6</text><text fill="#000000" font-family="sans-serif" font-size="13" lengthAdjust="spacing" textLength="141.1147" x="460.9795" y="311.1606">Validate email format</text></g><path d="M358.7007,374.2266 L445.6523,374.2266 L445.6523,381.3594 L435.6523,391.3594 L358.7007,391.3594 L358.7007,374.2266" fill="#EEEEEE" style="stroke:#000000;stroke-width:1.5;"/><rect fill="none" height="89.2656" style="stroke:#000000;stroke-width:1.5;" width="276.4512" x="358.7007" y="374.2266"/><text fill="#000000" font-family="sans-serif" font-size="13" font-weight="bold" lengthAdjust="spacing" textLength="41.9517" x="373.7007" y="387.2935">break</text><text fill="#000000" font-family="sans-serif" font-size="11" font-weight="bold" lengthAdjust="spacing" textLength="89.7026" x="460.6523" y="386.437">[Invalid email]</text><g class="message" data-entity-1="part3" data-entity-2="part3" id="msg7"><line style="stroke:#181818;stroke-width:1;" x1="440.9341" x2="482.9341" y1="412.4922" y2="412.4922"/><line style="stroke:#181818;stroke-width:1;" x1="482.9341" x2="482.9341" y1="412.4922" y2="425.4922"/><line style="stroke:#181818;stroke-width:1;" x1="441.9341" x2="482.9341" y1="425.4922" y2="425.4922"/><polygon fill="#181818" points="451.9341,421.4922,441.9341,425.4922,451.9341,429.4922,447.9341,425.4922" style="stroke:#181818;stroke-width:1;"/><text fill="#000000" font-family="sans-serif" font-size="13" font-weight="bold" lengthAdjust="spacing" textLength="9.0454" x="447.9341" y="407.4263">7</text><text fill="#000000" font-family="sans-serif" font-size="13" lengthAdjust="spacing" textLength="152.1724" x="460.9795" y="407.4263">Display validation error</text></g><g class="message" data-entity-1="part3" data-entity-2="part4" id="msg8"><polygon fill="#181818" points="691.063,487.625,701.063,491.625,691.063,495.625,695.063,491.625" style="stroke:#181818;stroke-width:1;"/><line style="stroke:#181818;stroke-width:1;" x1="435.9341" x2="697.063" y1="491.625" y2="491.625"/><text fill="#000000" font-family="sans-serif" font-size="13" font-weight="bold" lengthAdjust="spacing" textLength="9.0454" x="442.9341" y="486.5591">8</text><text fill="#000000" font-family="sans-serif" font-size="13" lengthAdjust="spacing" textLength="174.2305" x="455.9795" y="486.5591">Send add member request</text></g><g class="message" data-entity-1="part4" data-entity-2="part5" id="msg9"><polygon fill="#181818" points="853.2378,516.7578,863.2378,520.7578,853.2378,524.7578,857.2378,520.7578" style="stroke:#181818;stroke-width:1;"/><line style="stroke:#181818;stroke-width:1;" x1="713.063" x2="859.2378" y1="520.7578" y2="520.7578"/><text fill="#000000" font-family="sans-serif" font-size="13" font-weight="bold" lengthAdjust="spacing" textLength="9.0454" x="720.063" y="515.6919">9</text><text fill="#000000" font-family="sans-serif" font-size="13" lengthAdjust="spacing" textLength="120.1294" x="733.1084" y="515.6919">Find user by email</text></g><g class="message" data-entity-1="part5" data-entity-2="part5" id="msg10"><line style="stroke:#181818;stroke-width:1;" x1="880.2378" x2="922.2378" y1="549.8906" y2="549.8906"/><line style="stroke:#181818;stroke-width:1;" x1="922.2378" x2="922.2378" y1="549.8906" y2="562.8906"/><line style="stroke:#181818;stroke-width:1;" x1="881.2378" x2="922.2378" y1="562.8906" y2="562.8906"/><polygon fill="#181818" points="891.2378,558.8906,881.2378,562.8906,891.2378,566.8906,887.2378,562.8906" style="stroke:#181818;stroke-width:1;"/><text fill="#000000" font-family="sans-serif" font-size="13" font-weight="bold" lengthAdjust="spacing" textLength="18.0908" x="887.2378" y="544.8247">10</text><text fill="#000000" font-family="sans-serif" font-size="13" lengthAdjust="spacing" textLength="99.5693" x="909.3286" y="544.8247">Query by email</text></g><path d="M358.7007,607.8906 L445.6523,607.8906 L445.6523,615.0234 L435.6523,625.0234 L358.7007,625.0234 L358.7007,607.8906" fill="#EEEEEE" style="stroke:#000000;stroke-width:1.5;"/><rect fill="none" height="147.5313" style="stroke:#000000;stroke-width:1.5;" width="547.834" x="358.7007" y="607.8906"/><text fill="#000000" font-family="sans-serif" font-size="13" font-weight="bold" lengthAdjust="spacing" textLength="41.9517" x="373.7007" y="620.9575">break</text><text fill="#000000" font-family="sans-serif" font-size="11" font-weight="bold" lengthAdjust="spacing" textLength="180.1089" x="460.6523" y="620.1011">[Error or Not Found / Invalid]</text><g class="message" data-entity-1="part5" data-entity-2="part4" id="msg11"><polygon fill="#181818" points="724.063,642.1563,714.063,646.1563,724.063,650.1563,720.063,646.1563" style="stroke:#181818;stroke-width:1;"/><line style="stroke:#181818;stroke-width:1;stroke-dasharray:2,2;" x1="718.063" x2="864.2378" y1="646.1563" y2="646.1563"/><text fill="#000000" font-family="sans-serif" font-size="13" font-weight="bold" lengthAdjust="spacing" textLength="18.0908" x="730.063" y="641.0903">11</text><text fill="#000000" font-family="sans-serif" font-size="13" lengthAdjust="spacing" textLength="64.1685" x="752.1538" y="641.0903">Not found</text></g><g class="message" data-entity-1="part4" data-entity-2="part3" id="msg12"><polygon fill="#181818" points="446.9341,671.2891,436.9341,675.2891,446.9341,679.2891,442.9341,675.2891" style="stroke:#181818;stroke-width:1;"/><line style="stroke:#181818;stroke-width:1;stroke-dasharray:2,2;" x1="440.9341" x2="702.063" y1="675.2891" y2="675.2891"/><text fill="#000000" font-family="sans-serif" font-size="13" font-weight="bold" lengthAdjust="spacing" textLength="18.0908" x="452.9341" y="670.2231">12</text><text fill="#000000" font-family="sans-serif" font-size="13" lengthAdjust="spacing" textLength="109.4399" x="475.0249" y="670.2231">Error notification</text></g><g class="message" data-entity-1="part3" data-entity-2="part3" id="msg13"><line style="stroke:#181818;stroke-width:1;" x1="440.9341" x2="482.9341" y1="704.4219" y2="704.4219"/><line style="stroke:#181818;stroke-width:1;" x1="482.9341" x2="482.9341" y1="704.4219" y2="717.4219"/><line style="stroke:#181818;stroke-width:1;" x1="441.9341" x2="482.9341" y1="717.4219" y2="717.4219"/><polygon fill="#181818" points="451.9341,713.4219,441.9341,717.4219,451.9341,721.4219,447.9341,717.4219" style="stroke:#181818;stroke-width:1;"/><text fill="#000000" font-family="sans-serif" font-size="13" font-weight="bold" lengthAdjust="spacing" textLength="18.0908" x="447.9341" y="699.356">13</text><text fill="#000000" font-family="sans-serif" font-size="13" lengthAdjust="spacing" textLength="196.5742" x="470.0249" y="699.356">Display "User not found" error</text></g><g class="message" data-entity-1="part5" data-entity-2="part4" id="msg14"><polygon fill="#181818" points="724.063,779.5547,714.063,783.5547,724.063,787.5547,720.063,783.5547" style="stroke:#181818;stroke-width:1;"/><line style="stroke:#181818;stroke-width:1;stroke-dasharray:2,2;" x1="718.063" x2="869.2378" y1="783.5547" y2="783.5547"/><text fill="#000000" font-family="sans-serif" font-size="13" font-weight="bold" lengthAdjust="spacing" textLength="18.0908" x="730.063" y="778.4888">14</text><text fill="#000000" font-family="sans-serif" font-size="13" lengthAdjust="spacing" textLength="71.0239" x="752.1538" y="778.4888">User found</text></g><path d="M358.7007,798.5547 L445.6523,798.5547 L445.6523,805.6875 L435.6523,815.6875 L358.7007,815.6875 L358.7007,798.5547" fill="#EEEEEE" style="stroke:#000000;stroke-width:1.5;"/><rect fill="none" height="147.5313" style="stroke:#000000;stroke-width:1.5;" width="748.9771" x="358.7007" y="798.5547"/><text fill="#000000" font-family="sans-serif" font-size="13" font-weight="bold" lengthAdjust="spacing" textLength="41.9517" x="373.7007" y="811.6216">break</text><text fill="#000000" font-family="sans-serif" font-size="11" font-weight="bold" lengthAdjust="spacing" textLength="123.9165" x="460.6523" y="810.7651">[Already a member]</text><g class="message" data-entity-1="part6" data-entity-2="part4" id="msg15"><polygon fill="#181818" points="724.063,832.8203,714.063,836.8203,724.063,840.8203,720.063,836.8203" style="stroke:#181818;stroke-width:1;"/><line style="stroke:#181818;stroke-width:1;stroke-dasharray:2,2;" x1="718.063" x2="1024.8979" y1="836.8203" y2="836.8203"/><text fill="#000000" font-family="sans-serif" font-size="13" font-weight="bold" lengthAdjust="spacing" textLength="18.0908" x="730.063" y="831.7544">15</text><text fill="#000000" font-family="sans-serif" font-size="13" lengthAdjust="spacing" textLength="91.8379" x="752.1538" y="831.7544">Already exists</text></g><g class="message" data-entity-1="part4" data-entity-2="part3" id="msg16"><polygon fill="#181818" points="446.9341,861.9531,436.9341,865.9531,446.9341,869.9531,442.9341,865.9531" style="stroke:#181818;stroke-width:1;"/><line style="stroke:#181818;stroke-width:1;stroke-dasharray:2,2;" x1="440.9341" x2="702.063" y1="865.9531" y2="865.9531"/><text fill="#000000" font-family="sans-serif" font-size="13" font-weight="bold" lengthAdjust="spacing" textLength="18.0908" x="452.9341" y="860.8872">16</text><text fill="#000000" font-family="sans-serif" font-size="13" lengthAdjust="spacing" textLength="109.4399" x="475.0249" y="860.8872">Error notification</text></g><g class="message" data-entity-1="part3" data-entity-2="part3" id="msg17"><line style="stroke:#181818;stroke-width:1;" x1="440.9341" x2="482.9341" y1="895.0859" y2="895.0859"/><line style="stroke:#181818;stroke-width:1;" x1="482.9341" x2="482.9341" y1="895.0859" y2="908.0859"/><line style="stroke:#181818;stroke-width:1;" x1="441.9341" x2="482.9341" y1="908.0859" y2="908.0859"/><polygon fill="#181818" points="451.9341,904.0859,441.9341,908.0859,451.9341,912.0859,447.9341,908.0859" style="stroke:#181818;stroke-width:1;"/><text fill="#000000" font-family="sans-serif" font-size="13" font-weight="bold" lengthAdjust="spacing" textLength="18.0908" x="447.9341" y="890.02">17</text><text fill="#000000" font-family="sans-serif" font-size="13" lengthAdjust="spacing" textLength="221.0381" x="470.0249" y="890.02">Display "Already a member" error</text></g><g class="message" data-entity-1="part6" data-entity-2="part4" id="msg18"><polygon fill="#181818" points="724.063,970.2188,714.063,974.2188,724.063,978.2188,720.063,974.2188" style="stroke:#181818;stroke-width:1;"/><line style="stroke:#181818;stroke-width:1;stroke-dasharray:2,2;" x1="718.063" x2="1024.8979" y1="974.2188" y2="974.2188"/><text fill="#000000" font-family="sans-serif" font-size="13" font-weight="bold" lengthAdjust="spacing" textLength="18.0908" x="730.063" y="969.1528">18</text><text fill="#000000" font-family="sans-serif" font-size="13" lengthAdjust="spacing" textLength="93.9263" x="752.1538" y="969.1528">Not a member</text></g><g class="message" data-entity-1="part4" data-entity-2="part6" id="msg19"><polygon fill="#181818" points="1008.8979,999.3516,1018.8979,1003.3516,1008.8979,1007.3516,1012.8979,1003.3516" style="stroke:#181818;stroke-width:1;"/><line style="stroke:#181818;stroke-width:1;" x1="713.063" x2="1014.8979" y1="1003.3516" y2="1003.3516"/><text fill="#000000" font-family="sans-serif" font-size="13" font-weight="bold" lengthAdjust="spacing" textLength="18.0908" x="720.063" y="998.2856">19</text><text fill="#000000" font-family="sans-serif" font-size="13" lengthAdjust="spacing" textLength="127.3403" x="742.1538" y="998.2856">Insert new member</text></g><g class="message" data-entity-1="part6" data-entity-2="part6" id="msg20"><line style="stroke:#181818;stroke-width:1;" x1="1035.8979" x2="1077.8979" y1="1032.4844" y2="1032.4844"/><line style="stroke:#181818;stroke-width:1;" x1="1077.8979" x2="1077.8979" y1="1032.4844" y2="1045.4844"/><line style="stroke:#181818;stroke-width:1;" x1="1036.8979" x2="1077.8979" y1="1045.4844" y2="1045.4844"/><polygon fill="#181818" points="1046.8979,1041.4844,1036.8979,1045.4844,1046.8979,1049.4844,1042.8979,1045.4844" style="stroke:#181818;stroke-width:1;"/><text fill="#000000" font-family="sans-serif" font-size="13" font-weight="bold" lengthAdjust="spacing" textLength="18.0908" x="1042.8979" y="1027.4185">20</text><text fill="#000000" font-family="sans-serif" font-size="13" lengthAdjust="spacing" textLength="198.6118" x="1064.9888" y="1027.4185">Insert record (role = MEMBER)</text></g><g class="message" data-entity-1="part6" data-entity-2="part4" id="msg21"><polygon fill="#181818" points="724.063,1100.6172,714.063,1104.6172,724.063,1108.6172,720.063,1104.6172" style="stroke:#181818;stroke-width:1;"/><line style="stroke:#181818;stroke-width:1;stroke-dasharray:2,2;" x1="718.063" x2="1024.8979" y1="1104.6172" y2="1104.6172"/><text fill="#000000" font-family="sans-serif" font-size="13" font-weight="bold" lengthAdjust="spacing" textLength="18.0908" x="730.063" y="1099.5513">21</text><text fill="#000000" font-family="sans-serif" font-size="13" lengthAdjust="spacing" textLength="52.3301" x="752.1538" y="1099.5513">Success</text></g><g class="message" data-entity-1="part4" data-entity-2="part3" id="msg22"><polygon fill="#181818" points="446.9341,1129.75,436.9341,1133.75,446.9341,1137.75,442.9341,1133.75" style="stroke:#181818;stroke-width:1;"/><line style="stroke:#181818;stroke-width:1;stroke-dasharray:2,2;" x1="440.9341" x2="707.063" y1="1133.75" y2="1133.75"/><text fill="#000000" font-family="sans-serif" font-size="13" font-weight="bold" lengthAdjust="spacing" textLength="18.0908" x="452.9341" y="1128.6841">22</text><text fill="#000000" font-family="sans-serif" font-size="13" lengthAdjust="spacing" textLength="129.5684" x="475.0249" y="1128.6841">Success notification</text></g><g class="message" data-entity-1="part3" data-entity-2="part3" id="msg23"><line style="stroke:#181818;stroke-width:1;" x1="440.9341" x2="482.9341" y1="1162.8828" y2="1162.8828"/><line style="stroke:#181818;stroke-width:1;" x1="482.9341" x2="482.9341" y1="1162.8828" y2="1175.8828"/><line style="stroke:#181818;stroke-width:1;" x1="441.9341" x2="482.9341" y1="1175.8828" y2="1175.8828"/><polygon fill="#181818" points="451.9341,1171.8828,441.9341,1175.8828,451.9341,1179.8828,447.9341,1175.8828" style="stroke:#181818;stroke-width:1;"/><text fill="#000000" font-family="sans-serif" font-size="13" font-weight="bold" lengthAdjust="spacing" textLength="18.0908" x="447.9341" y="1157.8169">23</text><text fill="#000000" font-family="sans-serif" font-size="13" lengthAdjust="spacing" textLength="165.458" x="470.0249" y="1157.8169">Display success message</text></g><g class="message" data-entity-1="part3" data-entity-2="part2" id="msg24"><polygon fill="#181818" points="202.0703,1231.0156,192.0703,1235.0156,202.0703,1239.0156,198.0703,1235.0156" style="stroke:#181818;stroke-width:1;"/><line style="stroke:#181818;stroke-width:1;" x1="196.0703" x2="429.9341" y1="1235.0156" y2="1235.0156"/><text fill="#000000" font-family="sans-serif" font-size="13" font-weight="bold" lengthAdjust="spacing" textLength="18.0908" x="208.0703" y="1229.9497">24</text><text fill="#000000" font-family="sans-serif" font-size="13" lengthAdjust="spacing" textLength="153.9434" x="230.1611" y="1229.9497">Redirect to member list</text></g><?plantuml-src dLHHRvim47xdLvpor3v4UqVRf8nHgLFfM1XvcbGvSEcyWhqPaur_lpjZg45PfLKAIV1ztzttdUqJlTMgRuzeeaXKLXieEpGWEYYZe-vLBSm06JBWJdRs8F4t1xExmtDuLzSZOehkiaDKQMMDRY0t-WTMTWGaus8pLiYp949bfHsWBD9zuQeMqrA-__mfJRu-P6dsmGVpB8fAsBxdyZ4aZQoUO4FLlS0DEv1dOP74ptzPAZrC8rqnt8kpVEI0rI28spekdBHfeneNjFc53T4pv_Wekv-D61pfcxhgK9ZgE_JSkUC0s0hPN2_PGMP-7MsuNAcoH7DSHmn2pmutOO9oeUKW6bdpicCxISA-NFneK3p1hJeprLS5k6JmF2QNMW4Qemt15ga0LhbHrT4aZ_OtXe9MmZuR_DLZ5mZaKq0F4yeYXXj9-4KdWrqjehAOW5zwfBDt4HJsgfZifgmVw7ElBTpmsOKtKm_81qjukzswr8muCS9tXTUTcJ67qbQUPENQye--RTmjKbEUpVzqBrJYqenIBfhQDVHJ3o1yUmCZUHRFOVn3TxTxlPjrcLVvOK7SsLbh0EQRxGy1msuL-RQWQ9nuR8ZCinNEOALD3LSqMX3UmJWnhXUSPQrGKj5N5NRTMisYKnwpxDM2a5oS3vtdjVGb7l75M-dvRhJjiPPaolACylUceHrSK_u2?></g></svg>