<?plantuml 1.2026.1?><svg xmlns="http://www.w3.org/2000/svg" xmlns:xlink="http://www.w3.org/1999/xlink" contentStyleType="text/css" data-diagram-type="SEQUENCE" height="1243px" preserveAspectRatio="none" style="width:1446px;height:1243px;background:#FFFFFF;" version="1.1" viewBox="0 0 1446 1243" width="1446px" zoomAndPan="magnify"><defs/><g><g><title>User</title><rect fill="#FFFFFF" height="151.5313" style="stroke:#181818;stroke-width:1;" width="10" x="18.9551" y="91.2969"/></g><g><title>SignUpView</title><rect fill="#FFFFFF" height="959.7891" style="stroke:#181818;stroke-width:1;" width="10" x="476.8589" y="112.4297"/></g><g><title>SignUpView</title><rect fill="#FFFFFF" height="28" style="stroke:#181818;stroke-width:1;" width="10" x="481.8589" y="149.5625"/></g><g><title>SignUpView</title><rect fill="#FFFFFF" height="28" style="stroke:#181818;stroke-width:1;" width="10" x="481.8589" y="279.9609"/></g><g><title>SignUpView</title><rect fill="#FFFFFF" height="28" style="stroke:#181818;stroke-width:1;" width="10" x="481.8589" y="376.2266"/></g><g><title>SignUpView</title><rect fill="#FFFFFF" height="28" style="stroke:#181818;stroke-width:1;" width="10" x="481.8589" y="668.1563"/></g><g><title>HomeView</title><rect fill="#FFFFFF" height="65.1328" style="stroke:#181818;stroke-width:1;" width="10" x="694.2246" y="1072.2188"/></g><g><title>HomeView</title><rect fill="#FFFFFF" height="28" style="stroke:#181818;stroke-width:1;" width="10" x="699.2246" y="1109.3516"/></g><g><title>AuthController</title><rect fill="#FFFFFF" height="595.7266" style="stroke:#181818;stroke-width:1;" width="10" x="873.2886" y="447.3594"/></g><g><title>AuthController</title><rect fill="#FFFFFF" height="28" style="stroke:#181818;stroke-width:1;" width="10" x="878.2886" y="776.4219"/></g><g><title>AuthController</title><rect fill="#FFFFFF" height="28" style="stroke:#181818;stroke-width:1;" width="10" x="878.2886" y="978.9531"/></g><g><title>USER</title><rect fill="#FFFFFF" height="262.7969" style="stroke:#181818;stroke-width:1;" width="10" x="1171.7476" y="476.4922"/></g><g><title>USER</title><rect fill="#FFFFFF" height="28" style="stroke:#181818;stroke-width:1;" width="10" x="1176.7476" y="513.625"/></g><g><title>USER</title><rect fill="#FFFFFF" height="101.2656" style="stroke:#181818;stroke-width:1;" width="10" x="1171.7476" y="840.5547"/></g><g><title>USER</title><rect fill="#FFFFFF" height="28" style="stroke:#181818;stroke-width:1;" width="10" x="1176.7476" y="877.6875"/></g><rect fill="none" height="89.2656" style="stroke:#000000;stroke-width:1.5;" width="267.9204" x="427.2588" y="329.9609"/><rect fill="none" height="147.5313" style="stroke:#000000;stroke-width:1.5;" width="781.3423" x="427.2588" y="563.625"/><g class="participant-lifeline" data-entity-uid="part1" data-qualified-name="U" id="part1-lifeline"><g><title>User</title><rect fill="#000000" fill-opacity="0.00000" height="1081.0547" width="8" x="19.9551" y="81.2969"/><line style="stroke:#181818;stroke-width:0.5;stroke-dasharray:5,5;" x1="23" x2="23" y1="81.2969" y2="1162.3516"/></g></g><g class="participant-lifeline" data-entity-uid="part2" data-qualified-name="SUV" id="part2-lifeline"><g><title>SignUpView</title><rect fill="#000000" fill-opacity="0.00000" height="1081.0547" width="8" x="477.8589" y="81.2969"/><line style="stroke:#181818;stroke-width:0.5;stroke-dasharray:5,5;" x1="481.2588" x2="481.2588" y1="81.2969" y2="1162.3516"/></g></g><g class="participant-lifeline" data-entity-uid="part3" data-qualified-name="HV" id="part3-lifeline"><g><title>HomeView</title><rect fill="#000000" fill-opacity="0.00000" height="1081.0547" width="8" x="695.2246" y="81.2969"/><line style="stroke:#181818;stroke-width:0.5;stroke-dasharray:5,5;" x1="698.7876" x2="698.7876" y1="81.2969" y2="1162.3516"/></g></g><g class="participant-lifeline" data-entity-uid="part4" data-qualified-name="AC" id="part4-lifeline"><g><title>AuthController</title><rect fill="#000000" fill-opacity="0.00000" height="1081.0547" width="8" x="874.2886" y="81.2969"/><line style="stroke:#181818;stroke-width:0.5;stroke-dasharray:5,5;" x1="877.2959" x2="877.2959" y1="81.2969" y2="1162.3516"/></g></g><g class="participant-lifeline" data-entity-uid="part5" data-qualified-name="US" id="part5-lifeline"><g><title>USER</title><rect fill="#000000" fill-opacity="0.00000" height="1081.0547" width="8" x="1172.7476" y="81.2969"/><line style="stroke:#181818;stroke-width:0.5;stroke-dasharray:5,5;" x1="1175.894" x2="1175.894" y1="81.2969" y2="1162.3516"/></g></g><g class="participant participant-head" data-entity-uid="part1" data-qualified-name="U" id="part1-head"><text fill="#000000" font-family="sans-serif" font-size="14" lengthAdjust="spacing" textLength="31.9102" x="5" y="77.9951">User</text><ellipse cx="23.9551" cy="13.5" fill="#E2E2F0" rx="8" ry="8" style="stroke:#181818;stroke-width:0.5;"/><path d="M23.9551,21.5 L23.9551,48.5 M10.9551,29.5 L36.9551,29.5 M23.9551,48.5 L10.9551,63.5 M23.9551,48.5 L36.9551,63.5" fill="none" style="stroke:#181818;stroke-width:0.5;"/></g><g class="participant participant-tail" data-entity-uid="part1" data-qualified-name="U" id="part1-tail"><text fill="#000000" font-family="sans-serif" font-size="14" lengthAdjust="spacing" textLength="31.9102" x="5" y="1174.3467">User</text><ellipse cx="23.9551" cy="1186.1484" fill="#E2E2F0" rx="8" ry="8" style="stroke:#181818;stroke-width:0.5;"/><path d="M23.9551,1194.1484 L23.9551,1221.1484 M10.9551,1202.1484 L36.9551,1202.1484 M23.9551,1221.1484 L10.9551,1236.1484 M23.9551,1221.1484 L36.9551,1236.1484" fill="none" style="stroke:#181818;stroke-width:0.5;"/></g><g class="participant participant-head" data-entity-uid="part2" data-qualified-name="SUV" id="part2-head"><text fill="#000000" font-family="sans-serif" font-size="14" lengthAdjust="spacing" textLength="83.2002" x="437.2588" y="77.9951">SignUpView</text><path d="M461.3589,37 L461.3589,61 M461.3589,49 L478.3589,49" fill="none" style="stroke:#181818;stroke-width:0.5;"/><ellipse cx="490.3589" cy="49" fill="#E2E2F0" rx="12" ry="12" style="stroke:#181818;stroke-width:0.5;"/></g><g class="participant participant-tail" data-entity-uid="part2" data-qualified-name="SUV" id="part2-tail"><text fill="#000000" font-family="sans-serif" font-size="14" lengthAdjust="spacing" textLength="83.2002" x="437.2588" y="1174.3467">SignUpView</text><path d="M461.3589,1181.6484 L461.3589,1205.6484 M461.3589,1193.6484 L478.3589,1193.6484" fill="none" style="stroke:#181818;stroke-width:0.5;"/><ellipse cx="490.3589" cy="1193.6484" fill="#E2E2F0" rx="12" ry="12" style="stroke:#181818;stroke-width:0.5;"/></g><g class="participant participant-head" data-entity-uid="part3" data-qualified-name="HV" id="part3-head"><text fill="#000000" font-family="sans-serif" font-size="14" lengthAdjust="spacing" textLength="74.874" x="658.7876" y="77.9951">HomeView</text><path d="M678.7246,37 L678.7246,61 M678.7246,49 L695.7246,49" fill="none" style="stroke:#181818;stroke-width:0.5;"/><ellipse cx="707.7246" cy="49" fill="#E2E2F0" rx="12" ry="12" style="stroke:#181818;stroke-width:0.5;"/></g><g class="participant participant-tail" data-entity-uid="part3" data-qualified-name="HV" id="part3-tail"><text fill="#000000" font-family="sans-serif" font-size="14" lengthAdjust="spacing" textLength="74.874" x="658.7876" y="1174.3467">HomeView</text><path d="M678.7246,1181.6484 L678.7246,1205.6484 M678.7246,1193.6484 L695.7246,1193.6484" fill="none" style="stroke:#181818;stroke-width:0.5;"/><ellipse cx="707.7246" cy="1193.6484" fill="#E2E2F0" rx="12" ry="12" style="stroke:#181818;stroke-width:0.5;"/></g><g class="participant participant-head" data-entity-uid="part4" data-qualified-name="AC" id="part4-head"><text fill="#000000" font-family="sans-serif" font-size="14" lengthAdjust="spacing" textLength="101.9854" x="824.2959" y="77.9951">AuthController</text><ellipse cx="878.2886" cy="49" fill="#E2E2F0" rx="12" ry="12" style="stroke:#181818;stroke-width:0.5;"/><polygon fill="#181818" points="874.2886,37,880.2886,32,878.2886,37,880.2886,42,874.2886,37" style="stroke:#181818;stroke-width:1;"/></g><g class="participant participant-tail" data-entity-uid="part4" data-qualified-name="AC" id="part4-tail"><text fill="#000000" font-family="sans-serif" font-size="14" lengthAdjust="spacing" textLength="101.9854" x="824.2959" y="1174.3467">AuthController</text><ellipse cx="878.2886" cy="1193.6484" fill="#E2E2F0" rx="12" ry="12" style="stroke:#181818;stroke-width:0.5;"/><polygon fill="#181818" points="874.2886,1181.6484,880.2886,1176.6484,878.2886,1181.6484,880.2886,1186.6484,874.2886,1181.6484" style="stroke:#181818;stroke-width:1;"/></g><g class="participant participant-head" data-entity-uid="part5" data-qualified-name="US" id="part5-head"><text fill="#000000" font-family="sans-serif" font-size="14" lengthAdjust="spacing" textLength="37.707" x="1154.894" y="77.9951">USER</text><ellipse cx="1176.7476" cy="49" fill="#E2E2F0" rx="12" ry="12" style="stroke:#181818;stroke-width:0.5;"/><line style="stroke:#181818;stroke-width:0.5;" x1="1164.7476" x2="1188.7476" y1="63" y2="63"/></g><g class="participant participant-tail" data-entity-uid="part5" data-qualified-name="US" id="part5-tail"><text fill="#000000" font-family="sans-serif" font-size="14" lengthAdjust="spacing" textLength="37.707" x="1154.894" y="1174.3467">USER</text><ellipse cx="1176.7476" cy="1193.6484" fill="#E2E2F0" rx="12" ry="12" style="stroke:#181818;stroke-width:0.5;"/><line style="stroke:#181818;stroke-width:0.5;" x1="1164.7476" x2="1188.7476" y1="1207.6484" y2="1207.6484"/></g><g><title>User</title><rect fill="#FFFFFF" height="151.5313" style="stroke:#181818;stroke-width:1;" width="10" x="18.9551" y="91.2969"/></g><g><title>SignUpView</title><rect fill="#FFFFFF" height="959.7891" style="stroke:#181818;stroke-width:1;" width="10" x="476.8589" y="112.4297"/></g><g><title>SignUpView</title><rect fill="#FFFFFF" height="28" style="stroke:#181818;stroke-width:1;" width="10" x="481.8589" y="149.5625"/></g><g><title>SignUpView</title><rect fill="#FFFFFF" height="28" style="stroke:#181818;stroke-width:1;" width="10" x="481.8589" y="279.9609"/></g><g><title>SignUpView</title><rect fill="#FFFFFF" height="28" style="stroke:#181818;stroke-width:1;" width="10" x="481.8589" y="376.2266"/></g><g><title>SignUpView</title><rect fill="#FFFFFF" height="28" style="stroke:#181818;stroke-width:1;" width="10" x="481.8589" y="668.1563"/></g><g><title>HomeView</title><rect fill="#FFFFFF" height="65.1328" style="stroke:#181818;stroke-width:1;" width="10" x="694.2246" y="1072.2188"/></g><g><title>HomeView</title><rect fill="#FFFFFF" height="28" style="stroke:#181818;stroke-width:1;" width="10" x="699.2246" y="1109.3516"/></g><g><title>AuthController</title><rect fill="#FFFFFF" height="595.7266" style="stroke:#181818;stroke-width:1;" width="10" x="873.2886" y="447.3594"/></g><g><title>AuthController</title><rect fill="#FFFFFF" height="28" style="stroke:#181818;stroke-width:1;" width="10" x="878.2886" y="776.4219"/></g><g><title>AuthController</title><rect fill="#FFFFFF" height="28" style="stroke:#181818;stroke-width:1;" width="10" x="878.2886" y="978.9531"/></g><g><title>USER</title><rect fill="#FFFFFF" height="262.7969" style="stroke:#181818;stroke-width:1;" width="10" x="1171.7476" y="476.4922"/></g><g><title>USER</title><rect fill="#FFFFFF" height="28" style="stroke:#181818;stroke-width:1;" width="10" x="1176.7476" y="513.625"/></g><g><title>USER</title><rect fill="#FFFFFF" height="101.2656" style="stroke:#181818;stroke-width:1;" width="10" x="1171.7476" y="840.5547"/></g><g><title>USER</title><rect fill="#FFFFFF" height="28" style="stroke:#181818;stroke-width:1;" width="10" x="1176.7476" y="877.6875"/></g><g class="message" data-entity-1="part1" data-entity-2="part2" id="msg1"><polygon fill="#181818" points="464.8589,108.4297,474.8589,112.4297,464.8589,116.4297,468.8589,112.4297" style="stroke:#181818;stroke-width:1;"/><line style="stroke:#181818;stroke-width:1;" x1="28.9551" x2="470.8589" y1="112.4297" y2="112.4297"/><text fill="#000000" font-family="sans-serif" font-size="13" font-weight="bold" lengthAdjust="spacing" textLength="9.0454" x="35.9551" y="107.3638">1</text><text fill="#000000" font-family="sans-serif" font-size="13" lengthAdjust="spacing" textLength="132.9644" x="49.0005" y="107.3638">Access sign up page</text></g><g class="message" data-entity-1="part2" data-entity-2="part2" id="msg2"><line style="stroke:#181818;stroke-width:1;" x1="491.8589" x2="533.8589" y1="141.5625" y2="141.5625"/><line style="stroke:#181818;stroke-width:1;" x1="533.8589" x2="533.8589" y1="141.5625" y2="154.5625"/><line style="stroke:#181818;stroke-width:1;" x1="492.8589" x2="533.8589" y1="154.5625" y2="154.5625"/><polygon fill="#181818" points="502.8589,150.5625,492.8589,154.5625,502.8589,158.5625,498.8589,154.5625" style="stroke:#181818;stroke-width:1;"/><text fill="#000000" font-family="sans-serif" font-size="13" font-weight="bold" lengthAdjust="spacing" textLength="9.0454" x="498.8589" y="136.4966">2</text><text fill="#000000" font-family="sans-serif" font-size="13" lengthAdjust="spacing" textLength="134.2212" x="511.9043" y="136.4966">Display sign up form</text></g><g class="message" data-entity-1="part1" data-entity-2="part2" id="msg3"><polygon fill="#181818" points="464.8589,209.6953,474.8589,213.6953,464.8589,217.6953,468.8589,213.6953" style="stroke:#181818;stroke-width:1;"/><line style="stroke:#181818;stroke-width:1;" x1="28.9551" x2="470.8589" y1="213.6953" y2="213.6953"/><text fill="#000000" font-family="sans-serif" font-size="13" font-weight="bold" lengthAdjust="spacing" textLength="9.0454" x="35.9551" y="208.6294">3</text><text fill="#000000" font-family="sans-serif" font-size="13" lengthAdjust="spacing" textLength="410.8584" x="49.0005" y="208.6294">Enter registration data (username, email, password, full name)</text></g><g class="message" data-entity-1="part1" data-entity-2="part2" id="msg4"><polygon fill="#181818" points="464.8589,238.8281,474.8589,242.8281,464.8589,246.8281,468.8589,242.8281" style="stroke:#181818;stroke-width:1;"/><line style="stroke:#181818;stroke-width:1;" x1="23.9551" x2="470.8589" y1="242.8281" y2="242.8281"/><text fill="#000000" font-family="sans-serif" font-size="13" font-weight="bold" lengthAdjust="spacing" textLength="9.0454" x="30.9551" y="237.7622">4</text><text fill="#000000" font-family="sans-serif" font-size="13" lengthAdjust="spacing" textLength="97.3223" x="44.0005" y="237.7622">Click "Sign Up"</text></g><g class="message" data-entity-1="part2" data-entity-2="part2" id="msg5"><line style="stroke:#181818;stroke-width:1;" x1="491.8589" x2="533.8589" y1="271.9609" y2="271.9609"/><line style="stroke:#181818;stroke-width:1;" x1="533.8589" x2="533.8589" y1="271.9609" y2="284.9609"/><line style="stroke:#181818;stroke-width:1;" x1="492.8589" x2="533.8589" y1="284.9609" y2="284.9609"/><polygon fill="#181818" points="502.8589,280.9609,492.8589,284.9609,502.8589,288.9609,498.8589,284.9609" style="stroke:#181818;stroke-width:1;"/><text fill="#000000" font-family="sans-serif" font-size="13" font-weight="bold" lengthAdjust="spacing" textLength="9.0454" x="498.8589" y="266.895">5</text><text fill="#000000" font-family="sans-serif" font-size="13" lengthAdjust="spacing" textLength="134.5449" x="511.9043" y="266.895">Validate data format</text></g><path d="M427.2588,329.9609 L514.2104,329.9609 L514.2104,337.0938 L504.2104,347.0938 L427.2588,347.0938 L427.2588,329.9609" fill="#EEEEEE" style="stroke:#000000;stroke-width:1.5;"/><rect fill="none" height="89.2656" style="stroke:#000000;stroke-width:1.5;" width="267.9204" x="427.2588" y="329.9609"/><text fill="#000000" font-family="sans-serif" font-size="13" font-weight="bold" lengthAdjust="spacing" textLength="41.9517" x="442.2588" y="343.0278">break</text><text fill="#000000" font-family="sans-serif" font-size="11" font-weight="bold" lengthAdjust="spacing" textLength="129.5347" x="529.2104" y="342.1714">[Invalid data format]</text><g class="message" data-entity-1="part2" data-entity-2="part2" id="msg6"><line style="stroke:#181818;stroke-width:1;" x1="491.8589" x2="533.8589" y1="368.2266" y2="368.2266"/><line style="stroke:#181818;stroke-width:1;" x1="533.8589" x2="533.8589" y1="368.2266" y2="381.2266"/><line style="stroke:#181818;stroke-width:1;" x1="492.8589" x2="533.8589" y1="381.2266" y2="381.2266"/><polygon fill="#181818" points="502.8589,377.2266,492.8589,381.2266,502.8589,385.2266,498.8589,381.2266" style="stroke:#181818;stroke-width:1;"/><text fill="#000000" font-family="sans-serif" font-size="13" font-weight="bold" lengthAdjust="spacing" textLength="9.0454" x="498.8589" y="363.1606">6</text><text fill="#000000" font-family="sans-serif" font-size="13" lengthAdjust="spacing" textLength="161.2749" x="511.9043" y="363.1606">Display error notification</text></g><g class="message" data-entity-1="part2" data-entity-2="part4" id="msg7"><polygon fill="#181818" points="861.2886,443.3594,871.2886,447.3594,861.2886,451.3594,865.2886,447.3594" style="stroke:#181818;stroke-width:1;"/><line style="stroke:#181818;stroke-width:1;" x1="486.8589" x2="867.2886" y1="447.3594" y2="447.3594"/><text fill="#000000" font-family="sans-serif" font-size="13" font-weight="bold" lengthAdjust="spacing" textLength="9.0454" x="493.8589" y="442.2935">7</text><text fill="#000000" font-family="sans-serif" font-size="13" lengthAdjust="spacing" textLength="165.9976" x="506.9043" y="442.2935">Send registration request</text></g><g class="message" data-entity-1="part4" data-entity-2="part5" id="msg8"><polygon fill="#181818" points="1159.7476,472.4922,1169.7476,476.4922,1159.7476,480.4922,1163.7476,476.4922" style="stroke:#181818;stroke-width:1;"/><line style="stroke:#181818;stroke-width:1;" x1="883.2886" x2="1165.7476" y1="476.4922" y2="476.4922"/><text fill="#000000" font-family="sans-serif" font-size="13" font-weight="bold" lengthAdjust="spacing" textLength="9.0454" x="890.2886" y="471.4263">8</text><text fill="#000000" font-family="sans-serif" font-size="13" lengthAdjust="spacing" textLength="256.4136" x="903.334" y="471.4263">Check username and email uniqueness</text></g><g class="message" data-entity-1="part5" data-entity-2="part5" id="msg9"><line style="stroke:#181818;stroke-width:1;" x1="1186.7476" x2="1228.7476" y1="505.625" y2="505.625"/><line style="stroke:#181818;stroke-width:1;" x1="1228.7476" x2="1228.7476" y1="505.625" y2="518.625"/><line style="stroke:#181818;stroke-width:1;" x1="1187.7476" x2="1228.7476" y1="518.625" y2="518.625"/><polygon fill="#181818" points="1197.7476,514.625,1187.7476,518.625,1197.7476,522.625,1193.7476,518.625" style="stroke:#181818;stroke-width:1;"/><text fill="#000000" font-family="sans-serif" font-size="13" font-weight="bold" lengthAdjust="spacing" textLength="9.0454" x="1193.7476" y="500.5591">9</text><text fill="#000000" font-family="sans-serif" font-size="13" lengthAdjust="spacing" textLength="232.8447" x="1206.793" y="500.5591">Query existing username and email</text></g><path d="M427.2588,563.625 L514.2104,563.625 L514.2104,570.7578 L504.2104,580.7578 L427.2588,580.7578 L427.2588,563.625" fill="#EEEEEE" style="stroke:#000000;stroke-width:1.5;"/><rect fill="none" height="147.5313" style="stroke:#000000;stroke-width:1.5;" width="781.3423" x="427.2588" y="563.625"/><text fill="#000000" font-family="sans-serif" font-size="13" font-weight="bold" lengthAdjust="spacing" textLength="41.9517" x="442.2588" y="576.6919">break</text><text fill="#000000" font-family="sans-serif" font-size="11" font-weight="bold" lengthAdjust="spacing" textLength="218.0073" x="529.2104" y="575.8354">[Username or email already exists]</text><g class="message" data-entity-1="part5" data-entity-2="part4" id="msg10"><polygon fill="#181818" points="894.2886,597.8906,884.2886,601.8906,894.2886,605.8906,890.2886,601.8906" style="stroke:#181818;stroke-width:1;"/><line style="stroke:#181818;stroke-width:1;stroke-dasharray:2,2;" x1="888.2886" x2="1170.7476" y1="601.8906" y2="601.8906"/><text fill="#000000" font-family="sans-serif" font-size="13" font-weight="bold" lengthAdjust="spacing" textLength="18.0908" x="900.2886" y="596.8247">10</text><text fill="#000000" font-family="sans-serif" font-size="13" lengthAdjust="spacing" textLength="109.4399" x="922.3794" y="596.8247">Error notification</text></g><g class="message" data-entity-1="part4" data-entity-2="part2" id="msg11"><polygon fill="#181818" points="497.8589,627.0234,487.8589,631.0234,497.8589,635.0234,493.8589,631.0234" style="stroke:#181818;stroke-width:1;"/><line style="stroke:#181818;stroke-width:1;stroke-dasharray:2,2;" x1="491.8589" x2="872.2886" y1="631.0234" y2="631.0234"/><text fill="#000000" font-family="sans-serif" font-size="13" font-weight="bold" lengthAdjust="spacing" textLength="18.0908" x="503.8589" y="625.9575">11</text><text fill="#000000" font-family="sans-serif" font-size="13" lengthAdjust="spacing" textLength="109.4399" x="525.9497" y="625.9575">Error notification</text></g><g class="message" data-entity-1="part2" data-entity-2="part2" id="msg12"><line style="stroke:#181818;stroke-width:1;" x1="491.8589" x2="533.8589" y1="660.1563" y2="660.1563"/><line style="stroke:#181818;stroke-width:1;" x1="533.8589" x2="533.8589" y1="660.1563" y2="673.1563"/><line style="stroke:#181818;stroke-width:1;" x1="492.8589" x2="533.8589" y1="673.1563" y2="673.1563"/><polygon fill="#181818" points="502.8589,669.1563,492.8589,673.1563,502.8589,677.1563,498.8589,673.1563" style="stroke:#181818;stroke-width:1;"/><text fill="#000000" font-family="sans-serif" font-size="13" font-weight="bold" lengthAdjust="spacing" textLength="18.0908" x="498.8589" y="655.0903">12</text><text fill="#000000" font-family="sans-serif" font-size="13" lengthAdjust="spacing" textLength="161.2749" x="520.9497" y="655.0903">Display error notification</text></g><g class="message" data-entity-1="part5" data-entity-2="part4" id="msg13"><polygon fill="#181818" points="894.2886,735.2891,884.2886,739.2891,894.2886,743.2891,890.2886,739.2891" style="stroke:#181818;stroke-width:1;"/><line style="stroke:#181818;stroke-width:1;stroke-dasharray:2,2;" x1="888.2886" x2="1175.7476" y1="739.2891" y2="739.2891"/><text fill="#000000" font-family="sans-serif" font-size="13" font-weight="bold" lengthAdjust="spacing" textLength="18.0908" x="900.2886" y="734.2231">13</text><text fill="#000000" font-family="sans-serif" font-size="13" lengthAdjust="spacing" textLength="197.8818" x="922.3794" y="734.2231">Username and email available</text></g><g class="message" data-entity-1="part4" data-entity-2="part4" id="msg14"><line style="stroke:#181818;stroke-width:1;" x1="888.2886" x2="930.2886" y1="768.4219" y2="768.4219"/><line style="stroke:#181818;stroke-width:1;" x1="930.2886" x2="930.2886" y1="768.4219" y2="781.4219"/><line style="stroke:#181818;stroke-width:1;" x1="889.2886" x2="930.2886" y1="781.4219" y2="781.4219"/><polygon fill="#181818" points="899.2886,777.4219,889.2886,781.4219,899.2886,785.4219,895.2886,781.4219" style="stroke:#181818;stroke-width:1;"/><text fill="#000000" font-family="sans-serif" font-size="13" font-weight="bold" lengthAdjust="spacing" textLength="18.0908" x="895.2886" y="763.356">14</text><text fill="#000000" font-family="sans-serif" font-size="13" lengthAdjust="spacing" textLength="98.833" x="917.3794" y="763.356">Hash password</text></g><g class="message" data-entity-1="part4" data-entity-2="part5" id="msg15"><polygon fill="#181818" points="1159.7476,836.5547,1169.7476,840.5547,1159.7476,844.5547,1163.7476,840.5547" style="stroke:#181818;stroke-width:1;"/><line style="stroke:#181818;stroke-width:1;" x1="883.2886" x2="1165.7476" y1="840.5547" y2="840.5547"/><text fill="#000000" font-family="sans-serif" font-size="13" font-weight="bold" lengthAdjust="spacing" textLength="18.0908" x="890.2886" y="835.4888">15</text><text fill="#000000" font-family="sans-serif" font-size="13" lengthAdjust="spacing" textLength="153.1436" x="912.3794" y="835.4888">Create new user record</text></g><g class="message" data-entity-1="part5" data-entity-2="part5" id="msg16"><line style="stroke:#181818;stroke-width:1;" x1="1186.7476" x2="1228.7476" y1="869.6875" y2="869.6875"/><line style="stroke:#181818;stroke-width:1;" x1="1228.7476" x2="1228.7476" y1="869.6875" y2="882.6875"/><line style="stroke:#181818;stroke-width:1;" x1="1187.7476" x2="1228.7476" y1="882.6875" y2="882.6875"/><polygon fill="#181818" points="1197.7476,878.6875,1187.7476,882.6875,1197.7476,886.6875,1193.7476,882.6875" style="stroke:#181818;stroke-width:1;"/><text fill="#000000" font-family="sans-serif" font-size="13" font-weight="bold" lengthAdjust="spacing" textLength="18.0908" x="1193.7476" y="864.6216">16</text><text fill="#000000" font-family="sans-serif" font-size="13" lengthAdjust="spacing" textLength="115.9463" x="1215.8384" y="864.6216">Insert user record</text></g><g class="message" data-entity-1="part5" data-entity-2="part4" id="msg17"><polygon fill="#181818" points="894.2886,937.8203,884.2886,941.8203,894.2886,945.8203,890.2886,941.8203" style="stroke:#181818;stroke-width:1;"/><line style="stroke:#181818;stroke-width:1;stroke-dasharray:2,2;" x1="888.2886" x2="1175.7476" y1="941.8203" y2="941.8203"/><text fill="#000000" font-family="sans-serif" font-size="13" font-weight="bold" lengthAdjust="spacing" textLength="18.0908" x="900.2886" y="936.7544">17</text><text fill="#000000" font-family="sans-serif" font-size="13" lengthAdjust="spacing" textLength="83.5669" x="922.3794" y="936.7544">User created</text></g><g class="message" data-entity-1="part4" data-entity-2="part4" id="msg18"><line style="stroke:#181818;stroke-width:1;" x1="888.2886" x2="930.2886" y1="970.9531" y2="970.9531"/><line style="stroke:#181818;stroke-width:1;" x1="930.2886" x2="930.2886" y1="970.9531" y2="983.9531"/><line style="stroke:#181818;stroke-width:1;" x1="889.2886" x2="930.2886" y1="983.9531" y2="983.9531"/><polygon fill="#181818" points="899.2886,979.9531,889.2886,983.9531,899.2886,987.9531,895.2886,983.9531" style="stroke:#181818;stroke-width:1;"/><text fill="#000000" font-family="sans-serif" font-size="13" font-weight="bold" lengthAdjust="spacing" textLength="18.0908" x="895.2886" y="965.8872">18</text><text fill="#000000" font-family="sans-serif" font-size="13" lengthAdjust="spacing" textLength="130.4253" x="917.3794" y="965.8872">Generate JWT token</text></g><g class="message" data-entity-1="part4" data-entity-2="part2" id="msg19"><polygon fill="#181818" points="497.8589,1039.0859,487.8589,1043.0859,497.8589,1047.0859,493.8589,1043.0859" style="stroke:#181818;stroke-width:1;"/><line style="stroke:#181818;stroke-width:1;stroke-dasharray:2,2;" x1="491.8589" x2="877.2886" y1="1043.0859" y2="1043.0859"/><text fill="#000000" font-family="sans-serif" font-size="13" font-weight="bold" lengthAdjust="spacing" textLength="18.0908" x="503.8589" y="1038.02">19</text><text fill="#000000" font-family="sans-serif" font-size="13" lengthAdjust="spacing" textLength="153.7529" x="525.9497" y="1038.02">Success with JWT token</text></g><g class="message" data-entity-1="part2" data-entity-2="part3" id="msg20"><polygon fill="#181818" points="682.2246,1068.2188,692.2246,1072.2188,682.2246,1076.2188,686.2246,1072.2188" style="stroke:#181818;stroke-width:1;"/><line style="stroke:#181818;stroke-width:1;" x1="481.8589" x2="688.2246" y1="1072.2188" y2="1072.2188"/><text fill="#000000" font-family="sans-serif" font-size="13" font-weight="bold" lengthAdjust="spacing" textLength="18.0908" x="488.8589" y="1067.1528">20</text><text fill="#000000" font-family="sans-serif" font-size="13" lengthAdjust="spacing" textLength="149.2524" x="510.9497" y="1067.1528">Redirect to home page</text></g><g class="message" data-entity-1="part3" data-entity-2="part3" id="msg21"><line style="stroke:#181818;stroke-width:1;" x1="709.2246" x2="751.2246" y1="1101.3516" y2="1101.3516"/><line style="stroke:#181818;stroke-width:1;" x1="751.2246" x2="751.2246" y1="1101.3516" y2="1114.3516"/><line style="stroke:#181818;stroke-width:1;" x1="710.2246" x2="751.2246" y1="1114.3516" y2="1114.3516"/><polygon fill="#181818" points="720.2246,1110.3516,710.2246,1114.3516,720.2246,1118.3516,716.2246,1114.3516" style="stroke:#181818;stroke-width:1;"/><text fill="#000000" font-family="sans-serif" font-size="13" font-weight="bold" lengthAdjust="spacing" textLength="18.0908" x="716.2246" y="1096.2856">21</text><text fill="#000000" font-family="sans-serif" font-size="13" lengthAdjust="spacing" textLength="122.9731" x="738.3154" y="1096.2856">Display home view</text></g><?plantuml-src hLJBRjim4BphAnOvjO3z0q5GG52DAhqbBDqpBQqjmXIfyc7NVz-b52caO-VKWmsJtDcPdQ4fWZSwz3kqHI4QRonmXnQ40rxiJD2ji1TWyg3vi9LuZWUCRz-FQjFZV51lYyPeRus2ClYkcdwhgLrP5QYzz1VWRFCw4h2HKfw4HsBZiFuMUpz2sJJe73XYXJ3080xuNXZPwRCKVvTkKEAoLE-DxVFg5hDbGhJHdiHPF4ZdhV3IQ6Y55_0ba0TQzBW2x8LKAzBWtDdOTWNxe1J4iwz9eqh9vWWFqIVWmqDAoJErMw5a6xT7dgXL-C_LxYoA8pphKqHcC81RFg2r5A8sNkvbCyv4XLbBW2iEr6qngoohHs2qaRjYyKz0boYbDCigrdD6qtT8qy-UWI3qQ1i4BGcdASmaQ5PmDYDV0j8Tmh_49FNXHeiCbxhAPcVuZA6f9rQXwA1zQ-jeN5Bwj5wFX9jRxiJHOq6S_Mx1__8v4SC_EYPEz2rs2g-7dToE2clXkkK-Peaaa3mVyeFsDFrBeyEKPfD1iqYUDPNukuMvhAjXe1cPsllYVz1ji77xv-zVuCqHzISJ56amB4olmbdwBa7dYBUWQihf5Lj9-ZtLGKUFrFICN2MoBEZfgXVe7F48Ez7ZbjKbBJwi_W40?></g></svg>