<?plantuml 1.2026.1?><svg xmlns="http://www.w3.org/2000/svg" xmlns:xlink="http://www.w3.org/1999/xlink" contentStyleType="text/css" data-diagram-type="SEQUENCE" height="984px" preserveAspectRatio="none" style="width:980px;height:984px;background:#FFFFFF;" version="1.1" viewBox="0 0 980 984" width="980px" zoomAndPan="magnify"><defs/><g><g><title>Admin</title><rect fill="#FFFFFF" height="131.5313" style="stroke:#181818;stroke-width:1;" width="10" x="25.4321" y="112.4297"/></g><g><title>UserListView</title><rect fill="#FFFFFF" height="782.5234" style="stroke:#181818;stroke-width:1;" width="10" x="217.1699" y="112.4297"/></g><g><title>UserListView</title><rect fill="#FFFFFF" height="28" style="stroke:#181818;stroke-width:1;" width="10" x="222.1699" y="179.8281"/></g><g><title>UserListView</title><rect fill="#FFFFFF" height="28" style="stroke:#181818;stroke-width:1;" width="10" x="222.1699" y="435.625"/></g><g><title>UserListView</title><rect fill="#FFFFFF" height="28" style="stroke:#181818;stroke-width:1;" width="10" x="222.1699" y="698.4219"/></g><g><title>UserListView</title><rect fill="#FFFFFF" height="28" style="stroke:#181818;stroke-width:1;" width="10" x="222.1699" y="850.9531"/></g><g><title>AdminController</title><rect fill="#FFFFFF" height="525.5938" style="stroke:#181818;stroke-width:1;" width="10" x="576.2471" y="273.0938"/></g><g><title>AdminController</title><rect fill="#FFFFFF" height="28" style="stroke:#181818;stroke-width:1;" width="10" x="581.2471" y="310.2266"/></g><g><title>USERS</title><rect fill="#FFFFFF" height="262.7969" style="stroke:#181818;stroke-width:1;" width="10" x="772.9893" y="506.7578"/></g><g><title>USERS</title><rect fill="#FFFFFF" height="28" style="stroke:#181818;stroke-width:1;" width="10" x="777.9893" y="543.8906"/></g><rect fill="none" height="118.3984" style="stroke:#000000;stroke-width:1.5;" width="487.0522" x="164.2134" y="360.2266"/><rect fill="none" height="147.5313" style="stroke:#000000;stroke-width:1.5;" width="650.0728" x="164.2134" y="593.8906"/><g class="participant-lifeline" data-entity-uid="part1" data-qualified-name="A" id="part1-lifeline"><g><title>Admin</title><rect fill="#000000" fill-opacity="0.00000" height="822.6563" width="8" x="26.4321" y="81.2969"/><line style="stroke:#181818;stroke-width:0.5;stroke-dasharray:5,5;" x1="30" x2="30" y1="81.2969" y2="903.9531"/></g></g><g class="participant-lifeline" data-entity-uid="part2" data-qualified-name="ULV" id="part2-lifeline"><g><title>UserListView</title><rect fill="#000000" fill-opacity="0.00000" height="822.6563" width="8" x="218.1699" y="81.2969"/><line style="stroke:#181818;stroke-width:0.5;stroke-dasharray:5,5;" x1="221.2134" x2="221.2134" y1="81.2969" y2="903.9531"/></g></g><g class="participant-lifeline" data-entity-uid="part3" data-qualified-name="AC" id="part3-lifeline"><g><title>AdminController</title><rect fill="#000000" fill-opacity="0.00000" height="822.6563" width="8" x="577.2471" y="81.2969"/><line style="stroke:#181818;stroke-width:0.5;stroke-dasharray:5,5;" x1="581.2285" x2="581.2285" y1="81.2969" y2="903.9531"/></g></g><g class="participant-lifeline" data-entity-uid="part4" data-qualified-name="US" id="part4-lifeline"><g><title>USERS</title><rect fill="#000000" fill-opacity="0.00000" height="822.6563" width="8" x="773.9893" y="81.2969"/><line style="stroke:#181818;stroke-width:0.5;stroke-dasharray:5,5;" x1="777.6924" x2="777.6924" y1="81.2969" y2="903.9531"/></g></g><g class="participant participant-head" data-entity-uid="part1" data-qualified-name="A" id="part1-head"><text fill="#000000" font-family="sans-serif" font-size="14" lengthAdjust="spacing" textLength="44.8643" x="5" y="77.9951">Admin</text><ellipse cx="30.4321" cy="13.5" fill="#E2E2F0" rx="8" ry="8" style="stroke:#181818;stroke-width:0.5;"/><path d="M30.4321,21.5 L30.4321,48.5 M17.4321,29.5 L43.4321,29.5 M30.4321,48.5 L17.4321,63.5 M30.4321,48.5 L43.4321,63.5" fill="none" style="stroke:#181818;stroke-width:0.5;"/></g><g class="participant participant-tail" data-entity-uid="part1" data-qualified-name="A" id="part1-tail"><text fill="#000000" font-family="sans-serif" font-size="14" lengthAdjust="spacing" textLength="44.8643" x="5" y="915.9482">Admin</text><ellipse cx="30.4321" cy="927.75" fill="#E2E2F0" rx="8" ry="8" style="stroke:#181818;stroke-width:0.5;"/><path d="M30.4321,935.75 L30.4321,962.75 M17.4321,943.75 L43.4321,943.75 M30.4321,962.75 L17.4321,977.75 M30.4321,962.75 L43.4321,977.75" fill="none" style="stroke:#181818;stroke-width:0.5;"/></g><g class="participant participant-head" data-entity-uid="part2" data-qualified-name="ULV" id="part2-head"><text fill="#000000" font-family="sans-serif" font-size="14" lengthAdjust="spacing" textLength="89.9131" x="174.2134" y="77.9951">UserListView</text><path d="M201.6699,37 L201.6699,61 M201.6699,49 L218.6699,49" fill="none" style="stroke:#181818;stroke-width:0.5;"/><ellipse cx="230.6699" cy="49" fill="#E2E2F0" rx="12" ry="12" style="stroke:#181818;stroke-width:0.5;"/></g><g class="participant participant-tail" data-entity-uid="part2" data-qualified-name="ULV" id="part2-tail"><text fill="#000000" font-family="sans-serif" font-size="14" lengthAdjust="spacing" textLength="89.9131" x="174.2134" y="915.9482">UserListView</text><path d="M201.6699,923.25 L201.6699,947.25 M201.6699,935.25 L218.6699,935.25" fill="none" style="stroke:#181818;stroke-width:0.5;"/><ellipse cx="230.6699" cy="935.25" fill="#E2E2F0" rx="12" ry="12" style="stroke:#181818;stroke-width:0.5;"/></g><g class="participant participant-head" data-entity-uid="part3" data-qualified-name="AC" id="part3-head"><text fill="#000000" font-family="sans-serif" font-size="14" lengthAdjust="spacing" textLength="114.0371" x="521.2285" y="77.9951">AdminController</text><ellipse cx="581.2471" cy="49" fill="#E2E2F0" rx="12" ry="12" style="stroke:#181818;stroke-width:0.5;"/><polygon fill="#181818" points="577.2471,37,583.2471,32,581.2471,37,583.2471,42,577.2471,37" style="stroke:#181818;stroke-width:1;"/></g><g class="participant participant-tail" data-entity-uid="part3" data-qualified-name="AC" id="part3-tail"><text fill="#000000" font-family="sans-serif" font-size="14" lengthAdjust="spacing" textLength="114.0371" x="521.2285" y="915.9482">AdminController</text><ellipse cx="581.2471" cy="935.25" fill="#E2E2F0" rx="12" ry="12" style="stroke:#181818;stroke-width:0.5;"/><polygon fill="#181818" points="577.2471,923.25,583.2471,918.25,581.2471,923.25,583.2471,928.25,577.2471,923.25" style="stroke:#181818;stroke-width:1;"/></g><g class="participant participant-head" data-entity-uid="part4" data-qualified-name="US" id="part4-head"><text fill="#000000" font-family="sans-serif" font-size="14" lengthAdjust="spacing" textLength="46.5938" x="751.6924" y="77.9951">USERS</text><ellipse cx="777.9893" cy="49" fill="#E2E2F0" rx="12" ry="12" style="stroke:#181818;stroke-width:0.5;"/><line style="stroke:#181818;stroke-width:0.5;" x1="765.9893" x2="789.9893" y1="63" y2="63"/></g><g class="participant participant-tail" data-entity-uid="part4" data-qualified-name="US" id="part4-tail"><text fill="#000000" font-family="sans-serif" font-size="14" lengthAdjust="spacing" textLength="46.5938" x="751.6924" y="915.9482">USERS</text><ellipse cx="777.9893" cy="935.25" fill="#E2E2F0" rx="12" ry="12" style="stroke:#181818;stroke-width:0.5;"/><line style="stroke:#181818;stroke-width:0.5;" x1="765.9893" x2="789.9893" y1="949.25" y2="949.25"/></g><g><title>Admin</title><rect fill="#FFFFFF" height="131.5313" style="stroke:#181818;stroke-width:1;" width="10" x="25.4321" y="112.4297"/></g><g><title>UserListView</title><rect fill="#FFFFFF" height="782.5234" style="stroke:#181818;stroke-width:1;" width="10" x="217.1699" y="112.4297"/></g><g><title>UserListView</title><rect fill="#FFFFFF" height="28" style="stroke:#181818;stroke-width:1;" width="10" x="222.1699" y="179.8281"/></g><g><title>UserListView</title><rect fill="#FFFFFF" height="28" style="stroke:#181818;stroke-width:1;" width="10" x="222.1699" y="435.625"/></g><g><title>UserListView</title><rect fill="#FFFFFF" height="28" style="stroke:#181818;stroke-width:1;" width="10" x="222.1699" y="698.4219"/></g><g><title>UserListView</title><rect fill="#FFFFFF" height="28" style="stroke:#181818;stroke-width:1;" width="10" x="222.1699" y="850.9531"/></g><g><title>AdminController</title><rect fill="#FFFFFF" height="525.5938" style="stroke:#181818;stroke-width:1;" width="10" x="576.2471" y="273.0938"/></g><g><title>AdminController</title><rect fill="#FFFFFF" height="28" style="stroke:#181818;stroke-width:1;" width="10" x="581.2471" y="310.2266"/></g><g><title>USERS</title><rect fill="#FFFFFF" height="262.7969" style="stroke:#181818;stroke-width:1;" width="10" x="772.9893" y="506.7578"/></g><g><title>USERS</title><rect fill="#FFFFFF" height="28" style="stroke:#181818;stroke-width:1;" width="10" x="777.9893" y="543.8906"/></g><g class="message" data-entity-1="part1" data-entity-2="part2" id="msg1"><polygon fill="#181818" points="205.1699,108.4297,215.1699,112.4297,205.1699,116.4297,209.1699,112.4297" style="stroke:#181818;stroke-width:1;"/><line style="stroke:#181818;stroke-width:1;" x1="35.4321" x2="211.1699" y1="112.4297" y2="112.4297"/><text fill="#000000" font-family="sans-serif" font-size="13" font-weight="bold" lengthAdjust="spacing" textLength="9.0454" x="42.4321" y="107.3638">1</text><text fill="#000000" font-family="sans-serif" font-size="13" lengthAdjust="spacing" textLength="154.6924" x="55.4775" y="107.3638">Click "Delete" on a user</text></g><g class="message" data-entity-1="part2" data-entity-2="part2" id="msg2"><line style="stroke:#181818;stroke-width:1;" x1="232.1699" x2="274.1699" y1="171.8281" y2="171.8281"/><line style="stroke:#181818;stroke-width:1;" x1="274.1699" x2="274.1699" y1="171.8281" y2="184.8281"/><line style="stroke:#181818;stroke-width:1;" x1="233.1699" x2="274.1699" y1="184.8281" y2="184.8281"/><polygon fill="#181818" points="243.1699,180.8281,233.1699,184.8281,243.1699,188.8281,239.1699,184.8281" style="stroke:#181818;stroke-width:1;"/><text fill="#000000" font-family="sans-serif" font-size="13" font-weight="bold" lengthAdjust="spacing" textLength="9.0454" x="239.1699" y="151.6294">2</text><text fill="#000000" font-family="sans-serif" font-size="13" lengthAdjust="spacing" textLength="178.2358" x="252.2153" y="136.4966">Display confirmation dialog</text><text fill="#000000" font-family="sans-serif" font-size="13" lengthAdjust="spacing" textLength="219.9971" x="252.2153" y="151.6294">"Delete this user? All related data</text><text fill="#000000" font-family="sans-serif" font-size="13" lengthAdjust="spacing" textLength="201.2334" x="252.2153" y="166.7622">will be permanently removed."</text></g><g class="message" data-entity-1="part1" data-entity-2="part2" id="msg3"><polygon fill="#181818" points="205.1699,239.9609,215.1699,243.9609,205.1699,247.9609,209.1699,243.9609" style="stroke:#181818;stroke-width:1;"/><line style="stroke:#181818;stroke-width:1;" x1="30.4321" x2="211.1699" y1="243.9609" y2="243.9609"/><text fill="#000000" font-family="sans-serif" font-size="13" font-weight="bold" lengthAdjust="spacing" textLength="9.0454" x="37.4321" y="238.895">3</text><text fill="#000000" font-family="sans-serif" font-size="13" lengthAdjust="spacing" textLength="98.5347" x="50.4775" y="238.895">Click "Confirm"</text></g><g class="message" data-entity-1="part2" data-entity-2="part3" id="msg4"><polygon fill="#181818" points="564.2471,269.0938,574.2471,273.0938,564.2471,277.0938,568.2471,273.0938" style="stroke:#181818;stroke-width:1;"/><line style="stroke:#181818;stroke-width:1;" x1="227.1699" x2="570.2471" y1="273.0938" y2="273.0938"/><text fill="#000000" font-family="sans-serif" font-size="13" font-weight="bold" lengthAdjust="spacing" textLength="9.0454" x="234.1699" y="268.0278">4</text><text fill="#000000" font-family="sans-serif" font-size="13" lengthAdjust="spacing" textLength="192.6577" x="247.2153" y="268.0278">Send delete request (user_id)</text></g><g class="message" data-entity-1="part3" data-entity-2="part3" id="msg5"><line style="stroke:#181818;stroke-width:1;" x1="591.2471" x2="633.2471" y1="302.2266" y2="302.2266"/><line style="stroke:#181818;stroke-width:1;" x1="633.2471" x2="633.2471" y1="302.2266" y2="315.2266"/><line style="stroke:#181818;stroke-width:1;" x1="592.2471" x2="633.2471" y1="315.2266" y2="315.2266"/><polygon fill="#181818" points="602.2471,311.2266,592.2471,315.2266,602.2471,319.2266,598.2471,315.2266" style="stroke:#181818;stroke-width:1;"/><text fill="#000000" font-family="sans-serif" font-size="13" font-weight="bold" lengthAdjust="spacing" textLength="9.0454" x="598.2471" y="297.1606">5</text><text fill="#000000" font-family="sans-serif" font-size="13" lengthAdjust="spacing" textLength="149.6968" x="611.2925" y="297.1606">Check not deleting self</text></g><path d="M164.2134,360.2266 L251.165,360.2266 L251.165,367.3594 L241.165,377.3594 L164.2134,377.3594 L164.2134,360.2266" fill="#EEEEEE" style="stroke:#000000;stroke-width:1.5;"/><rect fill="none" height="118.3984" style="stroke:#000000;stroke-width:1.5;" width="487.0522" x="164.2134" y="360.2266"/><text fill="#000000" font-family="sans-serif" font-size="13" font-weight="bold" lengthAdjust="spacing" textLength="41.9517" x="179.2134" y="373.2935">break</text><text fill="#000000" font-family="sans-serif" font-size="11" font-weight="bold" lengthAdjust="spacing" textLength="144.7617" x="266.165" y="372.437">[Deleting own account]</text><g class="message" data-entity-1="part3" data-entity-2="part2" id="msg6"><polygon fill="#181818" points="238.1699,394.4922,228.1699,398.4922,238.1699,402.4922,234.1699,398.4922" style="stroke:#181818;stroke-width:1;"/><line style="stroke:#181818;stroke-width:1;stroke-dasharray:2,2;" x1="232.1699" x2="575.2471" y1="398.4922" y2="398.4922"/><text fill="#000000" font-family="sans-serif" font-size="13" font-weight="bold" lengthAdjust="spacing" textLength="9.0454" x="244.1699" y="393.4263">6</text><text fill="#000000" font-family="sans-serif" font-size="13" lengthAdjust="spacing" textLength="109.4399" x="257.2153" y="393.4263">Error notification</text></g><g class="message" data-entity-1="part2" data-entity-2="part2" id="msg7"><line style="stroke:#181818;stroke-width:1;" x1="232.1699" x2="274.1699" y1="427.625" y2="427.625"/><line style="stroke:#181818;stroke-width:1;" x1="274.1699" x2="274.1699" y1="427.625" y2="440.625"/><line style="stroke:#181818;stroke-width:1;" x1="233.1699" x2="274.1699" y1="440.625" y2="440.625"/><polygon fill="#181818" points="243.1699,436.625,233.1699,440.625,243.1699,444.625,239.1699,440.625" style="stroke:#181818;stroke-width:1;"/><text fill="#000000" font-family="sans-serif" font-size="13" font-weight="bold" lengthAdjust="spacing" textLength="9.0454" x="239.1699" y="422.5591">7</text><text fill="#000000" font-family="sans-serif" font-size="13" lengthAdjust="spacing" textLength="312.0317" x="252.2153" y="422.5591">Display "Cannot delete your own account" error</text></g><g class="message" data-entity-1="part3" data-entity-2="part4" id="msg8"><polygon fill="#181818" points="760.9893,502.7578,770.9893,506.7578,760.9893,510.7578,764.9893,506.7578" style="stroke:#181818;stroke-width:1;"/><line style="stroke:#181818;stroke-width:1;" x1="586.2471" x2="766.9893" y1="506.7578" y2="506.7578"/><text fill="#000000" font-family="sans-serif" font-size="13" font-weight="bold" lengthAdjust="spacing" textLength="9.0454" x="593.2471" y="501.6919">8</text><text fill="#000000" font-family="sans-serif" font-size="13" lengthAdjust="spacing" textLength="75.2007" x="606.2925" y="501.6919">Delete user</text></g><g class="message" data-entity-1="part4" data-entity-2="part4" id="msg9"><line style="stroke:#181818;stroke-width:1;" x1="787.9893" x2="829.9893" y1="535.8906" y2="535.8906"/><line style="stroke:#181818;stroke-width:1;" x1="829.9893" x2="829.9893" y1="535.8906" y2="548.8906"/><line style="stroke:#181818;stroke-width:1;" x1="788.9893" x2="829.9893" y1="548.8906" y2="548.8906"/><polygon fill="#181818" points="798.9893,544.8906,788.9893,548.8906,798.9893,552.8906,794.9893,548.8906" style="stroke:#181818;stroke-width:1;"/><text fill="#000000" font-family="sans-serif" font-size="13" font-weight="bold" lengthAdjust="spacing" textLength="9.0454" x="794.9893" y="530.8247">9</text><text fill="#000000" font-family="sans-serif" font-size="13" lengthAdjust="spacing" textLength="165.5786" x="808.0347" y="530.8247">Delete record (CASCADE)</text></g><path d="M164.2134,593.8906 L251.165,593.8906 L251.165,601.0234 L241.165,611.0234 L164.2134,611.0234 L164.2134,593.8906" fill="#EEEEEE" style="stroke:#000000;stroke-width:1.5;"/><rect fill="none" height="147.5313" style="stroke:#000000;stroke-width:1.5;" width="650.0728" x="164.2134" y="593.8906"/><text fill="#000000" font-family="sans-serif" font-size="13" font-weight="bold" lengthAdjust="spacing" textLength="41.9517" x="179.2134" y="606.9575">break</text><text fill="#000000" font-family="sans-serif" font-size="11" font-weight="bold" lengthAdjust="spacing" textLength="89.5093" x="266.165" y="606.1011">[Delete failed]</text><g class="message" data-entity-1="part4" data-entity-2="part3" id="msg10"><polygon fill="#181818" points="597.2471,628.1563,587.2471,632.1563,597.2471,636.1563,593.2471,632.1563" style="stroke:#181818;stroke-width:1;"/><line style="stroke:#181818;stroke-width:1;stroke-dasharray:2,2;" x1="591.2471" x2="771.9893" y1="632.1563" y2="632.1563"/><text fill="#000000" font-family="sans-serif" font-size="13" font-weight="bold" lengthAdjust="spacing" textLength="18.0908" x="603.2471" y="627.0903">10</text><text fill="#000000" font-family="sans-serif" font-size="13" lengthAdjust="spacing" textLength="32.2017" x="625.3379" y="627.0903">Error</text></g><g class="message" data-entity-1="part3" data-entity-2="part2" id="msg11"><polygon fill="#181818" points="238.1699,657.2891,228.1699,661.2891,238.1699,665.2891,234.1699,661.2891" style="stroke:#181818;stroke-width:1;"/><line style="stroke:#181818;stroke-width:1;stroke-dasharray:2,2;" x1="232.1699" x2="575.2471" y1="661.2891" y2="661.2891"/><text fill="#000000" font-family="sans-serif" font-size="13" font-weight="bold" lengthAdjust="spacing" textLength="18.0908" x="244.1699" y="656.2231">11</text><text fill="#000000" font-family="sans-serif" font-size="13" lengthAdjust="spacing" textLength="109.4399" x="266.2607" y="656.2231">Error notification</text></g><g class="message" data-entity-1="part2" data-entity-2="part2" id="msg12"><line style="stroke:#181818;stroke-width:1;" x1="232.1699" x2="274.1699" y1="690.4219" y2="690.4219"/><line style="stroke:#181818;stroke-width:1;" x1="274.1699" x2="274.1699" y1="690.4219" y2="703.4219"/><line style="stroke:#181818;stroke-width:1;" x1="233.1699" x2="274.1699" y1="703.4219" y2="703.4219"/><polygon fill="#181818" points="243.1699,699.4219,233.1699,703.4219,243.1699,707.4219,239.1699,703.4219" style="stroke:#181818;stroke-width:1;"/><text fill="#000000" font-family="sans-serif" font-size="13" font-weight="bold" lengthAdjust="spacing" textLength="18.0908" x="239.1699" y="685.356">12</text><text fill="#000000" font-family="sans-serif" font-size="13" lengthAdjust="spacing" textLength="146.5928" x="261.2607" y="685.356">Display error message</text></g><g class="message" data-entity-1="part4" data-entity-2="part3" id="msg13"><polygon fill="#181818" points="597.2471,765.5547,587.2471,769.5547,597.2471,773.5547,593.2471,769.5547" style="stroke:#181818;stroke-width:1;"/><line style="stroke:#181818;stroke-width:1;stroke-dasharray:2,2;" x1="591.2471" x2="776.9893" y1="769.5547" y2="769.5547"/><text fill="#000000" font-family="sans-serif" font-size="13" font-weight="bold" lengthAdjust="spacing" textLength="18.0908" x="603.2471" y="764.4888">13</text><text fill="#000000" font-family="sans-serif" font-size="13" lengthAdjust="spacing" textLength="114.1245" x="625.3379" y="764.4888">Delete successful</text></g><g class="message" data-entity-1="part3" data-entity-2="part2" id="msg14"><polygon fill="#181818" points="238.1699,794.6875,228.1699,798.6875,238.1699,802.6875,234.1699,798.6875" style="stroke:#181818;stroke-width:1;"/><line style="stroke:#181818;stroke-width:1;stroke-dasharray:2,2;" x1="232.1699" x2="580.2471" y1="798.6875" y2="798.6875"/><text fill="#000000" font-family="sans-serif" font-size="13" font-weight="bold" lengthAdjust="spacing" textLength="18.0908" x="244.1699" y="793.6216">14</text><text fill="#000000" font-family="sans-serif" font-size="13" lengthAdjust="spacing" textLength="129.5684" x="266.2607" y="793.6216">Success notification</text></g><g class="message" data-entity-1="part2" data-entity-2="part2" id="msg15"><line style="stroke:#181818;stroke-width:1;" x1="232.1699" x2="274.1699" y1="842.9531" y2="842.9531"/><line style="stroke:#181818;stroke-width:1;" x1="274.1699" x2="274.1699" y1="842.9531" y2="855.9531"/><line style="stroke:#181818;stroke-width:1;" x1="233.1699" x2="274.1699" y1="855.9531" y2="855.9531"/><polygon fill="#181818" points="243.1699,851.9531,233.1699,855.9531,243.1699,859.9531,239.1699,855.9531" style="stroke:#181818;stroke-width:1;"/><text fill="#000000" font-family="sans-serif" font-size="13" font-weight="bold" lengthAdjust="spacing" textLength="18.0908" x="239.1699" y="830.3208">15</text><text fill="#000000" font-family="sans-serif" font-size="13" lengthAdjust="spacing" textLength="143.7236" x="261.2607" y="822.7544">Remove user from list</text><text fill="#000000" font-family="sans-serif" font-size="13" lengthAdjust="spacing" textLength="192.2896" x="261.2607" y="837.8872">and display success message</text></g><?plantuml-src dPDDQ-Cm48Rl-XM3J-qX-mF2iejHSkkf8Zq5YYADqw6or4foG_vzH_u8LXQMPGy6Vypxli_Co7h8mG_z2QCGskGGeRKzUT09Md4AWxSwNk6GC3vHoY-4b_BfyFGYJF0v1ZVLo-d1OHoLKg3Fb5cezizgL2WXMjZyAj8jI4Vc7PeTEipOGE0y63YZ8D2NpiZXjziInjTDlAFquVGL6A2ZsEjChBUaNJWV_Um9-OtIQFaRMkSWecCh2rPdVVGNubSdX0zakMTKT-MAFdoX_T7KmHQhnpzxa1D5iwvinGBSoYqez1myOKNy731bU2XehsGVLnrBTfUBIBuXk_kG9oNvCoHqNLM-JcJnAQ9-XzrI7YuyLMDuXLb0GOQVcytelO-HzypUr94PnpSNt4-uaThV412kOOXhsmQmEB6ucX70tT2u_wMrWzh2lA5wttm-3kgk8g89qSA3R9LiT_l7gdgTeQhc4JfD3Ys3S6XfkdZkPzJ_6iJO9_IOaZxZF_UxHCzKQJ267Rh1tSElcTHKLLFLcruJFe_7TXmcT37quFWtFNfTZjmCF-VUyFzslhy1?></g></svg>