<?plantuml 1.2026.1?><svg xmlns="http://www.w3.org/2000/svg" xmlns:xlink="http://www.w3.org/1999/xlink" contentStyleType="text/css" data-diagram-type="SEQUENCE" height="836px" preserveAspectRatio="none" style="width:1098px;height:836px;background:#FFFFFF;" version="1.1" viewBox="0 0 1098 836" width="1098px" zoomAndPan="magnify"><defs/><g><g><title>User</title><rect fill="#FFFFFF" height="188.6641" style="stroke:#181818;stroke-width:1;" width="10" x="18.9551" y="112.4297"/></g><g><title>CommentView</title><rect fill="#FFFFFF" height="617.8594" style="stroke:#181818;stroke-width:1;" width="10" x="217.6841" y="112.4297"/></g><g><title>CommentView</title><rect fill="#FFFFFF" height="28" style="stroke:#181818;stroke-width:1;" width="10" x="222.6841" y="207.8281"/></g><g><title>CommentView</title><rect fill="#FFFFFF" height="28" style="stroke:#181818;stroke-width:1;" width="10" x="222.6841" y="338.2266"/></g><g><title>CommentView</title><rect fill="#FFFFFF" height="28" style="stroke:#181818;stroke-width:1;" width="10" x="222.6841" y="434.4922"/></g><g><title>CommentView</title><rect fill="#FFFFFF" height="28" style="stroke:#181818;stroke-width:1;" width="10" x="222.6841" y="702.2891"/></g><g><title>CommentController</title><rect fill="#FFFFFF" height="588.7266" style="stroke:#181818;stroke-width:1;" width="10" x="512.0679" y="141.5625"/></g><g><title>COMMENTS</title><rect fill="#FFFFFF" height="101.2656" style="stroke:#181818;stroke-width:1;" width="10" x="791.3647" y="534.7578"/></g><g><title>COMMENTS</title><rect fill="#FFFFFF" height="28" style="stroke:#181818;stroke-width:1;" width="10" x="796.3647" y="571.8906"/></g><rect fill="none" height="89.2656" style="stroke:#000000;stroke-width:1.5;" width="268.2788" x="158.623" y="388.2266"/><g class="participant-lifeline" data-entity-uid="part1" data-qualified-name="U" id="part1-lifeline"><g><title>User</title><rect fill="#000000" fill-opacity="0.00000" height="673.9922" width="8" x="19.9551" y="81.2969"/><line style="stroke:#181818;stroke-width:0.5;stroke-dasharray:5,5;" x1="23" x2="23" y1="81.2969" y2="755.2891"/></g></g><g class="participant-lifeline" data-entity-uid="part2" data-qualified-name="CV" id="part2-lifeline"><g><title>CommentView</title><rect fill="#000000" fill-opacity="0.00000" height="673.9922" width="8" x="218.6841" y="81.2969"/><line style="stroke:#181818;stroke-width:0.5;stroke-dasharray:5,5;" x1="222.623" x2="222.623" y1="81.2969" y2="755.2891"/></g></g><g class="participant-lifeline" data-entity-uid="part3" data-qualified-name="CC" id="part3-lifeline"><g><title>CommentController</title><rect fill="#000000" fill-opacity="0.00000" height="673.9922" width="8" x="513.0679" y="81.2969"/><line style="stroke:#181818;stroke-width:0.5;stroke-dasharray:5,5;" x1="516.1855" x2="516.1855" y1="81.2969" y2="755.2891"/></g></g><g class="participant-lifeline" data-entity-uid="part4" data-qualified-name="PM" id="part4-lifeline"><g><title>PROJECT_MEMBERS</title><rect fill="#000000" fill-opacity="0.00000" height="673.9922" width="8" x="666.73" y="81.2969"/><line style="stroke:#181818;stroke-width:0.5;stroke-dasharray:5,5;" x1="669.9502" x2="669.9502" y1="81.2969" y2="755.2891"/></g></g><g class="participant-lifeline" data-entity-uid="part5" data-qualified-name="C" id="part5-lifeline"><g><title>COMMENTS</title><rect fill="#000000" fill-opacity="0.00000" height="673.9922" width="8" x="792.3647" y="81.2969"/><line style="stroke:#181818;stroke-width:0.5;stroke-dasharray:5,5;" x1="795.5098" x2="795.5098" y1="81.2969" y2="755.2891"/></g></g><g class="participant participant-head" data-entity-uid="part1" data-qualified-name="U" id="part1-head"><text fill="#000000" font-family="sans-serif" font-size="14" lengthAdjust="spacing" textLength="31.9102" x="5" y="77.9951">User</text><ellipse cx="23.9551" cy="13.5" fill="#E2E2F0" rx="8" ry="8" style="stroke:#181818;stroke-width:0.5;"/><path d="M23.9551,21.5 L23.9551,48.5 M10.9551,29.5 L36.9551,29.5 M23.9551,48.5 L10.9551,63.5 M23.9551,48.5 L36.9551,63.5" fill="none" style="stroke:#181818;stroke-width:0.5;"/></g><g class="participant participant-tail" data-entity-uid="part1" data-qualified-name="U" id="part1-tail"><text fill="#000000" font-family="sans-serif" font-size="14" lengthAdjust="spacing" textLength="31.9102" x="5" y="767.2842">User</text><ellipse cx="23.9551" cy="779.0859" fill="#E2E2F0" rx="8" ry="8" style="stroke:#181818;stroke-width:0.5;"/><path d="M23.9551,787.0859 L23.9551,814.0859 M10.9551,795.0859 L36.9551,795.0859 M23.9551,814.0859 L10.9551,829.0859 M23.9551,814.0859 L36.9551,829.0859" fill="none" style="stroke:#181818;stroke-width:0.5;"/></g><g class="participant participant-head" data-entity-uid="part2" data-qualified-name="CV" id="part2-head"><text fill="#000000" font-family="sans-serif" font-size="14" lengthAdjust="spacing" textLength="102.1221" x="168.623" y="77.9951">CommentView</text><path d="M202.1841,37 L202.1841,61 M202.1841,49 L219.1841,49" fill="none" style="stroke:#181818;stroke-width:0.5;"/><ellipse cx="231.1841" cy="49" fill="#E2E2F0" rx="12" ry="12" style="stroke:#181818;stroke-width:0.5;"/></g><g class="participant participant-tail" data-entity-uid="part2" data-qualified-name="CV" id="part2-tail"><text fill="#000000" font-family="sans-serif" font-size="14" lengthAdjust="spacing" textLength="102.1221" x="168.623" y="767.2842">CommentView</text><path d="M202.1841,774.5859 L202.1841,798.5859 M202.1841,786.5859 L219.1841,786.5859" fill="none" style="stroke:#181818;stroke-width:0.5;"/><ellipse cx="231.1841" cy="786.5859" fill="#E2E2F0" rx="12" ry="12" style="stroke:#181818;stroke-width:0.5;"/></g><g class="participant participant-head" data-entity-uid="part3" data-qualified-name="CC" id="part3-head"><text fill="#000000" font-family="sans-serif" font-size="14" lengthAdjust="spacing" textLength="137.7646" x="445.1855" y="77.9951">CommentController</text><ellipse cx="517.0679" cy="49" fill="#E2E2F0" rx="12" ry="12" style="stroke:#181818;stroke-width:0.5;"/><polygon fill="#181818" points="513.0679,37,519.0679,32,517.0679,37,519.0679,42,513.0679,37" style="stroke:#181818;stroke-width:1;"/></g><g class="participant participant-tail" data-entity-uid="part3" data-qualified-name="CC" id="part3-tail"><text fill="#000000" font-family="sans-serif" font-size="14" lengthAdjust="spacing" textLength="137.7646" x="445.1855" y="767.2842">CommentController</text><ellipse cx="517.0679" cy="786.5859" fill="#E2E2F0" rx="12" ry="12" style="stroke:#181818;stroke-width:0.5;"/><polygon fill="#181818" points="513.0679,774.5859,519.0679,769.5859,517.0679,774.5859,519.0679,779.5859,513.0679,774.5859" style="stroke:#181818;stroke-width:1;"/></g><g class="participant participant-head" data-entity-uid="part4" data-qualified-name="PM" id="part4-head"><text fill="#000000" font-family="sans-serif" font-size="14" lengthAdjust="spacing" textLength="137.5596" x="598.9502" y="77.9951">PROJECT_MEMBERS</text><ellipse cx="670.73" cy="49" fill="#E2E2F0" rx="12" ry="12" style="stroke:#181818;stroke-width:0.5;"/><line style="stroke:#181818;stroke-width:0.5;" x1="658.73" x2="682.73" y1="63" y2="63"/></g><g class="participant participant-tail" data-entity-uid="part4" data-qualified-name="PM" id="part4-tail"><text fill="#000000" font-family="sans-serif" font-size="14" lengthAdjust="spacing" textLength="137.5596" x="598.9502" y="767.2842">PROJECT_MEMBERS</text><ellipse cx="670.73" cy="786.5859" fill="#E2E2F0" rx="12" ry="12" style="stroke:#181818;stroke-width:0.5;"/><line style="stroke:#181818;stroke-width:0.5;" x1="658.73" x2="682.73" y1="800.5859" y2="800.5859"/></g><g class="participant participant-head" data-entity-uid="part5" data-qualified-name="C" id="part5-head"><text fill="#000000" font-family="sans-serif" font-size="14" lengthAdjust="spacing" textLength="81.71" x="752.5098" y="77.9951">COMMENTS</text><ellipse cx="796.3647" cy="49" fill="#E2E2F0" rx="12" ry="12" style="stroke:#181818;stroke-width:0.5;"/><line style="stroke:#181818;stroke-width:0.5;" x1="784.3647" x2="808.3647" y1="63" y2="63"/></g><g class="participant participant-tail" data-entity-uid="part5" data-qualified-name="C" id="part5-tail"><text fill="#000000" font-family="sans-serif" font-size="14" lengthAdjust="spacing" textLength="81.71" x="752.5098" y="767.2842">COMMENTS</text><ellipse cx="796.3647" cy="786.5859" fill="#E2E2F0" rx="12" ry="12" style="stroke:#181818;stroke-width:0.5;"/><line style="stroke:#181818;stroke-width:0.5;" x1="784.3647" x2="808.3647" y1="800.5859" y2="800.5859"/></g><g><title>User</title><rect fill="#FFFFFF" height="188.6641" style="stroke:#181818;stroke-width:1;" width="10" x="18.9551" y="112.4297"/></g><g><title>CommentView</title><rect fill="#FFFFFF" height="617.8594" style="stroke:#181818;stroke-width:1;" width="10" x="217.6841" y="112.4297"/></g><g><title>CommentView</title><rect fill="#FFFFFF" height="28" style="stroke:#181818;stroke-width:1;" width="10" x="222.6841" y="207.8281"/></g><g><title>CommentView</title><rect fill="#FFFFFF" height="28" style="stroke:#181818;stroke-width:1;" width="10" x="222.6841" y="338.2266"/></g><g><title>CommentView</title><rect fill="#FFFFFF" height="28" style="stroke:#181818;stroke-width:1;" width="10" x="222.6841" y="434.4922"/></g><g><title>CommentView</title><rect fill="#FFFFFF" height="28" style="stroke:#181818;stroke-width:1;" width="10" x="222.6841" y="702.2891"/></g><g><title>CommentController</title><rect fill="#FFFFFF" height="588.7266" style="stroke:#181818;stroke-width:1;" width="10" x="512.0679" y="141.5625"/></g><g><title>COMMENTS</title><rect fill="#FFFFFF" height="101.2656" style="stroke:#181818;stroke-width:1;" width="10" x="791.3647" y="534.7578"/></g><g><title>COMMENTS</title><rect fill="#FFFFFF" height="28" style="stroke:#181818;stroke-width:1;" width="10" x="796.3647" y="571.8906"/></g><g class="message" data-entity-1="part1" data-entity-2="part2" id="msg1"><polygon fill="#181818" points="205.6841,108.4297,215.6841,112.4297,205.6841,116.4297,209.6841,112.4297" style="stroke:#181818;stroke-width:1;"/><line style="stroke:#181818;stroke-width:1;" x1="28.9551" x2="211.6841" y1="112.4297" y2="112.4297"/><text fill="#000000" font-family="sans-serif" font-size="13" font-weight="bold" lengthAdjust="spacing" textLength="9.0454" x="35.9551" y="107.3638">1</text><text fill="#000000" font-family="sans-serif" font-size="13" lengthAdjust="spacing" textLength="140.2896" x="49.0005" y="107.3638">Click "Add Comment"</text></g><g class="message" data-entity-1="part2" data-entity-2="part3" id="msg2"><polygon fill="#181818" points="500.0679,137.5625,510.0679,141.5625,500.0679,145.5625,504.0679,141.5625" style="stroke:#181818;stroke-width:1;"/><line style="stroke:#181818;stroke-width:1;" x1="227.6841" x2="506.0679" y1="141.5625" y2="141.5625"/><text fill="#000000" font-family="sans-serif" font-size="13" font-weight="bold" lengthAdjust="spacing" textLength="9.0454" x="234.6841" y="136.4966">2</text><text fill="#000000" font-family="sans-serif" font-size="13" lengthAdjust="spacing" textLength="252.3384" x="247.7295" y="136.4966">Initialize comment (project_id, task_id)</text></g><g class="message" data-entity-1="part3" data-entity-2="part2" id="msg3"><polygon fill="#181818" points="238.6841,166.6953,228.6841,170.6953,238.6841,174.6953,234.6841,170.6953" style="stroke:#181818;stroke-width:1;"/><line style="stroke:#181818;stroke-width:1;stroke-dasharray:2,2;" x1="232.6841" x2="511.0679" y1="170.6953" y2="170.6953"/><text fill="#000000" font-family="sans-serif" font-size="13" font-weight="bold" lengthAdjust="spacing" textLength="9.0454" x="244.6841" y="165.6294">3</text><text fill="#000000" font-family="sans-serif" font-size="13" lengthAdjust="spacing" textLength="40.9424" x="257.7295" y="165.6294">Ready</text></g><g class="message" data-entity-1="part2" data-entity-2="part2" id="msg4"><line style="stroke:#181818;stroke-width:1;" x1="232.6841" x2="274.6841" y1="199.8281" y2="199.8281"/><line style="stroke:#181818;stroke-width:1;" x1="274.6841" x2="274.6841" y1="199.8281" y2="212.8281"/><line style="stroke:#181818;stroke-width:1;" x1="233.6841" x2="274.6841" y1="212.8281" y2="212.8281"/><polygon fill="#181818" points="243.6841,208.8281,233.6841,212.8281,243.6841,216.8281,239.6841,212.8281" style="stroke:#181818;stroke-width:1;"/><text fill="#000000" font-family="sans-serif" font-size="13" font-weight="bold" lengthAdjust="spacing" textLength="9.0454" x="239.6841" y="194.7622">4</text><text fill="#000000" font-family="sans-serif" font-size="13" lengthAdjust="spacing" textLength="183.5679" x="252.7295" y="194.7622">Display comment input field</text></g><g class="message" data-entity-1="part1" data-entity-2="part2" id="msg5"><polygon fill="#181818" points="205.6841,267.9609,215.6841,271.9609,205.6841,275.9609,209.6841,271.9609" style="stroke:#181818;stroke-width:1;"/><line style="stroke:#181818;stroke-width:1;" x1="28.9551" x2="211.6841" y1="271.9609" y2="271.9609"/><text fill="#000000" font-family="sans-serif" font-size="13" font-weight="bold" lengthAdjust="spacing" textLength="9.0454" x="35.9551" y="266.895">5</text><text fill="#000000" font-family="sans-serif" font-size="13" lengthAdjust="spacing" textLength="151.6836" x="49.0005" y="266.895">Type comment content</text></g><g class="message" data-entity-1="part1" data-entity-2="part2" id="msg6"><polygon fill="#181818" points="205.6841,297.0938,215.6841,301.0938,205.6841,305.0938,209.6841,301.0938" style="stroke:#181818;stroke-width:1;"/><line style="stroke:#181818;stroke-width:1;" x1="23.9551" x2="211.6841" y1="301.0938" y2="301.0938"/><text fill="#000000" font-family="sans-serif" font-size="13" font-weight="bold" lengthAdjust="spacing" textLength="9.0454" x="30.9551" y="296.0278">6</text><text fill="#000000" font-family="sans-serif" font-size="13" lengthAdjust="spacing" textLength="93.1836" x="44.0005" y="296.0278">Click "Submit"</text></g><g class="message" data-entity-1="part2" data-entity-2="part2" id="msg7"><line style="stroke:#181818;stroke-width:1;" x1="232.6841" x2="274.6841" y1="330.2266" y2="330.2266"/><line style="stroke:#181818;stroke-width:1;" x1="274.6841" x2="274.6841" y1="330.2266" y2="343.2266"/><line style="stroke:#181818;stroke-width:1;" x1="233.6841" x2="274.6841" y1="343.2266" y2="343.2266"/><polygon fill="#181818" points="243.6841,339.2266,233.6841,343.2266,243.6841,347.2266,239.6841,343.2266" style="stroke:#181818;stroke-width:1;"/><text fill="#000000" font-family="sans-serif" font-size="13" font-weight="bold" lengthAdjust="spacing" textLength="9.0454" x="239.6841" y="325.1606">7</text><text fill="#000000" font-family="sans-serif" font-size="13" lengthAdjust="spacing" textLength="188.7031" x="252.7295" y="325.1606">Validate content (not empty)</text></g><path d="M158.623,388.2266 L245.5747,388.2266 L245.5747,395.3594 L235.5747,405.3594 L158.623,405.3594 L158.623,388.2266" fill="#EEEEEE" style="stroke:#000000;stroke-width:1.5;"/><rect fill="none" height="89.2656" style="stroke:#000000;stroke-width:1.5;" width="268.2788" x="158.623" y="388.2266"/><text fill="#000000" font-family="sans-serif" font-size="13" font-weight="bold" lengthAdjust="spacing" textLength="41.9517" x="173.623" y="401.2935">break</text><text fill="#000000" font-family="sans-serif" font-size="11" font-weight="bold" lengthAdjust="spacing" textLength="100.8799" x="260.5747" y="400.437">[Empty content]</text><g class="message" data-entity-1="part2" data-entity-2="part2" id="msg8"><line style="stroke:#181818;stroke-width:1;" x1="232.6841" x2="274.6841" y1="426.4922" y2="426.4922"/><line style="stroke:#181818;stroke-width:1;" x1="274.6841" x2="274.6841" y1="426.4922" y2="439.4922"/><line style="stroke:#181818;stroke-width:1;" x1="233.6841" x2="274.6841" y1="439.4922" y2="439.4922"/><polygon fill="#181818" points="243.6841,435.4922,233.6841,439.4922,243.6841,443.4922,239.6841,439.4922" style="stroke:#181818;stroke-width:1;"/><text fill="#000000" font-family="sans-serif" font-size="13" font-weight="bold" lengthAdjust="spacing" textLength="9.0454" x="239.6841" y="421.4263">8</text><text fill="#000000" font-family="sans-serif" font-size="13" lengthAdjust="spacing" textLength="152.1724" x="252.7295" y="421.4263">Display validation error</text></g><g class="message" data-entity-1="part2" data-entity-2="part3" id="msg9"><polygon fill="#181818" points="500.0679,501.625,510.0679,505.625,500.0679,509.625,504.0679,505.625" style="stroke:#181818;stroke-width:1;"/><line style="stroke:#181818;stroke-width:1;" x1="227.6841" x2="506.0679" y1="505.625" y2="505.625"/><text fill="#000000" font-family="sans-serif" font-size="13" font-weight="bold" lengthAdjust="spacing" textLength="9.0454" x="234.6841" y="500.5591">9</text><text fill="#000000" font-family="sans-serif" font-size="13" lengthAdjust="spacing" textLength="198.1548" x="247.7295" y="500.5591">Send create comment request</text></g><g class="message" data-entity-1="part3" data-entity-2="part5" id="msg10"><polygon fill="#181818" points="779.3647,530.7578,789.3647,534.7578,779.3647,538.7578,783.3647,534.7578" style="stroke:#181818;stroke-width:1;"/><line style="stroke:#181818;stroke-width:1;" x1="522.0679" x2="785.3647" y1="534.7578" y2="534.7578"/><text fill="#000000" font-family="sans-serif" font-size="13" font-weight="bold" lengthAdjust="spacing" textLength="18.0908" x="529.0679" y="529.6919">10</text><text fill="#000000" font-family="sans-serif" font-size="13" lengthAdjust="spacing" textLength="134.1831" x="551.1587" y="529.6919">Insert new comment</text></g><g class="message" data-entity-1="part5" data-entity-2="part5" id="msg11"><line style="stroke:#181818;stroke-width:1;" x1="806.3647" x2="848.3647" y1="563.8906" y2="563.8906"/><line style="stroke:#181818;stroke-width:1;" x1="848.3647" x2="848.3647" y1="563.8906" y2="576.8906"/><line style="stroke:#181818;stroke-width:1;" x1="807.3647" x2="848.3647" y1="576.8906" y2="576.8906"/><polygon fill="#181818" points="817.3647,572.8906,807.3647,576.8906,817.3647,580.8906,813.3647,576.8906" style="stroke:#181818;stroke-width:1;"/><text fill="#000000" font-family="sans-serif" font-size="13" font-weight="bold" lengthAdjust="spacing" textLength="18.0908" x="813.3647" y="558.8247">11</text><text fill="#000000" font-family="sans-serif" font-size="13" lengthAdjust="spacing" textLength="256.4834" x="835.4556" y="558.8247">Insert record (user_id, task_id, content)</text></g><g class="message" data-entity-1="part5" data-entity-2="part3" id="msg12"><polygon fill="#181818" points="533.0679,632.0234,523.0679,636.0234,533.0679,640.0234,529.0679,636.0234" style="stroke:#181818;stroke-width:1;"/><line style="stroke:#181818;stroke-width:1;stroke-dasharray:2,2;" x1="527.0679" x2="795.3647" y1="636.0234" y2="636.0234"/><text fill="#000000" font-family="sans-serif" font-size="13" font-weight="bold" lengthAdjust="spacing" textLength="18.0908" x="539.0679" y="630.9575">12</text><text fill="#000000" font-family="sans-serif" font-size="13" lengthAdjust="spacing" textLength="117.6284" x="561.1587" y="630.9575">Comment created</text></g><g class="message" data-entity-1="part3" data-entity-2="part2" id="msg13"><polygon fill="#181818" points="238.6841,661.1563,228.6841,665.1563,238.6841,669.1563,234.6841,665.1563" style="stroke:#181818;stroke-width:1;"/><line style="stroke:#181818;stroke-width:1;stroke-dasharray:2,2;" x1="232.6841" x2="511.0679" y1="665.1563" y2="665.1563"/><text fill="#000000" font-family="sans-serif" font-size="13" font-weight="bold" lengthAdjust="spacing" textLength="18.0908" x="244.6841" y="660.0903">13</text><text fill="#000000" font-family="sans-serif" font-size="13" lengthAdjust="spacing" textLength="129.5684" x="266.7749" y="660.0903">Success notification</text></g><g class="message" data-entity-1="part2" data-entity-2="part2" id="msg14"><line style="stroke:#181818;stroke-width:1;" x1="232.6841" x2="274.6841" y1="694.2891" y2="694.2891"/><line style="stroke:#181818;stroke-width:1;" x1="274.6841" x2="274.6841" y1="694.2891" y2="707.2891"/><line style="stroke:#181818;stroke-width:1;" x1="233.6841" x2="274.6841" y1="707.2891" y2="707.2891"/><polygon fill="#181818" points="243.6841,703.2891,233.6841,707.2891,243.6841,711.2891,239.6841,707.2891" style="stroke:#181818;stroke-width:1;"/><text fill="#000000" font-family="sans-serif" font-size="13" font-weight="bold" lengthAdjust="spacing" textLength="18.0908" x="239.6841" y="689.2231">14</text><text fill="#000000" font-family="sans-serif" font-size="13" lengthAdjust="spacing" textLength="184.0249" x="261.7749" y="689.2231">Display new comment in list</text></g><?plantuml-src VL9DRy8m3BtdLrYSG88_WAP9MzR39dKW2bnHI8oKqIPTcZ9rltvEeIM5YLuQVps_PrlKtfgwsADZJ4Xl7MmgT20gsB2zhOqIhW5kYmADtshy2H6-PT8QxspUHVZPpC-Ld3FoQT_0ShNuIFXwboRfQxBAGd2PTa6-IDFaSzrwEMCRc3qJz1nuhkKHHYzATV2ZG4sVX4TYrJ-91kFRjehFuTrehqMkVn7akGh6fRDVAFrEgobuKHtfCOdgULl_D9kr02iKgkaHYSURhifSD3sSDcNjuQ0nLmCI2WUKUXthfhno2GEZ_vtAhDuNcWH689kOn9OagU2z0C3OM0zObBwPF6AnToYEa8IylZVGTo_lTEwWhG5qphesBSOAzX0TZOf7dv4DaXhwgrw7tpLMdj9ucnOMH8VbmT0DNP8Y_kmcow6qJi6u9YjUtxGJ4uiVQ0yDsvNEk-kvK5F3j7ZrMIqbLXNGQFL1otOO_rr2n9sk0N9T-KSxY4r-4_m3?></g></svg>