<?plantuml 1.2026.1?><svg xmlns="http://www.w3.org/2000/svg" xmlns:xlink="http://www.w3.org/1999/xlink" contentStyleType="text/css" data-diagram-type="SEQUENCE" height="996px" preserveAspectRatio="none" style="width:1430px;height:996px;background:#FFFFFF;" version="1.1" viewBox="0 0 1430 996" width="1430px" zoomAndPan="magnify"><defs/><g><g><title>Project Manager</title><rect fill="#FFFFFF" height="189.7969" style="stroke:#181818;stroke-width:1;" width="10" x="60.1348" y="112.4297"/></g><g><title>ProjectListView</title><rect fill="#FFFFFF" height="29.1328" style="stroke:#181818;stroke-width:1;" width="10" x="236.854" y="112.4297"/></g><g><title>CreateProjectView</title><rect fill="#FFFFFF" height="756.3906" style="stroke:#181818;stroke-width:1;" width="10" x="434.7471" y="141.5625"/></g><g><title>CreateProjectView</title><rect fill="#FFFFFF" height="28" style="stroke:#181818;stroke-width:1;" width="10" x="439.7471" y="208.9609"/></g><g><title>CreateProjectView</title><rect fill="#FFFFFF" height="28" style="stroke:#181818;stroke-width:1;" width="10" x="439.7471" y="339.3594"/></g><g><title>CreateProjectView</title><rect fill="#FFFFFF" height="28" style="stroke:#181818;stroke-width:1;" width="10" x="439.7471" y="435.625"/></g><g><title>CreateProjectView</title><rect fill="#FFFFFF" height="28" style="stroke:#181818;stroke-width:1;" width="10" x="439.7471" y="833.8203"/></g><g><title>ProjectController</title><rect fill="#FFFFFF" height="289.9297" style="stroke:#181818;stroke-width:1;" width="10" x="709.2671" y="506.7578"/></g><g><title>PROJECTS</title><rect fill="#FFFFFF" height="101.2656" style="stroke:#181818;stroke-width:1;" width="10" x="911.9951" y="535.8906"/></g><g><title>PROJECTS</title><rect fill="#FFFFFF" height="28" style="stroke:#181818;stroke-width:1;" width="10" x="916.9951" y="573.0234"/></g><g><title>PROJECT_MEMBERS</title><rect fill="#FFFFFF" height="101.2656" style="stroke:#181818;stroke-width:1;" width="10" x="1171.7759" y="666.2891"/></g><g><title>PROJECT_MEMBERS</title><rect fill="#FFFFFF" height="28" style="stroke:#181818;stroke-width:1;" width="10" x="1176.7759" y="703.4219"/></g><rect fill="none" height="89.2656" style="stroke:#000000;stroke-width:1.5;" width="288.3955" x="362.3423" y="389.3594"/><g class="participant-lifeline" data-entity-uid="part1" data-qualified-name="PM" id="part1-lifeline"><g><title>Project Manager</title><rect fill="#000000" fill-opacity="0.00000" height="834.6563" width="8" x="61.1348" y="81.2969"/><line style="stroke:#181818;stroke-width:0.5;stroke-dasharray:5,5;" x1="65" x2="65" y1="81.2969" y2="915.9531"/></g></g><g class="participant-lifeline" data-entity-uid="part2" data-qualified-name="PLV" id="part2-lifeline"><g><title>ProjectListView</title><rect fill="#000000" fill-opacity="0.00000" height="834.6563" width="8" x="237.854" y="81.2969"/><line style="stroke:#181818;stroke-width:0.5;stroke-dasharray:5,5;" x1="241.626" x2="241.626" y1="81.2969" y2="915.9531"/></g></g><g class="participant-lifeline" data-entity-uid="part3" data-qualified-name="CPV" id="part3-lifeline"><g><title>CreateProjectView</title><rect fill="#000000" fill-opacity="0.00000" height="834.6563" width="8" x="435.7471" y="81.2969"/><line style="stroke:#181818;stroke-width:0.5;stroke-dasharray:5,5;" x1="439.3423" x2="439.3423" y1="81.2969" y2="915.9531"/></g></g><g class="participant-lifeline" data-entity-uid="part4" data-qualified-name="PC" id="part4-lifeline"><g><title>ProjectController</title><rect fill="#000000" fill-opacity="0.00000" height="834.6563" width="8" x="710.2671" y="81.2969"/><line style="stroke:#181818;stroke-width:0.5;stroke-dasharray:5,5;" x1="713.4541" x2="713.4541" y1="81.2969" y2="915.9531"/></g></g><g class="participant-lifeline" data-entity-uid="part5" data-qualified-name="P" id="part5-lifeline"><g><title>PROJECTS</title><rect fill="#000000" fill-opacity="0.00000" height="834.6563" width="8" x="912.9951" y="81.2969"/><line style="stroke:#181818;stroke-width:0.5;stroke-dasharray:5,5;" x1="916.3062" x2="916.3062" y1="81.2969" y2="915.9531"/></g></g><g class="participant-lifeline" data-entity-uid="part6" data-qualified-name="PME" id="part6-lifeline"><g><title>PROJECT_MEMBERS</title><rect fill="#000000" fill-opacity="0.00000" height="834.6563" width="8" x="1172.7759" y="81.2969"/><line style="stroke:#181818;stroke-width:0.5;stroke-dasharray:5,5;" x1="1175.9961" x2="1175.9961" y1="81.2969" y2="915.9531"/></g></g><g class="participant participant-head" data-entity-uid="part1" data-qualified-name="PM" id="part1-head"><text fill="#000000" font-family="sans-serif" font-size="14" lengthAdjust="spacing" textLength="114.2695" x="5" y="77.9951">Project Manager</text><ellipse cx="65.1348" cy="13.5" fill="#E2E2F0" rx="8" ry="8" style="stroke:#181818;stroke-width:0.5;"/><path d="M65.1348,21.5 L65.1348,48.5 M52.1348,29.5 L78.1348,29.5 M65.1348,48.5 L52.1348,63.5 M65.1348,48.5 L78.1348,63.5" fill="none" style="stroke:#181818;stroke-width:0.5;"/></g><g class="participant participant-tail" data-entity-uid="part1" data-qualified-name="PM" id="part1-tail"><text fill="#000000" font-family="sans-serif" font-size="14" lengthAdjust="spacing" textLength="114.2695" x="5" y="927.9482">Project Manager</text><ellipse cx="65.1348" cy="939.75" fill="#E2E2F0" rx="8" ry="8" style="stroke:#181818;stroke-width:0.5;"/><path d="M65.1348,947.75 L65.1348,974.75 M52.1348,955.75 L78.1348,955.75 M65.1348,974.75 L52.1348,989.75 M65.1348,974.75 L78.1348,989.75" fill="none" style="stroke:#181818;stroke-width:0.5;"/></g><g class="participant participant-head" data-entity-uid="part2" data-qualified-name="PLV" id="part2-head"><text fill="#000000" font-family="sans-serif" font-size="14" lengthAdjust="spacing" textLength="106.4561" x="185.626" y="77.9951">ProjectListView</text><path d="M221.354,37 L221.354,61 M221.354,49 L238.354,49" fill="none" style="stroke:#181818;stroke-width:0.5;"/><ellipse cx="250.354" cy="49" fill="#E2E2F0" rx="12" ry="12" style="stroke:#181818;stroke-width:0.5;"/></g><g class="participant participant-tail" data-entity-uid="part2" data-qualified-name="PLV" id="part2-tail"><text fill="#000000" font-family="sans-serif" font-size="14" lengthAdjust="spacing" textLength="106.4561" x="185.626" y="927.9482">ProjectListView</text><path d="M221.354,935.25 L221.354,959.25 M221.354,947.25 L238.354,947.25" fill="none" style="stroke:#181818;stroke-width:0.5;"/><ellipse cx="250.354" cy="947.25" fill="#E2E2F0" rx="12" ry="12" style="stroke:#181818;stroke-width:0.5;"/></g><g class="participant participant-head" data-entity-uid="part3" data-qualified-name="CPV" id="part3-head"><text fill="#000000" font-family="sans-serif" font-size="14" lengthAdjust="spacing" textLength="128.8096" x="372.3423" y="77.9951">CreateProjectView</text><path d="M419.2471,37 L419.2471,61 M419.2471,49 L436.2471,49" fill="none" style="stroke:#181818;stroke-width:0.5;"/><ellipse cx="448.2471" cy="49" fill="#E2E2F0" rx="12" ry="12" style="stroke:#181818;stroke-width:0.5;"/></g><g class="participant participant-tail" data-entity-uid="part3" data-qualified-name="CPV" id="part3-tail"><text fill="#000000" font-family="sans-serif" font-size="14" lengthAdjust="spacing" textLength="128.8096" x="372.3423" y="927.9482">CreateProjectView</text><path d="M419.2471,935.25 L419.2471,959.25 M419.2471,947.25 L436.2471,947.25" fill="none" style="stroke:#181818;stroke-width:0.5;"/><ellipse cx="448.2471" cy="947.25" fill="#E2E2F0" rx="12" ry="12" style="stroke:#181818;stroke-width:0.5;"/></g><g class="participant participant-head" data-entity-uid="part4" data-qualified-name="PC" id="part4-head"><text fill="#000000" font-family="sans-serif" font-size="14" lengthAdjust="spacing" textLength="117.626" x="652.4541" y="77.9951">ProjectController</text><ellipse cx="714.2671" cy="49" fill="#E2E2F0" rx="12" ry="12" style="stroke:#181818;stroke-width:0.5;"/><polygon fill="#181818" points="710.2671,37,716.2671,32,714.2671,37,716.2671,42,710.2671,37" style="stroke:#181818;stroke-width:1;"/></g><g class="participant participant-tail" data-entity-uid="part4" data-qualified-name="PC" id="part4-tail"><text fill="#000000" font-family="sans-serif" font-size="14" lengthAdjust="spacing" textLength="117.626" x="652.4541" y="927.9482">ProjectController</text><ellipse cx="714.2671" cy="947.25" fill="#E2E2F0" rx="12" ry="12" style="stroke:#181818;stroke-width:0.5;"/><polygon fill="#181818" points="710.2671,935.25,716.2671,930.25,714.2671,935.25,716.2671,940.25,710.2671,935.25" style="stroke:#181818;stroke-width:1;"/></g><g class="participant participant-head" data-entity-uid="part5" data-qualified-name="P" id="part5-head"><text fill="#000000" font-family="sans-serif" font-size="14" lengthAdjust="spacing" textLength="69.3779" x="879.3062" y="77.9951">PROJECTS</text><ellipse cx="916.9951" cy="49" fill="#E2E2F0" rx="12" ry="12" style="stroke:#181818;stroke-width:0.5;"/><line style="stroke:#181818;stroke-width:0.5;" x1="904.9951" x2="928.9951" y1="63" y2="63"/></g><g class="participant participant-tail" data-entity-uid="part5" data-qualified-name="P" id="part5-tail"><text fill="#000000" font-family="sans-serif" font-size="14" lengthAdjust="spacing" textLength="69.3779" x="879.3062" y="927.9482">PROJECTS</text><ellipse cx="916.9951" cy="947.25" fill="#E2E2F0" rx="12" ry="12" style="stroke:#181818;stroke-width:0.5;"/><line style="stroke:#181818;stroke-width:0.5;" x1="904.9951" x2="928.9951" y1="961.25" y2="961.25"/></g><g class="participant participant-head" data-entity-uid="part6" data-qualified-name="PME" id="part6-head"><text fill="#000000" font-family="sans-serif" font-size="14" lengthAdjust="spacing" textLength="137.5596" x="1104.9961" y="77.9951">PROJECT_MEMBERS</text><ellipse cx="1176.7759" cy="49" fill="#E2E2F0" rx="12" ry="12" style="stroke:#181818;stroke-width:0.5;"/><line style="stroke:#181818;stroke-width:0.5;" x1="1164.7759" x2="1188.7759" y1="63" y2="63"/></g><g class="participant participant-tail" data-entity-uid="part6" data-qualified-name="PME" id="part6-tail"><text fill="#000000" font-family="sans-serif" font-size="14" lengthAdjust="spacing" textLength="137.5596" x="1104.9961" y="927.9482">PROJECT_MEMBERS</text><ellipse cx="1176.7759" cy="947.25" fill="#E2E2F0" rx="12" ry="12" style="stroke:#181818;stroke-width:0.5;"/><line style="stroke:#181818;stroke-width:0.5;" x1="1164.7759" x2="1188.7759" y1="961.25" y2="961.25"/></g><g><title>Project Manager</title><rect fill="#FFFFFF" height="189.7969" style="stroke:#181818;stroke-width:1;" width="10" x="60.1348" y="112.4297"/></g><g><title>ProjectListView</title><rect fill="#FFFFFF" height="29.1328" style="stroke:#181818;stroke-width:1;" width="10" x="236.854" y="112.4297"/></g><g><title>CreateProjectView</title><rect fill="#FFFFFF" height="756.3906" style="stroke:#181818;stroke-width:1;" width="10" x="434.7471" y="141.5625"/></g><g><title>CreateProjectView</title><rect fill="#FFFFFF" height="28" style="stroke:#181818;stroke-width:1;" width="10" x="439.7471" y="208.9609"/></g><g><title>CreateProjectView</title><rect fill="#FFFFFF" height="28" style="stroke:#181818;stroke-width:1;" width="10" x="439.7471" y="339.3594"/></g><g><title>CreateProjectView</title><rect fill="#FFFFFF" height="28" style="stroke:#181818;stroke-width:1;" width="10" x="439.7471" y="435.625"/></g><g><title>CreateProjectView</title><rect fill="#FFFFFF" height="28" style="stroke:#181818;stroke-width:1;" width="10" x="439.7471" y="833.8203"/></g><g><title>ProjectController</title><rect fill="#FFFFFF" height="289.9297" style="stroke:#181818;stroke-width:1;" width="10" x="709.2671" y="506.7578"/></g><g><title>PROJECTS</title><rect fill="#FFFFFF" height="101.2656" style="stroke:#181818;stroke-width:1;" width="10" x="911.9951" y="535.8906"/></g><g><title>PROJECTS</title><rect fill="#FFFFFF" height="28" style="stroke:#181818;stroke-width:1;" width="10" x="916.9951" y="573.0234"/></g><g><title>PROJECT_MEMBERS</title><rect fill="#FFFFFF" height="101.2656" style="stroke:#181818;stroke-width:1;" width="10" x="1171.7759" y="666.2891"/></g><g><title>PROJECT_MEMBERS</title><rect fill="#FFFFFF" height="28" style="stroke:#181818;stroke-width:1;" width="10" x="1176.7759" y="703.4219"/></g><g class="message" data-entity-1="part1" data-entity-2="part2" id="msg1"><polygon fill="#181818" points="224.854,108.4297,234.854,112.4297,224.854,116.4297,228.854,112.4297" style="stroke:#181818;stroke-width:1;"/><line style="stroke:#181818;stroke-width:1;" x1="70.1348" x2="230.854" y1="112.4297" y2="112.4297"/><text fill="#000000" font-family="sans-serif" font-size="13" font-weight="bold" lengthAdjust="spacing" textLength="9.0454" x="77.1348" y="107.3638">1</text><text fill="#000000" font-family="sans-serif" font-size="13" lengthAdjust="spacing" textLength="139.6738" x="90.1802" y="107.3638">Click "Create Project"</text></g><g class="message" data-entity-1="part2" data-entity-2="part3" id="msg2"><polygon fill="#181818" points="422.7471,137.5625,432.7471,141.5625,422.7471,145.5625,426.7471,141.5625" style="stroke:#181818;stroke-width:1;"/><line style="stroke:#181818;stroke-width:1;" x1="241.854" x2="428.7471" y1="141.5625" y2="141.5625"/><text fill="#000000" font-family="sans-serif" font-size="13" font-weight="bold" lengthAdjust="spacing" textLength="9.0454" x="248.854" y="136.4966">2</text><text fill="#000000" font-family="sans-serif" font-size="13" lengthAdjust="spacing" textLength="155.8477" x="261.8994" y="136.4966">Navigate to create form</text></g><g class="message" data-entity-1="part3" data-entity-2="part3" id="msg3"><line style="stroke:#181818;stroke-width:1;" x1="449.7471" x2="491.7471" y1="200.9609" y2="200.9609"/><line style="stroke:#181818;stroke-width:1;" x1="491.7471" x2="491.7471" y1="200.9609" y2="213.9609"/><line style="stroke:#181818;stroke-width:1;" x1="450.7471" x2="491.7471" y1="213.9609" y2="213.9609"/><polygon fill="#181818" points="460.7471,209.9609,450.7471,213.9609,460.7471,217.9609,456.7471,213.9609" style="stroke:#181818;stroke-width:1;"/><text fill="#000000" font-family="sans-serif" font-size="13" font-weight="bold" lengthAdjust="spacing" textLength="9.0454" x="456.7471" y="180.7622">3</text><text fill="#000000" font-family="sans-serif" font-size="13" lengthAdjust="spacing" textLength="177.8105" x="469.7925" y="165.6294">Display create project form</text><text fill="#000000" font-family="sans-serif" font-size="13" lengthAdjust="spacing" textLength="227.4746" x="469.7925" y="180.7622">(name, description, start/end date,</text><text fill="#000000" font-family="sans-serif" font-size="13" lengthAdjust="spacing" textLength="104.5015" x="469.7925" y="195.895">heuristic_mode)</text></g><g class="message" data-entity-1="part1" data-entity-2="part3" id="msg4"><polygon fill="#181818" points="422.7471,269.0938,432.7471,273.0938,422.7471,277.0938,426.7471,273.0938" style="stroke:#181818;stroke-width:1;"/><line style="stroke:#181818;stroke-width:1;" x1="70.1348" x2="428.7471" y1="273.0938" y2="273.0938"/><text fill="#000000" font-family="sans-serif" font-size="13" font-weight="bold" lengthAdjust="spacing" textLength="9.0454" x="77.1348" y="268.0278">4</text><text fill="#000000" font-family="sans-serif" font-size="13" lengthAdjust="spacing" textLength="163.8203" x="90.1802" y="268.0278">Enter project information</text></g><g class="message" data-entity-1="part1" data-entity-2="part3" id="msg5"><polygon fill="#181818" points="422.7471,298.2266,432.7471,302.2266,422.7471,306.2266,426.7471,302.2266" style="stroke:#181818;stroke-width:1;"/><line style="stroke:#181818;stroke-width:1;" x1="65.1348" x2="428.7471" y1="302.2266" y2="302.2266"/><text fill="#000000" font-family="sans-serif" font-size="13" font-weight="bold" lengthAdjust="spacing" textLength="9.0454" x="72.1348" y="297.1606">5</text><text fill="#000000" font-family="sans-serif" font-size="13" lengthAdjust="spacing" textLength="90.5493" x="85.1802" y="297.1606">Click "Create"</text></g><g class="message" data-entity-1="part3" data-entity-2="part3" id="msg6"><line style="stroke:#181818;stroke-width:1;" x1="449.7471" x2="491.7471" y1="331.3594" y2="331.3594"/><line style="stroke:#181818;stroke-width:1;" x1="491.7471" x2="491.7471" y1="331.3594" y2="344.3594"/><line style="stroke:#181818;stroke-width:1;" x1="450.7471" x2="491.7471" y1="344.3594" y2="344.3594"/><polygon fill="#181818" points="460.7471,340.3594,450.7471,344.3594,460.7471,348.3594,456.7471,344.3594" style="stroke:#181818;stroke-width:1;"/><text fill="#000000" font-family="sans-serif" font-size="13" font-weight="bold" lengthAdjust="spacing" textLength="9.0454" x="456.7471" y="326.2935">6</text><text fill="#000000" font-family="sans-serif" font-size="13" lengthAdjust="spacing" textLength="86.8105" x="469.7925" y="326.2935">Validate data</text></g><path d="M362.3423,389.3594 L449.2939,389.3594 L449.2939,396.4922 L439.2939,406.4922 L362.3423,406.4922 L362.3423,389.3594" fill="#EEEEEE" style="stroke:#000000;stroke-width:1.5;"/><rect fill="none" height="89.2656" style="stroke:#000000;stroke-width:1.5;" width="288.3955" x="362.3423" y="389.3594"/><text fill="#000000" font-family="sans-serif" font-size="13" font-weight="bold" lengthAdjust="spacing" textLength="41.9517" x="377.3423" y="402.4263">break</text><text fill="#000000" font-family="sans-serif" font-size="11" font-weight="bold" lengthAdjust="spacing" textLength="83.7944" x="464.2939" y="401.5698">[Invalid data]</text><g class="message" data-entity-1="part3" data-entity-2="part3" id="msg7"><line style="stroke:#181818;stroke-width:1;" x1="449.7471" x2="491.7471" y1="427.625" y2="427.625"/><line style="stroke:#181818;stroke-width:1;" x1="491.7471" x2="491.7471" y1="427.625" y2="440.625"/><line style="stroke:#181818;stroke-width:1;" x1="450.7471" x2="491.7471" y1="440.625" y2="440.625"/><polygon fill="#181818" points="460.7471,436.625,450.7471,440.625,460.7471,444.625,456.7471,440.625" style="stroke:#181818;stroke-width:1;"/><text fill="#000000" font-family="sans-serif" font-size="13" font-weight="bold" lengthAdjust="spacing" textLength="9.0454" x="456.7471" y="422.5591">7</text><text fill="#000000" font-family="sans-serif" font-size="13" lengthAdjust="spacing" textLength="158.9453" x="469.7925" y="422.5591">Display validation errors</text></g><g class="message" data-entity-1="part3" data-entity-2="part4" id="msg8"><polygon fill="#181818" points="697.2671,502.7578,707.2671,506.7578,697.2671,510.7578,701.2671,506.7578" style="stroke:#181818;stroke-width:1;"/><line style="stroke:#181818;stroke-width:1;" x1="444.7471" x2="703.2671" y1="506.7578" y2="506.7578"/><text fill="#000000" font-family="sans-serif" font-size="13" font-weight="bold" lengthAdjust="spacing" textLength="9.0454" x="451.7471" y="501.6919">8</text><text fill="#000000" font-family="sans-serif" font-size="13" lengthAdjust="spacing" textLength="132.2598" x="464.7925" y="501.6919">Send create request</text></g><g class="message" data-entity-1="part4" data-entity-2="part5" id="msg9"><polygon fill="#181818" points="899.9951,531.8906,909.9951,535.8906,899.9951,539.8906,903.9951,535.8906" style="stroke:#181818;stroke-width:1;"/><line style="stroke:#181818;stroke-width:1;" x1="719.2671" x2="905.9951" y1="535.8906" y2="535.8906"/><text fill="#000000" font-family="sans-serif" font-size="13" font-weight="bold" lengthAdjust="spacing" textLength="9.0454" x="726.2671" y="530.8247">9</text><text fill="#000000" font-family="sans-serif" font-size="13" lengthAdjust="spacing" textLength="117.8252" x="739.3125" y="530.8247">Insert new project</text></g><g class="message" data-entity-1="part5" data-entity-2="part5" id="msg10"><line style="stroke:#181818;stroke-width:1;" x1="926.9951" x2="968.9951" y1="565.0234" y2="565.0234"/><line style="stroke:#181818;stroke-width:1;" x1="968.9951" x2="968.9951" y1="565.0234" y2="578.0234"/><line style="stroke:#181818;stroke-width:1;" x1="927.9951" x2="968.9951" y1="578.0234" y2="578.0234"/><polygon fill="#181818" points="937.9951,574.0234,927.9951,578.0234,937.9951,582.0234,933.9951,578.0234" style="stroke:#181818;stroke-width:1;"/><text fill="#000000" font-family="sans-serif" font-size="13" font-weight="bold" lengthAdjust="spacing" textLength="18.0908" x="933.9951" y="559.9575">10</text><text fill="#000000" font-family="sans-serif" font-size="13" lengthAdjust="spacing" textLength="203.6899" x="956.0859" y="559.9575">Insert record (status = ACTIVE)</text></g><g class="message" data-entity-1="part5" data-entity-2="part4" id="msg11"><polygon fill="#181818" points="730.2671,633.1563,720.2671,637.1563,730.2671,641.1563,726.2671,637.1563" style="stroke:#181818;stroke-width:1;"/><line style="stroke:#181818;stroke-width:1;stroke-dasharray:2,2;" x1="724.2671" x2="915.9951" y1="637.1563" y2="637.1563"/><text fill="#000000" font-family="sans-serif" font-size="13" font-weight="bold" lengthAdjust="spacing" textLength="18.0908" x="736.2671" y="632.0903">11</text><text fill="#000000" font-family="sans-serif" font-size="13" lengthAdjust="spacing" textLength="146.6372" x="758.3579" y="632.0903">Project created with id</text></g><g class="message" data-entity-1="part4" data-entity-2="part6" id="msg12"><polygon fill="#181818" points="1159.7759,662.2891,1169.7759,666.2891,1159.7759,670.2891,1163.7759,666.2891" style="stroke:#181818;stroke-width:1;"/><line style="stroke:#181818;stroke-width:1;" x1="719.2671" x2="1165.7759" y1="666.2891" y2="666.2891"/><text fill="#000000" font-family="sans-serif" font-size="13" font-weight="bold" lengthAdjust="spacing" textLength="18.0908" x="726.2671" y="661.2231">12</text><text fill="#000000" font-family="sans-serif" font-size="13" lengthAdjust="spacing" textLength="203.8423" x="748.3579" y="661.2231">Add creator as project member</text></g><g class="message" data-entity-1="part6" data-entity-2="part6" id="msg13"><line style="stroke:#181818;stroke-width:1;" x1="1186.7759" x2="1228.7759" y1="695.4219" y2="695.4219"/><line style="stroke:#181818;stroke-width:1;" x1="1228.7759" x2="1228.7759" y1="695.4219" y2="708.4219"/><line style="stroke:#181818;stroke-width:1;" x1="1187.7759" x2="1228.7759" y1="708.4219" y2="708.4219"/><polygon fill="#181818" points="1197.7759,704.4219,1187.7759,708.4219,1197.7759,712.4219,1193.7759,708.4219" style="stroke:#181818;stroke-width:1;"/><text fill="#000000" font-family="sans-serif" font-size="13" font-weight="bold" lengthAdjust="spacing" textLength="18.0908" x="1193.7759" y="690.356">13</text><text fill="#000000" font-family="sans-serif" font-size="13" lengthAdjust="spacing" textLength="207.8477" x="1215.8667" y="690.356">Insert record (role = MANAGER)</text></g><g class="message" data-entity-1="part6" data-entity-2="part4" id="msg14"><polygon fill="#181818" points="730.2671,763.5547,720.2671,767.5547,730.2671,771.5547,726.2671,767.5547" style="stroke:#181818;stroke-width:1;"/><line style="stroke:#181818;stroke-width:1;stroke-dasharray:2,2;" x1="724.2671" x2="1175.7759" y1="767.5547" y2="767.5547"/><text fill="#000000" font-family="sans-serif" font-size="13" font-weight="bold" lengthAdjust="spacing" textLength="18.0908" x="736.2671" y="762.4888">14</text><text fill="#000000" font-family="sans-serif" font-size="13" lengthAdjust="spacing" textLength="98.3252" x="758.3579" y="762.4888">Member added</text></g><g class="message" data-entity-1="part4" data-entity-2="part3" id="msg15"><polygon fill="#181818" points="455.7471,792.6875,445.7471,796.6875,455.7471,800.6875,451.7471,796.6875" style="stroke:#181818;stroke-width:1;"/><line style="stroke:#181818;stroke-width:1;stroke-dasharray:2,2;" x1="449.7471" x2="713.2671" y1="796.6875" y2="796.6875"/><text fill="#000000" font-family="sans-serif" font-size="13" font-weight="bold" lengthAdjust="spacing" textLength="18.0908" x="461.7471" y="791.6216">15</text><text fill="#000000" font-family="sans-serif" font-size="13" lengthAdjust="spacing" textLength="129.5684" x="483.8379" y="791.6216">Success notification</text></g><g class="message" data-entity-1="part3" data-entity-2="part3" id="msg16"><line style="stroke:#181818;stroke-width:1;" x1="449.7471" x2="491.7471" y1="825.8203" y2="825.8203"/><line style="stroke:#181818;stroke-width:1;" x1="491.7471" x2="491.7471" y1="825.8203" y2="838.8203"/><line style="stroke:#181818;stroke-width:1;" x1="450.7471" x2="491.7471" y1="838.8203" y2="838.8203"/><polygon fill="#181818" points="460.7471,834.8203,450.7471,838.8203,460.7471,842.8203,456.7471,838.8203" style="stroke:#181818;stroke-width:1;"/><text fill="#000000" font-family="sans-serif" font-size="13" font-weight="bold" lengthAdjust="spacing" textLength="18.0908" x="456.7471" y="820.7544">16</text><text fill="#000000" font-family="sans-serif" font-size="13" lengthAdjust="spacing" textLength="165.458" x="478.8379" y="820.7544">Display success message</text></g><g class="message" data-entity-1="part3" data-entity-2="part2" id="msg17"><polygon fill="#181818" points="252.854,893.9531,242.854,897.9531,252.854,901.9531,248.854,897.9531" style="stroke:#181818;stroke-width:1;"/><line style="stroke:#181818;stroke-width:1;" x1="246.854" x2="438.7471" y1="897.9531" y2="897.9531"/><text fill="#000000" font-family="sans-serif" font-size="13" font-weight="bold" lengthAdjust="spacing" textLength="18.0908" x="258.854" y="892.8872">17</text><text fill="#000000" font-family="sans-serif" font-size="13" lengthAdjust="spacing" textLength="144.4282" x="280.9448" y="892.8872">Redirect to project list</text></g><?plantuml-src VLHHRziW47xdLvpor4YfzXvjapA6fawbiz8gJvKg0jUMrOOCSAh--ntOf7PKzS6MWU-x--uxpgfFtlNT7WDZIYSVOD44_nTr0gcSUiAm01MXaMplUsTKU8Fn_Dh6jBFuMewlT-_dFA1AEA8gWZSxfhrBmRSr01-MBOOIWZDqoIQAl_tpM_2xsx9xjlaWXVmXjiEP58mr4Yw_v_nhuAtLBx0OqjSaYroLFPOTEVacmVHaBYbRmuqwsgTya3pe8S2Z3nqpEAES5haSUaxydpOUMlLMkOVHmXpZtbqurU4A34OTx25PxrOGamhf2pe3XWYhU_UCVI17hNxelC7bFDL4HbwELPVCmYKoi2QqBgTKESSKDBDcCQjApkhOgTPcGLcL-bp3deAzm9KxPig01_Z8a-CGaoG1Xk139Dmi5C1PRBA5LLaDNyDjzccqDk2_7cEQj9ApXXVacjH430aStRdHaGcEDNDKGEs3WGjgHUeZV8CDlxlQYUMKCdKgf_bwUPaZr14PD1bujUaPh9d3gomfrh0nOm6-NFRQhWxBv4sw8QXjuaGxKqhJWgHJRcuslyHsEUVDcYfEOdCOMTA0CWRDEQxuN93Pw5vhZ16SJ_RHwk4UJGdymriVHrf7B_fbV7flQblpn6xHs91zeAchbhGq1EUS_m00?></g></svg>