<?plantuml 1.2026.1?><svg xmlns="http://www.w3.org/2000/svg" xmlns:xlink="http://www.w3.org/1999/xlink" contentStyleType="text/css" data-diagram-type="DESCRIPTION" height="1824px" preserveAspectRatio="none" style="width:1433px;height:1824px;background:#FFFFFF;" version="1.1" viewBox="0 0 1433 1824" width="1433px" zoomAndPan="magnify"><defs/><g><!--cluster TaskPilot System--><g class="cluster" data-qualified-name="TaskPilot System" data-source-line="19" id="ent0006"><rect fill="none" height="1586" rx="2.5" ry="2.5" style="stroke:#6B7280;stroke-width:1;" width="1287.33" x="140.27" y="62.13"/><text fill="#000000" font-family="sans-serif" font-size="14" font-weight="bold" lengthAdjust="spacing" textLength="136.001" x="715.9345" y="77.1251">TaskPilot System</text></g><!--cluster Access & Identity--><g class="cluster" data-qualified-name="TaskPilot System.Access . Identity" data-source-line="21" id="ent0007"><rect fill="none" height="154" rx="2.5" ry="2.5" style="stroke:#6B7280;stroke-width:1;" width="604.71" x="443.7" y="974.13"/><text fill="#000000" font-family="sans-serif" font-size="14" font-weight="bold" lengthAdjust="spacing" textLength="137.5527" x="677.2786" y="989.1251">Access &amp; Identity</text></g><!--cluster Skills & Work Context--><g class="cluster" data-qualified-name="TaskPilot System.Skills . Work Context" data-source-line="28" id="ent0012"><rect fill="none" height="342" rx="2.5" ry="2.5" style="stroke:#6B7280;stroke-width:1;" width="267.61" x="404.75" y="608.13"/><text fill="#000000" font-family="sans-serif" font-size="14" font-weight="bold" lengthAdjust="spacing" textLength="171.999" x="452.5555" y="623.1251">Skills &amp; Work Context</text></g><!--cluster Project Delivery--><g class="cluster" data-qualified-name="TaskPilot System.Project Delivery" data-source-line="35" id="ent0017"><rect fill="none" height="472" rx="2.5" ry="2.5" style="stroke:#6B7280;stroke-width:1;" width="287.13" x="394.99" y="1152.13"/><text fill="#000000" font-family="sans-serif" font-size="14" font-weight="bold" lengthAdjust="spacing" textLength="126.3076" x="475.4012" y="1167.1251">Project Delivery</text></g><!--cluster AI Assistant--><g class="cluster" data-qualified-name="TaskPilot System.AI Assistant" data-source-line="44" id="ent0024"><rect fill="none" height="324" rx="2.5" ry="2.5" style="stroke:#6B7280;stroke-width:1;" width="992.15" x="411.45" y="173.13"/><text fill="#000000" font-family="sans-serif" font-size="14" font-weight="bold" lengthAdjust="spacing" textLength="94.3496" x="860.3502" y="188.1251">AI Assistant</text></g><!--cluster Overview by Actor--><g class="cluster" data-qualified-name="TaskPilot System.Overview by Actor" data-source-line="57" id="ent0034"><rect fill="none" height="235" rx="2.5" ry="2.5" style="stroke:#6B7280;stroke-width:1;" width="202.72" x="164.27" y="578.13"/><text fill="#000000" font-family="sans-serif" font-size="14" font-weight="bold" lengthAdjust="spacing" textLength="145.0244" x="193.1178" y="593.1251">Overview by Actor</text></g><!--entity U_Auth--><g class="entity" data-qualified-name="TaskPilot System.Access . Identity.U_Auth" data-source-line="22" id="ent0008"><ellipse cx="943.5044" cy="1029.1329" fill="#FFFFFF" rx="88.9144" ry="20.1829" style="stroke:#374151;stroke-width:0.5;"/><text fill="#000000" font-family="sans-serif" font-size="14" lengthAdjust="spacing" textLength="151.2793" x="867.8647" y="1033.7813">Authenticate Account</text></g><!--entity U_Recovery--><g class="entity" data-qualified-name="TaskPilot System.Access . Identity.U_Recovery" data-source-line="23" id="ent0009"><ellipse cx="538.5575" cy="1027.1315" fill="#FFFFFF" rx="78.8575" ry="18.1715" style="stroke:#374151;stroke-width:0.5;"/><text fill="#000000" font-family="sans-serif" font-size="14" lengthAdjust="spacing" textLength="127.9756" x="474.5697" y="1031.7799">Recover Password</text></g><!--entity U_Profile--><g class="entity" data-qualified-name="TaskPilot System.Access . Identity.U_Profile" data-source-line="24" id="ent0010"><ellipse cx="538.5573" cy="1096.1335" fill="#FFFFFF" rx="69.1173" ry="16.2235" style="stroke:#374151;stroke-width:0.5;"/><text fill="#000000" font-family="sans-serif" font-size="14" lengthAdjust="spacing" textLength="104.1455" x="486.4845" y="1100.7819">Manage Profile</text></g><!--entity U_PSkills--><g class="entity" data-qualified-name="TaskPilot System.Skills . Work Context.U_PSkills" data-source-line="29" id="ent0013"><ellipse cx="538.5612" cy="664.1282" fill="#FFFFFF" rx="92.9912" ry="20.9982" style="stroke:#374151;stroke-width:0.5;"/><text fill="#000000" font-family="sans-serif" font-size="14" lengthAdjust="spacing" textLength="160.4805" x="458.321" y="668.7767">Manage Personal Skills</text></g><!--entity U_SkillDir--><g class="entity" data-qualified-name="TaskPilot System.Skills . Work Context.U_SkillDir" data-source-line="30" id="ent0014"><ellipse cx="538.5637" cy="746.1307" fill="#FFFFFF" rx="117.8037" ry="25.9607" style="stroke:#374151;stroke-width:0.5;"/><text fill="#000000" font-family="sans-serif" font-size="14" lengthAdjust="spacing" textLength="214.6621" x="431.2326" y="750.7792">Manage System Skill Directory</text></g><!--entity U_Config--><g class="entity" data-qualified-name="TaskPilot System.Skills . Work Context.U_Config" data-source-line="31" id="ent0015"><ellipse cx="538.5601" cy="832.128" fill="#FFFFFF" rx="115.6401" ry="25.528" style="stroke:#374151;stroke-width:0.5;"/><text fill="#000000" font-family="sans-serif" font-size="14" lengthAdjust="spacing" textLength="210.0273" x="433.5465" y="836.7765">Configure System Parameters</text></g><!--entity U_SysUsers--><g class="entity" data-qualified-name="TaskPilot System.Skills . Work Context.U_SysUsers" data-source-line="32" id="ent0016"><ellipse cx="538.5645" cy="913.1329" fill="#FFFFFF" rx="90.9645" ry="20.5929" style="stroke:#374151;stroke-width:0.5;"/><text fill="#000000" font-family="sans-serif" font-size="14" lengthAdjust="spacing" textLength="155.9209" x="460.6041" y="917.7813">Manage System Users</text></g><!--entity U_Projects--><g class="entity" data-qualified-name="TaskPilot System.Project Delivery.U_Projects" data-source-line="36" id="ent0018"><ellipse cx="538.561" cy="1204.1302" fill="#FFFFFF" rx="73.801" ry="17.1602" style="stroke:#374151;stroke-width:0.5;"/><text fill="#000000" font-family="sans-serif" font-size="14" lengthAdjust="spacing" textLength="115.8076" x="480.6572" y="1208.7786">Manage Projects</text></g><!--entity U_Members--><g class="entity" data-qualified-name="TaskPilot System.Project Delivery.U_Members" data-source-line="37" id="ent0019"><ellipse cx="538.5612" cy="1511.1322" fill="#FFFFFF" rx="100.8112" ry="22.5622" style="stroke:#374151;stroke-width:0.5;"/><text fill="#000000" font-family="sans-serif" font-size="14" lengthAdjust="spacing" textLength="177.8438" x="449.6393" y="1515.7807">Manage Project Members</text></g><!--entity U_Sprints--><g class="entity" data-qualified-name="TaskPilot System.Project Delivery.U_Sprints" data-source-line="38" id="ent0020"><ellipse cx="538.5598" cy="1437.13" fill="#FFFFFF" rx="71.0998" ry="16.62" style="stroke:#374151;stroke-width:0.5;"/><text fill="#000000" font-family="sans-serif" font-size="14" lengthAdjust="spacing" textLength="109.1357" x="483.9919" y="1441.7784">Manage Sprints</text></g><!--entity U_Tasks--><g class="entity" data-qualified-name="TaskPilot System.Project Delivery.U_Tasks" data-source-line="39" id="ent0021"><ellipse cx="538.5629" cy="1357.1326" fill="#FFFFFF" rx="127.5629" ry="27.9126" style="stroke:#374151;stroke-width:0.5;"/><text fill="#000000" font-family="sans-serif" font-size="14" lengthAdjust="spacing" textLength="235.4229" x="420.8514" y="1361.781">Manage Tasks / Kanban / Backlog</text></g><!--entity U_Comments--><g class="entity" data-qualified-name="TaskPilot System.Project Delivery.U_Comments" data-source-line="40" id="ent0022"><ellipse cx="538.5582" cy="1275.1296" fill="#FFFFFF" rx="82.2482" ry="18.8496" style="stroke:#374151;stroke-width:0.5;"/><text fill="#000000" font-family="sans-serif" font-size="14" lengthAdjust="spacing" textLength="135.9463" x="470.585" y="1279.7781">Manage Comments</text></g><!--entity U_Noti--><g class="entity" data-qualified-name="TaskPilot System.Project Delivery.U_Noti" data-source-line="41" id="ent0023"><ellipse cx="538.5559" cy="1588.1272" fill="#FFFFFF" rx="87.3359" ry="19.8672" style="stroke:#374151;stroke-width:0.5;"/><text fill="#000000" font-family="sans-serif" font-size="14" lengthAdjust="spacing" textLength="147.6836" x="464.7141" y="1592.7756">Manage Notifications</text></g><!--entity U_AI_Session--><g class="entity" data-qualified-name="TaskPilot System.AI Assistant.U_AI_Session" data-source-line="45" id="ent0025"><ellipse cx="538.5641" cy="314.1268" fill="#FFFFFF" rx="92.7841" ry="20.9568" style="stroke:#374151;stroke-width:0.5;"/><text fill="#000000" font-family="sans-serif" font-size="14" lengthAdjust="spacing" textLength="160.0156" x="458.5562" y="318.7752">Create AI Chat Session</text></g><!--entity U_AI_Chat--><g class="entity" data-qualified-name="TaskPilot System.AI Assistant.U_AI_Chat" data-source-line="46" id="ent0026"><ellipse cx="1304.242" cy="235.1324" fill="#FFFFFF" rx="83.362" ry="19.0724" style="stroke:#374151;stroke-width:0.5;"/><text fill="#000000" font-family="sans-serif" font-size="14" lengthAdjust="spacing" textLength="138.5371" x="1234.9735" y="239.7808">Chat with AI Copilot</text></g><!--entity U_AI_History--><g class="entity" data-qualified-name="TaskPilot System.AI Assistant.U_AI_History" data-source-line="47" id="ent0027"><ellipse cx="538.5576" cy="388.1275" fill="#FFFFFF" rx="77.5876" ry="17.9175" style="stroke:#374151;stroke-width:0.5;"/><text fill="#000000" font-family="sans-serif" font-size="14" lengthAdjust="spacing" textLength="124.9541" x="476.0805" y="392.776">View Chat History</text></g><!--entity U_AI_Logs--><g class="entity" data-qualified-name="TaskPilot System.AI Assistant.U_AI_Logs" data-source-line="48" id="ent0028"><ellipse cx="538.5643" cy="461.1269" fill="#FFFFFF" rx="86.4843" ry="19.6969" style="stroke:#374151;stroke-width:0.5;"/><text fill="#000000" font-family="sans-serif" font-size="14" lengthAdjust="spacing" textLength="145.7354" x="465.6966" y="465.7753">View AI Activity Logs</text></g><!--entity U_AI_Assign--><g class="entity" data-qualified-name="TaskPilot System.AI Assistant.U_AI_Assign" data-source-line="49" id="ent0029"><ellipse cx="943.5031" cy="235.1266" fill="#FFFFFF" rx="124.3831" ry="27.2766" style="stroke:#374151;stroke-width:0.5;"/><text fill="#000000" font-family="sans-serif" font-size="14" lengthAdjust="spacing" textLength="228.6826" x="829.1618" y="239.7751">AI Assignment Recommendation</text></g><!--entity U_AI_Pending--><g class="entity" data-qualified-name="TaskPilot System.AI Assistant.U_AI_Pending" data-source-line="50" id="ent0030"><ellipse cx="538.5605" cy="233.1321" fill="#FFFFFF" rx="111.1105" ry="24.6221" style="stroke:#374151;stroke-width:0.5;"/><text fill="#000000" font-family="sans-serif" font-size="14" lengthAdjust="spacing" textLength="200.2793" x="438.4208" y="237.7805">Pending Action Confirmation</text></g><!--entity U_AdminWS--><g class="entity" data-qualified-name="TaskPilot System.Overview by Actor.U_AdminWS" data-source-line="58" id="ent0035"><ellipse cx="265.6319" cy="779.1304" fill="#FFFFFF" rx="78.3019" ry="18.0604" style="stroke:#374151;stroke-width:0.5;"/><text fill="#000000" font-family="sans-serif" font-size="14" lengthAdjust="spacing" textLength="126.6563" x="202.3038" y="783.7788">Admin Workspace</text></g><!--entity U_PMWS--><g class="entity" data-qualified-name="TaskPilot System.Overview by Actor.U_PMWS" data-source-line="59" id="ent0036"><ellipse cx="265.632" cy="706.1324" fill="#FFFFFF" rx="85.362" ry="19.4724" style="stroke:#374151;stroke-width:0.5;"/><text fill="#000000" font-family="sans-serif" font-size="14" lengthAdjust="spacing" textLength="143.1582" x="194.0529" y="710.7808">Manager Workspace</text></g><!--entity U_MemWS--><g class="entity" data-qualified-name="TaskPilot System.Overview by Actor.U_MemWS" data-source-line="60" id="ent0037"><ellipse cx="265.6347" cy="632.1349" fill="#FFFFFF" rx="83.7247" ry="19.1449" style="stroke:#374151;stroke-width:0.5;"/><text fill="#000000" font-family="sans-serif" font-size="14" lengthAdjust="spacing" textLength="139.3779" x="195.9457" y="636.7834">Member Workspace</text></g><!--entity Admin--><g class="entity" data-qualified-name="Admin" data-source-line="14" id="ent0002"><ellipse cx="63.13" cy="795.98" fill="#F1F1F1" rx="16" ry="16" style="stroke:#181818;stroke-width:0.5;"/><path d="M63.13,815.98 C67.13,815.98 70.13,815.98 74.13,811.98 C82.13,811.98 90.13,819.98 90.13,827.98 L90.13,831.98 C90.13,835.98 86.13,839.98 82.13,839.98 L44.13,839.98 C40.13,839.98 36.13,835.98 36.13,831.98 L36.13,827.98 C36.13,819.98 44.13,811.98 52.13,811.98 C56.13,815.98 59.13,815.98 63.13,815.98" fill="#F1F1F1" style="stroke:#181818;stroke-width:0.5;"/><text fill="#000000" font-family="sans-serif" font-size="14" lengthAdjust="spacing" textLength="44.8643" x="40.6979" y="853.4751">Admin</text></g><!--entity PM--><g class="entity" data-qualified-name="PM" data-source-line="15" id="ent0003"><ellipse cx="63.1348" cy="683.98" fill="#F1F1F1" rx="16" ry="16" style="stroke:#181818;stroke-width:0.5;"/><path d="M63.1348,703.98 C67.1348,703.98 70.1348,703.98 74.1348,699.98 C82.1348,699.98 90.1348,707.98 90.1348,715.98 L90.1348,719.98 C90.1348,723.98 86.1348,727.98 82.1348,727.98 L44.1348,727.98 C40.1348,727.98 36.1348,723.98 36.1348,719.98 L36.1348,715.98 C36.1348,707.98 44.1348,699.98 52.1348,699.98 C56.1348,703.98 59.1348,703.98 63.1348,703.98" fill="#F1F1F1" style="stroke:#181818;stroke-width:0.5;"/><text fill="#000000" font-family="sans-serif" font-size="14" lengthAdjust="spacing" textLength="114.2695" x="6" y="741.4751">Project Manager</text></g><!--entity Member--><g class="entity" data-qualified-name="Member" data-source-line="16" id="ent0004"><ellipse cx="63.1346" cy="571.98" fill="#F1F1F1" rx="16" ry="16" style="stroke:#181818;stroke-width:0.5;"/><path d="M63.1346,591.98 C67.1346,591.98 70.1346,591.98 74.1346,587.98 C82.1346,587.98 90.1346,595.98 90.1346,603.98 L90.1346,607.98 C90.1346,611.98 86.1346,615.98 82.1346,615.98 L44.1346,615.98 C40.1346,615.98 36.1346,611.98 36.1346,607.98 L36.1346,603.98 C36.1346,595.98 44.1346,587.98 52.1346,587.98 C56.1346,591.98 59.1346,591.98 63.1346,591.98" fill="#F1F1F1" style="stroke:#181818;stroke-width:0.5;"/><text fill="#000000" font-family="sans-serif" font-size="14" lengthAdjust="spacing" textLength="110.4893" x="7.89" y="629.4751">Project Member</text></g><!--entity SYS--><g class="entity" data-qualified-name="SYS" data-source-line="17" id="ent0005"><ellipse cx="265.6301" cy="1741.84" fill="#F1F1F1" rx="16" ry="16" style="stroke:#181818;stroke-width:0.5;"/><path d="M265.6301,1761.84 C269.6301,1761.84 272.6301,1761.84 276.6301,1757.84 C284.6301,1757.84 292.6301,1765.84 292.6301,1773.84 L292.6301,1777.84 C292.6301,1781.84 288.6301,1785.84 284.6301,1785.84 L246.6301,1785.84 C242.6301,1785.84 238.6301,1781.84 238.6301,1777.84 L238.6301,1773.84 C238.6301,1765.84 246.6301,1757.84 254.6301,1757.84 C258.6301,1761.84 261.6301,1761.84 265.6301,1761.84" fill="#F1F1F1" style="stroke:#181818;stroke-width:0.5;"/><text fill="#000000" font-family="sans-serif" font-size="14" lengthAdjust="spacing" textLength="52.2061" x="199.26" y="1799.3351">System</text><text fill="#000000" font-family="sans-serif" font-size="14" lengthAdjust="spacing" textLength="132.7402" x="199.26" y="1815.632">(External Services)</text></g><g class="entity" data-qualified-name="GMN77" data-source-line="108" id="ent0078"><path d="M818.14,1739 L818.14,1779.2656 L1068.8553,1779.2656 L1068.8553,1749 L1058.8553,1739 L818.14,1739" fill="#FEFFDD" style="stroke:#181818;stroke-width:0.5;"/><path d="M1058.8553,1739 L1058.8553,1749 L1068.8553,1749 L1058.8553,1739" fill="#FEFFDD" style="stroke:#181818;stroke-width:1;"/><text fill="#000000" font-family="sans-serif" font-size="13" lengthAdjust="spacing" textLength="183.46" x="824.14" y="1756.0669">Project Member chi thao tac</text><text fill="#000000" font-family="sans-serif" font-size="13" lengthAdjust="spacing" textLength="229.7153" x="824.14" y="1771.1997">khi duoc phan quyen quan ly du an</text></g><g class="entity" data-qualified-name="GMN80" data-source-line="113" id="ent0081"><path d="M818.14,1664 L818.14,1704.2656 L1068.8553,1704.2656 L1068.8553,1674 L1058.8553,1664 L818.14,1664" fill="#FEFFDD" style="stroke:#181818;stroke-width:0.5;"/><path d="M1058.8553,1664 L1058.8553,1674 L1068.8553,1674 L1058.8553,1664" fill="#FEFFDD" style="stroke:#181818;stroke-width:1;"/><text fill="#000000" font-family="sans-serif" font-size="13" lengthAdjust="spacing" textLength="183.46" x="824.14" y="1681.0669">Project Member chi thao tac</text><text fill="#000000" font-family="sans-serif" font-size="13" lengthAdjust="spacing" textLength="229.7153" x="824.14" y="1696.1997">khi duoc phan quyen quan ly du an</text></g><g class="entity" data-qualified-name="GMN83" data-source-line="118" id="ent0084"><path d="M726.12,6 L726.12,46.2656 L1160.8793,46.2656 L1160.8793,16 L1150.8793,6 L726.12,6" fill="#FEFFDD" style="stroke:#181818;stroke-width:0.5;"/><path d="M1150.8793,6 L1150.8793,16 L1160.8793,16 L1150.8793,6" fill="#FEFFDD" style="stroke:#181818;stroke-width:1;"/><text fill="#000000" font-family="sans-serif" font-size="13" lengthAdjust="spacing" textLength="413.7593" x="732.12" y="23.0669">Chi tiet UC dang nhap/dang ky/quen mat khau/dat lai mat khau</text><text fill="#000000" font-family="sans-serif" font-size="13" lengthAdjust="spacing" textLength="220.7461" x="732.12" y="38.1997">duoc trinh bay o use case chi tiet.</text></g><!--link U_Recovery to U_Auth--><g class="link" data-entity-1="ent0009" data-entity-2="ent0008" data-link-type="dependency" data-source-line="25" id="lnk11"><path d="M613.3,1033.19 C681.97,1033.19 777.78,1033.19 850.17,1033.19" fill="none" id="U_Recovery-to-U_Auth" style="stroke:#181818;stroke-width:1;stroke-dasharray:7,7;"/><polygon fill="#181818" points="856.17,1033.19,847.17,1029.19,851.17,1033.19,847.17,1037.19,856.17,1033.19" style="stroke:#181818;stroke-width:1;"/><text fill="#000000" font-family="sans-serif" font-size="13" lengthAdjust="spacing" textLength="61.1851" x="672.74" y="1046.2569">&#171;extend&#187;</text></g><!--link U_AI_Assign to U_AI_Chat--><g class="link" data-entity-1="ent0029" data-entity-2="ent0026" data-link-type="dependency" data-source-line="52" id="lnk31"><path d="M1068.15,235.13 C1118.45,235.13 1169.17,235.13 1214.4,235.13" fill="none" id="U_AI_Assign-to-U_AI_Chat" style="stroke:#181818;stroke-width:1;stroke-dasharray:7,7;"/><polygon fill="#181818" points="1220.4,235.13,1211.4,231.13,1215.4,235.13,1211.4,239.13,1220.4,235.13" style="stroke:#181818;stroke-width:1;"/><text fill="#000000" font-family="sans-serif" font-size="13" lengthAdjust="spacing" textLength="63.0068" x="1080.28" y="248.1969">&#171;include&#187;</text></g><!--link U_AI_Pending to U_AI_Chat--><g class="link" data-entity-1="ent0030" data-entity-2="ent0026" data-link-type="dependency" data-source-line="53" id="lnk32"><path d="M641.6,242.6 C641.6,255.71 641.6,277.79 641.6,277.79 C641.6,277.79 1254.6,277.79 1254.6,277.79 C1254.6,277.79 1254.6,268.75 1254.6,256.53" fill="none" id="U_AI_Pending-to-U_AI_Chat" style="stroke:#181818;stroke-width:1;stroke-dasharray:7,7;"/><polygon fill="#181818" points="1254.6,250.53,1250.6,259.53,1254.6,255.53,1258.6,259.53,1254.6,250.53" style="stroke:#181818;stroke-width:1;"/><text fill="#000000" font-family="sans-serif" font-size="13" lengthAdjust="spacing" textLength="61.1851" x="882.14" y="290.8569">&#171;extend&#187;</text></g><!--link U_AI_Pending to U_AI_Assign--><g class="link" data-entity-1="ent0030" data-entity-2="ent0029" data-link-type="dependency" data-source-line="54" id="lnk33"><path d="M650.01,233.13 C702.46,233.13 759.19,233.13 813.16,233.13" fill="none" id="U_AI_Pending-to-U_AI_Assign" style="stroke:#181818;stroke-width:1;stroke-dasharray:7,7;"/><polygon fill="#181818" points="819.16,233.13,810.16,229.13,814.16,233.13,810.16,237.13,819.16,233.13" style="stroke:#181818;stroke-width:1;"/><text fill="#000000" font-family="sans-serif" font-size="13" lengthAdjust="spacing" textLength="61.1851" x="672.59" y="246.1969">&#171;extend&#187;</text></g><!--link U_AdminWS to U_Auth--><g class="link" data-entity-1="ent0035" data-entity-2="ent0008" data-link-type="dependency" data-source-line="62" id="lnk38"><path d="M340.85,784.64 C508.78,784.64 899.6,784.64 899.6,784.64 C899.6,784.64 899.6,948.69 899.6,1005.16" fill="none" id="U_AdminWS-to-U_Auth" style="stroke:#181818;stroke-width:1;stroke-dasharray:7,7;"/><polygon fill="#181818" points="899.6,1011.16,903.6,1002.16,899.6,1006.16,895.6,1002.16,899.6,1011.16" style="stroke:#181818;stroke-width:1;"/><text fill="#000000" font-family="sans-serif" font-size="13" lengthAdjust="spacing" textLength="63.0068" x="669.48" y="797.7069">&#171;include&#187;</text></g><!--link U_AdminWS to U_Profile--><g class="link" data-entity-1="ent0035" data-entity-2="ent0010" data-link-type="dependency" data-source-line="63" id="lnk39"><path d="M337.6,786.53 C337.6,834.93 337.6,1104.24 337.6,1104.24 C337.6,1104.24 412.57,1104.24 471.72,1104.24" fill="none" id="U_AdminWS-to-U_Profile" style="stroke:#181818;stroke-width:1;stroke-dasharray:7,7;"/><polygon fill="#181818" points="477.72,1104.24,468.72,1100.24,472.72,1104.24,468.72,1108.24,477.72,1104.24" style="stroke:#181818;stroke-width:1;"/><text fill="#000000" font-family="sans-serif" font-size="13" lengthAdjust="spacing" textLength="63.0068" x="273.6" y="1028.5169">&#171;include&#187;</text></g><!--link U_AdminWS to U_Config--><g class="link" data-entity-1="ent0035" data-entity-2="ent0015" data-link-type="dependency" data-source-line="64" id="lnk40"><path d="M341.6,783.98 C341.6,797 341.6,831.69 341.6,831.69 C341.6,831.69 373.81,831.69 416.56,831.69" fill="none" id="U_AdminWS-to-U_Config" style="stroke:#181818;stroke-width:1;stroke-dasharray:7,7;"/><polygon fill="#181818" points="422.56,831.69,413.56,827.69,417.56,831.69,413.56,835.69,422.56,831.69" style="stroke:#181818;stroke-width:1;"/><text fill="#000000" font-family="sans-serif" font-size="13" lengthAdjust="spacing" textLength="63.0068" x="294.23" y="844.7569">&#171;include&#187;</text></g><!--link U_AdminWS to U_SkillDir--><g class="link" data-entity-1="ent0035" data-entity-2="ent0014" data-link-type="dependency" data-source-line="65" id="lnk41"><path d="M329.97,768.42 C373.78,768.42 425.51,768.42 469.13,768.42" fill="none" id="U_AdminWS-to-U_SkillDir" style="stroke:#181818;stroke-width:1;stroke-dasharray:7,7;"/><polygon fill="#181818" points="475.13,768.42,466.13,764.42,470.13,768.42,466.13,772.42,475.13,768.42" style="stroke:#181818;stroke-width:1;"/><text fill="#000000" font-family="sans-serif" font-size="13" lengthAdjust="spacing" textLength="63.0068" x="338.55" y="764.4869">&#171;include&#187;</text></g><!--link U_AdminWS to U_SysUsers--><g class="link" data-entity-1="ent0035" data-entity-2="ent0016" data-link-type="dependency" data-source-line="66" id="lnk42"><path d="M339.6,785.24 C339.6,811.45 339.6,913.13 339.6,913.13 C339.6,913.13 388.93,913.13 441.23,913.13" fill="none" id="U_AdminWS-to-U_SysUsers" style="stroke:#181818;stroke-width:1;stroke-dasharray:7,7;"/><polygon fill="#181818" points="447.23,913.13,438.23,909.13,442.23,913.13,438.23,917.13,447.23,913.13" style="stroke:#181818;stroke-width:1;"/><text fill="#000000" font-family="sans-serif" font-size="13" lengthAdjust="spacing" textLength="63.0068" x="275.6" y="916.0669">&#171;include&#187;</text></g><!--link U_AdminWS to U_Noti--><g class="link" data-entity-1="ent0035" data-entity-2="ent0023" data-link-type="dependency" data-source-line="67" id="lnk43"><path d="M334.6,787.9 C334.6,875.14 334.6,1584.16 334.6,1584.16 C334.6,1584.16 390.91,1584.16 446.65,1584.16" fill="none" id="U_AdminWS-to-U_Noti" style="stroke:#181818;stroke-width:1;stroke-dasharray:7,7;"/><polygon fill="#181818" points="452.65,1584.16,443.65,1580.16,447.65,1584.16,443.65,1588.16,452.65,1584.16" style="stroke:#181818;stroke-width:1;"/><text fill="#000000" font-family="sans-serif" font-size="13" lengthAdjust="spacing" textLength="63.0068" x="270.6" y="1258.1169">&#171;include&#187;</text></g><!--link U_AdminWS to U_AI_Logs--><g class="link" data-entity-1="ent0035" data-entity-2="ent0028" data-link-type="dependency" data-source-line="68" id="lnk44"><path d="M315.08,764.75 C354.31,764.75 402.6,764.75 402.6,764.75 C402.6,764.75 402.6,467.7 402.6,467.7 C402.6,467.7 421.7,467.7 450.34,467.7" fill="none" id="U_AdminWS-to-U_AI_Logs" style="stroke:#181818;stroke-width:1;stroke-dasharray:7,7;"/><polygon fill="#181818" points="456.34,467.7,447.34,463.7,451.34,467.7,447.34,471.7,456.34,467.7" style="stroke:#181818;stroke-width:1;"/><text fill="#000000" font-family="sans-serif" font-size="13" lengthAdjust="spacing" textLength="63.0068" x="403.6" y="637.6869">&#171;include&#187;</text></g><!--link U_PMWS to U_Auth--><g class="link" data-entity-1="ent0036" data-entity-2="ent0008" data-link-type="dependency" data-source-line="70" id="lnk45"><path d="M346.4,712.73 C526.17,712.73 943.6,712.73 943.6,712.73 C943.6,712.73 943.6,933.02 943.6,1002.86" fill="none" id="U_PMWS-to-U_Auth" style="stroke:#181818;stroke-width:1;stroke-dasharray:7,7;"/><polygon fill="#181818" points="943.6,1008.86,947.6,999.86,943.6,1003.86,939.6,999.86,943.6,1008.86" style="stroke:#181818;stroke-width:1;"/><text fill="#000000" font-family="sans-serif" font-size="13" lengthAdjust="spacing" textLength="63.0068" x="729.07" y="725.7969">&#171;include&#187;</text></g><!--link U_PMWS to U_Profile--><g class="link" data-entity-1="ent0036" data-entity-2="ent0010" data-link-type="dependency" data-source-line="71" id="lnk46"><path d="M349.6,709.99 C349.6,750.5 349.6,1096.13 349.6,1096.13 C349.6,1096.13 409.13,1096.13 463,1096.13" fill="none" id="U_PMWS-to-U_Profile" style="stroke:#181818;stroke-width:1;stroke-dasharray:7,7;"/><polygon fill="#181818" points="469,1096.13,460,1092.13,464,1096.13,460,1100.13,469,1096.13" style="stroke:#181818;stroke-width:1;"/><text fill="#000000" font-family="sans-serif" font-size="13" lengthAdjust="spacing" textLength="63.0068" x="285.6" y="975.8269">&#171;include&#187;</text></g><!--link U_PMWS to U_PSkills--><g class="link" data-entity-1="ent0036" data-entity-2="ent0013" data-link-type="dependency" data-source-line="72" id="lnk47"><path d="M266.6,686.41 C266.6,680.86 266.6,676.31 266.6,676.31 C266.6,676.31 375.3,676.31 455.72,676.31" fill="none" id="U_PMWS-to-U_PSkills" style="stroke:#181818;stroke-width:1;stroke-dasharray:7,7;"/><polygon fill="#181818" points="461.72,676.31,452.72,672.31,456.72,676.31,452.72,680.31,461.72,676.31" style="stroke:#181818;stroke-width:1;"/><text fill="#000000" font-family="sans-serif" font-size="13" lengthAdjust="spacing" textLength="63.0068" x="360.11" y="689.3769">&#171;include&#187;</text></g><!--link U_PMWS to U_Projects--><g class="link" data-entity-1="ent0036" data-entity-2="ent0018" data-link-type="dependency" data-source-line="73" id="lnk48"><path d="M347.6,711.79 C347.6,767.13 347.6,1209.85 347.6,1209.85 C347.6,1209.85 407.82,1209.85 462.27,1209.85" fill="none" id="U_PMWS-to-U_Projects" style="stroke:#181818;stroke-width:1;stroke-dasharray:7,7;"/><polygon fill="#181818" points="468.27,1209.85,459.27,1205.85,463.27,1209.85,459.27,1213.85,468.27,1209.85" style="stroke:#181818;stroke-width:1;"/><text fill="#000000" font-family="sans-serif" font-size="13" lengthAdjust="spacing" textLength="63.0068" x="348.6" y="1034.2169">&#171;include&#187;</text></g><!--link U_PMWS to U_Members--><g class="link" data-entity-1="ent0036" data-entity-2="ent0019" data-link-type="dependency" data-source-line="74" id="lnk49"><path d="M184.6,712.61 C184.6,788.8 184.6,1511.13 184.6,1511.13 C184.6,1511.13 326.98,1511.13 431.6,1511.13" fill="none" id="U_PMWS-to-U_Members" style="stroke:#181818;stroke-width:1;stroke-dasharray:7,7;"/><polygon fill="#181818" points="437.6,1511.13,428.6,1507.13,432.6,1511.13,428.6,1515.13,437.6,1511.13" style="stroke:#181818;stroke-width:1;"/><text fill="#000000" font-family="sans-serif" font-size="13" lengthAdjust="spacing" textLength="63.0068" x="120.6" y="1251.4369">&#171;include&#187;</text></g><!--link U_PMWS to U_Sprints--><g class="link" data-entity-1="ent0036" data-entity-2="ent0020" data-link-type="dependency" data-source-line="75" id="lnk50"><path d="M185.6,713.37 C185.6,789.29 185.6,1437.13 185.6,1437.13 C185.6,1437.13 358,1437.13 461.13,1437.13" fill="none" id="U_PMWS-to-U_Sprints" style="stroke:#181818;stroke-width:1;stroke-dasharray:7,7;"/><polygon fill="#181818" points="467.13,1437.13,458.13,1433.13,462.13,1437.13,458.13,1441.13,467.13,1437.13" style="stroke:#181818;stroke-width:1;"/><text fill="#000000" font-family="sans-serif" font-size="13" lengthAdjust="spacing" textLength="63.0068" x="121.6" y="1229.0769">&#171;include&#187;</text></g><!--link U_PMWS to U_Tasks--><g class="link" data-entity-1="ent0036" data-entity-2="ent0021" data-link-type="dependency" data-source-line="76" id="lnk51"><path d="M338.75,716.45 C376.03,716.45 413.6,716.45 413.6,716.45 C413.6,716.45 413.6,1280.61 413.6,1345.2" fill="none" id="U_PMWS-to-U_Tasks" style="stroke:#181818;stroke-width:1;stroke-dasharray:7,7;"/><polygon fill="#181818" points="413.6,1351.2,417.6,1342.2,413.6,1346.2,409.6,1342.2,413.6,1351.2" style="stroke:#181818;stroke-width:1;"/><text fill="#000000" font-family="sans-serif" font-size="13" lengthAdjust="spacing" textLength="63.0068" x="349.6" y="1009.4669">&#171;include&#187;</text></g><!--link U_PMWS to U_Comments--><g class="link" data-entity-1="ent0036" data-entity-2="ent0022" data-link-type="dependency" data-source-line="77" id="lnk52"><path d="M346.6,712.59 C346.6,775.8 346.6,1281.42 346.6,1281.42 C346.6,1281.42 401.34,1281.42 454.48,1281.42" fill="none" id="U_PMWS-to-U_Comments" style="stroke:#181818;stroke-width:1;stroke-dasharray:7,7;"/><polygon fill="#181818" points="460.48,1281.42,451.48,1277.42,455.48,1281.42,451.48,1285.42,460.48,1281.42" style="stroke:#181818;stroke-width:1;"/><text fill="#000000" font-family="sans-serif" font-size="13" lengthAdjust="spacing" textLength="63.0068" x="282.6" y="1067.0069">&#171;include&#187;</text></g><!--link U_PMWS to U_Noti--><g class="link" data-entity-1="ent0036" data-entity-2="ent0023" data-link-type="dependency" data-source-line="78" id="lnk53"><path d="M182.6,710.9 C182.6,780.64 182.6,1592.11 182.6,1592.11 C182.6,1592.11 341.52,1592.11 446.84,1592.11" fill="none" id="U_PMWS-to-U_Noti" style="stroke:#181818;stroke-width:1;stroke-dasharray:7,7;"/><polygon fill="#181818" points="452.84,1592.11,443.84,1588.11,447.84,1592.11,443.84,1596.11,452.84,1592.11" style="stroke:#181818;stroke-width:1;"/><text fill="#000000" font-family="sans-serif" font-size="13" lengthAdjust="spacing" textLength="63.0068" x="118.6" y="1299.6869">&#171;include&#187;</text></g><!--link U_PMWS to U_AI_Session--><g class="link" data-entity-1="ent0036" data-entity-2="ent0025" data-link-type="dependency" data-source-line="79" id="lnk54"><path d="M318.34,690.38 C347.38,690.38 377.6,690.38 377.6,690.38 C377.6,690.38 377.6,321.12 377.6,321.12 C377.6,321.12 406.97,321.12 444.54,321.12" fill="none" id="U_PMWS-to-U_AI_Session" style="stroke:#181818;stroke-width:1;stroke-dasharray:7,7;"/><polygon fill="#181818" points="450.54,321.12,441.54,317.12,445.54,321.12,441.54,325.12,450.54,321.12" style="stroke:#181818;stroke-width:1;"/><text fill="#000000" font-family="sans-serif" font-size="13" lengthAdjust="spacing" textLength="63.0068" x="313.6" y="511.9769">&#171;include&#187;</text></g><!--link U_PMWS to U_AI_Chat--><g class="link" data-entity-1="ent0036" data-entity-2="ent0026" data-link-type="dependency" data-source-line="80" id="lnk55"><path d="M350.26,709 C600.84,709 1321.6,709 1321.6,709 C1321.6,709 1321.6,348.14 1321.6,260" fill="none" id="U_PMWS-to-U_AI_Chat" style="stroke:#181818;stroke-width:1;stroke-dasharray:7,7;"/><polygon fill="#181818" points="1321.6,254,1317.6,263,1321.6,259,1325.6,263,1321.6,254" style="stroke:#181818;stroke-width:1;"/><text fill="#000000" font-family="sans-serif" font-size="13" lengthAdjust="spacing" textLength="63.0068" x="999.43" y="722.0669">&#171;include&#187;</text></g><!--link U_PMWS to U_AI_History--><g class="link" data-entity-1="ent0036" data-entity-2="ent0027" data-link-type="dependency" data-source-line="81" id="lnk56"><path d="M334.03,694.11 C360.97,694.11 385.6,694.11 385.6,694.11 C385.6,694.11 385.6,394.11 385.6,394.11 C385.6,394.11 419.65,394.11 458.77,394.11" fill="none" id="U_PMWS-to-U_AI_History" style="stroke:#181818;stroke-width:1;stroke-dasharray:7,7;"/><polygon fill="#181818" points="464.77,394.11,455.77,390.11,459.77,394.11,455.77,398.11,464.77,394.11" style="stroke:#181818;stroke-width:1;"/><text fill="#000000" font-family="sans-serif" font-size="13" lengthAdjust="spacing" textLength="63.0068" x="321.6" y="543.3769">&#171;include&#187;</text></g><!--link U_PMWS to U_AI_Logs--><g class="link" data-entity-1="ent0036" data-entity-2="ent0028" data-link-type="dependency" data-source-line="82" id="lnk57"><path d="M343.63,697.83 C370.79,697.83 394.6,697.83 394.6,697.83 C394.6,697.83 394.6,454.57 394.6,454.57 C394.6,454.57 418.16,454.57 450.49,454.57" fill="none" id="U_PMWS-to-U_AI_Logs" style="stroke:#181818;stroke-width:1;stroke-dasharray:7,7;"/><polygon fill="#181818" points="456.49,454.57,447.49,450.57,451.49,454.57,447.49,458.57,456.49,454.57" style="stroke:#181818;stroke-width:1;"/><text fill="#000000" font-family="sans-serif" font-size="13" lengthAdjust="spacing" textLength="63.0068" x="395.6" y="583.8069">&#171;include&#187;</text></g><!--link U_PMWS to U_AI_Assign--><g class="link" data-entity-1="ent0036" data-entity-2="ent0029" data-link-type="dependency" data-source-line="83" id="lnk58"><path d="M351.28,705.28 C509.5,705.28 831.6,705.28 831.6,705.28 C831.6,705.28 831.6,326.82 831.6,253.23" fill="none" id="U_PMWS-to-U_AI_Assign" style="stroke:#181818;stroke-width:1;stroke-dasharray:7,7;"/><polygon fill="#181818" points="831.6,247.23,827.6,256.23,831.6,252.23,835.6,256.23,831.6,247.23" style="stroke:#181818;stroke-width:1;"/><text fill="#000000" font-family="sans-serif" font-size="13" lengthAdjust="spacing" textLength="63.0068" x="821.47" y="718.3469">&#171;include&#187;</text></g><!--link U_PMWS to U_AI_Pending--><g class="link" data-entity-1="ent0036" data-entity-2="ent0030" data-link-type="dependency" data-source-line="84" id="lnk59"><path d="M349.05,701.55 C393.7,701.55 439.6,701.55 439.6,701.55 C439.6,701.55 439.6,322.85 439.6,250.71" fill="none" id="U_PMWS-to-U_AI_Pending" style="stroke:#181818;stroke-width:1;stroke-dasharray:7,7;"/><polygon fill="#181818" points="439.6,244.71,435.6,253.71,439.6,249.71,443.6,253.71,439.6,244.71" style="stroke:#181818;stroke-width:1;"/><text fill="#000000" font-family="sans-serif" font-size="13" lengthAdjust="spacing" textLength="63.0068" x="440.6" y="531.4769">&#171;include&#187;</text></g><!--link U_MemWS to U_Auth--><g class="link" data-entity-1="ent0037" data-entity-2="ent0008" data-link-type="dependency" data-source-line="86" id="lnk60"><path d="M347.86,628.06 C537.35,628.06 988.6,628.06 988.6,628.06 C988.6,628.06 988.6,927.76 988.6,1005.38" fill="none" id="U_MemWS-to-U_Auth" style="stroke:#181818;stroke-width:1;stroke-dasharray:7,7;"/><polygon fill="#181818" points="988.6,1011.38,992.6,1002.38,988.6,1006.38,984.6,1002.38,988.6,1011.38" style="stroke:#181818;stroke-width:1;"/><text fill="#000000" font-family="sans-serif" font-size="13" lengthAdjust="spacing" textLength="63.0068" x="795.89" y="641.1269">&#171;include&#187;</text></g><!--link U_MemWS to U_Profile--><g class="link" data-entity-1="ent0037" data-entity-2="ent0010" data-link-type="dependency" data-source-line="87" id="lnk61"><path d="M319.48,647.21 C363.88,647.21 419.6,647.21 419.6,647.21 C419.6,647.21 419.6,1088.02 419.6,1088.02 C419.6,1088.02 442.42,1088.02 471.69,1088.02" fill="none" id="U_MemWS-to-U_Profile" style="stroke:#181818;stroke-width:1;stroke-dasharray:7,7;"/><polygon fill="#181818" points="477.69,1088.02,468.69,1084.02,472.69,1088.02,468.69,1092.02,477.69,1088.02" style="stroke:#181818;stroke-width:1;"/><text fill="#000000" font-family="sans-serif" font-size="13" lengthAdjust="spacing" textLength="63.0068" x="355.6" y="859.6669">&#171;include&#187;</text></g><!--link U_MemWS to U_PSkills--><g class="link" data-entity-1="ent0037" data-entity-2="ent0013" data-link-type="dependency" data-source-line="88" id="lnk62"><path d="M328.59,645.17 C379.44,645.17 443.69,645.17 488.63,645.17" fill="none" id="U_MemWS-to-U_PSkills" style="stroke:#181818;stroke-width:1;stroke-dasharray:7,7;"/><polygon fill="#181818" points="494.63,645.17,485.63,641.17,489.63,645.17,485.63,649.17,494.63,645.17" style="stroke:#181818;stroke-width:1;"/><text fill="#000000" font-family="sans-serif" font-size="13" lengthAdjust="spacing" textLength="63.0068" x="347.61" y="658.2369">&#171;include&#187;</text></g><!--link U_MemWS to U_Projects--><g class="link" data-entity-1="ent0037" data-entity-2="ent0018" data-link-type="dependency" data-source-line="89" id="lnk63"><path d="M306.76,649.24 C351.76,649.24 417.6,649.24 417.6,649.24 C417.6,649.24 417.6,1198.41 417.6,1198.41 C417.6,1198.41 435.8,1198.41 462.55,1198.41" fill="none" id="U_MemWS-to-U_Projects" style="stroke:#181818;stroke-width:1;stroke-dasharray:7,7;"/><polygon fill="#181818" points="468.55,1198.41,459.55,1194.41,463.55,1198.41,459.55,1202.41,468.55,1198.41" style="stroke:#181818;stroke-width:1;"/><text fill="#000000" font-family="sans-serif" font-size="13" lengthAdjust="spacing" textLength="63.0068" x="353.6" y="906.9469">&#171;include&#187;</text></g><!--link U_MemWS to U_Tasks--><g class="link" data-entity-1="ent0037" data-entity-2="ent0021" data-link-type="dependency" data-source-line="90" id="lnk64"><path d="M349.82,631.83 C384.01,631.83 415.6,631.83 415.6,631.83 C415.6,631.83 415.6,1265.96 415.6,1343.48" fill="none" id="U_MemWS-to-U_Tasks" style="stroke:#181818;stroke-width:1;stroke-dasharray:7,7;"/><polygon fill="#181818" points="415.6,1349.48,419.6,1340.48,415.6,1344.48,411.6,1340.48,415.6,1349.48" style="stroke:#181818;stroke-width:1;"/><text fill="#000000" font-family="sans-serif" font-size="13" lengthAdjust="spacing" textLength="63.0068" x="351.6" y="970.8269">&#171;include&#187;</text></g><!--link U_MemWS to U_Comments--><g class="link" data-entity-1="ent0037" data-entity-2="ent0022" data-link-type="dependency" data-source-line="91" id="lnk65"><path d="M348.26,635.6 C360.23,635.6 368.6,635.6 368.6,635.6 C368.6,635.6 368.6,1268.85 368.6,1268.85 C368.6,1268.85 409.87,1268.85 454.54,1268.85" fill="none" id="U_MemWS-to-U_Comments" style="stroke:#181818;stroke-width:1;stroke-dasharray:7,7;"/><polygon fill="#181818" points="460.54,1268.85,451.54,1264.85,455.54,1268.85,451.54,1272.85,460.54,1268.85" style="stroke:#181818;stroke-width:1;"/><text fill="#000000" font-family="sans-serif" font-size="13" lengthAdjust="spacing" textLength="63.0068" x="369.6" y="988.3369">&#171;include&#187;</text></g><!--link U_MemWS to U_Noti--><g class="link" data-entity-1="ent0037" data-entity-2="ent0023" data-link-type="dependency" data-source-line="92" id="lnk66"><path d="M343.66,639.37 C353.17,639.37 359.6,639.37 359.6,639.37 C359.6,639.37 359.6,1576.21 359.6,1576.21 C359.6,1576.21 411.61,1576.21 461.57,1576.21" fill="none" id="U_MemWS-to-U_Noti" style="stroke:#181818;stroke-width:1;stroke-dasharray:7,7;"/><polygon fill="#181818" points="467.57,1576.21,458.57,1572.21,462.57,1576.21,458.57,1580.21,467.57,1576.21" style="stroke:#181818;stroke-width:1;"/><text fill="#000000" font-family="sans-serif" font-size="13" lengthAdjust="spacing" textLength="63.0068" x="295.6" y="1166.8669">&#171;include&#187;</text></g><!--link U_MemWS to U_AI_Session--><g class="link" data-entity-1="ent0037" data-entity-2="ent0025" data-link-type="dependency" data-source-line="93" id="lnk67"><path d="M238.6,613.73 C238.6,544.98 238.6,307.15 238.6,307.15 C238.6,307.15 356.08,307.15 444.59,307.15" fill="none" id="U_MemWS-to-U_AI_Session" style="stroke:#181818;stroke-width:1;stroke-dasharray:7,7;"/><polygon fill="#181818" points="450.59,307.15,441.59,303.15,445.59,307.15,441.59,311.15,450.59,307.15" style="stroke:#181818;stroke-width:1;"/><text fill="#000000" font-family="sans-serif" font-size="13" lengthAdjust="spacing" textLength="63.0068" x="174.6" y="367.5169">&#171;include&#187;</text></g><!--link U_MemWS to U_AI_Chat--><g class="link" data-entity-1="ent0037" data-entity-2="ent0026" data-link-type="dependency" data-source-line="94" id="lnk68"><path d="M342.45,624.29 C580.12,624.29 1287.6,624.29 1287.6,624.29 C1287.6,624.29 1287.6,338.3 1287.6,260.17" fill="none" id="U_MemWS-to-U_AI_Chat" style="stroke:#181818;stroke-width:1;stroke-dasharray:7,7;"/><polygon fill="#181818" points="1287.6,254.17,1283.6,263.17,1287.6,259.17,1291.6,263.17,1287.6,254.17" style="stroke:#181818;stroke-width:1;"/><text fill="#000000" font-family="sans-serif" font-size="13" lengthAdjust="spacing" textLength="63.0068" x="936.09" y="637.3569">&#171;include&#187;</text></g><!--link U_MemWS to U_AI_History--><g class="link" data-entity-1="ent0037" data-entity-2="ent0027" data-link-type="dependency" data-source-line="95" id="lnk69"><path d="M293.6,613.75 C293.6,556.02 293.6,382.16 293.6,382.16 C293.6,382.16 386.61,382.16 458.73,382.16" fill="none" id="U_MemWS-to-U_AI_History" style="stroke:#181818;stroke-width:1;stroke-dasharray:7,7;"/><polygon fill="#181818" points="464.73,382.16,455.73,378.16,459.73,382.16,455.73,386.16,464.73,382.16" style="stroke:#181818;stroke-width:1;"/><text fill="#000000" font-family="sans-serif" font-size="13" lengthAdjust="spacing" textLength="63.0068" x="229.6" y="425.4569">&#171;include&#187;</text></g><!--link U_MemWS to U_AI_Logs--><g class="link" data-entity-1="ent0037" data-entity-2="ent0028" data-link-type="dependency" data-source-line="96" id="lnk70"><path d="M333.46,620.52 C414.3,620.52 538.6,620.52 538.6,620.52 C538.6,620.52 538.6,530.21 538.6,487.32" fill="none" id="U_MemWS-to-U_AI_Logs" style="stroke:#181818;stroke-width:1;stroke-dasharray:7,7;"/><polygon fill="#181818" points="538.6,481.32,534.6,490.32,538.6,486.32,542.6,490.32,538.6,481.32" style="stroke:#181818;stroke-width:1;"/><text fill="#000000" font-family="sans-serif" font-size="13" lengthAdjust="spacing" textLength="63.0068" x="506.63" y="633.5869">&#171;include&#187;</text></g><!--link U_MemWS to U_AI_Pending--><g class="link" data-entity-1="ent0037" data-entity-2="ent0030" data-link-type="dependency" data-source-line="97" id="lnk71"><path d="M317.86,616.76 C367.17,616.76 433.6,616.76 433.6,616.76 C433.6,616.76 433.6,303.6 433.6,247.5" fill="none" id="U_MemWS-to-U_AI_Pending" style="stroke:#181818;stroke-width:1;stroke-dasharray:7,7;"/><polygon fill="#181818" points="433.6,241.5,429.6,250.5,433.6,246.5,437.6,250.5,433.6,241.5" style="stroke:#181818;stroke-width:1;"/><text fill="#000000" font-family="sans-serif" font-size="13" lengthAdjust="spacing" textLength="63.0068" x="434.6" y="500.0669">&#171;include&#187;</text></g><!--link Admin to U_AdminWS--><g class="link" data-entity-1="ent0002" data-entity-2="ent0035" data-link-type="association" data-source-line="101" id="lnk72"><path d="M90.87,788.34 C118.16,788.34 160.93,788.34 197.32,788.34" fill="none" id="Admin-U_AdminWS" style="stroke:#181818;stroke-width:1;"/></g><!--link PM to U_PMWS--><g class="link" data-entity-1="ent0003" data-entity-2="ent0036" data-link-type="association" data-source-line="102" id="lnk73"><path d="M120.62,706.13 C139.1,706.13 159.98,706.13 180.02,706.13" fill="none" id="PM-U_PMWS" style="stroke:#181818;stroke-width:1;"/></g><!--link Member to U_MemWS--><g class="link" data-entity-1="ent0004" data-entity-2="ent0037" data-link-type="association" data-source-line="103" id="lnk74"><path d="M118.74,622.88 C141.22,622.88 167.49,622.88 191.56,622.88" fill="none" id="Member-U_MemWS" style="stroke:#181818;stroke-width:1;"/></g><!--link SYS to U_Noti--><g class="link" data-entity-1="ent0005" data-entity-2="ent0023" data-link-type="association" data-source-line="104" id="lnk75"><path d="M266.6,1725.11 C266.6,1674.16 266.6,1600.05 266.6,1600.05 C266.6,1600.05 386.88,1600.05 467.46,1600.05" fill="none" id="SYS-U_Noti" style="stroke:#181818;stroke-width:1;"/></g><!--link SYS to U_AI_Chat--><g class="link" data-entity-1="ent0005" data-entity-2="ent0026" data-link-type="association" data-source-line="105" id="lnk76"><path d="M332.11,1732.17 C568.54,1732.17 1354.6,1732.17 1354.6,1732.17 C1354.6,1732.17 1354.6,408.18 1354.6,250.44" fill="none" id="SYS-U_AI_Chat" style="stroke:#181818;stroke-width:1;"/></g><!--link U_Members to GMN77--><g class="link" data-entity-1="ent0019" data-entity-2="ent0078" data-link-type="association" data-source-line="108" id="lnk79"><path d="M633.6,1519.1 C633.6,1561.55 633.6,1759.13 633.6,1759.13 C633.6,1759.13 732,1759.13 817.9,1759.13" fill="none" id="U_Members-GMN77" style="stroke:#181818;stroke-width:1;stroke-dasharray:7,7;"/></g><!--link U_Sprints to GMN80--><g class="link" data-entity-1="ent0020" data-entity-2="ent0081" data-link-type="association" data-source-line="113" id="lnk82"><path d="M610.08,1437.13 C700.24,1437.13 843.6,1437.13 843.6,1437.13 C843.6,1437.13 843.6,1604.93 843.6,1663.92" fill="none" id="U_Sprints-GMN80" style="stroke:#181818;stroke-width:1;stroke-dasharray:7,7;"/></g><!--link U_Auth to GMN83--><g class="link" data-entity-1="ent0008" data-entity-2="ent0084" data-link-type="association" data-source-line="118" id="lnk85"><path d="M861.3,1021.08 C817.52,1021.08 772.6,1021.08 772.6,1021.08 C772.6,1021.08 772.6,188.01 772.6,46.46" fill="none" id="U_Auth-GMN83" style="stroke:#181818;stroke-width:1;stroke-dasharray:7,7;"/></g><?plantuml-src hPVRZjis48RlzHG35oZQY-msRND042pWE06wQ3Snwco300K2Mg8bnXBfaDGwGf1tx_1aKKVxeZU6EFncI8vcVj4btMdG0YJB2mqPapJLJF14xHa_44agK0N9n97n77QaL3IQEP1qJtAwqKr9mJWIdfSnK39ETNEW8AGkH3H1KYsayoD7gaGLUzMAfaHH-9O0lC8bSYbgdgr4AIGS2wQfiGkPKUbiF_psxFV7JnudtwCOfzsuA37zzDMpNv__WdHYTm6BPLOnlW2Ym3u5yrgApnW5xWZ7GqeBhEy6ixJQ-adt681DepIj_kK_lVcggUIaX0sL3oobwcTBRpvkagJTvk8zKVirAuK6vxd0dUFMVOvnbocwAlWHRZFADTFDmXuDJkbQB6jTcAcKQ0g8OzQqNUh-avdgmd_JL3nG2MkYr17Juq5lRhgmIm7WcNUif1xr8qksZd1rTUCNX1VmyYN5q_FivWQnxvtpRFQiBCrvFWYvXvNW6j71cSBAL2fXSsYzmWxSQDJ39T7nyDgMjP2DTxHMD7OzSGyxbjVovBmsfKJnxOK57J6tthrgQJJPuU3eeNPUqvAPd4sUsd6gJRWTph6-28EB7utl-20PFmNter7IbAQ2Q_YJy2tX-62wiXIvTxNJeuuhKLMqNICCHzctGhETgLrKd-1WR8FiBMzXgHHJs3Z3Ubb9Qgl_5bO5mLR2bi5ueGjkFtb3pycWHuOLQ_p4mNHXws9ck_m_Z1vT_3zm6srP8UmD8xpPDahh0tOk_2LorVgOKQ-JtH5pRj85fhLCuZARczRF8LtFDM96gfTMnS4MhAnwZXvAVEkUGeNUTMUsxSjuMjOPjVqB7UyHEEhrATOlDAiCxnwCK6BAjeqvXv13fJCwROL3eLSG96lzi1chBZc0rtS3qlRA04Gpak58Rec-o0sorC6yK5v0Edsv00m2TWdgLUW2rBJR1PWlsHxfKPFNS-c9cBdSn9Z_MfoFPXNo7ETbyHpcDV4SvkJn31Iqxnmt-GxYn9vqx09oifMxc1Uk2yYHTp-6HPq-3mQD62qdsttdwYc6vWggmyrKL2_UT4d5u7GLnDHi6SJWP1rqCZ9V23rqiX9wt5mfzD39MkXnu-_O23zAlrFpHuyY2L_VkR5LQI_Crk3K6E_ERcWl2ATH-5WdNE0TmFsZ4Rle6jIz945QCD054Q19cknnaDKYXKE1TvmlTKFDBpwM3Tg1y0JF02RoC7wuFFslyRT2Qr6v1UpzVMN2CQhXVWKP_ci0Nf33jNtQDzTVQWo8NthO5wH6guQIi9CXiKjht6O1MzA0CDyzi1--r8UzQZVm7m00?></g></svg>