<?plantuml 1.2026.1?><svg xmlns="http://www.w3.org/2000/svg" xmlns:xlink="http://www.w3.org/1999/xlink" contentStyleType="text/css" data-diagram-type="DESCRIPTION" height="2087px" preserveAspectRatio="none" style="width:998px;height:2087px;background:#FFFFFF;" version="1.1" viewBox="0 0 998 2087" width="998px" zoomAndPan="magnify"><defs/><g><!--cluster TaskPilot System--><g class="cluster" data-qualified-name="TaskPilot System" data-source-line="12" id="ent0005"><rect fill="none" height="1385" rx="2.5" ry="2.5" style="stroke:#181818;stroke-width:1;" width="825.12" x="167.27" y="351.08"/><text fill="#000000" font-family="sans-serif" font-size="14" font-weight="bold" lengthAdjust="spacing" textLength="136.001" x="511.8295" y="366.0751">TaskPilot System</text></g><!--cluster Authentication--><g class="cluster" data-qualified-name="TaskPilot System.Authentication" data-source-line="14" id="ent0006"><rect fill="none" height="156" rx="2.5" ry="2.5" style="stroke:#181818;stroke-width:1;" width="762.16" x="206.23" y="670.08"/><text fill="#000000" font-family="sans-serif" font-size="14" font-weight="bold" lengthAdjust="spacing" textLength="117.2363" x="528.6918" y="685.0751">Authentication</text></g><!--cluster User Management--><g class="cluster" data-qualified-name="TaskPilot System.User Management" data-source-line="21" id="ent0011"><rect fill="none" height="160" rx="2.5" ry="2.5" style="stroke:#181818;stroke-width:1;" width="517.42" x="191.27" y="850.08"/><text fill="#000000" font-family="sans-serif" font-size="14" font-weight="bold" lengthAdjust="spacing" textLength="144.0264" x="377.9668" y="865.0751">User Management</text></g><!--cluster System Administration--><g class="cluster" data-qualified-name="TaskPilot System.System Administration" data-source-line="27" id="ent0015"><rect fill="none" height="252" rx="2.5" ry="2.5" style="stroke:#181818;stroke-width:1;" width="215.78" x="192.37" y="394.08"/><text fill="#000000" font-family="sans-serif" font-size="14" font-weight="bold" lengthAdjust="spacing" textLength="180.6533" x="209.9333" y="409.0751">System Administration</text></g><!--cluster Project & Sprint--><g class="cluster" data-qualified-name="TaskPilot System.Project . Sprint" data-source-line="33" id="ent0019"><rect fill="none" height="225" rx="2.5" ry="2.5" style="stroke:#181818;stroke-width:1;" width="187.16" x="206.68" y="1034.08"/><text fill="#000000" font-family="sans-serif" font-size="14" font-weight="bold" lengthAdjust="spacing" textLength="126.4922" x="237.0139" y="1049.0751">Project &amp; Sprint</text></g><!--cluster Task & Communication--><g class="cluster" data-qualified-name="TaskPilot System.Task . Communication" data-source-line="39" id="ent0023"><rect fill="none" height="251" rx="2.5" ry="2.5" style="stroke:#181818;stroke-width:1;" width="492.45" x="196.92" y="1283.08"/><text fill="#000000" font-family="sans-serif" font-size="14" font-weight="bold" lengthAdjust="spacing" textLength="181.2207" x="352.5346" y="1298.0751">Task &amp; Communication</text></g><!--cluster AI Assistant--><g class="cluster" data-qualified-name="TaskPilot System.AI Assistant" data-source-line="46" id="ent0028"><rect fill="none" height="154" rx="2.5" ry="2.5" style="stroke:#181818;stroke-width:1;" width="482.73" x="201.07" y="1558.08"/><text fill="#000000" font-family="sans-serif" font-size="14" font-weight="bold" lengthAdjust="spacing" textLength="94.3496" x="395.2602" y="1573.0751">AI Assistant</text></g><!--entity UC_LOGIN--><g class="entity" data-qualified-name="TaskPilot System.Authentication.UC_LOGIN" data-source-line="15" id="ent0007"><ellipse cx="885.0404" cy="725.0801" fill="#FFFFE0" rx="67.3504" ry="15.8701" style="stroke:#2F4F4F;stroke-width:0.5;"/><text fill="#000000" font-family="sans-serif" font-size="14" lengthAdjust="spacing" textLength="99.6201" x="835.2303" y="729.7285">Login / Sign In</text></g><!--entity UC_REG--><g class="entity" data-qualified-name="TaskPilot System.Authentication.UC_REG" data-source-line="16" id="ent0008"><ellipse cx="300.259" cy="723.0758" fill="#FFFFE0" rx="78.029" ry="18.0058" style="stroke:#2F4F4F;stroke-width:0.5;"/><text fill="#000000" font-family="sans-serif" font-size="14" lengthAdjust="spacing" textLength="126.0068" x="237.2556" y="727.7242">Register / Sign Up</text></g><!--entity UC_FORGOT--><g class="entity" data-qualified-name="TaskPilot System.Authentication.UC_FORGOT" data-source-line="17" id="ent0009"><ellipse cx="605.9232" cy="745.0786" fill="#FFFFE0" rx="73.8932" ry="17.1786" style="stroke:#2F4F4F;stroke-width:0.5;"/><text fill="#000000" font-family="sans-serif" font-size="14" lengthAdjust="spacing" textLength="116.0332" x="547.9066" y="749.7271">Forgot Password</text></g><!--entity UC_RESET--><g class="entity" data-qualified-name="TaskPilot System.Authentication.UC_RESET" data-source-line="18" id="ent0010"><ellipse cx="300.2595" cy="793.0759" fill="#FFFFE0" rx="71.6295" ry="16.7259" style="stroke:#2F4F4F;stroke-width:0.5;"/><text fill="#000000" font-family="sans-serif" font-size="14" lengthAdjust="spacing" textLength="110.4551" x="245.032" y="797.7243">Reset Password</text></g><!--entity UC_PROFILE--><g class="entity" data-qualified-name="TaskPilot System.User Management.UC_PROFILE" data-source-line="22" id="ent0012"><ellipse cx="605.9178" cy="959.0836" fill="#FFFFE0" rx="86.7678" ry="19.7536" style="stroke:#2F4F4F;stroke-width:0.5;"/><text fill="#000000" font-family="sans-serif" font-size="14" lengthAdjust="spacing" textLength="146.3848" x="532.7255" y="963.732">View / Update Profile</text></g><!--entity UC_SKILLS--><g class="entity" data-qualified-name="TaskPilot System.User Management.UC_SKILLS" data-source-line="23" id="ent0013"><ellipse cx="300.2612" cy="906.0782" fill="#FFFFE0" rx="92.9912" ry="20.9982" style="stroke:#2F4F4F;stroke-width:0.5;"/><text fill="#000000" font-family="sans-serif" font-size="14" lengthAdjust="spacing" textLength="160.4805" x="220.021" y="910.7267">Manage Personal Skills</text></g><!--entity UC_DEL_ACC--><g class="entity" data-qualified-name="TaskPilot System.User Management.UC_DEL_ACC" data-source-line="24" id="ent0014"><ellipse cx="300.2553" cy="978.0771" fill="#FFFFE0" rx="70.3353" ry="16.4671" style="stroke:#2F4F4F;stroke-width:0.5;"/><text fill="#000000" font-family="sans-serif" font-size="14" lengthAdjust="spacing" textLength="107.2217" x="246.6445" y="982.7255">Delete Account</text></g><!--entity UC_SYS_CFG--><g class="entity" data-qualified-name="TaskPilot System.System Administration.UC_SYS_CFG" data-source-line="28" id="ent0016"><ellipse cx="300.2563" cy="453.0779" fill="#FFFFE0" rx="85.0963" ry="24.4379" style="stroke:#2F4F4F;stroke-width:0.5;"/><text fill="#000000" font-family="sans-serif" font-size="14" lengthAdjust="spacing" textLength="124.8174" x="237.8476" y="451.9465">Configure System</text><text fill="#000000" font-family="sans-serif" font-size="14" lengthAdjust="spacing" textLength="80.7598" x="259.8765" y="468.2434">Parameters</text></g><!--entity UC_SYS_SKILL--><g class="entity" data-qualified-name="TaskPilot System.System Administration.UC_SYS_SKILL" data-source-line="29" id="ent0017"><ellipse cx="300.2598" cy="533.078" fill="#FFFFE0" rx="91.8898" ry="20.778" style="stroke:#2F4F4F;stroke-width:0.5;"/><text fill="#000000" font-family="sans-serif" font-size="14" lengthAdjust="spacing" textLength="158.0059" x="221.2568" y="537.7264">Manage Skill Directory</text></g><!--entity UC_SYS_USER--><g class="entity" data-qualified-name="TaskPilot System.System Administration.UC_SYS_USER" data-source-line="30" id="ent0018"><ellipse cx="300.2645" cy="609.0829" fill="#FFFFE0" rx="90.9645" ry="20.5929" style="stroke:#2F4F4F;stroke-width:0.5;"/><text fill="#000000" font-family="sans-serif" font-size="14" lengthAdjust="spacing" textLength="155.9209" x="222.3041" y="613.7313">Manage System Users</text></g><!--entity UC_PROJECT--><g class="entity" data-qualified-name="TaskPilot System.Project . Sprint.UC_PROJECT" data-source-line="34" id="ent0020"><ellipse cx="300.261" cy="1226.0802" fill="#FFFFE0" rx="73.801" ry="17.1602" style="stroke:#2F4F4F;stroke-width:0.5;"/><text fill="#000000" font-family="sans-serif" font-size="14" lengthAdjust="spacing" textLength="115.8076" x="242.3572" y="1230.7286">Manage Projects</text></g><!--entity UC_MEMBER--><g class="entity" data-qualified-name="TaskPilot System.Project . Sprint.UC_MEMBER" data-source-line="35" id="ent0021"><ellipse cx="300.2619" cy="1087.0764" fill="#FFFFE0" rx="77.5819" ry="17.9164" style="stroke:#2F4F4F;stroke-width:0.5;"/><text fill="#000000" font-family="sans-serif" font-size="14" lengthAdjust="spacing" textLength="124.9404" x="237.7916" y="1091.7248">Manage Members</text></g><!--entity UC_SPRINT--><g class="entity" data-qualified-name="TaskPilot System.Project . Sprint.UC_SPRINT" data-source-line="36" id="ent0022"><ellipse cx="300.2598" cy="1157.08" fill="#FFFFE0" rx="71.0998" ry="16.62" style="stroke:#2F4F4F;stroke-width:0.5;"/><text fill="#000000" font-family="sans-serif" font-size="14" lengthAdjust="spacing" textLength="109.1357" x="245.6919" y="1161.7284">Manage Sprints</text></g><!--entity UC_TASK--><g class="entity" data-qualified-name="TaskPilot System.Task . Communication.UC_TASK" data-source-line="40" id="ent0024"><ellipse cx="605.9236" cy="1483.0807" fill="#FFFFE0" rx="67.4536" ry="15.8907" style="stroke:#2F4F4F;stroke-width:0.5;"/><text fill="#000000" font-family="sans-serif" font-size="14" lengthAdjust="spacing" textLength="99.8867" x="555.9802" y="1487.7292">Manage Tasks</text></g><!--entity UC_KANBAN--><g class="entity" data-qualified-name="TaskPilot System.Task . Communication.UC_KANBAN" data-source-line="41" id="ent0025"><ellipse cx="300.2572" cy="1419.0825" fill="#FFFFE0" rx="72.8572" ry="26.0425" style="stroke:#2F4F4F;stroke-width:0.5;"/><text fill="#000000" font-family="sans-serif" font-size="14" lengthAdjust="spacing" textLength="98.8135" x="250.8504" y="1415.5892">Kanban Board</text><text fill="#000000" font-family="sans-serif" font-size="14" lengthAdjust="spacing" textLength="98.7314" x="250.8915" y="1431.8861">(Drag &amp; Drop)</text></g><!--entity UC_COMMENT--><g class="entity" data-qualified-name="TaskPilot System.Task . Communication.UC_COMMENT" data-source-line="42" id="ent0026"><ellipse cx="300.2582" cy="1499.0796" fill="#FFFFE0" rx="82.2482" ry="18.8496" style="stroke:#2F4F4F;stroke-width:0.5;"/><text fill="#000000" font-family="sans-serif" font-size="14" lengthAdjust="spacing" textLength="135.9463" x="232.285" y="1503.7281">Manage Comments</text></g><!--entity UC_NOTI--><g class="entity" data-qualified-name="TaskPilot System.Task . Communication.UC_NOTI" data-source-line="43" id="ent0027"><ellipse cx="300.2559" cy="1338.0772" fill="#FFFFE0" rx="87.3359" ry="19.8672" style="stroke:#2F4F4F;stroke-width:0.5;"/><text fill="#000000" font-family="sans-serif" font-size="14" lengthAdjust="spacing" textLength="147.6836" x="226.4141" y="1342.7256">Manage Notifications</text></g><!--entity UC_AI_CHAT--><g class="entity" data-qualified-name="TaskPilot System.AI Assistant.UC_AI_CHAT" data-source-line="47" id="ent0029"><ellipse cx="605.9234" cy="1661.0767" fill="#FFFFE0" rx="61.8834" ry="14.7767" style="stroke:#2F4F4F;stroke-width:0.5;"/><text fill="#000000" font-family="sans-serif" font-size="14" lengthAdjust="spacing" textLength="85.0254" x="563.4107" y="1665.7251">Chat with AI</text></g><!--entity UC_AI_ASSIGN--><g class="entity" data-qualified-name="TaskPilot System.AI Assistant.UC_AI_ASSIGN" data-source-line="48" id="ent0030"><ellipse cx="300.2612" cy="1677.0782" fill="#FFFFE0" rx="83.1912" ry="19.0382" style="stroke:#2F4F4F;stroke-width:0.5;"/><text fill="#000000" font-family="sans-serif" font-size="14" lengthAdjust="spacing" textLength="138.1406" x="231.1909" y="1681.7267">AI Auto-Assignment</text></g><!--entity UC_AI_LOG--><g class="entity" data-qualified-name="TaskPilot System.AI Assistant.UC_AI_LOG" data-source-line="49" id="ent0031"><ellipse cx="300.2569" cy="1608.0834" fill="#FFFFE0" rx="63.2169" ry="15.0434" style="stroke:#2F4F4F;stroke-width:0.5;"/><text fill="#000000" font-family="sans-serif" font-size="14" lengthAdjust="spacing" textLength="88.6826" x="255.9156" y="1612.7318">View AI Logs</text></g><!--entity PM--><g class="entity" data-qualified-name="PM" data-source-line="8" id="ent0002"><ellipse cx="63.1348" cy="1470.43" fill="#F1F1F1" rx="8" ry="8" style="stroke:#181818;stroke-width:0.5;"/><path d="M63.1348,1478.43 L63.1348,1505.43 M50.1348,1486.43 L76.1348,1486.43 M63.1348,1505.43 L50.1348,1520.43 M63.1348,1505.43 L76.1348,1520.43" fill="none" style="stroke:#181818;stroke-width:0.5;"/><text fill="#000000" font-family="sans-serif" font-size="14" lengthAdjust="spacing" textLength="114.2695" x="6" y="1534.9251">Project Manager</text></g><!--entity MEM--><g class="entity" data-qualified-name="MEM" data-source-line="9" id="ent0003"><ellipse cx="63.133" cy="917.43" fill="#F1F1F1" rx="8" ry="8" style="stroke:#181818;stroke-width:0.5;"/><path d="M63.133,925.43 L63.133,952.43 M50.133,933.43 L76.133,933.43 M63.133,952.43 L50.133,967.43 M63.133,952.43 L76.133,967.43" fill="none" style="stroke:#181818;stroke-width:0.5;"/><text fill="#000000" font-family="sans-serif" font-size="14" lengthAdjust="spacing" textLength="57.5859" x="34.34" y="981.9251">Member</text></g><!--entity AD--><g class="entity" data-qualified-name="AD" data-source-line="10" id="ent0004"><ellipse cx="63.1313" cy="24.43" fill="#F1F1F1" rx="8" ry="8" style="stroke:#181818;stroke-width:0.5;"/><path d="M63.1313,32.43 L63.1313,59.43 M50.1313,40.43 L76.1313,40.43 M63.1313,59.43 L50.1313,74.43 M63.1313,59.43 L76.1313,74.43" fill="none" style="stroke:#181818;stroke-width:0.5;"/><text fill="#000000" font-family="sans-serif" font-size="14" lengthAdjust="spacing" textLength="95.6826" x="15.29" y="88.9251">Administrator</text></g><!--link UC_RESET to UC_FORGOT--><g class="link" data-entity-1="ent0010" data-entity-2="ent0009" data-link-type="dependency" data-source-line="53" id="lnk32"><path d="M360.53,783.71 C413.34,775.36 484.3936,764.1267 537.7936,755.6867" fill="none" id="UC_RESET-to-UC_FORGOT" style="stroke:#181818;stroke-width:1;stroke-dasharray:7,7;"/><polygon fill="#181818" points="543.72,754.75,534.2059,752.2041,538.7813,755.5306,535.4548,760.106,543.72,754.75" style="stroke:#181818;stroke-width:1;"/><text fill="#000000" font-family="sans-serif" font-size="13" lengthAdjust="spacing" textLength="63.0068" x="425.15" y="761.1469">&#171;include&#187;</text></g><!--link UC_AI_ASSIGN to UC_AI_CHAT--><g class="link" data-entity-1="ent0030" data-entity-2="ent0029" data-link-type="dependency" data-source-line="54" id="lnk33"><path d="M381.84,1672.83 C433.14,1670.13 492.4983,1666.9958 539.1783,1664.5358" fill="none" id="UC_AI_ASSIGN-to-UC_AI_CHAT" style="stroke:#181818;stroke-width:1;stroke-dasharray:7,7;"/><polygon fill="#181818" points="545.17,1664.22,535.972,1660.6992,540.1769,1664.4831,536.393,1668.6881,545.17,1664.22" style="stroke:#181818;stroke-width:1;"/><text fill="#000000" font-family="sans-serif" font-size="13" lengthAdjust="spacing" textLength="63.0068" x="425.15" y="1664.1469">&#171;include&#187;</text></g><!--link UC_KANBAN to UC_TASK--><g class="link" data-entity-1="ent0025" data-entity-2="ent0024" data-link-type="dependency" data-source-line="55" id="lnk34"><path d="M363.81,1432.26 C420.24,1444.15 496.309,1460.1823 548.629,1471.2123" fill="none" id="UC_KANBAN-to-UC_TASK" style="stroke:#181818;stroke-width:1;stroke-dasharray:7,7;"/><polygon fill="#181818" points="554.5,1472.45,546.5187,1466.6795,549.6075,1471.4186,544.8684,1474.5074,554.5,1472.45" style="stroke:#181818;stroke-width:1;"/><text fill="#000000" font-family="sans-serif" font-size="13" lengthAdjust="spacing" textLength="63.0068" x="425.15" y="1442.1469">&#171;include&#187;</text></g><!--link UC_FORGOT to UC_LOGIN--><g class="link" data-entity-1="ent0009" data-entity-2="ent0007" data-link-type="dependency" data-source-line="58" id="lnk35"><path d="M676.85,740.03 C720.94,736.85 771.4555,733.2015 814.3155,730.1115" fill="none" id="UC_FORGOT-to-UC_LOGIN" style="stroke:#181818;stroke-width:1;stroke-dasharray:7,7;"/><polygon fill="#181818" points="820.3,729.68,811.0357,726.3375,815.3129,730.0395,811.6109,734.3168,820.3,729.68" style="stroke:#181818;stroke-width:1;"/><text fill="#000000" font-family="sans-serif" font-size="13" lengthAdjust="spacing" textLength="61.1851" x="725.69" y="729.1469">&#171;extend&#187;</text></g><!--link UC_DEL_ACC to UC_PROFILE--><g class="link" data-entity-1="ent0014" data-entity-2="ent0012" data-link-type="dependency" data-source-line="59" id="lnk36"><path d="M368.65,973.86 C413.82,971.03 467.6117,967.6645 515.7417,964.6545" fill="none" id="UC_DEL_ACC-to-UC_PROFILE" style="stroke:#181818;stroke-width:1;stroke-dasharray:7,7;"/><polygon fill="#181818" points="521.73,964.28,512.4979,960.8496,516.7397,964.5921,512.9972,968.834,521.73,964.28" style="stroke:#181818;stroke-width:1;"/><text fill="#000000" font-family="sans-serif" font-size="13" lengthAdjust="spacing" textLength="61.1851" x="426.15" y="963.1469">&#171;extend&#187;</text></g><!--link UC_AI_ASSIGN to UC_TASK--><g class="link" data-entity-1="ent0030" data-entity-2="ent0024" data-link-type="dependency" data-source-line="60" id="lnk37"><path d="M360.05,1663.48 C378.63,1657.94 398.82,1650.55 416.15,1641.08 C489.27,1601.1 556.3924,1534.7047 586.2024,1503.2547" fill="none" id="UC_AI_ASSIGN-to-UC_TASK" style="stroke:#181818;stroke-width:1;stroke-dasharray:7,7;"/><polygon fill="#181818" points="590.33,1498.9,581.2355,1502.6803,586.8903,1502.5289,587.0417,1508.1837,590.33,1498.9" style="stroke:#181818;stroke-width:1;"/><text fill="#000000" font-family="sans-serif" font-size="13" lengthAdjust="spacing" textLength="61.1851" x="426.15" y="1589.1469">&#171;extend&#187;</text></g><!--link UC_COMMENT to UC_TASK--><g class="link" data-entity-1="ent0026" data-entity-2="ent0024" data-link-type="dependency" data-source-line="61" id="lnk38"><path d="M380.65,1494.89 C430.2,1492.28 487.2083,1489.2749 533.8183,1486.8249" fill="none" id="UC_COMMENT-to-UC_TASK" style="stroke:#181818;stroke-width:1;stroke-dasharray:7,7;"/><polygon fill="#181818" points="539.81,1486.51,530.6124,1482.9879,534.8169,1486.7725,531.0324,1490.9769,539.81,1486.51" style="stroke:#181818;stroke-width:1;"/><text fill="#000000" font-family="sans-serif" font-size="13" lengthAdjust="spacing" textLength="61.1851" x="426.15" y="1486.1469">&#171;extend&#187;</text></g><!--link AD to UC_LOGIN--><g class="link" data-entity-1="ent0004" data-entity-2="ent0007" data-link-type="association" data-source-line="65" id="lnk39"><path d="M111.3,15.7 C123.82,9.51 137.65,6 151.27,9.08 C429.77,72.04 530.37,97.72 716.69,314.08 C826.28,441.34 870.58,649.9 881.31,709.01" fill="none" id="AD-UC_LOGIN" style="stroke:#181818;stroke-width:1;"/></g><!--link AD to UC_SYS_CFG--><g class="link" data-entity-1="ent0004" data-entity-2="ent0016" data-link-type="association" data-source-line="66" id="lnk40"><path d="M111.28,30.55 C125.11,27 139.64,26.85 151.27,35.08 C284.39,129.16 298.54,353.59 299.46,428.36" fill="none" id="AD-UC_SYS_CFG" style="stroke:#181818;stroke-width:1;"/></g><!--link AD to UC_SYS_SKILL--><g class="link" data-entity-1="ent0004" data-entity-2="ent0017" data-link-type="association" data-source-line="67" id="lnk41"><path d="M111.41,55.1 C126.45,57.95 141.66,63.98 151.27,76.08 C165.75,94.31 144.95,476.72 159.27,495.08 C172.2,511.66 191.59,521.46 211.85,527.15" fill="none" id="AD-UC_SYS_SKILL" style="stroke:#181818;stroke-width:1;"/></g><!--link AD to UC_SYS_USER--><g class="link" data-entity-1="ent0004" data-entity-2="ent0018" data-link-type="association" data-source-line="68" id="lnk42"><path d="M111.23,76.72 C126.83,86.77 142.46,100.2 151.27,117.08 C162.95,139.44 143.77,551.17 159.27,571.08 C172.34,587.86 192.04,597.71 212.56,603.37" fill="none" id="AD-UC_SYS_USER" style="stroke:#181818;stroke-width:1;"/></g><!--link AD to UC_NOTI--><g class="link" data-entity-1="ent0004" data-entity-2="ent0027" data-link-type="association" data-source-line="69" id="lnk43"><path d="M68.08,92.63 C81.66,226.83 127.04,685.94 151.27,1066.08 C152.63,1087.49 148.07,1240.77 159.27,1259.08 C178.35,1290.26 214.56,1310.21 245.38,1322.27" fill="none" id="AD-UC_NOTI" style="stroke:#181818;stroke-width:1;"/></g><!--link PM to UC_LOGIN--><g class="link" data-entity-1="ent0002" data-entity-2="ent0007" data-link-type="association" data-source-line="71" id="lnk44"><path d="M66.97,1538.42 C74.79,1632.2 100.11,1868.91 159.27,1916.08 C365.56,2080.51 577.85,1936.39 716.69,1712.08 C823.93,1538.8 875.12,854.79 882.96,741.12" fill="none" id="PM-UC_LOGIN" style="stroke:#181818;stroke-width:1;"/></g><!--link PM to UC_REG--><g class="link" data-entity-1="ent0002" data-entity-2="ent0008" data-link-type="association" data-source-line="72" id="lnk45"><path d="M68.49,1461.54 C85.55,1311.31 147.45,772.46 159.27,759.08 C175.47,740.74 199.63,731.14 223.35,726.3" fill="none" id="PM-UC_REG" style="stroke:#181818;stroke-width:1;"/></g><!--link PM to UC_PROFILE--><g class="link" data-entity-1="ent0002" data-entity-2="ent0012" data-link-type="association" data-source-line="73" id="lnk46"><path d="M68.81,1538.37 C77.18,1588.25 99.84,1673.6 159.27,1712.08 C282.35,1791.75 381.76,1811.89 489.15,1712.08 C522.61,1680.98 511.92,1347.18 519.15,1302.08 C539.18,1177.22 582.51,1031.21 598.67,978.93" fill="none" id="PM-UC_PROFILE" style="stroke:#181818;stroke-width:1;"/></g><!--link PM to UC_SKILLS--><g class="link" data-entity-1="ent0002" data-entity-2="ent0013" data-link-type="association" data-source-line="74" id="lnk47"><path d="M81.91,1461.76 C103.02,1414.06 137.16,1329.54 151.27,1253.08 C154.39,1236.19 148.66,957.58 159.27,944.08 C172.1,927.74 191.2,917.98 211.2,912.27" fill="none" id="PM-UC_SKILLS" style="stroke:#181818;stroke-width:1;"/></g><!--link PM to UC_PROJECT--><g class="link" data-entity-1="ent0002" data-entity-2="ent0020" data-link-type="association" data-source-line="75" id="lnk48"><path d="M99.02,1461.44 C117.79,1438.35 139.45,1407.47 151.27,1376.08 C162.93,1345.12 140.85,1329.55 159.27,1302.08 C180.6,1270.26 219.82,1250.63 251.34,1239.3" fill="none" id="PM-UC_PROJECT" style="stroke:#181818;stroke-width:1;"/></g><!--link PM to UC_MEMBER--><g class="link" data-entity-1="ent0002" data-entity-2="ent0021" data-link-type="association" data-source-line="76" id="lnk49"><path d="M85.31,1461.59 C106.33,1421.21 137.37,1355.23 151.27,1294.08 C155.48,1275.53 147.27,1137.83 159.27,1123.08 C174.87,1103.9 199.19,1094.15 223.21,1089.41" fill="none" id="PM-UC_MEMBER" style="stroke:#181818;stroke-width:1;"/></g><!--link PM to UC_SPRINT--><g class="link" data-entity-1="ent0002" data-entity-2="ent0022" data-link-type="association" data-source-line="77" id="lnk50"><path d="M90.52,1461.75 C111.15,1429.53 138.41,1381.43 151.27,1335.08 C155.55,1319.63 149.02,1203.39 159.27,1191.08 C176.23,1170.7 203.14,1161.37 228.86,1157.43" fill="none" id="PM-UC_SPRINT" style="stroke:#181818;stroke-width:1;"/></g><!--link PM to UC_TASK--><g class="link" data-entity-1="ent0002" data-entity-2="ent0024" data-link-type="association" data-source-line="78" id="lnk51"><path d="M70.48,1538.52 C82.69,1607.27 111.71,1746.75 150.27,1775.08 C271.65,1864.25 374.95,1873.27 489.15,1775.08 C556.64,1717.05 480.84,1657.41 519.15,1577.08 C534.65,1544.57 565.18,1515.35 585.32,1498.41" fill="none" id="PM-UC_TASK" style="stroke:#181818;stroke-width:1;"/></g><!--link PM to UC_KANBAN--><g class="link" data-entity-1="ent0002" data-entity-2="ent0025" data-link-type="association" data-source-line="79" id="lnk52"><path d="M120.75,1477.35 C133.37,1472.48 146.73,1467.48 159.27,1463.08 C186.79,1453.41 217.7,1443.59 243.46,1435.68" fill="none" id="PM-UC_KANBAN" style="stroke:#181818;stroke-width:1;"/></g><!--link PM to UC_COMMENT--><g class="link" data-entity-1="ent0002" data-entity-2="ent0026" data-link-type="association" data-source-line="80" id="lnk53"><path d="M120.75,1499.83 C149.83,1499.71 185.79,1499.56 217.79,1499.42" fill="none" id="PM-UC_COMMENT" style="stroke:#181818;stroke-width:1;"/></g><!--link PM to UC_NOTI--><g class="link" data-entity-1="ent0002" data-entity-2="ent0027" data-link-type="association" data-source-line="81" id="lnk54"><path d="M115.18,1461.46 C128.83,1448.75 142.27,1433.59 151.27,1417.08 C160.36,1400.39 146.31,1388.98 159.27,1375.08 C174.27,1358.99 195.37,1349.57 216.65,1344.15" fill="none" id="PM-UC_NOTI" style="stroke:#181818;stroke-width:1;"/></g><!--link PM to UC_AI_CHAT--><g class="link" data-entity-1="ent0002" data-entity-2="ent0029" data-link-type="association" data-source-line="82" id="lnk55"><path d="M68.65,1538.44 C79.31,1621.7 109.01,1814.57 159.27,1853.08 C276.01,1942.52 372.25,1916.31 489.15,1827.08 C544.73,1784.65 583.85,1707.88 598.52,1675.79" fill="none" id="PM-UC_AI_CHAT" style="stroke:#181818;stroke-width:1;"/></g><!--link PM to UC_AI_ASSIGN--><g class="link" data-entity-1="ent0002" data-entity-2="ent0030" data-link-type="association" data-source-line="83" id="lnk56"><path d="M80.48,1538.49 C96.11,1570.64 122.72,1615.28 159.27,1641.08 C178.65,1654.75 202.79,1663.23 225.55,1668.49" fill="none" id="PM-UC_AI_ASSIGN" style="stroke:#181818;stroke-width:1;"/></g><!--link PM to UC_AI_LOG--><g class="link" data-entity-1="ent0002" data-entity-2="ent0031" data-link-type="association" data-source-line="84" id="lnk57"><path d="M120.75,1526.08 C167.63,1547.62 232.39,1577.36 269.64,1594.47" fill="none" id="PM-UC_AI_LOG" style="stroke:#181818;stroke-width:1;"/></g><!--link MEM to UC_LOGIN--><g class="link" data-entity-1="ent0003" data-entity-2="ent0007" data-link-type="association" data-source-line="86" id="lnk58"><path d="M65.95,908.59 C73.28,761.46 103.08,240.5 159.27,195.08 C273.48,102.75 366.61,133.13 489.15,214.08 C698.24,352.19 843.23,638.63 876.67,709.14" fill="none" id="MEM-UC_LOGIN" style="stroke:#181818;stroke-width:1;"/></g><!--link MEM to UC_REG--><g class="link" data-entity-1="ent0003" data-entity-2="ent0008" data-link-type="association" data-source-line="87" id="lnk59"><path d="M73.37,908.58 C85.68,865.69 111.65,797.35 159.27,759.08 C178.44,743.67 203.45,734.78 227.01,729.68" fill="none" id="MEM-UC_REG" style="stroke:#181818;stroke-width:1;"/></g><!--link MEM to UC_PROFILE--><g class="link" data-entity-1="ent0003" data-entity-2="ent0012" data-link-type="association" data-source-line="88" id="lnk60"><path d="M66.06,908.72 C73.35,770.83 101.4,306.17 150.27,263.08 C263.23,163.45 379.85,159.45 489.15,263.08 C534.61,306.18 499.86,766.47 519.15,826.08 C533.62,870.78 567.03,915.1 587.62,939.61" fill="none" id="MEM-UC_PROFILE" style="stroke:#181818;stroke-width:1;"/></g><!--link MEM to UC_SKILLS--><g class="link" data-entity-1="ent0003" data-entity-2="ent0013" data-link-type="association" data-source-line="89" id="lnk61"><path d="M92.35,940.32 C109.12,936.44 130.84,931.65 150.27,928.08 C172.64,923.96 197.02,920.1 219.45,916.8" fill="none" id="MEM-UC_SKILLS" style="stroke:#181818;stroke-width:1;"/></g><!--link MEM to UC_PROJECT--><g class="link" data-entity-1="ent0003" data-entity-2="ent0020" data-link-type="association" data-source-line="90" id="lnk62"><path d="M92.4,971.27 C112.77,990.58 138.78,1019.54 151.27,1051.08 C157.01,1065.56 149.33,1179.07 159.27,1191.08 C175.64,1210.86 201.35,1220.41 226.29,1224.75" fill="none" id="MEM-UC_PROJECT" style="stroke:#181818;stroke-width:1;"/></g><!--link MEM to UC_MEMBER--><g class="link" data-entity-1="ent0003" data-entity-2="ent0021" data-link-type="association" data-source-line="91" id="lnk63"><path d="M92.34,946.76 C111.6,948.12 136.25,953.21 151.27,969.08 C164.03,982.56 148.33,995.08 159.27,1010.08 C181.83,1041 220.75,1060.96 251.83,1072.79" fill="none" id="MEM-UC_MEMBER" style="stroke:#181818;stroke-width:1;"/></g><!--link MEM to UC_SPRINT--><g class="link" data-entity-1="ent0003" data-entity-2="ent0022" data-link-type="association" data-source-line="92" id="lnk64"><path d="M92.07,959.21 C112.26,969.59 138.19,986.59 151.27,1010.08 C163.41,1031.88 143.22,1102.97 159.27,1122.08 C176.35,1142.41 203.28,1151.91 228.99,1156.05" fill="none" id="MEM-UC_SPRINT" style="stroke:#181818;stroke-width:1;"/></g><!--link MEM to UC_TASK--><g class="link" data-entity-1="ent0003" data-entity-2="ent0024" data-link-type="association" data-source-line="93" id="lnk65"><path d="M66.64,908.76 C75.41,780.48 106.57,372.06 150.27,334.08 C207.1,284.67 434.73,282.02 489.15,334.08 C516.32,360.06 514.95,972.72 519.15,1010.08 C539.46,1190.87 587.38,1406.75 601.15,1466.85" fill="none" id="MEM-UC_TASK" style="stroke:#181818;stroke-width:1;"/></g><!--link MEM to UC_KANBAN--><g class="link" data-entity-1="ent0003" data-entity-2="ent0025" data-link-type="association" data-source-line="94" id="lnk66"><path d="M87.89,985.64 C108.96,1022.11 138.33,1079.16 151.27,1133.08 C154.41,1146.16 151.13,1364.36 159.27,1375.08 C175.68,1396.68 202.67,1407.92 228.59,1413.69" fill="none" id="MEM-UC_KANBAN" style="stroke:#181818;stroke-width:1;"/></g><!--link MEM to UC_COMMENT--><g class="link" data-entity-1="ent0003" data-entity-2="ent0026" data-link-type="association" data-source-line="95" id="lnk67"><path d="M83.59,985.64 C104.79,1029.86 137.51,1105.15 151.27,1174.08 C154.41,1189.83 149.25,1450.52 159.27,1463.08 C173.75,1481.22 196.04,1490.95 218.61,1495.98" fill="none" id="MEM-UC_COMMENT" style="stroke:#181818;stroke-width:1;"/></g><!--link MEM to UC_NOTI--><g class="link" data-entity-1="ent0003" data-entity-2="ent0027" data-link-type="association" data-source-line="96" id="lnk68"><path d="M92.31,982.52 C112.78,1010.5 138.95,1051.46 151.27,1092.08 C156.66,1109.85 149.52,1243.26 159.27,1259.08 C178.45,1290.2 214.66,1310.15 245.45,1322.22" fill="none" id="MEM-UC_NOTI" style="stroke:#181818;stroke-width:1;"/></g><!--link MEM to UC_AI_CHAT--><g class="link" data-entity-1="ent0003" data-entity-2="ent0029" data-link-type="association" data-source-line="97" id="lnk69"><path d="M64.88,908.5 C67.94,796.75 83.29,476.72 159.27,413.08 C246.79,339.77 325.69,343.43 416.15,413.08 C516.69,490.48 470.56,563.56 489.15,689.08 C516.68,874.94 460.98,1355.41 519.15,1534.08 C534.06,1579.87 570.76,1624.39 590.99,1646.55" fill="none" id="MEM-UC_AI_CHAT" style="stroke:#181818;stroke-width:1;"/></g><!--link MEM to UC_AI_LOG--><g class="link" data-entity-1="ent0003" data-entity-2="ent0031" data-link-type="association" data-source-line="98" id="lnk70"><path d="M69.43,985.69 C86.98,1112.82 143.09,1511.54 159.27,1534.08 C182.59,1566.57 224.63,1586.03 256.57,1596.78" fill="none" id="MEM-UC_AI_LOG" style="stroke:#181818;stroke-width:1;"/></g><?plantuml-src TLNRRjim37ttLn1vsEMXtVlG5d0T9_DoC-9aG842WUeeZXP72YG5MJ3itwUxxSPz97r8daEHT8rt4YG3JggzX2tXk9I4qKWS23qXZevmGkK1LRYGrng3_eneLUCMu2nmYGI6ln70im9Nd9tfDc4rup3LQLzmNREB_ihu5dFxPOZueQYHn6EEhj6_A4AbLEv1pjblLGHcYAggV018G3xpNsVu-EQSipHuu-sHK28aHyeq7-DX50MkC5WXSSX9pIGKLo7nSQ38AZvEcafmbdjC9IcH5ZymKY086qnPHIXyWu9K539gAgoJpNGnpkPTv19NYWVc7hm-UV0o7NUX8yOhHIX7GbnKNpnkj5YE5wltMGM-HIxJ8jN0VnqfQw6gs-OTbQGRBRy8lYXswzDMzHvKjtUanZvblboCicdQZR398CTSC8fgA0waheKFAIRPT5fq8uQunYfvN9Pg4gH73jFf9awI6yRsIQ3rY7rla32w8zMPO_U4hpJNqwVgy8RBIx59HkDU-eOr3Cs0CtvjXnW9_K6MckvffyYwI9StElpaVeBYn4bFwtqZBKwqclupJLQzM3ll0Qfc_jbKxg5gQZOiysKslvqElGYAOCAEnpFzQDnTHeqD-LPnCUcY9eY-8Qfs6l7jA_qovAXIcOUSdRxwe4ayVuxdlSar0zpYconcitJUtuGvasJdo8Q0-MALtSYBCuY5K4E4UjgVx9642v5xY3EV9SusoO_uNLcTvIpPdKvLKRj50HuNHJQUz-oKYb9tGhIWwZvuXf_XyV5HdOwoFc_r5Qsjc3qv2Vr58Vn2m_tzKtC7u3iyF10RzlHaOO64XpeHVLZx0Xwe7_4TAd1B_qXCjnzHSsnS7dFuJ29iedmrj-4Uvgv93_16Gc3MnRcf-1Ybcclfn-PFe2uaAuaLOCZ7GxYxQsvrCFsbw3Zi7UYupA87ZvcvA9zrSWPJN_XW-4iQ7EvEjW5cwuF3xNOJO3Sus6O3W-LMAzX-VuB3S0sMd_EsmqroswKdDb94EW8RMojiB2-nyJYD7OWHsNYSobQCbTauZCx6T48RXrVQU8pKnlHQEnwjx3y0?></g></svg>