<?plantuml 1.2026.1?><svg xmlns="http://www.w3.org/2000/svg" xmlns:xlink="http://www.w3.org/1999/xlink" contentStyleType="text/css" data-diagram-type="DESCRIPTION" height="1721px" preserveAspectRatio="none" style="width:1344px;height:1721px;background:#FFFFFF;" version="1.1" viewBox="0 0 1344 1721" width="1344px" zoomAndPan="magnify"><defs/><g><!--cluster TaskPilot System--><g class="cluster" data-qualified-name="TaskPilot System" data-source-line="15" id="ent0007"><rect fill="none" height="1418" rx="2.5" ry="2.5" style="stroke:#181818;stroke-width:1;" width="981.1" x="357.23" y="15.9"/><text fill="#000000" font-family="sans-serif" font-size="14" font-weight="bold" lengthAdjust="spacing" textLength="136.001" x="779.7795" y="30.8951">TaskPilot System</text></g><!--cluster System Administration--><g class="cluster" data-qualified-name="TaskPilot System.System Administration" data-source-line="16" id="ent0008"><rect fill="none" height="265" rx="2.5" ry="2.5" style="stroke:#181818;stroke-width:1;" width="267.61" x="381.23" y="58.9"/><text fill="#000000" font-family="sans-serif" font-size="14" font-weight="bold" lengthAdjust="spacing" textLength="180.6533" x="424.7083" y="73.8951">System Administration</text></g><!--cluster Access & Profile--><g class="cluster" data-qualified-name="TaskPilot System.Access . Profile" data-source-line="22" id="ent0012"><rect fill="none" height="231" rx="2.5" ry="2.5" style="stroke:#181818;stroke-width:1;" width="581.09" x="406.04" y="347.9"/><text fill="#000000" font-family="sans-serif" font-size="14" font-weight="bold" lengthAdjust="spacing" textLength="127.5176" x="632.8262" y="362.8951">Access &amp; Profile</text></g><!--cluster Project Delivery--><g class="cluster" data-qualified-name="TaskPilot System.Project Delivery" data-source-line="29" id="ent0017"><rect fill="none" height="459" rx="2.5" ry="2.5" style="stroke:#181818;stroke-width:1;" width="233.62" x="398.22" y="602.9"/><text fill="#000000" font-family="sans-serif" font-size="14" font-weight="bold" lengthAdjust="spacing" textLength="126.3076" x="451.8762" y="617.8951">Project Delivery</text></g><!--cluster AI Assistant--><g class="cluster" data-qualified-name="TaskPilot System.AI Assistant" data-source-line="38" id="ent0024"><rect fill="none" height="324" rx="2.5" ry="2.5" style="stroke:#181818;stroke-width:1;" width="926.41" x="387.92" y="1085.9"/><text fill="#000000" font-family="sans-serif" font-size="14" font-weight="bold" lengthAdjust="spacing" textLength="94.3496" x="803.9502" y="1100.8951">AI Assistant</text></g><!--entity U_Config--><g class="entity" data-qualified-name="TaskPilot System.System Administration.U_Config" data-source-line="17" id="ent0009"><ellipse cx="515.0301" cy="205.898" fill="#FFFFE0" rx="115.6401" ry="25.528" style="stroke:#2F4F4F;stroke-width:0.5;"/><text fill="#000000" font-family="sans-serif" font-size="14" lengthAdjust="spacing" textLength="210.0273" x="410.0165" y="210.5465">Configure System Parameters</text></g><!--entity U_SkillDir--><g class="entity" data-qualified-name="TaskPilot System.System Administration.U_SkillDir" data-source-line="18" id="ent0010"><ellipse cx="515.0337" cy="119.9007" fill="#FFFFE0" rx="117.8037" ry="25.9607" style="stroke:#2F4F4F;stroke-width:0.5;"/><text fill="#000000" font-family="sans-serif" font-size="14" lengthAdjust="spacing" textLength="214.6621" x="407.7026" y="124.5492">Manage System Skill Directory</text></g><!--entity U_SysUsers--><g class="entity" data-qualified-name="TaskPilot System.System Administration.U_SysUsers" data-source-line="19" id="ent0011"><ellipse cx="515.0345" cy="286.9029" fill="#FFFFE0" rx="90.9645" ry="20.5929" style="stroke:#2F4F4F;stroke-width:0.5;"/><text fill="#000000" font-family="sans-serif" font-size="14" lengthAdjust="spacing" textLength="155.9209" x="437.0741" y="291.5513">Manage System Users</text></g><!--entity U_Auth--><g class="entity" data-qualified-name="TaskPilot System.Access . Profile.U_Auth" data-source-line="23" id="ent0013"><ellipse cx="882.2244" cy="402.9029" fill="#FFFFE0" rx="88.9144" ry="20.1829" style="stroke:#2F4F4F;stroke-width:0.5;"/><text fill="#000000" font-family="sans-serif" font-size="14" lengthAdjust="spacing" textLength="151.2793" x="806.5847" y="407.5513">Authenticate Account</text></g><!--entity U_Recovery--><g class="entity" data-qualified-name="TaskPilot System.Access . Profile.U_Recovery" data-source-line="24" id="ent0014"><ellipse cx="515.0275" cy="400.9015" fill="#FFFFE0" rx="78.8575" ry="18.1715" style="stroke:#2F4F4F;stroke-width:0.5;"/><text fill="#000000" font-family="sans-serif" font-size="14" lengthAdjust="spacing" textLength="127.9756" x="451.0397" y="405.5499">Recover Password</text></g><!--entity U_Profile--><g class="entity" data-qualified-name="TaskPilot System.Access . Profile.U_Profile" data-source-line="25" id="ent0015"><ellipse cx="515.0273" cy="469.9035" fill="#FFFFE0" rx="69.1173" ry="16.2235" style="stroke:#2F4F4F;stroke-width:0.5;"/><text fill="#000000" font-family="sans-serif" font-size="14" lengthAdjust="spacing" textLength="104.1455" x="462.9545" y="474.5519">Manage Profile</text></g><!--entity U_PSkills--><g class="entity" data-qualified-name="TaskPilot System.Access . Profile.U_PSkills" data-source-line="26" id="ent0016"><ellipse cx="515.0312" cy="541.8982" fill="#FFFFE0" rx="92.9912" ry="20.9982" style="stroke:#2F4F4F;stroke-width:0.5;"/><text fill="#000000" font-family="sans-serif" font-size="14" lengthAdjust="spacing" textLength="160.4805" x="434.791" y="546.5467">Manage Personal Skills</text></g><!--entity U_Projects--><g class="entity" data-qualified-name="TaskPilot System.Project Delivery.U_Projects" data-source-line="30" id="ent0018"><ellipse cx="515.031" cy="654.9002" fill="#FFFFE0" rx="73.801" ry="17.1602" style="stroke:#2F4F4F;stroke-width:0.5;"/><text fill="#000000" font-family="sans-serif" font-size="14" lengthAdjust="spacing" textLength="115.8076" x="457.1272" y="659.5486">Manage Projects</text></g><!--entity U_Members--><g class="entity" data-qualified-name="TaskPilot System.Project Delivery.U_Members" data-source-line="31" id="ent0019"><ellipse cx="515.0312" cy="954.9022" fill="#FFFFE0" rx="100.8112" ry="22.5622" style="stroke:#2F4F4F;stroke-width:0.5;"/><text fill="#000000" font-family="sans-serif" font-size="14" lengthAdjust="spacing" textLength="177.8438" x="426.1093" y="959.5507">Manage Project Members</text></g><!--entity U_Sprints--><g class="entity" data-qualified-name="TaskPilot System.Project Delivery.U_Sprints" data-source-line="32" id="ent0020"><ellipse cx="515.0298" cy="1028.9" fill="#FFFFE0" rx="71.0998" ry="16.62" style="stroke:#2F4F4F;stroke-width:0.5;"/><text fill="#000000" font-family="sans-serif" font-size="14" lengthAdjust="spacing" textLength="109.1357" x="460.4619" y="1033.5484">Manage Sprints</text></g><!--entity U_Tasks--><g class="entity" data-qualified-name="TaskPilot System.Project Delivery.U_Tasks" data-source-line="33" id="ent0021"><ellipse cx="515.0339" cy="728.9048" fill="#FFFFE0" rx="95.6739" ry="21.5348" style="stroke:#2F4F4F;stroke-width:0.5;"/><text fill="#000000" font-family="sans-serif" font-size="14" lengthAdjust="spacing" textLength="166.4756" x="431.7961" y="733.5532">Manage Tasks / Kanban</text></g><!--entity U_Comments--><g class="entity" data-qualified-name="TaskPilot System.Project Delivery.U_Comments" data-source-line="34" id="ent0022"><ellipse cx="515.0282" cy="803.8996" fill="#FFFFE0" rx="82.2482" ry="18.8496" style="stroke:#2F4F4F;stroke-width:0.5;"/><text fill="#000000" font-family="sans-serif" font-size="14" lengthAdjust="spacing" textLength="135.9463" x="447.055" y="808.5481">Manage Comments</text></g><!--entity U_Noti--><g class="entity" data-qualified-name="TaskPilot System.Project Delivery.U_Noti" data-source-line="35" id="ent0023"><ellipse cx="515.0259" cy="877.8972" fill="#FFFFE0" rx="87.3359" ry="19.8672" style="stroke:#2F4F4F;stroke-width:0.5;"/><text fill="#000000" font-family="sans-serif" font-size="14" lengthAdjust="spacing" textLength="147.6836" x="441.1841" y="882.5456">Manage Notifications</text></g><!--entity U_AI_Session--><g class="entity" data-qualified-name="TaskPilot System.AI Assistant.U_AI_Session" data-source-line="39" id="ent0025"><ellipse cx="515.0341" cy="1216.8968" fill="#FFFFE0" rx="92.7841" ry="20.9568" style="stroke:#2F4F4F;stroke-width:0.5;"/><text fill="#000000" font-family="sans-serif" font-size="14" lengthAdjust="spacing" textLength="160.0156" x="435.0262" y="1221.5452">Create AI Chat Session</text></g><!--entity U_AI_Chat--><g class="entity" data-qualified-name="TaskPilot System.AI Assistant.U_AI_Chat" data-source-line="40" id="ent0026"><ellipse cx="1214.972" cy="1366.9024" fill="#FFFFE0" rx="83.362" ry="19.0724" style="stroke:#2F4F4F;stroke-width:0.5;"/><text fill="#000000" font-family="sans-serif" font-size="14" lengthAdjust="spacing" textLength="138.5371" x="1145.7035" y="1371.5508">Chat with AI Copilot</text></g><!--entity U_AI_History--><g class="entity" data-qualified-name="TaskPilot System.AI Assistant.U_AI_History" data-source-line="41" id="ent0027"><ellipse cx="515.0276" cy="1290.8975" fill="#FFFFE0" rx="77.5876" ry="17.9175" style="stroke:#2F4F4F;stroke-width:0.5;"/><text fill="#000000" font-family="sans-serif" font-size="14" lengthAdjust="spacing" textLength="124.9541" x="452.5505" y="1295.546">View Chat History</text></g><!--entity U_AI_Logs--><g class="entity" data-qualified-name="TaskPilot System.AI Assistant.U_AI_Logs" data-source-line="42" id="ent0028"><ellipse cx="515.0343" cy="1140.8969" fill="#FFFFE0" rx="86.4843" ry="19.6969" style="stroke:#2F4F4F;stroke-width:0.5;"/><text fill="#000000" font-family="sans-serif" font-size="14" lengthAdjust="spacing" textLength="145.7354" x="442.1666" y="1145.5453">View AI Activity Logs</text></g><!--entity U_AI_Assign--><g class="entity" data-qualified-name="TaskPilot System.AI Assistant.U_AI_Assign" data-source-line="43" id="ent0029"><ellipse cx="882.2231" cy="1366.8966" fill="#FFFFE0" rx="124.3831" ry="27.2766" style="stroke:#2F4F4F;stroke-width:0.5;"/><text fill="#000000" font-family="sans-serif" font-size="14" lengthAdjust="spacing" textLength="228.6826" x="767.8818" y="1371.5451">AI Assignment Recommendation</text></g><!--entity U_AI_Pending--><g class="entity" data-qualified-name="TaskPilot System.AI Assistant.U_AI_Pending" data-source-line="44" id="ent0030"><ellipse cx="515.0305" cy="1368.9021" fill="#FFFFE0" rx="111.1105" ry="24.6221" style="stroke:#2F4F4F;stroke-width:0.5;"/><text fill="#000000" font-family="sans-serif" font-size="14" lengthAdjust="spacing" textLength="200.2793" x="414.8908" y="1373.5505">Pending Action Confirmation</text></g><!--entity AD--><g class="entity" data-qualified-name="AD" data-source-line="8" id="ent0002"><ellipse cx="243.8621" cy="257.25" fill="#F1F1F1" rx="8" ry="8" style="stroke:#181818;stroke-width:0.5;"/><path d="M243.8621,265.25 L243.8621,292.25 M230.8621,273.25 L256.8621,273.25 M243.8621,292.25 L230.8621,307.25 M243.8621,292.25 L256.8621,307.25" fill="none" style="stroke:#181818;stroke-width:0.5;"/><text fill="#000000" font-family="sans-serif" font-size="14" lengthAdjust="spacing" textLength="44.8643" x="221.43" y="321.7451">Admin</text></g><!--entity MB--><g class="entity" data-qualified-name="MB" data-source-line="9" id="ent0003"><ellipse cx="61.2446" cy="880.25" fill="#F1F1F1" rx="8" ry="8" style="stroke:#181818;stroke-width:0.5;"/><path d="M61.2446,888.25 L61.2446,915.25 M48.2446,896.25 L74.2446,896.25 M61.2446,915.25 L48.2446,930.25 M61.2446,915.25 L74.2446,930.25" fill="none" style="stroke:#181818;stroke-width:0.5;"/><text fill="#000000" font-family="sans-serif" font-size="14" lengthAdjust="spacing" textLength="110.4893" x="6" y="944.7451">Project Member</text></g><!--entity PM--><g class="entity" data-qualified-name="PM" data-source-line="10" id="ent0004"><ellipse cx="243.8548" cy="960.25" fill="#F1F1F1" rx="8" ry="8" style="stroke:#181818;stroke-width:0.5;"/><path d="M243.8548,968.25 L243.8548,995.25 M230.8548,976.25 L256.8548,976.25 M243.8548,995.25 L230.8548,1010.25 M243.8548,995.25 L256.8548,1010.25" fill="none" style="stroke:#181818;stroke-width:0.5;"/><text fill="#000000" font-family="sans-serif" font-size="14" lengthAdjust="spacing" textLength="114.2695" x="186.72" y="1024.7451">Project Manager</text></g><!--entity SYS--><g class="entity" data-qualified-name="SYS" data-source-line="11" id="ent0005"><ellipse cx="243.8601" cy="1153.1" fill="#F1F1F1" rx="8" ry="8" style="stroke:#181818;stroke-width:0.5;"/><path d="M243.8601,1161.1 L243.8601,1188.1 M230.8601,1169.1 L256.8601,1169.1 M243.8601,1188.1 L230.8601,1203.1 M243.8601,1188.1 L256.8601,1203.1" fill="none" style="stroke:#181818;stroke-width:0.5;"/><text fill="#000000" font-family="sans-serif" font-size="14" lengthAdjust="spacing" textLength="52.2061" x="177.49" y="1217.5951">System</text><text fill="#000000" font-family="sans-serif" font-size="14" lengthAdjust="spacing" textLength="132.7402" x="177.49" y="1233.892">(External Services)</text></g><!--reverse link MB to PM--><g class="link" data-entity-1="ent0003" data-entity-2="ent0004" data-link-type="extension" data-source-line="13" id="lnk6"><path d="M133.3875,941.4104 C155.3975,951.1604 164.31,955.11 186.49,964.93" fill="none" id="MB-backto-PM" style="stroke:#181818;stroke-width:1;"/><polygon fill="none" points="116.93,934.12,130.9574,946.8962,135.8177,935.9245,116.93,934.12" style="stroke:#181818;stroke-width:1;"/></g><!--link U_Recovery to U_Auth--><g class="link" data-entity-1="ent0014" data-entity-2="ent0013" data-link-type="dependency" data-source-line="48" id="lnk31"><path d="M593.93,401.33 C652.27,401.65 726.1401,402.0464 786.8601,402.3864" fill="none" id="U_Recovery-to-U_Auth" style="stroke:#181818;stroke-width:1;stroke-dasharray:7,7;"/><polygon fill="#181818" points="792.86,402.42,783.8825,398.3697,787.8601,402.392,783.8377,406.3695,792.86,402.42" style="stroke:#181818;stroke-width:1;"/><text fill="#000000" font-family="sans-serif" font-size="13" lengthAdjust="spacing" textLength="61.1851" x="665.84" y="397.9669">&#171;extend&#187;</text></g><!--link U_AI_Assign to U_AI_Chat--><g class="link" data-entity-1="ent0029" data-entity-2="ent0026" data-link-type="dependency" data-source-line="49" id="lnk32"><path d="M1006.85,1366.9 C1048.5,1366.9 1087.93,1366.9 1125.6,1366.9" fill="none" id="U_AI_Assign-to-U_AI_Chat" style="stroke:#181818;stroke-width:1;stroke-dasharray:7,7;"/><polygon fill="#181818" points="1131.6,1366.9,1122.6,1362.9,1126.6,1366.9,1122.6,1370.9,1131.6,1366.9" style="stroke:#181818;stroke-width:1;"/><text fill="#000000" font-family="sans-serif" font-size="13" lengthAdjust="spacing" textLength="63.0068" x="1037.6" y="1362.9669">&#171;include&#187;</text></g><!--link U_AI_Pending to U_AI_Chat--><g class="link" data-entity-1="ent0030" data-entity-2="ent0026" data-link-type="dependency" data-source-line="50" id="lnk33"><path d="M590.91,1350.49 C638.4,1339.78 701.33,1327.34 757.84,1321.9 C867.89,1311.3 896.63,1310.45 1006.6,1321.9 C1059.73,1327.43 1113.3944,1339.6151 1154.9744,1350.4651" fill="none" id="U_AI_Pending-to-U_AI_Chat" style="stroke:#181818;stroke-width:1;stroke-dasharray:7,7;"/><polygon fill="#181818" points="1160.78,1351.98,1153.0816,1345.8372,1155.942,1350.7176,1151.0616,1353.578,1160.78,1351.98" style="stroke:#181818;stroke-width:1;"/><text fill="#000000" font-family="sans-serif" font-size="13" lengthAdjust="spacing" textLength="61.1851" x="851.72" y="1309.9669">&#171;extend&#187;</text></g><!--link U_AI_Pending to U_AI_Assign--><g class="link" data-entity-1="ent0030" data-entity-2="ent0029" data-link-type="dependency" data-source-line="51" id="lnk34"><path d="M626.59,1368.29 C667.95,1368.07 709.1801,1367.8425 751.6301,1367.6125" fill="none" id="U_AI_Pending-to-U_AI_Assign" style="stroke:#181818;stroke-width:1;stroke-dasharray:7,7;"/><polygon fill="#181818" points="757.63,1367.58,748.6085,1363.6288,752.6301,1367.6071,748.6518,1371.6287,757.63,1367.58" style="stroke:#181818;stroke-width:1;"/><text fill="#000000" font-family="sans-serif" font-size="13" lengthAdjust="spacing" textLength="61.1851" x="665.84" y="1363.9669">&#171;extend&#187;</text></g><!--link AD to U_Config--><g class="link" data-entity-1="ent0002" data-entity-2="ent0009" data-link-type="association" data-source-line="53" id="lnk35"><path d="M266.65,278.29 C287.62,270.16 320.33,257.91 349.23,248.9 C377.18,240.19 408.16,231.78 435.64,224.75" fill="none" id="AD-U_Config" style="stroke:#181818;stroke-width:1;"/></g><!--link AD to U_SkillDir--><g class="link" data-entity-1="ent0002" data-entity-2="ent0010" data-link-type="association" data-source-line="54" id="lnk36"><path d="M266.68,250.33 C285.23,222.34 314.37,184.91 349.23,162.9 C369.61,150.03 393.71,141 417.11,134.67" fill="none" id="AD-U_SkillDir" style="stroke:#181818;stroke-width:1;"/></g><!--link AD to U_SysUsers--><g class="link" data-entity-1="ent0002" data-entity-2="ent0011" data-link-type="association" data-source-line="55" id="lnk37"><path d="M266.43,286.9 C300.24,286.9 367.63,286.9 423.57,286.9" fill="none" id="AD-U_SysUsers" style="stroke:#181818;stroke-width:1;"/></g><!--link AD to U_Auth--><g class="link" data-entity-1="ent0002" data-entity-2="ent0013" data-link-type="association" data-source-line="56" id="lnk38"><path d="M251.46,248.58 C262.26,199.19 288.86,115.23 349.23,77.9 C465.51,6 535.78,14.37 656.84,77.9 C784.94,145.13 854.31,322.32 874.73,382.54" fill="none" id="AD-U_Auth" style="stroke:#181818;stroke-width:1;"/></g><!--link AD to U_Profile--><g class="link" data-entity-1="ent0002" data-entity-2="ent0015" data-link-type="association" data-source-line="57" id="lnk39"><path d="M261.25,325.26 C278.14,360 307.84,409.77 349.23,436.9 C377.78,455.62 414.66,464.12 446.29,467.83" fill="none" id="AD-U_Profile" style="stroke:#181818;stroke-width:1;"/></g><!--link AD to U_AI_Logs--><g class="link" data-entity-1="ent0002" data-entity-2="ent0028" data-link-type="association" data-source-line="58" id="lnk40"><path d="M247.91,325.49 C259.9,473.76 305.36,1001.58 349.23,1061.9 C373.77,1095.64 416.59,1115.56 452.42,1126.96" fill="none" id="AD-U_AI_Logs" style="stroke:#181818;stroke-width:1;"/></g><!--link AD to U_Noti--><g class="link" data-entity-1="ent0002" data-entity-2="ent0023" data-link-type="association" data-source-line="59" id="lnk41"><path d="M246.78,325.26 C253.22,438.09 277.82,765.57 349.23,839.9 C369.57,861.07 399.17,871.5 427.69,876.35" fill="none" id="AD-U_Noti" style="stroke:#181818;stroke-width:1;"/></g><!--link MB to U_Auth--><g class="link" data-entity-1="ent0003" data-entity-2="ent0013" data-link-type="association" data-source-line="61" id="lnk42"><path d="M66.17,948.47 C77.31,1049.94 112.63,1320.51 177.49,1377.9 C282.11,1470.46 682.24,1451.23 727.84,1409.9 C753.07,1387.03 753.22,1138.64 757.84,1104.9 C794.92,833.95 859.93,507.64 877.01,423.48" fill="none" id="MB-U_Auth" style="stroke:#181818;stroke-width:1;"/></g><!--link MB to U_Profile--><g class="link" data-entity-1="ent0003" data-entity-2="ent0015" data-link-type="association" data-source-line="62" id="lnk43"><path d="M72.5,871.68 C88.44,817.16 123.12,715.73 177.49,643.9 C236.92,565.38 260.29,546.17 349.23,503.9 C380.76,488.91 418.76,480.51 450.33,475.81" fill="none" id="MB-U_Profile" style="stroke:#181818;stroke-width:1;"/></g><!--link MB to U_PSkills--><g class="link" data-entity-1="ent0003" data-entity-2="ent0016" data-link-type="association" data-source-line="63" id="lnk44"><path d="M77.53,871.33 C95.97,828.73 130.47,760.19 177.49,714.9 C260.17,635.26 386.79,583.73 458.84,559.05" fill="none" id="MB-U_PSkills" style="stroke:#181818;stroke-width:1;"/></g><!--link MB to U_Projects--><g class="link" data-entity-1="ent0003" data-entity-2="ent0018" data-link-type="association" data-source-line="64" id="lnk45"><path d="M89.21,871.35 C110.68,842.67 142.81,803.97 177.49,776.9 C244.93,724.25 268.54,718.36 349.23,689.9 C382.33,678.23 420.61,669.8 451.94,664.15" fill="none" id="MB-U_Projects" style="stroke:#181818;stroke-width:1;"/></g><!--link MB to U_Tasks--><g class="link" data-entity-1="ent0003" data-entity-2="ent0021" data-link-type="association" data-source-line="65" id="lnk46"><path d="M110.86,871.32 C130.74,856.73 154.46,840.8 177.49,828.9 C262.37,785.04 369.48,757.4 439.78,742.56" fill="none" id="MB-U_Tasks" style="stroke:#181818;stroke-width:1;"/></g><!--link MB to U_Comments--><g class="link" data-entity-1="ent0003" data-entity-2="ent0022" data-link-type="association" data-source-line="66" id="lnk47"><path d="M116.64,887.75 C126.48,884.17 136.72,880.72 146.49,877.9 C249.05,848.31 371.05,826.26 445.48,814.24" fill="none" id="MB-U_Comments" style="stroke:#181818;stroke-width:1;"/></g><!--link MB to U_Noti--><g class="link" data-entity-1="ent0003" data-entity-2="ent0023" data-link-type="association" data-source-line="67" id="lnk48"><path d="M116.74,906.04 C194.89,900.5 339.44,890.27 430.96,883.78" fill="none" id="MB-U_Noti" style="stroke:#181818;stroke-width:1;"/></g><!--link MB to U_AI_Session--><g class="link" data-entity-1="ent0003" data-entity-2="ent0025" data-link-type="association" data-source-line="68" id="lnk49"><path d="M89.45,948.28 C111.17,977.24 143.51,1016.82 177.49,1045.9 C230,1090.84 258.86,1080.66 310.23,1126.9 C331.44,1145.99 325.29,1162.38 349.23,1177.9 C373.04,1193.33 402.31,1202.67 429.55,1208.32" fill="none" id="MB-U_AI_Session" style="stroke:#181818;stroke-width:1;"/></g><!--link MB to U_AI_Chat--><g class="link" data-entity-1="ent0003" data-entity-2="ent0026" data-link-type="association" data-source-line="69" id="lnk50"><path d="M63.16,948.38 C67.82,1101.59 94.95,1659.9 242.86,1659.9 C242.86,1659.9 242.86,1659.9 883.22,1659.9 C1048.92,1659.9 1170.46,1451.31 1204.4,1386.12" fill="none" id="MB-U_AI_Chat" style="stroke:#181818;stroke-width:1;"/></g><!--link MB to U_AI_History--><g class="link" data-entity-1="ent0003" data-entity-2="ent0027" data-link-type="association" data-source-line="70" id="lnk51"><path d="M62.49,948.42 C65.25,1021.21 82.53,1178.5 177.49,1254.9 C256.12,1318.16 380.73,1312.74 454.22,1302.32" fill="none" id="MB-U_AI_History" style="stroke:#181818;stroke-width:1;"/></g><!--link MB to U_AI_Pending--><g class="link" data-entity-1="ent0003" data-entity-2="ent0030" data-link-type="association" data-source-line="71" id="lnk52"><path d="M67.59,948.33 C81.16,1039.95 120.02,1267.08 177.49,1313.9 C242.21,1366.62 337.73,1377.95 410.49,1377.49" fill="none" id="MB-U_AI_Pending" style="stroke:#181818;stroke-width:1;"/></g><!--link PM to U_Members--><g class="link" data-entity-1="ent0004" data-entity-2="ent0019" data-link-type="association" data-source-line="73" id="lnk53"><path d="M301.29,982.56 C337.67,977.83 385.71,971.59 426.94,966.22" fill="none" id="PM-U_Members" style="stroke:#181818;stroke-width:1;"/></g><!--link PM to U_Sprints--><g class="link" data-entity-1="ent0004" data-entity-2="ent0020" data-link-type="association" data-source-line="74" id="lnk54"><path d="M301.29,998.08 C345.99,1004.55 408.31,1013.58 453.94,1020.19" fill="none" id="PM-U_Sprints" style="stroke:#181818;stroke-width:1;"/></g><!--link PM to U_AI_Assign--><g class="link" data-entity-1="ent0004" data-entity-2="ent0029" data-link-type="association" data-source-line="75" id="lnk55"><path d="M267.23,1028.47 C281.75,1055.24 299.84,1092.19 310.23,1126.9 C328.5,1187.93 305.5,1364.58 349.23,1410.9 C466.28,1534.89 565.06,1523.67 727.84,1472.9 C777.28,1457.48 824.83,1419.93 853.55,1393.93" fill="none" id="PM-U_AI_Assign" style="stroke:#181818;stroke-width:1;"/></g><!--link SYS to U_Noti--><g class="link" data-entity-1="ent0005" data-entity-2="ent0023" data-link-type="association" data-source-line="77" id="lnk56"><path d="M267.83,1144.22 C281.17,1116.12 297.75,1079.41 310.23,1045.9 C331.43,988.97 304.83,956.36 349.23,914.9 C370.45,895.09 399.9,885.06 428.05,880.22" fill="none" id="SYS-U_Noti" style="stroke:#181818;stroke-width:1;"/></g><!--link SYS to U_AI_Chat--><g class="link" data-entity-1="ent0005" data-entity-2="ent0026" data-link-type="association" data-source-line="78" id="lnk57"><path d="M244.06,1237.42 C245.63,1310.73 260.76,1451.39 349.23,1515.9 C621.88,1714.71 1070.08,1457.94 1185.94,1385.12" fill="none" id="SYS-U_AI_Chat" style="stroke:#181818;stroke-width:1;"/></g><?plantuml-src VLLBQzj04BxhLmm-bFQGz5v2GB5B6neNKJM5G21ifB6yjRHhTjTnJPl_tjd7IB8jSj1XPhvvVxDgSUN0QJ2oMJkefS7AIQqokv5gAupeO2kgZMYmT8SMmPk5QbeS0NOMAs4H_cO0DmHkZDwfUgvRRU3EXtt0jjLxRzMcHXCj2s4sPIiSVZ7YaBrccQWSgMTvtKar0s4XNx2kCFet9OObTizeWd5vSsOKYigCrcB9rl9W7NQFwltdFmwD4YsKQ5vaXVP3G9OFPPOjR-3gtyM5Tylw3c7sKzXD8Llj84QPXHRJF3WqX8AbTKRumKKCz4EPpRLQoMPdC0M1mWyDgHWR2hX_YeXZhzWCkvGRsRQm2ClHvf3yWfQKRtdUso4FgO98-5Vwngta5Gt4mZkWOQvaYsTTv3ktHkLaHGi3GjE6NGhhJSVW7rZf5pJKgRLxMda29lLXiju-SO0cQHf9BUYmIDy_DrT4AVGsxepPiS1M-kHddGtvFSuE1GJnBMoY8xiaQNeRMoDL7pn9aqZFEGiVuPjGpq8bXw2SXCzrr-4GcSL9x7VjvCfla6ZA3bvtDhFy5d9hYTB2B_cKpmO31svXlXPq6SIRGFl8XTkdf3Xnyj2zTElWfxV-g0ONRpt6_vAuZ_6_KXa3vGcS51DuNpOzNY_I7U1EDtRmyT89dsEBZVBZ0izCFxWwdJ3xHSYnPq4mgPgGIYi8nskw4yS42fEbsGxSXylBwtGpy0ckhf1U9LLVNsUZV8o9WmamgQfsLoFZk8Ppu76yCrnAS8JCyWNGszU_GopspqkluFU35U7oMU2JxOrfx2m7flcNTd1bWLrxETtoo1wFaHNn7bZgIS-AaAhFD51of0gK6ydCgf6ATvWLowZZ0sUPpvZbWJ0P_LL6fVHIIlmV?></g></svg>